<?xml version="1.0" standalone="no"?>
<!DOCTYPE svg PUBLIC "-//W3C//DTD SVG 1.1//EN" "http://www.w3.org/Graphics/SVG/1.1/DTD/svg11.dtd" >
<svg>
<metadata>
Created by FontForge 20090914 at Sat Mar  4 06:13:50 2017
 By www-data
Copyright (c) Mark Simonson, 2005. All rights reserved.
</metadata>
<defs>
<font id="ProximaNovaS-Light" horiz-adv-x="571" >
  <font-face 
    font-family="Proxima Nova S Light"
    font-weight="300"
    font-stretch="normal"
    units-per-em="1000"
    panose-1="2 0 5 6 3 0 0 2 0 4"
    ascent="790"
    descent="-210"
    x-height="550"
    cap-height="667"
    bbox="-351 -304 1111 1079"
    underline-thickness="20"
    underline-position="-113"
    unicode-range="U+000D-U+FB04"
  />
<missing-glyph horiz-adv-x="517" 
d="M83 752h351v-842h-351v842zM114 722v-782h288v782h-288z" />
    <glyph glyph-name="f_f_j" unicode="ffj" horiz-adv-x="744" 
d="M98 437l-80 0.000976562v46h80v44c0 47.333 11.667 84.166 35 110.499s55.333 39.5 96 39.5c26 0 47.667 -5 65 -15l-16 -41c-12.667 7.33301 -27.334 11 -44.001 11c-27.333 0 -48.166 -9 -62.499 -27s-21.5 -44 -21.5 -78v-44h98v-46h-98v-437h-52v437zM363 437.001
l-80 0.000976562v46h80v44c0 47.333 11.667 84.166 35 110.499s55.333 39.5 96 39.5c26 0 47.667 -5 65 -15l-16 -41c-12.667 7.33301 -27.334 11 -44.001 11c-27.333 0 -48.166 -9 -62.499 -27s-21.5 -44 -21.5 -78v-44h98v-46h-98v-437h-52v437zM609 575.002
c-8 8 -12 17.333 -12 28s4 20 12 28s17.333 12 28 12c11.333 0 20.833 -3.83301 28.5 -11.5s11.5 -17.167 11.5 -28.5c0 -10.667 -3.83301 -20 -11.5 -28s-17.167 -12 -28.5 -12c-10.667 0 -20 4 -28 12zM663 -61.998c0 -44 -11.168 -77.333 -33.501 -100
s-53.833 -34 -94.5 -34c-19.333 0 -37.666 2.66699 -54.999 8l10 45c14 -4.66699 27.667 -7 41 -7c24.667 0 44.167 7.16699 58.5 21.5s21.5 36.5 21.5 66.5v545h52v-545z" />
    <glyph glyph-name="f_j" unicode="fj" horiz-adv-x="479" 
d="M98 437l-80 0.000976562v46h80v44c0 47.333 11.667 84.166 35 110.499s55.333 39.5 96 39.5c26 0 47.667 -5 65 -15l-16 -41c-12.667 7.33301 -27.334 11 -44.001 11c-27.333 0 -48.166 -9 -62.499 -27s-21.5 -44 -21.5 -78v-44h98v-46h-98v-437h-52v437zM344 575.001
c-8 8 -12 17.333 -12 28s4 20 12 28s17.333 12 28 12c11.333 0 20.833 -3.83301 28.5 -11.5s11.5 -17.167 11.5 -28.5c0 -10.667 -3.83301 -20 -11.5 -28s-17.167 -12 -28.5 -12c-10.667 0 -20 4 -28 12zM398 -61.999c0 -44 -11.168 -77.333 -33.501 -100
s-53.833 -34 -94.5 -34c-19.333 0 -37.666 2.66699 -54.999 8l10 45c14 -4.66699 27.667 -7 41 -7c24.667 0 44.167 7.16699 58.5 21.5s21.5 36.5 21.5 66.5v545h52v-545z" />
    <glyph glyph-name="f_f" unicode="ff" horiz-adv-x="530" 
d="M98 437l-80 0.000976562v46h80v44c0 47.333 11.667 84.166 35 110.499s55.333 39.5 96 39.5c26 0 47.667 -5 65 -15l-16 -41c-12.667 7.33301 -27.334 11 -44.001 11c-27.333 0 -48.166 -9 -62.499 -27s-21.5 -44 -21.5 -78v-44h98v-46h-98v-437h-52v437zM363 437.001
l-80 0.000976562v46h80v44c0 47.333 11.667 84.166 35 110.499s55.333 39.5 96 39.5c26 0 47.667 -5 65 -15l-16 -41c-12.667 7.33301 -27.334 11 -44.001 11c-27.333 0 -48.166 -9 -62.499 -27s-21.5 -44 -21.5 -78v-44h98v-46h-98v-437h-52v437z" />
    <glyph glyph-name="fi" unicode="fi" horiz-adv-x="700" 
d="M81 550h368v-49h-313v-194h307v-49h-307v-258h-55v550zM565 550h55v-550h-55v550z" />
    <glyph glyph-name="fl" unicode="fl" horiz-adv-x="938" 
d="M81 550h368v-49h-313v-194h307v-49h-307v-258h-55v550zM565 550h55v-501h277v-49h-332v550z" />
    <glyph glyph-name="f_f_i" unicode="ffi" horiz-adv-x="744" 
d="M98 437l-80 0.000976562v46h80v44c0 47.333 11.667 84.166 35 110.499s55.333 39.5 96 39.5c26 0 47.667 -5 65 -15l-16 -41c-12.667 7.33301 -27.334 11 -44.001 11c-27.333 0 -48.166 -9 -62.499 -27s-21.5 -44 -21.5 -78v-44h98v-46h-98v-437h-52v437zM363 437.001
l-80 0.000976562v46h80v44c0 47.333 11.667 84.166 35 110.499s55.333 39.5 96 39.5c26 0 47.667 -5 65 -15l-16 -41c-12.667 7.33301 -27.334 11 -44.001 11c-27.333 0 -48.166 -9 -62.499 -27s-21.5 -44 -21.5 -78v-44h98v-46h-98v-437h-52v437zM609 575.002
c-8 8 -12 17.333 -12 28s4 20 12 28s17.333 12 28 12c11.333 0 20.833 -3.83301 28.5 -11.5s11.5 -17.167 11.5 -28.5c0 -10.667 -3.83301 -20 -11.5 -28s-17.167 -12 -28.5 -12c-10.667 0 -20 4 -28 12zM611 483.002h52v-483h-52v483z" />
    <glyph glyph-name="f_f_l" unicode="ffl" horiz-adv-x="744" 
d="M98 437l-80 0.000976562v46h80v44c0 47.333 11.667 84.166 35 110.499s55.333 39.5 96 39.5c26 0 47.667 -5 65 -15l-16 -41c-12.667 7.33301 -27.334 11 -44.001 11c-27.333 0 -48.166 -9 -62.499 -27s-21.5 -44 -21.5 -78v-44h98v-46h-98v-437h-52v437zM363 437.001
l-80 0.000976562v46h80v44c0 47.333 11.667 84.166 35 110.499s55.333 39.5 96 39.5c26 0 47.667 -5 65 -15l-16 -41c-12.667 7.33301 -27.334 11 -44.001 11c-27.333 0 -48.166 -9 -62.499 -27s-21.5 -44 -21.5 -78v-44h98v-46h-98v-437h-52v437zM611 667.002h52v-667h-52
v667z" />
    <glyph glyph-name="f_b" unicode="fb" horiz-adv-x="836" 
d="M98 437l-80 0.000976562v46h80v44c0 47.333 11.667 84.166 35 110.499s55.333 39.5 96 39.5c26 0 47.667 -5 65 -15l-16 -41c-12.667 7.33301 -27.334 11 -44.001 11c-27.333 0 -48.166 -9 -62.499 -27s-21.5 -44 -21.5 -78v-44h98v-46h-98v-437h-52v437zM346 667.001
h52.002v-262c20 28 44.667 50 74 66s60.666 24 93.999 24c42.667 0 80.334 -10.5 113.001 -31.5s58 -50.667 76 -89s27 -82.833 27 -133.5s-9 -95.167 -27 -133.5s-43.333 -67.833 -76 -88.5s-70.334 -31 -113.001 -31c-34.667 0 -66.834 8.33301 -96.501 25
s-53.5 38 -71.5 64v-77h-52v667zM464.002 60.001c29.333 -16.667 60.334 -25.001 93.001 -25.001c52.667 0 94 19.333 124 58s45 88 45 148c0 60.667 -15 110.334 -45 149.001s-71.333 58 -124 58c-32 0 -62.833 -8.66699 -92.5 -26s-51.834 -38 -66.501 -62v-239
c14.667 -24 36.667 -44.333 66 -61z" />
    <glyph glyph-name="f_h" unicode="fh" horiz-adv-x="805" 
d="M98 437l-80 0.000976562v46h80v44c0 47.333 11.667 84.166 35 110.499s55.333 39.5 96 39.5c26 0 47.667 -5 65 -15l-16 -41c-12.667 7.33301 -27.334 11 -44.001 11c-27.333 0 -48.166 -9 -62.499 -27s-21.5 -44 -21.5 -78v-44h98v-46h-98v-437h-52v437zM672 329.001
c0 44 -10 74.833 -30 92.5s-49 26.5 -87 26.5c-30 0 -59.667 -8 -89 -24s-52 -35.667 -68 -59v-365h-52v667h52v-257c19.333 22.667 45 42.5 77 59.5s64.333 25.5 97 25.5c50 0 87.833 -12.5 113.5 -37.5s38.5 -64.167 38.5 -117.5v-340h-52v329z" />
    <glyph glyph-name="f_k" unicode="fk" horiz-adv-x="770" 
d="M98 437l-80 0.000976562v46h80v44c0 47.333 11.667 84.166 35 110.499s55.333 39.5 96 39.5c26 0 47.667 -5 65 -15l-16 -41c-12.667 7.33301 -27.334 11 -44.001 11c-27.333 0 -48.166 -9 -62.499 -27s-21.5 -44 -21.5 -78v-44h98v-46h-98v-437h-52v437zM488 230.001
l-90 -85v-145h-52v667h52v-460l285 276h69l-225 -218l224 -265h-70z" />
    <glyph glyph-name=".notdef" horiz-adv-x="517" 
d="M83 752h351v-842h-351v842zM114 722v-782h288v782h-288z" />
    <glyph glyph-name="NULL" horiz-adv-x="0" 
 />
    <glyph glyph-name="NULL" horiz-adv-x="0" 
 />
    <glyph glyph-name="nonmarkingreturn" unicode="&#xd;" horiz-adv-x="0" 
 />
    <glyph glyph-name="space" unicode=" " horiz-adv-x="259" 
 />
    <glyph glyph-name="exclam" unicode="!" horiz-adv-x="219" 
d="M90 149l-13 401h65l-13 -401h-39zM79 3.5c-8.66699 9 -13 19.5 -13 31.5c0 11.333 4.33301 21.333 13 30s19 13 31 13s22.333 -4.33301 31 -13s13 -18.667 13 -30c0 -12 -4.33301 -22.5 -13 -31.5s-19 -13.5 -31 -13.5s-22.333 4.5 -31 13.5z" />
    <glyph glyph-name="quotedbl" unicode="&#x22;" horiz-adv-x="317" 
d="M67 546c-6 58 -9.00098 89.667 -9.00098 95c0 10 3.33301 18.5 10 25.5s15.334 10.5 26.001 10.5c10 0 18.5 -3.5 25.5 -10.5s10.5 -15.5 10.5 -25.5c0 -5.33301 -3 -37 -9 -95s-10 -97.667 -12 -119h-30c-2 21.333 -6 61 -12 119zM195.999 546c-6 58 -9 89.667 -9 95
c0 10 3.5 18.5 10.5 25.5s15.5 10.5 25.5 10.5s18.5 -3.5 25.5 -10.5s10.5 -15.5 10.5 -25.5c0 -5.33301 -3 -37 -9 -95s-10 -97.667 -12 -119h-30c-2 21.333 -6 61 -12 119z" />
    <glyph glyph-name="numbersign" unicode="#" horiz-adv-x="488" 
d="M361 353l-51 -152h93l-12 -39h-94l-54 -162h-45l55 162h-97l-53 -162h-45l54 162h-88l12 39h89l51 152h-90l11 37h92l54 160h45l-55 -160h96l55 160h45l-55 -160h90l-11 -37h-92zM169 201h96l50 152h-94z" />
    <glyph glyph-name="dollar" unicode="$" horiz-adv-x="499" 
d="M411.5 38c-31 -29.333 -76.8311 -45.668 -137.498 -49.001v-63h-45v62c-40.667 2.66699 -77.334 11.834 -110.001 27.501s-59.334 35.834 -80.001 60.501l34 39c18 -20 40.333 -37.333 67 -52s56.334 -23.334 89.001 -26.001v228c-36 9.33301 -66 19 -90 29
s-43.833 24.5 -59.5 43.5s-23.5 43.833 -23.5 74.5c0 42 16.5 76.5 49.5 103.5s74.167 42.167 123.5 45.5v67h45v-68c69.333 -4.66699 125.666 -30.334 168.999 -77.001l-32 -38c-34 40 -79.667 62 -137 66v-201c38 -10 69.667 -20.667 95 -32s46.5 -27.5 63.5 -48.5
s25.5 -48.5 25.5 -82.5c0 -43.333 -15.5 -79.666 -46.5 -108.999zM143.002 355.998c20 -13.333 48.667 -25 86 -35v192c-33.333 -3.33301 -61 -14.333 -83 -33s-33 -41 -33 -67c0 -24.667 10 -43.667 30 -57zM369.502 72.498c20.333 20.333 30.5 44.834 30.5 73.501
c0 30.667 -10.667 53.667 -32 69s-52.666 28.333 -93.999 39v-217c43.333 3.33301 75.166 15.166 95.499 35.499z" />
    <glyph glyph-name="percent" unicode="%" horiz-adv-x="582" 
d="M62 328.5c-24 25.667 -35.999 57.834 -35.999 96.501s12.167 71.167 36.5 97.5s55.166 39.5 92.499 39.5c38 0 69.167 -13.167 93.5 -39.5s36.5 -58.833 36.5 -97.5s-12.167 -70.834 -36.5 -96.501s-55.5 -38.5 -93.5 -38.5s-69 12.833 -93 38.5zM77.001 0l383 550h45
l-384 -550h-44zM91.501 497.5c-16.333 -19.667 -24.5 -43.832 -24.5 -72.499s8.33301 -52.667 25 -72s37.667 -29 63 -29c26.667 0 48.167 9.66699 64.5 29s24.5 43.333 24.5 72c0 29.333 -8.16699 53.666 -24.5 72.999s-37.833 29 -64.5 29
c-26 0 -47.167 -9.83301 -63.5 -29.5zM334.501 27.002c-24.333 26 -36.502 58.333 -36.502 97c0 39.333 12 72 36 98s55 39 93 39s69 -13 93 -39s36 -58.667 36 -98c0 -38.667 -12.167 -71 -36.5 -97s-55.166 -39 -92.499 -39s-68.166 13 -92.499 39zM363.499 197.002
c-16.333 -19.333 -24.5 -43.666 -24.5 -72.999c0 -28 8.16699 -51.833 24.5 -71.5s37.5 -29.5 63.5 -29.5s47.167 9.83301 63.5 29.5s24.5 43.5 24.5 71.5c0 29.333 -8.16699 53.666 -24.5 72.999s-37.5 29 -63.5 29s-47.167 -9.66699 -63.5 -29z" />
    <glyph glyph-name="ampersand" unicode="&#x26;" horiz-adv-x="552" 
d="M453 0c-20 16.667 -38.668 33.6689 -56.001 51.002l-18 16c-49.333 -52.667 -106.666 -79 -171.999 -79c-52 0 -94.5 14 -127.5 42s-49.5 65.667 -49.5 113c0 39.333 11.333 71.666 34 96.999s54 48 94 68c-30.667 46.667 -46 88.334 -46 125.001
c0 37.333 13.5 68.166 40.5 92.499s59.833 36.5 98.5 36.5c35.333 0 64.833 -9.33301 88.5 -28s35.5 -45.334 35.5 -80.001c0 -26 -6.83301 -48.333 -20.5 -67s-30.167 -34.167 -49.5 -46.5s-45.666 -26.833 -78.999 -43.5c19.333 -24.667 44 -52 74 -82l77 -79
c26 38 47 82.333 63 133l45 -18c-23.333 -59.333 -48.333 -108 -75 -146c33.333 -32.667 71.666 -67.667 114.999 -105h-72zM201.999 330.002c42.667 20.667 74.333 39.499 95 56.499s31 39.167 31 66.5c0 22 -6.83301 39 -20.5 51s-32.167 18 -55.5 18
c-26 0 -47.667 -8.66699 -65 -26s-26 -38.666 -26 -63.999c0 -28.667 13.667 -62.667 41 -102zM345.998 98.001c-33.333 32 -61.333 60 -84 84c-32.667 36 -59.334 67 -80.001 93c-31.333 -18 -55.666 -37 -72.999 -57s-26 -44.333 -26 -73
c0 -33.333 11.833 -60.833 35.5 -82.5s54.167 -32.5 91.5 -32.5c50 0 95.333 22.667 136 68z" />
    <glyph glyph-name="quotesingle" unicode="'" horiz-adv-x="187" 
d="M67 546c-6 58 -9.00098 89.667 -9.00098 95c0 10 3.33301 18.5 10 25.5s15.334 10.5 26.001 10.5c10 0 18.5 -3.5 25.5 -10.5s10.5 -15.5 10.5 -25.5c0 -5.33301 -3 -37 -9 -95s-10 -97.667 -12 -119h-30c-2 21.333 -6 61 -12 119z" />
    <glyph glyph-name="parenleft" unicode="(" horiz-adv-x="227" 
d="M80 11c-22.667 74.667 -34 152 -34 232s11.333 157.333 34 232s55.667 144.667 99 210l31 -22c-35.333 -72.667 -61.833 -140.667 -79.5 -204s-26.5 -135.333 -26.5 -216s8.83301 -152.667 26.5 -216s44.167 -131 79.5 -203l-31 -23
c-43.333 65.333 -76.333 135.333 -99 210z" />
    <glyph glyph-name="parenright" unicode=")" horiz-adv-x="227" 
d="M96.5 460c-17.667 63.333 -44.167 131 -79.5 203l31 22c43.333 -66 76.5 -136.333 99.5 -211s34.5 -151.667 34.5 -231s-11.5 -156.333 -34.5 -231s-56.167 -145 -99.5 -211l-31 23c35.333 71.333 61.833 138.833 79.5 202.5s26.5 135.834 26.5 216.501
c0 81.333 -8.83301 153.666 -26.5 216.999z" />
    <glyph glyph-name="asterisk" unicode="*" horiz-adv-x="335" 
d="M154 516l-98 -64l-19 33l104 53l-104 53l19 33l98 -64l-5 117h37l-6 -117l99 64l18 -33l-103 -53l103 -53l-18 -33l-99 64l6 -117h-37z" />
    <glyph glyph-name="plus" unicode="+" horiz-adv-x="496" 
d="M271 99h-45v217h-197v42h197v211h45v-211h196v-42h-196v-217z" />
    <glyph glyph-name="comma" unicode="," horiz-adv-x="219" 
d="M58 -98c16 10.667 29.334 24.833 40.001 42.5s16.667 34.167 18 49.5l-10 -1c-12 0 -21.833 4 -29.5 12s-11.5 18 -11.5 30c0 11.333 4.16699 21.333 12.5 30s18.5 13 30.5 13c14 0 26 -5.66699 36 -17s15 -27 15 -47c0 -26.667 -6.83301 -52.5 -20.5 -77.5
s-30.834 -44.833 -51.501 -59.5z" />
    <glyph glyph-name="hyphen" unicode="-" horiz-adv-x="300" 
d="M30 266h240v-48h-240v48z" />
    <glyph glyph-name="period" unicode="." horiz-adv-x="219" 
d="M78 65c8.66699 8.66699 19 13 31 13s22.5 -4.33301 31.5 -13s13.5 -18.667 13.5 -30c0 -12 -4.5 -22.5 -13.5 -31.5s-19.5 -13.5 -31.5 -13.5s-22.333 4.5 -31 13.5s-13 19.5 -13 31.5c0 11.333 4.33301 21.333 13 30z" />
    <glyph glyph-name="slash" unicode="/" horiz-adv-x="282" 
d="M237 687h45l-237 -707h-45z" />
    <glyph glyph-name="zero" unicode="0" horiz-adv-x="608" 
d="M166.5 29c-37 27.333 -64.333 62.834 -82 106.501s-26.5 90.167 -26.5 139.5c0 50 8.83301 96.667 26.5 140s45 78.666 82 105.999s83.167 41 138.5 41c54.667 0 100.5 -13.667 137.5 -41s64.333 -62.833 82 -106.5s26.5 -90.167 26.5 -139.5
s-8.83301 -95.833 -26.5 -139.5s-45 -79.167 -82 -106.5s-82.833 -41 -137.5 -41c-55.333 0 -101.5 13.667 -138.5 41zM199 477.001c-28 -22 -48.498 -50.8311 -61.498 -86.498s-19.5 -74.167 -19.5 -115.5s6.5 -79.833 19.5 -115.5s33.5 -64.5 61.5 -86.5
s63.333 -33 106 -33c42 0 76.833 11.167 104.5 33.5s48 51.166 61 86.499s19.5 73.666 19.5 114.999s-6.33301 79.833 -19 115.5s-32.834 64.5 -60.501 86.5s-62.834 33 -105.501 33s-78 -11 -106 -33z" />
    <glyph glyph-name="one" unicode="1" horiz-adv-x="308" 
d="M168 472l-107 -114l-35 37l147 155h52v-550h-57v472z" />
    <glyph glyph-name="two" unicode="2" horiz-adv-x="576" 
d="M64 48c122 53.333 213.832 107.832 275.499 163.499s92.5 110.834 92.5 165.501c0 38.667 -14.667 70.5 -44 95.5s-65 37.5 -107 37.5c-40 0 -77 -7.83301 -111 -23.5s-60.667 -36.834 -80 -63.501l-38 36c22.667 32 54.834 57.167 96.501 75.5s86.167 27.5 133.5 27.5
c38 0 72.667 -7.33301 104 -22s56.333 -35.667 75 -63s28 -58.666 28 -93.999c0 -62 -29.167 -122.333 -87.5 -181s-134.5 -108.667 -228.5 -150h306v-52h-415v48z" />
    <glyph glyph-name="three" unicode="3" horiz-adv-x="544" 
d="M69 17c19.333 -28 45.1689 -50.499 77.502 -67.499s68.833 -25.5 109.5 -25.5c51.333 0 92.166 12.667 122.499 38s45.5 60 45.5 104c0 45.333 -16.5 79.166 -49.5 101.499s-76.167 33.5 -129.5 33.5c-34.667 0 -55.334 -0.333008 -62.001 -1v54
c6.66699 -0.666992 27.334 -1 62.001 -1c48 0 88.167 10.667 120.5 32s48.5 53 48.5 95c0 40 -15.333 71.5 -46 94.5s-68.667 34.5 -114 34.5c-36.667 0 -69.334 -7 -98.001 -21s-55.667 -35.333 -81 -64l-36 36c25.333 30.667 56.5 55.167 93.5 73.5s78.5 27.5 124.5 27.5
c39.333 0 75.333 -7 108 -21s58.667 -34.167 78 -60.5s29 -57.833 29 -94.5c0 -46 -14.833 -82 -44.5 -108s-62.5 -42 -98.5 -48c22 -2 44.833 -9.5 68.5 -22.5s43.667 -31.667 60 -56s24.5 -53.5 24.5 -87.5c0 -36.667 -9 -69.5 -27 -98.5s-44 -51.667 -78 -68
s-74 -24.5 -120 -24.5c-52 0 -97.667 10.5 -137 31.5s-69.333 47.5 -90 79.5z" />
    <glyph glyph-name="four" unicode="4" horiz-adv-x="541" 
d="M408 -117h-57v183h-316v52l296 432h77v-432h98v-52h-98v-183zM94 118h257v375z" />
    <glyph glyph-name="five" unicode="5" horiz-adv-x="582" 
d="M112 18c22 -31.333 48.166 -55.001 78.499 -71.001s66.5 -24 108.5 -24c31.333 0 59.833 7 85.5 21s45.667 33.333 60 58s21.5 52 21.5 82c0 50 -15.5 89.667 -46.5 119s-70.833 44 -119.5 44c-60.667 0 -114.667 -21.667 -162 -65l-43 18v350h385v-52h-328v-261
c18 18 41 32.833 69 44.5s58 17.5 90 17.5c38 0 73.333 -8.33301 106 -25s58.667 -41 78 -73s29 -70.333 29 -115c0 -43.333 -10 -81.166 -30 -113.499s-47.167 -57.333 -81.5 -75s-72.166 -26.5 -113.499 -26.5c-53.333 0 -98 9.33301 -134 28s-66.333 45.667 -91 81z" />
    <glyph glyph-name="six" unicode="6" horiz-adv-x="584" 
d="M84.5 502c17.667 52 45.668 94.168 84.001 126.501s86.5 48.5 144.5 48.5c41.333 0 76.166 -7.33301 104.499 -22s53.5 -35.667 75.5 -63l-34 -42c-17.333 24 -37.5 42.5 -60.5 55.5s-51.5 19.5 -85.5 19.5c-45.333 0 -82.833 -14 -112.5 -42
s-51.167 -64.167 -64.5 -108.5s-20 -91.833 -20 -142.5c0 -14 0.333008 -24.333 1 -31c16.667 27.333 43 52.666 79 75.999s74.667 35 116 35c63.333 0 115 -18.167 155 -54.5s60 -88.5 60 -156.5c0 -37.333 -9 -72.166 -27 -104.499s-44 -58.5 -78 -78.5
s-73.667 -30 -119 -30c-84 0 -145.833 32.667 -185.5 98s-59.5 147.666 -59.5 246.999c0 60.667 8.83301 117 26.5 169zM423.001 320.001c-30.667 27.333 -71.002 41.001 -121.002 41.001c-36 0 -70.5 -10.5 -103.5 -31.5s-59.167 -48.5 -78.5 -82.5
c4.66699 -54.667 21.834 -102.834 51.501 -144.501s72.834 -62.5 129.501 -62.5c36 0 66.667 8 92 24s44.333 36.333 57 61s19 49.667 19 75c0 52.667 -15.333 92.667 -46 120z" />
    <glyph glyph-name="seven" unicode="7" horiz-adv-x="502" 
d="M402 498h-369v52h437v-40l-285 -627h-63z" />
    <glyph glyph-name="eight" unicode="8" 
d="M107 278.5c32 31 71.333 52.835 118 65.502c-44 12 -80.833 31.5 -110.5 58.5s-44.5 61.167 -44.5 102.5c0 37.333 10.333 69 31 95s47.334 45.333 80.001 58s67.667 19 105 19c36.667 0 71.5 -6.33301 104.5 -19s59.833 -32 80.5 -58s31 -57.667 31 -95
c0 -41.333 -14.833 -75.5 -44.5 -102.5s-66.5 -46.5 -110.5 -58.5c46.667 -12.667 85.834 -34.334 117.501 -65.001s47.5 -68 47.5 -112c0 -35.333 -9.83301 -66.5 -29.5 -93.5s-46.667 -48 -81 -63s-72.833 -22.5 -115.5 -22.5s-81.334 7.33301 -116.001 22
s-61.834 35.667 -81.501 63s-29.5 58.666 -29.5 93.999c0 43.333 16 80.5 48 111.5zM399 591.002c-30 22.667 -67.667 34 -113 34s-83 -11.333 -113 -34s-45 -53.334 -45 -92.001c0 -40 17.167 -70 51.5 -90s69.833 -33.667 106.5 -41c36.667 7.33301 72.167 21 106.5 41
s51.5 50 51.5 90c0 38.667 -15 69.334 -45 92.001zM424 249.002c-20.667 21.333 -44.334 37.668 -71.001 49.001s-49 18 -67 20c-18.667 -2 -41.167 -8.5 -67.5 -19.5s-49.833 -27.333 -70.5 -49s-31 -47.834 -31 -78.501c0 -26 7.83301 -49 23.5 -69
s36.334 -35.333 62.001 -46s53.5 -16 83.5 -16c29.333 0 57 5.33301 83 16s46.833 26 62.5 46s23.5 43 23.5 69c0 30.667 -10.333 56.667 -31 78z" />
    <glyph glyph-name="nine" unicode="9" horiz-adv-x="584" 
d="M125 -2c18 -24 38.3301 -42.333 60.9971 -55s51 -19 85 -19c46 0 83.833 14 113.5 42s51 64.167 64 108.5s19.5 91.833 19.5 142.5v31c-17.333 -27.333 -44.166 -52.833 -80.499 -76.5s-74.833 -35.5 -115.5 -35.5c-63.333 0 -115 18.333 -155 55s-60 89 -60 157
c0 37.333 9 72.166 27 104.499s44 58.5 78 78.5s73.667 30 119 30c84 0 145.833 -32.667 185.5 -98s59.5 -147.666 59.5 -246.999c0 -60.667 -8.83301 -117 -26.5 -169s-45.667 -94.167 -84 -126.5s-86.5 -48.5 -144.5 -48.5c-41.333 0 -76.166 7.33301 -104.499 22
s-53.166 35.667 -74.499 63zM412.497 446.5c-29.667 41.667 -72.832 62.499 -129.499 62.499c-36 0 -66.667 -8 -92 -24s-44.333 -36.333 -57 -61s-19 -49.667 -19 -75c0 -52.667 15.333 -92.667 46 -120s71 -41 121 -41c36 0 70.5 10.5 103.5 31.5s59.167 48.5 78.5 82.5
c-4.66699 54.667 -21.834 102.834 -51.501 144.501z" />
    <glyph glyph-name="colon" unicode=":" horiz-adv-x="219" 
d="M78 477c8.66699 8.66699 19 13 31 13s22.5 -4.33301 31.5 -13s13.5 -19 13.5 -31c0 -11.333 -4.5 -21.333 -13.5 -30s-19.5 -13 -31.5 -13s-22.333 4.33301 -31 13s-13 18.667 -13 30c0 12 4.33301 22.333 13 31zM78 65c8.66699 8.66699 19 13 31 13
s22.5 -4.33301 31.5 -13s13.5 -18.667 13.5 -30c0 -12 -4.5 -22.5 -13.5 -31.5s-19.5 -13.5 -31.5 -13.5s-22.333 4.5 -31 13.5s-13 19.5 -13 31.5c0 11.333 4.33301 21.333 13 30z" />
    <glyph glyph-name="semicolon" unicode=";" horiz-adv-x="219" 
d="M78 416c-8.66699 8.66699 -13 18.667 -13 30c0 12 4.33301 22.333 13 31s19 13 31 13s22.5 -4.33301 31.5 -13s13.5 -19 13.5 -31c0 -11.333 -4.5 -21.333 -13.5 -30s-19.5 -13 -31.5 -13s-22.333 4.33301 -31 13zM58 -98c16 10.667 29.334 24.833 40.001 42.5
s16.667 34.167 18 49.5l-10 -1c-12 0 -21.833 4 -29.5 12s-11.5 18 -11.5 30c0 11.333 4.16699 21.333 12.5 30s18.5 13 30.5 13c14 0 26 -5.66699 36 -17s15 -27 15 -47c0 -26.667 -6.83301 -52.5 -20.5 -77.5s-30.834 -44.833 -51.501 -59.5z" />
    <glyph glyph-name="less" unicode="&#x3c;" horiz-adv-x="496" 
d="M29 353l438 227v-49l-386 -197l386 -195v-49l-438 226v37z" />
    <glyph glyph-name="equal" unicode="=" horiz-adv-x="496" 
d="M29 453h438v-42h-438v42zM29 257h438v-41h-438v41z" />
    <glyph glyph-name="greater" unicode="&#x3e;" horiz-adv-x="496" 
d="M29 139l386 195l-386 197v49l438 -227v-37l-438 -226v49z" />
    <glyph glyph-name="question" unicode="?" horiz-adv-x="397" 
d="M209.5 255.5c-11.667 -11.667 -17.502 -25.5039 -17.502 -41.5039c0 -16.667 9.66699 -31 29 -43l-39 -23c-26 20 -39 42.333 -39 67s7.5 44.834 22.5 60.501s37.5 32.834 67.5 51.501c27.333 16.667 48 32.167 62 46.5s21 31.833 21 52.5c0 26 -10.667 47.167 -32 63.5
s-50 24.5 -86 24.5c-35.333 0 -65.166 -6.5 -89.499 -19.5s-46.166 -31.833 -65.499 -56.5l-31 33c21.333 28 48 50 80 66s68.333 24 109 24c34 0 63.667 -5.83301 89 -17.5s44.833 -27.167 58.5 -46.5s20.5 -40.666 20.5 -63.999c0 -30.667 -9 -55.667 -27 -75
s-43.667 -39.666 -77 -60.999c-25.333 -16 -43.833 -29.833 -55.5 -41.5zM157.998 3.49609c-8.66699 9 -13 19.5 -13 31.5c0 11.333 4.33301 21.333 13 30s19 13 31 13s22.333 -4.33301 31 -13s13 -18.667 13 -30c0 -12 -4.33301 -22.5 -13 -31.5s-19 -13.5 -31 -13.5
s-22.333 4.5 -31 13.5z" />
    <glyph glyph-name="at" unicode="@" horiz-adv-x="783" 
d="M90.5 440.5c37 60.333 85.9971 108.334 146.997 144.001s125.833 53.5 194.5 53.5c61.333 0 115.833 -14.333 163.5 -43s84.834 -67.5 111.501 -116.5s40 -103.167 40 -162.5c0 -48 -7.66699 -89.5 -23 -124.5s-35.333 -61.5 -60 -79.5s-51 -27 -79 -27
c-26 0 -47 8.33301 -63 25s-24.333 36.667 -25 60l-1 6c-18.667 -26 -42.667 -47.667 -72 -65s-60 -26 -92 -26c-46 0 -83 14.5 -111 43.5s-42 67.833 -42 116.5c0 46 11.5 88.5 34.5 127.5s53 69.833 90 92.5s75.167 34 114.5 34c31.333 0 58.333 -7.66699 81 -23
s39 -35 49 -59l13 65h49l-59 -282c-1.33301 -8 -2 -14.333 -2 -19c0 -16.667 4.83301 -30 14.5 -40s21.5 -15 35.5 -15c15.333 0 32 6.16699 50 18.5s33.5 32.833 46.5 61.5s19.5 65.667 19.5 111c0 54.667 -12 104 -36 148s-57.833 78.5 -101.5 103.5
s-93.167 37.5 -148.5 37.5c-63.333 0 -122.833 -16.833 -178.5 -50.5s-100.167 -78.334 -133.5 -134.001s-50 -114.5 -50 -176.5c0 -53.333 12.5 -101.5 37.5 -144.5s59.5 -77 103.5 -102s93.333 -37.5 148 -37.5c66 0 128.333 19 187 57l17 -25
c-65.333 -42 -134.666 -63 -207.999 -63c-59.333 0 -113.166 13.833 -161.499 41.5s-86.333 65.5 -114 113.5s-41.5 101 -41.5 159c0 70.667 18.5 136.167 55.5 196.5zM537.997 375.001c-7.33301 21.333 -20.667 40.499 -40 57.499s-44 25.5 -74 25.5
c-34.667 0 -66.834 -10 -96.501 -30s-53.167 -46.167 -70.5 -78.5s-26 -66.166 -26 -101.499c0 -36 9.83301 -65.333 29.5 -88s46.834 -34 81.501 -34c34 0 65 9.83301 93 29.5s51.667 43.5 71 71.5z" />
    <glyph glyph-name="A" unicode="A" horiz-adv-x="647" 
d="M501 164h-355l-67 -164h-64l273 667h71l273 -667h-64zM164 216h319l-160 395z" />
    <glyph glyph-name="B" unicode="B" horiz-adv-x="614" 
d="M83 667l274 -0.000976562c56 0 100.667 -15.333 134 -46s50 -72 50 -124c0 -40 -11.5 -73.833 -34.5 -101.5s-50.5 -44.834 -82.5 -51.501c23.333 -3.33301 45 -13.166 65 -29.499s35.833 -36.333 47.5 -60s17.5 -48.5 17.5 -74.5c0 -55.333 -17 -99.166 -51 -131.499
s-80.667 -48.5 -140 -48.5h-280v667zM350 367.999c41.333 0 73.5 11.5 96.5 34.5s34.5 52.5 34.5 88.5c0 35.333 -11.5 64.833 -34.5 88.5s-55.167 35.5 -96.5 35.5h-210v-247h210zM354 51.999c44 0 78.333 11.8311 103 35.498s37 55.834 37 96.501
c0 36.667 -12.333 67.834 -37 93.501s-59 38.5 -103 38.5h-214v-264h214z" />
    <glyph glyph-name="C" unicode="C" horiz-adv-x="672" 
d="M224 31.5c-51.333 29 -91.833 69.833 -121.5 122.5s-44.5 112.334 -44.5 179.001s14.833 126.334 44.5 179.001s70.167 93.5 121.5 122.5s108 43.5 170 43.5c100 0 181.667 -39.333 245 -118l-48 -31c-21.333 29.333 -49.5 52.833 -84.5 70.5s-72.5 26.5 -112.5 26.5
c-51.333 0 -98 -12.333 -140 -37s-75.167 -59.334 -99.5 -104.001s-36.5 -95.334 -36.5 -152.001c0 -56 12.167 -106.333 36.5 -151s57.5 -79.5 99.5 -104.5s88.667 -37.5 140 -37.5c40 0 77.5 8.83301 112.5 26.5s63.167 41.167 84.5 70.5l48 -30
c-64 -79.333 -145.667 -119 -245 -119c-62 0 -118.667 14.5 -170 43.5z" />
    <glyph glyph-name="D" unicode="D" horiz-adv-x="692" 
d="M83 667h213c67.333 0 126.5 -14.833 177.5 -44.5s90.333 -70 118 -121s41.5 -107.167 41.5 -168.5c0 -62 -13.833 -118.333 -41.5 -169s-67 -90.667 -118 -120s-110.167 -44 -177.5 -44h-213v667zM296 52c57.333 0 106.833 12.3301 148.5 36.9971
s73.5 58.334 95.5 101.001s33 90.334 33 143.001s-11 100.334 -33 143.001s-53.833 76.5 -95.5 101.5s-91.167 37.5 -148.5 37.5h-156v-563h156z" />
    <glyph glyph-name="E" unicode="E" horiz-adv-x="564" 
d="M83 667h423v-52h-366v-247h359v-52h-359v-264h366v-52h-423v667z" />
    <glyph glyph-name="F" unicode="F" horiz-adv-x="542" 
d="M83 667h423v-52h-366v-247h359v-52h-359v-316h-57v667z" />
    <glyph glyph-name="G" unicode="G" horiz-adv-x="711" 
d="M103 512.5c30 52.333 70.835 93.0039 122.502 122.004s108.5 43.5 170.5 43.5c101.333 0 185 -38 251 -114l-43 -31c-24 28.667 -54.167 51.334 -90.5 68.001s-75.5 25 -117.5 25c-52 0 -99.167 -12.333 -141.5 -37s-75.666 -59.334 -99.999 -104.001
s-36.5 -95.334 -36.5 -152.001c0 -56 12.167 -106.5 36.5 -151.5s57.666 -80 99.999 -105s89.5 -37.5 141.5 -37.5c40.667 0 78 8 112 24s62 35 84 57v160h-252v51h309v-233c-30.667 -34 -67.834 -61 -111.501 -81s-90.834 -30 -141.501 -30
c-62 0 -118.833 14.667 -170.5 44s-92.5 70.166 -122.5 122.499s-45 112.166 -45 179.499s15 127.166 45 179.499z" />
    <glyph glyph-name="H" unicode="H" horiz-adv-x="703" 
d="M563 317h-423v-317h-57v667h57v-298h423v298h58v-667h-58v317z" />
    <glyph glyph-name="I" unicode="I" horiz-adv-x="223" 
d="M83 667h57v-667h-57v667z" />
    <glyph glyph-name="J" unicode="J" horiz-adv-x="470" 
d="M49 113c17.333 -22.667 36.5 -40.499 57.5 -53.499s46.167 -19.5 75.5 -19.5c44.667 0 80.334 14.167 107.001 42.5s40 65.166 40 110.499v474h58v-474c0 -66.667 -19 -117.5 -57 -152.5s-86.333 -52.5 -145 -52.5c-36.667 0 -68.834 6.66699 -96.501 20
s-52.5 34 -74.5 62z" />
    <glyph glyph-name="K" unicode="K" horiz-adv-x="586" 
d="M214 314l-74 -81v-233h-57v667h57v-365l322 365h73l-284 -318l311 -349h-73z" />
    <glyph glyph-name="L" unicode="L" horiz-adv-x="504" 
d="M83 667h57v-615h323v-52h-380v667z" />
    <glyph glyph-name="M" unicode="M" horiz-adv-x="790" 
d="M649 592l-243 -592h-22l-244 592v-592h-57v667h85l227 -553l226 553h86v-667h-58v592z" />
    <glyph glyph-name="N" unicode="N" horiz-adv-x="699" 
d="M140 576v-576h-57v667h58l418 -568v568h57v-667h-56z" />
    <glyph glyph-name="O" unicode="O" horiz-adv-x="764" 
d="M98.5 509c27 52.667 65 94 114 124s105.5 45 169.5 45c63.333 0 119.666 -15 168.999 -45s87.5 -71.333 114.5 -124s40.5 -111.334 40.5 -176.001s-13.5 -123.334 -40.5 -176.001s-65.167 -94 -114.5 -124s-105.666 -45 -168.999 -45c-64 0 -120.5 15 -169.5 45
s-87 71.333 -114 124s-40.5 111.334 -40.5 176.001s13.5 123.334 40.5 176.001zM613.5 484.5c-21.667 44.333 -52.499 79 -92.499 104s-86.333 37.5 -139 37.5c-53.333 0 -99.833 -12.5 -139.5 -37.5s-70.334 -59.667 -92.001 -104s-32.5 -94.833 -32.5 -151.5
c0 -56 10.833 -106.167 32.5 -150.5s52.5 -79.166 92.5 -104.499s86.333 -38 139 -38c52 0 98 12.667 138 38s71 60.166 93 104.499s33 94.5 33 150.5c0 56.667 -10.833 107.167 -32.5 151.5z" />
    <glyph glyph-name="P" unicode="P" 
d="M83 667l250.002 0.00195312c41.333 0 77.166 -8.83301 107.499 -26.5s53.5 -41.334 69.5 -71.001s24 -62.167 24 -97.5s-8 -67.833 -24 -97.5s-39.333 -53.334 -70 -71.001s-66.334 -26.5 -107.001 -26.5h-193v-277h-57v667zM433.502 575.002
c-27 26.667 -62.5 40 -106.5 40h-187v-286h187c44 0 79.5 13.333 106.5 40s40.5 61 40.5 103s-13.5 76.333 -40.5 103z" />
    <glyph glyph-name="Q" unicode="Q" horiz-adv-x="764" 
d="M681.5 193.5c-16.333 -43 -39.499 -80.168 -69.499 -111.501l69 -73l-39 -36l-71 73c-53.333 -38.667 -116.333 -58 -189 -58c-64 0 -120.5 15 -169.5 45s-87 71.333 -114 124s-40.5 111.334 -40.5 176.001s13.5 123.334 40.5 176.001s65 94 114 124s105.5 45 169.5 45
c63.333 0 119.666 -15 168.999 -45s87.5 -71.333 114.5 -124s40.5 -111.334 40.5 -176.001c0 -50 -8.16699 -96.5 -24.5 -139.5zM533.001 85.999l-102.998 106.999l40 37l103 -108c23.333 26.667 41.333 58 54 94s19 75 19 117c0 56.667 -10.833 107.167 -32.5 151.5
s-52.5 79 -92.5 104s-86.333 37.5 -139 37.5c-53.333 0 -99.833 -12.5 -139.5 -37.5s-70.334 -59.667 -92.001 -104s-32.5 -94.833 -32.5 -151.5c0 -56 10.833 -106.167 32.5 -150.5s52.5 -79.166 92.5 -104.499s86.333 -38 139 -38c57.333 0 107.666 15.333 150.999 46z
" />
    <glyph glyph-name="R" unicode="R" horiz-adv-x="594" 
d="M287 276h-147.002v-276h-57v667h249c38.667 0 73.334 -7.83301 104.001 -23.5s54.834 -38.167 72.501 -67.5s26.5 -64 26.5 -104c0 -38.667 -8.33301 -72.334 -25 -101.001s-39 -50.667 -67 -66s-59 -23.666 -93 -24.999l193 -280h-69zM433.998 575
c-27.333 26.667 -63 40 -107 40h-187v-287h187c44 0 79.667 13.5 107 40.5s41 61.5 41 103.5s-13.667 76.333 -41 103z" />
    <glyph glyph-name="S" unicode="S" horiz-adv-x="581" 
d="M83 137c24 -28 53.6719 -51.1641 89.0049 -69.4971s75 -27.5 119 -27.5c62 0 106.833 13.5 134.5 40.5s41.5 57.833 41.5 92.5c0 29.333 -8.16699 53.166 -24.5 71.499s-36.833 32.5 -61.5 42.5s-57 20.333 -97 31c-48 13.333 -86.167 25.833 -114.5 37.5
s-52.5 29.167 -72.5 52.5s-30 54 -30 92c0 35.333 9.66699 66.5 29 93.5s45.666 47.833 78.999 62.5s70.333 22 111 22c95.333 0 170.666 -31.333 225.999 -94l-38 -42c-23.333 28 -51.333 49 -84 63s-68.334 21 -107.001 21c-44.667 0 -81.834 -11.5 -111.501 -34.5
s-44.5 -52.5 -44.5 -88.5c0 -24.667 7.66699 -44.834 23 -60.501s34.5 -28 57.5 -37s54.167 -18.5 93.5 -28.5c48.667 -14 88 -27.5 118 -40.5s55.5 -32.333 76.5 -58s31.5 -59.5 31.5 -101.5c0 -31.333 -7.66699 -61.333 -23 -90s-40.666 -52.334 -75.999 -71.001
s-81.333 -28 -138 -28c-52.667 0 -99.834 9.5 -141.501 28.5s-75.834 44.833 -102.501 77.5z" />
    <glyph glyph-name="T" unicode="T" horiz-adv-x="564" 
d="M253 615h-218v52h494v-52h-218v-615h-58v615z" />
    <glyph glyph-name="U" unicode="U" horiz-adv-x="686" 
d="M83 667h58v-410c0 -68 17.5 -121.167 52.5 -159.5s84.833 -57.5 149.5 -57.5c65.333 0 115.333 19 150 57s52 91.333 52 160v410h58v-411c0 -84 -22.167 -149.667 -66.5 -197s-108.833 -71 -193.5 -71c-84 0 -148.333 23.833 -193 71.5s-67 113.167 -67 196.5v411z" />
    <glyph glyph-name="V" unicode="V" horiz-adv-x="647" 
d="M15 667h66l242 -603l243 603h66l-273 -667h-71z" />
    <glyph glyph-name="W" unicode="W" horiz-adv-x="867" 
d="M434 573l-160 -573h-64l-191 667h64l161 -587l164 587h52l163 -587l161 587h64l-190 -667h-64z" />
    <glyph glyph-name="X" unicode="X" horiz-adv-x="645" 
d="M322 301l-232 -301h-72l269 342l-254 325h73l216 -283l217 283h72l-253 -324l268 -343h-71z" />
    <glyph glyph-name="Y" unicode="Y" horiz-adv-x="618" 
d="M280 285l-265 382h69l225 -328l225 328h69l-265 -382v-285h-58v285z" />
    <glyph glyph-name="Z" unicode="Z" horiz-adv-x="581" 
d="M50 50l402 565h-402v52h474v-49l-402 -566h409v-52h-481v50z" />
    <glyph glyph-name="bracketleft" unicode="[" horiz-adv-x="228" 
d="M37 678h174v-43h-130v-782h130v-43h-174v868z" />
    <glyph glyph-name="backslash" unicode="\" horiz-adv-x="282" 
d="M45 687l237 -707h-45l-237 707h45z" />
    <glyph glyph-name="bracketright" unicode="]" horiz-adv-x="228" 
d="M17 -147h130v782h-130v43h174v-868h-174v43z" />
    <glyph glyph-name="asciicircum" unicode="^" horiz-adv-x="428" 
d="M214 626l-147 -293h-48l174 334h42l174 -334h-48z" />
    <glyph glyph-name="underscore" unicode="_" horiz-adv-x="564" 
d="M-3 -40h570v-43h-570v43z" />
    <glyph glyph-name="grave" unicode="`" horiz-adv-x="216" 
d="M0 700h62l154 -144h-44z" />
    <glyph glyph-name="a" unicode="a" horiz-adv-x="562" 
d="M550 0h-62l-58 133h-299l-56 -133h-63l237 550h64zM149 182h263l-131 311z" />
    <glyph glyph-name="b" unicode="b" horiz-adv-x="541" 
d="M81 550h238c49.333 0 88.5 -12.667 117.5 -38s43.5 -59.666 43.5 -102.999c0 -31.333 -9.16699 -58.333 -27.5 -81s-40.5 -37.334 -66.5 -44.001c29.333 -7.33301 54.333 -24 75 -50s31 -54.333 31 -85c0 -45.333 -15 -81.5 -45 -108.5s-71 -40.5 -123 -40.5h-243v550z
M394.5 474.5c-19 17.667 -45.833 26.5 -80.5 26.5h-178v-194h178c34.667 0 61.5 9 80.5 27s28.5 41.333 28.5 70c0 29.333 -9.5 52.833 -28.5 70.5zM403 227c-20.667 20.667 -49 30.999 -85 30.999h-182v-209h182c36 0 64.333 9.33301 85 28s31 44 31 76
c0 28.667 -10.333 53.334 -31 74.001z" />
    <glyph glyph-name="c" unicode="c" horiz-adv-x="581" 
d="M91.5 424c25.667 43.333 60.668 77.167 105.001 101.5s93.5 36.5 147.5 36.5c86.667 0 157 -34 211 -102l-43 -27c-18.667 24.667 -42.834 44.167 -72.501 58.5s-61.5 21.5 -95.5 21.5c-43.333 0 -82.833 -10.167 -118.5 -30.5s-63.667 -48.5 -84 -84.5
s-30.5 -76.667 -30.5 -122s10.333 -86.166 31 -122.499s48.667 -64.833 84 -85.5s74.666 -31 117.999 -31c34 0 66.333 7.16699 97 21.5s54.334 33.833 71.001 58.5l44 -27c-55.333 -68 -126 -102 -212 -102c-54 0 -103.167 12.167 -147.5 36.5s-79.333 58.5 -105 102.5
s-38.5 93.667 -38.5 149s12.833 104.666 38.5 147.999z" />
    <glyph glyph-name="d" unicode="d" horiz-adv-x="611" 
d="M81 550l185 0.000976562c58.667 0 110 -12.333 154 -37s77.833 -58 101.5 -100s35.5 -88.333 35.5 -139s-11.833 -96.834 -35.5 -138.501s-57.5 -74.667 -101.5 -99s-95.333 -36.5 -154 -36.5h-185v550zM472 389.501c-18 34.333 -44.666 61.5 -79.999 81.5
s-77.333 30 -126 30h-130v-452h130c48 0 89.667 9.83301 125 29.5s62.166 46.667 80.499 81s27.5 72.5 27.5 114.5c0 42.667 -9 81.167 -27 115.5z" />
    <glyph glyph-name="e" unicode="e" horiz-adv-x="505" 
d="M81 550h368v-49h-313v-194h307v-49h-307v-209h313v-49h-368v550z" />
    <glyph glyph-name="f" unicode="f" horiz-adv-x="484" 
d="M81 550h368v-49h-313v-194h307v-49h-307v-258h-55v550z" />
    <glyph glyph-name="g" unicode="g" horiz-adv-x="630" 
d="M91.5 423.5c25.667 43.667 60.834 77.667 105.501 102s94 36.5 148 36.5c86 0 158 -31.333 216 -94l-40 -32c-21.333 23.333 -47.5 42 -78.5 56s-63.5 21 -97.5 21c-44 0 -83.667 -10.167 -119 -30.5s-63.333 -48.5 -84 -84.5s-31 -77 -31 -123
c0 -45.333 10.333 -86.166 31 -122.499s48.834 -64.833 84.501 -85.5s75.167 -31 118.5 -31c33.333 0 64.166 6.5 92.499 19.5s51.833 28.167 70.5 45.5v128h-186v48h241v-196c-26.667 -28.667 -59 -51.334 -97 -68.001s-78.333 -25 -121 -25
c-54 0 -103.333 12.167 -148 36.5s-79.834 58.333 -105.501 102s-38.5 93.167 -38.5 148.5s12.833 104.833 38.5 148.5z" />
    <glyph glyph-name="h" unicode="h" horiz-adv-x="629" 
d="M494 259h-358v-259h-55v550h55v-243h358v243h54v-550h-54v259z" />
    <glyph glyph-name="i" unicode="i" horiz-adv-x="216" 
d="M81 550h55v-550h-55v550z" />
    <glyph glyph-name="j" unicode="j" horiz-adv-x="417" 
d="M41 98c31.333 -40.667 69.3311 -61.001 113.998 -61.001c38.667 0 69.334 11.333 92.001 34s34 52.334 34 89.001v390h55v-392c0 -55.333 -16.667 -97.5 -50 -126.5s-76 -43.5 -128 -43.5c-61.333 0 -110.666 23.667 -147.999 71z" />
    <glyph glyph-name="k" unicode="k" horiz-adv-x="521" 
d="M196 256l-60 -65v-191h-55v550h55v-294l272 294h70l-247 -262l270 -288h-70z" />
    <glyph glyph-name="l" unicode="l" horiz-adv-x="454" 
d="M81 550h55v-501h277v-49h-332v550z" />
    <glyph glyph-name="m" unicode="m" horiz-adv-x="703" 
d="M567 469l-204 -469h-23l-204 469v-469h-55v550h76l194 -446l194 446h77v-550h-55v469z" />
    <glyph glyph-name="n" unicode="n" horiz-adv-x="625" 
d="M136 467v-467h-55v550h55l353 -460v460h55v-550h-54z" />
    <glyph glyph-name="o" unicode="o" horiz-adv-x="666" 
d="M88 420.5c23.333 43.667 56.167 78.167 98.5 103.5s91.166 38 146.499 38s104.166 -12.667 146.499 -38s75 -59.833 98 -103.5s34.5 -92.167 34.5 -145.5s-11.667 -101.833 -35 -145.5s-56 -78.167 -98 -103.5s-90.667 -38 -146 -38s-104.166 12.667 -146.499 38
s-75.166 59.833 -98.499 103.5s-35 92.167 -35 145.5s11.667 101.833 35 145.5zM527.501 397.5c-18.333 36.333 -44.333 64.666 -78 84.999s-72.5 30.5 -116.5 30.5c-44.667 0 -83.667 -10.167 -117 -30.5s-59.166 -48.666 -77.499 -84.999s-27.5 -77.166 -27.5 -122.499
c0 -44.667 9.16699 -85.167 27.5 -121.5s44.166 -64.833 77.499 -85.5s72.333 -31 117 -31c44 0 82.833 10.333 116.5 31s59.667 49.167 78 85.5s27.5 76.833 27.5 121.5c0 45.333 -9.16699 86.166 -27.5 122.499z" />
    <glyph glyph-name="p" unicode="p" horiz-adv-x="509" 
d="M81 550h218c56 0 99.167 -15.5 129.5 -46.5s45.5 -69.5 45.5 -115.5c0 -46.667 -15.167 -85.667 -45.5 -117s-73.5 -47 -129.5 -47h-163v-224h-55v550zM385 469.5c-21.333 21 -51.333 31.5 -90 31.5h-159v-228h159c39.333 0 69.5 10.5 90.5 31.5s31.5 48.833 31.5 83.5
c0 33.333 -10.667 60.5 -32 81.5z" />
    <glyph glyph-name="q" unicode="q" horiz-adv-x="666" 
d="M590.5 158.5c-14.333 -36.333 -34.832 -67.501 -61.499 -93.501l56 -60l-35 -32l-57 62c-46 -31.333 -99.333 -47 -160 -47c-55.333 0 -104.166 12.667 -146.499 38s-75.166 59.833 -98.499 103.5s-35 92.167 -35 145.5s11.667 101.833 35 145.5
s56.166 78.167 98.499 103.5s91.166 38 146.499 38s104.166 -12.667 146.499 -38s75 -59.833 98 -103.5s34.5 -92.167 34.5 -145.5c0 -41.333 -7.16699 -80.166 -21.5 -116.499zM457.001 72.999l-83.999 90.001l35 33l85 -92c20 21.333 35.333 46.666 46 75.999s16 61 16 95
c0 45.333 -9.16699 86.166 -27.5 122.499s-44.333 64.666 -78 84.999s-72.5 30.5 -116.5 30.5c-44.667 0 -83.667 -10.167 -117 -30.5s-59.166 -48.666 -77.499 -84.999s-27.5 -77.166 -27.5 -122.499c0 -44.667 9.16699 -85.167 27.5 -121.5s44.166 -64.833 77.499 -85.5
s72.333 -31 117 -31c47.333 0 88.666 12 123.999 36z" />
    <glyph glyph-name="r" unicode="r" horiz-adv-x="533" 
d="M258 224l-122 -0.000976562v-224h-55v550h218c54.667 0 97.667 -15.167 129 -45.5s47 -69.166 47 -116.499c0 -46.667 -14.333 -84.667 -43 -114s-67 -45 -115 -47l167 -227h-68zM385.5 469.999c-21.667 20.667 -51.833 31 -90.5 31h-159v-228h159
c40 0 70.5 10.5 91.5 31.5s31.5 48.833 31.5 83.5c0 34 -10.833 61.333 -32.5 82z" />
    <glyph glyph-name="s" unicode="s" horiz-adv-x="499" 
d="M73 115c19.333 -22 44.666 -40.665 75.999 -55.998s65.333 -23 102 -23c50.667 0 88.167 10.5 112.5 31.5s36.5 47.167 36.5 78.5c0 24 -7 43.167 -21 57.5s-31.5 25.5 -52.5 33.5s-48.833 16.333 -83.5 25c-40.667 10 -73.334 19.667 -98.001 29
s-45.667 23.833 -63 43.5s-26 45.5 -26 77.5c0 29.333 8.5 55.333 25.5 78s40 40.334 69 53.001s60.833 19 95.5 19c82 0 147.667 -26.333 197 -79l-32 -38c-20 23.333 -44.333 40.666 -73 51.999s-59.334 17 -92.001 17c-37.333 0 -68.833 -9.66699 -94.5 -29
s-38.5 -43.333 -38.5 -72c0 -19.333 6.33301 -35.166 19 -47.499s28.5 -22 47.5 -29s45.167 -14.833 78.5 -23.5c42.667 -10.667 77.334 -21.334 104.001 -32.001s49.334 -26.834 68.001 -48.501s28 -50.167 28 -85.5c0 -46.667 -17.5 -84.834 -52.5 -114.501
s-86.833 -44.5 -155.5 -44.5c-45.333 0 -86.166 8 -122.499 24s-65.833 37.333 -88.5 64z" />
    <glyph glyph-name="t" unicode="t" horiz-adv-x="465" 
d="M205 501h-176v49h408v-49h-177v-501h-55v501z" />
    <glyph glyph-name="u" unicode="u" horiz-adv-x="613" 
d="M81 550l54.998 -0.000976562v-338c0 -55.333 14.667 -98.333 44 -129s71.333 -46 126 -46s96.834 15.5 126.501 46.5s44.5 73.833 44.5 128.5v338h55v-340c0 -69.333 -19.333 -123.666 -58 -162.999s-94.667 -59 -168 -59s-129.166 19.667 -167.499 59
s-57.5 93.333 -57.5 162v341z" />
    <glyph glyph-name="v" unicode="v" horiz-adv-x="562" 
d="M12 550h63l206 -488l208 488h61l-237 -550h-64z" />
    <glyph glyph-name="w" unicode="w" horiz-adv-x="749" 
d="M374 463l-136 -463h-58l-165 550h60l135 -471l140 471h49l139 -472l136 472h60l-165 -550h-58z" />
    <glyph glyph-name="x" unicode="x" horiz-adv-x="560" 
d="M280 244l-198 -244h-68l232 282l-219 268h68l185 -229l185 229h68l-219 -267l232 -283h-68z" />
    <glyph glyph-name="y" unicode="y" horiz-adv-x="539" 
d="M244 235l-232 315h66l194 -266l190 266h65l-228 -315v-235h-55v235z" />
    <glyph glyph-name="z" unicode="z" horiz-adv-x="513" 
d="M41 43l353 458h-353v49h424v-44l-352 -457h359v-49h-431v43z" />
    <glyph glyph-name="braceleft" unicode="{" horiz-adv-x="249" 
d="M116 -174.5c-17.333 10.333 -31.333 24.8291 -42 43.4961s-16 40 -16 64v220c0 20 -4.5 36.833 -13.5 50.5s-21.833 20.5 -38.5 20.5v40c16.667 0 29.5 6.83301 38.5 20.5s13.5 30.5 13.5 50.5v219c0 24 5.33301 45.5 16 64.5s24.667 33.667 42 44s35.333 15.5 54 15.5
h62v-43h-62c-18.667 0 -34.5 -7.66699 -47.5 -23s-19.5 -34.666 -19.5 -57.999v-222c0 -45.333 -15.333 -74.666 -46 -87.999c30.667 -13.333 46 -42.666 46 -87.999v-222c0 -23.333 6.5 -42.666 19.5 -57.999s28.833 -23 47.5 -23h62v-43h-62
c-18.667 0 -36.667 5.16699 -54 15.5z" />
    <glyph glyph-name="bar" unicode="|" horiz-adv-x="208" 
d="M83 687h43v-707h-43v707z" />
    <glyph glyph-name="braceright" unicode="}" horiz-adv-x="249" 
d="M79 -147c18.667 0 34.5 7.6709 47.5 23.0039s19.5 34.666 19.5 57.999v222c0 45.333 15.333 74.666 46 87.999c-30.667 13.333 -46 42.666 -46 87.999v222c0 23.333 -6.5 42.666 -19.5 57.999s-28.833 23 -47.5 23h-62v43h62c18.667 0 36.667 -5.16699 54 -15.5
s31.333 -25 42 -44s16 -40.5 16 -64.5v-219c0 -20 4.5 -36.833 13.5 -50.5s21.833 -20.5 38.5 -20.5v-40c-16.667 0 -29.5 -6.83301 -38.5 -20.5s-13.5 -30.5 -13.5 -50.5v-220c0 -24 -5.33301 -45.333 -16 -64s-24.667 -33.167 -42 -43.5s-35.333 -15.5 -54 -15.5h-62v43
h62z" />
    <glyph glyph-name="asciitilde" unicode="~" horiz-adv-x="499" 
d="M431.5 491c-19.667 -42 -50.834 -62.999 -93.501 -62.999c-21.333 0 -38.666 5.33301 -51.999 16s-23.833 23.5 -31.5 38.5s-15.834 34.5 -24.501 58.5c-10.667 28.667 -20.5 49.667 -29.5 63s-22.167 20 -39.5 20c-25.333 0 -45.166 -16.833 -59.499 -50.5
s-24.5 -82.5 -30.5 -146.5l-44 6c7.33301 70.667 21 127 41 169s51 63 93 63c21.333 0 38.666 -5.33301 51.999 -16s23.833 -23.5 31.5 -38.5s15.834 -34.5 24.501 -58.5c10.667 -28.667 20.667 -49.834 30 -63.501s22.333 -20.5 39 -20.5c25.333 0 45.333 16.833 60 50.5
s25 83.167 31 148.5l43 -5c-7.33301 -72 -20.833 -129 -40.5 -171z" />
    <glyph glyph-name="uni00A0" unicode="&#xa0;" horiz-adv-x="259" 
 />
    <glyph glyph-name="exclamdown" unicode="&#xa1;" horiz-adv-x="219" 
d="M140.5 547c9 -8.66699 13.5 -19 13.5 -31c0 -11.333 -4.5 -21.5 -13.5 -30.5s-19.5 -13.5 -31.5 -13.5s-22.167 4.33301 -30.5 13s-12.5 19 -12.5 31s4.16699 22.333 12.5 31s18.5 13 30.5 13s22.5 -4.33301 31.5 -13zM129 401l13 -401h-65l13 401h39z" />
    <glyph glyph-name="cent" unicode="&#xa2;" horiz-adv-x="581" 
d="M449.5 63.5c26.333 13.667 47.167 31.502 62.5 53.502l44 -27c-49.333 -61.333 -113 -95 -191 -101v-85h-45v85c-50 3.33301 -95.333 17.666 -136 42.999s-72.667 59.166 -96 101.499s-35 89.833 -35 142.5s11.667 100 35 142s55.333 75.5 96 100.5s86 39.167 136 42.5
v56h45v-56c78.667 -6 142 -39.667 190 -101l-43 -27c-16 22 -37 39.833 -63 53.5s-54 22.167 -84 25.5v-474c30 3.33301 58.167 11.833 84.5 25.5zM138.001 160.002c18 -34.667 43 -62.666 75 -83.999s67.667 -34 107 -38v474c-39.333 -4 -75 -16.5 -107 -37.5
s-57 -48.667 -75 -83s-27 -72.833 -27 -115.5s9 -81.334 27 -116.001z" />
    <glyph glyph-name="sterling" unicode="&#xa3;" horiz-adv-x="415" 
d="M407 27c-11.333 -10.667 -26.834 -19.833 -46.501 -27.5s-41.167 -11.5 -64.5 -11.5c-16.667 0 -30.167 1.5 -40.5 4.5s-21.5 7.5 -33.5 13.5c-13.333 6 -24.666 10.333 -33.999 13s-21.333 4 -36 4c-22.667 0 -54.667 -10.667 -96 -32l-21 43
c38.667 16.667 67.334 35.5 86.001 56.5s28 43.167 28 66.5c0 19.333 -7.66699 41.333 -23 66h-112v39h84c-18.667 24.667 -33.167 47.5 -43.5 68.5s-15.5 44.833 -15.5 71.5c0 29.333 7.66699 56.166 23 80.499s36.5 43.5 63.5 57.5s57.167 21 90.5 21s64.333 -8 93 -24
s49.667 -37 63 -63l-41 -24c-10.667 21.333 -25.834 38 -45.501 50s-41.834 18 -66.501 18c-34.667 0 -64.5 -10.667 -89.5 -32s-37.5 -49.333 -37.5 -84c0 -21.333 4.66699 -41 14 -59s19.5 -34.667 30.5 -50s18.167 -25.666 21.5 -30.999h136v-39h-112
c10.667 -20 16 -39.667 16 -59c0 -20.667 -5.16699 -40 -15.5 -58s-24.5 -32.333 -42.5 -43c6 2 13.333 3 22 3c14 0 26.5 -1.5 37.5 -4.5s24.167 -7.16699 39.5 -12.5c12.667 -4.66699 23.334 -8.16699 32.001 -10.5s17.667 -3.5 27 -3.5c16 0 31.833 3.16699 47.5 9.5
s27.167 13.833 34.5 22.5z" />
    <glyph glyph-name="currency" unicode="&#xa4;" horiz-adv-x="588" 
d="M512.5 251.5c-8.33301 -25.667 -20.165 -48.499 -35.498 -68.499l80 -79l-34 -33l-78 77c-40.667 -34.667 -91.334 -52 -152.001 -52c-60 0 -110.333 17.667 -151 53l-78 -78l-34 33l79 79c-31.333 42.667 -47 92.667 -47 150c0 58.667 16 109 48 151l-81 81l34 33
l80 -80c41.333 34 91.333 51 150 51c59.333 0 109.666 -17 150.999 -51l79 79l34 -33l-80 -80c32 -42 48 -92.333 48 -151c0 -28.667 -4.16699 -55.834 -12.5 -81.501zM388.501 171.001c27 17.333 47.334 40.3359 61.001 69.0029s20.5 59.667 20.5 93s-7 64.166 -21 92.499
s-34.333 51.166 -61 68.499s-58.334 26 -95.001 26c-36 0 -67.5 -8.66699 -94.5 -26s-47.5 -40.333 -61.5 -69s-21 -59.334 -21 -92.001c0 -33.333 7 -64.333 21 -93s34.5 -51.667 61.5 -69s58.5 -26 94.5 -26c36.667 0 68.5 8.66699 95.5 26z" />
    <glyph glyph-name="yen" unicode="&#xa5;" horiz-adv-x="539" 
d="M326 273h189v-39h-216v-80h216v-38h-216v-116h-55v116h-221v38h221v80h-221v39h194l-205 277h66l194 -266l190 266h65z" />
    <glyph glyph-name="brokenbar" unicode="&#xa6;" horiz-adv-x="208" 
d="M83 687h43v-316h-43v316zM83 296h43v-316h-43v316z" />
    <glyph glyph-name="section" unicode="&#xa7;" horiz-adv-x="461" 
d="M381.5 136.5c16.333 -19 24.4971 -43.832 24.4971 -74.499c0 -44.667 -16.5 -79.667 -49.5 -105s-76.833 -38 -131.5 -38c-44 0 -80.167 6.83301 -108.5 20.5s-54.166 32.5 -77.499 56.5l31 36c16.667 -20.667 38 -37.834 64 -51.501s56.333 -20.5 91 -20.5
c38 0 69.167 9 93.5 27s36.5 42.333 36.5 73c0 28 -11.5 48.667 -34.5 62s-57.5 25.333 -103.5 36c-37.333 10 -66.666 19.333 -87.999 28s-39.833 21.667 -55.5 39s-23.5 40.333 -23.5 69c0 34 11.333 61.833 34 83.5s52.334 36.834 89.001 45.501
c-40 12 -70.5 27.333 -91.5 46s-31.5 44 -31.5 76c0 24 6.66699 46 20 66s33 36 59 48s57 18 93 18c40 0 74.333 -6.83301 103 -20.5s51.667 -30.834 69 -51.501l-28 -33c-16 21.333 -36.833 37.333 -62.5 48s-52.5 16 -80.5 16c-36 0 -65.333 -8.5 -88 -25.5
s-34 -39.167 -34 -66.5c0 -17.333 5.66699 -31.5 17 -42.5s25.5 -19.5 42.5 -25.5s40.5 -12.667 70.5 -20c36.667 -8.66699 66.834 -17.5 90.501 -26.5s43.667 -23 60 -42s24.5 -44.5 24.5 -76.5c0 -58 -32 -100.667 -96 -128c31.333 -12 55.166 -27.5 71.499 -46.5z
M129.497 361.501c-19 -17.667 -28.501 -39.165 -28.501 -64.498c0 -20 7 -36 21 -48s30.667 -21 50 -27s49 -14 89 -24c30.667 13.333 53.834 28.666 69.501 45.999s23.5 38.333 23.5 63c0 28.667 -11.167 50 -33.5 64s-52.833 26 -91.5 36
c-47.333 -12.667 -80.5 -27.834 -99.5 -45.501z" />
    <glyph glyph-name="dieresis" unicode="&#xa8;" horiz-adv-x="409" 
d="M76 579c-7.33301 7.33301 -11 16.333 -11 27c0 10 3.66699 18.667 11 26s16 11 26 11s18.667 -3.66699 26 -11s11 -16 11 -26c0 -10.667 -3.66699 -19.667 -11 -27s-16 -11 -26 -11s-18.667 3.66699 -26 11zM280 579c-7.33301 7.33301 -11 16.333 -11 27
c0 10 3.66699 18.667 11 26s16 11 26 11s18.833 -3.66699 26.5 -11s11.5 -16 11.5 -26c0 -10.667 -3.83301 -19.667 -11.5 -27s-16.5 -11 -26.5 -11s-18.667 3.66699 -26 11z" />
    <glyph glyph-name="copyright" unicode="&#xa9;" horiz-adv-x="778" 
d="M216.5 34.5c-53 31 -95.001 73.001 -126.001 126.001s-46.5 110.5 -46.5 172.5c0 62.667 15.5 120.334 46.5 173.001s72.833 94.5 125.5 125.5s110.334 46.5 173.001 46.5s120.334 -15.5 173.001 -46.5s94.5 -72.833 125.5 -125.5s46.5 -110.334 46.5 -173.001
s-15.5 -120.334 -46.5 -173.001s-72.833 -94.5 -125.5 -125.5s-110.334 -46.5 -173.001 -46.5c-62 0 -119.5 15.5 -172.5 46.5zM230.499 607.501c-48.333 -28.333 -86.833 -66.833 -115.5 -115.5s-43 -101.667 -43 -159s14.333 -110.166 43 -158.499
s67.167 -86.833 115.5 -115.5s101.166 -43 158.499 -43s110.333 14.333 159 43s87.167 67.167 115.5 115.5s42.5 101.166 42.5 158.499s-14.167 110.333 -42.5 159s-66.833 87.167 -115.5 115.5s-101.667 42.5 -159 42.5s-110.166 -14.167 -158.499 -42.5zM389.999 119.001
c-38 0 -72.835 9.50098 -104.502 28.501s-56.834 45 -75.501 78s-28 69.5 -28 109.5s9.33301 76.167 28 108.5s43.834 57.833 75.501 76.5s66.5 28 104.5 28c60 0 108.333 -21.667 145 -65l-23 -22c-12.667 17.333 -30.167 31.166 -52.5 41.499s-45.5 15.5 -69.5 15.5
c-30.667 0 -59.5 -7.66699 -86.5 -23s-48.5 -37 -64.5 -65s-24 -60 -24 -96c0 -34.667 8.16699 -66.167 24.5 -94.5s37.833 -50.5 64.5 -66.5s55.334 -24 86.001 -24c24 0 47.333 5.33301 70 16s40.334 24.667 53.001 42l22 -22c-38 -44 -86.333 -66 -145 -66z" />
    <glyph glyph-name="ordfeminine" unicode="&#xaa;" horiz-adv-x="375" 
d="M268 363c-28 -30 -64.665 -45.001 -109.998 -45.001c-30 0 -56.167 9.5 -78.5 28.5s-33.5 44.5 -33.5 76.5s11.167 57.167 33.5 75.5s48.5 27.5 78.5 27.5c45.333 0 82 -14.667 110 -44v61c0 22 -8.33301 39.167 -25 51.5s-36.667 18.5 -60 18.5
c-18.667 0 -36.834 -4 -54.501 -12s-32.834 -20 -45.501 -36l-22 28c17.333 18.667 36.333 32.5 57 41.5s44 13.5 70 13.5c36 0 65.333 -8.66699 88 -26s34 -43.666 34 -78.999v-217h-42v37zM268.002 454.999c-10 13.333 -23.502 23.501 -40.502 30.501
s-34.833 10.5 -53.5 10.5c-24.667 0 -45 -6.83301 -61 -20.5s-24 -31.167 -24 -52.5c0 -22 8 -40 24 -54s36.333 -21 61 -21c18.667 0 36.334 3.66699 53.001 11s30.334 17.666 41.001 30.999v65z" />
    <glyph glyph-name="guillemotleft" unicode="&#xab;" horiz-adv-x="402" 
d="M30 243l160 177h57l-160 -177l160 -180h-57zM155 243l160 177h57l-160 -177l160 -180h-57z" />
    <glyph glyph-name="logicalnot" unicode="&#xac;" horiz-adv-x="499" 
d="M424 216v195h-395v42h438v-237h-43z" />
    <glyph glyph-name="uni00AD" unicode="&#xad;" horiz-adv-x="300" 
d="M30 266h240v-48h-240v48z" />
    <glyph glyph-name="registered" unicode="&#xae;" horiz-adv-x="494" 
d="M140.5 281.5c-32.333 19 -58 44.667 -77 77s-28.5 67.833 -28.5 106.5s9.5 74.167 28.5 106.5s44.667 58 77 77s67.833 28.5 106.5 28.5s74.167 -9.5 106.5 -28.5s58 -44.667 77 -77s28.5 -67.833 28.5 -106.5s-9.5 -74.167 -28.5 -106.5s-44.667 -58 -77 -77
s-67.833 -28.5 -106.5 -28.5s-74.167 9.5 -106.5 28.5zM154.5 625.5c-28.333 -16.333 -50.833 -38.666 -67.5 -66.999s-25 -59.5 -25 -93.5c0 -33.333 8.33301 -64.166 25 -92.499s39.167 -50.833 67.5 -67.5s59.166 -25 92.499 -25s64.166 8.33301 92.499 25
s50.833 39.167 67.5 67.5s25 59.166 25 92.499c0 34 -8.33301 65.167 -25 93.5s-39.167 50.666 -67.5 66.999s-59.166 24.5 -92.499 24.5s-64.166 -8.16699 -92.499 -24.5zM243 439l-45.999 0.000976562v-96h-30v243h99c21.333 0 39.166 -6.83301 53.499 -20.5
s21.5 -31.5 21.5 -53.5c0 -16.667 -3.83301 -30.334 -11.5 -41.001s-16.5 -18.5 -26.5 -23.5s-18 -7.5 -24 -7.5l65 -97h-38zM197.001 558.001v-90h69c12.667 0 23.167 4.16699 31.5 12.5s12.5 18.833 12.5 31.5c0 13.333 -4.16699 24.333 -12.5 33s-18.833 13 -31.5 13h-69
z" />
    <glyph glyph-name="macron" unicode="&#xaf;" horiz-adv-x="363" 
d="M34 614h295v-37h-295v37z" />
    <glyph glyph-name="degree" unicode="&#xb0;" horiz-adv-x="282" 
d="M58.5 478.5c-22.333 22.333 -33.5 49.5 -33.5 81.5s11.167 59.5 33.5 82.5s49.5 34.5 81.5 34.5c32.667 0 60.334 -11.5 83.001 -34.5s34 -50.5 34 -82.5s-11.333 -59.167 -34 -81.5s-50.334 -33.5 -83.001 -33.5c-32 0 -59.167 11.167 -81.5 33.5zM86.5 615
c-15 -15.333 -22.5 -33.666 -22.5 -54.999c0 -20.667 7.5 -38.5 22.5 -53.5s32.833 -22.5 53.5 -22.5c21.333 0 39.666 7.5 54.999 22.5s23 32.833 23 53.5c0 21.333 -7.66699 39.666 -23 54.999s-33.666 23 -54.999 23c-20.667 0 -38.5 -7.66699 -53.5 -23z" />
    <glyph glyph-name="plusminus" unicode="&#xb1;" horiz-adv-x="496" 
d="M271 105h-45v218h-197v41h197v212h45v-212h196v-41h-196v-218zM29 41h438v-41h-438v41z" />
    <glyph glyph-name="uni00B2" unicode="&#xb2;" horiz-adv-x="384" 
d="M52 456c81.333 58 140.833 106.167 178.5 144.5s56.5 74.833 56.5 109.5c0 26.667 -9 46.5 -27 59.5s-40 19.5 -66 19.5c-24.667 0 -46.834 -4.83301 -66.501 -14.5s-35.167 -22.167 -46.5 -37.5l-27 28c15.333 20 35.5 35.333 60.5 46s51.833 16 80.5 16
c36.667 0 68.5 -9.66699 95.5 -29s40.5 -48 40.5 -86c0 -40 -18.167 -79.667 -54.5 -119s-89.166 -84 -158.499 -134h215v-38h-281v35z" />
    <glyph glyph-name="uni00B3" unicode="&#xb3;" horiz-adv-x="384" 
d="M103 432c-25.333 12 -44.3369 27.6631 -57.0039 46.9961l26 28c12.667 -16.667 29.167 -30 49.5 -40s42.833 -15 67.5 -15c31.333 0 55.833 6.83301 73.5 20.5s26.5 32.834 26.5 57.501c0 26.667 -10.167 46.334 -30.5 59.001s-46.833 19 -79.5 19
c-21.333 0 -34 -0.333008 -38 -1v39c4.66699 -0.666992 17.334 -1 38.001 -1c30.667 0 55.667 5.83301 75 17.5s29 29.834 29 54.501c0 22.667 -9.16699 40.334 -27.5 53.001s-41.166 19 -68.499 19c-23.333 0 -43.666 -4 -60.999 -12s-34 -20.667 -50 -38l-25 27
c15.333 18 34.833 32.667 58.5 44s50.5 17 80.5 17c40 0 72.833 -9.5 98.5 -28.5s38.5 -44.833 38.5 -77.5c0 -27.333 -9.16699 -48.833 -27.5 -64.5s-38.833 -25.167 -61.5 -28.5c22.667 -2 44.334 -11.5 65.001 -28.5s31 -40.5 31 -70.5c0 -34 -13 -61.667 -39 -83
s-61 -32 -105 -32c-32.667 0 -61.667 6 -87 18z" />
    <glyph glyph-name="acute" unicode="&#xb4;" horiz-adv-x="216" 
d="M0 556l154 144h62l-172 -144h-44z" />
    <glyph glyph-name="uni00B5" unicode="&#xb5;" horiz-adv-x="554" 
d="M81 -184v667h52v-328c0 -81.333 39.333 -122 118 -122c29.333 0 58.5 8 87.5 24s51.833 35.333 68.5 58v368h52v-384c0 -19.333 4.16699 -34.833 12.5 -46.5s20.5 -17.5 36.5 -17.5c8 0 14.667 0.666992 20 2l4 -46c-8 -2 -18.333 -3 -31 -3c-54 0 -85 28.667 -93 86
c-19.333 -24.667 -43.5 -45.167 -72.5 -61.5s-58.5 -24.5 -88.5 -24.5c-56 0 -94 18.667 -114 56v-228h-52z" />
    <glyph glyph-name="paragraph" unicode="&#xb6;" horiz-adv-x="449" 
d="M330 630l-93 0.00390625v-730h-38v423c-31.333 0 -60.166 7.66699 -86.499 23s-47.166 36.166 -62.499 62.499s-23 55.166 -23 86.499s7.66699 60.166 23 86.499s36.166 47.166 62.499 62.499s55.166 23 86.499 23h169v-767h-38v730z" />
    <glyph glyph-name="periodcentered" unicode="&#xb7;" horiz-adv-x="219" 
d="M78 214c-8.66699 8.66699 -13 19 -13 31c0 11.333 4.33301 21.333 13 30s19 13 31 13s22.5 -4.33301 31.5 -13s13.5 -18.667 13.5 -30c0 -12 -4.5 -22.333 -13.5 -31s-19.5 -13 -31.5 -13s-22.333 4.33301 -31 13z" />
    <glyph glyph-name="cedilla" unicode="&#xb8;" horiz-adv-x="198" 
d="M16 -128c23.333 -18.667 50.001 -27.998 80.001 -27.998c18.667 0 34.167 4.16699 46.5 12.5s18.5 20.166 18.5 35.499c0 10.667 -3.5 19.334 -10.5 26.001s-17.167 10 -30.5 10c-16.667 0 -30 -5.66699 -40 -17l-28 16l31 84h38l-26 -68c10 8 22.333 12 37 12
c19.333 0 35.166 -5.83301 47.499 -17.5s18.5 -26.834 18.5 -45.501c0 -24.667 -9.66699 -44.334 -29 -59.001s-43.333 -22 -72 -22c-19.333 0 -37.833 2.83301 -55.5 8.5s-31.5 12.5 -41.5 20.5z" />
    <glyph glyph-name="uni00B9" unicode="&#xb9;" horiz-adv-x="214" 
d="M108 762l-64 -69l-27 29l97 99h40v-400h-46v341z" />
    <glyph glyph-name="ordmasculine" unicode="&#xba;" horiz-adv-x="405" 
d="M64 566.5c13.333 25 32 44.833 56 59.5s51.333 22 82 22c31.333 0 59.166 -7.33301 83.499 -22s43 -34.5 56 -59.5s19.5 -52.833 19.5 -83.5s-6.5 -58.5 -19.5 -83.5s-31.667 -44.833 -56 -59.5s-52.166 -22 -83.499 -22c-30.667 0 -58 7.33301 -82 22
s-42.667 34.667 -56 60s-20 53 -20 83c0 30.667 6.66699 58.5 20 83.5zM286 573.5c-20.667 24.333 -48.667 36.5 -84 36.5c-34.667 0 -62.167 -12 -82.5 -36s-30.5 -54.333 -30.5 -91s10.167 -67.167 30.5 -91.5s47.833 -36.5 82.5 -36.5c35.333 0 63.333 12.167 84 36.5
s31 54.833 31 91.5c0 36 -10.333 66.167 -31 90.5z" />
    <glyph glyph-name="guillemotright" unicode="&#xbb;" horiz-adv-x="402" 
d="M30 63l160 180l-160 177h57l160 -177l-160 -180h-57zM155 63l160 180l-160 177h57l160 -177l-160 -180h-57z" />
    <glyph glyph-name="onequarter" unicode="&#xbc;" horiz-adv-x="721" 
d="M108 608l-64 -69l-27 29l97 99h40v-400h-46v341zM86 0l426 667h46l-427 -667h-45zM620 0h-44v107h-196v35l179 258h61v-256h60v-37h-60v-107zM426 144h150v215z" />
    <glyph glyph-name="onehalf" unicode="&#xbd;" horiz-adv-x="771" 
d="M108 608l-64 -69l-27 29l97 99h40v-400h-46v341zM86 0l426 667h46l-427 -667h-45zM439 35c81.333 58 140.833 106.167 178.5 144.5s56.5 74.833 56.5 109.5c0 26.667 -9 46.5 -27 59.5s-40 19.5 -66 19.5c-24.667 0 -46.834 -4.83301 -66.501 -14.5
s-35.167 -22.167 -46.5 -37.5l-27 28c15.333 20 35.5 35.333 60.5 46s51.833 16 80.5 16c36.667 0 68.5 -9.66699 95.5 -29s40.5 -48 40.5 -86c0 -40 -18.167 -79.667 -54.5 -119s-89.166 -84 -158.499 -134h215v-38h-281v35z" />
    <glyph glyph-name="threequarters" unicode="&#xbe;" horiz-adv-x="848" 
d="M103 278c-25.333 12 -44.3369 27.6631 -57.0039 46.9961l26 28c12.667 -16.667 29.167 -30 49.5 -40s42.833 -15 67.5 -15c31.333 0 55.833 6.83301 73.5 20.5s26.5 32.834 26.5 57.501c0 26.667 -10.167 46.334 -30.5 59.001s-46.833 19 -79.5 19
c-21.333 0 -34 -0.333008 -38 -1v39c4.66699 -0.666992 17.334 -1 38.001 -1c30.667 0 55.667 5.83301 75 17.5s29 29.834 29 54.501c0 22.667 -9.16699 40.334 -27.5 53.001s-41.166 19 -68.499 19c-23.333 0 -43.666 -4 -60.999 -12s-34 -20.667 -50 -38l-25 27
c15.333 18 34.833 32.667 58.5 44s50.5 17 80.5 17c40 0 72.833 -9.5 98.5 -28.5s38.5 -44.833 38.5 -77.5c0 -27.333 -9.16699 -48.833 -27.5 -64.5s-38.833 -25.167 -61.5 -28.5c22.667 -2 44.334 -11.5 65.001 -28.5s31 -40.5 31 -70.5c0 -34 -13 -61.667 -39 -83
s-61 -32 -105 -32c-32.667 0 -61.667 6 -87 18zM212.996 -0.00390625l426 667h46l-427 -667h-45zM746.996 -0.00390625h-44v107h-196v35l179 258h61v-256h60v-37h-60v-107zM552.996 143.996h150v215z" />
    <glyph glyph-name="questiondown" unicode="&#xbf;" horiz-adv-x="397" 
d="M239 548c8.66699 -8.66699 13 -19 13 -31c0 -11.333 -4.33301 -21.333 -13 -30s-19 -13 -31 -13s-22.333 4.33301 -31 13s-13 18.667 -13 30c0 12 4.33301 22.333 13 31s19 13 31 13s22.333 -4.33301 31 -13zM187 296c12 11.333 17.999 25 17.999 41
c0 16.667 -9.66699 31.334 -29 44.001l39 22c26 -18.667 39 -40.667 39 -66c0 -24.667 -7.5 -44.834 -22.5 -60.501s-37.5 -32.834 -67.5 -51.501c-28 -18 -48.833 -34 -62.5 -48s-20.5 -31.333 -20.5 -52c0 -25.333 10.667 -46.333 32 -63s50 -25 86 -25
c34.667 0 64.5 6.5 89.5 19.5s46.833 31.833 65.5 56.5l31 -33c-21.333 -28 -47.833 -50 -79.5 -66s-68.167 -24 -109.5 -24c-34 0 -63.833 5.83301 -89.5 17.5s-45.334 27.334 -59.001 47.001s-20.5 41.167 -20.5 64.5c0 22 4.83301 41 14.5 57s21.334 29.5 35.001 40.5
s31.834 23.5 54.501 37.5c25.333 16.667 44 30.667 56 42z" />
    <glyph glyph-name="Agrave" unicode="&#xc0;" horiz-adv-x="647" 
d="M501 164h-355l-67 -164h-64l273 667h71l273 -667h-64zM164 216h319l-160 395zM129 867h62l154 -144h-44z" />
    <glyph glyph-name="Aacute" unicode="&#xc1;" horiz-adv-x="647" 
d="M501 164h-355l-67 -164h-64l273 667h71l273 -667h-64zM164 216h319l-160 395zM299 723l154 144h62l-172 -144h-44z" />
    <glyph glyph-name="Acircumflex" unicode="&#xc2;" horiz-adv-x="647" 
d="M501 164h-355l-67 -164h-64l273 667h71l273 -667h-64zM164 216h319l-160 395zM323 836l-85 -113h-39l97 144h54l99 -144h-40z" />
    <glyph glyph-name="Atilde" unicode="&#xc3;" horiz-adv-x="647" 
d="M501 164h-355l-67 -164h-64l273 667h71l273 -667h-64zM164 216h319l-160 395zM285.5 812.5c-7 7.66699 -15.832 11.499 -26.499 11.499c-16 0 -29 -8 -39 -24s-15 -40.333 -15 -73h-35c0 38.667 8.16699 70.667 24.5 96s39.166 38 68.499 38
c18 0 32.167 -4.83301 42.5 -14.5s21.166 -24.167 32.499 -43.5c9.33301 -15.333 17.333 -26.5 24 -33.5s15.334 -10.5 26.001 -10.5c16 0 28.833 8 38.5 24s14.5 40 14.5 72h36c0 -39.333 -8 -71.5 -24 -96.5s-38.667 -37.5 -68 -37.5c-18.667 0 -33 4.83301 -43 14.5
s-21 24.167 -33 43.5c-8.66699 14.667 -16.5 25.834 -23.5 33.501z" />
    <glyph glyph-name="Adieresis" unicode="&#xc4;" horiz-adv-x="647" 
d="M501 164h-355l-67 -164h-64l273 667h71l273 -667h-64zM164 216h319l-160 395zM195 746c-7.33301 7.33301 -11 16.333 -11 27c0 10 3.66699 18.667 11 26s16 11 26 11s18.667 -3.66699 26 -11s11 -16 11 -26c0 -10.667 -3.66699 -19.667 -11 -27s-16 -11 -26 -11
s-18.667 3.66699 -26 11zM399 746c-7.33301 7.33301 -11 16.333 -11 27c0 10 3.66699 18.667 11 26s16 11 26 11s18.833 -3.66699 26.5 -11s11.5 -16 11.5 -26c0 -10.667 -3.83301 -19.667 -11.5 -27s-16.5 -11 -26.5 -11s-18.667 3.66699 -26 11z" />
    <glyph glyph-name="Aring" unicode="&#xc5;" horiz-adv-x="647" 
d="M501 164h-355l-67 -164h-64l273 667h71l273 -667h-64zM164 216h319l-160 395zM256 878.5c18.667 19 41.334 28.5 68.001 28.5c26 0 48.167 -9.5 66.5 -28.5s27.5 -41.5 27.5 -67.5c0 -26.667 -9.16699 -49.334 -27.5 -68.001s-40.5 -28 -66.5 -28
c-26.667 0 -49.334 9.33301 -68.001 28s-28 41.334 -28 68.001c0 26 9.33301 48.5 28 67.5zM368.5 856c-12.333 12.667 -27.166 19 -44.499 19s-32.333 -6.33301 -45 -19s-19 -27.667 -19 -45s6.33301 -32.333 19 -45s27.667 -19 45 -19s32.166 6.33301 44.499 19
s18.5 27.667 18.5 45s-6.16699 32.333 -18.5 45z" />
    <glyph glyph-name="AE" unicode="&#xc6;" horiz-adv-x="939" 
d="M456 164h-275l-103 -164h-64l421 667h444v-52h-365v-247h358v-52h-358v-264h365v-52h-423v164zM209 216h247v396z" />
    <glyph glyph-name="Ccedilla" unicode="&#xc7;" horiz-adv-x="672" 
d="M506.5 66.5c35 17.667 63.168 41.1709 84.501 70.5039l48 -30c-62.667 -76.667 -140.667 -116.334 -234 -119.001l-17 -45c10 8 22.333 12 37 12c19.333 0 35.166 -5.83301 47.499 -17.5s18.5 -26.834 18.5 -45.501c0 -24.667 -9.66699 -44.334 -29 -59.001
s-43.333 -22 -72 -22c-19.333 0 -37.833 2.83301 -55.5 8.5s-31.5 12.5 -41.5 20.5l16 32c23.333 -18.667 50 -28 80 -28c18.667 0 34.167 4.16699 46.5 12.5s18.5 20.166 18.5 35.499c0 10.667 -3.5 19.334 -10.5 26.001s-17.167 10 -30.5 10
c-16.667 0 -30 -5.66699 -40 -17l-28 16l23 62c-58 4 -110.667 21 -158 51s-84.5 70.5 -111.5 121.5s-40.5 108.167 -40.5 171.5c0 66.667 14.833 126.334 44.5 179.001s70.167 93.5 121.5 122.5s108 43.5 170 43.5c100 0 181.667 -39.333 245 -118l-48 -31
c-21.333 29.333 -49.5 52.833 -84.5 70.5s-72.5 26.5 -112.5 26.5c-51.333 0 -98 -12.333 -140 -37s-75.167 -59.334 -99.5 -104.001s-36.5 -95.334 -36.5 -152.001c0 -56 12.167 -106.333 36.5 -151s57.5 -79.5 99.5 -104.5s88.667 -37.5 140 -37.5
c40 0 77.5 8.83301 112.5 26.5z" />
    <glyph glyph-name="Egrave" unicode="&#xc8;" horiz-adv-x="564" 
d="M83 667h423v-52h-366v-247h359v-52h-359v-264h366v-52h-423v667zM105 867h62l154 -144h-44z" />
    <glyph glyph-name="Eacute" unicode="&#xc9;" horiz-adv-x="564" 
d="M83 667h423v-52h-366v-247h359v-52h-359v-264h366v-52h-423v667zM275 723l154 144h62l-172 -144h-44z" />
    <glyph glyph-name="Ecircumflex" unicode="&#xca;" horiz-adv-x="564" 
d="M83 667h423v-52h-366v-247h359v-52h-359v-264h366v-52h-423v667zM299 836l-85 -113h-39l97 144h54l99 -144h-40z" />
    <glyph glyph-name="Edieresis" unicode="&#xcb;" horiz-adv-x="564" 
d="M83 667h423v-52h-366v-247h359v-52h-359v-264h366v-52h-423v667zM171 746c-7.33301 7.33301 -11 16.333 -11 27c0 10 3.66699 18.667 11 26s16 11 26 11s18.667 -3.66699 26 -11s11 -16 11 -26c0 -10.667 -3.66699 -19.667 -11 -27s-16 -11 -26 -11
s-18.667 3.66699 -26 11zM375 746c-7.33301 7.33301 -11 16.333 -11 27c0 10 3.66699 18.667 11 26s16 11 26 11s18.833 -3.66699 26.5 -11s11.5 -16 11.5 -26c0 -10.667 -3.83301 -19.667 -11.5 -27s-16.5 -11 -26.5 -11s-18.667 3.66699 -26 11z" />
    <glyph glyph-name="Igrave" unicode="&#xcc;" horiz-adv-x="223" 
d="M83 667h57v-667h-57v667zM-82 867h62l154 -144h-44z" />
    <glyph glyph-name="Iacute" unicode="&#xcd;" horiz-adv-x="223" 
d="M83 667h57v-667h-57v667zM88 723l154 144h62l-172 -144h-44z" />
    <glyph glyph-name="Icircumflex" unicode="&#xce;" horiz-adv-x="223" 
d="M83 667h57v-667h-57v667zM112 836l-85 -113h-39l97 144h54l99 -144h-40z" />
    <glyph glyph-name="Idieresis" unicode="&#xcf;" horiz-adv-x="223" 
d="M83 667h57v-667h-57v667zM-16 746c-7.33301 7.33301 -11 16.333 -11 27c0 10 3.66699 18.667 11 26s16 11 26 11s18.667 -3.66699 26 -11s11 -16 11 -26c0 -10.667 -3.66699 -19.667 -11 -27s-16 -11 -26 -11s-18.667 3.66699 -26 11zM188 746
c-7.33301 7.33301 -11 16.333 -11 27c0 10 3.66699 18.667 11 26s16 11 26 11s18.833 -3.66699 26.5 -11s11.5 -16 11.5 -26c0 -10.667 -3.83301 -19.667 -11.5 -27s-16.5 -11 -26.5 -11s-18.667 3.66699 -26 11z" />
    <glyph glyph-name="Eth" unicode="&#xd0;" horiz-adv-x="721" 
d="M503 622.5c51.333 -29.667 90.833 -70 118.5 -121s41.5 -107.167 41.5 -168.5c0 -62 -13.833 -118.333 -41.5 -169s-67.167 -90.667 -118.5 -120s-110.666 -44 -177.999 -44h-213v307h-101v47h101v313h213c67.333 0 126.666 -14.833 177.999 -44.5zM473.5 89
c41.667 24.667 73.5 58.3311 95.5 100.998s33 90.334 33 143.001s-11 100.334 -33 143.001s-53.833 76.5 -95.5 101.5s-91.167 37.5 -148.5 37.5h-155v-261h179v-47h-179v-255h155c57.333 0 106.833 12.333 148.5 37z" />
    <glyph glyph-name="Ntilde" unicode="&#xd1;" horiz-adv-x="699" 
d="M140 576v-576h-57v667h58l418 -568v568h57v-667h-56zM312.5 812.5c-7 7.66699 -15.832 11.499 -26.499 11.499c-16 0 -29 -8 -39 -24s-15 -40.333 -15 -73h-35c0 38.667 8.16699 70.667 24.5 96s39.166 38 68.499 38c18 0 32.167 -4.83301 42.5 -14.5
s21.166 -24.167 32.499 -43.5c9.33301 -15.333 17.333 -26.5 24 -33.5s15.334 -10.5 26.001 -10.5c16 0 28.833 8 38.5 24s14.5 40 14.5 72h36c0 -39.333 -8 -71.5 -24 -96.5s-38.667 -37.5 -68 -37.5c-18.667 0 -33 4.83301 -43 14.5s-21 24.167 -33 43.5
c-8.66699 14.667 -16.5 25.834 -23.5 33.501z" />
    <glyph glyph-name="Ograve" unicode="&#xd2;" horiz-adv-x="764" 
d="M98.5 509c27 52.667 65 94 114 124s105.5 45 169.5 45c63.333 0 119.666 -15 168.999 -45s87.5 -71.333 114.5 -124s40.5 -111.334 40.5 -176.001s-13.5 -123.334 -40.5 -176.001s-65.167 -94 -114.5 -124s-105.666 -45 -168.999 -45c-64 0 -120.5 15 -169.5 45
s-87 71.333 -114 124s-40.5 111.334 -40.5 176.001s13.5 123.334 40.5 176.001zM613.5 484.5c-21.667 44.333 -52.499 79 -92.499 104s-86.333 37.5 -139 37.5c-53.333 0 -99.833 -12.5 -139.5 -37.5s-70.334 -59.667 -92.001 -104s-32.5 -94.833 -32.5 -151.5
c0 -56 10.833 -106.167 32.5 -150.5s52.5 -79.166 92.5 -104.499s86.333 -38 139 -38c52 0 98 12.667 138 38s71 60.166 93 104.499s33 94.5 33 150.5c0 56.667 -10.833 107.167 -32.5 151.5zM188.001 867h62l154 -144h-44z" />
    <glyph glyph-name="Oacute" unicode="&#xd3;" horiz-adv-x="764" 
d="M98.5 509c27 52.667 65 94 114 124s105.5 45 169.5 45c63.333 0 119.666 -15 168.999 -45s87.5 -71.333 114.5 -124s40.5 -111.334 40.5 -176.001s-13.5 -123.334 -40.5 -176.001s-65.167 -94 -114.5 -124s-105.666 -45 -168.999 -45c-64 0 -120.5 15 -169.5 45
s-87 71.333 -114 124s-40.5 111.334 -40.5 176.001s13.5 123.334 40.5 176.001zM613.5 484.5c-21.667 44.333 -52.499 79 -92.499 104s-86.333 37.5 -139 37.5c-53.333 0 -99.833 -12.5 -139.5 -37.5s-70.334 -59.667 -92.001 -104s-32.5 -94.833 -32.5 -151.5
c0 -56 10.833 -106.167 32.5 -150.5s52.5 -79.166 92.5 -104.499s86.333 -38 139 -38c52 0 98 12.667 138 38s71 60.166 93 104.499s33 94.5 33 150.5c0 56.667 -10.833 107.167 -32.5 151.5zM358.001 723l154 144h62l-172 -144h-44z" />
    <glyph glyph-name="Ocircumflex" unicode="&#xd4;" horiz-adv-x="764" 
d="M98.5 509c27 52.667 65 94 114 124s105.5 45 169.5 45c63.333 0 119.666 -15 168.999 -45s87.5 -71.333 114.5 -124s40.5 -111.334 40.5 -176.001s-13.5 -123.334 -40.5 -176.001s-65.167 -94 -114.5 -124s-105.666 -45 -168.999 -45c-64 0 -120.5 15 -169.5 45
s-87 71.333 -114 124s-40.5 111.334 -40.5 176.001s13.5 123.334 40.5 176.001zM613.5 484.5c-21.667 44.333 -52.499 79 -92.499 104s-86.333 37.5 -139 37.5c-53.333 0 -99.833 -12.5 -139.5 -37.5s-70.334 -59.667 -92.001 -104s-32.5 -94.833 -32.5 -151.5
c0 -56 10.833 -106.167 32.5 -150.5s52.5 -79.166 92.5 -104.499s86.333 -38 139 -38c52 0 98 12.667 138 38s71 60.166 93 104.499s33 94.5 33 150.5c0 56.667 -10.833 107.167 -32.5 151.5zM382.001 836l-85 -113h-39l97 144h54l99 -144h-40z" />
    <glyph glyph-name="Otilde" unicode="&#xd5;" horiz-adv-x="764" 
d="M98.5 509c27 52.667 65 94 114 124s105.5 45 169.5 45c63.333 0 119.666 -15 168.999 -45s87.5 -71.333 114.5 -124s40.5 -111.334 40.5 -176.001s-13.5 -123.334 -40.5 -176.001s-65.167 -94 -114.5 -124s-105.666 -45 -168.999 -45c-64 0 -120.5 15 -169.5 45
s-87 71.333 -114 124s-40.5 111.334 -40.5 176.001s13.5 123.334 40.5 176.001zM613.5 484.5c-21.667 44.333 -52.499 79 -92.499 104s-86.333 37.5 -139 37.5c-53.333 0 -99.833 -12.5 -139.5 -37.5s-70.334 -59.667 -92.001 -104s-32.5 -94.833 -32.5 -151.5
c0 -56 10.833 -106.167 32.5 -150.5s52.5 -79.166 92.5 -104.499s86.333 -38 139 -38c52 0 98 12.667 138 38s71 60.166 93 104.499s33 94.5 33 150.5c0 56.667 -10.833 107.167 -32.5 151.5zM344.501 812.5c-7 7.66699 -15.832 11.499 -26.499 11.499c-16 0 -29 -8 -39 -24
s-15 -40.333 -15 -73h-35c0 38.667 8.16699 70.667 24.5 96s39.166 38 68.499 38c18 0 32.167 -4.83301 42.5 -14.5s21.166 -24.167 32.499 -43.5c9.33301 -15.333 17.333 -26.5 24 -33.5s15.334 -10.5 26.001 -10.5c16 0 28.833 8 38.5 24s14.5 40 14.5 72h36
c0 -39.333 -8 -71.5 -24 -96.5s-38.667 -37.5 -68 -37.5c-18.667 0 -33 4.83301 -43 14.5s-21 24.167 -33 43.5c-8.66699 14.667 -16.5 25.834 -23.5 33.501z" />
    <glyph glyph-name="Odieresis" unicode="&#xd6;" horiz-adv-x="764" 
d="M98.5 509c27 52.667 65 94 114 124s105.5 45 169.5 45c63.333 0 119.666 -15 168.999 -45s87.5 -71.333 114.5 -124s40.5 -111.334 40.5 -176.001s-13.5 -123.334 -40.5 -176.001s-65.167 -94 -114.5 -124s-105.666 -45 -168.999 -45c-64 0 -120.5 15 -169.5 45
s-87 71.333 -114 124s-40.5 111.334 -40.5 176.001s13.5 123.334 40.5 176.001zM613.5 484.5c-21.667 44.333 -52.499 79 -92.499 104s-86.333 37.5 -139 37.5c-53.333 0 -99.833 -12.5 -139.5 -37.5s-70.334 -59.667 -92.001 -104s-32.5 -94.833 -32.5 -151.5
c0 -56 10.833 -106.167 32.5 -150.5s52.5 -79.166 92.5 -104.499s86.333 -38 139 -38c52 0 98 12.667 138 38s71 60.166 93 104.499s33 94.5 33 150.5c0 56.667 -10.833 107.167 -32.5 151.5zM254.001 746c-7.33301 7.33301 -11 16.333 -11 27c0 10 3.66699 18.667 11 26
s16 11 26 11s18.667 -3.66699 26 -11s11 -16 11 -26c0 -10.667 -3.66699 -19.667 -11 -27s-16 -11 -26 -11s-18.667 3.66699 -26 11zM458.001 746c-7.33301 7.33301 -11 16.333 -11 27c0 10 3.66699 18.667 11 26s16 11 26 11s18.833 -3.66699 26.5 -11s11.5 -16 11.5 -26
c0 -10.667 -3.83301 -19.667 -11.5 -27s-16.5 -11 -26.5 -11s-18.667 3.66699 -26 11z" />
    <glyph glyph-name="multiply" unicode="&#xd7;" horiz-adv-x="496" 
d="M97 153l-30 29l152 152l-152 152l30 29l151 -152l152 152l29 -29l-152 -152l152 -152l-29 -29l-152 152z" />
    <glyph glyph-name="Oslash" unicode="&#xd8;" horiz-adv-x="764" 
d="M673.5 491.5c21.667 -48.333 32.499 -101.168 32.499 -158.501c0 -64.667 -13.5 -123.334 -40.5 -176.001s-65.167 -94 -114.5 -124s-105.666 -45 -168.999 -45c-62 0 -118 14.667 -168 44l-20 -32h-51l36 57c-38.667 31.333 -68.5 70.833 -89.5 118.5
s-31.5 100.167 -31.5 157.5c0 64.667 13.5 123.334 40.5 176.001s65 94 114 124s105.5 45 169.5 45c61.333 0 116 -14 164 -42l20 31h52l-36 -56c39.333 -31.333 69.833 -71.166 91.5 -119.499zM141.499 202.498c15.667 -39.667 38.168 -72.5 67.501 -98.5l308 486
c-39.333 24 -84.333 36 -135 36c-53.333 0 -99.833 -12.5 -139.5 -37.5s-70.334 -59.667 -92.001 -104s-32.5 -94.833 -32.5 -151.5c0 -47.333 7.83301 -90.833 23.5 -130.5zM520 77.998c40 25.333 71.001 60.167 93.001 104.5s33 94.5 33 150.5c0 48 -8 92 -24 132
s-39 73 -69 99l-310 -486c39.333 -25.333 85.666 -38 138.999 -38c52 0 98 12.667 138 38z" />
    <glyph glyph-name="Ugrave" unicode="&#xd9;" horiz-adv-x="686" 
d="M83 667h58v-410c0 -68 17.5 -121.167 52.5 -159.5s84.833 -57.5 149.5 -57.5c65.333 0 115.333 19 150 57s52 91.333 52 160v410h58v-411c0 -84 -22.167 -149.667 -66.5 -197s-108.833 -71 -193.5 -71c-84 0 -148.333 23.833 -193 71.5s-67 113.167 -67 196.5v411z
M149 867h62l154 -144h-44z" />
    <glyph glyph-name="Uacute" unicode="&#xda;" horiz-adv-x="686" 
d="M83 667h58v-410c0 -68 17.5 -121.167 52.5 -159.5s84.833 -57.5 149.5 -57.5c65.333 0 115.333 19 150 57s52 91.333 52 160v410h58v-411c0 -84 -22.167 -149.667 -66.5 -197s-108.833 -71 -193.5 -71c-84 0 -148.333 23.833 -193 71.5s-67 113.167 -67 196.5v411z
M319 723l154 144h62l-172 -144h-44z" />
    <glyph glyph-name="Ucircumflex" unicode="&#xdb;" horiz-adv-x="686" 
d="M83 667h58v-410c0 -68 17.5 -121.167 52.5 -159.5s84.833 -57.5 149.5 -57.5c65.333 0 115.333 19 150 57s52 91.333 52 160v410h58v-411c0 -84 -22.167 -149.667 -66.5 -197s-108.833 -71 -193.5 -71c-84 0 -148.333 23.833 -193 71.5s-67 113.167 -67 196.5v411z
M343 836l-85 -113h-39l97 144h54l99 -144h-40z" />
    <glyph glyph-name="Udieresis" unicode="&#xdc;" horiz-adv-x="686" 
d="M83 667h58v-410c0 -68 17.5 -121.167 52.5 -159.5s84.833 -57.5 149.5 -57.5c65.333 0 115.333 19 150 57s52 91.333 52 160v410h58v-411c0 -84 -22.167 -149.667 -66.5 -197s-108.833 -71 -193.5 -71c-84 0 -148.333 23.833 -193 71.5s-67 113.167 -67 196.5v411z
M215 746c-7.33301 7.33301 -11 16.333 -11 27c0 10 3.66699 18.667 11 26s16 11 26 11s18.667 -3.66699 26 -11s11 -16 11 -26c0 -10.667 -3.66699 -19.667 -11 -27s-16 -11 -26 -11s-18.667 3.66699 -26 11zM419 746c-7.33301 7.33301 -11 16.333 -11 27
c0 10 3.66699 18.667 11 26s16 11 26 11s18.833 -3.66699 26.5 -11s11.5 -16 11.5 -26c0 -10.667 -3.83301 -19.667 -11.5 -27s-16.5 -11 -26.5 -11s-18.667 3.66699 -26 11z" />
    <glyph glyph-name="Yacute" unicode="&#xdd;" horiz-adv-x="618" 
d="M280 285l-265 382h69l225 -328l225 328h69l-265 -382v-285h-58v285zM285 723l154 144h62l-172 -144h-44z" />
    <glyph glyph-name="Thorn" unicode="&#xde;" 
d="M83 667h57v-124h193c41.333 0 77.166 -8.83301 107.499 -26.5s53.5 -41.5 69.5 -71.5s24 -62.667 24 -98s-8 -67.833 -24 -97.5s-39.167 -53.167 -69.5 -70.5s-66.166 -26 -107.499 -26h-193v-153h-57v667zM433 450.5c-27.333 27 -62.667 40.5 -106 40.5h-187v-286h187
c44 0 79.5 13.167 106.5 39.5s40.5 60.5 40.5 102.5s-13.667 76.5 -41 103.5z" />
    <glyph glyph-name="germandbls" unicode="&#xdf;" horiz-adv-x="998" 
d="M73 115c19.333 -22 44.666 -40.665 75.999 -55.998s65.333 -23 102 -23c50.667 0 88.167 10.5 112.5 31.5s36.5 47.167 36.5 78.5c0 24 -7 43.167 -21 57.5s-31.5 25.5 -52.5 33.5s-48.833 16.333 -83.5 25c-40.667 10 -73.334 19.667 -98.001 29
s-45.667 23.833 -63 43.5s-26 45.5 -26 77.5c0 29.333 8.5 55.333 25.5 78s40 40.334 69 53.001s60.833 19 95.5 19c82 0 147.667 -26.333 197 -79l-32 -38c-20 23.333 -44.333 40.666 -73 51.999s-59.334 17 -92.001 17c-37.333 0 -68.833 -9.66699 -94.5 -29
s-38.5 -43.333 -38.5 -72c0 -19.333 6.33301 -35.166 19 -47.499s28.5 -22 47.5 -29s45.167 -14.833 78.5 -23.5c42.667 -10.667 77.334 -21.334 104.001 -32.001s49.334 -26.834 68.001 -48.501s28 -50.167 28 -85.5c0 -46.667 -17.5 -84.834 -52.5 -114.501
s-86.833 -44.5 -155.5 -44.5c-45.333 0 -86.166 8 -122.499 24s-65.833 37.333 -88.5 64zM572 115.002c19.333 -22 44.666 -40.665 75.999 -55.998s65.333 -23 102 -23c50.667 0 88.167 10.5 112.5 31.5s36.5 47.167 36.5 78.5c0 24 -7 43.167 -21 57.5
s-31.5 25.5 -52.5 33.5s-48.833 16.333 -83.5 25c-40.667 10 -73.334 19.667 -98.001 29s-45.667 23.833 -63 43.5s-26 45.5 -26 77.5c0 29.333 8.5 55.333 25.5 78s40 40.334 69 53.001s60.833 19 95.5 19c82 0 147.667 -26.333 197 -79l-32 -38
c-20 23.333 -44.333 40.666 -73 51.999s-59.334 17 -92.001 17c-37.333 0 -68.833 -9.66699 -94.5 -29s-38.5 -43.333 -38.5 -72c0 -19.333 6.33301 -35.166 19 -47.499s28.5 -22 47.5 -29s45.167 -14.833 78.5 -23.5c42.667 -10.667 77.334 -21.334 104.001 -32.001
s49.334 -26.834 68.001 -48.501s28 -50.167 28 -85.5c0 -46.667 -17.5 -84.834 -52.5 -114.501s-86.833 -44.5 -155.5 -44.5c-45.333 0 -86.166 8 -122.499 24s-65.833 37.333 -88.5 64z" />
    <glyph glyph-name="agrave" unicode="&#xe0;" horiz-adv-x="562" 
d="M550 0h-62l-58 133h-299l-56 -133h-63l237 550h64zM149 182h263l-131 311zM87 750h62l154 -144h-44z" />
    <glyph glyph-name="aacute" unicode="&#xe1;" horiz-adv-x="562" 
d="M550 0h-62l-58 133h-299l-56 -133h-63l237 550h64zM149 182h263l-131 311zM257 606l154 144h62l-172 -144h-44z" />
    <glyph glyph-name="acircumflex" unicode="&#xe2;" horiz-adv-x="562" 
d="M550 0h-62l-58 133h-299l-56 -133h-63l237 550h64zM149 182h263l-131 311zM281 719l-85 -113h-39l97 144h54l99 -144h-40z" />
    <glyph glyph-name="atilde" unicode="&#xe3;" horiz-adv-x="562" 
d="M550 0h-62l-58 133h-299l-56 -133h-63l237 550h64zM149 182h263l-131 311zM243.5 695.5c-7 7.66699 -15.832 11.499 -26.499 11.499c-16 0 -29 -8 -39 -24s-15 -40.333 -15 -73h-35c0 38.667 8.16699 70.667 24.5 96s39.166 38 68.499 38
c18 0 32.167 -4.83301 42.5 -14.5s21.166 -24.167 32.499 -43.5c9.33301 -15.333 17.333 -26.5 24 -33.5s15.334 -10.5 26.001 -10.5c16 0 28.833 8 38.5 24s14.5 40 14.5 72h36c0 -39.333 -8 -71.5 -24 -96.5s-38.667 -37.5 -68 -37.5c-18.667 0 -33 4.83301 -43 14.5
s-21 24.167 -33 43.5c-8.66699 14.667 -16.5 25.834 -23.5 33.501z" />
    <glyph glyph-name="adieresis" unicode="&#xe4;" horiz-adv-x="562" 
d="M550 0h-62l-58 133h-299l-56 -133h-63l237 550h64zM149 182h263l-131 311zM153 629c-7.33301 7.33301 -11 16.333 -11 27c0 10 3.66699 18.667 11 26s16 11 26 11s18.667 -3.66699 26 -11s11 -16 11 -26c0 -10.667 -3.66699 -19.667 -11 -27s-16 -11 -26 -11
s-18.667 3.66699 -26 11zM357 629c-7.33301 7.33301 -11 16.333 -11 27c0 10 3.66699 18.667 11 26s16 11 26 11s18.833 -3.66699 26.5 -11s11.5 -16 11.5 -26c0 -10.667 -3.83301 -19.667 -11.5 -27s-16.5 -11 -26.5 -11s-18.667 3.66699 -26 11z" />
    <glyph glyph-name="aring" unicode="&#xe5;" horiz-adv-x="562" 
d="M550 0h-62l-58 133h-299l-56 -133h-63l237 550h64zM149 182h263l-131 311zM214 761.5c18.667 19 41.334 28.5 68.001 28.5c26 0 48.167 -9.5 66.5 -28.5s27.5 -41.5 27.5 -67.5c0 -26.667 -9.16699 -49.334 -27.5 -68.001s-40.5 -28 -66.5 -28
c-26.667 0 -49.334 9.33301 -68.001 28s-28 41.334 -28 68.001c0 26 9.33301 48.5 28 67.5zM326.5 739c-12.333 12.667 -27.166 19 -44.499 19s-32.333 -6.33301 -45 -19s-19 -27.667 -19 -45s6.33301 -32.333 19 -45s27.667 -19 45 -19s32.166 6.33301 44.499 19
s18.5 27.667 18.5 45s-6.16699 32.333 -18.5 45z" />
    <glyph glyph-name="ae" unicode="&#xe6;" horiz-adv-x="811" 
d="M386 133h-227l-85 -133h-62l355 550h388v-49h-314v-194h308v-49h-308v-209h314v-49h-369v133zM188 182h198v311z" />
    <glyph glyph-name="ccedilla" unicode="&#xe7;" horiz-adv-x="581" 
d="M362 -11l-16.998 -45.9971c10 8 22.333 12 37 12c19.333 0 35.166 -5.83301 47.499 -17.5s18.5 -26.834 18.5 -45.501c0 -24.667 -9.66699 -44.334 -29 -59.001s-43.333 -22 -72 -22c-19.333 0 -37.833 2.83301 -55.5 8.5s-31.5 12.5 -41.5 20.5l16 32
c23.333 -18.667 50 -28 80 -28c18.667 0 34.167 4.16699 46.5 12.5s18.5 20.166 18.5 35.499c0 10.667 -3.5 19.334 -10.5 26.001s-17.167 10 -30.5 10c-16.667 0 -30 -5.66699 -40 -17l-28 16l23 62c-51.333 2.66699 -97.666 16.5 -138.999 41.5
s-73.833 58.833 -97.5 101.5s-35.5 90.667 -35.5 144c0 55.333 12.833 104.666 38.5 147.999s60.667 77.166 105 101.499s93.5 36.5 147.5 36.5c86.667 0 157 -34 211 -102l-43 -27c-18.667 24.667 -42.834 44.167 -72.501 58.5s-61.5 21.5 -95.5 21.5
c-43.333 0 -82.833 -10.167 -118.5 -30.5s-63.667 -48.5 -84 -84.5s-30.5 -76.667 -30.5 -122s10.333 -86.166 31 -122.499s48.667 -64.833 84 -85.5s74.666 -31 117.999 -31c34 0 66.333 7.16699 97 21.5s54.334 33.833 71.001 58.5l44 -27
c-50.667 -63.333 -115.334 -97 -194.001 -101z" />
    <glyph glyph-name="egrave" unicode="&#xe8;" horiz-adv-x="505" 
d="M81 550h368v-49h-313v-194h307v-49h-307v-209h313v-49h-368v550zM75 750h62l154 -144h-44z" />
    <glyph glyph-name="eacute" unicode="&#xe9;" horiz-adv-x="505" 
d="M81 550h368v-49h-313v-194h307v-49h-307v-209h313v-49h-368v550zM245 606l154 144h62l-172 -144h-44z" />
    <glyph glyph-name="ecircumflex" unicode="&#xea;" horiz-adv-x="505" 
d="M81 550h368v-49h-313v-194h307v-49h-307v-209h313v-49h-368v550zM269 719l-85 -113h-39l97 144h54l99 -144h-40z" />
    <glyph glyph-name="edieresis" unicode="&#xeb;" horiz-adv-x="505" 
d="M81 550h368v-49h-313v-194h307v-49h-307v-209h313v-49h-368v550zM141 629c-7.33301 7.33301 -11 16.333 -11 27c0 10 3.66699 18.667 11 26s16 11 26 11s18.667 -3.66699 26 -11s11 -16 11 -26c0 -10.667 -3.66699 -19.667 -11 -27s-16 -11 -26 -11
s-18.667 3.66699 -26 11zM345 629c-7.33301 7.33301 -11 16.333 -11 27c0 10 3.66699 18.667 11 26s16 11 26 11s18.833 -3.66699 26.5 -11s11.5 -16 11.5 -26c0 -10.667 -3.83301 -19.667 -11.5 -27s-16.5 -11 -26.5 -11s-18.667 3.66699 -26 11z" />
    <glyph glyph-name="igrave" unicode="&#xec;" horiz-adv-x="216" 
d="M81 550h55v-550h-55v550zM-86 750h62l154 -144h-44z" />
    <glyph glyph-name="iacute" unicode="&#xed;" horiz-adv-x="216" 
d="M81 550h55v-550h-55v550zM84 606l154 144h62l-172 -144h-44z" />
    <glyph glyph-name="icircumflex" unicode="&#xee;" horiz-adv-x="216" 
d="M81 550h55v-550h-55v550zM108 719l-85 -113h-39l97 144h54l99 -144h-40z" />
    <glyph glyph-name="idieresis" unicode="&#xef;" horiz-adv-x="216" 
d="M81 550h55v-550h-55v550zM-20 629c-7.33301 7.33301 -11 16.333 -11 27c0 10 3.66699 18.667 11 26s16 11 26 11s18.667 -3.66699 26 -11s11 -16 11 -26c0 -10.667 -3.66699 -19.667 -11 -27s-16 -11 -26 -11s-18.667 3.66699 -26 11zM184 629
c-7.33301 7.33301 -11 16.333 -11 27c0 10 3.66699 18.667 11 26s16 11 26 11s18.833 -3.66699 26.5 -11s11.5 -16 11.5 -26c0 -10.667 -3.83301 -19.667 -11.5 -27s-16.5 -11 -26.5 -11s-18.667 3.66699 -26 11z" />
    <glyph glyph-name="eth" unicode="&#xf0;" horiz-adv-x="622" 
d="M431 513c44 -24.667 77.833 -57.999 101.5 -99.999s35.5 -88.333 35.5 -139s-11.833 -96.834 -35.5 -138.501s-57.5 -74.667 -101.5 -99s-95.333 -36.5 -154 -36.5h-185v259h-67v41h67v250h185c58.667 0 110 -12.333 154 -37zM402 78.501
c35.333 19.667 62.167 46.667 80.5 81s27.5 72.5 27.5 114.5c0 42.667 -9 81.167 -27 115.5s-44.667 61.5 -80 81.5s-77.333 30 -126 30h-130v-201h142v-41h-142v-210h130c48 0 89.667 9.83301 125 29.5z" />
    <glyph glyph-name="ntilde" unicode="&#xf1;" horiz-adv-x="625" 
d="M136 467v-467h-55v550h55l353 -460v460h55v-550h-54zM274.5 695.5c-7 7.66699 -15.832 11.499 -26.499 11.499c-16 0 -29 -8 -39 -24s-15 -40.333 -15 -73h-35c0 38.667 8.16699 70.667 24.5 96s39.166 38 68.499 38c18 0 32.167 -4.83301 42.5 -14.5
s21.166 -24.167 32.499 -43.5c9.33301 -15.333 17.333 -26.5 24 -33.5s15.334 -10.5 26.001 -10.5c16 0 28.833 8 38.5 24s14.5 40 14.5 72h36c0 -39.333 -8 -71.5 -24 -96.5s-38.667 -37.5 -68 -37.5c-18.667 0 -33 4.83301 -43 14.5s-21 24.167 -33 43.5
c-8.66699 14.667 -16.5 25.834 -23.5 33.501z" />
    <glyph glyph-name="ograve" unicode="&#xf2;" horiz-adv-x="666" 
d="M88 420.5c23.333 43.667 56.167 78.167 98.5 103.5s91.166 38 146.499 38s104.166 -12.667 146.499 -38s75 -59.833 98 -103.5s34.5 -92.167 34.5 -145.5s-11.667 -101.833 -35 -145.5s-56 -78.167 -98 -103.5s-90.667 -38 -146 -38s-104.166 12.667 -146.499 38
s-75.166 59.833 -98.499 103.5s-35 92.167 -35 145.5s11.667 101.833 35 145.5zM527.501 397.5c-18.333 36.333 -44.333 64.666 -78 84.999s-72.5 30.5 -116.5 30.5c-44.667 0 -83.667 -10.167 -117 -30.5s-59.166 -48.666 -77.499 -84.999s-27.5 -77.166 -27.5 -122.499
c0 -44.667 9.16699 -85.167 27.5 -121.5s44.166 -64.833 77.499 -85.5s72.333 -31 117 -31c44 0 82.833 10.333 116.5 31s59.667 49.167 78 85.5s27.5 76.833 27.5 121.5c0 45.333 -9.16699 86.166 -27.5 122.499zM139.001 750h62l154 -144h-44z" />
    <glyph glyph-name="oacute" unicode="&#xf3;" horiz-adv-x="666" 
d="M88 420.5c23.333 43.667 56.167 78.167 98.5 103.5s91.166 38 146.499 38s104.166 -12.667 146.499 -38s75 -59.833 98 -103.5s34.5 -92.167 34.5 -145.5s-11.667 -101.833 -35 -145.5s-56 -78.167 -98 -103.5s-90.667 -38 -146 -38s-104.166 12.667 -146.499 38
s-75.166 59.833 -98.499 103.5s-35 92.167 -35 145.5s11.667 101.833 35 145.5zM527.501 397.5c-18.333 36.333 -44.333 64.666 -78 84.999s-72.5 30.5 -116.5 30.5c-44.667 0 -83.667 -10.167 -117 -30.5s-59.166 -48.666 -77.499 -84.999s-27.5 -77.166 -27.5 -122.499
c0 -44.667 9.16699 -85.167 27.5 -121.5s44.166 -64.833 77.499 -85.5s72.333 -31 117 -31c44 0 82.833 10.333 116.5 31s59.667 49.167 78 85.5s27.5 76.833 27.5 121.5c0 45.333 -9.16699 86.166 -27.5 122.499zM309.001 606l154 144h62l-172 -144h-44z" />
    <glyph glyph-name="ocircumflex" unicode="&#xf4;" horiz-adv-x="666" 
d="M88 420.5c23.333 43.667 56.167 78.167 98.5 103.5s91.166 38 146.499 38s104.166 -12.667 146.499 -38s75 -59.833 98 -103.5s34.5 -92.167 34.5 -145.5s-11.667 -101.833 -35 -145.5s-56 -78.167 -98 -103.5s-90.667 -38 -146 -38s-104.166 12.667 -146.499 38
s-75.166 59.833 -98.499 103.5s-35 92.167 -35 145.5s11.667 101.833 35 145.5zM527.501 397.5c-18.333 36.333 -44.333 64.666 -78 84.999s-72.5 30.5 -116.5 30.5c-44.667 0 -83.667 -10.167 -117 -30.5s-59.166 -48.666 -77.499 -84.999s-27.5 -77.166 -27.5 -122.499
c0 -44.667 9.16699 -85.167 27.5 -121.5s44.166 -64.833 77.499 -85.5s72.333 -31 117 -31c44 0 82.833 10.333 116.5 31s59.667 49.167 78 85.5s27.5 76.833 27.5 121.5c0 45.333 -9.16699 86.166 -27.5 122.499zM333.001 719l-85 -113h-39l97 144h54l99 -144h-40z" />
    <glyph glyph-name="otilde" unicode="&#xf5;" horiz-adv-x="666" 
d="M88 420.5c23.333 43.667 56.167 78.167 98.5 103.5s91.166 38 146.499 38s104.166 -12.667 146.499 -38s75 -59.833 98 -103.5s34.5 -92.167 34.5 -145.5s-11.667 -101.833 -35 -145.5s-56 -78.167 -98 -103.5s-90.667 -38 -146 -38s-104.166 12.667 -146.499 38
s-75.166 59.833 -98.499 103.5s-35 92.167 -35 145.5s11.667 101.833 35 145.5zM527.501 397.5c-18.333 36.333 -44.333 64.666 -78 84.999s-72.5 30.5 -116.5 30.5c-44.667 0 -83.667 -10.167 -117 -30.5s-59.166 -48.666 -77.499 -84.999s-27.5 -77.166 -27.5 -122.499
c0 -44.667 9.16699 -85.167 27.5 -121.5s44.166 -64.833 77.499 -85.5s72.333 -31 117 -31c44 0 82.833 10.333 116.5 31s59.667 49.167 78 85.5s27.5 76.833 27.5 121.5c0 45.333 -9.16699 86.166 -27.5 122.499zM295.501 695.5c-7 7.66699 -15.832 11.499 -26.499 11.499
c-16 0 -29 -8 -39 -24s-15 -40.333 -15 -73h-35c0 38.667 8.16699 70.667 24.5 96s39.166 38 68.499 38c18 0 32.167 -4.83301 42.5 -14.5s21.166 -24.167 32.499 -43.5c9.33301 -15.333 17.333 -26.5 24 -33.5s15.334 -10.5 26.001 -10.5c16 0 28.833 8 38.5 24
s14.5 40 14.5 72h36c0 -39.333 -8 -71.5 -24 -96.5s-38.667 -37.5 -68 -37.5c-18.667 0 -33 4.83301 -43 14.5s-21 24.167 -33 43.5c-8.66699 14.667 -16.5 25.834 -23.5 33.501z" />
    <glyph glyph-name="odieresis" unicode="&#xf6;" horiz-adv-x="666" 
d="M88 420.5c23.333 43.667 56.167 78.167 98.5 103.5s91.166 38 146.499 38s104.166 -12.667 146.499 -38s75 -59.833 98 -103.5s34.5 -92.167 34.5 -145.5s-11.667 -101.833 -35 -145.5s-56 -78.167 -98 -103.5s-90.667 -38 -146 -38s-104.166 12.667 -146.499 38
s-75.166 59.833 -98.499 103.5s-35 92.167 -35 145.5s11.667 101.833 35 145.5zM527.501 397.5c-18.333 36.333 -44.333 64.666 -78 84.999s-72.5 30.5 -116.5 30.5c-44.667 0 -83.667 -10.167 -117 -30.5s-59.166 -48.666 -77.499 -84.999s-27.5 -77.166 -27.5 -122.499
c0 -44.667 9.16699 -85.167 27.5 -121.5s44.166 -64.833 77.499 -85.5s72.333 -31 117 -31c44 0 82.833 10.333 116.5 31s59.667 49.167 78 85.5s27.5 76.833 27.5 121.5c0 45.333 -9.16699 86.166 -27.5 122.499zM205.001 629c-7.33301 7.33301 -11 16.333 -11 27
c0 10 3.66699 18.667 11 26s16 11 26 11s18.667 -3.66699 26 -11s11 -16 11 -26c0 -10.667 -3.66699 -19.667 -11 -27s-16 -11 -26 -11s-18.667 3.66699 -26 11zM409.001 629c-7.33301 7.33301 -11 16.333 -11 27c0 10 3.66699 18.667 11 26s16 11 26 11
s18.833 -3.66699 26.5 -11s11.5 -16 11.5 -26c0 -10.667 -3.83301 -19.667 -11.5 -27s-16.5 -11 -26.5 -11s-18.667 3.66699 -26 11z" />
    <glyph glyph-name="divide" unicode="&#xf7;" horiz-adv-x="511" 
d="M228 503c-8 8 -12 17.333 -12 28s3.83301 19.834 11.5 27.501s17.167 11.5 28.5 11.5c10.667 0 19.834 -3.83301 27.501 -11.5s11.5 -16.834 11.5 -27.501s-3.83301 -20 -11.5 -28s-16.834 -12 -27.501 -12s-20 4 -28 12zM29 358h453v-42h-453v42zM228 110.5
c-8 7.66699 -12 16.834 -12 27.501c0 11.333 4 20.833 12 28.5s17.333 11.5 28 11.5s19.834 -4 27.501 -12s11.5 -17.333 11.5 -28s-3.83301 -19.834 -11.5 -27.501s-16.834 -11.5 -27.501 -11.5s-20 3.83301 -28 11.5z" />
    <glyph glyph-name="oslash" unicode="&#xf8;" horiz-adv-x="666" 
d="M587 401c16.667 -38.667 25.001 -80.667 25.001 -126c0 -53.333 -11.667 -101.833 -35 -145.5s-56 -78.167 -98 -103.5s-90.667 -38 -146 -38c-57.333 0 -108.333 14 -153 42l-21 -30h-51l39 54c-30 26.667 -53.167 59 -69.5 97s-24.5 79.333 -24.5 124
c0 53.333 11.667 101.833 35 145.5s56.166 78.167 98.499 103.5s91.166 38 146.499 38c57.333 0 107 -13.333 149 -40l20 28h51l-37 -52c30.667 -26 54.334 -58.333 71.001 -97zM128.501 175.5c11.667 -30.333 28.167 -56.1689 49.5 -77.502l274 382
c-34.667 22 -74.334 33 -119.001 33s-83.667 -10.167 -117 -30.5s-59.166 -48.666 -77.499 -84.999s-27.5 -77.166 -27.5 -122.499c0 -36 5.83301 -69.167 17.5 -99.5zM449.501 67.9971c33.667 20.667 59.667 49.166 78 85.499s27.5 76.833 27.5 121.5
c0 36.667 -6.16699 70.334 -18.5 101.001s-29.5 57 -51.5 79l-275 -383c36 -23.333 77 -35 123 -35c44 0 82.833 10.333 116.5 31z" />
    <glyph glyph-name="ugrave" unicode="&#xf9;" horiz-adv-x="613" 
d="M81 550l54.998 -0.000976562v-338c0 -55.333 14.667 -98.333 44 -129s71.333 -46 126 -46s96.834 15.5 126.501 46.5s44.5 73.833 44.5 128.5v338h55v-340c0 -69.333 -19.333 -123.666 -58 -162.999s-94.667 -59 -168 -59s-129.166 19.667 -167.499 59
s-57.5 93.333 -57.5 162v341zM111.998 749.999h62l154 -144h-44z" />
    <glyph glyph-name="uacute" unicode="&#xfa;" horiz-adv-x="613" 
d="M81 550l54.998 -0.000976562v-338c0 -55.333 14.667 -98.333 44 -129s71.333 -46 126 -46s96.834 15.5 126.501 46.5s44.5 73.833 44.5 128.5v338h55v-340c0 -69.333 -19.333 -123.666 -58 -162.999s-94.667 -59 -168 -59s-129.166 19.667 -167.499 59
s-57.5 93.333 -57.5 162v341zM281.998 605.999l154 144h62l-172 -144h-44z" />
    <glyph glyph-name="ucircumflex" unicode="&#xfb;" horiz-adv-x="613" 
d="M81 550l54.998 -0.000976562v-338c0 -55.333 14.667 -98.333 44 -129s71.333 -46 126 -46s96.834 15.5 126.501 46.5s44.5 73.833 44.5 128.5v338h55v-340c0 -69.333 -19.333 -123.666 -58 -162.999s-94.667 -59 -168 -59s-129.166 19.667 -167.499 59
s-57.5 93.333 -57.5 162v341zM305.998 718.999l-85 -113h-39l97 144h54l99 -144h-40z" />
    <glyph glyph-name="udieresis" unicode="&#xfc;" horiz-adv-x="613" 
d="M81 550l54.998 -0.000976562v-338c0 -55.333 14.667 -98.333 44 -129s71.333 -46 126 -46s96.834 15.5 126.501 46.5s44.5 73.833 44.5 128.5v338h55v-340c0 -69.333 -19.333 -123.666 -58 -162.999s-94.667 -59 -168 -59s-129.166 19.667 -167.499 59
s-57.5 93.333 -57.5 162v341zM177.998 628.999c-7.33301 7.33301 -11 16.333 -11 27c0 10 3.66699 18.667 11 26s16 11 26 11s18.667 -3.66699 26 -11s11 -16 11 -26c0 -10.667 -3.66699 -19.667 -11 -27s-16 -11 -26 -11s-18.667 3.66699 -26 11zM381.998 628.999
c-7.33301 7.33301 -11 16.333 -11 27c0 10 3.66699 18.667 11 26s16 11 26 11s18.833 -3.66699 26.5 -11s11.5 -16 11.5 -26c0 -10.667 -3.83301 -19.667 -11.5 -27s-16.5 -11 -26.5 -11s-18.667 3.66699 -26 11z" />
    <glyph glyph-name="yacute" unicode="&#xfd;" horiz-adv-x="539" 
d="M244 235l-232 315h66l194 -266l190 266h65l-228 -315v-235h-55v235zM245 606l154 144h62l-172 -144h-44z" />
    <glyph glyph-name="thorn" unicode="&#xfe;" horiz-adv-x="509" 
d="M81 550h55v-97h163c56 0 99.167 -15.667 129.5 -47s45.5 -70 45.5 -116c0 -46.667 -15.167 -85.5 -45.5 -116.5s-73.5 -46.5 -129.5 -46.5h-163v-127h-55v550zM385.5 372.5c-21 21 -51.167 31.5 -90.5 31.5h-159v-228h159c39.333 0 69.5 10.5 90.5 31.5
s31.5 48.5 31.5 82.5s-10.5 61.5 -31.5 82.5z" />
    <glyph glyph-name="ydieresis" unicode="&#xff;" horiz-adv-x="539" 
d="M244 235l-232 315h66l194 -266l190 266h65l-228 -315v-235h-55v235zM141 629c-7.33301 7.33301 -11 16.333 -11 27c0 10 3.66699 18.667 11 26s16 11 26 11s18.667 -3.66699 26 -11s11 -16 11 -26c0 -10.667 -3.66699 -19.667 -11 -27s-16 -11 -26 -11
s-18.667 3.66699 -26 11zM345 629c-7.33301 7.33301 -11 16.333 -11 27c0 10 3.66699 18.667 11 26s16 11 26 11s18.833 -3.66699 26.5 -11s11.5 -16 11.5 -26c0 -10.667 -3.83301 -19.667 -11.5 -27s-16.5 -11 -26.5 -11s-18.667 3.66699 -26 11z" />
    <glyph glyph-name="Amacron" unicode="&#x100;" horiz-adv-x="647" 
d="M501 164h-355l-67 -164h-64l273 667h71l273 -667h-64zM164 216h319l-160 395zM175 781h295v-37h-295v37z" />
    <glyph glyph-name="amacron" unicode="&#x101;" horiz-adv-x="562" 
d="M550 0h-62l-58 133h-299l-56 -133h-63l237 550h64zM149 182h263l-131 311zM133 664h295v-37h-295v37z" />
    <glyph glyph-name="Abreve" unicode="&#x102;" horiz-adv-x="647" 
d="M501 164h-355l-67 -164h-64l273 667h71l273 -667h-64zM164 216h319l-160 395zM224 737.5c-30.667 15.667 -56.333 37.167 -77 64.5l29 25c16.667 -23.333 37.667 -41.666 63 -54.999s53.333 -20 84 -20c30 0 57.667 6.66699 83 20s46.666 31.666 63.999 54.999l28 -25
c-20.667 -27.333 -46.167 -48.833 -76.5 -64.5s-63.166 -23.5 -98.499 -23.5s-68.333 7.83301 -99 23.5z" />
    <glyph glyph-name="abreve" unicode="&#x103;" horiz-adv-x="562" 
d="M550 0h-62l-58 133h-299l-56 -133h-63l237 550h64zM149 182h263l-131 311zM182 620.5c-30.667 15.667 -56.333 37.167 -77 64.5l29 25c16.667 -23.333 37.667 -41.666 63 -54.999s53.333 -20 84 -20c30 0 57.667 6.66699 83 20s46.666 31.666 63.999 54.999l28 -25
c-20.667 -27.333 -46.167 -48.833 -76.5 -64.5s-63.166 -23.5 -98.499 -23.5s-68.333 7.83301 -99 23.5z" />
    <glyph glyph-name="Aogonek" unicode="&#x104;" horiz-adv-x="647" 
d="M526 -102c0 -13.333 4.16602 -24.001 12.499 -32.001s19.833 -12 34.5 -12c12.667 0 24.334 3.33301 35.001 10l16 -34c-6.66699 -4.66699 -15.167 -8.5 -25.5 -11.5s-21.5 -4.5 -33.5 -4.5c-25.333 0 -47 6.5 -65 19.5s-27 30.833 -27 53.5c0 21.333 9 41.833 27 61.5
s42 36.834 72 51.501h-4l-67 164h-355l-67 -164h-64l273 667h71l273 -667h-8c-65.333 -30.667 -98 -64.667 -98 -102zM482.999 215.999l-160 395l-159 -395h319z" />
    <glyph glyph-name="aogonek" unicode="&#x105;" horiz-adv-x="562" 
d="M446 -102c0 -13.333 4.16602 -24.001 12.499 -32.001s19.833 -12 34.5 -12c12.667 0 24.334 3.33301 35.001 10l16 -34c-6.66699 -4.66699 -15.167 -8.5 -25.5 -11.5s-21.5 -4.5 -33.5 -4.5c-25.333 0 -47 6.5 -65 19.5s-27 30.833 -27 53.5c0 21.333 9 41.833 27 61.5
s42 36.834 72 51.501h-4l-58 133h-299l-56 -133h-63l237 550h64l237 -550h-6c-65.333 -30.667 -98 -64.667 -98 -102zM411.999 181.999l-131 311l-132 -311h263z" />
    <glyph glyph-name="Cacute" unicode="&#x106;" horiz-adv-x="672" 
d="M224 31.5c-51.333 29 -91.833 69.833 -121.5 122.5s-44.5 112.334 -44.5 179.001s14.833 126.334 44.5 179.001s70.167 93.5 121.5 122.5s108 43.5 170 43.5c100 0 181.667 -39.333 245 -118l-48 -31c-21.333 29.333 -49.5 52.833 -84.5 70.5s-72.5 26.5 -112.5 26.5
c-51.333 0 -98 -12.333 -140 -37s-75.167 -59.334 -99.5 -104.001s-36.5 -95.334 -36.5 -152.001c0 -56 12.167 -106.333 36.5 -151s57.5 -79.5 99.5 -104.5s88.667 -37.5 140 -37.5c40 0 77.5 8.83301 112.5 26.5s63.167 41.167 84.5 70.5l48 -30
c-64 -79.333 -145.667 -119 -245 -119c-62 0 -118.667 14.5 -170 43.5zM370 723l154 144h62l-172 -144h-44z" />
    <glyph glyph-name="cacute" unicode="&#x107;" horiz-adv-x="581" 
d="M91.5 424c25.667 43.333 60.668 77.167 105.001 101.5s93.5 36.5 147.5 36.5c86.667 0 157 -34 211 -102l-43 -27c-18.667 24.667 -42.834 44.167 -72.501 58.5s-61.5 21.5 -95.5 21.5c-43.333 0 -82.833 -10.167 -118.5 -30.5s-63.667 -48.5 -84 -84.5
s-30.5 -76.667 -30.5 -122s10.333 -86.166 31 -122.499s48.667 -64.833 84 -85.5s74.666 -31 117.999 -31c34 0 66.333 7.16699 97 21.5s54.334 33.833 71.001 58.5l44 -27c-55.333 -68 -126 -102 -212 -102c-54 0 -103.167 12.167 -147.5 36.5s-79.333 58.5 -105 102.5
s-38.5 93.667 -38.5 149s12.833 104.666 38.5 147.999zM320.001 606.001l154 144h62l-172 -144h-44z" />
    <glyph glyph-name="Ccircumflex" unicode="&#x108;" horiz-adv-x="672" 
d="M224 31.5c-51.333 29 -91.833 69.833 -121.5 122.5s-44.5 112.334 -44.5 179.001s14.833 126.334 44.5 179.001s70.167 93.5 121.5 122.5s108 43.5 170 43.5c100 0 181.667 -39.333 245 -118l-48 -31c-21.333 29.333 -49.5 52.833 -84.5 70.5s-72.5 26.5 -112.5 26.5
c-51.333 0 -98 -12.333 -140 -37s-75.167 -59.334 -99.5 -104.001s-36.5 -95.334 -36.5 -152.001c0 -56 12.167 -106.333 36.5 -151s57.5 -79.5 99.5 -104.5s88.667 -37.5 140 -37.5c40 0 77.5 8.83301 112.5 26.5s63.167 41.167 84.5 70.5l48 -30
c-64 -79.333 -145.667 -119 -245 -119c-62 0 -118.667 14.5 -170 43.5zM394 836l-85 -113h-39l97 144h54l99 -144h-40z" />
    <glyph glyph-name="ccircumflex" unicode="&#x109;" horiz-adv-x="581" 
d="M91.5 424c25.667 43.333 60.668 77.167 105.001 101.5s93.5 36.5 147.5 36.5c86.667 0 157 -34 211 -102l-43 -27c-18.667 24.667 -42.834 44.167 -72.501 58.5s-61.5 21.5 -95.5 21.5c-43.333 0 -82.833 -10.167 -118.5 -30.5s-63.667 -48.5 -84 -84.5
s-30.5 -76.667 -30.5 -122s10.333 -86.166 31 -122.499s48.667 -64.833 84 -85.5s74.666 -31 117.999 -31c34 0 66.333 7.16699 97 21.5s54.334 33.833 71.001 58.5l44 -27c-55.333 -68 -126 -102 -212 -102c-54 0 -103.167 12.167 -147.5 36.5s-79.333 58.5 -105 102.5
s-38.5 93.667 -38.5 149s12.833 104.666 38.5 147.999zM344.001 719.001l-85 -113h-39l97 144h54l99 -144h-40z" />
    <glyph glyph-name="Cdotaccent" unicode="&#x10a;" horiz-adv-x="672" 
d="M224 31.5c-51.333 29 -91.833 69.833 -121.5 122.5s-44.5 112.334 -44.5 179.001s14.833 126.334 44.5 179.001s70.167 93.5 121.5 122.5s108 43.5 170 43.5c100 0 181.667 -39.333 245 -118l-48 -31c-21.333 29.333 -49.5 52.833 -84.5 70.5s-72.5 26.5 -112.5 26.5
c-51.333 0 -98 -12.333 -140 -37s-75.167 -59.334 -99.5 -104.001s-36.5 -95.334 -36.5 -152.001c0 -56 12.167 -106.333 36.5 -151s57.5 -79.5 99.5 -104.5s88.667 -37.5 140 -37.5c40 0 77.5 8.83301 112.5 26.5s63.167 41.167 84.5 70.5l48 -30
c-64 -79.333 -145.667 -119 -245 -119c-62 0 -118.667 14.5 -170 43.5zM367 797c7.33301 7.33301 16.333 11 27 11c10 0 18.667 -3.66699 26 -11s11 -16.333 11 -27s-3.66699 -19.667 -11 -27s-16 -11 -26 -11c-10.667 0 -19.667 3.66699 -27 11s-11 16.333 -11 27
s3.66699 19.667 11 27z" />
    <glyph glyph-name="cdotaccent" unicode="&#x10b;" horiz-adv-x="581" 
d="M91.5 424c25.667 43.333 60.668 77.167 105.001 101.5s93.5 36.5 147.5 36.5c86.667 0 157 -34 211 -102l-43 -27c-18.667 24.667 -42.834 44.167 -72.501 58.5s-61.5 21.5 -95.5 21.5c-43.333 0 -82.833 -10.167 -118.5 -30.5s-63.667 -48.5 -84 -84.5
s-30.5 -76.667 -30.5 -122s10.333 -86.166 31 -122.499s48.667 -64.833 84 -85.5s74.666 -31 117.999 -31c34 0 66.333 7.16699 97 21.5s54.334 33.833 71.001 58.5l44 -27c-55.333 -68 -126 -102 -212 -102c-54 0 -103.167 12.167 -147.5 36.5s-79.333 58.5 -105 102.5
s-38.5 93.667 -38.5 149s12.833 104.666 38.5 147.999zM317.001 680.001c7.33301 7.33301 16.333 11 27 11c10 0 18.667 -3.66699 26 -11s11 -16.333 11 -27s-3.66699 -19.667 -11 -27s-16 -11 -26 -11c-10.667 0 -19.667 3.66699 -27 11s-11 16.333 -11 27
s3.66699 19.667 11 27z" />
    <glyph glyph-name="Ccaron" unicode="&#x10c;" horiz-adv-x="672" 
d="M224 31.5c-51.333 29 -91.833 69.833 -121.5 122.5s-44.5 112.334 -44.5 179.001s14.833 126.334 44.5 179.001s70.167 93.5 121.5 122.5s108 43.5 170 43.5c100 0 181.667 -39.333 245 -118l-48 -31c-21.333 29.333 -49.5 52.833 -84.5 70.5s-72.5 26.5 -112.5 26.5
c-51.333 0 -98 -12.333 -140 -37s-75.167 -59.334 -99.5 -104.001s-36.5 -95.334 -36.5 -152.001c0 -56 12.167 -106.333 36.5 -151s57.5 -79.5 99.5 -104.5s88.667 -37.5 140 -37.5c40 0 77.5 8.83301 112.5 26.5s63.167 41.167 84.5 70.5l48 -30
c-64 -79.333 -145.667 -119 -245 -119c-62 0 -118.667 14.5 -170 43.5zM267 867h39l88 -113l83 113h40l-96 -144h-54z" />
    <glyph glyph-name="ccaron" unicode="&#x10d;" horiz-adv-x="581" 
d="M91.5 424c25.667 43.333 60.668 77.167 105.001 101.5s93.5 36.5 147.5 36.5c86.667 0 157 -34 211 -102l-43 -27c-18.667 24.667 -42.834 44.167 -72.501 58.5s-61.5 21.5 -95.5 21.5c-43.333 0 -82.833 -10.167 -118.5 -30.5s-63.667 -48.5 -84 -84.5
s-30.5 -76.667 -30.5 -122s10.333 -86.166 31 -122.499s48.667 -64.833 84 -85.5s74.666 -31 117.999 -31c34 0 66.333 7.16699 97 21.5s54.334 33.833 71.001 58.5l44 -27c-55.333 -68 -126 -102 -212 -102c-54 0 -103.167 12.167 -147.5 36.5s-79.333 58.5 -105 102.5
s-38.5 93.667 -38.5 149s12.833 104.666 38.5 147.999zM217.001 750.001h39l88 -113l83 113h40l-96 -144h-54z" />
    <glyph glyph-name="Dcaron" unicode="&#x10e;" horiz-adv-x="692" 
d="M83 667h213c67.333 0 126.5 -14.833 177.5 -44.5s90.333 -70 118 -121s41.5 -107.167 41.5 -168.5c0 -62 -13.833 -118.333 -41.5 -169s-67 -90.667 -118 -120s-110.167 -44 -177.5 -44h-213v667zM296 52c57.333 0 106.833 12.3301 148.5 36.9971
s73.5 58.334 95.5 101.001s33 90.334 33 143.001s-11 100.334 -33 143.001s-53.833 76.5 -95.5 101.5s-91.167 37.5 -148.5 37.5h-156v-563h156zM222 866.997h39l88 -113l83 113h40l-96 -144h-54z" />
    <glyph glyph-name="dcaron" unicode="&#x10f;" horiz-adv-x="611" 
d="M81 550l185 0.000976562c58.667 0 110 -12.333 154 -37s77.833 -58 101.5 -100s35.5 -88.333 35.5 -139s-11.833 -96.834 -35.5 -138.501s-57.5 -74.667 -101.5 -99s-95.333 -36.5 -154 -36.5h-185v550zM472 389.501c-18 34.333 -44.666 61.5 -79.999 81.5
s-77.333 30 -126 30h-130v-452h130c48 0 89.667 9.83301 125 29.5s62.166 46.667 80.499 81s27.5 72.5 27.5 114.5c0 42.667 -9 81.167 -27 115.5zM188.001 750.001h39l88 -113l83 113h40l-96 -144h-54z" />
    <glyph glyph-name="Dcroat" unicode="&#x110;" horiz-adv-x="721" 
d="M503 622.5c51.333 -29.667 90.833 -70 118.5 -121s41.5 -107.167 41.5 -168.5c0 -62 -13.833 -118.333 -41.5 -169s-67.167 -90.667 -118.5 -120s-110.666 -44 -177.999 -44h-213v307h-101v47h101v313h213c67.333 0 126.666 -14.833 177.999 -44.5zM473.5 89
c41.667 24.667 73.5 58.3311 95.5 100.998s33 90.334 33 143.001s-11 100.334 -33 143.001s-53.833 76.5 -95.5 101.5s-91.167 37.5 -148.5 37.5h-155v-261h179v-47h-179v-255h155c57.333 0 106.833 12.333 148.5 37z" />
    <glyph glyph-name="dcroat" unicode="&#x111;" horiz-adv-x="622" 
d="M431 513c44 -24.667 77.833 -57.999 101.5 -99.999s35.5 -88.333 35.5 -139s-11.833 -96.834 -35.5 -138.501s-57.5 -74.667 -101.5 -99s-95.333 -36.5 -154 -36.5h-185v259h-67v41h67v250h185c58.667 0 110 -12.333 154 -37zM402 78.501
c35.333 19.667 62.167 46.667 80.5 81s27.5 72.5 27.5 114.5c0 42.667 -9 81.167 -27 115.5s-44.667 61.5 -80 81.5s-77.333 30 -126 30h-130v-201h142v-41h-142v-210h130c48 0 89.667 9.83301 125 29.5z" />
    <glyph glyph-name="Emacron" unicode="&#x112;" horiz-adv-x="564" 
d="M83 667h423v-52h-366v-247h359v-52h-359v-264h366v-52h-423v667zM151 781h295v-37h-295v37z" />
    <glyph glyph-name="emacron" unicode="&#x113;" horiz-adv-x="505" 
d="M81 550h368v-49h-313v-194h307v-49h-307v-209h313v-49h-368v550zM121 664h295v-37h-295v37z" />
    <glyph glyph-name="Ebreve" unicode="&#x114;" horiz-adv-x="564" 
d="M83 667h423v-52h-366v-247h359v-52h-359v-264h366v-52h-423v667zM200 737.5c-30.667 15.667 -56.333 37.167 -77 64.5l29 25c16.667 -23.333 37.667 -41.666 63 -54.999s53.333 -20 84 -20c30 0 57.667 6.66699 83 20s46.666 31.666 63.999 54.999l28 -25
c-20.667 -27.333 -46.167 -48.833 -76.5 -64.5s-63.166 -23.5 -98.499 -23.5s-68.333 7.83301 -99 23.5z" />
    <glyph glyph-name="ebreve" unicode="&#x115;" horiz-adv-x="505" 
d="M81 550h368v-49h-313v-194h307v-49h-307v-209h313v-49h-368v550zM170 620.5c-30.667 15.667 -56.333 37.167 -77 64.5l29 25c16.667 -23.333 37.667 -41.666 63 -54.999s53.333 -20 84 -20c30 0 57.667 6.66699 83 20s46.666 31.666 63.999 54.999l28 -25
c-20.667 -27.333 -46.167 -48.833 -76.5 -64.5s-63.166 -23.5 -98.499 -23.5s-68.333 7.83301 -99 23.5z" />
    <glyph glyph-name="Edotaccent" unicode="&#x116;" horiz-adv-x="564" 
d="M83 667h423v-52h-366v-247h359v-52h-359v-264h366v-52h-423v667zM272 797c7.33301 7.33301 16.333 11 27 11c10 0 18.667 -3.66699 26 -11s11 -16.333 11 -27s-3.66699 -19.667 -11 -27s-16 -11 -26 -11c-10.667 0 -19.667 3.66699 -27 11s-11 16.333 -11 27
s3.66699 19.667 11 27z" />
    <glyph glyph-name="edotaccent" unicode="&#x117;" horiz-adv-x="505" 
d="M81 550h368v-49h-313v-194h307v-49h-307v-209h313v-49h-368v550zM242 680c7.33301 7.33301 16.333 11 27 11c10 0 18.667 -3.66699 26 -11s11 -16.333 11 -27s-3.66699 -19.667 -11 -27s-16 -11 -26 -11c-10.667 0 -19.667 3.66699 -27 11s-11 16.333 -11 27
s3.66699 19.667 11 27z" />
    <glyph glyph-name="Eogonek" unicode="&#x118;" horiz-adv-x="564" 
d="M140 615l-0.000976562 -247.001h359v-52h-359v-264h366v-52c-65.333 -30.667 -98 -64.667 -98 -102c0 -13.333 4.16699 -24 12.5 -32s19.833 -12 34.5 -12c12.667 0 24.334 3.33301 35.001 10l16 -34c-6.66699 -4.66699 -15.167 -8.5 -25.5 -11.5s-21.5 -4.5 -33.5 -4.5
c-25.333 0 -47 6.5 -65 19.5s-27 30.833 -27 53.5c0 21.333 9 41.833 27 61.5s42 36.834 72 51.501h-371v667h423v-52h-366z" />
    <glyph glyph-name="eogonek" unicode="&#x119;" horiz-adv-x="505" 
d="M136 501l-0.000976562 -194.001h307v-49h-307v-209h313v-49c-65.333 -30.667 -98 -64.667 -98 -102c0 -13.333 4.16699 -24 12.5 -32s19.833 -12 34.5 -12c12.667 0 24.334 3.33301 35.001 10l16 -34c-6.66699 -4.66699 -15.167 -8.5 -25.5 -11.5s-21.5 -4.5 -33.5 -4.5
c-25.333 0 -47 6.5 -65 19.5s-27 30.833 -27 53.5c0 21.333 9 41.833 27 61.5s42 36.834 72 51.501h-316v550h368v-49h-313z" />
    <glyph glyph-name="Ecaron" unicode="&#x11a;" horiz-adv-x="564" 
d="M83 667h423v-52h-366v-247h359v-52h-359v-264h366v-52h-423v667zM172 867h39l88 -113l83 113h40l-96 -144h-54z" />
    <glyph glyph-name="ecaron" unicode="&#x11b;" horiz-adv-x="505" 
d="M81 550h368v-49h-313v-194h307v-49h-307v-209h313v-49h-368v550zM142 750h39l88 -113l83 113h40l-96 -144h-54z" />
    <glyph glyph-name="Gcircumflex" unicode="&#x11c;" horiz-adv-x="711" 
d="M103 512.5c30 52.333 70.835 93.0039 122.502 122.004s108.5 43.5 170.5 43.5c101.333 0 185 -38 251 -114l-43 -31c-24 28.667 -54.167 51.334 -90.5 68.001s-75.5 25 -117.5 25c-52 0 -99.167 -12.333 -141.5 -37s-75.666 -59.334 -99.999 -104.001
s-36.5 -95.334 -36.5 -152.001c0 -56 12.167 -106.5 36.5 -151.5s57.666 -80 99.999 -105s89.5 -37.5 141.5 -37.5c40.667 0 78 8 112 24s62 35 84 57v160h-252v51h309v-233c-30.667 -34 -67.834 -61 -111.501 -81s-90.834 -30 -141.501 -30
c-62 0 -118.833 14.667 -170.5 44s-92.5 70.166 -122.5 122.499s-45 112.166 -45 179.499s15 127.166 45 179.499zM395.002 836.004l-85 -113h-39l97 144h54l99 -144h-40z" />
    <glyph glyph-name="gcircumflex" unicode="&#x11d;" horiz-adv-x="630" 
d="M91.5 423.5c25.667 43.667 60.834 77.667 105.501 102s94 36.5 148 36.5c86 0 158 -31.333 216 -94l-40 -32c-21.333 23.333 -47.5 42 -78.5 56s-63.5 21 -97.5 21c-44 0 -83.667 -10.167 -119 -30.5s-63.333 -48.5 -84 -84.5s-31 -77 -31 -123
c0 -45.333 10.333 -86.166 31 -122.499s48.834 -64.833 84.501 -85.5s75.167 -31 118.5 -31c33.333 0 64.166 6.5 92.499 19.5s51.833 28.167 70.5 45.5v128h-186v48h241v-196c-26.667 -28.667 -59 -51.334 -97 -68.001s-78.333 -25 -121 -25
c-54 0 -103.333 12.167 -148 36.5s-79.834 58.333 -105.501 102s-38.5 93.167 -38.5 148.5s12.833 104.833 38.5 148.5zM345 719l-85 -113h-39l97 144h54l99 -144h-40z" />
    <glyph glyph-name="Gbreve" unicode="&#x11e;" horiz-adv-x="711" 
d="M103 512.5c30 52.333 70.835 93.0039 122.502 122.004s108.5 43.5 170.5 43.5c101.333 0 185 -38 251 -114l-43 -31c-24 28.667 -54.167 51.334 -90.5 68.001s-75.5 25 -117.5 25c-52 0 -99.167 -12.333 -141.5 -37s-75.666 -59.334 -99.999 -104.001
s-36.5 -95.334 -36.5 -152.001c0 -56 12.167 -106.5 36.5 -151.5s57.666 -80 99.999 -105s89.5 -37.5 141.5 -37.5c40.667 0 78 8 112 24s62 35 84 57v160h-252v51h309v-233c-30.667 -34 -67.834 -61 -111.501 -81s-90.834 -30 -141.501 -30
c-62 0 -118.833 14.667 -170.5 44s-92.5 70.166 -122.5 122.499s-45 112.166 -45 179.499s15 127.166 45 179.499zM296.002 737.504c-30.667 15.667 -56.333 37.167 -77 64.5l29 25c16.667 -23.333 37.667 -41.666 63 -54.999s53.333 -20 84 -20c30 0 57.667 6.66699 83 20
s46.666 31.666 63.999 54.999l28 -25c-20.667 -27.333 -46.167 -48.833 -76.5 -64.5s-63.166 -23.5 -98.499 -23.5s-68.333 7.83301 -99 23.5z" />
    <glyph glyph-name="gbreve" unicode="&#x11f;" horiz-adv-x="630" 
d="M91.5 423.5c25.667 43.667 60.834 77.667 105.501 102s94 36.5 148 36.5c86 0 158 -31.333 216 -94l-40 -32c-21.333 23.333 -47.5 42 -78.5 56s-63.5 21 -97.5 21c-44 0 -83.667 -10.167 -119 -30.5s-63.333 -48.5 -84 -84.5s-31 -77 -31 -123
c0 -45.333 10.333 -86.166 31 -122.499s48.834 -64.833 84.501 -85.5s75.167 -31 118.5 -31c33.333 0 64.166 6.5 92.499 19.5s51.833 28.167 70.5 45.5v128h-186v48h241v-196c-26.667 -28.667 -59 -51.334 -97 -68.001s-78.333 -25 -121 -25
c-54 0 -103.333 12.167 -148 36.5s-79.834 58.333 -105.501 102s-38.5 93.167 -38.5 148.5s12.833 104.833 38.5 148.5zM246 620.5c-30.667 15.667 -56.333 37.167 -77 64.5l29 25c16.667 -23.333 37.667 -41.666 63 -54.999s53.333 -20 84 -20c30 0 57.667 6.66699 83 20
s46.666 31.666 63.999 54.999l28 -25c-20.667 -27.333 -46.167 -48.833 -76.5 -64.5s-63.166 -23.5 -98.499 -23.5s-68.333 7.83301 -99 23.5z" />
    <glyph glyph-name="Gdotaccent" unicode="&#x120;" horiz-adv-x="711" 
d="M103 512.5c30 52.333 70.835 93.0039 122.502 122.004s108.5 43.5 170.5 43.5c101.333 0 185 -38 251 -114l-43 -31c-24 28.667 -54.167 51.334 -90.5 68.001s-75.5 25 -117.5 25c-52 0 -99.167 -12.333 -141.5 -37s-75.666 -59.334 -99.999 -104.001
s-36.5 -95.334 -36.5 -152.001c0 -56 12.167 -106.5 36.5 -151.5s57.666 -80 99.999 -105s89.5 -37.5 141.5 -37.5c40.667 0 78 8 112 24s62 35 84 57v160h-252v51h309v-233c-30.667 -34 -67.834 -61 -111.501 -81s-90.834 -30 -141.501 -30
c-62 0 -118.833 14.667 -170.5 44s-92.5 70.166 -122.5 122.499s-45 112.166 -45 179.499s15 127.166 45 179.499zM368.002 797.004c7.33301 7.33301 16.333 11 27 11c10 0 18.667 -3.66699 26 -11s11 -16.333 11 -27s-3.66699 -19.667 -11 -27s-16 -11 -26 -11
c-10.667 0 -19.667 3.66699 -27 11s-11 16.333 -11 27s3.66699 19.667 11 27z" />
    <glyph glyph-name="gdotaccent" unicode="&#x121;" horiz-adv-x="630" 
d="M91.5 423.5c25.667 43.667 60.834 77.667 105.501 102s94 36.5 148 36.5c86 0 158 -31.333 216 -94l-40 -32c-21.333 23.333 -47.5 42 -78.5 56s-63.5 21 -97.5 21c-44 0 -83.667 -10.167 -119 -30.5s-63.333 -48.5 -84 -84.5s-31 -77 -31 -123
c0 -45.333 10.333 -86.166 31 -122.499s48.834 -64.833 84.501 -85.5s75.167 -31 118.5 -31c33.333 0 64.166 6.5 92.499 19.5s51.833 28.167 70.5 45.5v128h-186v48h241v-196c-26.667 -28.667 -59 -51.334 -97 -68.001s-78.333 -25 -121 -25
c-54 0 -103.333 12.167 -148 36.5s-79.834 58.333 -105.501 102s-38.5 93.167 -38.5 148.5s12.833 104.833 38.5 148.5zM318 680c7.33301 7.33301 16.333 11 27 11c10 0 18.667 -3.66699 26 -11s11 -16.333 11 -27s-3.66699 -19.667 -11 -27s-16 -11 -26 -11
c-10.667 0 -19.667 3.66699 -27 11s-11 16.333 -11 27s3.66699 19.667 11 27z" />
    <glyph glyph-name="uni0122" unicode="&#x122;" horiz-adv-x="711" 
d="M103 512.5c30 52.333 70.835 93.0039 122.502 122.004s108.5 43.5 170.5 43.5c101.333 0 185 -38 251 -114l-43 -31c-24 28.667 -54.167 51.334 -90.5 68.001s-75.5 25 -117.5 25c-52 0 -99.167 -12.333 -141.5 -37s-75.666 -59.334 -99.999 -104.001
s-36.5 -95.334 -36.5 -152.001c0 -56 12.167 -106.5 36.5 -151.5s57.666 -80 99.999 -105s89.5 -37.5 141.5 -37.5c40.667 0 78 8 112 24s62 35 84 57v160h-252v51h309v-233c-30.667 -34 -67.834 -61 -111.501 -81s-90.834 -30 -141.501 -30
c-62 0 -118.833 14.667 -170.5 44s-92.5 70.166 -122.5 122.499s-45 112.166 -45 179.499s15 127.166 45 179.499zM349.002 -242.996c15.333 11.333 28.168 25.3311 38.501 41.998s15.833 32.334 16.5 47.001l-10 -1c-10.667 0 -19.334 3.5 -26.001 10.5
s-10 16.167 -10 27.5c0 10.667 3.66699 19.834 11 27.501s16.333 11.5 27 11.5c13.333 0 24.5 -5.33301 33.5 -16s13.5 -25 13.5 -43c0 -25.333 -6.33301 -49.5 -19 -72.5s-28.667 -41.5 -48 -55.5z" />
    <glyph glyph-name="uni0123" unicode="&#x123;" horiz-adv-x="630" 
d="M91.5 423.5c25.667 43.667 60.834 77.667 105.501 102s94 36.5 148 36.5c86 0 158 -31.333 216 -94l-40 -32c-21.333 23.333 -47.5 42 -78.5 56s-63.5 21 -97.5 21c-44 0 -83.667 -10.167 -119 -30.5s-63.333 -48.5 -84 -84.5s-31 -77 -31 -123
c0 -45.333 10.333 -86.166 31 -122.499s48.834 -64.833 84.501 -85.5s75.167 -31 118.5 -31c33.333 0 64.166 6.5 92.499 19.5s51.833 28.167 70.5 45.5v128h-186v48h241v-196c-26.667 -28.667 -59 -51.334 -97 -68.001s-78.333 -25 -121 -25
c-54 0 -103.333 12.167 -148 36.5s-79.834 58.333 -105.501 102s-38.5 93.167 -38.5 148.5s12.833 104.833 38.5 148.5zM298 -243c15.333 11.333 28.168 25.3311 38.501 41.998s15.833 32.334 16.5 47.001l-10 -1c-10.667 0 -19.334 3.5 -26.001 10.5s-10 16.167 -10 27.5
c0 10.667 3.66699 19.834 11 27.501s16.333 11.5 27 11.5c13.333 0 24.5 -5.33301 33.5 -16s13.5 -25 13.5 -43c0 -25.333 -6.33301 -49.5 -19 -72.5s-28.667 -41.5 -48 -55.5z" />
    <glyph glyph-name="Hcircumflex" unicode="&#x124;" horiz-adv-x="703" 
d="M563 317h-423v-317h-57v667h57v-298h423v298h58v-667h-58v317zM352 836l-85 -113h-39l97 144h54l99 -144h-40z" />
    <glyph glyph-name="hcircumflex" unicode="&#x125;" horiz-adv-x="629" 
d="M494 259h-358v-259h-55v550h55v-243h358v243h54v-550h-54v259zM314 719l-85 -113h-39l97 144h54l99 -144h-40z" />
    <glyph glyph-name="Hbar" unicode="&#x126;" horiz-adv-x="724" 
d="M714 500h-82v-500h-58v317h-422v-317h-58v500h-83v37h83v130h58v-130h422v130h58v-130h82v-37zM574 500h-422v-131h422v131z" />
    <glyph glyph-name="hbar" unicode="&#x127;" horiz-adv-x="650" 
d="M639 411h-80v-411h-54v259h-358v-259h-55v411h-81v38h81v101h55v-101h358v101h54v-101h80v-38zM505 411h-358v-104h358v104z" />
    <glyph glyph-name="Itilde" unicode="&#x128;" horiz-adv-x="223" 
d="M83 667h57v-667h-57v667zM74.5 812.5c-7 7.66699 -15.832 11.499 -26.499 11.499c-16 0 -29 -8 -39 -24s-15 -40.333 -15 -73h-35c0 38.667 8.16699 70.667 24.5 96s39.166 38 68.499 38c18 0 32.167 -4.83301 42.5 -14.5s21.166 -24.167 32.499 -43.5
c9.33301 -15.333 17.333 -26.5 24 -33.5s15.334 -10.5 26.001 -10.5c16 0 28.833 8 38.5 24s14.5 40 14.5 72h36c0 -39.333 -8 -71.5 -24 -96.5s-38.667 -37.5 -68 -37.5c-18.667 0 -33 4.83301 -43 14.5s-21 24.167 -33 43.5c-8.66699 14.667 -16.5 25.834 -23.5 33.501z
" />
    <glyph glyph-name="itilde" unicode="&#x129;" horiz-adv-x="216" 
d="M81 550h55v-550h-55v550zM70.5 695.5c-7 7.66699 -15.832 11.499 -26.499 11.499c-16 0 -29 -8 -39 -24s-15 -40.333 -15 -73h-35c0 38.667 8.16699 70.667 24.5 96s39.166 38 68.499 38c18 0 32.167 -4.83301 42.5 -14.5s21.166 -24.167 32.499 -43.5
c9.33301 -15.333 17.333 -26.5 24 -33.5s15.334 -10.5 26.001 -10.5c16 0 28.833 8 38.5 24s14.5 40 14.5 72h36c0 -39.333 -8 -71.5 -24 -96.5s-38.667 -37.5 -68 -37.5c-18.667 0 -33 4.83301 -43 14.5s-21 24.167 -33 43.5c-8.66699 14.667 -16.5 25.834 -23.5 33.501z
" />
    <glyph glyph-name="Imacron" unicode="&#x12a;" horiz-adv-x="223" 
d="M83 667h57v-667h-57v667zM-36 781h295v-37h-295v37z" />
    <glyph glyph-name="imacron" unicode="&#x12b;" horiz-adv-x="216" 
d="M81 550h55v-550h-55v550zM-40 664h295v-37h-295v37z" />
    <glyph glyph-name="Ibreve" unicode="&#x12c;" horiz-adv-x="223" 
d="M83 667h57v-667h-57v667zM13 737.5c-30.667 15.667 -56.333 37.167 -77 64.5l29 25c16.667 -23.333 37.667 -41.666 63 -54.999s53.333 -20 84 -20c30 0 57.667 6.66699 83 20s46.666 31.666 63.999 54.999l28 -25c-20.667 -27.333 -46.167 -48.833 -76.5 -64.5
s-63.166 -23.5 -98.499 -23.5s-68.333 7.83301 -99 23.5z" />
    <glyph glyph-name="ibreve" unicode="&#x12d;" horiz-adv-x="216" 
d="M81 550h55v-550h-55v550zM9 620.5c-30.667 15.667 -56.333 37.167 -77 64.5l29 25c16.667 -23.333 37.667 -41.666 63 -54.999s53.333 -20 84 -20c30 0 57.667 6.66699 83 20s46.666 31.666 63.999 54.999l28 -25c-20.667 -27.333 -46.167 -48.833 -76.5 -64.5
s-63.166 -23.5 -98.499 -23.5s-68.333 7.83301 -99 23.5z" />
    <glyph glyph-name="Iogonek" unicode="&#x12e;" horiz-adv-x="223" 
d="M42 -102c0 -13.333 4.16602 -24.001 12.499 -32.001s19.833 -12 34.5 -12c12.667 0 24.334 3.33301 35.001 10l16 -34c-6.66699 -4.66699 -15.167 -8.5 -25.5 -11.5s-21.5 -4.5 -33.5 -4.5c-25.333 0 -47 6.5 -65 19.5s-27 30.833 -27 53.5c0 21.333 9 41.833 27 61.5
s42 36.834 72 51.501h-5v667h57v-667c-65.333 -30.667 -98 -64.667 -98 -102z" />
    <glyph glyph-name="iogonek" unicode="&#x12f;" horiz-adv-x="216" 
d="M38 -102c0 -13.333 4.16602 -24.001 12.499 -32.001s19.833 -12 34.5 -12c12.667 0 24.334 3.33301 35.001 10l16 -34c-6.66699 -4.66699 -15.167 -8.5 -25.5 -11.5s-21.5 -4.5 -33.5 -4.5c-25.333 0 -47 6.5 -65 19.5s-27 30.833 -27 53.5c0 21.333 9 41.833 27 61.5
s42 36.834 72 51.501h-3v550h55v-550c-65.333 -30.667 -98 -64.667 -98 -102z" />
    <glyph glyph-name="Idotaccent" unicode="&#x130;" horiz-adv-x="223" 
d="M83 667h57v-667h-57v667zM85 797c7.33301 7.33301 16.333 11 27 11c10 0 18.667 -3.66699 26 -11s11 -16.333 11 -27s-3.66699 -19.667 -11 -27s-16 -11 -26 -11c-10.667 0 -19.667 3.66699 -27 11s-11 16.333 -11 27s3.66699 19.667 11 27z" />
    <glyph glyph-name="dotlessi" unicode="&#x131;" horiz-adv-x="214" 
d="M81 483h52v-483h-52v483z" />
    <glyph glyph-name="IJ" unicode="&#x132;" horiz-adv-x="693" 
d="M83 667h57v-667h-57v667zM272 113c17.333 -22.667 36.5 -40.499 57.5 -53.499s46.167 -19.5 75.5 -19.5c44.667 0 80.334 14.167 107.001 42.5s40 65.166 40 110.499v474h58v-474c0 -66.667 -19 -117.5 -57 -152.5s-86.333 -52.5 -145 -52.5
c-36.667 0 -68.834 6.66699 -96.501 20s-52.5 34 -74.5 62z" />
    <glyph glyph-name="ij" unicode="&#x133;" horiz-adv-x="633" 
d="M81 550h55v-550h-55v550zM257 98c31.333 -40.667 69.3311 -61.001 113.998 -61.001c38.667 0 69.334 11.333 92.001 34s34 52.334 34 89.001v390h55v-392c0 -55.333 -16.667 -97.5 -50 -126.5s-76 -43.5 -128 -43.5c-61.333 0 -110.666 23.667 -147.999 71z" />
    <glyph glyph-name="Jcircumflex" unicode="&#x134;" horiz-adv-x="470" 
d="M49 113c17.333 -22.667 36.5 -40.499 57.5 -53.499s46.167 -19.5 75.5 -19.5c44.667 0 80.334 14.167 107.001 42.5s40 65.166 40 110.499v474h58v-474c0 -66.667 -19 -117.5 -57 -152.5s-86.333 -52.5 -145 -52.5c-36.667 0 -68.834 6.66699 -96.501 20
s-52.5 34 -74.5 62zM359 836.001l-85 -113h-39l97 144h54l99 -144h-40z" />
    <glyph glyph-name="jcircumflex" unicode="&#x135;" horiz-adv-x="417" 
d="M41 98c31.333 -40.667 69.3311 -61.001 113.998 -61.001c38.667 0 69.334 11.333 92.001 34s34 52.334 34 89.001v390h55v-392c0 -55.333 -16.667 -97.5 -50 -126.5s-76 -43.5 -128 -43.5c-61.333 0 -110.666 23.667 -147.999 71zM308.998 718.999l-85 -113h-39l97 144
h54l99 -144h-40z" />
    <glyph glyph-name="uni0136" unicode="&#x136;" horiz-adv-x="586" 
d="M214 314l-74 -81v-233h-57v667h57v-365l322 365h73l-284 -318l311 -349h-73zM260 -243c15.333 11.333 28.168 25.3311 38.501 41.998s15.833 32.334 16.5 47.001l-10 -1c-10.667 0 -19.334 3.5 -26.001 10.5s-10 16.167 -10 27.5c0 10.667 3.66699 19.834 11 27.501
s16.333 11.5 27 11.5c13.333 0 24.5 -5.33301 33.5 -16s13.5 -25 13.5 -43c0 -25.333 -6.33301 -49.5 -19 -72.5s-28.667 -41.5 -48 -55.5z" />
    <glyph glyph-name="uni0137" unicode="&#x137;" horiz-adv-x="521" 
d="M196 256l-60 -65v-191h-55v550h55v-294l272 294h70l-247 -262l270 -288h-70zM225 -243c15.333 11.333 28.168 25.3311 38.501 41.998s15.833 32.334 16.5 47.001l-10 -1c-10.667 0 -19.334 3.5 -26.001 10.5s-10 16.167 -10 27.5c0 10.667 3.66699 19.834 11 27.501
s16.333 11.5 27 11.5c13.333 0 24.5 -5.33301 33.5 -16s13.5 -25 13.5 -43c0 -25.333 -6.33301 -49.5 -19 -72.5s-28.667 -41.5 -48 -55.5z" />
    <glyph glyph-name="kgreenlandic" unicode="&#x138;" horiz-adv-x="505" 
d="M223 230l-90 -85v-145h-52v483h52v-276l285 276h69l-225 -218l224 -265h-70z" />
    <glyph glyph-name="Lacute" unicode="&#x139;" horiz-adv-x="504" 
d="M83 667h57v-615h323v-52h-380v667zM250 723l154 144h62l-172 -144h-44z" />
    <glyph glyph-name="lacute" unicode="&#x13a;" horiz-adv-x="454" 
d="M81 550h55v-501h277v-49h-332v550zM223 606l154 144h62l-172 -144h-44z" />
    <glyph glyph-name="uni013B" unicode="&#x13b;" horiz-adv-x="504" 
d="M83 667h57v-615h323v-52h-380v667zM227 -243c15.333 11.333 28.168 25.3311 38.501 41.998s15.833 32.334 16.5 47.001l-10 -1c-10.667 0 -19.334 3.5 -26.001 10.5s-10 16.167 -10 27.5c0 10.667 3.66699 19.834 11 27.501s16.333 11.5 27 11.5
c13.333 0 24.5 -5.33301 33.5 -16s13.5 -25 13.5 -43c0 -25.333 -6.33301 -49.5 -19 -72.5s-28.667 -41.5 -48 -55.5z" />
    <glyph glyph-name="uni013C" unicode="&#x13c;" horiz-adv-x="454" 
d="M81 550h55v-501h277v-49h-332v550zM200 -243c15.333 11.333 28.168 25.3311 38.501 41.998s15.833 32.334 16.5 47.001l-10 -1c-10.667 0 -19.334 3.5 -26.001 10.5s-10 16.167 -10 27.5c0 10.667 3.66699 19.834 11 27.501s16.333 11.5 27 11.5
c13.333 0 24.5 -5.33301 33.5 -16s13.5 -25 13.5 -43c0 -25.333 -6.33301 -49.5 -19 -72.5s-28.667 -41.5 -48 -55.5z" />
    <glyph glyph-name="Lcaron" unicode="&#x13d;" horiz-adv-x="504" 
d="M83 667h57v-615h323v-52h-380v667zM233 514c15.333 11.333 28.168 25.3311 38.501 41.998s15.833 32.334 16.5 47.001l-10 -1c-10.667 0 -19.334 3.5 -26.001 10.5s-10 16.167 -10 27.5c0 10.667 3.66699 19.834 11 27.501s16.333 11.5 27 11.5
c13.333 0 24.5 -5.33301 33.5 -16s13.5 -25 13.5 -43c0 -25.333 -6.33301 -49.5 -19 -72.5s-28.667 -41.5 -48 -55.5z" />
    <glyph glyph-name="lcaron" unicode="&#x13e;" horiz-adv-x="454" 
d="M81 550h55v-501h277v-49h-332v550zM215 394c15.333 11.333 28.168 25.3311 38.501 41.998s15.833 32.334 16.5 47.001l-10 -1c-10.667 0 -19.334 3.5 -26.001 10.5s-10 16.167 -10 27.5c0 10.667 3.66699 19.834 11 27.501s16.333 11.5 27 11.5
c13.333 0 24.5 -5.33301 33.5 -16s13.5 -25 13.5 -43c0 -25.333 -6.33301 -49.5 -19 -72.5s-28.667 -41.5 -48 -55.5z" />
    <glyph glyph-name="Ldot" unicode="&#x13f;" horiz-adv-x="504" 
d="M83 667h57v-615h323v-52h-380v667zM326 311c-8.66699 8.66699 -13 19 -13 31c0 11.333 4.33301 21.333 13 30s19 13 31 13s22.5 -4.33301 31.5 -13s13.5 -18.667 13.5 -30c0 -12 -4.5 -22.333 -13.5 -31s-19.5 -13 -31.5 -13s-22.333 4.33301 -31 13z" />
    <glyph glyph-name="ldot" unicode="&#x140;" horiz-adv-x="460" 
d="M81 550h55v-501h277v-49h-332v550zM311 259c-8.66699 8.66699 -13 19 -13 31c0 11.333 4.33301 21.333 13 30s19 13 31 13s22.5 -4.33301 31.5 -13s13.5 -18.667 13.5 -30c0 -12 -4.5 -22.333 -13.5 -31s-19.5 -13 -31.5 -13s-22.333 4.33301 -31 13z" />
    <glyph glyph-name="Lslash" unicode="&#x141;" horiz-adv-x="526" 
d="M485 52v-52h-380v288l-94 -55v53l94 55v326h57v-293l105 61v-53l-105 -61v-269h323z" />
    <glyph glyph-name="lslash" unicode="&#x142;" horiz-adv-x="482" 
d="M442 49v-49h-332v242l-99 -57v52l99 58v255h55v-223l100 58v-54l-100 -57v-225h277z" />
    <glyph glyph-name="Nacute" unicode="&#x143;" horiz-adv-x="699" 
d="M140 576v-576h-57v667h58l418 -568v568h57v-667h-56zM326 723l154 144h62l-172 -144h-44z" />
    <glyph glyph-name="nacute" unicode="&#x144;" horiz-adv-x="625" 
d="M136 467v-467h-55v550h55l353 -460v460h55v-550h-54zM288 606l154 144h62l-172 -144h-44z" />
    <glyph glyph-name="uni0145" unicode="&#x145;" horiz-adv-x="699" 
d="M140 576v-576h-57v667h58l418 -568v568h57v-667h-56zM293 -243c15.333 11.333 28.168 25.3311 38.501 41.998s15.833 32.334 16.5 47.001l-10 -1c-10.667 0 -19.334 3.5 -26.001 10.5s-10 16.167 -10 27.5c0 10.667 3.66699 19.834 11 27.501s16.333 11.5 27 11.5
c13.333 0 24.5 -5.33301 33.5 -16s13.5 -25 13.5 -43c0 -25.333 -6.33301 -49.5 -19 -72.5s-28.667 -41.5 -48 -55.5z" />
    <glyph glyph-name="uni0146" unicode="&#x146;" horiz-adv-x="625" 
d="M136 467v-467h-55v550h55l353 -460v460h55v-550h-54zM265 -243c15.333 11.333 28.168 25.3311 38.501 41.998s15.833 32.334 16.5 47.001l-10 -1c-10.667 0 -19.334 3.5 -26.001 10.5s-10 16.167 -10 27.5c0 10.667 3.66699 19.834 11 27.501s16.333 11.5 27 11.5
c13.333 0 24.5 -5.33301 33.5 -16s13.5 -25 13.5 -43c0 -25.333 -6.33301 -49.5 -19 -72.5s-28.667 -41.5 -48 -55.5z" />
    <glyph glyph-name="Ncaron" unicode="&#x147;" horiz-adv-x="699" 
d="M140 576v-576h-57v667h58l418 -568v568h57v-667h-56zM223 867h39l88 -113l83 113h40l-96 -144h-54z" />
    <glyph glyph-name="ncaron" unicode="&#x148;" horiz-adv-x="625" 
d="M136 467v-467h-55v550h55l353 -460v460h55v-550h-54zM185 750h39l88 -113l83 113h40l-96 -144h-54z" />
    <glyph glyph-name="napostrophe" unicode="&#x149;" horiz-adv-x="540" 
d="M407 327c0 44 -10 75.167 -30 93.5s-49 27.5 -87 27.5c-30 0 -59.667 -8 -89 -24s-52 -35.667 -68 -59v-365h-52v483h52v-73c19.333 22.667 45 42.5 77 59.5s64.333 25.5 97 25.5c101.333 0 152 -52.333 152 -157v-338h-52v327zM61 569
c15.333 11.333 28.168 25.3311 38.501 41.998s15.833 32.334 16.5 47.001l-10 -1c-10.667 0 -19.334 3.5 -26.001 10.5s-10 16.167 -10 27.5c0 10.667 3.66699 19.834 11 27.501s16.333 11.5 27 11.5c13.333 0 24.5 -5.33301 33.5 -16s13.5 -25 13.5 -43
c0 -25.333 -6.33301 -49.5 -19 -72.5s-28.667 -41.5 -48 -55.5z" />
    <glyph glyph-name="Eng" unicode="&#x14a;" horiz-adv-x="699" 
d="M616 667l0.00195312 -661c0 -66 -19 -116.167 -57 -150.5s-86.333 -51.5 -145 -51.5c-36.667 0 -68.834 6.66699 -96.501 20s-52.5 34 -74.5 62l35 43c36 -48.667 80.667 -73 134 -73c44 0 79.167 13.167 105.5 39.5s40.166 61.5 41.499 105.5l-419 575v-576h-57v667h58
l418 -568v568h57z" />
    <glyph glyph-name="eng" unicode="&#x14b;" horiz-adv-x="625" 
d="M544 550v-576c0 -55.333 -16.5 -97.5 -49.5 -126.5s-75.833 -43.5 -128.5 -43.5c-61.333 0 -110.666 23.667 -147.999 71l31 39c31.333 -40.667 69.666 -61 114.999 -61c38 0 68.333 11.5 91 34.5s34 52.833 34 89.5v24l-353 466v-467h-55v550h55l353 -460v460h55z" />
    <glyph glyph-name="Omacron" unicode="&#x14c;" horiz-adv-x="764" 
d="M98.5 509c27 52.667 65 94 114 124s105.5 45 169.5 45c63.333 0 119.666 -15 168.999 -45s87.5 -71.333 114.5 -124s40.5 -111.334 40.5 -176.001s-13.5 -123.334 -40.5 -176.001s-65.167 -94 -114.5 -124s-105.666 -45 -168.999 -45c-64 0 -120.5 15 -169.5 45
s-87 71.333 -114 124s-40.5 111.334 -40.5 176.001s13.5 123.334 40.5 176.001zM613.5 484.5c-21.667 44.333 -52.499 79 -92.499 104s-86.333 37.5 -139 37.5c-53.333 0 -99.833 -12.5 -139.5 -37.5s-70.334 -59.667 -92.001 -104s-32.5 -94.833 -32.5 -151.5
c0 -56 10.833 -106.167 32.5 -150.5s52.5 -79.166 92.5 -104.499s86.333 -38 139 -38c52 0 98 12.667 138 38s71 60.166 93 104.499s33 94.5 33 150.5c0 56.667 -10.833 107.167 -32.5 151.5zM234.001 781h295v-37h-295v37z" />
    <glyph glyph-name="omacron" unicode="&#x14d;" horiz-adv-x="666" 
d="M88 420.5c23.333 43.667 56.167 78.167 98.5 103.5s91.166 38 146.499 38s104.166 -12.667 146.499 -38s75 -59.833 98 -103.5s34.5 -92.167 34.5 -145.5s-11.667 -101.833 -35 -145.5s-56 -78.167 -98 -103.5s-90.667 -38 -146 -38s-104.166 12.667 -146.499 38
s-75.166 59.833 -98.499 103.5s-35 92.167 -35 145.5s11.667 101.833 35 145.5zM527.501 397.5c-18.333 36.333 -44.333 64.666 -78 84.999s-72.5 30.5 -116.5 30.5c-44.667 0 -83.667 -10.167 -117 -30.5s-59.166 -48.666 -77.499 -84.999s-27.5 -77.166 -27.5 -122.499
c0 -44.667 9.16699 -85.167 27.5 -121.5s44.166 -64.833 77.499 -85.5s72.333 -31 117 -31c44 0 82.833 10.333 116.5 31s59.667 49.167 78 85.5s27.5 76.833 27.5 121.5c0 45.333 -9.16699 86.166 -27.5 122.499zM185.001 664h295v-37h-295v37z" />
    <glyph glyph-name="Obreve" unicode="&#x14e;" horiz-adv-x="764" 
d="M98.5 509c27 52.667 65 94 114 124s105.5 45 169.5 45c63.333 0 119.666 -15 168.999 -45s87.5 -71.333 114.5 -124s40.5 -111.334 40.5 -176.001s-13.5 -123.334 -40.5 -176.001s-65.167 -94 -114.5 -124s-105.666 -45 -168.999 -45c-64 0 -120.5 15 -169.5 45
s-87 71.333 -114 124s-40.5 111.334 -40.5 176.001s13.5 123.334 40.5 176.001zM613.5 484.5c-21.667 44.333 -52.499 79 -92.499 104s-86.333 37.5 -139 37.5c-53.333 0 -99.833 -12.5 -139.5 -37.5s-70.334 -59.667 -92.001 -104s-32.5 -94.833 -32.5 -151.5
c0 -56 10.833 -106.167 32.5 -150.5s52.5 -79.166 92.5 -104.499s86.333 -38 139 -38c52 0 98 12.667 138 38s71 60.166 93 104.499s33 94.5 33 150.5c0 56.667 -10.833 107.167 -32.5 151.5zM283.001 737.5c-30.667 15.667 -56.333 37.167 -77 64.5l29 25
c16.667 -23.333 37.667 -41.666 63 -54.999s53.333 -20 84 -20c30 0 57.667 6.66699 83 20s46.666 31.666 63.999 54.999l28 -25c-20.667 -27.333 -46.167 -48.833 -76.5 -64.5s-63.166 -23.5 -98.499 -23.5s-68.333 7.83301 -99 23.5z" />
    <glyph glyph-name="obreve" unicode="&#x14f;" horiz-adv-x="666" 
d="M88 420.5c23.333 43.667 56.167 78.167 98.5 103.5s91.166 38 146.499 38s104.166 -12.667 146.499 -38s75 -59.833 98 -103.5s34.5 -92.167 34.5 -145.5s-11.667 -101.833 -35 -145.5s-56 -78.167 -98 -103.5s-90.667 -38 -146 -38s-104.166 12.667 -146.499 38
s-75.166 59.833 -98.499 103.5s-35 92.167 -35 145.5s11.667 101.833 35 145.5zM527.501 397.5c-18.333 36.333 -44.333 64.666 -78 84.999s-72.5 30.5 -116.5 30.5c-44.667 0 -83.667 -10.167 -117 -30.5s-59.166 -48.666 -77.499 -84.999s-27.5 -77.166 -27.5 -122.499
c0 -44.667 9.16699 -85.167 27.5 -121.5s44.166 -64.833 77.499 -85.5s72.333 -31 117 -31c44 0 82.833 10.333 116.5 31s59.667 49.167 78 85.5s27.5 76.833 27.5 121.5c0 45.333 -9.16699 86.166 -27.5 122.499zM234.001 620.5c-30.667 15.667 -56.333 37.167 -77 64.5
l29 25c16.667 -23.333 37.667 -41.666 63 -54.999s53.333 -20 84 -20c30 0 57.667 6.66699 83 20s46.666 31.666 63.999 54.999l28 -25c-20.667 -27.333 -46.167 -48.833 -76.5 -64.5s-63.166 -23.5 -98.499 -23.5s-68.333 7.83301 -99 23.5z" />
    <glyph glyph-name="Ohungarumlaut" unicode="&#x150;" horiz-adv-x="764" 
d="M98.5 509c27 52.667 65 94 114 124s105.5 45 169.5 45c63.333 0 119.666 -15 168.999 -45s87.5 -71.333 114.5 -124s40.5 -111.334 40.5 -176.001s-13.5 -123.334 -40.5 -176.001s-65.167 -94 -114.5 -124s-105.666 -45 -168.999 -45c-64 0 -120.5 15 -169.5 45
s-87 71.333 -114 124s-40.5 111.334 -40.5 176.001s13.5 123.334 40.5 176.001zM613.5 484.5c-21.667 44.333 -52.499 79 -92.499 104s-86.333 37.5 -139 37.5c-53.333 0 -99.833 -12.5 -139.5 -37.5s-70.334 -59.667 -92.001 -104s-32.5 -94.833 -32.5 -151.5
c0 -56 10.833 -106.167 32.5 -150.5s52.5 -79.166 92.5 -104.499s86.333 -38 139 -38c52 0 98 12.667 138 38s71 60.166 93 104.499s33 94.5 33 150.5c0 56.667 -10.833 107.167 -32.5 151.5zM290.001 723l97 144h55l-115 -144h-37zM429.001 723l97 144h55l-115 -144h-37z
" />
    <glyph glyph-name="ohungarumlaut" unicode="&#x151;" horiz-adv-x="666" 
d="M88 420.5c23.333 43.667 56.167 78.167 98.5 103.5s91.166 38 146.499 38s104.166 -12.667 146.499 -38s75 -59.833 98 -103.5s34.5 -92.167 34.5 -145.5s-11.667 -101.833 -35 -145.5s-56 -78.167 -98 -103.5s-90.667 -38 -146 -38s-104.166 12.667 -146.499 38
s-75.166 59.833 -98.499 103.5s-35 92.167 -35 145.5s11.667 101.833 35 145.5zM527.501 397.5c-18.333 36.333 -44.333 64.666 -78 84.999s-72.5 30.5 -116.5 30.5c-44.667 0 -83.667 -10.167 -117 -30.5s-59.166 -48.666 -77.499 -84.999s-27.5 -77.166 -27.5 -122.499
c0 -44.667 9.16699 -85.167 27.5 -121.5s44.166 -64.833 77.499 -85.5s72.333 -31 117 -31c44 0 82.833 10.333 116.5 31s59.667 49.167 78 85.5s27.5 76.833 27.5 121.5c0 45.333 -9.16699 86.166 -27.5 122.499zM241.001 606l97 144h55l-115 -144h-37zM380.001 606l97 144
h55l-115 -144h-37z" />
    <glyph glyph-name="OE" unicode="&#x152;" horiz-adv-x="1115" 
d="M632 139c-24.667 -48.667 -59.834 -86.001 -105.501 -112.001s-94.834 -39 -147.501 -39c-63.333 0 -119.333 15 -168 45s-86.334 71.333 -113.001 124s-40 111.334 -40 176.001s13.333 123.167 40 175.5s64.334 93.5 113.001 123.5s104.667 45 168 45
c52.667 0 101.834 -13 147.501 -39s80.834 -62.667 105.501 -110v139h423v-52h-365v-247h358v-52h-358v-264h365v-52h-423v139zM535.5 579.499c-43.667 30.333 -94.499 45.5 -152.499 45.5c-53.333 0 -100 -12.5 -140 -37.5s-70.833 -59.5 -92.5 -103.5
s-32.5 -94.333 -32.5 -151c0 -56 10.833 -106.333 32.5 -151s52.5 -79.5 92.5 -104.5s86.667 -37.5 140 -37.5c57.333 0 107.833 15.5 151.5 46.5s76.167 75.833 97.5 134.5v225c-20.667 58.667 -52.834 103.167 -96.501 133.5z" />
    <glyph glyph-name="oe" unicode="&#x153;" horiz-adv-x="964" 
d="M539 113c-22 -41.333 -51 -72.5 -87 -93.5s-77.333 -31.5 -124 -31.5c-54.667 0 -102.834 12.667 -144.501 38s-73.834 59.833 -96.501 103.5s-34 92.167 -34 145.5s11.333 101.833 34 145.5s54.834 78.167 96.501 103.5s89.834 38 144.501 38
c46 0 87.333 -10.5 124 -31.5s65.667 -51.833 87 -92.5v112h369v-49h-314v-194h308v-49h-308v-209h314v-49h-369v113zM459 475c-37.333 25.333 -79 37.999 -125 37.999c-44.667 0 -83.834 -10.167 -117.501 -30.5s-59.667 -48.666 -78 -84.999s-27.5 -77.166 -27.5 -122.499
s9.16699 -86 27.5 -122s44.333 -64.333 78 -85s72.834 -31 117.501 -31c47.333 0 89.333 12.833 126 38.5s63 64.167 79 115.5v169c-16 51.333 -42.667 89.666 -80 114.999z" />
    <glyph glyph-name="Racute" unicode="&#x154;" horiz-adv-x="594" 
d="M287 276h-147.002v-276h-57v667h249c38.667 0 73.334 -7.83301 104.001 -23.5s54.834 -38.167 72.501 -67.5s26.5 -64 26.5 -104c0 -38.667 -8.33301 -72.334 -25 -101.001s-39 -50.667 -67 -66s-59 -23.666 -93 -24.999l193 -280h-69zM433.998 575
c-27.333 26.667 -63 40 -107 40h-187v-287h187c44 0 79.667 13.5 107 40.5s41 61.5 41 103.5s-13.667 76.333 -41 103zM275.998 723l154 144h62l-172 -144h-44z" />
    <glyph glyph-name="racute" unicode="&#x155;" horiz-adv-x="533" 
d="M258 224l-122 -0.000976562v-224h-55v550h218c54.667 0 97.667 -15.167 129 -45.5s47 -69.166 47 -116.499c0 -46.667 -14.333 -84.667 -43 -114s-67 -45 -115 -47l167 -227h-68zM385.5 469.999c-21.667 20.667 -51.833 31 -90.5 31h-159v-228h159
c40 0 70.5 10.5 91.5 31.5s31.5 48.833 31.5 83.5c0 34 -10.833 61.333 -32.5 82zM252.001 605.999l154 144h62l-172 -144h-44z" />
    <glyph glyph-name="uni0156" unicode="&#x156;" horiz-adv-x="594" 
d="M287 276h-147.002v-276h-57v667h249c38.667 0 73.334 -7.83301 104.001 -23.5s54.834 -38.167 72.501 -67.5s26.5 -64 26.5 -104c0 -38.667 -8.33301 -72.334 -25 -101.001s-39 -50.667 -67 -66s-59 -23.666 -93 -24.999l193 -280h-69zM433.998 575
c-27.333 26.667 -63 40 -107 40h-187v-287h187c44 0 79.667 13.5 107 40.5s41 61.5 41 103.5s-13.667 76.333 -41 103zM252.998 -243c15.333 11.333 28.168 25.3311 38.501 41.998s15.833 32.334 16.5 47.001l-10 -1c-10.667 0 -19.334 3.5 -26.001 10.5
s-10 16.167 -10 27.5c0 10.667 3.66699 19.834 11 27.501s16.333 11.5 27 11.5c13.333 0 24.5 -5.33301 33.5 -16s13.5 -25 13.5 -43c0 -25.333 -6.33301 -49.5 -19 -72.5s-28.667 -41.5 -48 -55.5z" />
    <glyph glyph-name="uni0157" unicode="&#x157;" horiz-adv-x="533" 
d="M258 224l-122 -0.000976562v-224h-55v550h218c54.667 0 97.667 -15.167 129 -45.5s47 -69.166 47 -116.499c0 -46.667 -14.333 -84.667 -43 -114s-67 -45 -115 -47l167 -227h-68zM385.5 469.999c-21.667 20.667 -51.833 31 -90.5 31h-159v-228h159
c40 0 70.5 10.5 91.5 31.5s31.5 48.833 31.5 83.5c0 34 -10.833 61.333 -32.5 82zM229.001 -243.001c15.333 11.333 28.168 25.3311 38.501 41.998s15.833 32.334 16.5 47.001l-10 -1c-10.667 0 -19.334 3.5 -26.001 10.5s-10 16.167 -10 27.5
c0 10.667 3.66699 19.834 11 27.501s16.333 11.5 27 11.5c13.333 0 24.5 -5.33301 33.5 -16s13.5 -25 13.5 -43c0 -25.333 -6.33301 -49.5 -19 -72.5s-28.667 -41.5 -48 -55.5z" />
    <glyph glyph-name="Rcaron" unicode="&#x158;" horiz-adv-x="594" 
d="M287 276h-147.002v-276h-57v667h249c38.667 0 73.334 -7.83301 104.001 -23.5s54.834 -38.167 72.501 -67.5s26.5 -64 26.5 -104c0 -38.667 -8.33301 -72.334 -25 -101.001s-39 -50.667 -67 -66s-59 -23.666 -93 -24.999l193 -280h-69zM433.998 575
c-27.333 26.667 -63 40 -107 40h-187v-287h187c44 0 79.667 13.5 107 40.5s41 61.5 41 103.5s-13.667 76.333 -41 103zM172.998 867h39l88 -113l83 113h40l-96 -144h-54z" />
    <glyph glyph-name="rcaron" unicode="&#x159;" horiz-adv-x="533" 
d="M258 224l-122 -0.000976562v-224h-55v550h218c54.667 0 97.667 -15.167 129 -45.5s47 -69.166 47 -116.499c0 -46.667 -14.333 -84.667 -43 -114s-67 -45 -115 -47l167 -227h-68zM385.5 469.999c-21.667 20.667 -51.833 31 -90.5 31h-159v-228h159
c40 0 70.5 10.5 91.5 31.5s31.5 48.833 31.5 83.5c0 34 -10.833 61.333 -32.5 82zM149.001 749.999h39l88 -113l83 113h40l-96 -144h-54z" />
    <glyph glyph-name="Sacute" unicode="&#x15a;" horiz-adv-x="581" 
d="M83 137c24 -28 53.6719 -51.1641 89.0049 -69.4971s75 -27.5 119 -27.5c62 0 106.833 13.5 134.5 40.5s41.5 57.833 41.5 92.5c0 29.333 -8.16699 53.166 -24.5 71.499s-36.833 32.5 -61.5 42.5s-57 20.333 -97 31c-48 13.333 -86.167 25.833 -114.5 37.5
s-52.5 29.167 -72.5 52.5s-30 54 -30 92c0 35.333 9.66699 66.5 29 93.5s45.666 47.833 78.999 62.5s70.333 22 111 22c95.333 0 170.666 -31.333 225.999 -94l-38 -42c-23.333 28 -51.333 49 -84 63s-68.334 21 -107.001 21c-44.667 0 -81.834 -11.5 -111.501 -34.5
s-44.5 -52.5 -44.5 -88.5c0 -24.667 7.66699 -44.834 23 -60.501s34.5 -28 57.5 -37s54.167 -18.5 93.5 -28.5c48.667 -14 88 -27.5 118 -40.5s55.5 -32.333 76.5 -58s31.5 -59.5 31.5 -101.5c0 -31.333 -7.66699 -61.333 -23 -90s-40.666 -52.334 -75.999 -71.001
s-81.333 -28 -138 -28c-52.667 0 -99.834 9.5 -141.501 28.5s-75.834 44.833 -102.501 77.5zM262.005 723.003l154 144h62l-172 -144h-44z" />
    <glyph glyph-name="sacute" unicode="&#x15b;" horiz-adv-x="499" 
d="M73 115c19.333 -22 44.666 -40.665 75.999 -55.998s65.333 -23 102 -23c50.667 0 88.167 10.5 112.5 31.5s36.5 47.167 36.5 78.5c0 24 -7 43.167 -21 57.5s-31.5 25.5 -52.5 33.5s-48.833 16.333 -83.5 25c-40.667 10 -73.334 19.667 -98.001 29
s-45.667 23.833 -63 43.5s-26 45.5 -26 77.5c0 29.333 8.5 55.333 25.5 78s40 40.334 69 53.001s60.833 19 95.5 19c82 0 147.667 -26.333 197 -79l-32 -38c-20 23.333 -44.333 40.666 -73 51.999s-59.334 17 -92.001 17c-37.333 0 -68.833 -9.66699 -94.5 -29
s-38.5 -43.333 -38.5 -72c0 -19.333 6.33301 -35.166 19 -47.499s28.5 -22 47.5 -29s45.167 -14.833 78.5 -23.5c42.667 -10.667 77.334 -21.334 104.001 -32.001s49.334 -26.834 68.001 -48.501s28 -50.167 28 -85.5c0 -46.667 -17.5 -84.834 -52.5 -114.501
s-86.833 -44.5 -155.5 -44.5c-45.333 0 -86.166 8 -122.499 24s-65.833 37.333 -88.5 64zM223 606.002l154 144h62l-172 -144h-44z" />
    <glyph glyph-name="Scircumflex" unicode="&#x15c;" horiz-adv-x="581" 
d="M83 137c24 -28 53.6719 -51.1641 89.0049 -69.4971s75 -27.5 119 -27.5c62 0 106.833 13.5 134.5 40.5s41.5 57.833 41.5 92.5c0 29.333 -8.16699 53.166 -24.5 71.499s-36.833 32.5 -61.5 42.5s-57 20.333 -97 31c-48 13.333 -86.167 25.833 -114.5 37.5
s-52.5 29.167 -72.5 52.5s-30 54 -30 92c0 35.333 9.66699 66.5 29 93.5s45.666 47.833 78.999 62.5s70.333 22 111 22c95.333 0 170.666 -31.333 225.999 -94l-38 -42c-23.333 28 -51.333 49 -84 63s-68.334 21 -107.001 21c-44.667 0 -81.834 -11.5 -111.501 -34.5
s-44.5 -52.5 -44.5 -88.5c0 -24.667 7.66699 -44.834 23 -60.501s34.5 -28 57.5 -37s54.167 -18.5 93.5 -28.5c48.667 -14 88 -27.5 118 -40.5s55.5 -32.333 76.5 -58s31.5 -59.5 31.5 -101.5c0 -31.333 -7.66699 -61.333 -23 -90s-40.666 -52.334 -75.999 -71.001
s-81.333 -28 -138 -28c-52.667 0 -99.834 9.5 -141.501 28.5s-75.834 44.833 -102.501 77.5zM286.005 836.003l-85 -113h-39l97 144h54l99 -144h-40z" />
    <glyph glyph-name="scircumflex" unicode="&#x15d;" horiz-adv-x="499" 
d="M73 115c19.333 -22 44.666 -40.665 75.999 -55.998s65.333 -23 102 -23c50.667 0 88.167 10.5 112.5 31.5s36.5 47.167 36.5 78.5c0 24 -7 43.167 -21 57.5s-31.5 25.5 -52.5 33.5s-48.833 16.333 -83.5 25c-40.667 10 -73.334 19.667 -98.001 29
s-45.667 23.833 -63 43.5s-26 45.5 -26 77.5c0 29.333 8.5 55.333 25.5 78s40 40.334 69 53.001s60.833 19 95.5 19c82 0 147.667 -26.333 197 -79l-32 -38c-20 23.333 -44.333 40.666 -73 51.999s-59.334 17 -92.001 17c-37.333 0 -68.833 -9.66699 -94.5 -29
s-38.5 -43.333 -38.5 -72c0 -19.333 6.33301 -35.166 19 -47.499s28.5 -22 47.5 -29s45.167 -14.833 78.5 -23.5c42.667 -10.667 77.334 -21.334 104.001 -32.001s49.334 -26.834 68.001 -48.501s28 -50.167 28 -85.5c0 -46.667 -17.5 -84.834 -52.5 -114.501
s-86.833 -44.5 -155.5 -44.5c-45.333 0 -86.166 8 -122.499 24s-65.833 37.333 -88.5 64zM247 719.002l-85 -113h-39l97 144h54l99 -144h-40z" />
    <glyph glyph-name="uni015E" unicode="&#x15e;" horiz-adv-x="581" 
d="M505 89c-14.667 -28 -38.4951 -51.3301 -71.4951 -69.9971s-76.167 -29 -129.5 -31l-17 -45c10 8 22.333 12 37 12c19.333 0 35.166 -5.83301 47.499 -17.5s18.5 -26.834 18.5 -45.501c0 -24.667 -9.66699 -44.334 -29 -59.001s-43.333 -22 -72 -22
c-19.333 0 -37.833 2.83301 -55.5 8.5s-31.5 12.5 -41.5 20.5l16 32c23.333 -18.667 50 -28 80 -28c18.667 0 34.167 4.16699 46.5 12.5s18.5 20.166 18.5 35.499c0 10.667 -3.5 19.334 -10.5 26.001s-17.167 10 -30.5 10c-16.667 0 -30 -5.66699 -40 -17l-28 16l23 62
c-48 2.66699 -90.667 13.334 -128 32.001s-68.333 43 -93 73l37 43c24 -28 53.667 -51.167 89 -69.5s75 -27.5 119 -27.5c62 0 106.833 13.5 134.5 40.5s41.5 57.833 41.5 92.5c0 29.333 -8.16699 53.166 -24.5 71.499s-36.833 32.5 -61.5 42.5s-57 20.333 -97 31
c-48 13.333 -86.167 25.833 -114.5 37.5s-52.5 29.167 -72.5 52.5s-30 54 -30 92c0 35.333 9.66699 66.5 29 93.5s45.666 47.833 78.999 62.5s70.333 22 111 22c95.333 0 170.666 -31.333 225.999 -94l-38 -42c-23.333 28 -51.333 49 -84 63s-68.334 21 -107.001 21
c-44.667 0 -81.834 -11.5 -111.501 -34.5s-44.5 -52.5 -44.5 -88.5c0 -24.667 7.66699 -44.834 23 -60.501s34.5 -28 57.5 -37s54.167 -18.5 93.5 -28.5c48.667 -14 88 -27.5 118 -40.5s55.5 -32.333 76.5 -58s31.5 -59.5 31.5 -101.5c0 -30.667 -7.33301 -60 -22 -88z" />
    <glyph glyph-name="uni015F" unicode="&#x15f;" horiz-adv-x="499" 
d="M409.5 36c-32.333 -29.333 -80.498 -45.3301 -144.498 -47.9971l-17 -45c10 8 22.333 12 37 12c19.333 0 35.166 -5.83301 47.499 -17.5s18.5 -26.834 18.5 -45.501c0 -24.667 -9.66699 -44.334 -29 -59.001s-43.333 -22 -72 -22c-19.333 0 -37.833 2.83301 -55.5 8.5
s-31.5 12.5 -41.5 20.5l16 32c23.333 -18.667 50 -28 80 -28c18.667 0 34.167 4.16699 46.5 12.5s18.5 20.166 18.5 35.499c0 10.667 -3.5 19.334 -10.5 26.001s-17.167 10 -30.5 10c-16.667 0 -30 -5.66699 -40 -17l-28 16l23 62c-40.667 2.66699 -77.167 11.667 -109.5 27
s-58.833 35.333 -79.5 60l34 39c19.333 -22 44.666 -40.667 75.999 -56s65.333 -23 102 -23c50.667 0 88.167 10.5 112.5 31.5s36.5 47.167 36.5 78.5c0 24 -7 43.167 -21 57.5s-31.5 25.5 -52.5 33.5s-48.833 16.333 -83.5 25c-40.667 10 -73.334 19.667 -98.001 29
s-45.667 23.833 -63 43.5s-26 45.5 -26 77.5c0 29.333 8.5 55.333 25.5 78s40 40.334 69 53.001s60.833 19 95.5 19c82 0 147.667 -26.333 197 -79l-32 -38c-20 23.333 -44.333 40.666 -73 51.999s-59.334 17 -92.001 17c-37.333 0 -68.833 -9.66699 -94.5 -29
s-38.5 -43.333 -38.5 -72c0 -19.333 6.33301 -35.166 19 -47.499s28.5 -22 47.5 -29s45.167 -14.833 78.5 -23.5c42.667 -10.667 77.334 -21.334 104.001 -32.001s49.334 -26.834 68.001 -48.501s28 -50.167 28 -85.5c0 -44.667 -16.167 -81.667 -48.5 -111z" />
    <glyph glyph-name="Scaron" unicode="&#x160;" horiz-adv-x="581" 
d="M83 137c24 -28 53.6719 -51.1641 89.0049 -69.4971s75 -27.5 119 -27.5c62 0 106.833 13.5 134.5 40.5s41.5 57.833 41.5 92.5c0 29.333 -8.16699 53.166 -24.5 71.499s-36.833 32.5 -61.5 42.5s-57 20.333 -97 31c-48 13.333 -86.167 25.833 -114.5 37.5
s-52.5 29.167 -72.5 52.5s-30 54 -30 92c0 35.333 9.66699 66.5 29 93.5s45.666 47.833 78.999 62.5s70.333 22 111 22c95.333 0 170.666 -31.333 225.999 -94l-38 -42c-23.333 28 -51.333 49 -84 63s-68.334 21 -107.001 21c-44.667 0 -81.834 -11.5 -111.501 -34.5
s-44.5 -52.5 -44.5 -88.5c0 -24.667 7.66699 -44.834 23 -60.501s34.5 -28 57.5 -37s54.167 -18.5 93.5 -28.5c48.667 -14 88 -27.5 118 -40.5s55.5 -32.333 76.5 -58s31.5 -59.5 31.5 -101.5c0 -31.333 -7.66699 -61.333 -23 -90s-40.666 -52.334 -75.999 -71.001
s-81.333 -28 -138 -28c-52.667 0 -99.834 9.5 -141.501 28.5s-75.834 44.833 -102.501 77.5zM159.005 867.003h39l88 -113l83 113h40l-96 -144h-54z" />
    <glyph glyph-name="scaron" unicode="&#x161;" horiz-adv-x="499" 
d="M73 115c19.333 -22 44.666 -40.665 75.999 -55.998s65.333 -23 102 -23c50.667 0 88.167 10.5 112.5 31.5s36.5 47.167 36.5 78.5c0 24 -7 43.167 -21 57.5s-31.5 25.5 -52.5 33.5s-48.833 16.333 -83.5 25c-40.667 10 -73.334 19.667 -98.001 29
s-45.667 23.833 -63 43.5s-26 45.5 -26 77.5c0 29.333 8.5 55.333 25.5 78s40 40.334 69 53.001s60.833 19 95.5 19c82 0 147.667 -26.333 197 -79l-32 -38c-20 23.333 -44.333 40.666 -73 51.999s-59.334 17 -92.001 17c-37.333 0 -68.833 -9.66699 -94.5 -29
s-38.5 -43.333 -38.5 -72c0 -19.333 6.33301 -35.166 19 -47.499s28.5 -22 47.5 -29s45.167 -14.833 78.5 -23.5c42.667 -10.667 77.334 -21.334 104.001 -32.001s49.334 -26.834 68.001 -48.501s28 -50.167 28 -85.5c0 -46.667 -17.5 -84.834 -52.5 -114.501
s-86.833 -44.5 -155.5 -44.5c-45.333 0 -86.166 8 -122.499 24s-65.833 37.333 -88.5 64zM120 750.002h39l88 -113l83 113h40l-96 -144h-54z" />
    <glyph glyph-name="uni0162" unicode="&#x162;" horiz-adv-x="564" 
d="M253 615h-218v52h494v-52h-218v-615h-58v615zM236 -243c15.333 11.333 28.168 25.3311 38.501 41.998s15.833 32.334 16.5 47.001l-10 -1c-10.667 0 -19.334 3.5 -26.001 10.5s-10 16.167 -10 27.5c0 10.667 3.66699 19.834 11 27.501s16.333 11.5 27 11.5
c13.333 0 24.5 -5.33301 33.5 -16s13.5 -25 13.5 -43c0 -25.333 -6.33301 -49.5 -19 -72.5s-28.667 -41.5 -48 -55.5z" />
    <glyph glyph-name="uni0163" unicode="&#x163;" horiz-adv-x="465" 
d="M205 501h-176v49h408v-49h-177v-501h-55v501zM185 -243c15.333 11.333 28.168 25.3311 38.501 41.998s15.833 32.334 16.5 47.001l-10 -1c-10.667 0 -19.334 3.5 -26.001 10.5s-10 16.167 -10 27.5c0 10.667 3.66699 19.834 11 27.501s16.333 11.5 27 11.5
c13.333 0 24.5 -5.33301 33.5 -16s13.5 -25 13.5 -43c0 -25.333 -6.33301 -49.5 -19 -72.5s-28.667 -41.5 -48 -55.5z" />
    <glyph glyph-name="Tcaron" unicode="&#x164;" horiz-adv-x="564" 
d="M253 615h-218v52h494v-52h-218v-615h-58v615zM156 867h39l88 -113l83 113h40l-96 -144h-54z" />
    <glyph glyph-name="tcaron" unicode="&#x165;" horiz-adv-x="465" 
d="M205 501h-176v49h408v-49h-177v-501h-55v501zM105 750h39l88 -113l83 113h40l-96 -144h-54z" />
    <glyph glyph-name="Tbar" unicode="&#x166;" horiz-adv-x="564" 
d="M311 615v-270h158v-37h-158v-308h-58v308h-158v37h158v270h-218v52h494v-52h-218z" />
    <glyph glyph-name="tbar" unicode="&#x167;" horiz-adv-x="465" 
d="M260 501v-207h124v-38h-124v-256h-55v256h-122v38h122v207h-176v49h408v-49h-177z" />
    <glyph glyph-name="Utilde" unicode="&#x168;" horiz-adv-x="686" 
d="M83 667h58v-410c0 -68 17.5 -121.167 52.5 -159.5s84.833 -57.5 149.5 -57.5c65.333 0 115.333 19 150 57s52 91.333 52 160v410h58v-411c0 -84 -22.167 -149.667 -66.5 -197s-108.833 -71 -193.5 -71c-84 0 -148.333 23.833 -193 71.5s-67 113.167 -67 196.5v411z
M305.5 812.5c-7 7.66699 -15.832 11.499 -26.499 11.499c-16 0 -29 -8 -39 -24s-15 -40.333 -15 -73h-35c0 38.667 8.16699 70.667 24.5 96s39.166 38 68.499 38c18 0 32.167 -4.83301 42.5 -14.5s21.166 -24.167 32.499 -43.5c9.33301 -15.333 17.333 -26.5 24 -33.5
s15.334 -10.5 26.001 -10.5c16 0 28.833 8 38.5 24s14.5 40 14.5 72h36c0 -39.333 -8 -71.5 -24 -96.5s-38.667 -37.5 -68 -37.5c-18.667 0 -33 4.83301 -43 14.5s-21 24.167 -33 43.5c-8.66699 14.667 -16.5 25.834 -23.5 33.501z" />
    <glyph glyph-name="utilde" unicode="&#x169;" horiz-adv-x="613" 
d="M81 550l54.998 -0.000976562v-338c0 -55.333 14.667 -98.333 44 -129s71.333 -46 126 -46s96.834 15.5 126.501 46.5s44.5 73.833 44.5 128.5v338h55v-340c0 -69.333 -19.333 -123.666 -58 -162.999s-94.667 -59 -168 -59s-129.166 19.667 -167.499 59
s-57.5 93.333 -57.5 162v341zM268.498 695.499c-7 7.66699 -15.832 11.499 -26.499 11.499c-16 0 -29 -8 -39 -24s-15 -40.333 -15 -73h-35c0 38.667 8.16699 70.667 24.5 96s39.166 38 68.499 38c18 0 32.167 -4.83301 42.5 -14.5s21.166 -24.167 32.499 -43.5
c9.33301 -15.333 17.333 -26.5 24 -33.5s15.334 -10.5 26.001 -10.5c16 0 28.833 8 38.5 24s14.5 40 14.5 72h36c0 -39.333 -8 -71.5 -24 -96.5s-38.667 -37.5 -68 -37.5c-18.667 0 -33 4.83301 -43 14.5s-21 24.167 -33 43.5c-8.66699 14.667 -16.5 25.834 -23.5 33.501z
" />
    <glyph glyph-name="Umacron" unicode="&#x16a;" horiz-adv-x="686" 
d="M83 667h58v-410c0 -68 17.5 -121.167 52.5 -159.5s84.833 -57.5 149.5 -57.5c65.333 0 115.333 19 150 57s52 91.333 52 160v410h58v-411c0 -84 -22.167 -149.667 -66.5 -197s-108.833 -71 -193.5 -71c-84 0 -148.333 23.833 -193 71.5s-67 113.167 -67 196.5v411z
M195 781h295v-37h-295v37z" />
    <glyph glyph-name="umacron" unicode="&#x16b;" horiz-adv-x="613" 
d="M81 550l54.998 -0.000976562v-338c0 -55.333 14.667 -98.333 44 -129s71.333 -46 126 -46s96.834 15.5 126.501 46.5s44.5 73.833 44.5 128.5v338h55v-340c0 -69.333 -19.333 -123.666 -58 -162.999s-94.667 -59 -168 -59s-129.166 19.667 -167.499 59
s-57.5 93.333 -57.5 162v341zM157.998 663.999h295v-37h-295v37z" />
    <glyph glyph-name="Ubreve" unicode="&#x16c;" horiz-adv-x="686" 
d="M83 667h58v-410c0 -68 17.5 -121.167 52.5 -159.5s84.833 -57.5 149.5 -57.5c65.333 0 115.333 19 150 57s52 91.333 52 160v410h58v-411c0 -84 -22.167 -149.667 -66.5 -197s-108.833 -71 -193.5 -71c-84 0 -148.333 23.833 -193 71.5s-67 113.167 -67 196.5v411z
M244 737.5c-30.667 15.667 -56.333 37.167 -77 64.5l29 25c16.667 -23.333 37.667 -41.666 63 -54.999s53.333 -20 84 -20c30 0 57.667 6.66699 83 20s46.666 31.666 63.999 54.999l28 -25c-20.667 -27.333 -46.167 -48.833 -76.5 -64.5s-63.166 -23.5 -98.499 -23.5
s-68.333 7.83301 -99 23.5z" />
    <glyph glyph-name="ubreve" unicode="&#x16d;" horiz-adv-x="613" 
d="M81 550l54.998 -0.000976562v-338c0 -55.333 14.667 -98.333 44 -129s71.333 -46 126 -46s96.834 15.5 126.501 46.5s44.5 73.833 44.5 128.5v338h55v-340c0 -69.333 -19.333 -123.666 -58 -162.999s-94.667 -59 -168 -59s-129.166 19.667 -167.499 59
s-57.5 93.333 -57.5 162v341zM206.998 620.499c-30.667 15.667 -56.333 37.167 -77 64.5l29 25c16.667 -23.333 37.667 -41.666 63 -54.999s53.333 -20 84 -20c30 0 57.667 6.66699 83 20s46.666 31.666 63.999 54.999l28 -25c-20.667 -27.333 -46.167 -48.833 -76.5 -64.5
s-63.166 -23.5 -98.499 -23.5s-68.333 7.83301 -99 23.5z" />
    <glyph glyph-name="Uring" unicode="&#x16e;" horiz-adv-x="686" 
d="M83 667h58v-410c0 -68 17.5 -121.167 52.5 -159.5s84.833 -57.5 149.5 -57.5c65.333 0 115.333 19 150 57s52 91.333 52 160v410h58v-411c0 -84 -22.167 -149.667 -66.5 -197s-108.833 -71 -193.5 -71c-84 0 -148.333 23.833 -193 71.5s-67 113.167 -67 196.5v411z
M276 878.5c18.667 19 41.334 28.5 68.001 28.5c26 0 48.167 -9.5 66.5 -28.5s27.5 -41.5 27.5 -67.5c0 -26.667 -9.16699 -49.334 -27.5 -68.001s-40.5 -28 -66.5 -28c-26.667 0 -49.334 9.33301 -68.001 28s-28 41.334 -28 68.001c0 26 9.33301 48.5 28 67.5zM388.5 856
c-12.333 12.667 -27.166 19 -44.499 19s-32.333 -6.33301 -45 -19s-19 -27.667 -19 -45s6.33301 -32.333 19 -45s27.667 -19 45 -19s32.166 6.33301 44.499 19s18.5 27.667 18.5 45s-6.16699 32.333 -18.5 45z" />
    <glyph glyph-name="uring" unicode="&#x16f;" horiz-adv-x="613" 
d="M81 550l54.998 -0.000976562v-338c0 -55.333 14.667 -98.333 44 -129s71.333 -46 126 -46s96.834 15.5 126.501 46.5s44.5 73.833 44.5 128.5v338h55v-340c0 -69.333 -19.333 -123.666 -58 -162.999s-94.667 -59 -168 -59s-129.166 19.667 -167.499 59
s-57.5 93.333 -57.5 162v341zM238.998 761.499c18.667 19 41.334 28.5 68.001 28.5c26 0 48.167 -9.5 66.5 -28.5s27.5 -41.5 27.5 -67.5c0 -26.667 -9.16699 -49.334 -27.5 -68.001s-40.5 -28 -66.5 -28c-26.667 0 -49.334 9.33301 -68.001 28s-28 41.334 -28 68.001
c0 26 9.33301 48.5 28 67.5zM351.498 738.999c-12.333 12.667 -27.166 19 -44.499 19s-32.333 -6.33301 -45 -19s-19 -27.667 -19 -45s6.33301 -32.333 19 -45s27.667 -19 45 -19s32.166 6.33301 44.499 19s18.5 27.667 18.5 45s-6.16699 32.333 -18.5 45z" />
    <glyph glyph-name="Uhungarumlaut" unicode="&#x170;" horiz-adv-x="686" 
d="M83 667h58v-410c0 -68 17.5 -121.167 52.5 -159.5s84.833 -57.5 149.5 -57.5c65.333 0 115.333 19 150 57s52 91.333 52 160v410h58v-411c0 -84 -22.167 -149.667 -66.5 -197s-108.833 -71 -193.5 -71c-84 0 -148.333 23.833 -193 71.5s-67 113.167 -67 196.5v411z
M251 723l97 144h55l-115 -144h-37zM390 723l97 144h55l-115 -144h-37z" />
    <glyph glyph-name="uhungarumlaut" unicode="&#x171;" horiz-adv-x="613" 
d="M81 550l54.998 -0.000976562v-338c0 -55.333 14.667 -98.333 44 -129s71.333 -46 126 -46s96.834 15.5 126.501 46.5s44.5 73.833 44.5 128.5v338h55v-340c0 -69.333 -19.333 -123.666 -58 -162.999s-94.667 -59 -168 -59s-129.166 19.667 -167.499 59
s-57.5 93.333 -57.5 162v341zM213.998 605.999l97 144h55l-115 -144h-37zM352.998 605.999l97 144h55l-115 -144h-37z" />
    <glyph glyph-name="Uogonek" unicode="&#x172;" horiz-adv-x="686" 
d="M83 667l58.002 -0.000976562v-410c0 -68 17.5 -121.167 52.5 -159.5s84.833 -57.5 149.5 -57.5c65.333 0 115.333 19 150 57s52 91.333 52 160v410h58v-411c0 -63.333 -12.667 -116.166 -38 -158.499s-62.333 -72.833 -111 -91.5
c-36.667 -14 -65.334 -30.333 -86.001 -49s-31 -38.334 -31 -59.001c0 -13.333 4.16699 -24 12.5 -32s19.833 -12 34.5 -12c13.333 0 24.666 3.33301 33.999 10l17 -34c-17.333 -10.667 -37 -16 -59 -16c-25.333 0 -47 6.5 -65 19.5s-27 30.833 -27 53.5
c0 18.667 7.16699 36.834 21.5 54.501s33.833 33.5 58.5 47.5c-4.66699 -0.666992 -11.667 -1 -21 -1c-84 0 -148.333 23.833 -193 71.5s-67 113.167 -67 196.5v411z" />
    <glyph glyph-name="uogonek" unicode="&#x173;" horiz-adv-x="613" 
d="M81 550l54.998 -0.000976562v-338c0 -55.333 14.667 -98.333 44 -129s71.333 -46 126 -46s96.834 15.5 126.501 46.5s44.5 73.833 44.5 128.5v338h55v-340c0 -50.667 -10.333 -93.5 -31 -128.5s-51 -60.167 -91 -75.5c-34 -13.333 -61.333 -29.666 -82 -48.999
s-31 -39 -31 -59c0 -13.333 4.33301 -24 13 -32s20 -12 34 -12s25.667 3.33301 35 10l17 -34c-17.333 -10.667 -37 -16 -59 -16c-25.333 0 -47 6.5 -65 19.5s-27 30.833 -27 53.5c0 18.667 7.16699 37 21.5 55s33.833 33.667 58.5 47c-4 -0.666992 -10.333 -1 -19 -1
c-73.333 0 -129.166 19.667 -167.499 59s-57.5 93.333 -57.5 162v341z" />
    <glyph glyph-name="Wcircumflex" unicode="&#x174;" horiz-adv-x="867" 
d="M434 573l-160 -573h-64l-191 667h64l161 -587l164 587h52l163 -587l161 587h64l-190 -667h-64zM434 836l-85 -113h-39l97 144h54l99 -144h-40z" />
    <glyph glyph-name="wcircumflex" unicode="&#x175;" horiz-adv-x="749" 
d="M374 463l-136 -463h-58l-165 550h60l135 -471l140 471h49l139 -472l136 472h60l-165 -550h-58zM374 719l-85 -113h-39l97 144h54l99 -144h-40z" />
    <glyph glyph-name="Ycircumflex" unicode="&#x176;" horiz-adv-x="618" 
d="M280 285l-265 382h69l225 -328l225 328h69l-265 -382v-285h-58v285zM309 836l-85 -113h-39l97 144h54l99 -144h-40z" />
    <glyph glyph-name="ycircumflex" unicode="&#x177;" horiz-adv-x="539" 
d="M244 235l-232 315h66l194 -266l190 266h65l-228 -315v-235h-55v235zM269 719l-85 -113h-39l97 144h54l99 -144h-40z" />
    <glyph glyph-name="Ydieresis" unicode="&#x178;" horiz-adv-x="618" 
d="M280 285l-265 382h69l225 -328l225 328h69l-265 -382v-285h-58v285zM181 746c-7.33301 7.33301 -11 16.333 -11 27c0 10 3.66699 18.667 11 26s16 11 26 11s18.667 -3.66699 26 -11s11 -16 11 -26c0 -10.667 -3.66699 -19.667 -11 -27s-16 -11 -26 -11
s-18.667 3.66699 -26 11zM385 746c-7.33301 7.33301 -11 16.333 -11 27c0 10 3.66699 18.667 11 26s16 11 26 11s18.833 -3.66699 26.5 -11s11.5 -16 11.5 -26c0 -10.667 -3.83301 -19.667 -11.5 -27s-16.5 -11 -26.5 -11s-18.667 3.66699 -26 11z" />
    <glyph glyph-name="Zacute" unicode="&#x179;" horiz-adv-x="581" 
d="M50 50l402 565h-402v52h474v-49l-402 -566h409v-52h-481v50zM267 723l154 144h62l-172 -144h-44z" />
    <glyph glyph-name="zacute" unicode="&#x17a;" horiz-adv-x="513" 
d="M41 43l353 458h-353v49h424v-44l-352 -457h359v-49h-431v43zM233 606l154 144h62l-172 -144h-44z" />
    <glyph glyph-name="Zdotaccent" unicode="&#x17b;" horiz-adv-x="581" 
d="M50 50l402 565h-402v52h474v-49l-402 -566h409v-52h-481v50zM264 797c7.33301 7.33301 16.333 11 27 11c10 0 18.667 -3.66699 26 -11s11 -16.333 11 -27s-3.66699 -19.667 -11 -27s-16 -11 -26 -11c-10.667 0 -19.667 3.66699 -27 11s-11 16.333 -11 27
s3.66699 19.667 11 27z" />
    <glyph glyph-name="zdotaccent" unicode="&#x17c;" horiz-adv-x="513" 
d="M41 43l353 458h-353v49h424v-44l-352 -457h359v-49h-431v43zM230 680c7.33301 7.33301 16.333 11 27 11c10 0 18.667 -3.66699 26 -11s11 -16.333 11 -27s-3.66699 -19.667 -11 -27s-16 -11 -26 -11c-10.667 0 -19.667 3.66699 -27 11s-11 16.333 -11 27
s3.66699 19.667 11 27z" />
    <glyph glyph-name="Zcaron" unicode="&#x17d;" horiz-adv-x="581" 
d="M50 50l402 565h-402v52h474v-49l-402 -566h409v-52h-481v50zM164 867h39l88 -113l83 113h40l-96 -144h-54z" />
    <glyph glyph-name="zcaron" unicode="&#x17e;" horiz-adv-x="513" 
d="M41 43l353 458h-353v49h424v-44l-352 -457h359v-49h-431v43zM130 750h39l88 -113l83 113h40l-96 -144h-54z" />
    <glyph glyph-name="longs" unicode="&#x17f;" horiz-adv-x="265" 
d="M98 437l-80 0.000976562v46h80v44c0 47.333 11.667 84.166 35 110.499s55.333 39.5 96 39.5c26 0 47.667 -5 65 -15l-16 -41c-12.667 7.33301 -27.334 11 -44.001 11c-27.333 0 -48.166 -9 -62.499 -27s-21.5 -44 -21.5 -78v-527h-52v437z" />
    <glyph glyph-name="uni018F" unicode="&#x18f;" horiz-adv-x="748" 
d="M522.5 634.5c51.667 -29 92.501 -69.665 122.501 -121.998s45 -112.166 45 -179.499s-14.333 -127.333 -43 -180s-67.834 -93.5 -117.501 -122.5s-105.167 -43.5 -166.5 -43.5c-66 0 -123 15.167 -171 45.5s-84.667 72.666 -110 126.999s-38 117.166 -38 188.499h585
c-2 54.667 -15.5 103 -40.5 145s-58 74.667 -99 98s-86.833 35 -137.5 35c-42 0 -81.167 -8.33301 -117.5 -25s-66.5 -39.334 -90.5 -68.001l-44 31c67.333 76 151.333 114 252 114c62 0 118.833 -14.5 170.5 -43.5zM490.001 71.502c38.667 21.667 70 52.001 94 91.001
s38 83.833 42 134.5h-520c4 -49.333 16.5 -93.333 37.5 -132s49.833 -69.334 86.5 -92.001s80 -34 130 -34c48 0 91.333 10.833 130 32.5z" />
    <glyph glyph-name="uni0192" unicode="&#x192;" horiz-adv-x="354" 
d="M102 221h-53.999v41h62l34 150c10.667 49.333 27.5 86.5 50.5 111.5s53.167 37.5 90.5 37.5c16 0 30.167 -2.16699 42.5 -6.5s24.5 -12.166 36.5 -23.499l-28 -41c-10 12.667 -25 19 -45 19c-24.667 0 -43.834 -8.83301 -57.501 -26.5s-24.167 -42.834 -31.5 -75.501
l-33 -145h116v-41h-125l-76 -340h-58z" />
    <glyph glyph-name="uni019D" unicode="&#x19d;" horiz-adv-x="699" 
d="M616 667l-0.000976562 -666.999h-56l-420 576v-567c0 -66.667 -19 -117.5 -57 -152.5s-86.333 -52.5 -145 -52.5c-20 0 -38.333 2 -55 6l5 54c13.333 -5.33301 29.333 -8 48 -8c44.667 0 80.334 14.167 107.001 42.5s40 65.166 40 110.499v658h58l418 -568v568h57z" />
    <glyph glyph-name="Ohorn" unicode="&#x1a0;" horiz-adv-x="764" 
d="M692 594c-12 -22 -27.0029 -40.002 -45.0029 -54.002c39.333 -58.667 59 -127.667 59 -207c0 -64.667 -13.5 -123.334 -40.5 -176.001s-65.167 -94 -114.5 -124s-105.666 -45 -168.999 -45c-64 0 -120.5 15 -169.5 45s-87 71.333 -114 124s-40.5 111.334 -40.5 176.001
s13.5 123.334 40.5 176.001s65 94 114 124s105.5 45 169.5 45c51.333 0 97.833 -9.66699 139.5 -29s76.834 -46.666 105.501 -81.999c12.667 10.667 23.167 23.5 31.5 38.5s13.166 29.167 14.499 42.5c-1.33301 -0.666992 -4.66602 -1 -9.99902 -1
c-10 0 -18.333 3.5 -25 10.5s-10 15.833 -10 26.5c0 10 3.5 18.667 10.5 26s15.833 11 26.5 11c12.667 0 23.334 -5 32.001 -15s13 -24 13 -42c0 -24.667 -6 -48 -18 -70zM519.997 77.998c40 25.333 71.001 60.166 93.001 104.499s33 94.5 33 150.5
c0 56.667 -10.833 107.167 -32.5 151.5s-52.5 79 -92.5 104s-86.333 37.5 -139 37.5c-53.333 0 -99.833 -12.5 -139.5 -37.5s-70.334 -59.667 -92.001 -104s-32.5 -94.833 -32.5 -151.5c0 -56 10.833 -106.167 32.5 -150.5s52.5 -79.166 92.5 -104.499s86.333 -38 139 -38
c52 0 98 12.667 138 38z" />
    <glyph glyph-name="ohorn" unicode="&#x1a1;" horiz-adv-x="666" 
d="M616.5 480c-11 -21.333 -25.1641 -39 -42.4971 -53c25.333 -44.667 38 -95.334 38 -152.001c0 -53.333 -11.667 -101.833 -35 -145.5s-56 -78.167 -98 -103.5s-90.667 -38 -146 -38s-104.166 12.667 -146.499 38s-75.166 59.833 -98.499 103.5s-35 92.167 -35 145.5
s11.667 101.833 35 145.5s56.166 78.167 98.499 103.5s91.166 38 146.499 38c47.333 0 90.166 -9.5 128.499 -28.5s69.833 -45.5 94.5 -79.5c11.333 10.667 20.666 23.167 27.999 37.5s11.666 27.5 12.999 39.5c-2 -0.666992 -5.33301 -1 -10 -1
c-10.667 0 -19.167 3.5 -25.5 10.5s-9.5 15.833 -9.5 26.5c0 10 3.5 18.667 10.5 26s15.833 11 26.5 11c12.667 0 23.167 -5 31.5 -15s12.5 -24 12.5 -42c0 -23.333 -5.5 -45.666 -16.5 -66.999zM449.503 68c33.667 20.667 59.667 49.167 78 85.5s27.5 76.833 27.5 121.5
c0 45.333 -9.16699 86.166 -27.5 122.499s-44.333 64.666 -78 84.999s-72.5 30.5 -116.5 30.5c-44.667 0 -83.667 -10.167 -117 -30.5s-59.166 -48.666 -77.499 -84.999s-27.5 -77.166 -27.5 -122.499c0 -44.667 9.16699 -85.167 27.5 -121.5s44.166 -64.833 77.499 -85.5
s72.333 -31 117 -31c44 0 82.833 10.333 116.5 31z" />
    <glyph glyph-name="Uhorn" unicode="&#x1af;" horiz-adv-x="686" 
d="M689 637c-21.333 -28 -49.999 -48.333 -85.999 -61v-320c0 -84 -22.167 -149.667 -66.5 -197s-108.833 -71 -193.5 -71c-84 0 -148.333 23.833 -193 71.5s-67 113.167 -67 196.5v411h58v-410c0 -68 17.5 -121.167 52.5 -159.5s84.833 -57.5 149.5 -57.5
c65.333 0 115.333 19 150 57s52 91.333 52 160v410h58v-57c22.667 10 41.667 24.667 57 44s23.333 39.333 24 60c-0.666992 -0.666992 -1.83398 -1.16699 -3.50098 -1.5s-3.5 -0.5 -5.5 -0.5c-10.667 0 -19.334 3.66699 -26.001 11s-10 16.333 -10 27
c0 10 3.5 18.667 10.5 26s15.833 11 26.5 11c12.667 0 23.334 -5.16699 32.001 -15.5s13 -24.5 13 -42.5c0 -33.333 -10.667 -64 -32 -92z" />
    <glyph glyph-name="uhorn" unicode="&#x1b0;" horiz-adv-x="613" 
d="M615 523c-20.667 -27.333 -48.335 -47.6689 -83.002 -61.002v-252c0 -69.333 -19.333 -123.666 -58 -162.999s-94.667 -59 -168 -59s-129.166 19.667 -167.499 59s-57.5 93.333 -57.5 162v341h55v-338c0 -55.333 14.667 -98.333 44 -129s71.333 -46 126 -46
s96.834 15.5 126.501 46.5s44.5 73.833 44.5 128.5v338h55v-54c22 10.667 40.167 25.334 54.5 44.001s21.833 37.667 22.5 57c-2 -0.666992 -5 -1 -9 -1c-10.667 0 -19.334 3.5 -26.001 10.5s-10 15.833 -10 26.5c0 10 3.5 18.833 10.5 26.5s15.833 11.5 26.5 11.5
c12.667 0 23.334 -5.16699 32.001 -15.5s13 -24.5 13 -42.5c0 -32.667 -10.333 -62.667 -31 -90z" />
    <glyph glyph-name="Gcaron" unicode="&#x1e6;" horiz-adv-x="711" 
d="M103 512.5c30 52.333 70.835 93.0039 122.502 122.004s108.5 43.5 170.5 43.5c101.333 0 185 -38 251 -114l-43 -31c-24 28.667 -54.167 51.334 -90.5 68.001s-75.5 25 -117.5 25c-52 0 -99.167 -12.333 -141.5 -37s-75.666 -59.334 -99.999 -104.001
s-36.5 -95.334 -36.5 -152.001c0 -56 12.167 -106.5 36.5 -151.5s57.666 -80 99.999 -105s89.5 -37.5 141.5 -37.5c40.667 0 78 8 112 24s62 35 84 57v160h-252v51h309v-233c-30.667 -34 -67.834 -61 -111.501 -81s-90.834 -30 -141.501 -30
c-62 0 -118.833 14.667 -170.5 44s-92.5 70.166 -122.5 122.499s-45 112.166 -45 179.499s15 127.166 45 179.499zM268.002 867.004h39l88 -113l83 113h40l-96 -144h-54z" />
    <glyph glyph-name="gcaron" unicode="&#x1e7;" horiz-adv-x="630" 
d="M91.5 423.5c25.667 43.667 60.834 77.667 105.501 102s94 36.5 148 36.5c86 0 158 -31.333 216 -94l-40 -32c-21.333 23.333 -47.5 42 -78.5 56s-63.5 21 -97.5 21c-44 0 -83.667 -10.167 -119 -30.5s-63.333 -48.5 -84 -84.5s-31 -77 -31 -123
c0 -45.333 10.333 -86.166 31 -122.499s48.834 -64.833 84.501 -85.5s75.167 -31 118.5 -31c33.333 0 64.166 6.5 92.499 19.5s51.833 28.167 70.5 45.5v128h-186v48h241v-196c-26.667 -28.667 -59 -51.334 -97 -68.001s-78.333 -25 -121 -25
c-54 0 -103.333 12.167 -148 36.5s-79.834 58.333 -105.501 102s-38.5 93.167 -38.5 148.5s12.833 104.833 38.5 148.5zM218 750h39l88 -113l83 113h40l-96 -144h-54z" />
    <glyph glyph-name="uni01EA" unicode="&#x1ea;" horiz-adv-x="764" 
d="M366 -102c0 -13.333 4.16797 -24.002 12.501 -32.002s19.833 -12 34.5 -12c12.667 0 24.334 3.33301 35.001 10l16 -34c-6.66699 -4.66699 -15.334 -8.5 -26.001 -11.5s-21.667 -4.5 -33 -4.5c-25.333 0 -47 6.5 -65 19.5s-27 30.833 -27 53.5c0 18.667 7 36.667 21 54
s33 33 57 47h-9c-64 0 -120.5 15 -169.5 45s-87 71.333 -114 124s-40.5 111.334 -40.5 176.001s13.5 123.334 40.5 176.001s65 94 114 124s105.5 45 169.5 45c63.333 0 119.666 -15 168.999 -45s87.5 -71.333 114.5 -124s40.5 -111.334 40.5 -176.001
c0 -56 -10.333 -107.667 -31 -155s-50 -87 -88 -119s-82.333 -53.333 -133 -64c-58.667 -29.333 -88 -61.666 -88 -96.999zM150.501 182.498c21.667 -44.333 52.501 -79.166 92.501 -104.499s86.333 -38 139 -38c52 0 98 12.667 138 38s71 60.166 93 104.499
s33 94.5 33 150.5c0 56.667 -10.833 107.167 -32.5 151.5s-52.5 79 -92.5 104s-86.333 37.5 -139 37.5c-53.333 0 -99.833 -12.5 -139.5 -37.5s-70.334 -59.667 -92.001 -104s-32.5 -94.833 -32.5 -151.5c0 -56 10.833 -106.167 32.5 -150.5z" />
    <glyph glyph-name="uni01EB" unicode="&#x1eb;" horiz-adv-x="666" 
d="M311 -102c0 -13.333 4.16504 -24 12.498 -32s19.833 -12 34.5 -12c12.667 0 24.334 3.33301 35.001 10l16 -34c-6.66699 -4.66699 -15.167 -8.5 -25.5 -11.5s-21.5 -4.5 -33.5 -4.5c-25.333 0 -47 6.5 -65 19.5s-27 30.833 -27 53.5c0 18.667 6.83301 36.667 20.5 54
s32.5 33 56.5 47h-2c-55.333 0 -104.166 12.667 -146.499 38s-75.166 59.833 -98.499 103.5s-35 92.167 -35 145.5s11.667 101.833 35 145.5s56.166 78.167 98.499 103.5s91.166 38 146.499 38s104.166 -12.667 146.499 -38s75 -59.833 98 -103.5s34.5 -92.167 34.5 -145.5
c0 -46 -8.66699 -88.5 -26 -127.5s-42.166 -71.833 -74.499 -98.5s-70.166 -44.667 -113.499 -54c-58 -30 -87 -62.333 -87 -97zM138.498 153.5c18.333 -36.333 44.166 -64.833 77.499 -85.5s72.333 -31 117 -31c44 0 82.833 10.333 116.5 31s59.667 49.167 78 85.5
s27.5 76.833 27.5 121.5c0 45.333 -9.16699 86.166 -27.5 122.499s-44.333 64.666 -78 84.999s-72.5 30.5 -116.5 30.5c-44.667 0 -83.667 -10.167 -117 -30.5s-59.166 -48.666 -77.499 -84.999s-27.5 -77.166 -27.5 -122.499c0 -44.667 9.16699 -85.167 27.5 -121.5z" />
    <glyph glyph-name="Aringacute" unicode="&#x1fa;" horiz-adv-x="647" 
d="M501 164h-355l-67 -164h-64l273 667h71l273 -667h-64zM164 216h319l-160 395zM256 878.5c18.667 19 41.334 28.5 68.001 28.5c26 0 48.167 -9.5 66.5 -28.5s27.5 -41.5 27.5 -67.5c0 -26.667 -9.16699 -49.334 -27.5 -68.001s-40.5 -28 -66.5 -28
c-26.667 0 -49.334 9.33301 -68.001 28s-28 41.334 -28 68.001c0 26 9.33301 48.5 28 67.5zM368.5 856c-12.333 12.667 -27.166 19 -44.499 19s-32.333 -6.33301 -45 -19s-19 -27.667 -19 -45s6.33301 -32.333 19 -45s27.667 -19 45 -19s32.166 6.33301 44.499 19
s18.5 27.667 18.5 45s-6.16699 32.333 -18.5 45zM299 935l154 144h62l-172 -144h-44z" />
    <glyph glyph-name="aringacute" unicode="&#x1fb;" horiz-adv-x="562" 
d="M550 0h-62l-58 133h-299l-56 -133h-63l237 550h64zM149 182h263l-131 311zM214 761.5c18.667 19 41.334 28.5 68.001 28.5c26 0 48.167 -9.5 66.5 -28.5s27.5 -41.5 27.5 -67.5c0 -26.667 -9.16699 -49.334 -27.5 -68.001s-40.5 -28 -66.5 -28
c-26.667 0 -49.334 9.33301 -68.001 28s-28 41.334 -28 68.001c0 26 9.33301 48.5 28 67.5zM326.5 739c-12.333 12.667 -27.166 19 -44.499 19s-32.333 -6.33301 -45 -19s-19 -27.667 -19 -45s6.33301 -32.333 19 -45s27.667 -19 45 -19s32.166 6.33301 44.499 19
s18.5 27.667 18.5 45s-6.16699 32.333 -18.5 45zM257 818l154 144h62l-172 -144h-44z" />
    <glyph glyph-name="AEacute" unicode="&#x1fc;" horiz-adv-x="939" 
d="M456 164h-275l-103 -164h-64l421 667h444v-52h-365v-247h358v-52h-358v-264h365v-52h-423v164zM209 216h247v396zM460 723l154 144h62l-172 -144h-44z" />
    <glyph glyph-name="aeacute" unicode="&#x1fd;" horiz-adv-x="811" 
d="M386 133h-227l-85 -133h-62l355 550h388v-49h-314v-194h308v-49h-308v-209h314v-49h-369v133zM188 182h198v311zM390 606l154 144h62l-172 -144h-44z" />
    <glyph glyph-name="Oslashacute" unicode="&#x1fe;" horiz-adv-x="764" 
d="M372 723h-44l154 144h62zM673.5 491.5c21.667 -48.333 32.499 -101.168 32.499 -158.501c0 -64.667 -13.5 -123.334 -40.5 -176.001s-65.167 -94 -114.5 -124s-105.666 -45 -168.999 -45c-62 0 -118 14.667 -168 44l-20 -32h-51l36 57
c-38.667 31.333 -68.5 70.833 -89.5 118.5s-31.5 100.167 -31.5 157.5c0 64.667 13.5 123.334 40.5 176.001s65 94 114 124s105.5 45 169.5 45c61.333 0 116 -14 164 -42l20 31h52l-36 -56c39.333 -31.333 69.833 -71.166 91.5 -119.499zM141.499 202.498
c15.667 -39.667 38.168 -72.5 67.501 -98.5l308 486c-39.333 24 -84.333 36 -135 36c-53.333 0 -99.833 -12.5 -139.5 -37.5s-70.334 -59.667 -92.001 -104s-32.5 -94.833 -32.5 -151.5c0 -47.333 7.83301 -90.833 23.5 -130.5zM520 77.998
c40 25.333 71.001 60.167 93.001 104.5s33 94.5 33 150.5c0 48 -8 92 -24 132s-39 73 -69 99l-310 -486c39.333 -25.333 85.666 -38 138.999 -38c52 0 98 12.667 138 38z" />
    <glyph glyph-name="oslashacute" unicode="&#x1ff;" horiz-adv-x="666" 
d="M587 401c16.667 -38.667 25.001 -80.667 25.001 -126c0 -53.333 -11.667 -101.833 -35 -145.5s-56 -78.167 -98 -103.5s-90.667 -38 -146 -38c-57.333 0 -108.333 14 -153 42l-21 -30h-51l39 54c-30 26.667 -53.167 59 -69.5 97s-24.5 79.333 -24.5 124
c0 53.333 11.667 101.833 35 145.5s56.166 78.167 98.499 103.5s91.166 38 146.499 38c57.333 0 107 -13.333 149 -40l20 28h51l-37 -52c30.667 -26 54.334 -58.333 71.001 -97zM128.501 175.5c11.667 -30.333 28.167 -56.1689 49.5 -77.502l274 382
c-34.667 22 -74.334 33 -119.001 33s-83.667 -10.167 -117 -30.5s-59.166 -48.666 -77.499 -84.999s-27.5 -77.166 -27.5 -122.499c0 -36 5.83301 -69.167 17.5 -99.5zM449.501 67.9971c33.667 20.667 59.667 49.166 78 85.499s27.5 76.833 27.5 121.5
c0 36.667 -6.16699 70.334 -18.5 101.001s-29.5 57 -51.5 79l-275 -383c36 -23.333 77 -35 123 -35c44 0 82.833 10.333 116.5 31zM309.001 605.996l154 144h62l-172 -144h-44z" />
    <glyph glyph-name="uni0218" unicode="&#x218;" horiz-adv-x="581" 
d="M83 137c24 -28 53.6719 -51.1641 89.0049 -69.4971s75 -27.5 119 -27.5c62 0 106.833 13.5 134.5 40.5s41.5 57.833 41.5 92.5c0 29.333 -8.16699 53.166 -24.5 71.499s-36.833 32.5 -61.5 42.5s-57 20.333 -97 31c-48 13.333 -86.167 25.833 -114.5 37.5
s-52.5 29.167 -72.5 52.5s-30 54 -30 92c0 35.333 9.66699 66.5 29 93.5s45.666 47.833 78.999 62.5s70.333 22 111 22c95.333 0 170.666 -31.333 225.999 -94l-38 -42c-23.333 28 -51.333 49 -84 63s-68.334 21 -107.001 21c-44.667 0 -81.834 -11.5 -111.501 -34.5
s-44.5 -52.5 -44.5 -88.5c0 -24.667 7.66699 -44.834 23 -60.501s34.5 -28 57.5 -37s54.167 -18.5 93.5 -28.5c48.667 -14 88 -27.5 118 -40.5s55.5 -32.333 76.5 -58s31.5 -59.5 31.5 -101.5c0 -31.333 -7.66699 -61.333 -23 -90s-40.666 -52.334 -75.999 -71.001
s-81.333 -28 -138 -28c-52.667 0 -99.834 9.5 -141.501 28.5s-75.834 44.833 -102.501 77.5zM239.005 -242.997c15.333 11.333 28.168 25.3311 38.501 41.998s15.833 32.334 16.5 47.001l-10 -1c-10.667 0 -19.334 3.5 -26.001 10.5s-10 16.167 -10 27.5
c0 10.667 3.66699 19.834 11 27.501s16.333 11.5 27 11.5c13.333 0 24.5 -5.33301 33.5 -16s13.5 -25 13.5 -43c0 -25.333 -6.33301 -49.5 -19 -72.5s-28.667 -41.5 -48 -55.5z" />
    <glyph glyph-name="uni0219" unicode="&#x219;" horiz-adv-x="499" 
d="M73 115c19.333 -22 44.666 -40.665 75.999 -55.998s65.333 -23 102 -23c50.667 0 88.167 10.5 112.5 31.5s36.5 47.167 36.5 78.5c0 24 -7 43.167 -21 57.5s-31.5 25.5 -52.5 33.5s-48.833 16.333 -83.5 25c-40.667 10 -73.334 19.667 -98.001 29
s-45.667 23.833 -63 43.5s-26 45.5 -26 77.5c0 29.333 8.5 55.333 25.5 78s40 40.334 69 53.001s60.833 19 95.5 19c82 0 147.667 -26.333 197 -79l-32 -38c-20 23.333 -44.333 40.666 -73 51.999s-59.334 17 -92.001 17c-37.333 0 -68.833 -9.66699 -94.5 -29
s-38.5 -43.333 -38.5 -72c0 -19.333 6.33301 -35.166 19 -47.499s28.5 -22 47.5 -29s45.167 -14.833 78.5 -23.5c42.667 -10.667 77.334 -21.334 104.001 -32.001s49.334 -26.834 68.001 -48.501s28 -50.167 28 -85.5c0 -46.667 -17.5 -84.834 -52.5 -114.501
s-86.833 -44.5 -155.5 -44.5c-45.333 0 -86.166 8 -122.499 24s-65.833 37.333 -88.5 64zM200 -242.998c15.333 11.333 28.168 25.3311 38.501 41.998s15.833 32.334 16.5 47.001l-10 -1c-10.667 0 -19.334 3.5 -26.001 10.5s-10 16.167 -10 27.5
c0 10.667 3.66699 19.834 11 27.501s16.333 11.5 27 11.5c13.333 0 24.5 -5.33301 33.5 -16s13.5 -25 13.5 -43c0 -25.333 -6.33301 -49.5 -19 -72.5s-28.667 -41.5 -48 -55.5z" />
    <glyph glyph-name="uni021A" unicode="&#x21a;" horiz-adv-x="564" 
d="M253 615h-218v52h494v-52h-218v-615h-58v615zM236 -243c15.333 11.333 28.168 25.3311 38.501 41.998s15.833 32.334 16.5 47.001l-10 -1c-10.667 0 -19.334 3.5 -26.001 10.5s-10 16.167 -10 27.5c0 10.667 3.66699 19.834 11 27.501s16.333 11.5 27 11.5
c13.333 0 24.5 -5.33301 33.5 -16s13.5 -25 13.5 -43c0 -25.333 -6.33301 -49.5 -19 -72.5s-28.667 -41.5 -48 -55.5z" />
    <glyph glyph-name="uni021B" unicode="&#x21b;" horiz-adv-x="465" 
d="M205 501h-176v49h408v-49h-177v-501h-55v501zM185 -243c15.333 11.333 28.168 25.3311 38.501 41.998s15.833 32.334 16.5 47.001l-10 -1c-10.667 0 -19.334 3.5 -26.001 10.5s-10 16.167 -10 27.5c0 10.667 3.66699 19.834 11 27.501s16.333 11.5 27 11.5
c13.333 0 24.5 -5.33301 33.5 -16s13.5 -25 13.5 -43c0 -25.333 -6.33301 -49.5 -19 -72.5s-28.667 -41.5 -48 -55.5z" />
    <glyph glyph-name="uni0232" unicode="&#x232;" horiz-adv-x="618" 
d="M280 285l-265 382h69l225 -328l225 328h69l-265 -382v-285h-58v285zM161 781h295v-37h-295v37z" />
    <glyph glyph-name="uni0233" unicode="&#x233;" horiz-adv-x="539" 
d="M244 235l-232 315h66l194 -266l190 266h65l-228 -315v-235h-55v235zM121 664h295v-37h-295v37z" />
    <glyph glyph-name="uni0237" unicode="&#x237;" horiz-adv-x="214" 
d="M-40 -143c14 -4.66699 27.666 -7 40.999 -7c24.667 0 44.167 7.16699 58.5 21.5s21.5 36.5 21.5 66.5v545h52v-545c0 -44 -11.167 -77.333 -33.5 -100s-53.833 -34 -94.5 -34c-19.333 0 -37.666 2.66699 -54.999 8z" />
    <glyph glyph-name="uni0259" unicode="&#x259;" horiz-adv-x="567" 
d="M483 114c-20 -38.667 -47.668 -69.334 -83.001 -92.001s-75 -34 -119 -34c-47.333 0 -88.166 11.5 -122.499 34.5s-60.5 53.833 -78.5 92.5s-27 81.667 -27 129v15h404c-2 35.333 -10.833 67.5 -26.5 96.5s-37.5 52 -65.5 69s-60.333 25.5 -97 25.5
c-30.667 0 -59.5 -5.66699 -86.5 -17s-50.833 -28 -71.5 -50l-27 34c50 52 113 78 189 78c46.667 0 88.167 -10.833 124.5 -32.5s64.833 -51.667 85.5 -90s31 -82.166 31 -131.499c0 -46 -10 -88.333 -30 -127zM374.999 60.5c26 18.333 45.833 41.498 59.5 69.498
s21.167 57 22.5 87h-351c0 -29.333 6.5 -58.166 19.5 -86.499s32.833 -51.666 59.5 -69.999s59 -27.5 97 -27.5c36 0 67 9.16699 93 27.5z" />
    <glyph glyph-name="uni0272" unicode="&#x272;" horiz-adv-x="625" 
d="M544 550v-550.001h-54l-354 467v-493c0 -55.333 -16.667 -97.5 -50 -126.5s-76.333 -43.5 -129 -43.5c-16.667 0 -33 2 -49 6l7 49c11.333 -4 24.666 -6 39.999 -6c38.667 0 69.334 11.333 92.001 34s34 52.334 34 89.001v574h55l353 -460v460h55z" />
    <glyph glyph-name="uni02B0" unicode="&#x2b0;" horiz-adv-x="392" 
d="M285 534c0 28.667 -6.5 48.832 -19.5 60.499s-31.833 17.5 -56.5 17.5c-19.333 0 -38.5 -5 -57.5 -15s-33.833 -22 -44.5 -36v-235h-42v434h42v-167c12.667 14.667 29.667 27.5 51 38.5s43.333 16.5 66 16.5c34.667 0 60.667 -8.66699 78 -26s26 -44.666 26 -81.999v-214
h-43v208z" />
    <glyph glyph-name="uni02BC" unicode="&#x2bc;" horiz-adv-x="219" 
d="M144 660c10 -11.333 15.001 -27.001 15.001 -47.001c0 -26.667 -6.83301 -52.5 -20.5 -77.5s-30.834 -44.5 -51.501 -58.5l-29 24c16 10.667 29.333 24.834 40 42.501s16.667 34.5 18 50.5c-0.666992 -0.666992 -2 -1.16699 -4 -1.5s-4 -0.5 -6 -0.5
c-12 0 -21.833 4 -29.5 12s-11.5 18 -11.5 30c0 11.333 4.16699 21.333 12.5 30s18.5 13 30.5 13c14 0 26 -5.66699 36 -17z" />
    <glyph glyph-name="circumflex" unicode="&#x2c6;" horiz-adv-x="250" 
d="M124 669l-85 -113h-39l97 144h54l99 -144h-40z" />
    <glyph glyph-name="caron" unicode="&#x2c7;" horiz-adv-x="250" 
d="M0 700h39l88 -113l83 113h40l-96 -144h-54z" />
    <glyph glyph-name="uni02C9" unicode="&#x2c9;" horiz-adv-x="363" 
d="M34 629h295v-38h-295v38z" />
    <glyph glyph-name="uni02CB" unicode="&#x2cb;" horiz-adv-x="216" 
d="M0 700h62l154 -144h-44z" />
    <glyph glyph-name="breve" unicode="&#x2d8;" horiz-adv-x="351" 
d="M77 570.5c-30.667 15.667 -56.333 37.167 -77 64.5l29 25c16.667 -23.333 37.667 -41.666 63 -54.999s53.333 -20 84 -20c30 0 57.667 6.66699 83 20s46.666 31.666 63.999 54.999l28 -25c-20.667 -27.333 -46.167 -48.833 -76.5 -64.5s-63.166 -23.5 -98.499 -23.5
s-68.333 7.83301 -99 23.5z" />
    <glyph glyph-name="dotaccent" unicode="&#x2d9;" horiz-adv-x="113" 
d="M30 630c7.33301 7.33301 16.333 11 27 11c10 0 18.667 -3.66699 26 -11s11 -16.333 11 -27s-3.66699 -19.667 -11 -27s-16 -11 -26 -11c-10.667 0 -19.667 3.66699 -27 11s-11 16.333 -11 27s3.66699 19.667 11 27z" />
    <glyph glyph-name="ring" unicode="&#x2da;" horiz-adv-x="230" 
d="M48 711.5c18.667 19 41.334 28.5 68.001 28.5c26 0 48.167 -9.5 66.5 -28.5s27.5 -41.5 27.5 -67.5c0 -26.667 -9.16699 -49.334 -27.5 -68.001s-40.5 -28 -66.5 -28c-26.667 0 -49.334 9.33301 -68.001 28s-28 41.334 -28 68.001c0 26 9.33301 48.5 28 67.5zM160.5 689
c-12.333 12.667 -27.166 19 -44.499 19s-32.333 -6.33301 -45 -19s-19 -27.667 -19 -45s6.33301 -32.333 19 -45s27.667 -19 45 -19s32.166 6.33301 44.499 19s18.5 27.667 18.5 45s-6.16699 32.333 -18.5 45z" />
    <glyph glyph-name="ogonek" unicode="&#x2db;" horiz-adv-x="185" 
d="M142 -181.5c-10.667 -3 -21.667 -4.5 -33 -4.5c-25.333 0 -47 6.5 -65 19.5s-27 30.833 -27 53.5s10.333 44.5 31 65.5s47.667 38.833 81 53.5l39 -6c-65.333 -30.667 -98 -64.667 -98 -102c0 -13.333 4.16699 -24 12.5 -32s19.833 -12 34.5 -12
c12.667 0 24.334 3.33301 35.001 10l16 -34c-6.66699 -4.66699 -15.334 -8.5 -26.001 -11.5z" />
    <glyph glyph-name="tilde" unicode="&#x2dc;" horiz-adv-x="307" 
d="M115.5 645.5c-7 7.66699 -15.832 11.499 -26.499 11.499c-16 0 -29 -8 -39 -24s-15 -40.333 -15 -73h-35c0 38.667 8.16699 70.667 24.5 96s39.166 38 68.499 38c18 0 32.167 -4.83301 42.5 -14.5s21.166 -24.167 32.499 -43.5c9.33301 -15.333 17.333 -26.5 24 -33.5
s15.334 -10.5 26.001 -10.5c16 0 28.833 8 38.5 24s14.5 40 14.5 72h36c0 -39.333 -8 -71.5 -24 -96.5s-38.667 -37.5 -68 -37.5c-18.667 0 -33 4.83301 -43 14.5s-21 24.167 -33 43.5c-8.66699 14.667 -16.5 25.834 -23.5 33.501z" />
    <glyph glyph-name="hungarumlaut" unicode="&#x2dd;" horiz-adv-x="291" 
d="M0 556l97 144h55l-115 -144h-37zM139 556l97 144h55l-115 -144h-37z" />
    <glyph glyph-name="gravecomb" unicode="&#x300;" horiz-adv-x="0" 
d="M-216 700h62l154 -144h-44z" />
    <glyph glyph-name="acutecomb" unicode="&#x301;" horiz-adv-x="0" 
d="M-216 556l154 144h62l-172 -144h-44z" />
    <glyph glyph-name="uni0302" unicode="&#x302;" horiz-adv-x="0" 
d="M-126 669l-85 -113h-39l97 144h54l99 -144h-40z" />
    <glyph glyph-name="tildecomb" unicode="&#x303;" horiz-adv-x="0" 
d="M-191.5 645.5c-7 7.66699 -15.832 11.499 -26.499 11.499c-16 0 -29 -8 -39 -24s-15 -40.333 -15 -73h-35c0 38.667 8.16699 70.667 24.5 96s39.166 38 68.499 38c18 0 32.167 -4.83301 42.5 -14.5s21.166 -24.167 32.499 -43.5c9.33301 -15.333 17.333 -26.5 24 -33.5
s15.334 -10.5 26.001 -10.5c16 0 28.833 8 38.5 24s14.5 40 14.5 72h36c0 -39.333 -8 -71.5 -24 -96.5s-38.667 -37.5 -68 -37.5c-18.667 0 -33 4.83301 -43 14.5s-21 24.167 -33 43.5c-8.66699 14.667 -16.5 25.834 -23.5 33.501z" />
    <glyph glyph-name="uni0304" unicode="&#x304;" horiz-adv-x="0" 
d="M-329 614h295v-37h-295v37z" />
    <glyph glyph-name="uni0306" unicode="&#x306;" horiz-adv-x="0" 
d="M-274 570.5c-30.667 15.667 -56.333 37.167 -77 64.5l29 25c16.667 -23.333 37.667 -41.666 63 -54.999s53.333 -20 84 -20c30 0 57.667 6.66699 83 20s46.666 31.666 63.999 54.999l28 -25c-20.667 -27.333 -46.167 -48.833 -76.5 -64.5s-63.166 -23.5 -98.499 -23.5
s-68.333 7.83301 -99 23.5z" />
    <glyph glyph-name="uni0307" unicode="&#x307;" horiz-adv-x="0" 
d="M-83 630c7.33301 7.33301 16.333 11 27 11c10 0 18.667 -3.66699 26 -11s11 -16.333 11 -27s-3.66699 -19.667 -11 -27s-16 -11 -26 -11c-10.667 0 -19.667 3.66699 -27 11s-11 16.333 -11 27s3.66699 19.667 11 27z" />
    <glyph glyph-name="uni0308" unicode="&#x308;" horiz-adv-x="0" 
d="M-333 579c-7.33301 7.33301 -11 16.333 -11 27c0 10 3.66699 18.667 11 26s16 11 26 11s18.667 -3.66699 26 -11s11 -16 11 -26c0 -10.667 -3.66699 -19.667 -11 -27s-16 -11 -26 -11s-18.667 3.66699 -26 11zM-129 579c-7.33301 7.33301 -11 16.333 -11 27
c0 10 3.66699 18.667 11 26s16 11 26 11s18.833 -3.66699 26.5 -11s11.5 -16 11.5 -26c0 -10.667 -3.83301 -19.667 -11.5 -27s-16.5 -11 -26.5 -11s-18.667 3.66699 -26 11z" />
    <glyph glyph-name="uni0309" unicode="&#x309;" horiz-adv-x="0" 
d="M-147 696.5c15.333 13 34.667 19.502 58 19.502c25.333 0 46.333 -7.33301 63 -22s25 -36.667 25 -66c0 -13.333 -2 -25.333 -6 -36s-10.667 -22.334 -20 -35.001h-43c21.333 22 32 45.667 32 71c0 17.333 -4.5 30.666 -13.5 39.999s-21.5 14 -37.5 14
c-27.333 0 -46 -15.333 -56 -46l-34 11c6 20 16.667 36.5 32 49.5z" />
    <glyph glyph-name="uni030A" unicode="&#x30a;" horiz-adv-x="0" 
d="M-182 711.5c18.667 19 41.334 28.5 68.001 28.5c26 0 48.167 -9.5 66.5 -28.5s27.5 -41.5 27.5 -67.5c0 -26.667 -9.16699 -49.334 -27.5 -68.001s-40.5 -28 -66.5 -28c-26.667 0 -49.334 9.33301 -68.001 28s-28 41.334 -28 68.001c0 26 9.33301 48.5 28 67.5z
M-69.5 689c-12.333 12.667 -27.166 19 -44.499 19s-32.333 -6.33301 -45 -19s-19 -27.667 -19 -45s6.33301 -32.333 19 -45s27.667 -19 45 -19s32.166 6.33301 44.499 19s18.5 27.667 18.5 45s-6.16699 32.333 -18.5 45z" />
    <glyph glyph-name="uni030B" unicode="&#x30b;" horiz-adv-x="0" 
d="M-291 556l97 144h55l-115 -144h-37zM-152 556l97 144h55l-115 -144h-37z" />
    <glyph glyph-name="uni030C" unicode="&#x30c;" horiz-adv-x="0" 
d="M-250 700h39l88 -113l83 113h40l-96 -144h-54z" />
    <glyph glyph-name="dotbelowcomb" unicode="&#x323;" horiz-adv-x="0" 
d="M-83 -92c7.33301 7.33301 16.333 11 27 11c10 0 18.667 -3.66699 26 -11s11 -16.333 11 -27s-3.66699 -19.667 -11 -27s-16 -11 -26 -11c-10.667 0 -19.667 3.66699 -27 11s-11 16.333 -11 27s3.66699 19.667 11 27z" />
    <glyph glyph-name="uni0326" unicode="&#x326;" horiz-adv-x="0" 
d="M-158 -243c15.333 11.333 28.168 25.3311 38.501 41.998s15.833 32.334 16.5 47.001l-10 -1c-10.667 0 -19.334 3.5 -26.001 10.5s-10 16.167 -10 27.5c0 10.667 3.66699 19.834 11 27.501s16.333 11.5 27 11.5c13.333 0 24.5 -5.33301 33.5 -16s13.5 -25 13.5 -43
c0 -25.333 -6.33301 -49.5 -19 -72.5s-28.667 -41.5 -48 -55.5z" />
    <glyph glyph-name="uni0327" unicode="&#x327;" horiz-adv-x="0" 
d="M-182 -128c23.333 -18.667 50.001 -27.998 80.001 -27.998c18.667 0 34.167 4.16699 46.5 12.5s18.5 20.166 18.5 35.499c0 10.667 -3.5 19.334 -10.5 26.001s-17.167 10 -30.5 10c-16.667 0 -30 -5.66699 -40 -17l-28 16l31 84h38l-26 -68c10 8 22.333 12 37 12
c19.333 0 35.166 -5.83301 47.499 -17.5s18.5 -26.834 18.5 -45.501c-0 -24.667 -9.66699 -44.334 -29 -59.001s-43.333 -22 -72 -22c-19.333 0 -37.833 2.83301 -55.5 8.5s-31.5 12.5 -41.5 20.5z" />
    <glyph glyph-name="uni0328" unicode="&#x328;" horiz-adv-x="0" 
d="M-43 -181.5c-10.667 -3 -21.667 -4.5 -33 -4.5c-25.333 0 -47 6.5 -65 19.5s-27 30.833 -27 53.5s10.333 44.5 31 65.5s47.667 38.833 81 53.5l39 -6c-65.333 -30.667 -98 -64.667 -98 -102c0 -13.333 4.16699 -24 12.5 -32s19.833 -12 34.5 -12
c12.667 0 24.334 3.33301 35.001 10l16 -34c-6.66699 -4.66699 -15.334 -8.5 -26.001 -11.5z" />
    <glyph glyph-name="uni037E" unicode="&#x37e;" horiz-adv-x="219" 
d="M78 416c-8.66699 8.66699 -13 18.667 -13 30c0 12 4.33301 22.333 13 31s19 13 31 13s22.5 -4.33301 31.5 -13s13.5 -19 13.5 -31c0 -11.333 -4.5 -21.333 -13.5 -30s-19.5 -13 -31.5 -13s-22.333 4.33301 -31 13zM58 -98c16 10.667 29.334 24.833 40.001 42.5
s16.667 34.167 18 49.5l-10 -1c-12 0 -21.833 4 -29.5 12s-11.5 18 -11.5 30c0 11.333 4.16699 21.333 12.5 30s18.5 13 30.5 13c14 0 26 -5.66699 36 -17s15 -27 15 -47c0 -26.667 -6.83301 -52.5 -20.5 -77.5s-30.834 -44.833 -51.501 -59.5z" />
    <glyph glyph-name="tonos" unicode="&#x384;" horiz-adv-x="116" 
d="M35 770h64l-52 -196h-30z" />
    <glyph glyph-name="dieresistonos" unicode="&#x385;" horiz-adv-x="364" 
d="M173 770h64l-52 -196h-30zM28 579c-7.33301 7.33301 -11 16.333 -11 27c0 10 3.66699 18.667 11 26s16 11 26 11s18.667 -3.66699 26 -11s11 -16 11 -26c0 -10.667 -3.66699 -19.667 -11 -27s-16 -11 -26 -11s-18.667 3.66699 -26 11zM283.5 579
c-7 7.33301 -10.5 16.333 -10.5 27c0 10 3.5 18.667 10.5 26s15.833 11 26.5 11c10 0 18.667 -3.66699 26 -11s11 -16 11 -26c0 -10.667 -3.66699 -19.667 -11 -27s-16 -11 -26 -11c-10.667 0 -19.5 3.66699 -26.5 11z" />
    <glyph glyph-name="Alphatonos" unicode="&#x386;" horiz-adv-x="647" 
d="M501 164h-355l-67 -164h-64l273 667h71l273 -667h-64zM164 216h319l-160 395zM133 667h64l-52 -196h-30z" />
    <glyph glyph-name="Epsilontonos" unicode="&#x388;" horiz-adv-x="612" 
d="M131 667h423v-52h-366v-247h359v-52h-359v-264h366v-52h-423v667zM13 667h64l-52 -196h-30z" />
    <glyph glyph-name="Etatonos" unicode="&#x389;" horiz-adv-x="751" 
d="M611 317h-423v-317h-57v667h57v-298h423v298h58v-667h-58v317zM13 667h64l-52 -196h-30z" />
    <glyph glyph-name="Iotatonos" unicode="&#x38a;" horiz-adv-x="271" 
d="M131 667h57v-667h-57v667zM13 667h64l-52 -196h-30z" />
    <glyph glyph-name="Omicrontonos" unicode="&#x38c;" horiz-adv-x="775" 
d="M109.5 509c27 52.667 65 94 114 124s105.5 45 169.5 45c63.333 0 119.666 -15 168.999 -45s87.5 -71.333 114.5 -124s40.5 -111.334 40.5 -176.001s-13.5 -123.334 -40.5 -176.001s-65.167 -94 -114.5 -124s-105.666 -45 -168.999 -45c-64 0 -120.5 15 -169.5 45
s-87 71.333 -114 124s-40.5 111.334 -40.5 176.001s13.5 123.334 40.5 176.001zM624.5 484.5c-21.667 44.333 -52.499 79 -92.499 104s-86.333 37.5 -139 37.5c-53.333 0 -99.833 -12.5 -139.5 -37.5s-70.334 -59.667 -92.001 -104s-32.5 -94.833 -32.5 -151.5
c0 -56 10.833 -106.167 32.5 -150.5s52.5 -79.166 92.5 -104.499s86.333 -38 139 -38c52 0 98 12.667 138 38s71 60.166 93 104.499s33 94.5 33 150.5c0 56.667 -10.833 107.167 -32.5 151.5zM19.001 667h64l-52 -196h-30z" />
    <glyph glyph-name="Upsilontonos" unicode="&#x38e;" horiz-adv-x="707" 
d="M369 285l-265 382h69l225 -328l225 328h69l-265 -382v-285h-58v285zM13 667h64l-52 -196h-30z" />
    <glyph glyph-name="Omegatonos" unicode="&#x38f;" horiz-adv-x="772" 
d="M108.5 168.5c-28.333 48.333 -42.499 105.833 -42.499 172.5c0 64 13.5 121.5 40.5 172.5s65 91.167 114 120.5s105.5 44 169.5 44s120.5 -14.667 169.5 -44s87 -69.5 114 -120.5s40.5 -108.5 40.5 -172.5c0 -66.667 -14 -124.167 -42 -172.5s-67 -87.166 -117 -116.499
h142v-52h-228v52c31.333 8 61 24 89 48s51 55.833 69 95.5s27 85.5 27 137.5c0 55.333 -10.5 105.166 -31.5 149.499s-51.5 79.166 -91.5 104.499s-87 38 -141 38s-101 -12.667 -141 -38s-70.5 -60.166 -91.5 -104.499s-31.5 -94.166 -31.5 -149.499
c0 -52 9 -97.833 27 -137.5s41.167 -71.5 69.5 -95.5s58.166 -40 89.499 -48v-52h-227v52h141c-50 29.333 -89.167 68.166 -117.5 116.499zM13.001 667h64l-52 -196h-30z" />
    <glyph glyph-name="iotadieresistonos" unicode="&#x390;" horiz-adv-x="228" 
d="M81 483h52v-384c0 -19.333 4.16699 -34.833 12.5 -46.5s20.5 -17.5 36.5 -17.5c8 0 14.667 0.666992 20 2l4 -46c-8 -2 -18.333 -3 -31 -3c-31.333 0 -54.833 9 -70.5 27s-23.5 44 -23.5 78v390zM109 770h64l-52 -196h-30zM-36 579c-7.33301 7.33301 -11 16.333 -11 27
c0 10 3.66699 18.667 11 26s16 11 26 11s18.667 -3.66699 26 -11s11 -16 11 -26c0 -10.667 -3.66699 -19.667 -11 -27s-16 -11 -26 -11s-18.667 3.66699 -26 11zM219.5 579c-7 7.33301 -10.5 16.333 -10.5 27c0 10 3.5 18.667 10.5 26s15.833 11 26.5 11
c10 0 18.667 -3.66699 26 -11s11 -16 11 -26c0 -10.667 -3.66699 -19.667 -11 -27s-16 -11 -26 -11c-10.667 0 -19.5 3.66699 -26.5 11z" />
    <glyph glyph-name="Alpha" unicode="&#x391;" horiz-adv-x="647" 
d="M501 164h-355l-67 -164h-64l273 667h71l273 -667h-64zM164 216h319l-160 395z" />
    <glyph glyph-name="Beta" unicode="&#x392;" horiz-adv-x="614" 
d="M83 667l274 -0.000976562c56 0 100.667 -15.333 134 -46s50 -72 50 -124c0 -40 -11.5 -73.833 -34.5 -101.5s-50.5 -44.834 -82.5 -51.501c23.333 -3.33301 45 -13.166 65 -29.499s35.833 -36.333 47.5 -60s17.5 -48.5 17.5 -74.5c0 -55.333 -17 -99.166 -51 -131.499
s-80.667 -48.5 -140 -48.5h-280v667zM350 367.999c41.333 0 73.5 11.5 96.5 34.5s34.5 52.5 34.5 88.5c0 35.333 -11.5 64.833 -34.5 88.5s-55.167 35.5 -96.5 35.5h-210v-247h210zM354 51.999c44 0 78.333 11.8311 103 35.498s37 55.834 37 96.501
c0 36.667 -12.333 67.834 -37 93.501s-59 38.5 -103 38.5h-214v-264h214z" />
    <glyph glyph-name="Gamma" unicode="&#x393;" horiz-adv-x="542" 
d="M83 667h423v-52h-366v-615h-57v667z" />
    <glyph glyph-name="uni0394" unicode="&#x394;" horiz-adv-x="647" 
d="M288 667h71l273 -667h-617zM98 52h451l-226 554z" />
    <glyph glyph-name="Epsilon" unicode="&#x395;" horiz-adv-x="564" 
d="M83 667h423v-52h-366v-247h359v-52h-359v-264h366v-52h-423v667z" />
    <glyph glyph-name="Zeta" unicode="&#x396;" horiz-adv-x="581" 
d="M50 50l402 565h-402v52h474v-49l-402 -566h409v-52h-481v50z" />
    <glyph glyph-name="Eta" unicode="&#x397;" horiz-adv-x="703" 
d="M563 317h-423v-317h-57v667h57v-298h423v298h58v-667h-58v317z" />
    <glyph glyph-name="Theta" unicode="&#x398;" horiz-adv-x="764" 
d="M98.5 509c27 52.667 65 94 114 124s105.5 45 169.5 45c63.333 0 119.666 -15 168.999 -45s87.5 -71.333 114.5 -124s40.5 -111.334 40.5 -176.001s-13.5 -123.334 -40.5 -176.001s-65.167 -94 -114.5 -124s-105.666 -45 -168.999 -45c-64 0 -120.5 15 -169.5 45
s-87 71.333 -114 124s-40.5 111.334 -40.5 176.001s13.5 123.334 40.5 176.001zM613.5 484.5c-21.667 44.333 -52.499 79 -92.499 104s-86.333 37.5 -139 37.5c-53.333 0 -99.833 -12.5 -139.5 -37.5s-70.334 -59.667 -92.001 -104s-32.5 -94.833 -32.5 -151.5
c0 -56 10.833 -106.167 32.5 -150.5s52.5 -79.166 92.5 -104.499s86.333 -38 139 -38c52 0 98 12.667 138 38s71 60.166 93 104.499s33 94.5 33 150.5c0 56.667 -10.833 107.167 -32.5 151.5zM181.001 368h402v-52h-402v52z" />
    <glyph glyph-name="Iota" unicode="&#x399;" horiz-adv-x="223" 
d="M83 667h57v-667h-57v667z" />
    <glyph glyph-name="Kappa" unicode="&#x39a;" horiz-adv-x="586" 
d="M214 314l-74 -81v-233h-57v667h57v-365l322 365h73l-284 -318l311 -349h-73z" />
    <glyph glyph-name="Lambda" unicode="&#x39b;" horiz-adv-x="647" 
d="M323 606l-242 -606h-66l273 667h71l273 -667h-66z" />
    <glyph glyph-name="Mu" unicode="&#x39c;" horiz-adv-x="790" 
d="M649 592l-243 -592h-22l-244 592v-592h-57v667h85l227 -553l226 553h86v-667h-58v592z" />
    <glyph glyph-name="Nu" unicode="&#x39d;" horiz-adv-x="699" 
d="M140 576v-576h-57v667h58l418 -568v568h57v-667h-56z" />
    <glyph glyph-name="Xi" unicode="&#x39e;" horiz-adv-x="612" 
d="M59 667h494v-52h-494v52zM66 368h481v-52h-481v52zM58 52h495v-52h-495v52z" />
    <glyph glyph-name="Omicron" unicode="&#x39f;" horiz-adv-x="764" 
d="M98.5 509c27 52.667 65 94 114 124s105.5 45 169.5 45c63.333 0 119.666 -15 168.999 -45s87.5 -71.333 114.5 -124s40.5 -111.334 40.5 -176.001s-13.5 -123.334 -40.5 -176.001s-65.167 -94 -114.5 -124s-105.666 -45 -168.999 -45c-64 0 -120.5 15 -169.5 45
s-87 71.333 -114 124s-40.5 111.334 -40.5 176.001s13.5 123.334 40.5 176.001zM613.5 484.5c-21.667 44.333 -52.499 79 -92.499 104s-86.333 37.5 -139 37.5c-53.333 0 -99.833 -12.5 -139.5 -37.5s-70.334 -59.667 -92.001 -104s-32.5 -94.833 -32.5 -151.5
c0 -56 10.833 -106.167 32.5 -150.5s52.5 -79.166 92.5 -104.499s86.333 -38 139 -38c52 0 98 12.667 138 38s71 60.166 93 104.499s33 94.5 33 150.5c0 56.667 -10.833 107.167 -32.5 151.5z" />
    <glyph glyph-name="Pi" unicode="&#x3a0;" horiz-adv-x="703" 
d="M563 615h-423v-615h-57v667h538v-667h-58v615z" />
    <glyph glyph-name="Rho" unicode="&#x3a1;" 
d="M83 667l250.002 0.00195312c41.333 0 77.166 -8.83301 107.499 -26.5s53.5 -41.334 69.5 -71.001s24 -62.167 24 -97.5s-8 -67.833 -24 -97.5s-39.333 -53.334 -70 -71.001s-66.334 -26.5 -107.001 -26.5h-193v-277h-57v667zM433.502 575.002
c-27 26.667 -62.5 40 -106.5 40h-187v-286h187c44 0 79.5 13.333 106.5 40s40.5 61 40.5 103s-13.5 76.333 -40.5 103z" />
    <glyph glyph-name="Sigma" unicode="&#x3a3;" 
d="M513 52v-52h-455v52l243 291l-242 272v52h454v-52h-384l242 -271l-245 -292h387z" />
    <glyph glyph-name="Tau" unicode="&#x3a4;" horiz-adv-x="564" 
d="M253 615h-218v52h494v-52h-218v-615h-58v615z" />
    <glyph glyph-name="Upsilon" unicode="&#x3a5;" horiz-adv-x="618" 
d="M280 285l-265 382h69l225 -328l225 328h69l-265 -382v-285h-58v285z" />
    <glyph glyph-name="Phi" unicode="&#x3a6;" horiz-adv-x="785" 
d="M689.5 199.5c-25 -39.667 -60.667 -71.3281 -107 -94.9951s-100.166 -36.834 -161.499 -39.501v-65h-57v65c-62 2.66699 -116 16 -162 40s-81.5 55.667 -106.5 95s-37.5 83.666 -37.5 132.999s12.5 93.666 37.5 132.999s60.5 71 106.5 95s100 37.333 162 40v66h57v-66
c61.333 -2.66699 115.166 -15.834 161.499 -39.501s82 -55.334 107 -95.001s37.5 -84.167 37.5 -133.5s-12.5 -93.833 -37.5 -133.5zM147.5 225.506c19.667 -31.667 48.167 -57 85.5 -76s81 -29.833 131 -32.5v432c-50 -2.66699 -93.667 -13.5 -131 -32.5
s-65.833 -44.333 -85.5 -76s-29.5 -67.5 -29.5 -107.5s9.83301 -75.833 29.5 -107.5zM551.5 149.506c37 19 65.333 44.333 85 76s29.5 67.5 29.5 107.5s-9.83301 75.833 -29.5 107.5s-48 57 -85 76s-80.5 29.833 -130.5 32.5v-432c50 2.66699 93.5 13.5 130.5 32.5z" />
    <glyph glyph-name="Chi" unicode="&#x3a7;" horiz-adv-x="645" 
d="M322 301l-232 -301h-72l269 342l-254 325h73l216 -283l217 283h72l-253 -324l268 -343h-71z" />
    <glyph glyph-name="Psi" unicode="&#x3a8;" horiz-adv-x="766" 
d="M683 667v-274.999c0 -80 -23.167 -143.333 -69.5 -190s-113.5 -72.334 -201.5 -77.001v-125h-58v125c-88 4.66699 -155.167 30.5 -201.5 77.5s-69.5 110.167 -69.5 189.5v275h58v-274c0 -64.667 18.167 -115.667 54.5 -153s89.166 -58.333 158.499 -63v490h58v-490
c68.667 4.66699 121.334 25.667 158.001 63s55 88.333 55 153v274h58z" />
    <glyph glyph-name="uni03A9" unicode="&#x3a9;" horiz-adv-x="764" 
d="M100.5 168.5c-28.333 48.333 -42.499 105.833 -42.499 172.5c0 64 13.5 121.5 40.5 172.5s65 91.167 114 120.5s105.5 44 169.5 44s120.5 -14.667 169.5 -44s87 -69.5 114 -120.5s40.5 -108.5 40.5 -172.5c0 -66.667 -14 -124.167 -42 -172.5s-67 -87.166 -117 -116.499
h142v-52h-228v52c31.333 8 61 24 89 48s51 55.833 69 95.5s27 85.5 27 137.5c0 55.333 -10.5 105.166 -31.5 149.499s-51.5 79.166 -91.5 104.499s-87 38 -141 38s-101 -12.667 -141 -38s-70.5 -60.166 -91.5 -104.499s-31.5 -94.166 -31.5 -149.499
c0 -52 9 -97.833 27 -137.5s41.167 -71.5 69.5 -95.5s58.166 -40 89.499 -48v-52h-227v52h141c-50 29.333 -89.167 68.166 -117.5 116.499z" />
    <glyph glyph-name="Iotadieresis" unicode="&#x3aa;" horiz-adv-x="223" 
d="M83 667h57v-667h-57v667zM-16 746c-7.33301 7.33301 -11 16.333 -11 27c0 10 3.66699 18.667 11 26s16 11 26 11s18.667 -3.66699 26 -11s11 -16 11 -26c0 -10.667 -3.66699 -19.667 -11 -27s-16 -11 -26 -11s-18.667 3.66699 -26 11zM188 746
c-7.33301 7.33301 -11 16.333 -11 27c0 10 3.66699 18.667 11 26s16 11 26 11s18.833 -3.66699 26.5 -11s11.5 -16 11.5 -26c0 -10.667 -3.83301 -19.667 -11.5 -27s-16.5 -11 -26.5 -11s-18.667 3.66699 -26 11z" />
    <glyph glyph-name="Upsilondieresis" unicode="&#x3ab;" horiz-adv-x="618" 
d="M280 285l-265 382h69l225 -328l225 328h69l-265 -382v-285h-58v285zM181 746c-7.33301 7.33301 -11 16.333 -11 27c0 10 3.66699 18.667 11 26s16 11 26 11s18.667 -3.66699 26 -11s11 -16 11 -26c0 -10.667 -3.66699 -19.667 -11 -27s-16 -11 -26 -11
s-18.667 3.66699 -26 11zM385 746c-7.33301 7.33301 -11 16.333 -11 27c0 10 3.66699 18.667 11 26s16 11 26 11s18.833 -3.66699 26.5 -11s11.5 -16 11.5 -26c0 -10.667 -3.83301 -19.667 -11.5 -27s-16.5 -11 -26.5 -11s-18.667 3.66699 -26 11z" />
    <glyph glyph-name="alphatonos" unicode="&#x3ac;" horiz-adv-x="585" 
d="M532 -12c-28.667 0 -50.668 8 -66.001 24s-24.333 38.333 -27 67c-17.333 -26.667 -41.166 -48.5 -71.499 -65.5s-63.166 -25.5 -98.499 -25.5c-42.667 0 -80.334 10.333 -113.001 31s-58 50.167 -76 88.5s-27 82.833 -27 133.5s9 95.167 27 133.5s43.5 68 76.5 89
s70.5 31.5 112.5 31.5c34 0 65.5 -8 94.5 -24s53.5 -38 73.5 -66v78h53v-384c0 -19.333 4.33301 -34.833 13 -46.5s20.667 -17.5 36 -17.5c8 0 14.667 0.666992 20 2l4 -46c-8 -2 -18.333 -3 -31 -3zM436.999 360c-14.667 24 -36.667 44.667 -66 62s-60.333 26 -93 26
c-52 0 -93.167 -19.5 -123.5 -58.5s-45.5 -88.5 -45.5 -148.5s15.167 -109.333 45.5 -148s71.5 -58 123.5 -58c32.667 0 63.667 8.33301 93 25s51.333 37 66 61v239zM289.999 770h64l-52 -196h-30z" />
    <glyph glyph-name="epsilontonos" unicode="&#x3ad;" horiz-adv-x="486" 
d="M106 27c-35.333 26 -52.999 59.6641 -52.999 100.997c0 36.667 13 64.834 39 84.501s54.333 30.834 85 33.501c-28.667 4 -54.834 16.333 -78.501 37s-35.5 48.334 -35.5 83.001c0 40 17.833 71.5 53.5 94.5s80.834 34.5 135.501 34.5c42 0 78 -7 108 -21
s56.333 -33.667 79 -59l-31 -33c-20 23.333 -42.333 40.5 -67 51.5s-54.667 16.5 -90 16.5c-38 0 -69.667 -8.16699 -95 -24.5s-38 -37.5 -38 -63.5c0 -31.333 13 -55 39 -71s60 -24 102 -24h84v-44h-84c-100 0 -150 -30.667 -150 -92c0 -30 12.833 -54 38.5 -72
s60.5 -27 104.5 -27c35.333 0 66.333 5.83301 93 17.5s51 29.5 73 53.5l31 -36c-48.667 -52.667 -114.334 -79 -197.001 -79c-62 0 -110.667 13 -146 39zM256.001 769.997h64l-52 -196h-30z" />
    <glyph glyph-name="etatonos" unicode="&#x3ae;" horiz-adv-x="540" 
d="M407 327c0 44 -10 75.167 -30 93.5s-49 27.5 -87 27.5c-30 0 -59.667 -8 -89 -24s-52 -35.667 -68 -59v-365h-52v483h52v-73c19.333 22.667 45 42.5 77 59.5s64.333 25.5 97 25.5c101.333 0 152 -52.333 152 -157v-522h-52v511zM273 770h64l-52 -196h-30z" />
    <glyph glyph-name="iotatonos" unicode="&#x3af;" horiz-adv-x="228" 
d="M81 483h52v-384c0 -19.333 4.16699 -34.833 12.5 -46.5s20.5 -17.5 36.5 -17.5c8 0 14.667 0.666992 20 2l4 -46c-8 -2 -18.333 -3 -31 -3c-31.333 0 -54.833 9 -70.5 27s-23.5 44 -23.5 78v390zM110 770h64l-52 -196h-30z" />
    <glyph glyph-name="upsilondieresistonos" unicode="&#x3b0;" horiz-adv-x="555" 
d="M129.5 47c-32.333 39.333 -48.5039 93.332 -48.5039 161.999v274h52v-273c0 -54.667 12 -97.5 36 -128.5s57.667 -46.5 101 -46.5c36.667 0 68.334 9.66699 95.001 29s46.834 45 60.501 77s20.5 67 20.5 105c0 90.667 -26.333 164.667 -79 222l45 27
c28.667 -34 50.834 -72.167 66.501 -114.5s23.5 -87.166 23.5 -134.499c0 -48.667 -9.5 -92.5 -28.5 -131.5s-46.167 -69.833 -81.5 -92.5s-76 -34 -122 -34c-61.333 0 -108.166 19.667 -140.499 59zM271.996 769.999h64l-52 -196h-30zM126.996 578.999
c-7.33301 7.33301 -11 16.333 -11 27c0 10 3.66699 18.667 11 26s16 11 26 11s18.667 -3.66699 26 -11s11 -16 11 -26c0 -10.667 -3.66699 -19.667 -11 -27s-16 -11 -26 -11s-18.667 3.66699 -26 11zM382.496 578.999c-7 7.33301 -10.5 16.333 -10.5 27
c0 10 3.5 18.667 10.5 26s15.833 11 26.5 11c10 0 18.667 -3.66699 26 -11s11 -16 11 -26c0 -10.667 -3.66699 -19.667 -11 -27s-16 -11 -26 -11c-10.667 0 -19.5 3.66699 -26.5 11z" />
    <glyph glyph-name="alpha" unicode="&#x3b1;" horiz-adv-x="585" 
d="M532 -12c-28.667 0 -50.668 8 -66.001 24s-24.333 38.333 -27 67c-17.333 -26.667 -41.166 -48.5 -71.499 -65.5s-63.166 -25.5 -98.499 -25.5c-42.667 0 -80.334 10.333 -113.001 31s-58 50.167 -76 88.5s-27 82.833 -27 133.5s9 95.167 27 133.5s43.5 68 76.5 89
s70.5 31.5 112.5 31.5c34 0 65.5 -8 94.5 -24s53.5 -38 73.5 -66v78h53v-384c0 -19.333 4.33301 -34.833 13 -46.5s20.667 -17.5 36 -17.5c8 0 14.667 0.666992 20 2l4 -46c-8 -2 -18.333 -3 -31 -3zM436.999 360c-14.667 24 -36.667 44.667 -66 62s-60.333 26 -93 26
c-52 0 -93.167 -19.5 -123.5 -58.5s-45.5 -88.5 -45.5 -148.5s15.167 -109.333 45.5 -148s71.5 -58 123.5 -58c32.667 0 63.667 8.33301 93 25s51.333 37 66 61v239z" />
    <glyph glyph-name="beta" unicode="&#x3b2;" 
d="M81 -184v642c0 48 10.167 88.5 30.5 121.5s47.166 57.5 80.499 73.5s69.666 24 108.999 24c36.667 0 70.334 -7 101.001 -21s55 -34.167 73 -60.5s27 -57.833 27 -94.5c0 -46 -14.167 -82 -42.5 -108s-60.166 -42 -95.499 -48c22 -2 44.833 -9.66699 68.5 -23
s43.667 -32.333 60 -57s24.5 -54.667 24.5 -90c0 -37.333 -9 -70 -27 -98s-42.833 -49.833 -74.5 -65.5s-67.834 -23.5 -108.501 -23.5c-37.333 0 -71.166 8.16699 -101.499 24.5s-54.5 37.833 -72.5 64.5v-261h-52zM200.5 60c29.667 -16.667 61.168 -25 94.501 -25
c52.667 0 93.5 13 122.5 39s43.5 61.667 43.5 107c0 46 -16.333 80.667 -49 104s-74.334 35 -125.001 35h-33v46h32c46 0 84.167 11.167 114.5 33.5s45.5 54.833 45.5 97.5c0 40 -14 72.167 -42 96.5s-62.333 36.5 -103 36.5c-48 0 -88 -14.833 -120 -44.5
s-48 -72.167 -48 -127.5v-337c15.333 -24 37.833 -44.333 67.5 -61z" />
    <glyph glyph-name="gamma" unicode="&#x3b3;" horiz-adv-x="481" 
d="M214 -37c0 98.667 -20.333 194.832 -61 288.499s-92.667 170.834 -156 231.501h64c47.333 -46 89.5 -108.833 126.5 -188.5s59.167 -154.5 66.5 -224.5c42 56.667 76.333 122 103 196s40 146.333 40 217h52c0 -76.667 -16.333 -157.667 -49 -243s-77 -164 -133 -236v-188
h-53v147z" />
    <glyph glyph-name="delta" unicode="&#x3b4;" 
d="M405 414c30.667 -15.333 57.165 -38.833 79.498 -70.5s33.5 -73.5 33.5 -125.5c0 -39.333 -9.5 -76.666 -28.5 -111.999s-46.167 -63.833 -81.5 -85.5s-75.666 -32.5 -120.999 -32.5c-46 0 -86.833 10.833 -122.5 32.5s-63.167 50.167 -82.5 85.5s-29 73 -29 113
c0 51.333 14 95.666 42 132.999s65.333 65 112 83c-30 12 -53.167 26.333 -69.5 43s-24.5 39 -24.5 67c0 38.667 15.333 70.667 46 96s72.667 38 126 38c72 0 129.333 -23.667 172 -71l-29 -37c-14.667 19.333 -34.5 34.833 -59.5 46.5s-52.833 17.5 -83.5 17.5
c-37.333 0 -66.833 -8.33301 -88.5 -25s-32.5 -37.667 -32.5 -63c0 -22.667 10.167 -40 30.5 -52s51.833 -24.333 94.5 -37c46.667 -14 85.334 -28.667 116.001 -44zM381.998 62.5c27.333 18.333 48.167 41.499 62.5 69.499s21.5 56.667 21.5 86
c0 40.667 -8.83301 73.334 -26.5 98.001s-39.5 43.667 -65.5 57s-60 26.666 -102 39.999c-52.667 -14.667 -93 -38.834 -121 -72.501s-42 -74.167 -42 -121.5c0 -29.333 7.16699 -58.166 21.5 -86.499s34.833 -51.666 61.5 -69.999s58 -27.5 94 -27.5
c36.667 0 68.667 9.16699 96 27.5z" />
    <glyph glyph-name="epsilon" unicode="&#x3b5;" horiz-adv-x="486" 
d="M106 27c-35.333 26 -52.999 59.6641 -52.999 100.997c0 36.667 13 64.834 39 84.501s54.333 30.834 85 33.501c-28.667 4 -54.834 16.333 -78.501 37s-35.5 48.334 -35.5 83.001c0 40 17.833 71.5 53.5 94.5s80.834 34.5 135.501 34.5c42 0 78 -7 108 -21
s56.333 -33.667 79 -59l-31 -33c-20 23.333 -42.333 40.5 -67 51.5s-54.667 16.5 -90 16.5c-38 0 -69.667 -8.16699 -95 -24.5s-38 -37.5 -38 -63.5c0 -31.333 13 -55 39 -71s60 -24 102 -24h84v-44h-84c-100 0 -150 -30.667 -150 -92c0 -30 12.833 -54 38.5 -72
s60.5 -27 104.5 -27c35.333 0 66.333 5.83301 93 17.5s51 29.5 73 53.5l31 -36c-48.667 -52.667 -114.334 -79 -197.001 -79c-62 0 -110.667 13 -146 39z" />
    <glyph glyph-name="zeta" unicode="&#x3b6;" horiz-adv-x="491" 
d="M126.5 55c-49 36.667 -73.499 89 -73.499 157c0 152.667 107 289 321 409h-305v46h375v-42c-110 -64.667 -193.333 -130.167 -250 -196.5s-85 -137.833 -85 -214.5c0 -55.333 19.667 -97 59 -125s93 -42 161 -42c78 0 117 -31 117 -93c0 -30 -13 -67 -39 -111h-58
c13.333 21.333 23.666 40.5 30.999 57.5s11 32.5 11 46.5c0 16.667 -5.5 29.667 -16.5 39s-27.833 14 -50.5 14c-82.667 -0 -148.5 18.333 -197.5 55z" />
    <glyph glyph-name="eta" unicode="&#x3b7;" horiz-adv-x="540" 
d="M407 327c0 44 -10 75.167 -30 93.5s-49 27.5 -87 27.5c-30 0 -59.667 -8 -89 -24s-52 -35.667 -68 -59v-365h-52v483h52v-73c19.333 22.667 45 42.5 77 59.5s64.333 25.5 97 25.5c101.333 0 152 -52.333 152 -157v-522h-52v511z" />
    <glyph glyph-name="theta" unicode="&#x3b8;" 
d="M459 583c39.333 -64 59 -147 59 -249s-19.667 -185.167 -59 -249.5s-97.333 -96.5 -174 -96.5c-50.667 0 -93.5 15.167 -128.5 45.5s-61 71.5 -78 123.5s-25.5 111 -25.5 177c0 102 19.667 185 59 249s97 96 173 96c76.667 0 134.667 -32 174 -96zM155.5 556
c-28.333 -50.667 -43.5 -116.332 -45.5 -196.999h351c-2 81.333 -17.167 147.166 -45.5 197.499s-71.833 75.5 -130.5 75.5c-58 0 -101.167 -25.333 -129.5 -76zM415.5 111.502c28.333 51 43.5 117.833 45.5 200.5h-351c2 -82.667 17.167 -149.5 45.5 -200.5
s71.5 -76.5 129.5 -76.5c58.667 0 102.167 25.5 130.5 76.5z" />
    <glyph glyph-name="iota" unicode="&#x3b9;" horiz-adv-x="228" 
d="M81 483h52v-384c0 -19.333 4.16699 -34.833 12.5 -46.5s20.5 -17.5 36.5 -17.5c8 0 14.667 0.666992 20 2l4 -46c-8 -2 -18.333 -3 -31 -3c-31.333 0 -54.833 9 -70.5 27s-23.5 44 -23.5 78v390z" />
    <glyph glyph-name="kappa" unicode="&#x3ba;" horiz-adv-x="505" 
d="M223 230l-90 -85v-145h-52v483h52v-276l285 276h69l-225 -218l224 -265h-70z" />
    <glyph glyph-name="lambda" unicode="&#x3bb;" horiz-adv-x="481" 
d="M224 589l250 -589h-59l-174 422l-176 -422h-58l204 487l-38 86c-9.33301 22 -19.666 37.333 -30.999 46s-25.333 13 -42 13c-6.66699 0 -14 -0.666992 -22 -2s-14.667 -3.33301 -20 -6l-9 48c15.333 4.66699 32.333 7 51 7c57.333 -1.33301 98.666 -31.333 123.999 -90z
" />
    <glyph glyph-name="uni03BC" unicode="&#x3bc;" horiz-adv-x="554" 
d="M81 -184v667h52v-328c0 -81.333 39.333 -122 118 -122c29.333 0 58.5 8 87.5 24s51.833 35.333 68.5 58v368h52v-384c0 -19.333 4.16699 -34.833 12.5 -46.5s20.5 -17.5 36.5 -17.5c8 0 14.667 0.666992 20 2l4 -46c-8 -2 -18.333 -3 -31 -3c-54 0 -85 28.667 -93 86
c-19.333 -24.667 -43.5 -45.167 -72.5 -61.5s-58.5 -24.5 -88.5 -24.5c-56 0 -94 18.667 -114 56v-228h-52z" />
    <glyph glyph-name="nu" unicode="&#x3bd;" horiz-adv-x="481" 
d="M7 483h58l178 -429c47.333 64 84.833 133.667 112.5 209s41.5 148.666 41.5 219.999h52c0 -77.333 -16.667 -159.166 -50 -245.499s-78.333 -165.5 -135 -237.5h-53z" />
    <glyph glyph-name="xi" unicode="&#x3be;" horiz-adv-x="491" 
d="M76 261c15.333 24 34.168 42.332 56.501 54.999s44.166 20.334 65.499 23.001c-33.333 6 -64 20.5 -92 43.5s-42 54.5 -42 94.5c0 30 10.833 58.5 32.5 85.5s48.5 46.5 80.5 58.5h-106v46h363v-46h-187c-36 -8.66699 -66.167 -26 -90.5 -52s-36.5 -53.667 -36.5 -83
c0 -38 16 -67.333 48 -88s71.667 -31 119 -31h140v-46h-140c-52 0 -94.667 -11.5 -128 -34.5s-50 -57.833 -50 -104.5c0 -45.333 18.833 -79.333 56.5 -102s92.167 -34 163.5 -34c78 0 117 -30.667 117 -92c0 -30 -13 -67 -39 -111h-58c28 46 42 81.667 42 107
c0 32.667 -22.333 49 -67 49c-87.333 0 -154.333 14.833 -201 44.5s-70 73.5 -70 131.5c0 33.333 7.66699 62 23 86z" />
    <glyph glyph-name="omicron" unicode="&#x3bf;" 
d="M163.5 21.5c-35 22.333 -62.167 52.833 -81.5 91.5s-29 81.667 -29 129s9.66699 90.166 29 128.499s46.5 68.666 81.5 90.999s75.5 33.5 121.5 33.5c46.667 0 87.667 -11.167 123 -33.5s62.5 -52.666 81.5 -90.999s28.5 -81.166 28.5 -128.499s-9.5 -90.333 -28.5 -129
s-46.167 -69.167 -81.5 -91.5s-76.333 -33.5 -123 -33.5c-46 0 -86.5 11.167 -121.5 33.5zM380 63.5c26.667 19 47 44.333 61 76s21 65.834 21 102.501s-7 70.667 -21 102s-34.333 56.5 -61 75.5s-58.334 28.5 -95.001 28.5c-36 0 -67.333 -9.5 -94 -28.5
s-47 -44.167 -61 -75.5s-21 -65.333 -21 -102s7 -70.834 21 -102.501s34.333 -57 61 -76s58 -28.5 94 -28.5c36.667 0 68.334 9.5 95.001 28.5z" />
    <glyph glyph-name="pi" unicode="&#x3c0;" horiz-adv-x="561" 
d="M417 437h-273v-437h-53v437h-80v46h539v-46h-80v-437h-53v437z" />
    <glyph glyph-name="rho" unicode="&#x3c1;" horiz-adv-x="567" 
d="M133 -184h-51.999v426c0 47.333 9 90.166 27 128.499s43.333 68.666 76 90.999s70.667 33.5 114 33.5s81.666 -11.167 114.999 -33.5s59 -52.666 77 -90.999s27 -81.166 27 -128.499c0 -50.667 -9 -95.167 -27 -133.5s-43.333 -68 -76 -89s-70.334 -31.5 -113.001 -31.5
c-33.333 0 -64.666 8 -93.999 24s-54 38 -74 66v-262zM441.501 344c-13 31.333 -31.834 56.499 -56.501 75.499s-54 28.5 -88 28.5s-63.333 -9.5 -88 -28.5s-43.5 -44.167 -56.5 -75.5s-19.5 -65.333 -19.5 -102v-119c14.667 -24 36.834 -44.667 66.501 -62
s60.5 -26 92.5 -26c52.667 0 94 19.333 124 58s45 88.334 45 149.001c0 36.667 -6.5 70.667 -19.5 102z" />
    <glyph glyph-name="uni03C2" unicode="&#x3c2;" horiz-adv-x="479" 
d="M82.5 370c19.667 38.667 47.334 69.1631 83.001 91.4961s76.5 33.5 122.5 33.5c39.333 0 72.333 -7 99 -21s50.667 -34.333 72 -61l-36 -32c-32.667 44.667 -76.667 67 -132 67c-36.667 0 -68.834 -9 -96.501 -27s-48.834 -42.667 -63.501 -74s-22 -66.333 -22 -105
c0 -66 19.333 -115 58 -147s91.334 -48 158.001 -48c41.333 0 71.5 -6.16699 90.5 -18.5s28.5 -33.166 28.5 -62.499c0 -16 -3.5 -35.167 -10.5 -57.5s-16.5 -44.166 -28.5 -65.499h-54c12 19.333 22 39.833 30 61.5s12 39.834 12 54.501c0 15.333 -5.83301 26 -17.5 32
s-29.5 9 -53.5 9c-83.333 0 -149 20.833 -197 62.5s-72 101.5 -72 179.5c0 46.667 9.83301 89.334 29.5 128.001z" />
    </font>
</defs>
</svg>
