<?xml version="1.0" standalone="no"?>
<!DOCTYPE svg PUBLIC "-//W3C//DTD SVG 1.1//EN" "http://www.w3.org/Graphics/SVG/1.1/DTD/svg11.dtd" >
<svg>
<metadata>
Created by FontForge 20090914 at Sat Mar  4 06:12:24 2017
 By www-data
Copyright (c) Mark Simonson, 2005. All rights reserved.
</metadata>
<defs>
<font id="ProximaNovaA-Semibold" horiz-adv-x="567" >
  <font-face 
    font-family="Proxima Nova A Semibold"
    font-weight="600"
    font-stretch="normal"
    units-per-em="1000"
    panose-1="2 0 5 6 3 0 0 2 0 4"
    ascent="790"
    descent="-210"
    x-height="482.999"
    cap-height="667"
    bbox="-373 -355.001 1170 1079"
    underline-thickness="20"
    underline-position="-113"
    unicode-range="U+000D-U+FB03"
  />
<missing-glyph horiz-adv-x="493" 
d="M71 752h351v-842h-351v842zM102 722v-782h288v782h-288z" />
    <glyph glyph-name="f_f_j" unicode="ffj" horiz-adv-x="857" 
d="M93 391l-80 0.000976562v92h80v27c0 52.667 14 93.667 42 123s65 44 111 44c34 0 62 -6.33301 84 -19l-23 -77c-11.333 6.66699 -25.333 10 -42 10c-20.667 0 -37 -6.83301 -49 -20.5s-18 -33.834 -18 -60.501v-27h98v-92h-98v-391h-105v391zM401 391.001
l-80 0.000976562v92h80v27c0 52.667 14 93.667 42 123s65 44 111 44c34 0 62 -6.33301 84 -19l-23 -78c-10.667 7.33301 -24.667 11 -42 11c-20.667 0 -37 -6.83301 -49 -20.5s-18 -33.834 -18 -60.501v-27h98v-92h-98v-391h-105v391zM690.5 576.002
c-13 12.667 -19.5 28 -19.5 46s6.5 33.333 19.5 46s28.167 19 45.5 19c18 0 33.333 -6.33301 46 -19s19 -28 19 -46s-6.33301 -33.333 -19 -46s-28 -19 -46 -19c-17.333 0 -32.5 6.33301 -45.5 19zM789 -27.998c0 -52.667 -13.667 -93.833 -41 -123.5s-67 -44.5 -119 -44.5
c-19.333 0 -37.333 1.66699 -54 5l11 87c8 -2 18 -3 30 -3c20.667 0 37.167 6.33301 49.5 19s18.5 32.667 18.5 60v511h105v-511z" />
    <glyph glyph-name="f_j" unicode="fj" horiz-adv-x="549" 
d="M93 391l-80 0.000976562v92h80v27c0 52.667 14 93.667 42 123s65 44 111 44c34 0 62 -6.33301 84 -19l-23 -78c-10.667 7.33301 -24.667 11 -42 11c-20.667 0 -37 -6.83301 -49 -20.5s-18 -33.834 -18 -60.501v-27h98v-92h-98v-391h-105v391zM382.5 576.001
c-13 12.667 -19.5 28 -19.5 46s6.5 33.333 19.5 46s28.167 19 45.5 19c18 0 33.333 -6.33301 46 -19s19 -28 19 -46s-6.33301 -33.333 -19 -46s-28 -19 -46 -19c-17.333 0 -32.5 6.33301 -45.5 19zM481 -27.999c0 -52.667 -13.667 -93.833 -41 -123.5s-67 -44.5 -119 -44.5
c-19.333 0 -37.333 1.66699 -54 5l11 87c8 -2 18 -3 30 -3c20.667 0 37.167 6.33301 49.5 19s18.5 32.667 18.5 60v511h105v-511z" />
    <glyph glyph-name="f_f" unicode="ff" horiz-adv-x="616" 
d="M93 391l-80 0.000976562v92h80v27c0 52.667 14 93.667 42 123s65 44 111 44c34 0 62 -6.33301 84 -19l-23 -77c-11.333 6.66699 -25.333 10 -42 10c-20.667 0 -37 -6.83301 -49 -20.5s-18 -33.834 -18 -60.501v-27h98v-92h-98v-391h-105v391zM401 391.001
l-80 0.000976562v92h80v27c0 52.667 14 93.667 42 123s65 44 111 44c34 0 62 -6.33301 84 -19l-23 -77c-11.333 6.66699 -25.333 10 -42 10c-20.667 0 -37 -6.83301 -49 -20.5s-18 -33.834 -18 -60.501v-27h98v-92h-98v-391h-105v391z" />
    <glyph glyph-name="fi" unicode="fi" horiz-adv-x="549" 
d="M93 391l-80 0.000976562v92h80v27c0 52.667 14 93.667 42 123s65 44 111 44c34 0 62 -6.33301 84 -19l-23 -78c-10.667 7.33301 -24.667 11 -42 11c-20.667 0 -37 -6.83301 -49 -20.5s-18 -33.834 -18 -60.501v-27h98v-92h-98v-391h-105v391zM382.5 576.001
c-13 12.667 -19.5 28 -19.5 46s6.5 33.333 19.5 46s28.167 19 45.5 19c18 0 33.333 -6.33301 46 -19s19 -28 19 -46s-6.33301 -33.333 -19 -46s-28 -19 -46 -19c-17.333 0 -32.5 6.33301 -45.5 19zM376 483.001h105v-483h-105v483z" />
    <glyph glyph-name="fl" unicode="fl" horiz-adv-x="593" 
d="M93 391l-80 0.000976562v92h80v27c0 52.667 14 93.667 42 123s65 44 111 44c34 0 62 -6.33301 84 -19l-23 -78c-10.667 7.33301 -24.667 11 -42 11c-20.667 0 -37 -6.83301 -49 -20.5s-18 -33.834 -18 -60.501v-27h98v-92h-98v-391h-105v391zM407.5 20.001
c-21 21.333 -31.5 51.999 -31.5 91.999v555h105v-529c0 -17.333 4 -31.166 12 -41.499s19.333 -15.5 34 -15.5c9.33301 0 18.333 1.66699 27 5s15 7.33301 19 12l25 -79c-22 -20.667 -54.667 -31 -98 -31c-40.667 0 -71.5 10.667 -92.5 32z" />
    <glyph glyph-name="f_f_i" unicode="ffi" horiz-adv-x="857" 
d="M93 391l-80 0.000976562v92h80v27c0 52.667 14 93.667 42 123s65 44 111 44c34 0 62 -6.33301 84 -19l-23 -77c-11.333 6.66699 -25.333 10 -42 10c-20.667 0 -37 -6.83301 -49 -20.5s-18 -33.834 -18 -60.501v-27h98v-92h-98v-391h-105v391zM401 391.001
l-80 0.000976562v92h80v27c0 52.667 14 93.667 42 123s65 44 111 44c34 0 62 -6.33301 84 -19l-23 -78c-10.667 7.33301 -24.667 11 -42 11c-20.667 0 -37 -6.83301 -49 -20.5s-18 -33.834 -18 -60.501v-27h98v-92h-98v-391h-105v391zM690.5 576.002
c-13 12.667 -19.5 28 -19.5 46s6.5 33.333 19.5 46s28.167 19 45.5 19c18 0 33.333 -6.33301 46 -19s19 -28 19 -46s-6.33301 -33.333 -19 -46s-28 -19 -46 -19c-17.333 0 -32.5 6.33301 -45.5 19zM684 483.002h105v-483h-105v483z" />
    <glyph glyph-name="f_b" unicode="fb" horiz-adv-x="889" 
d="M93 391l-80 0.000976562v92h80v27c0 52.667 14 93.667 42 123s65 44 111 44c34 0 62 -6.33301 84 -19l-23 -78c-10.667 7.33301 -24.667 11 -42 11c-20.667 0 -37 -6.83301 -49 -20.5s-18 -33.834 -18 -60.501v-27h98v-92h-98v-391h-105v391zM376 667.001
l105 -0.00195312v-251c18.667 25.333 41.5 44.833 68.5 58.5s55.833 20.5 86.5 20.5c41.333 0 78.166 -10.333 110.499 -31s57.666 -50.167 75.999 -88.5s27.5 -83.166 27.5 -134.499c0 -52 -9.16699 -97 -27.5 -135s-43.666 -67.167 -75.999 -87.5
s-69.166 -30.5 -110.499 -30.5c-30.667 0 -59.5 6.83301 -86.5 20.5s-49.833 32.834 -68.5 57.501v-66h-105v667zM533.5 99.499c23.667 -12.333 47.5 -18.499 71.5 -18.499c41.333 0 74.5 14.833 99.5 44.5s37.5 68.167 37.5 115.5s-12.5 86 -37.5 116s-58.167 45 -99.5 45
c-24 0 -47.667 -6.33301 -71 -19s-41 -28.334 -53 -47.001v-191c11.333 -18 28.833 -33.167 52.5 -45.5z" />
    <glyph glyph-name="f_h" unicode="fh" horiz-adv-x="876" 
d="M93 391l-80 0.000976562v92h80v27c0 52.667 14 93.667 42 123s65 44 111 44c34 0 62 -6.33301 84 -19l-23 -78c-10.667 7.33301 -24.667 11 -42 11c-20.667 0 -37 -6.83301 -49 -20.5s-18 -33.834 -18 -60.501v-27h98v-92h-98v-391h-105v391zM703 304.001
c0 35.333 -8.49805 60.501 -25.498 75.501s-41.167 22.5 -72.5 22.5c-24.667 0 -48 -6.33301 -70 -19s-40 -28 -54 -46v-337h-105v667h105v-250c18 21.333 42.167 39.666 72.5 54.999s63.166 23 98.499 23c51.333 0 90.166 -13 116.499 -39s39.5 -64 39.5 -114v-342h-105
v304z" />
    <glyph glyph-name="f_k" unicode="fk" horiz-adv-x="834" 
d="M93 391l-80 0.000976562v92h80v27c0 52.667 14 93.667 42 123s65 44 111 44c34 0 62 -6.33301 84 -19l-23 -78c-10.667 7.33301 -24.667 11 -42 11c-20.667 0 -37 -6.83301 -49 -20.5s-18 -33.834 -18 -60.501v-27h98v-92h-98v-391h-105v391zM548 199.001l-67 -69v-130
h-105v667h105v-417l213 233h130l-201 -219l205 -264h-132z" />
    <glyph glyph-name="f_f_l" unicode="ffl" horiz-adv-x="901" 
d="M93 391l-80 0.000976562v92h80v27c0 52.667 14 93.667 42 123s65 44 111 44c34 0 62 -6.33301 84 -19l-23 -77c-11.333 6.66699 -25.333 10 -42 10c-20.667 0 -37 -6.83301 -49 -20.5s-18 -33.834 -18 -60.501v-27h98v-92h-98v-391h-105v391zM401 391.001
l-80 0.000976562v92h80v27c0 52.667 14 93.667 42 123s65 44 111 44c34 0 62 -6.33301 84 -19l-23 -78c-10.667 7.33301 -24.667 11 -42 11c-20.667 0 -37 -6.83301 -49 -20.5s-18 -33.834 -18 -60.501v-27h98v-92h-98v-391h-105v391zM715.5 20.002
c-21 21.333 -31.5 51.999 -31.5 91.999v555h105v-529c0 -17.333 4 -31.166 12 -41.499s19.333 -15.5 34 -15.5c9.33301 0 18.333 1.66699 27 5s15 7.33301 19 12l25 -79c-22 -20.667 -54.667 -31 -98 -31c-40.667 0 -71.5 10.667 -92.5 32z" />
    <glyph glyph-name=".notdef" horiz-adv-x="493" 
d="M71 752h351v-842h-351v842zM102 722v-782h288v782h-288z" />
    <glyph glyph-name="NULL" horiz-adv-x="0" 
 />
    <glyph glyph-name="NULL" horiz-adv-x="0" 
 />
    <glyph glyph-name="nonmarkingreturn" unicode="&#xd;" horiz-adv-x="0" 
 />
    <glyph glyph-name="space" unicode=" " horiz-adv-x="257" 
 />
    <glyph glyph-name="exclam" unicode="!" horiz-adv-x="245" 
d="M58 667h128l-18 -463h-91zM73.5 108.5c13.667 13.667 29.834 20.5 48.501 20.5c19.333 0 35.833 -6.83301 49.5 -20.5s20.5 -30.167 20.5 -49.5c0 -18.667 -7 -34.834 -21 -48.501s-30.333 -20.5 -49 -20.5s-34.834 6.83301 -48.501 20.5s-20.5 29.834 -20.5 48.501
c0 19.333 6.83301 35.833 20.5 49.5z" />
    <glyph glyph-name="quotedbl" unicode="&#x22;" horiz-adv-x="379" 
d="M62.5 515.5c-9.66699 61 -14.5 95.167 -14.5 102.5c0 16 5.66699 29.833 17 41.5s25.333 17.5 42 17.5c16 0 29.833 -5.83301 41.5 -17.5s17.5 -25.5 17.5 -41.5c0 -7.33301 -4.83301 -41.5 -14.5 -102.5s-16.5 -102.5 -20.5 -124.5h-48c-4 22 -10.833 63.5 -20.5 124.5z
M228.5 515.5c-9.66699 61 -14.5 95.167 -14.5 102.5c0 16 5.66699 29.833 17 41.5s25.333 17.5 42 17.5c16 0 29.667 -5.83301 41 -17.5s17 -25.5 17 -41.5c0 -7.33301 -4.83301 -41.5 -14.5 -102.5s-16.5 -102.5 -20.5 -124.5h-47c-4 22 -10.833 63.5 -20.5 124.5z" />
    <glyph glyph-name="numbersign" unicode="#" horiz-adv-x="606" 
d="M301 174h-102l-58 -174h-80l58 174h-100l22 69h102l59 180h-102l21 68h105l58 176h80l-58 -176h101l58 176h80l-59 -176h101l-20 -68h-104l-60 -180h105l-21 -69h-107l-58 -174h-80zM282 423l-59 -180h100l60 180h-101z" />
    <glyph glyph-name="dollar" unicode="$" horiz-adv-x="605" 
d="M509.5 56.5c-36.333 -37.667 -90.1621 -59.834 -161.495 -66.501v-90h-80v89c-96 7.33301 -173.667 42.333 -233 105l65 90c21.333 -22 46.166 -41 74.499 -57s59.5 -26.667 93.5 -32v193c-42.667 10.667 -78.834 22.834 -108.501 36.501s-54.334 33.167 -74.001 58.5
s-29.5 58.333 -29.5 99c0 34 8.66699 65 26 93s42.166 51 74.499 69s69.5 28.667 111.5 32v92h80v-94c80 -8 147 -38 201 -90l-67 -87c-36 36 -80.667 59.333 -134 70v-172c43.333 -12 80.166 -25 110.499 -39s55.5 -34 75.5 -60s30 -60 30 -102
c0 -54 -18.167 -99.833 -54.5 -137.5zM200.004 446c16 -11.333 38.667 -21.334 68 -30.001v156c-28.667 -3.33301 -51.167 -12.166 -67.5 -26.499s-24.5 -32.833 -24.5 -55.5c0 -18 8 -32.667 24 -44zM421.004 126.999c16 16.667 24 35.332 24 55.999
c0 21.333 -8.16699 38.333 -24.5 51s-40.5 23.667 -72.5 33v-172c32.667 4.66699 57 15.334 73 32.001z" />
    <glyph glyph-name="percent" unicode="%" horiz-adv-x="746" 
d="M48.5 595c13.667 25.333 33.167 45.333 58.5 60s54 22 86 22c32.667 0 61.667 -7.33301 87 -22s45 -34.667 59 -60s21 -53.666 21 -84.999c0 -30.667 -7 -58.5 -21 -83.5s-33.667 -44.667 -59 -59s-54.333 -21.5 -87 -21.5s-61.5 7.16699 -86.5 21.5s-44.333 34 -58 59
s-20.5 52.833 -20.5 83.5c0 31.333 6.83301 59.666 20.5 84.999zM555 667h67l-427 -667h-66zM257 582.5c-16.667 18.333 -38 27.5 -64 27.5s-47.167 -9.16699 -63.5 -27.5s-24.5 -42.5 -24.5 -72.5c0 -28.667 8.33301 -52.167 25 -70.5s37.667 -27.5 63 -27.5
c26 0 47.333 9.16699 64 27.5s25 41.833 25 70.5c0 30 -8.33301 54.167 -25 72.5zM407.5 237c13.667 25.333 33.167 45.333 58.5 60s54 22 86 22s60.667 -7.33301 86 -22s45 -34.667 59 -60s21 -53.666 21 -84.999c0 -30.667 -7 -58.5 -21 -83.5s-33.5 -44.667 -58.5 -59
s-53.833 -21.5 -86.5 -21.5s-61.5 7.16699 -86.5 21.5s-44.333 34 -58 59s-20.5 52.833 -20.5 83.5c0 31.333 6.83301 59.666 20.5 84.999zM616 224.5c-16.667 18.333 -38 27.5 -64 27.5s-47.167 -9.16699 -63.5 -27.5s-24.5 -42.5 -24.5 -72.5
c0 -28.667 8.16699 -52.167 24.5 -70.5s37.5 -27.5 63.5 -27.5s47.333 9.16699 64 27.5s25 41.833 25 70.5c0 30 -8.33301 54.167 -25 72.5z" />
    <glyph glyph-name="ampersand" unicode="&#x26;" horiz-adv-x="644" 
d="M627 0l-137.001 -0.00195312l-59 58c-55.333 -46.667 -117.666 -70 -186.999 -70c-62.667 0 -114.167 16.5 -154.5 49.5s-60.5 79.833 -60.5 140.5c0 46.667 12.833 84.834 38.5 114.501s61.167 56.5 106.5 80.5c-31.333 56 -47 104.667 -47 146
c0 29.333 7.83301 56.166 23.5 80.499s37.334 43.333 65.001 57s58.5 20.5 92.5 20.5c47.333 0 86.666 -12.333 117.999 -37s47 -58 47 -100c0 -31.333 -7.5 -58.166 -22.5 -80.499s-33.667 -40.833 -56 -55.5s-51.5 -31 -87.5 -49c18 -25.333 39.667 -52.666 65 -81.999
c14.667 -18 36.667 -43.667 66 -77c28 42 50 88.333 66 139l86 -39c-28 -64.667 -58.667 -119.667 -92 -165zM265.999 416.998c37.333 17.333 65.667 35 85 53s29 39.667 29 65c0 20 -6.33301 35.667 -19 47s-28.667 17 -48 17c-22.667 0 -41.667 -7.66699 -57 -23
s-23 -35 -23 -59c0 -26 11 -59.333 33 -100zM372 118.998l-82 92c-28 34 -52.667 66 -74 96c-24 -16 -42.5 -33.5 -55.5 -52.5s-19.5 -41.5 -19.5 -67.5c0 -35.333 11.333 -63.333 34 -84s50 -31 82 -31c40 0 78.333 15.667 115 47z" />
    <glyph glyph-name="quotesingle" unicode="'" horiz-adv-x="214" 
d="M62.5 515.5c-9.66699 61 -14.5 95.167 -14.5 102.5c0 16 5.66699 29.833 17 41.5s25.333 17.5 42 17.5c16 0 29.833 -5.83301 41.5 -17.5s17.5 -25.5 17.5 -41.5c0 -7.33301 -4.83301 -41.5 -14.5 -102.5s-16.5 -102.5 -20.5 -124.5h-48c-4 22 -10.833 63.5 -20.5 124.5z
" />
    <glyph glyph-name="parenleft" unicode="(" horiz-adv-x="276" 
d="M82 4.5c-26.667 78.333 -40 157.835 -40 238.502c0 80 13.333 159.167 40 237.5s63.667 146.5 111 204.5l65 -49c-34.667 -65.333 -60.334 -128.333 -77.001 -189s-25 -128.667 -25 -204s8.33301 -143.333 25 -204s42.334 -123.334 77.001 -188.001l-65 -50
c-47.333 57.333 -84.333 125.166 -111 203.499z" />
    <glyph glyph-name="parenright" unicode=")" horiz-adv-x="276" 
d="M95 447c-16.667 60.667 -42.667 123.665 -78 188.998l65 49c47.333 -58 84.5 -126 111.5 -204s40.5 -157.333 40.5 -238s-13.5 -160.167 -40.5 -238.5s-64.167 -146.166 -111.5 -203.499l-65 50c35.333 64.667 61.333 127.334 78 188.001s25 128.667 25 204
s-8.33301 143.333 -25 204z" />
    <glyph glyph-name="asterisk" unicode="*" horiz-adv-x="346" 
d="M150 488l-94 -61l-27 48l99 51l-99 51l27 48l94 -60l-5 112h56l-6 -112l94 60l28 -48l-99 -51l99 -51l-28 -48l-94 61l6 -112h-56z" />
    <glyph glyph-name="plus" unicode="+" horiz-adv-x="502" 
d="M288 96h-74v207h-185v68h185v200h74v-200h185v-68h-185v-207z" />
    <glyph glyph-name="comma" unicode="," horiz-adv-x="245" 
d="M57 -94c16.667 10 32 23.9971 46 41.9971s22.667 35.333 26 52c-6 -2 -11.667 -3 -17 -3c-17.333 0 -31.666 5.83301 -42.999 17.5s-17 26.834 -17 45.501s6.66699 34.834 20 48.501s29.333 20.5 48 20.5c21.333 0 39.666 -8.16699 54.999 -24.5s23 -38.5 23 -66.5
c0 -33.333 -8.5 -65.166 -25.5 -95.499s-39.833 -55.5 -68.5 -75.5z" />
    <glyph glyph-name="hyphen" unicode="-" horiz-adv-x="300" 
d="M30 287h240v-90h-240v90z" />
    <glyph glyph-name="period" unicode="." horiz-adv-x="245" 
d="M73 108.5c14 13.667 30.333 20.5 49 20.5c19.333 0 35.833 -6.83301 49.5 -20.5s20.5 -30.167 20.5 -49.5c0 -18.667 -6.83301 -35 -20.5 -49s-30.167 -21 -49.5 -21c-18.667 0 -35 7 -49 21s-21 30.333 -21 49c0 19.333 7 35.833 21 49.5z" />
    <glyph glyph-name="slash" unicode="/" horiz-adv-x="315" 
d="M237 687h78l-237 -707h-78z" />
    <glyph glyph-name="zero" unicode="0" horiz-adv-x="616" 
d="M70 500.5c19.333 52.333 49 94.833 89 127.5s89.667 49 149 49s109 -16.333 149 -49s69.667 -75.167 89 -127.5s29 -108.166 29 -167.499s-9.66699 -115.166 -29 -167.499s-49 -95 -89 -128s-89.667 -49.5 -149 -49.5s-109 16.5 -149 49.5s-69.667 75.667 -89 128
s-29 108.166 -29 167.499s9.66699 115.166 29 167.499zM420.5 505.5c-23.667 45 -61.167 67.5 -112.5 67.5s-88.833 -22.5 -112.5 -67.5s-35.5 -102.5 -35.5 -172.5s12 -127.667 36 -173s61.333 -68 112 -68s88 22.667 112 68s36 103 36 173s-11.833 127.5 -35.5 172.5z" />
    <glyph glyph-name="one" unicode="1" horiz-adv-x="380" 
d="M192 515l-109 -113l-68 71l192 194h102v-667h-117v515z" />
    <glyph glyph-name="two" unicode="2" horiz-adv-x="595" 
d="M50 92c95.333 72 167.498 128.833 216.498 170.5s85.167 79 108.5 112s35 65.167 35 96.5c0 32.667 -11.833 57.834 -35.5 75.501s-52.167 26.5 -85.5 26.5c-37.333 0 -71.166 -7 -101.499 -21s-56.5 -33.667 -78.5 -59l-68 77c28.667 34.667 64.834 61.167 108.501 79.5
s89.5 27.5 137.5 27.5c44 0 84.333 -8 121 -24s66 -39.667 88 -71s33 -68.333 33 -111c0 -57.333 -24 -114.333 -72 -171s-121.333 -122.334 -220 -197.001h296v-103h-483v92z" />
    <glyph glyph-name="three" unicode="3" horiz-adv-x="574" 
d="M87 173c21.333 -24.667 48.6699 -44.334 82.0029 -59.001s67.666 -22 102.999 -22c43.333 0 77.333 9.16699 102 27.5s37 43.166 37 74.499c0 62.667 -49.333 94 -148 94c-44.667 0 -70.334 -0.333008 -77.001 -1v105c8 -0.666992 33.667 -1 77 -1
c41.333 0 74.5 7.33301 99.5 22s37.5 36.667 37.5 66c0 30 -12.667 53.167 -38 69.5s-57.666 24.5 -96.999 24.5c-65.333 0 -122.666 -24.667 -171.999 -74l-60 73c27.333 32 61.5 57.5 102.5 76.5s87.833 28.5 140.5 28.5c72.667 0 131 -16.167 175 -48.5
s66 -76.166 66 -131.499c0 -41.333 -14.5 -75.5 -43.5 -102.5s-62.833 -43.833 -101.5 -50.5c23.333 -2 47 -9.5 71 -22.5s44 -31.5 60 -55.5s24 -52 24 -84c0 -37.333 -10.333 -70.666 -31 -99.999s-49.834 -52.333 -87.501 -69s-81.834 -25 -132.501 -25
c-56.667 0 -106.834 10 -150.501 30s-77.5 46 -101.5 78z" />
    <glyph glyph-name="four" unicode="4" horiz-adv-x="580" 
d="M346 151h-318v94l274 422h161v-413h89v-103h-89v-151h-117v151zM143 254h203v308z" />
    <glyph glyph-name="five" unicode="5" horiz-adv-x="600" 
d="M123 171c46.667 -52.667 106.669 -79.002 180.002 -79.002c41.333 0 74.5 11.167 99.5 33.5s37.5 50.166 37.5 83.499c0 36 -12.167 64.833 -36.5 86.5s-56.833 32.5 -97.5 32.5c-56.667 0 -105.334 -19.333 -146.001 -58l-83 24v373h437v-103h-320v-193
c17.333 17.333 39.166 31.333 65.499 42s54.833 16 85.5 16c38 0 73.167 -8.66699 105.5 -26s58.333 -42.166 78 -74.499s29.5 -70.5 29.5 -114.5c0 -45.333 -10.667 -85.166 -32 -119.499s-51.333 -60.666 -90 -78.999s-82.667 -27.5 -132 -27.5
c-107.333 0 -190 34.333 -248 103z" />
    <glyph glyph-name="six" unicode="6" horiz-adv-x="601" 
d="M75 508.5c22.667 52.333 55.998 93.498 99.998 123.498s97.333 45 160 45c77.333 0 141.333 -24.667 192 -74l-55 -89c-18.667 20 -38.5 34.833 -59.5 44.5s-46.833 14.5 -77.5 14.5c-36 0 -67.333 -10 -94 -30s-47 -46.833 -61 -80.5s-21 -70.167 -21 -109.5
c0 -8.66699 0.333008 -15 1 -19c16.667 24.667 41.334 46.334 74.001 65.001s67.667 28 105 28c40.667 0 78 -8.16699 112 -24.5s61 -40.833 81 -73.5s30 -71.667 30 -117c0 -41.333 -10.167 -79 -30.5 -113s-49.166 -61 -86.499 -81s-80.333 -30 -129 -30
c-62.667 0 -114.5 15.333 -155.5 46s-71.167 71.834 -90.5 123.501s-29 109.834 -29 174.501c0 65.333 11.333 124.166 34 176.499zM404.998 296.498c-26 20.333 -58.666 30.501 -97.999 30.501c-28 0 -55 -7.16699 -81 -21.5s-47.667 -33.5 -65 -57.5
c4 -42.667 18 -79.334 42 -110.001s59.667 -46 107 -46c28 0 52.167 5.66699 72.5 17s35.666 26 45.999 44s15.5 36.333 15.5 55c0 38.667 -13 68.167 -39 88.5z" />
    <glyph glyph-name="seven" unicode="7" horiz-adv-x="532" 
d="M373 564h-346v103h481v-81l-259 -586h-128z" />
    <glyph glyph-name="eight" unicode="8" horiz-adv-x="595" 
d="M84.5 277c28.333 30 64.1699 52.332 107.503 66.999c-41.333 13.333 -74.833 33 -100.5 59s-38.5 59 -38.5 99c0 38.667 11.667 71.167 35 97.5s53.666 45.833 90.999 58.5s77 19 119 19c41.333 0 80.666 -6.33301 117.999 -19s67.833 -32.167 91.5 -58.5
s35.5 -58.833 35.5 -97.5c0 -40 -13 -73 -39 -99s-59.667 -45.667 -101 -59c43.333 -14.667 79.166 -37 107.499 -67s42.5 -65.333 42.5 -106c0 -38 -11.5 -70.833 -34.5 -98.5s-54 -48.667 -93 -63s-81.5 -21.5 -127.5 -21.5c-46.667 0 -89.5 7 -128.5 21
s-70 34.833 -93 62.5s-34.5 60.834 -34.5 99.501c0 40.667 14.167 76 42.5 106zM388.504 548.999c-23.667 16 -53.834 24 -90.501 24c-37.333 0 -67.833 -8 -91.5 -24s-35.5 -37.667 -35.5 -65s13.5 -48.5 40.5 -63.5s55.833 -25.167 86.5 -30.5
c30.667 5.33301 59.334 15.5 86.001 30.5s40 36.167 40 63.5s-11.833 49 -35.5 65zM411.004 240.499c-16 15 -34.667 26.667 -56 35s-40.333 13.5 -57 15.5c-17.333 -2 -36.666 -7.16699 -57.999 -15.5s-40 -20 -56 -35s-24 -33.167 -24 -54.5
c0 -28 13.167 -50.667 39.5 -68s59.166 -26 98.499 -26c38 0 70.333 8.66699 97 26s40 40 40 68c0 21.333 -8 39.5 -24 54.5z" />
    <glyph glyph-name="nine" unicode="9" horiz-adv-x="601" 
d="M128 151c18.667 -19.333 38.6689 -33.834 60.002 -43.501s47 -14.5 77 -14.5c38.667 0 71.167 10.333 97.5 31s46 47.667 59 81s19.5 69 19.5 107v20c-17.333 -24.667 -42.333 -46.5 -75 -65.5s-67.334 -28.5 -104.001 -28.5c-40.667 0 -78 8.33301 -112 25
s-61.167 41.334 -81.5 74.001s-30.5 71.667 -30.5 117c0 41.333 10.167 79 30.5 113s49.166 61 86.499 81s80.333 30 129 30c62.667 0 114.5 -15.333 155.5 -46s71.167 -72 90.5 -124s29 -110.333 29 -175c0 -65.333 -11.333 -124 -34 -176s-56 -93 -100 -123
s-97.333 -45 -160 -45c-78 0 -141.667 24.667 -191 74zM397.502 526.999c-24.333 31.333 -60.1699 47.002 -107.503 47.002c-27.333 0 -51.166 -5.83301 -71.499 -17.5s-35.666 -26.334 -45.999 -44.001s-15.5 -35.834 -15.5 -54.501c0 -38.667 13 -68.167 39 -88.5
s58.333 -30.5 97 -30.5c28.667 0 56 7 82 21s47.333 33 64 57c-3.33301 42 -17.166 78.667 -41.499 110z" />
    <glyph glyph-name="colon" unicode=":" horiz-adv-x="245" 
d="M73 469.5c14 13.667 30.333 20.5 49 20.5c19.333 0 35.833 -6.83301 49.5 -20.5s20.5 -30.167 20.5 -49.5c0 -18.667 -6.83301 -35 -20.5 -49s-30.167 -21 -49.5 -21c-18.667 0 -35 7 -49 21s-21 30.333 -21 49c0 19.333 7 35.833 21 49.5zM73 108.5
c14 13.667 30.333 20.5 49 20.5c19.333 0 35.833 -6.83301 49.5 -20.5s20.5 -30.167 20.5 -49.5c0 -18.667 -6.83301 -35 -20.5 -49s-30.167 -21 -49.5 -21c-18.667 0 -35 7 -49 21s-21 30.333 -21 49c0 19.333 7 35.833 21 49.5z" />
    <glyph glyph-name="semicolon" unicode=";" horiz-adv-x="245" 
d="M73 371c-14 14 -21 30.333 -21 49c0 19.333 7 35.833 21 49.5s30.333 20.5 49 20.5c19.333 0 35.833 -6.83301 49.5 -20.5s20.5 -30.167 20.5 -49.5c0 -18.667 -7 -35 -21 -49s-30.333 -21 -49 -21s-35 7 -49 21zM57 -94c16.667 10 32 23.9971 46 41.9971
s22.667 35.333 26 52c-6 -2 -11.667 -3 -17 -3c-17.333 0 -31.666 5.83301 -42.999 17.5s-17 26.834 -17 45.501s6.66699 34.834 20 48.501s29.333 20.5 48 20.5c21.333 0 39.666 -8.16699 54.999 -24.5s23 -38.5 23 -66.5c0 -33.333 -8.5 -65.166 -25.5 -95.499
s-39.833 -55.5 -68.5 -75.5z" />
    <glyph glyph-name="less" unicode="&#x3c;" horiz-adv-x="502" 
d="M29 372l444 208v-81l-365 -165l365 -164v-80l-444 207v75z" />
    <glyph glyph-name="equal" unicode="=" horiz-adv-x="502" 
d="M29 463h444v-68h-444v68zM29 272h444v-67h-444v67z" />
    <glyph glyph-name="greater" unicode="&#x3e;" horiz-adv-x="502" 
d="M29 170l364 164l-364 165v81l444 -208v-75l-444 -207v80z" />
    <glyph glyph-name="question" unicode="?" horiz-adv-x="458" 
d="M176 353c15.333 18.667 38 38.6689 68 60.002c24 16.667 41.667 31.167 53 43.5s17 27.166 17 44.499c0 20.667 -8.16699 37.834 -24.5 51.501s-39.833 20.5 -70.5 20.5c-54.667 0 -101 -23.333 -139 -70l-67 75c26 31.333 57.667 55.666 95 72.999s78.333 26 123 26
c41.333 0 77.333 -6.83301 108 -20.5s54.167 -32.334 70.5 -56.001s24.5 -50.5 24.5 -80.5c0 -26 -5 -48.5 -15 -67.5s-22 -35 -36 -48s-32.333 -27.167 -55 -42.5c-26 -18.667 -44.667 -34.167 -56 -46.5s-17 -27.5 -17 -45.5c0 -8 2 -16.167 6 -24.5
s9.33301 -15.166 16 -20.499l-88 -29c-24 23.333 -36 51.666 -36 84.999c0 29.333 7.66699 53.333 23 72zM176 108.502c14 13.667 30.333 20.5 49 20.5c19.333 0 35.833 -6.83301 49.5 -20.5s20.5 -30.167 20.5 -49.5c0 -18.667 -6.83301 -35 -20.5 -49
s-30.167 -21 -49.5 -21c-18.667 0 -35 7 -49 21s-21 30.333 -21 49c0 19.333 7 35.833 21 49.5z" />
    <glyph glyph-name="at" unicode="@" horiz-adv-x="783" 
d="M90.5 439.5c37 60.333 85.998 108.502 146.998 144.502s125.833 54 194.5 54c62 0 116.833 -14 164.5 -42s84.667 -65.667 111 -113s39.5 -99.333 39.5 -156c0 -51.333 -9.33301 -95.333 -28 -132s-42.334 -64.167 -71.001 -82.5s-58 -27.5 -88 -27.5
c-28 0 -50.167 7.33301 -66.5 22s-25.833 33 -28.5 55l-1 6c-18 -24.667 -40.333 -44.667 -67 -60s-54.334 -23 -83.001 -23c-46.667 0 -84 15.333 -112 46s-42 70.667 -42 120c0 44 11 85 33 123s50.667 68.167 86 90.5s72.333 33.5 111 33.5c30 0 55.833 -6.5 77.5 -19.5
s37.834 -30.167 48.501 -51.5l12 56h94l-54 -255c-1.33301 -8 -2 -15.667 -2 -23c0 -15.333 3.83301 -27.166 11.5 -35.499s17.5 -12.5 29.5 -12.5c14.667 0 29.667 6 45 18s28.333 30.667 39 56s16 57.333 16 96c0 53.333 -11.5 100.666 -34.5 141.999
s-55.667 73.666 -98 96.999s-91.166 35 -146.499 35c-62 0 -120.5 -16.5 -175.5 -49.5s-98.833 -76.833 -131.5 -131.5s-49 -112.667 -49 -174c0 -52.667 12.333 -100.334 37 -143.001s58.5 -76.167 101.5 -100.5s91.5 -36.5 145.5 -36.5c64.667 0 126 18.333 184 55l20 -28
c-65.333 -42 -134.666 -63 -207.999 -63c-59.333 0 -113.166 13.833 -161.499 41.5s-86.333 65.5 -114 113.5s-41.5 101 -41.5 159c0 70 18.5 135.167 55.5 195.5zM501.998 362.002c-6.66699 16 -17.668 30.168 -33.001 42.501s-34.666 18.5 -57.999 18.5
c-28.667 0 -54.667 -7.83301 -78 -23.5s-41.833 -36.334 -55.5 -62.001s-20.5 -52.167 -20.5 -79.5c0 -29.333 8.16699 -53 24.5 -71s38.5 -27 66.5 -27c48.667 0 91 25.333 127 76z" />
    <glyph glyph-name="A" unicode="A" horiz-adv-x="673" 
d="M494 128h-316l-49 -128h-128l262 667h146l262 -667h-128zM211 231h250l-125 337z" />
    <glyph glyph-name="B" unicode="B" horiz-adv-x="648" 
d="M71 667h327.999c39.333 0 73.333 -7.5 102 -22.5s50.5 -35.333 65.5 -61s22.5 -54.5 22.5 -86.5c0 -40 -11.167 -73.833 -33.5 -101.5s-49.833 -44.834 -82.5 -51.501c23.333 -3.33301 44.833 -12.833 64.5 -28.5s35.334 -35.5 47.001 -59.5s17.5 -49.333 17.5 -76
c0 -53.333 -17.167 -96.666 -51.5 -129.999s-81.833 -50 -142.5 -50h-337v667zM374.999 391c29.333 0 52.333 8 69 24s25 36.667 25 62c0 26 -8.33301 47 -25 63s-39.667 24 -69 24h-187v-173h187zM379.999 103c32 0 57 8.16797 75 24.501s27 39.166 27 68.499
c0 26 -9 47.833 -27 65.5s-43 26.5 -75 26.5h-192v-185h192z" />
    <glyph glyph-name="C" unicode="C" horiz-adv-x="682" 
d="M211.5 31.5c-52.333 29 -93.833 69.833 -124.5 122.5s-46 112.334 -46 179.001s15.333 126.334 46 179.001s72.167 93.5 124.5 122.5s110.5 43.5 174.5 43.5c119.333 0 210.333 -50 273 -150l-100 -51c-16.667 28.667 -40.334 52 -71.001 70s-64.667 27 -102 27
c-42 0 -80.167 -10.333 -114.5 -31s-61.333 -49.334 -81 -86.001s-29.5 -78 -29.5 -124s9.83301 -87.333 29.5 -124s46.667 -65.334 81 -86.001s72.5 -31 114.5 -31c37.333 0 71.333 9 102 27s54.334 41.333 71.001 70l100 -51c-64 -100 -155 -150 -273 -150
c-64 0 -122.167 14.5 -174.5 43.5z" />
    <glyph glyph-name="D" unicode="D" horiz-adv-x="710" 
d="M71 667h248c68.667 0 129.334 -14.167 182.001 -42.5s93.667 -67.833 123 -118.5s44 -108.334 44 -173.001s-14.667 -122.167 -44 -172.5s-70.333 -89.666 -123 -117.999s-113.334 -42.5 -182.001 -42.5h-248v667zM319 103c46.667 0 87.334 10.167 122.001 30.5
s61.167 48 79.5 83s27.5 73.833 27.5 116.5c0 43.333 -8.83301 82.5 -26.5 117.5s-43.834 62.667 -78.501 83s-76 30.5 -124 30.5h-131v-461h131z" />
    <glyph glyph-name="E" unicode="E" horiz-adv-x="577" 
d="M71 667h457v-103h-340v-173h333v-103h-333v-185h340v-103h-457v667z" />
    <glyph glyph-name="F" unicode="F" horiz-adv-x="562" 
d="M71 667h457v-103h-340v-173h333v-103h-333v-288h-117v667z" />
    <glyph glyph-name="G" unicode="G" horiz-adv-x="745" 
d="M87.5 513.5c31 52.333 73.168 92.834 126.501 121.501s112.333 43 177 43c60.667 0 113.167 -12.667 157.5 -38s81.5 -59 111.5 -101l-96 -54c-18.667 26 -43.167 47.333 -73.5 64s-63.5 25 -99.5 25c-43.333 0 -82.5 -10.333 -117.5 -31s-62.5 -49.334 -82.5 -86.001
s-30 -78 -30 -124s10 -87.333 30 -124s47.5 -65.5 82.5 -86.5s74.167 -31.5 117.5 -31.5c53.333 0 96.666 15.5 129.999 46.5s55 70.167 65 117.5h-236v103h364c0 -74.667 -13.167 -140 -39.5 -196s-64.5 -99.167 -114.5 -129.5s-109.667 -45.5 -179 -45.5
c-61.333 0 -118 14.5 -170 43.5s-93.333 69.667 -124 122s-46 112.5 -46 180.5s15.5 128.167 46.5 180.5z" />
    <glyph glyph-name="H" unicode="H" horiz-adv-x="723" 
d="M535 291h-347v-291h-117v667h117v-273h347v273h117v-667h-117v291z" />
    <glyph glyph-name="I" unicode="I" horiz-adv-x="259" 
d="M71 667h117v-667h-117v667z" />
    <glyph glyph-name="J" unicode="J" horiz-adv-x="481" 
d="M62 147c34 -36.667 71.999 -55 113.999 -55c36 0 64.5 11 85.5 33s31.5 51.333 31.5 88v454h117v-456c0 -73.333 -20.667 -128.833 -62 -166.5s-95.666 -56.5 -162.999 -56.5c-74 0 -133 23.333 -177 70z" />
    <glyph glyph-name="K" unicode="K" horiz-adv-x="621" 
d="M246 281l-58 -68v-213h-117v667h117v-318l261 318h145l-271 -315l291 -352h-144z" />
    <glyph glyph-name="L" unicode="L" horiz-adv-x="517" 
d="M71 667h117v-564h294v-103h-411v667z" />
    <glyph glyph-name="M" unicode="M" horiz-adv-x="835" 
d="M647 505l-205 -505h-50l-204 505v-505h-117v667h165l181 -449l182 449h165v-667h-117v505z" />
    <glyph glyph-name="N" unicode="N" horiz-adv-x="720" 
d="M188 486v-486h-117v667h120l341 -473v473h117v-667h-113z" />
    <glyph glyph-name="O" unicode="O" horiz-adv-x="765" 
d="M84.5 510c29 52.667 69.333 93.834 121 123.501s110.5 44.5 176.5 44.5s124.833 -14.833 176.5 -44.5s92 -70.834 121 -123.501s43.5 -111.667 43.5 -177s-14.5 -124.333 -43.5 -177s-69.333 -93.834 -121 -123.501s-110.5 -44.5 -176.5 -44.5
s-124.833 14.833 -176.5 44.5s-92 70.834 -121 123.501s-43.5 111.667 -43.5 177s14.5 124.333 43.5 177zM575.5 457c-18.333 36.667 -44.166 65.334 -77.499 86.001s-72 31 -116 31s-82.667 -10.333 -116 -31s-59.166 -49.334 -77.499 -86.001s-27.5 -78 -27.5 -124
c0 -45.333 9.16699 -86.333 27.5 -123s44.166 -65.5 77.499 -86.5s72 -31.5 116 -31.5s82.667 10.5 116 31.5s59.166 49.833 77.499 86.5s27.5 77.667 27.5 123c0 46 -9.16699 87.333 -27.5 124z" />
    <glyph glyph-name="P" unicode="P" horiz-adv-x="608" 
d="M71 667h293c45.333 0 84.333 -9.33301 117 -28s57.667 -44 75 -76s26 -67 26 -105s-8.66699 -73 -26 -105s-42.5 -57.333 -75.5 -76s-71.833 -28 -116.5 -28h-176v-249h-117v667zM430 535c-21.333 19.333 -48.666 29 -81.999 29h-160v-212h160
c33.333 0 60.666 9.66699 81.999 29s32 45 32 77s-10.667 57.667 -32 77z" />
    <glyph glyph-name="Q" unicode="Q" horiz-adv-x="765" 
d="M700 201c-15.333 -40.667 -37.333 -76.668 -66 -108.001l55 -62l-81 -68l-58 65c-49.333 -26.667 -105.333 -40 -168 -40c-66 0 -124.833 14.833 -176.5 44.5s-92 70.834 -121 123.501s-43.5 111.667 -43.5 177s14.5 124.333 43.5 177s69.333 93.834 121 123.501
s110.5 44.5 176.5 44.5s124.833 -14.833 176.5 -44.5s92 -70.834 121 -123.501s43.5 -111.667 43.5 -177c0 -47.333 -7.66699 -91.333 -23 -132zM477 111.999l-83.002 94l81 67l83 -93c30 42.667 45 93.667 45 153c0 46 -9.16699 87.333 -27.5 124
s-44.166 65.334 -77.499 86.001s-72 31 -116 31s-82.667 -10.333 -116 -31s-59.166 -49.334 -77.499 -86.001s-27.5 -78 -27.5 -124c0 -45.333 9.16699 -86.333 27.5 -123s44.166 -65.5 77.499 -86.5s72 -31.5 116 -31.5c34.667 0 66.334 6.66699 95.001 20z" />
    <glyph glyph-name="R" unicode="R" horiz-adv-x="628" 
d="M304 249l-116 0.00195312v-249h-117v667h293c43.333 0 81.5 -8.83301 114.5 -26.5s58.5 -42.334 76.5 -74.001s27 -67.834 27 -108.501c0 -56 -15.333 -100.833 -46 -134.5s-68 -54.167 -112 -61.5l163 -262h-135zM430 535.002c-21.333 19.333 -48.666 29 -81.999 29
h-160v-212h160c33.333 0 60.666 9.66699 81.999 29s32 45 32 77s-10.667 57.667 -32 77z" />
    <glyph glyph-name="S" unicode="S" horiz-adv-x="594" 
d="M93 184c25.333 -27.333 56.001 -49.498 92.001 -66.498s75.667 -25.5 119 -25.5c44.667 0 78.167 9 100.5 27s33.5 39.333 33.5 64c0 18.667 -6.5 34 -19.5 46s-29.5 21.5 -49.5 28.5s-47.667 15.167 -83 24.5c-50 12 -90.667 24.333 -122 37s-58.333 32.167 -81 58.5
s-34 61.166 -34 104.499c0 36.667 10.167 69.834 30.5 99.501s49 53 86 70s79.167 25.5 126.5 25.5c102.667 0 186 -31 250 -93l-67 -87c-25.333 25.333 -54.833 44.333 -88.5 57s-68.5 19 -104.5 19c-34.667 0 -62.167 -7.5 -82.5 -22.5s-30.5 -35.167 -30.5 -60.5
c0 -16 6.33301 -29.333 19 -40s28.5 -19.334 47.5 -26.001s45.833 -14.334 80.5 -23.001c50 -12.667 91.167 -25.667 123.5 -39s60 -33.5 83 -60.5s34.5 -62.833 34.5 -107.5c0 -38.667 -9.33301 -73.5 -28 -104.5s-47.334 -55.667 -86.001 -74s-86.667 -27.5 -144 -27.5
c-59.333 0 -111.5 9.33301 -156.5 28s-83.167 44.667 -114.5 78z" />
    <glyph glyph-name="T" unicode="T" horiz-adv-x="577" 
d="M230 564h-202v103h521v-103h-202v-564h-117v564z" />
    <glyph glyph-name="U" unicode="U" horiz-adv-x="719" 
d="M71 667l117.999 -0.000976562v-400c0 -54 14.833 -96.667 44.5 -128s71.834 -47 126.501 -47s96.667 15.667 126 47s44 74 44 128v400h118v-403c0 -85.333 -24.5 -152.666 -73.5 -201.999s-120.5 -74 -214.5 -74c-94.667 0 -166.5 24.667 -215.5 74
s-73.5 116.333 -73.5 201v404z" />
    <glyph glyph-name="V" unicode="V" horiz-adv-x="673" 
d="M1 667h133l202 -540l202 540h133l-262 -667h-146z" />
    <glyph glyph-name="W" unicode="W" horiz-adv-x="903" 
d="M451 492l-129 -492h-125l-191 667h131l130 -514l138 514h93l138 -514l129 514h131l-190 -667h-125z" />
    <glyph glyph-name="X" unicode="X" horiz-adv-x="661" 
d="M330 261l-187 -261h-140l250 342l-235 325h140l172 -245l171 245h141l-234 -324l249 -343h-140z" />
    <glyph glyph-name="Y" unicode="Y" horiz-adv-x="637" 
d="M260 277l-259 390h134l184 -286l182 286h134l-258 -390v-277h-117v277z" />
    <glyph glyph-name="Z" unicode="Z" horiz-adv-x="589" 
d="M44 95l341 469h-341v103h493v-95l-341 -469h348v-103h-500v95z" />
    <glyph glyph-name="bracketleft" unicode="[" horiz-adv-x="264" 
d="M44 678h203v-72h-126v-724h126v-72h-203v868z" />
    <glyph glyph-name="backslash" unicode="\" horiz-adv-x="315" 
d="M78 687l237 -707h-78l-237 707h78z" />
    <glyph glyph-name="bracketright" unicode="]" horiz-adv-x="264" 
d="M17 -118h126v724h-126v72h203v-868h-203v72z" />
    <glyph glyph-name="asciicircum" unicode="^" horiz-adv-x="437" 
d="M218 594l-119 -261h-80l161 334h78l160 -334h-80z" />
    <glyph glyph-name="underscore" unicode="_" horiz-adv-x="564" 
d="M-3 -40h570v-72h-570v72z" />
    <glyph glyph-name="grave" unicode="`" horiz-adv-x="240" 
d="M0 700h100l140 -144h-75z" />
    <glyph glyph-name="a" unicode="a" horiz-adv-x="581" 
d="M408 66c-18.667 -24.667 -41.5 -43.832 -68.5 -57.499s-55.833 -20.5 -86.5 -20.5c-41.333 0 -78.333 10.167 -111 30.5s-58.167 49.5 -76.5 87.5s-27.5 83 -27.5 135c0 51.333 9.16699 96.166 27.5 134.499s43.833 67.833 76.5 88.5s69.667 31 111 31
c30 0 58.667 -6.83301 86 -20.5s50.333 -33.167 69 -58.5v67h105v-483h-105v66zM408 336.002c-12 18.667 -29.667 34.167 -53 46.5s-47.333 18.5 -72 18.5c-41.333 0 -74.333 -14.833 -99 -44.5s-37 -68.167 -37 -115.5s12.333 -85.833 37 -115.5s57.667 -44.5 99 -44.5
c24.667 0 48.667 6 72 18s41 27.333 53 46v191z" />
    <glyph glyph-name="b" unicode="b" horiz-adv-x="581" 
d="M68 667l105 -0.00195312v-251c18.667 25.333 41.5 44.833 68.5 58.5s55.833 20.5 86.5 20.5c41.333 0 78.166 -10.333 110.499 -31s57.666 -50.167 75.999 -88.5s27.5 -83.166 27.5 -134.499c0 -52 -9.16699 -97 -27.5 -135s-43.666 -67.167 -75.999 -87.5
s-69.166 -30.5 -110.499 -30.5c-30.667 0 -59.5 6.83301 -86.5 20.5s-49.833 32.834 -68.5 57.501v-66h-105v667zM225.5 99.498c23.667 -12.333 47.5 -18.499 71.5 -18.499c41.333 0 74.5 14.833 99.5 44.5s37.5 68.167 37.5 115.5s-12.5 86 -37.5 116s-58.167 45 -99.5 45
c-24 0 -47.667 -6.33301 -71 -19s-41 -28.334 -53 -47.001v-191c11.333 -18 28.833 -33.167 52.5 -45.5z" />
    <glyph glyph-name="c" unicode="c" horiz-adv-x="497" 
d="M70 372c21.333 38.667 51 68.8311 89 90.498s81 32.5 129 32.5c80.667 0 142.334 -28.667 185.001 -86l-69 -64c-26.667 38 -63.667 57 -111 57c-44 0 -79.333 -14.833 -106 -44.5s-40 -68.167 -40 -115.5s13.333 -86 40 -116s62 -45 106 -45c46 0 83 19 111 57l69 -64
c-42.667 -57.333 -104.334 -86 -185.001 -86c-48 0 -91 10.833 -129 32.5s-67.667 51.834 -89 90.501s-32 82.334 -32 131.001c0 48 10.667 91.333 32 130z" />
    <glyph glyph-name="d" unicode="d" horiz-adv-x="581" 
d="M408 66c-18.667 -24.667 -41.5 -43.832 -68.5 -57.499s-55.833 -20.5 -86.5 -20.5c-41.333 0 -78.333 10.167 -111 30.5s-58.167 49.5 -76.5 87.5s-27.5 83 -27.5 135c0 51.333 9.16699 96.166 27.5 134.499s43.833 67.833 76.5 88.5s69.667 31 111 31
c30 0 58.5 -6.83301 85.5 -20.5s50.167 -33.167 69.5 -58.5v251h105v-667h-105v66zM408 337.002c-12 18.667 -29.667 34.167 -53 46.5s-47.333 18.5 -72 18.5c-41.333 0 -74.333 -15 -99 -45s-37 -68.667 -37 -116s12.333 -85.833 37 -115.5s57.667 -44.5 99 -44.5
c24.667 0 48.667 6 72 18s41 27.333 53 46v192z" />
    <glyph glyph-name="e" unicode="e" horiz-adv-x="557" 
d="M69.5 369.5c21 38.333 50.167 68.835 87.5 91.502s79.333 34 126 34c47.333 0 89 -11.333 125 -34s63.833 -53.834 83.5 -93.501s29.5 -84.834 29.5 -135.501v-25h-373c4 -38 19.667 -69.667 47 -95s63 -38 107 -38c24.667 0 49.5 4.66699 74.5 14s45.833 22.333 62.5 39
l48 -69c-24 -22.667 -53 -40 -87 -52s-70.333 -18 -109 -18c-48 0 -91.167 10.5 -129.5 31.5s-68.5 50.833 -90.5 89.5s-33 83 -33 133c0 46.667 10.5 89.167 31.5 127.5zM186 370.502c-23.333 -25.667 -36.334 -55.502 -39.001 -89.502h272
c-0.666992 20.667 -6 40.834 -16 60.501s-25 35.834 -45 48.501s-45 19 -75 19c-41.333 0 -73.666 -12.833 -96.999 -38.5z" />
    <glyph glyph-name="f" unicode="f" horiz-adv-x="308" 
d="M93 391l-80 0.000976562v92h80v27c0 52.667 14 93.667 42 123s65 44 111 44c34 0 62 -6.33301 84 -19l-23 -77c-11.333 6.66699 -25.333 10 -42 10c-20.667 0 -37 -6.83301 -49 -20.5s-18 -33.834 -18 -60.501v-27h98v-92h-98v-391h-105v391z" />
    <glyph glyph-name="g" unicode="g" horiz-adv-x="580" 
d="M111 -48c18.667 -22 40.502 -37.834 65.502 -47.501s54.167 -14.5 87.5 -14.5c40 0 73.833 10.5 101.5 31.5s41.5 54.167 41.5 99.5v58c-19.333 -24.667 -42.333 -44.167 -69 -58.5s-55.334 -21.5 -86.001 -21.5c-41.333 0 -78.166 9.66699 -110.499 29
s-57.666 47.666 -75.999 84.999s-27.5 82 -27.5 134c0 50.667 9.16699 94.834 27.5 132.501s43.666 66.334 75.999 86.001s69.166 29.5 110.499 29.5c30.667 0 59.334 -6.83301 86.001 -20.5s49.667 -33.167 69 -58.5v67h105v-458c0 -79.333 -23.833 -136 -71.5 -170
s-106.5 -51 -176.5 -51c-42.667 0 -79.834 5.5 -111.501 16.5s-61.834 29.5 -90.501 55.5zM407.002 336.999c-12 18 -29.667 33.333 -53 46s-47 19 -71 19c-41.333 0 -74.333 -14.167 -99 -42.5s-37 -65.833 -37 -112.5s12.333 -84.167 37 -112.5s57.667 -42.5 99 -42.5
c24 0 47.667 6.33301 71 19s41 28 53 46v180z" />
    <glyph glyph-name="h" unicode="h" horiz-adv-x="568" 
d="M395 304c0 35.333 -8.49805 60.501 -25.498 75.501s-41.167 22.5 -72.5 22.5c-24.667 0 -48 -6.33301 -70 -19s-40 -28 -54 -46v-337h-105v667h105v-250c18 21.333 42.167 39.666 72.5 54.999s63.166 23 98.499 23c51.333 0 90.166 -13 116.499 -39s39.5 -64 39.5 -114
v-342h-105v304z" />
    <glyph glyph-name="i" unicode="i" horiz-adv-x="241" 
d="M74.5 576c-13 12.667 -19.5 28 -19.5 46s6.5 33.333 19.5 46s28.167 19 45.5 19c18 0 33.333 -6.33301 46 -19s19 -28 19 -46s-6.33301 -33.333 -19 -46s-28 -19 -46 -19c-17.333 0 -32.5 6.33301 -45.5 19zM68 483h105v-483h-105v483z" />
    <glyph glyph-name="j" unicode="j" horiz-adv-x="241" 
d="M74.5 576c-13 12.667 -19.5 28 -19.5 46s6.5 33.333 19.5 46s28.167 19 45.5 19c18 0 33.333 -6.33301 46 -19s19 -28 19 -46s-6.33301 -33.333 -19 -46s-28 -19 -46 -19c-17.333 0 -32.5 6.33301 -45.5 19zM173 -28c0 -52.667 -13.667 -93.833 -41 -123.5
s-67 -44.5 -119 -44.5c-19.333 0 -37.333 1.66699 -54 5l11 87c8 -2 18 -3 30 -3c20.667 0 37.167 6.33301 49.5 19s18.5 32.667 18.5 60v511h105v-511z" />
    <glyph glyph-name="k" unicode="k" horiz-adv-x="526" 
d="M240 199l-67 -69v-130h-105v667h105v-417l213 233h130l-201 -219l205 -264h-132z" />
    <glyph glyph-name="l" unicode="l" horiz-adv-x="285" 
d="M99.5 20c-21 21.333 -31.5 51.999 -31.5 91.999v555h105v-529c0 -17.333 4 -31.166 12 -41.499s19.333 -15.5 34 -15.5c9.33301 0 18.333 1.66699 27 5s15 7.33301 19 12l25 -79c-22 -20.667 -54.667 -31 -98 -31c-40.667 0 -71.5 10.667 -92.5 32z" />
    <glyph glyph-name="m" unicode="m" horiz-adv-x="833" 
d="M660 315c0 27.333 -6.50195 48.668 -19.502 64.001s-32.833 23 -59.5 23c-22 0 -43.333 -6.33301 -64 -19s-36.667 -27.667 -48 -45v-338h-105v315c0 27.333 -6.5 48.666 -19.5 63.999s-33.167 23 -60.5 23c-21.333 0 -42.166 -6.33301 -62.499 -19s-36.5 -28 -48.5 -46
v-337h-105v483h105v-66c12 18 32.833 35.5 62.5 52.5s61.167 25.5 94.5 25.5c34.667 0 63.334 -8 86.001 -24s38 -37.667 46 -65c15.333 24 38 44.833 68 62.5s62 26.5 96 26.5c45.333 0 79.833 -12.167 103.5 -36.5s35.5 -60.833 35.5 -109.5v-349h-105v315z" />
    <glyph glyph-name="n" unicode="n" 
d="M394 302c0 36 -8.33203 61.668 -24.999 77.001s-40.667 23 -72 23c-25.333 0 -49 -6.33301 -71 -19s-39.667 -28 -53 -46v-337h-105v483h105v-66c18 21.333 42 39.666 72 54.999s62.667 23 98 23c51.333 0 90.166 -13.333 116.499 -40s39.5 -65 39.5 -115v-340h-105v302z
" />
    <glyph glyph-name="o" unicode="o" horiz-adv-x="573" 
d="M155.5 22c-37.667 22.667 -66.667 53.333 -87 92s-30.5 81.334 -30.5 128.001c0 46 10.167 88.333 30.5 127s49.333 69.334 87 92.001s81.167 34 130.5 34c50 0 93.833 -11.333 131.5 -34s66.667 -53.167 87 -91.5s30.5 -80.833 30.5 -127.5
s-10.167 -89.334 -30.5 -128.001s-49.333 -69.334 -87 -92.001s-81.5 -34 -131.5 -34c-49.333 0 -92.833 11.333 -130.5 34zM388.5 127.499c25 31 37.5 69.167 37.5 114.5c0 44.667 -12.5 82.5 -37.5 113.5s-59.167 46.5 -102.5 46.5c-42.667 0 -76.5 -15.5 -101.5 -46.5
s-37.5 -68.833 -37.5 -113.5c0 -45.333 12.5 -83.5 37.5 -114.5s58.833 -46.5 101.5 -46.5c43.333 0 77.5 15.5 102.5 46.5z" />
    <glyph glyph-name="p" unicode="p" horiz-adv-x="580" 
d="M68 -184l0.000976562 666.998h105v-66c18 24.667 40.5 43.834 67.5 57.501s56.167 20.5 87.5 20.5c42 0 79.167 -10.167 111.5 -30.5s57.5 -49.5 75.5 -87.5s27 -83 27 -135s-9 -97.167 -27 -135.5s-43.167 -67.666 -75.5 -87.999s-69.5 -30.5 -111.5 -30.5
c-30.667 0 -59.334 6.66699 -86.001 20s-49.667 33 -69 59v-251h-105zM396.001 357.498c-24.667 29.667 -57.667 44.5 -99 44.5c-24 0 -47.667 -6.33301 -71 -19s-41 -28 -53 -46v-191c12 -18 29.667 -33.333 53 -46s47 -19 71 -19c41.333 0 74.333 15 99 45
s37 68.667 37 116s-12.333 85.833 -37 115.5z" />
    <glyph glyph-name="q" unicode="q" horiz-adv-x="580" 
d="M407 -184l0.000976562 251.002c-19.333 -26 -42.333 -45.667 -69 -59s-55.334 -20 -86.001 -20c-42 0 -79.167 10.167 -111.5 30.5s-57.5 49.666 -75.5 87.999s-27 83.5 -27 135.5s9 97 27 135s43.167 67.167 75.5 87.5s69.5 30.5 111.5 30.5
c31.333 0 60.5 -6.83301 87.5 -20.5s49.5 -32.834 67.5 -57.501v66h105v-667h-105zM407.001 337.002c-12 18 -29.667 33.333 -53 46s-47 19 -71 19c-41.333 0 -74.333 -14.833 -99 -44.5s-37 -68.167 -37 -115.5s12.333 -86 37 -116s57.667 -45 99 -45
c24 0 47.667 6.33301 71 19s41 28 53 46v191z" />
    <glyph glyph-name="r" unicode="r" horiz-adv-x="347" 
d="M68 483h105v-71c18.667 24 42 43.667 70 59s57 23 87 23v-104c-9.33301 2 -20.333 3 -33 3c-22 0 -45.5 -6.5 -70.5 -19.5s-42.833 -27.833 -53.5 -44.5v-329h-105v483z" />
    <glyph glyph-name="s" unicode="s" horiz-adv-x="472" 
d="M74 139c18 -18.667 42.3301 -34.6631 72.9971 -47.9961s61 -20 91 -20c30.667 0 54.167 5.16699 70.5 15.5s24.5 24.833 24.5 43.5c0 19.333 -9.33301 33.833 -28 43.5s-46 18.5 -82 26.5c-38 8 -69.167 16.5 -93.5 25.5s-45.166 23.333 -62.499 43s-26 46.167 -26 79.5
c0 26.667 7.5 51.167 22.5 73.5s36.833 40.166 65.5 53.499s62.667 20 102 20c74 0 136.667 -22.667 188 -68l-44 -74c-15.333 17.333 -35.666 31.333 -60.999 42s-52.666 16 -81.999 16c-28 0 -50 -4.83301 -66 -14.5s-24 -22.834 -24 -39.501s8.66699 -29.334 26 -38.001
s43.666 -17 78.999 -25c38 -8 69.667 -16.833 95 -26.5s47 -24.834 65 -45.501s27 -48.667 27 -84c0 -44 -17.667 -80 -53 -108s-84.666 -42 -147.999 -42c-41.333 0 -80 6.5 -116 19.5s-66.333 31.5 -91 55.5z" />
    <glyph glyph-name="t" unicode="t" horiz-adv-x="319" 
d="M120.5 20c-21 21.333 -31.5 51.999 -31.5 91.999v279h-80v92h80v132h105v-132h98v-92h-98v-253c0 -17.333 4 -31.166 12 -41.499s19.333 -15.5 34 -15.5c9.33301 0 18.5 1.66699 27.5 5s15.5 7.33301 19.5 12l25 -79c-22 -20.667 -55 -31 -99 -31
c-40.667 0 -71.5 10.667 -92.5 32z" />
    <glyph glyph-name="u" unicode="u" 
d="M394 64c-19.333 -22 -43.833 -40.167 -73.5 -54.5s-62.167 -21.5 -97.5 -21.5c-51.333 0 -90 13 -116 39s-39 64 -39 114v342h105v-304c0 -35.333 8.33301 -60.5 25 -75.5s40.667 -22.5 72 -22.5c25.333 0 49 6 71 18s39.667 27 53 45v339h105v-483h-105v64z" />
    <glyph glyph-name="v" unicode="v" horiz-adv-x="503" 
d="M-2 483h112l141 -362l141 362h113l-197 -483h-113z" />
    <glyph glyph-name="w" unicode="w" horiz-adv-x="754" 
d="M377 354l-112 -354h-110l-150 483h109l102 -351l115 351h92l115 -351l102 351h109l-150 -483h-110z" />
    <glyph glyph-name="x" unicode="x" horiz-adv-x="496" 
d="M248 178l-126 -178h-117l177 248l-167 235h118l115 -164l114 164h118l-167 -235l178 -248h-118z" />
    <glyph glyph-name="y" unicode="y" 
d="M111 -48c17.333 -20.667 38.832 -36.168 64.499 -46.501s52.834 -15.5 81.501 -15.5c43.333 0 77 11.667 101 35s36 56.333 36 99v56c-19.333 -22 -43.833 -40.167 -73.5 -54.5s-62.167 -21.5 -97.5 -21.5c-51.333 0 -90 13 -116 39s-39 64 -39 114v326h105v-288
c0 -35.333 8.33301 -60.5 25 -75.5s40.667 -22.5 72 -22.5c25.333 0 49 6 71 18s39.667 27 53 45v323h105v-459c0 -70 -22.333 -124.167 -67 -162.5s-103 -57.5 -175 -57.5c-40.667 0 -76.667 5.83301 -108 17.5s-60.333 29.834 -87 54.501z" />
    <glyph glyph-name="z" unicode="z" horiz-adv-x="476" 
d="M46 79l239 312h-239v92h379v-77l-241 -315h245v-91h-383v79z" />
    <glyph glyph-name="braceleft" unicode="{" horiz-adv-x="276" 
d="M128.5 -172c-21.667 12 -39.167 29.333 -52.5 52s-20 48.667 -20 78v187c0 19.333 -4.5 35.5 -13.5 48.5s-21.833 19.5 -38.5 19.5v62c16.667 0 29.5 6.5 38.5 19.5s13.5 29.167 13.5 48.5v186c0 29.333 6.66699 55.333 20 78s30.833 40.167 52.5 52.5
s44.834 18.5 69.501 18.5h61v-72h-61c-18 0 -33.167 -7.16699 -45.5 -21.5s-18.5 -32.833 -18.5 -55.5v-196c0 -46 -15.333 -75.667 -46 -89c30.667 -13.333 46 -43 46 -89v-196c0 -22 6.16699 -40.333 18.5 -55s27.5 -22 45.5 -22h61v-72h-61
c-24.667 0 -47.834 6 -69.501 18z" />
    <glyph glyph-name="bar" unicode="|" horiz-adv-x="214" 
d="M71 687h72v-707h-72v707z" />
    <glyph glyph-name="braceright" unicode="}" horiz-adv-x="276" 
d="M78 -118c18 0 33.167 7.33301 45.5 22s18.5 33 18.5 55v196c0 46 15.333 75.667 46 89c-30.667 13.333 -46 43 -46 89v196c0 22.667 -6.16699 41.167 -18.5 55.5s-27.5 21.5 -45.5 21.5h-61v72h61c24.667 0 47.834 -6.16699 69.501 -18.5s39.167 -29.833 52.5 -52.5
s20 -48.667 20 -78v-186c0 -19.333 4.5 -35.5 13.5 -48.5s21.833 -19.5 38.5 -19.5v-62c-16.667 0 -29.5 -6.5 -38.5 -19.5s-13.5 -29.167 -13.5 -48.5v-187c0 -29.333 -6.66699 -55.333 -20 -78s-30.833 -40 -52.5 -52s-44.834 -18 -69.501 -18h-61v72h61z" />
    <glyph glyph-name="asciitilde" unicode="~" horiz-adv-x="507" 
d="M440 483c-20.667 -44 -55.332 -66 -103.999 -66c-22.667 0 -41.334 5.5 -56.001 16.5s-25.667 23.833 -33 38.5s-15.333 34 -24 58s-16.334 41.5 -23.001 52.5s-16.334 16.5 -29.001 16.5c-20 0 -35.5 -16.5 -46.5 -49.5s-19.167 -77.5 -24.5 -133.5l-74 9
c6.66699 72.667 20.5 131 41.5 175s55.5 66 103.5 66c22.667 0 41.334 -5.33301 56.001 -16s25.834 -23.5 33.501 -38.5s15.5 -34.5 23.5 -58.5s15.5 -41.667 22.5 -53s16.833 -17 29.5 -17c37.333 0 61 61.333 71 184l73 -9c-6 -72.667 -19.333 -131 -40 -175z" />
    <glyph glyph-name="uni00A0" unicode="&#xa0;" horiz-adv-x="257" 
 />
    <glyph glyph-name="exclamdown" unicode="&#xa1;" horiz-adv-x="245" 
d="M171 472.5c14 -13.667 21 -29.834 21 -48.501s-6.83301 -35 -20.5 -49s-30.167 -21 -49.5 -21c-18.667 0 -34.834 6.83301 -48.501 20.5s-20.5 30.167 -20.5 49.5c0 18.667 6.83301 34.834 20.5 48.501s29.834 20.5 48.501 20.5s35 -6.83301 49 -20.5zM168 278l19 -462
h-128l18 462h91z" />
    <glyph glyph-name="cent" unicode="&#xa2;" horiz-adv-x="497" 
d="M404 138l69 -64c-34.667 -48 -84.334 -76 -149.001 -84v-90h-78v91c-40.667 6 -76.834 20.5 -108.501 43.5s-56.167 52.333 -73.5 88s-26 75.5 -26 119.5c0 43.333 8.66699 83 26 119s41.833 65.333 73.5 88s67.834 37 108.501 43v73h78v-72
c64.667 -8 114.334 -36 149.001 -84l-69 -64c-21.333 29.333 -48 47.333 -80 54v-315c31.333 6.66699 58 24.667 80 54zM173.5 144c17.667 -27.333 41.834 -46.001 72.501 -56.001v307c-30.667 -9.33301 -54.834 -27.666 -72.501 -54.999s-26.5 -60 -26.5 -98
s8.83301 -70.667 26.5 -98z" />
    <glyph glyph-name="sterling" unicode="&#xa3;" horiz-adv-x="536" 
d="M525 36c-31.333 -32.667 -78.6641 -49 -141.997 -49c-20.667 0 -38.334 2.16699 -53.001 6.5s-31.334 10.5 -50.001 18.5c-16.667 7.33301 -30.167 12.5 -40.5 15.5s-22.5 4.5 -36.5 4.5c-29.333 0 -68.333 -13 -117 -39l-40 82c36.667 16.667 65.667 37 87 61
s32 49.333 32 76c0 18.667 -4.33301 37.334 -13 56.001h-131v70h83c-18.667 24.667 -33 47 -43 67s-15 43 -15 69c0 38.667 11 73.5 33 104.5s51.167 55.167 87.5 72.5s74.5 26 114.5 26c51.333 0 95.666 -10 132.999 -30s66 -49 86 -87l-93 -55
c-8.66699 22 -23.334 40.167 -44.001 54.5s-43.667 21.5 -69 21.5c-34 0 -62.667 -10 -86 -30s-35 -46.333 -35 -79c0 -22 4 -41.167 12 -57.5s19.667 -34.833 35 -55.5l15 -21h147v-70h-116c2 -8.66699 3 -18.334 3 -29.001c0 -25.333 -6.5 -48.333 -19.5 -69
s-29.833 -37.667 -50.5 -51c16 5.33301 33 8 51 8c13.333 0 25.333 -1.5 36 -4.5s23.334 -7.83301 38.001 -14.5c12 -5.33301 22.667 -9.5 32 -12.5s20 -4.5 32 -4.5c20 0 38 3.83301 54 11.5s28 16.5 36 26.5z" />
    <glyph glyph-name="currency" unicode="&#xa4;" horiz-adv-x="612" 
d="M511 190l75 -74l-63 -62l-75 74c-40.667 -26 -88 -39 -142 -39s-101.667 13.333 -143 40l-74 -75l-63 62l74 74c-28 42.667 -42 90.334 -42 143.001c0 54.667 14.333 102.334 43 143.001l-76 76l63 62l77 -77c39.333 26 86.333 39 141 39s101.667 -13 141 -39l76 77
l63 -63l-75 -75c28.667 -40.667 43 -88.334 43 -143.001s-14.333 -102.334 -43 -143.001zM410 226.5c25.333 29 38 64.5 38 106.5c0 41.333 -12.667 76.333 -38 105s-60 43 -104 43s-78.667 -14.333 -104 -43s-38 -63.667 -38 -105c0 -42 12.667 -77.5 38 -106.5
s60 -43.5 104 -43.5s78.667 14.5 104 43.5z" />
    <glyph glyph-name="yen" unicode="&#xa5;" horiz-adv-x="637" 
d="M421 344h194v-67h-238v-92h238v-67h-238v-118h-117v118h-237v67h237v92h-237v67h193l-215 323h134l184 -286l182 286h134z" />
    <glyph glyph-name="brokenbar" unicode="&#xa6;" horiz-adv-x="214" 
d="M71 687h72v-316h-72v316zM71 296h72v-316h-72v316z" />
    <glyph glyph-name="section" unicode="&#xa7;" horiz-adv-x="477" 
d="M411 147c15.333 -19.333 23.0059 -44.6689 23.0059 -76.002c0 -47.333 -18.5 -84.5 -55.5 -111.5s-85.5 -40.5 -145.5 -40.5c-45.333 0 -84.5 7 -117.5 21s-62.167 33 -87.5 57l46 67c18 -19.333 41.167 -36 69.5 -50s58.166 -21 89.499 -21
c30 0 54.167 6.16699 72.5 18.5s27.5 29.5 27.5 51.5c0 20.667 -9.5 36 -28.5 46s-48.5 19.667 -88.5 29c-38 10 -68.333 19.5 -91 28.5s-42.334 23 -59.001 42s-25 44.5 -25 76.5s10.167 58.667 30.5 80s45.166 36.666 74.499 45.999c-70 24.667 -105 66.334 -105 125.001
c0 26 7.83301 49.667 23.5 71s37.834 38.333 66.501 51s62 19 100 19c80 0 142.333 -23 187 -69l-43 -63c-16.667 18 -37.667 32 -63 42s-51 15 -77 15c-28 0 -50.5 -5.83301 -67.5 -17.5s-25.5 -27.5 -25.5 -47.5c0 -18 8.66699 -31.167 26 -39.5
s45.666 -17.166 84.999 -26.499c37.333 -8 68.166 -16.667 92.499 -26s45.166 -23.833 62.499 -43.5s26 -46.5 26 -80.5c0 -28 -7.5 -53 -22.5 -75s-36.5 -39.667 -64.5 -53c27.333 -11.333 48.666 -26.666 63.999 -45.999zM163.006 350.497
c-14 -13.667 -21 -30.833 -21 -51.5c0 -23.333 10 -40.166 30 -50.499s50 -20.166 90 -29.499c23.333 10 40.666 21.667 51.999 35s17 29.666 17 48.999c0 22.667 -8.66699 40 -26 52s-40.666 21.667 -69.999 29c-34 -8.66699 -58 -19.834 -72 -33.501z" />
    <glyph glyph-name="dieresis" unicode="&#xa8;" horiz-adv-x="419" 
d="M63 581c-11.333 11.333 -17 25.333 -17 42c0 16 5.66699 29.667 17 41s25.333 17 42 17c16 0 29.667 -5.66699 41 -17s17 -25 17 -41c0 -16.667 -5.66699 -30.667 -17 -42s-25 -17 -41 -17c-16.667 0 -30.667 5.66699 -42 17zM272.5 581
c-11.667 11.333 -17.5 25.333 -17.5 42c0 16 5.83301 29.667 17.5 41s25.5 17 41.5 17s29.833 -5.66699 41.5 -17s17.5 -25 17.5 -41c0 -16.667 -5.83301 -30.667 -17.5 -42s-25.5 -17 -41.5 -17s-29.833 5.66699 -41.5 17z" />
    <glyph glyph-name="copyright" unicode="&#xa9;" horiz-adv-x="778" 
d="M216.5 34.5c-53 31 -95.001 73.001 -126.001 126.001s-46.5 110.5 -46.5 172.5c0 62.667 15.5 120.334 46.5 173.001s72.833 94.5 125.5 125.5s110.334 46.5 173.001 46.5s120.334 -15.5 173.001 -46.5s94.5 -72.833 125.5 -125.5s46.5 -110.334 46.5 -173.001
s-15.5 -120.334 -46.5 -173.001s-72.833 -94.5 -125.5 -125.5s-110.334 -46.5 -173.001 -46.5c-62 0 -119.5 15.5 -172.5 46.5zM233.499 602.001c-47.667 -28 -85.5 -65.833 -113.5 -113.5s-42 -99.5 -42 -155.5s14 -107.833 42 -155.5s65.833 -85.5 113.5 -113.5
s99.5 -42 155.5 -42s107.833 14 155.5 42s85.5 65.833 113.5 113.5s42 99.5 42 155.5s-14 107.833 -42 155.5s-65.833 85.5 -113.5 113.5s-99.5 42 -155.5 42s-107.833 -14 -155.5 -42zM392.999 121.001c-38 0 -72.833 9.33301 -104.5 28s-56.834 44.167 -75.501 76.5
s-28 68.5 -28 108.5s9.33301 76 28 108s43.834 57.167 75.501 75.5s66.5 27.5 104.5 27.5c30 0 57.5 -5.66699 82.5 -17s46.5 -27.666 64.5 -48.999l-29 -28c-13.333 17.333 -30.5 31.166 -51.5 41.499s-43.167 15.5 -66.5 15.5c-30 0 -57.667 -7.33301 -83 -22
s-45.5 -35.167 -60.5 -61.5s-22.5 -56.5 -22.5 -90.5c0 -33.333 7.5 -63.333 22.5 -90s35.333 -47.667 61 -63s53.167 -23 82.5 -23c24 0 46.5 5.16699 67.5 15.5s38.167 24.5 51.5 42.5l29 -28c-38 -44.667 -87.333 -67 -148 -67z" />
    <glyph glyph-name="ordfeminine" unicode="&#xaa;" horiz-adv-x="382" 
d="M250 359c-24.667 -27.333 -59.3369 -41.001 -104.004 -41.001c-29.333 0 -55.166 9.16699 -77.499 27.5s-33.5 43.833 -33.5 76.5s11.167 57.834 33.5 75.501s48.166 26.5 77.499 26.5c45.333 0 80 -13.333 104 -40v46c0 18 -6.83301 32.333 -20.5 43
s-31.167 16 -52.5 16c-17.333 0 -34.166 -3.66699 -50.499 -11s-31.166 -18 -44.499 -32l-31 50c18.667 17.333 39.834 30.333 63.501 39s48.5 13 74.5 13c40.667 0 73.834 -9.33301 99.501 -28s38.5 -49 38.5 -91v-203h-77v33zM249.997 443.999
c-7.33301 10 -17.666 17.833 -30.999 23.5s-27.333 8.5 -42 8.5c-18.667 0 -34.167 -5 -46.5 -15s-18.5 -23 -18.5 -39c0 -16.667 6.16699 -30 18.5 -40s27.833 -15 46.5 -15c14.667 0 28.667 3 42 9s23.666 14 30.999 24v44z" />
    <glyph glyph-name="guillemotleft" unicode="&#xab;" horiz-adv-x="489" 
d="M30 243l160 177h99l-160 -177l160 -180h-99zM200 243l160 177h99l-160 -177l160 -180h-99z" />
    <glyph glyph-name="logicalnot" unicode="&#xac;" horiz-adv-x="510" 
d="M403 205v190h-374v68h444v-258h-70z" />
    <glyph glyph-name="uni00AD" unicode="&#xad;" horiz-adv-x="300" 
d="M30 287h240v-90h-240v90z" />
    <glyph glyph-name="registered" unicode="&#xae;" horiz-adv-x="494" 
d="M140.5 281.5c-32.333 19 -58 44.667 -77 77s-28.5 67.833 -28.5 106.5s9.5 74.167 28.5 106.5s44.667 58 77 77s67.833 28.5 106.5 28.5s74.167 -9.5 106.5 -28.5s58 -44.667 77 -77s28.5 -67.833 28.5 -106.5s-9.5 -74.167 -28.5 -106.5s-44.667 -58 -77 -77
s-67.833 -28.5 -106.5 -28.5s-74.167 9.5 -106.5 28.5zM155.5 622c-27.667 -16 -49.667 -37.833 -66 -65.5s-24.5 -58.167 -24.5 -91.5c0 -32.667 8.16699 -63 24.5 -91s38.333 -50.167 66 -66.5s58.167 -24.5 91.5 -24.5c32.667 0 62.834 8.16699 90.501 24.5
s49.667 38.5 66 66.5s24.5 58.333 24.5 91c0 33.333 -8.16699 63.833 -24.5 91.5s-38.333 49.5 -66 65.5s-57.834 24 -90.501 24c-33.333 0 -63.833 -8 -91.5 -24zM242 439l-42.999 0.000976562v-96h-33v243h99c21.333 0 39.666 -6.83301 54.999 -20.5s23 -31.5 23 -53.5
c0 -16.667 -3.83301 -30.334 -11.5 -41.001s-16.5 -18.5 -26.5 -23.5s-18 -7.5 -24 -7.5l65 -97h-41zM199.001 557.001v-88.001h66c11.333 0 21.5 4.16699 30.5 12.5s13.5 18.5 13.5 30.5c0 12.667 -4.5 23.334 -13.5 32.001s-19.167 13 -30.5 13h-66z" />
    <glyph glyph-name="macron" unicode="&#xaf;" horiz-adv-x="363" 
d="M20 628h323v-62h-323v62z" />
    <glyph glyph-name="degree" unicode="&#xb0;" horiz-adv-x="302" 
d="M85.5 435c-19.667 11.333 -35.334 27 -47.001 47s-17.5 41.667 -17.5 65s5.83301 45 17.5 65s27.334 35.833 47.001 47.5s41.167 17.5 64.5 17.5s45 -5.83301 65 -17.5s35.833 -27.5 47.5 -47.5s17.5 -41.667 17.5 -65s-5.83301 -45 -17.5 -65s-27.5 -35.667 -47.5 -47
s-41.667 -17 -65 -17s-44.833 5.66699 -64.5 17zM102 596.5c-13.333 -13.667 -20 -30.1689 -20 -49.502s6.66699 -35.666 20 -48.999s29.333 -20 48 -20c19.333 0 35.833 6.83301 49.5 20.5s20.5 29.834 20.5 48.501c0 19.333 -6.83301 35.833 -20.5 49.5
s-30.167 20.5 -49.5 20.5c-18.667 0 -34.667 -6.83301 -48 -20.5z" />
    <glyph glyph-name="plusminus" unicode="&#xb1;" horiz-adv-x="502" 
d="M288 117h-74v208h-185v67h185v201h74v-201h185v-67h-185v-208zM29 67h444v-67h-444v67z" />
    <glyph glyph-name="uni00B2" unicode="&#xb2;" horiz-adv-x="393" 
d="M48 480c58 41.333 102.332 74.333 132.999 99s53 46.5 67 65.5s21 37.167 21 54.5c0 20.667 -7.16699 36.334 -21.5 47.001s-32.166 16 -53.499 16c-22.667 0 -44 -5 -64 -15s-35.333 -22 -46 -36l-43 51c18 21.333 40.833 37.5 68.5 48.5s56.5 16.5 86.5 16.5
c44 0 80.5 -10.667 109.5 -32s43.5 -51.333 43.5 -90c0 -34 -14.833 -67.833 -44.5 -101.5s-76.167 -72.834 -139.5 -117.501h187v-65h-304v59z" />
    <glyph glyph-name="uni00B3" unicode="&#xb3;" horiz-adv-x="393" 
d="M100 431.5c-27.333 11.667 -48.666 27.1709 -63.999 46.5039l41 52c14 -16 31.333 -28.5 52 -37.5s41.667 -13.5 63 -13.5c26 0 46.167 5.16699 60.5 15.5s21.5 24.166 21.5 41.499c0 38 -31.667 57 -95 57c-24.667 0 -39 -0.333008 -43 -1v65
c5.33301 -0.666992 19.333 -1 42 -1c59.333 0 89 17.667 89 53c0 16.667 -7.5 29.667 -22.5 39s-34.167 14 -57.5 14c-41.333 0 -77 -15.333 -107 -46l-39 48c38.667 42 90 63 154 63c46.667 0 83.667 -9.83301 111 -29.5s41 -45.834 41 -78.501
c0 -24.667 -8.83301 -45.167 -26.5 -61.5s-38.5 -26.5 -62.5 -30.5c23.333 -2 45.166 -11.333 65.499 -28s30.5 -39.334 30.5 -68.001c0 -34.667 -14.5 -62.834 -43.5 -84.501s-67.5 -32.5 -115.5 -32.5c-36 0 -67.667 5.83301 -95 17.5z" />
    <glyph glyph-name="acute" unicode="&#xb4;" horiz-adv-x="240" 
d="M0 556l140 144h100l-165 -144h-75z" />
    <glyph glyph-name="uni00B5" unicode="&#xb5;" horiz-adv-x="581" 
d="M68 -184l0.00292969 666.999h105v-304c0 -66 32.667 -99 98 -99c24.667 0 48 6.16699 70 18.5s39.667 27.5 53 45.5v339h105v-352c0 -15.333 3.83301 -27.5 11.5 -36.5s18.167 -13.5 31.5 -13.5c6 0 12.333 0.666992 19 2l7 -89c-12.667 -4 -29.334 -6 -50.001 -6
c-64.667 0 -104.334 28.667 -119.001 86c-16.667 -25.333 -37.5 -46 -62.5 -62s-51.833 -24 -80.5 -24c-21.333 0 -38.833 3.33301 -52.5 10s-23.834 15.334 -30.501 26.001v-208h-105z" />
    <glyph glyph-name="paragraph" unicode="&#xb6;" horiz-adv-x="449" 
d="M337 612l-83 0.00390625v-712h-55v423c-31.333 0 -60.166 7.66699 -86.499 23s-47.166 36.166 -62.499 62.499s-23 55.166 -23 86.499s7.66699 60.166 23 86.499s36.166 47.166 62.499 62.499s55.166 23 86.499 23h193v-767h-55v712z" />
    <glyph glyph-name="periodcentered" unicode="&#xb7;" horiz-adv-x="245" 
d="M73 195.5c-14 13.667 -21 29.834 -21 48.501c0 19.333 7 35.833 21 49.5s30.333 20.5 49 20.5c19.333 0 35.833 -6.83301 49.5 -20.5s20.5 -30.167 20.5 -49.5c0 -18.667 -7 -34.834 -21 -48.501s-30.333 -20.5 -49 -20.5s-35 6.83301 -49 20.5z" />
    <glyph glyph-name="cedilla" unicode="&#xb8;" horiz-adv-x="214" 
d="M22 -117c24 -19.333 51.002 -29 81.002 -29c16 0 29.333 3.33301 40 10s16 16 16 28c0 8.66699 -2.83301 15.5 -8.5 20.5s-13.834 7.5 -24.501 7.5c-14 0 -25.333 -5 -34 -15l-41 23l31 83h55l-26 -64c10.667 7.33301 22.667 11 36 11c19.333 0 35.333 -6.33301 48 -19
s19 -28.667 19 -48c0 -26 -10.333 -46.667 -31 -62s-46.334 -23 -77.001 -23c-22 0 -42.5 3 -61.5 9s-33.833 13.333 -44.5 22z" />
    <glyph glyph-name="uni00B9" unicode="&#xb9;" horiz-adv-x="264" 
d="M123 717l-67 -69l-46 49l124 124h70v-400h-81v296z" />
    <glyph glyph-name="ordmasculine" unicode="&#xba;" horiz-adv-x="405" 
d="M54.5 566c13.667 25.333 33.334 45.333 59.001 60s55.167 22 88.5 22c34 0 63.833 -7.33301 89.5 -22s45.334 -34.667 59.001 -60s20.5 -53 20.5 -83s-6.83301 -57.667 -20.5 -83s-33.334 -45.333 -59.001 -60s-55.5 -22 -89.5 -22c-33.333 0 -62.833 7.33301 -88.5 22
s-45.334 34.667 -59.001 60s-20.5 53 -20.5 83s6.83301 57.667 20.5 83zM267 555.5c-16 18.333 -37.667 27.5 -65 27.5s-48.833 -9.16699 -64.5 -27.5s-23.5 -42.5 -23.5 -72.5c0 -30.667 7.83301 -55.334 23.5 -74.001s37.167 -28 64.5 -28s49 9.33301 65 28
s24 43.334 24 74.001c0 30 -8 54.167 -24 72.5z" />
    <glyph glyph-name="guillemotright" unicode="&#xbb;" horiz-adv-x="489" 
d="M30 63l160 180l-160 177h99l160 -177l-160 -180h-99zM200 63l160 180l-160 177h99l160 -177l-160 -180h-99z" />
    <glyph glyph-name="onequarter" unicode="&#xbc;" horiz-adv-x="782" 
d="M123 563l-67 -69l-46 49l124 124h70v-400h-81v296zM117 0l426 667h68l-427 -667h-67zM698 0h-80v92h-196v56l164 252h112v-244h55v-64h-55v-92zM502 156h116v175z" />
    <glyph glyph-name="onehalf" unicode="&#xbd;" horiz-adv-x="832" 
d="M123 563l-67 -69l-46 49l124 124h70v-400h-81v296zM117 0l426 667h68l-427 -667h-67zM487 59c58 41.333 102.332 74.333 132.999 99s53 46.5 67 65.5s21 37.167 21 54.5c0 20.667 -7.16699 36.334 -21.5 47.001s-32.166 16 -53.499 16c-22.667 0 -44 -5 -64 -15
s-35.333 -22 -46 -36l-43 51c18 21.333 40.833 37.5 68.5 48.5s56.5 16.5 86.5 16.5c44 0 80.5 -10.667 109.5 -32s43.5 -51.333 43.5 -90c0 -34 -14.833 -67.833 -44.5 -101.5s-76.167 -72.834 -139.5 -117.501h187v-65h-304v59z" />
    <glyph glyph-name="threequarters" unicode="&#xbe;" horiz-adv-x="886" 
d="M100 277.5c-27.333 11.667 -48.666 27.1709 -63.999 46.5039l41 52c14 -16 31.333 -28.5 52 -37.5s41.667 -13.5 63 -13.5c26 0 46.167 5.16699 60.5 15.5s21.5 24.166 21.5 41.499c0 38 -31.667 57 -95 57c-24.667 0 -39 -0.333008 -43 -1v65
c5.33301 -0.666992 19.333 -1 42 -1c59.333 0 89 17.667 89 53c0 16.667 -7.5 29.667 -22.5 39s-34.167 14 -57.5 14c-41.333 0 -77 -15.333 -107 -46l-39 48c38.667 42 90 63 154 63c46.667 0 83.667 -9.83301 111 -29.5s41 -45.834 41 -78.501
c0 -24.667 -8.83301 -45.167 -26.5 -61.5s-38.5 -26.5 -62.5 -30.5c23.333 -2 45.166 -11.333 65.499 -28s30.5 -39.334 30.5 -68.001c0 -34.667 -14.5 -62.834 -43.5 -84.501s-67.5 -32.5 -115.5 -32.5c-36 0 -67.667 5.83301 -95 17.5zM221 0.00390625l426 667h68
l-427 -667h-67zM802 0.00390625h-80v92h-196v56l164 252h112v-244h55v-64h-55v-92zM606 156.004h116v175z" />
    <glyph glyph-name="questiondown" unicode="&#xbf;" horiz-adv-x="396" 
d="M282 374.5c-14 -13.667 -30.333 -20.5 -49 -20.5s-35 6.83301 -49 20.5s-21 29.834 -21 48.501c0 19.333 7 35.833 21 49.5s30.333 20.5 49 20.5c19.333 0 35.833 -6.83301 49.5 -20.5s20.5 -30.167 20.5 -49.5c0 -18.667 -7 -34.834 -21 -48.501zM281.5 127.5
c-15.667 -18.333 -38.501 -38.165 -68.501 -59.498c-23.333 -16.667 -40.666 -31.334 -51.999 -44.001s-17 -27.334 -17 -44.001c0 -20.667 8.16699 -37.834 24.5 -51.501s39.833 -20.5 70.5 -20.5c54.667 0 101 23.333 139 70l67 -75
c-26 -31.333 -57.667 -55.666 -95 -72.999s-78.333 -26 -123 -26c-41.333 0 -77.333 6.83301 -108 20.5s-54.167 32.334 -70.5 56.001s-24.5 50.5 -24.5 80.5c0 26 5 48.5 15 67.5s22 35 36 48s32.333 27.167 55 42.5c24.667 18 43 33.5 55 46.5s18 28.167 18 45.5
c0 8 -2 16.167 -6 24.5s-9.33301 15.166 -16 20.499l88 29c24 -22.667 36 -51 36 -85c0 -30 -7.83301 -54.167 -23.5 -72.5z" />
    <glyph glyph-name="Agrave" unicode="&#xc0;" horiz-adv-x="673" 
d="M494 128h-316l-49 -128h-128l262 667h146l262 -667h-128zM211 231h250l-125 337zM133 867h100l140 -144h-75z" />
    <glyph glyph-name="Aacute" unicode="&#xc1;" horiz-adv-x="673" 
d="M494 128h-316l-49 -128h-128l262 667h146l262 -667h-128zM211 231h250l-125 337zM295 723l140 144h100l-165 -144h-75z" />
    <glyph glyph-name="Acircumflex" unicode="&#xc2;" horiz-adv-x="673" 
d="M494 128h-316l-49 -128h-128l262 667h146l262 -667h-128zM211 231h250l-125 337zM336 819l-75 -96h-66l93 144h96l96 -144h-67z" />
    <glyph glyph-name="Atilde" unicode="&#xc3;" horiz-adv-x="673" 
d="M494 128h-316l-49 -128h-128l262 667h146l262 -667h-128zM211 231h250l-125 337zM296.5 791c-6.33301 5.33301 -13.5 8 -21.5 8c-12 0 -22 -6 -30 -18s-12 -30 -12 -54h-57c0 41.333 8.83301 74 26.5 98s43.167 36 76.5 36c17.333 0 31.333 -4 42 -12
s21.667 -19.333 33 -34c9.33301 -11.333 17 -19.5 23 -24.5s13 -7.5 21 -7.5c12 0 21.833 6 29.5 18s11.5 30 11.5 54h58c0 -41.333 -8.83301 -74 -26.5 -98s-43.167 -36 -76.5 -36c-17.333 0 -31.5 4 -42.5 12s-22.167 19.333 -33.5 34c-8 10.667 -15.167 18.667 -21.5 24z
" />
    <glyph glyph-name="Adieresis" unicode="&#xc4;" horiz-adv-x="673" 
d="M494 128h-316l-49 -128h-128l262 667h146l262 -667h-128zM211 231h250l-125 337zM190 748c-11.333 11.333 -17 25.333 -17 42c0 16 5.66699 29.667 17 41s25.333 17 42 17c16 0 29.667 -5.66699 41 -17s17 -25 17 -41c0 -16.667 -5.66699 -30.667 -17 -42
s-25 -17 -41 -17c-16.667 0 -30.667 5.66699 -42 17zM399.5 748c-11.667 11.333 -17.5 25.333 -17.5 42c0 16 5.83301 29.667 17.5 41s25.5 17 41.5 17s29.833 -5.66699 41.5 -17s17.5 -25 17.5 -41c0 -16.667 -5.83301 -30.667 -17.5 -42s-25.5 -17 -41.5 -17
s-29.833 5.66699 -41.5 17z" />
    <glyph glyph-name="Aring" unicode="&#xc5;" horiz-adv-x="673" 
d="M494 128h-316l-49 -128h-128l262 667h146l262 -667h-128zM211 231h250l-125 337zM265 877.5c20 20.333 44 30.5 72 30.5s51.833 -10.167 71.5 -30.5s29.5 -44.5 29.5 -72.5s-9.83301 -52 -29.5 -72s-43.5 -30 -71.5 -30s-52 10 -72 30s-30 44 -30 72s10 52.167 30 72.5z
M373.5 842c-9.66699 10 -21.833 15 -36.5 15c-14 0 -26.167 -5 -36.5 -15s-15.5 -22.333 -15.5 -37c0 -14 5.16699 -26.167 15.5 -36.5s22.5 -15.5 36.5 -15.5s26 5.16699 36 15.5s15 22.5 15 36.5c0 14.667 -4.83301 27 -14.5 37z" />
    <glyph glyph-name="AE" unicode="&#xc6;" horiz-adv-x="959" 
d="M455 128h-252l-77 -128h-128l410 667h504v-103h-340v-173h333v-103h-333v-185h340v-103h-457v128zM259 231h196v338z" />
    <glyph glyph-name="Ccedilla" unicode="&#xc7;" horiz-adv-x="682" 
d="M488 119c30.667 18 54.335 41.333 71.002 70l100 -51c-59.333 -94 -143.333 -143.667 -252 -149l-17 -42c10.667 7.33301 22.667 11 36 11c19.333 0 35.333 -6.33301 48 -19s19 -28.667 19 -48c0 -26 -10.333 -46.667 -31 -62s-46.334 -23 -77.001 -23
c-22 0 -42.5 3 -61.5 9s-33.833 13.333 -44.5 22l22 46c24 -19.333 51 -29 81 -29c16 0 29.333 3.33301 40 10s16 16 16 28c0 8.66699 -2.83301 15.5 -8.5 20.5s-13.834 7.5 -24.501 7.5c-14 0 -25.333 -5 -34 -15l-41 23l23 61c-58.667 4.66699 -111.667 22.167 -159 52.5
s-84.666 70.833 -111.999 121.5s-41 107.334 -41 170.001c0 66.667 15.333 126.334 46 179.001s72.167 93.5 124.5 122.5s110.5 43.5 174.5 43.5c119.333 0 210.333 -50 273 -150l-100 -51c-16.667 28.667 -40.334 52 -71.001 70s-64.667 27 -102 27
c-42 0 -80.167 -10.333 -114.5 -31s-61.333 -49.334 -81 -86.001s-29.5 -78 -29.5 -124s9.83301 -87.333 29.5 -124s46.667 -65.334 81 -86.001s72.5 -31 114.5 -31c37.333 0 71.333 9 102 27z" />
    <glyph glyph-name="Egrave" unicode="&#xc8;" horiz-adv-x="577" 
d="M71 667h457v-103h-340v-173h333v-103h-333v-185h340v-103h-457v667zM103 867h100l140 -144h-75z" />
    <glyph glyph-name="Eacute" unicode="&#xc9;" horiz-adv-x="577" 
d="M71 667h457v-103h-340v-173h333v-103h-333v-185h340v-103h-457v667zM265 723l140 144h100l-165 -144h-75z" />
    <glyph glyph-name="Ecircumflex" unicode="&#xca;" horiz-adv-x="577" 
d="M71 667h457v-103h-340v-173h333v-103h-333v-185h340v-103h-457v667zM306 819l-75 -96h-66l93 144h96l96 -144h-67z" />
    <glyph glyph-name="Edieresis" unicode="&#xcb;" horiz-adv-x="577" 
d="M71 667h457v-103h-340v-173h333v-103h-333v-185h340v-103h-457v667zM160 748c-11.333 11.333 -17 25.333 -17 42c0 16 5.66699 29.667 17 41s25.333 17 42 17c16 0 29.667 -5.66699 41 -17s17 -25 17 -41c0 -16.667 -5.66699 -30.667 -17 -42s-25 -17 -41 -17
c-16.667 0 -30.667 5.66699 -42 17zM369.5 748c-11.667 11.333 -17.5 25.333 -17.5 42c0 16 5.83301 29.667 17.5 41s25.5 17 41.5 17s29.833 -5.66699 41.5 -17s17.5 -25 17.5 -41c0 -16.667 -5.83301 -30.667 -17.5 -42s-25.5 -17 -41.5 -17s-29.833 5.66699 -41.5 17z
" />
    <glyph glyph-name="Igrave" unicode="&#xcc;" horiz-adv-x="259" 
d="M71 667h117v-667h-117v667zM-73 867h100l140 -144h-75z" />
    <glyph glyph-name="Iacute" unicode="&#xcd;" horiz-adv-x="259" 
d="M71 667h117v-667h-117v667zM89 723l140 144h100l-165 -144h-75z" />
    <glyph glyph-name="Icircumflex" unicode="&#xce;" horiz-adv-x="259" 
d="M71 667h117v-667h-117v667zM130 819l-75 -96h-66l93 144h96l96 -144h-67z" />
    <glyph glyph-name="Idieresis" unicode="&#xcf;" horiz-adv-x="259" 
d="M71 667h117v-667h-117v667zM-16 748c-11.333 11.333 -17 25.333 -17 42c0 16 5.66699 29.667 17 41s25.333 17 42 17c16 0 29.667 -5.66699 41 -17s17 -25 17 -41c0 -16.667 -5.66699 -30.667 -17 -42s-25 -17 -41 -17c-16.667 0 -30.667 5.66699 -42 17zM193.5 748
c-11.667 11.333 -17.5 25.333 -17.5 42c0 16 5.83301 29.667 17.5 41s25.5 17 41.5 17s29.833 -5.66699 41.5 -17s17.5 -25 17.5 -41c0 -16.667 -5.83301 -30.667 -17.5 -42s-25.5 -17 -41.5 -17s-29.833 5.66699 -41.5 17z" />
    <glyph glyph-name="Eth" unicode="&#xd0;" horiz-adv-x="736" 
d="M527 624.5c52.667 -28.333 93.667 -67.833 123 -118.5s44 -108.334 44 -173.001s-14.667 -122.167 -44 -172.5s-70.333 -89.666 -123 -117.999s-113.334 -42.5 -182.001 -42.5h-248v285h-88v86h88v296h248c68.667 0 129.334 -14.167 182.001 -42.5zM467 133.5
c34.667 20.333 61.167 48 79.5 83s27.5 73.833 27.5 116.5c0 43.333 -8.83301 82.5 -26.5 117.5s-43.834 62.667 -78.501 83s-76 30.5 -124 30.5h-131v-193h158v-86h-158v-182h131c46.667 0 87.334 10.167 122.001 30.5z" />
    <glyph glyph-name="Ntilde" unicode="&#xd1;" horiz-adv-x="720" 
d="M188 486v-486h-117v667h120l341 -473v473h117v-667h-113zM320.5 791c-6.33301 5.33301 -13.5 8 -21.5 8c-12 0 -22 -6 -30 -18s-12 -30 -12 -54h-57c0 41.333 8.83301 74 26.5 98s43.167 36 76.5 36c17.333 0 31.333 -4 42 -12s21.667 -19.333 33 -34
c9.33301 -11.333 17 -19.5 23 -24.5s13 -7.5 21 -7.5c12 0 21.833 6 29.5 18s11.5 30 11.5 54h58c0 -41.333 -8.83301 -74 -26.5 -98s-43.167 -36 -76.5 -36c-17.333 0 -31.5 4 -42.5 12s-22.167 19.333 -33.5 34c-8 10.667 -15.167 18.667 -21.5 24z" />
    <glyph glyph-name="Ograve" unicode="&#xd2;" horiz-adv-x="765" 
d="M84.5 510c29 52.667 69.333 93.834 121 123.501s110.5 44.5 176.5 44.5s124.833 -14.833 176.5 -44.5s92 -70.834 121 -123.501s43.5 -111.667 43.5 -177s-14.5 -124.333 -43.5 -177s-69.333 -93.834 -121 -123.501s-110.5 -44.5 -176.5 -44.5
s-124.833 14.833 -176.5 44.5s-92 70.834 -121 123.501s-43.5 111.667 -43.5 177s14.5 124.333 43.5 177zM575.5 457c-18.333 36.667 -44.166 65.334 -77.499 86.001s-72 31 -116 31s-82.667 -10.333 -116 -31s-59.166 -49.334 -77.499 -86.001s-27.5 -78 -27.5 -124
c0 -45.333 9.16699 -86.333 27.5 -123s44.166 -65.5 77.499 -86.5s72 -31.5 116 -31.5s82.667 10.5 116 31.5s59.166 49.833 77.499 86.5s27.5 77.667 27.5 123c0 46 -9.16699 87.333 -27.5 124zM178 867h100l140 -144h-75z" />
    <glyph glyph-name="Oacute" unicode="&#xd3;" horiz-adv-x="765" 
d="M84.5 510c29 52.667 69.333 93.834 121 123.501s110.5 44.5 176.5 44.5s124.833 -14.833 176.5 -44.5s92 -70.834 121 -123.501s43.5 -111.667 43.5 -177s-14.5 -124.333 -43.5 -177s-69.333 -93.834 -121 -123.501s-110.5 -44.5 -176.5 -44.5
s-124.833 14.833 -176.5 44.5s-92 70.834 -121 123.501s-43.5 111.667 -43.5 177s14.5 124.333 43.5 177zM575.5 457c-18.333 36.667 -44.166 65.334 -77.499 86.001s-72 31 -116 31s-82.667 -10.333 -116 -31s-59.166 -49.334 -77.499 -86.001s-27.5 -78 -27.5 -124
c0 -45.333 9.16699 -86.333 27.5 -123s44.166 -65.5 77.499 -86.5s72 -31.5 116 -31.5s82.667 10.5 116 31.5s59.166 49.833 77.499 86.5s27.5 77.667 27.5 123c0 46 -9.16699 87.333 -27.5 124zM340 723l140 144h100l-165 -144h-75z" />
    <glyph glyph-name="Ocircumflex" unicode="&#xd4;" horiz-adv-x="765" 
d="M84.5 510c29 52.667 69.333 93.834 121 123.501s110.5 44.5 176.5 44.5s124.833 -14.833 176.5 -44.5s92 -70.834 121 -123.501s43.5 -111.667 43.5 -177s-14.5 -124.333 -43.5 -177s-69.333 -93.834 -121 -123.501s-110.5 -44.5 -176.5 -44.5
s-124.833 14.833 -176.5 44.5s-92 70.834 -121 123.501s-43.5 111.667 -43.5 177s14.5 124.333 43.5 177zM575.5 457c-18.333 36.667 -44.166 65.334 -77.499 86.001s-72 31 -116 31s-82.667 -10.333 -116 -31s-59.166 -49.334 -77.499 -86.001s-27.5 -78 -27.5 -124
c0 -45.333 9.16699 -86.333 27.5 -123s44.166 -65.5 77.499 -86.5s72 -31.5 116 -31.5s82.667 10.5 116 31.5s59.166 49.833 77.499 86.5s27.5 77.667 27.5 123c0 46 -9.16699 87.333 -27.5 124zM381 819l-75 -96h-66l93 144h96l96 -144h-67z" />
    <glyph glyph-name="Otilde" unicode="&#xd5;" horiz-adv-x="765" 
d="M84.5 510c29 52.667 69.333 93.834 121 123.501s110.5 44.5 176.5 44.5s124.833 -14.833 176.5 -44.5s92 -70.834 121 -123.501s43.5 -111.667 43.5 -177s-14.5 -124.333 -43.5 -177s-69.333 -93.834 -121 -123.501s-110.5 -44.5 -176.5 -44.5
s-124.833 14.833 -176.5 44.5s-92 70.834 -121 123.501s-43.5 111.667 -43.5 177s14.5 124.333 43.5 177zM575.5 457c-18.333 36.667 -44.166 65.334 -77.499 86.001s-72 31 -116 31s-82.667 -10.333 -116 -31s-59.166 -49.334 -77.499 -86.001s-27.5 -78 -27.5 -124
c0 -45.333 9.16699 -86.333 27.5 -123s44.166 -65.5 77.499 -86.5s72 -31.5 116 -31.5s82.667 10.5 116 31.5s59.166 49.833 77.499 86.5s27.5 77.667 27.5 123c0 46 -9.16699 87.333 -27.5 124zM341.5 791c-6.33301 5.33301 -13.5 8 -21.5 8c-12 0 -22 -6 -30 -18
s-12 -30 -12 -54h-57c0 41.333 8.83301 74 26.5 98s43.167 36 76.5 36c17.333 0 31.333 -4 42 -12s21.667 -19.333 33 -34c9.33301 -11.333 17 -19.5 23 -24.5s13 -7.5 21 -7.5c12 0 21.833 6 29.5 18s11.5 30 11.5 54h58c0 -41.333 -8.83301 -74 -26.5 -98
s-43.167 -36 -76.5 -36c-17.333 0 -31.5 4 -42.5 12s-22.167 19.333 -33.5 34c-8 10.667 -15.167 18.667 -21.5 24z" />
    <glyph glyph-name="Odieresis" unicode="&#xd6;" horiz-adv-x="765" 
d="M84.5 510c29 52.667 69.333 93.834 121 123.501s110.5 44.5 176.5 44.5s124.833 -14.833 176.5 -44.5s92 -70.834 121 -123.501s43.5 -111.667 43.5 -177s-14.5 -124.333 -43.5 -177s-69.333 -93.834 -121 -123.501s-110.5 -44.5 -176.5 -44.5
s-124.833 14.833 -176.5 44.5s-92 70.834 -121 123.501s-43.5 111.667 -43.5 177s14.5 124.333 43.5 177zM575.5 457c-18.333 36.667 -44.166 65.334 -77.499 86.001s-72 31 -116 31s-82.667 -10.333 -116 -31s-59.166 -49.334 -77.499 -86.001s-27.5 -78 -27.5 -124
c0 -45.333 9.16699 -86.333 27.5 -123s44.166 -65.5 77.499 -86.5s72 -31.5 116 -31.5s82.667 10.5 116 31.5s59.166 49.833 77.499 86.5s27.5 77.667 27.5 123c0 46 -9.16699 87.333 -27.5 124zM235 748c-11.333 11.333 -17 25.333 -17 42c0 16 5.66699 29.667 17 41
s25.333 17 42 17c16 0 29.667 -5.66699 41 -17s17 -25 17 -41c0 -16.667 -5.66699 -30.667 -17 -42s-25 -17 -41 -17c-16.667 0 -30.667 5.66699 -42 17zM444.5 748c-11.667 11.333 -17.5 25.333 -17.5 42c0 16 5.83301 29.667 17.5 41s25.5 17 41.5 17
s29.833 -5.66699 41.5 -17s17.5 -25 17.5 -41c0 -16.667 -5.83301 -30.667 -17.5 -42s-25.5 -17 -41.5 -17s-29.833 5.66699 -41.5 17z" />
    <glyph glyph-name="multiply" unicode="&#xd7;" horiz-adv-x="502" 
d="M107 142l-48 47l144 145l-144 144l48 48l144 -145l144 145l48 -48l-144 -144l144 -145l-48 -47l-144 144z" />
    <glyph glyph-name="Oslash" unicode="&#xd8;" horiz-adv-x="765" 
d="M693.5 482c19.667 -45.333 29.499 -95.001 29.499 -149.001c0 -65.333 -14.5 -124.333 -43.5 -177s-69.333 -93.834 -121 -123.501s-110.5 -44.5 -176.5 -44.5c-65.333 0 -125 15.333 -179 46l-25 -34h-87l55 76c-33.333 31.333 -59.166 69 -77.499 113
s-27.5 92 -27.5 144c0 65.333 14.5 124.333 43.5 177s69.333 93.834 121 123.501s110.5 44.5 176.5 44.5c62 0 118.667 -13.667 170 -41l22 30h87l-51 -70c36 -31.333 63.833 -69.666 83.5 -114.999zM174.499 243.499c9 -27.667 22.166 -52.166 39.499 -73.499l274 378
c-30.667 17.333 -66 26 -106 26c-44 0 -82.667 -10.333 -116 -31s-59.166 -49.334 -77.499 -86.001s-27.5 -78 -27.5 -124c0 -32 4.5 -61.833 13.5 -89.5zM497.998 123.5c33.333 21 59.167 49.833 77.5 86.5s27.5 77.667 27.5 123c0 34 -5.16699 65.667 -15.5 95
s-25.166 55 -44.499 77l-276 -382c33.333 -20.667 71.666 -31 114.999 -31c44 0 82.667 10.5 116 31.5z" />
    <glyph glyph-name="Ugrave" unicode="&#xd9;" horiz-adv-x="719" 
d="M71 667l117.999 -0.000976562v-400c0 -54 14.833 -96.667 44.5 -128s71.834 -47 126.501 -47s96.667 15.667 126 47s44 74 44 128v400h118v-403c0 -85.333 -24.5 -152.666 -73.5 -201.999s-120.5 -74 -214.5 -74c-94.667 0 -166.5 24.667 -215.5 74
s-73.5 116.333 -73.5 201v404zM156.999 866.999h100l140 -144h-75z" />
    <glyph glyph-name="Uacute" unicode="&#xda;" horiz-adv-x="719" 
d="M71 667l117.999 -0.000976562v-400c0 -54 14.833 -96.667 44.5 -128s71.834 -47 126.501 -47s96.667 15.667 126 47s44 74 44 128v400h118v-403c0 -85.333 -24.5 -152.666 -73.5 -201.999s-120.5 -74 -214.5 -74c-94.667 0 -166.5 24.667 -215.5 74
s-73.5 116.333 -73.5 201v404zM318.999 722.999l140 144h100l-165 -144h-75z" />
    <glyph glyph-name="Ucircumflex" unicode="&#xdb;" horiz-adv-x="719" 
d="M71 667l117.999 -0.000976562v-400c0 -54 14.833 -96.667 44.5 -128s71.834 -47 126.501 -47s96.667 15.667 126 47s44 74 44 128v400h118v-403c0 -85.333 -24.5 -152.666 -73.5 -201.999s-120.5 -74 -214.5 -74c-94.667 0 -166.5 24.667 -215.5 74
s-73.5 116.333 -73.5 201v404zM359.999 818.999l-75 -96h-66l93 144h96l96 -144h-67z" />
    <glyph glyph-name="Udieresis" unicode="&#xdc;" horiz-adv-x="719" 
d="M71 667l117.999 -0.000976562v-400c0 -54 14.833 -96.667 44.5 -128s71.834 -47 126.501 -47s96.667 15.667 126 47s44 74 44 128v400h118v-403c0 -85.333 -24.5 -152.666 -73.5 -201.999s-120.5 -74 -214.5 -74c-94.667 0 -166.5 24.667 -215.5 74
s-73.5 116.333 -73.5 201v404zM213.999 747.999c-11.333 11.333 -17 25.333 -17 42c0 16 5.66699 29.667 17 41s25.333 17 42 17c16 0 29.667 -5.66699 41 -17s17 -25 17 -41c0 -16.667 -5.66699 -30.667 -17 -42s-25 -17 -41 -17c-16.667 0 -30.667 5.66699 -42 17z
M423.499 747.999c-11.667 11.333 -17.5 25.333 -17.5 42c0 16 5.83301 29.667 17.5 41s25.5 17 41.5 17s29.833 -5.66699 41.5 -17s17.5 -25 17.5 -41c0 -16.667 -5.83301 -30.667 -17.5 -42s-25.5 -17 -41.5 -17s-29.833 5.66699 -41.5 17z" />
    <glyph glyph-name="Yacute" unicode="&#xdd;" horiz-adv-x="637" 
d="M260 277l-259 390h134l184 -286l182 286h134l-258 -390v-277h-117v277zM277 723l140 144h100l-165 -144h-75z" />
    <glyph glyph-name="Thorn" unicode="&#xde;" horiz-adv-x="608" 
d="M71 667h117v-113h176c45.333 0 84.333 -9.33301 117 -28s57.667 -44 75 -76s26 -67.333 26 -106c0 -38 -8.66699 -72.833 -26 -104.5s-42.5 -56.667 -75.5 -75s-71.833 -27.5 -116.5 -27.5h-176v-137h-117v667zM430 421.5c-21.333 19.667 -48.666 29.501 -81.999 29.501
h-160v-211h160c33.333 0 60.666 9.66699 81.999 29s32 44.666 32 75.999s-10.667 56.833 -32 76.5z" />
    <glyph glyph-name="germandbls" unicode="&#xdf;" horiz-adv-x="623" 
d="M301.5 8c-28.333 13.333 -55.833 32.6689 -82.5 58.002l47 73c14.667 -19.333 35.167 -35.333 61.5 -48s54.166 -19 83.499 -19c30 0 53.167 6.33301 69.5 19s24.5 28 24.5 46c0 17.333 -8.33301 30.5 -25 39.5s-42.667 17.833 -78 26.5s-64.166 17.5 -86.499 26.5
s-41.666 23.167 -57.999 42.5s-24.5 45 -24.5 77c0 27.333 7.33301 49.666 22 66.999s35 35 61 53c17.333 12 30 22 38 30s12 17 12 27c0 18 -8.83301 32.167 -26.5 42.5s-37.834 15.5 -60.501 15.5c-30.667 0 -56 -9 -76 -27s-30 -42 -30 -72v-485h-105v485
c0 35.333 8.66699 67.666 26 96.999s42 52.5 74 69.5s69.667 25.5 113 25.5c34 0 65.667 -5.66699 95 -17s52.833 -27.333 70.5 -48s26.5 -44.667 26.5 -72s-7 -49.333 -21 -66s-34.333 -34 -61 -52c-19.333 -13.333 -33.666 -25 -42.999 -35s-14 -21.667 -14 -35
c0 -15.333 7.66699 -26.5 23 -33.5s39.666 -14.5 72.999 -22.5c36 -8 65.833 -16.667 89.5 -26s44 -24.5 61 -45.5s25.5 -49.167 25.5 -84.5c0 -28.667 -7.66699 -54.5 -23 -77.5s-37.833 -41.167 -67.5 -54.5s-64.5 -20 -104.5 -20c-44.667 0 -81.167 6.66699 -109.5 20z
" />
    <glyph glyph-name="agrave" unicode="&#xe0;" horiz-adv-x="581" 
d="M408 66c-18.667 -24.667 -41.5 -43.832 -68.5 -57.499s-55.833 -20.5 -86.5 -20.5c-41.333 0 -78.333 10.167 -111 30.5s-58.167 49.5 -76.5 87.5s-27.5 83 -27.5 135c0 51.333 9.16699 96.166 27.5 134.499s43.833 67.833 76.5 88.5s69.667 31 111 31
c30 0 58.667 -6.83301 86 -20.5s50.333 -33.167 69 -58.5v67h105v-483h-105v66zM408 336.002c-12 18.667 -29.667 34.167 -53 46.5s-47.333 18.5 -72 18.5c-41.333 0 -74.333 -14.833 -99 -44.5s-37 -68.167 -37 -115.5s12.333 -85.833 37 -115.5s57.667 -44.5 99 -44.5
c24.667 0 48.667 6 72 18s41 27.333 53 46v191zM90 700.002h100l140 -144h-75z" />
    <glyph glyph-name="aacute" unicode="&#xe1;" horiz-adv-x="581" 
d="M408 66c-18.667 -24.667 -41.5 -43.832 -68.5 -57.499s-55.833 -20.5 -86.5 -20.5c-41.333 0 -78.333 10.167 -111 30.5s-58.167 49.5 -76.5 87.5s-27.5 83 -27.5 135c0 51.333 9.16699 96.166 27.5 134.499s43.833 67.833 76.5 88.5s69.667 31 111 31
c30 0 58.667 -6.83301 86 -20.5s50.333 -33.167 69 -58.5v67h105v-483h-105v66zM408 336.002c-12 18.667 -29.667 34.167 -53 46.5s-47.333 18.5 -72 18.5c-41.333 0 -74.333 -14.833 -99 -44.5s-37 -68.167 -37 -115.5s12.333 -85.833 37 -115.5s57.667 -44.5 99 -44.5
c24.667 0 48.667 6 72 18s41 27.333 53 46v191zM252 556.002l140 144h100l-165 -144h-75z" />
    <glyph glyph-name="acircumflex" unicode="&#xe2;" horiz-adv-x="581" 
d="M408 66c-18.667 -24.667 -41.5 -43.832 -68.5 -57.499s-55.833 -20.5 -86.5 -20.5c-41.333 0 -78.333 10.167 -111 30.5s-58.167 49.5 -76.5 87.5s-27.5 83 -27.5 135c0 51.333 9.16699 96.166 27.5 134.499s43.833 67.833 76.5 88.5s69.667 31 111 31
c30 0 58.667 -6.83301 86 -20.5s50.333 -33.167 69 -58.5v67h105v-483h-105v66zM408 336.002c-12 18.667 -29.667 34.167 -53 46.5s-47.333 18.5 -72 18.5c-41.333 0 -74.333 -14.833 -99 -44.5s-37 -68.167 -37 -115.5s12.333 -85.833 37 -115.5s57.667 -44.5 99 -44.5
c24.667 0 48.667 6 72 18s41 27.333 53 46v191zM293 652.002l-75 -96h-66l93 144h96l96 -144h-67z" />
    <glyph glyph-name="atilde" unicode="&#xe3;" horiz-adv-x="581" 
d="M408 66c-18.667 -24.667 -41.5 -43.832 -68.5 -57.499s-55.833 -20.5 -86.5 -20.5c-41.333 0 -78.333 10.167 -111 30.5s-58.167 49.5 -76.5 87.5s-27.5 83 -27.5 135c0 51.333 9.16699 96.166 27.5 134.499s43.833 67.833 76.5 88.5s69.667 31 111 31
c30 0 58.667 -6.83301 86 -20.5s50.333 -33.167 69 -58.5v67h105v-483h-105v66zM408 336.002c-12 18.667 -29.667 34.167 -53 46.5s-47.333 18.5 -72 18.5c-41.333 0 -74.333 -14.833 -99 -44.5s-37 -68.167 -37 -115.5s12.333 -85.833 37 -115.5s57.667 -44.5 99 -44.5
c24.667 0 48.667 6 72 18s41 27.333 53 46v191zM253.5 624.002c-6.33301 5.33301 -13.5 8 -21.5 8c-12 0 -22 -6 -30 -18s-12 -30 -12 -54h-57c0 41.333 8.83301 74 26.5 98s43.167 36 76.5 36c17.333 0 31.333 -4 42 -12s21.667 -19.333 33 -34
c9.33301 -11.333 17 -19.5 23 -24.5s13 -7.5 21 -7.5c12 0 21.833 6 29.5 18s11.5 30 11.5 54h58c0 -41.333 -8.83301 -74 -26.5 -98s-43.167 -36 -76.5 -36c-17.333 0 -31.5 4 -42.5 12s-22.167 19.333 -33.5 34c-8 10.667 -15.167 18.667 -21.5 24z" />
    <glyph glyph-name="adieresis" unicode="&#xe4;" horiz-adv-x="581" 
d="M408 66c-18.667 -24.667 -41.5 -43.832 -68.5 -57.499s-55.833 -20.5 -86.5 -20.5c-41.333 0 -78.333 10.167 -111 30.5s-58.167 49.5 -76.5 87.5s-27.5 83 -27.5 135c0 51.333 9.16699 96.166 27.5 134.499s43.833 67.833 76.5 88.5s69.667 31 111 31
c30 0 58.667 -6.83301 86 -20.5s50.333 -33.167 69 -58.5v67h105v-483h-105v66zM408 336.002c-12 18.667 -29.667 34.167 -53 46.5s-47.333 18.5 -72 18.5c-41.333 0 -74.333 -14.833 -99 -44.5s-37 -68.167 -37 -115.5s12.333 -85.833 37 -115.5s57.667 -44.5 99 -44.5
c24.667 0 48.667 6 72 18s41 27.333 53 46v191zM147 581.002c-11.333 11.333 -17 25.333 -17 42c0 16 5.66699 29.667 17 41s25.333 17 42 17c16 0 29.667 -5.66699 41 -17s17 -25 17 -41c0 -16.667 -5.66699 -30.667 -17 -42s-25 -17 -41 -17
c-16.667 0 -30.667 5.66699 -42 17zM356.5 581.002c-11.667 11.333 -17.5 25.333 -17.5 42c0 16 5.83301 29.667 17.5 41s25.5 17 41.5 17s29.833 -5.66699 41.5 -17s17.5 -25 17.5 -41c0 -16.667 -5.83301 -30.667 -17.5 -42s-25.5 -17 -41.5 -17s-29.833 5.66699 -41.5 17
z" />
    <glyph glyph-name="aring" unicode="&#xe5;" horiz-adv-x="581" 
d="M408 66c-18.667 -24.667 -41.5 -43.832 -68.5 -57.499s-55.833 -20.5 -86.5 -20.5c-41.333 0 -78.333 10.167 -111 30.5s-58.167 49.5 -76.5 87.5s-27.5 83 -27.5 135c0 51.333 9.16699 96.166 27.5 134.499s43.833 67.833 76.5 88.5s69.667 31 111 31
c30 0 58.667 -6.83301 86 -20.5s50.333 -33.167 69 -58.5v67h105v-483h-105v66zM408 336.002c-12 18.667 -29.667 34.167 -53 46.5s-47.333 18.5 -72 18.5c-41.333 0 -74.333 -14.833 -99 -44.5s-37 -68.167 -37 -115.5s12.333 -85.833 37 -115.5s57.667 -44.5 99 -44.5
c24.667 0 48.667 6 72 18s41 27.333 53 46v191zM222 710.502c20 20.333 44 30.5 72 30.5s51.833 -10.167 71.5 -30.5s29.5 -44.5 29.5 -72.5s-9.83301 -52 -29.5 -72s-43.5 -30 -71.5 -30s-52 10 -72 30s-30 44 -30 72s10 52.167 30 72.5zM330.5 675.002
c-9.66699 10 -21.833 15 -36.5 15c-14 0 -26.167 -5 -36.5 -15s-15.5 -22.333 -15.5 -37c0 -14 5.16699 -26.167 15.5 -36.5s22.5 -15.5 36.5 -15.5s26 5.16699 36 15.5s15 22.5 15 36.5c0 14.667 -4.83301 27 -14.5 37z" />
    <glyph glyph-name="ae" unicode="&#xe6;" horiz-adv-x="922" 
d="M408 0l-0.00195312 66.0039c-18.667 -24.667 -41.5 -43.834 -68.5 -57.501s-55.833 -20.5 -86.5 -20.5c-41.333 0 -78.333 10.167 -111 30.5s-58.167 49.5 -76.5 87.5s-27.5 83 -27.5 135c0 51.333 9.16699 96.166 27.5 134.499s43.833 67.833 76.5 88.5
s69.667 31 111 31c30 0 58.5 -6.83301 85.5 -20.5s49.833 -33.167 68.5 -58.5v67h106v-83c17.333 29.333 39.833 52.5 67.5 69.5s59.834 25.5 96.501 25.5c42 0 78.833 -11.333 110.5 -34s56 -53.834 73 -93.501s25.5 -84.834 25.5 -135.501v-25h-373
c4 -38 19.5 -69.333 46.5 -94s62.5 -37 106.5 -37c24.667 0 49.5 4.66699 74.5 14s46.167 22.333 63.5 39l47 -71c-20 -20.667 -44.5 -37.5 -73.5 -50.5s-59.833 -19.5 -92.5 -19.5c-41.333 0 -76.166 8.66699 -104.499 26s-50.833 40 -67.5 68v-82h-105zM550.998 370.004
c-23.333 -26 -36.001 -55.667 -38.001 -89h272c-2 33.333 -14.5 63 -37.5 89s-56.167 39 -99.5 39c-41.333 0 -73.666 -13 -96.999 -39zM407.997 336.004c-12 18.667 -29.667 34.167 -53 46.5s-47.333 18.5 -72 18.5c-41.333 0 -74.333 -14.833 -99 -44.5
s-37 -68.167 -37 -115.5s12.333 -85.833 37 -115.5s57.667 -44.5 99 -44.5c24.667 0 48.667 6 72 18s41 27.333 53 46v191z" />
    <glyph glyph-name="ccedilla" unicode="&#xe7;" horiz-adv-x="497" 
d="M404 138l68.999 -64.0029c-38 -51.333 -91.667 -79.666 -161 -84.999l-17 -42c10.667 7.33301 22.667 11 36 11c19.333 0 35.333 -6.33301 48 -19s19 -28.667 19 -48c0 -26 -10.333 -46.667 -31 -62s-46.334 -23 -77.001 -23c-22 0 -42.5 3 -61.5 9
s-33.833 13.333 -44.5 22l22 46c24 -19.333 51 -29 81 -29c16 0 29.333 3.33301 40 10s16 16 16 28c0 8.66699 -2.83301 15.5 -8.5 20.5s-13.834 7.5 -24.501 7.5c-14 0 -25.333 -5 -34 -15l-41 23l23 62c-43.333 4 -81.666 17.333 -114.999 40
s-59.166 52.334 -77.499 89.001s-27.5 77.667 -27.5 123c0 48 10.667 91.333 32 130s51 68.834 89 90.501s81 32.5 129 32.5c80.667 0 142.334 -28.667 185.001 -86l-69 -64c-26.667 38 -63.667 57 -111 57c-44 0 -79.333 -14.833 -106 -44.5s-40 -68.167 -40 -115.5
s13.333 -86 40 -116s62 -45 106 -45c46 0 83 19 111 57z" />
    <glyph glyph-name="egrave" unicode="&#xe8;" horiz-adv-x="557" 
d="M69.5 369.5c21 38.333 50.167 68.835 87.5 91.502s79.333 34 126 34c47.333 0 89 -11.333 125 -34s63.833 -53.834 83.5 -93.501s29.5 -84.834 29.5 -135.501v-25h-373c4 -38 19.667 -69.667 47 -95s63 -38 107 -38c24.667 0 49.5 4.66699 74.5 14s45.833 22.333 62.5 39
l48 -69c-24 -22.667 -53 -40 -87 -52s-70.333 -18 -109 -18c-48 0 -91.167 10.5 -129.5 31.5s-68.5 50.833 -90.5 89.5s-33 83 -33 133c0 46.667 10.5 89.167 31.5 127.5zM186 370.502c-23.333 -25.667 -36.334 -55.502 -39.001 -89.502h272
c-0.666992 20.667 -6 40.834 -16 60.501s-25 35.834 -45 48.501s-45 19 -75 19c-41.333 0 -73.666 -12.833 -96.999 -38.5zM79.999 700h100l140 -144h-75z" />
    <glyph glyph-name="eacute" unicode="&#xe9;" horiz-adv-x="557" 
d="M69.5 369.5c21 38.333 50.167 68.835 87.5 91.502s79.333 34 126 34c47.333 0 89 -11.333 125 -34s63.833 -53.834 83.5 -93.501s29.5 -84.834 29.5 -135.501v-25h-373c4 -38 19.667 -69.667 47 -95s63 -38 107 -38c24.667 0 49.5 4.66699 74.5 14s45.833 22.333 62.5 39
l48 -69c-24 -22.667 -53 -40 -87 -52s-70.333 -18 -109 -18c-48 0 -91.167 10.5 -129.5 31.5s-68.5 50.833 -90.5 89.5s-33 83 -33 133c0 46.667 10.5 89.167 31.5 127.5zM186 370.502c-23.333 -25.667 -36.334 -55.502 -39.001 -89.502h272
c-0.666992 20.667 -6 40.834 -16 60.501s-25 35.834 -45 48.501s-45 19 -75 19c-41.333 0 -73.666 -12.833 -96.999 -38.5zM241.999 556l140 144h100l-165 -144h-75z" />
    <glyph glyph-name="ecircumflex" unicode="&#xea;" horiz-adv-x="557" 
d="M69.5 369.5c21 38.333 50.167 68.835 87.5 91.502s79.333 34 126 34c47.333 0 89 -11.333 125 -34s63.833 -53.834 83.5 -93.501s29.5 -84.834 29.5 -135.501v-25h-373c4 -38 19.667 -69.667 47 -95s63 -38 107 -38c24.667 0 49.5 4.66699 74.5 14s45.833 22.333 62.5 39
l48 -69c-24 -22.667 -53 -40 -87 -52s-70.333 -18 -109 -18c-48 0 -91.167 10.5 -129.5 31.5s-68.5 50.833 -90.5 89.5s-33 83 -33 133c0 46.667 10.5 89.167 31.5 127.5zM186 370.502c-23.333 -25.667 -36.334 -55.502 -39.001 -89.502h272
c-0.666992 20.667 -6 40.834 -16 60.501s-25 35.834 -45 48.501s-45 19 -75 19c-41.333 0 -73.666 -12.833 -96.999 -38.5zM282.999 652l-75 -96h-66l93 144h96l96 -144h-67z" />
    <glyph glyph-name="edieresis" unicode="&#xeb;" horiz-adv-x="557" 
d="M69.5 369.5c21 38.333 50.167 68.835 87.5 91.502s79.333 34 126 34c47.333 0 89 -11.333 125 -34s63.833 -53.834 83.5 -93.501s29.5 -84.834 29.5 -135.501v-25h-373c4 -38 19.667 -69.667 47 -95s63 -38 107 -38c24.667 0 49.5 4.66699 74.5 14s45.833 22.333 62.5 39
l48 -69c-24 -22.667 -53 -40 -87 -52s-70.333 -18 -109 -18c-48 0 -91.167 10.5 -129.5 31.5s-68.5 50.833 -90.5 89.5s-33 83 -33 133c0 46.667 10.5 89.167 31.5 127.5zM186 370.502c-23.333 -25.667 -36.334 -55.502 -39.001 -89.502h272
c-0.666992 20.667 -6 40.834 -16 60.501s-25 35.834 -45 48.501s-45 19 -75 19c-41.333 0 -73.666 -12.833 -96.999 -38.5zM136.999 581c-11.333 11.333 -17 25.333 -17 42c0 16 5.66699 29.667 17 41s25.333 17 42 17c16 0 29.667 -5.66699 41 -17s17 -25 17 -41
c0 -16.667 -5.66699 -30.667 -17 -42s-25 -17 -41 -17c-16.667 0 -30.667 5.66699 -42 17zM346.499 581c-11.667 11.333 -17.5 25.333 -17.5 42c0 16 5.83301 29.667 17.5 41s25.5 17 41.5 17s29.833 -5.66699 41.5 -17s17.5 -25 17.5 -41
c0 -16.667 -5.83301 -30.667 -17.5 -42s-25.5 -17 -41.5 -17s-29.833 5.66699 -41.5 17z" />
    <glyph glyph-name="igrave" unicode="&#xec;" horiz-adv-x="241" 
d="M68 483h105v-483h-105v483zM-83 700h100l140 -144h-75z" />
    <glyph glyph-name="iacute" unicode="&#xed;" horiz-adv-x="241" 
d="M68 483h105v-483h-105v483zM79 556l140 144h100l-165 -144h-75z" />
    <glyph glyph-name="icircumflex" unicode="&#xee;" horiz-adv-x="241" 
d="M68 483h105v-483h-105v483zM120 652l-75 -96h-66l93 144h96l96 -144h-67z" />
    <glyph glyph-name="idieresis" unicode="&#xef;" horiz-adv-x="241" 
d="M68 483h105v-483h-105v483zM-26 581c-11.333 11.333 -17 25.333 -17 42c0 16 5.66699 29.667 17 41s25.333 17 42 17c16 0 29.667 -5.66699 41 -17s17 -25 17 -41c0 -16.667 -5.66699 -30.667 -17 -42s-25 -17 -41 -17c-16.667 0 -30.667 5.66699 -42 17zM183.5 581
c-11.667 11.333 -17.5 25.333 -17.5 42c0 16 5.83301 29.667 17.5 41s25.5 17 41.5 17s29.833 -5.66699 41.5 -17s17.5 -25 17.5 -41c0 -16.667 -5.83301 -30.667 -17.5 -42s-25.5 -17 -41.5 -17s-29.833 5.66699 -41.5 17z" />
    <glyph glyph-name="eth" unicode="&#xf0;" horiz-adv-x="573" 
d="M535 250c0 -50.667 -9.99707 -95.833 -29.9971 -135.5s-48.833 -70.667 -86.5 -93s-81.834 -33.5 -132.501 -33.5c-48.667 0 -91.834 10.333 -129.501 31s-66.834 49.167 -87.501 85.5s-31 77.5 -31 123.5s9.33301 87.167 28 123.5s44.5 64.833 77.5 85.5
s70.167 31 111.5 31c66 0 119 -30.333 159 -91c-27.333 56 -80 112 -158 168l-145 -64l-22 52l112 49c-18 12 -40.333 26 -67 42l57 85c46.667 -28 86 -54.333 118 -79l105 46l22 -51l-78 -35c118 -102.667 177 -216 177 -340zM388.503 123.501
c25 28.333 37.5 63.166 37.5 104.499s-12.5 76.166 -37.5 104.499s-59.167 42.5 -102.5 42.5c-42.667 0 -76.5 -14.167 -101.5 -42.5s-37.5 -63.166 -37.5 -104.499s12.5 -76.166 37.5 -104.499s58.833 -42.5 101.5 -42.5c43.333 0 77.5 14.167 102.5 42.5z" />
    <glyph glyph-name="ntilde" unicode="&#xf1;" 
d="M394 302c0 36 -8.33203 61.668 -24.999 77.001s-40.667 23 -72 23c-25.333 0 -49 -6.33301 -71 -19s-39.667 -28 -53 -46v-337h-105v483h105v-66c18 21.333 42 39.666 72 54.999s62.667 23 98 23c51.333 0 90.166 -13.333 116.499 -40s39.5 -65 39.5 -115v-340h-105v302z
M244.501 624.001c-6.33301 5.33301 -13.5 8 -21.5 8c-12 0 -22 -6 -30 -18s-12 -30 -12 -54h-57c0 41.333 8.83301 74 26.5 98s43.167 36 76.5 36c17.333 0 31.333 -4 42 -12s21.667 -19.333 33 -34c9.33301 -11.333 17 -19.5 23 -24.5s13 -7.5 21 -7.5
c12 0 21.833 6 29.5 18s11.5 30 11.5 54h58c0 -41.333 -8.83301 -74 -26.5 -98s-43.167 -36 -76.5 -36c-17.333 0 -31.5 4 -42.5 12s-22.167 19.333 -33.5 34c-8 10.667 -15.167 18.667 -21.5 24z" />
    <glyph glyph-name="ograve" unicode="&#xf2;" horiz-adv-x="573" 
d="M155.5 22c-37.667 22.667 -66.667 53.333 -87 92s-30.5 81.334 -30.5 128.001c0 46 10.167 88.333 30.5 127s49.333 69.334 87 92.001s81.167 34 130.5 34c50 0 93.833 -11.333 131.5 -34s66.667 -53.167 87 -91.5s30.5 -80.833 30.5 -127.5
s-10.167 -89.334 -30.5 -128.001s-49.333 -69.334 -87 -92.001s-81.5 -34 -131.5 -34c-49.333 0 -92.833 11.333 -130.5 34zM388.5 127.499c25 31 37.5 69.167 37.5 114.5c0 44.667 -12.5 82.5 -37.5 113.5s-59.167 46.5 -102.5 46.5c-42.667 0 -76.5 -15.5 -101.5 -46.5
s-37.5 -68.833 -37.5 -113.5c0 -45.333 12.5 -83.5 37.5 -114.5s58.833 -46.5 101.5 -46.5c43.333 0 77.5 15.5 102.5 46.5zM83 699.999h100l140 -144h-75z" />
    <glyph glyph-name="oacute" unicode="&#xf3;" horiz-adv-x="573" 
d="M155.5 22c-37.667 22.667 -66.667 53.333 -87 92s-30.5 81.334 -30.5 128.001c0 46 10.167 88.333 30.5 127s49.333 69.334 87 92.001s81.167 34 130.5 34c50 0 93.833 -11.333 131.5 -34s66.667 -53.167 87 -91.5s30.5 -80.833 30.5 -127.5
s-10.167 -89.334 -30.5 -128.001s-49.333 -69.334 -87 -92.001s-81.5 -34 -131.5 -34c-49.333 0 -92.833 11.333 -130.5 34zM388.5 127.499c25 31 37.5 69.167 37.5 114.5c0 44.667 -12.5 82.5 -37.5 113.5s-59.167 46.5 -102.5 46.5c-42.667 0 -76.5 -15.5 -101.5 -46.5
s-37.5 -68.833 -37.5 -113.5c0 -45.333 12.5 -83.5 37.5 -114.5s58.833 -46.5 101.5 -46.5c43.333 0 77.5 15.5 102.5 46.5zM245 555.999l140 144h100l-165 -144h-75z" />
    <glyph glyph-name="ocircumflex" unicode="&#xf4;" horiz-adv-x="573" 
d="M155.5 22c-37.667 22.667 -66.667 53.333 -87 92s-30.5 81.334 -30.5 128.001c0 46 10.167 88.333 30.5 127s49.333 69.334 87 92.001s81.167 34 130.5 34c50 0 93.833 -11.333 131.5 -34s66.667 -53.167 87 -91.5s30.5 -80.833 30.5 -127.5
s-10.167 -89.334 -30.5 -128.001s-49.333 -69.334 -87 -92.001s-81.5 -34 -131.5 -34c-49.333 0 -92.833 11.333 -130.5 34zM388.5 127.499c25 31 37.5 69.167 37.5 114.5c0 44.667 -12.5 82.5 -37.5 113.5s-59.167 46.5 -102.5 46.5c-42.667 0 -76.5 -15.5 -101.5 -46.5
s-37.5 -68.833 -37.5 -113.5c0 -45.333 12.5 -83.5 37.5 -114.5s58.833 -46.5 101.5 -46.5c43.333 0 77.5 15.5 102.5 46.5zM286 651.999l-75 -96h-66l93 144h96l96 -144h-67z" />
    <glyph glyph-name="otilde" unicode="&#xf5;" horiz-adv-x="573" 
d="M155.5 22c-37.667 22.667 -66.667 53.333 -87 92s-30.5 81.334 -30.5 128.001c0 46 10.167 88.333 30.5 127s49.333 69.334 87 92.001s81.167 34 130.5 34c50 0 93.833 -11.333 131.5 -34s66.667 -53.167 87 -91.5s30.5 -80.833 30.5 -127.5
s-10.167 -89.334 -30.5 -128.001s-49.333 -69.334 -87 -92.001s-81.5 -34 -131.5 -34c-49.333 0 -92.833 11.333 -130.5 34zM388.5 127.499c25 31 37.5 69.167 37.5 114.5c0 44.667 -12.5 82.5 -37.5 113.5s-59.167 46.5 -102.5 46.5c-42.667 0 -76.5 -15.5 -101.5 -46.5
s-37.5 -68.833 -37.5 -113.5c0 -45.333 12.5 -83.5 37.5 -114.5s58.833 -46.5 101.5 -46.5c43.333 0 77.5 15.5 102.5 46.5zM246.5 623.999c-6.33301 5.33301 -13.5 8 -21.5 8c-12 0 -22 -6 -30 -18s-12 -30 -12 -54h-57c0 41.333 8.83301 74 26.5 98s43.167 36 76.5 36
c17.333 0 31.333 -4 42 -12s21.667 -19.333 33 -34c9.33301 -11.333 17 -19.5 23 -24.5s13 -7.5 21 -7.5c12 0 21.833 6 29.5 18s11.5 30 11.5 54h58c0 -41.333 -8.83301 -74 -26.5 -98s-43.167 -36 -76.5 -36c-17.333 0 -31.5 4 -42.5 12s-22.167 19.333 -33.5 34
c-8 10.667 -15.167 18.667 -21.5 24z" />
    <glyph glyph-name="odieresis" unicode="&#xf6;" horiz-adv-x="573" 
d="M155.5 22c-37.667 22.667 -66.667 53.333 -87 92s-30.5 81.334 -30.5 128.001c0 46 10.167 88.333 30.5 127s49.333 69.334 87 92.001s81.167 34 130.5 34c50 0 93.833 -11.333 131.5 -34s66.667 -53.167 87 -91.5s30.5 -80.833 30.5 -127.5
s-10.167 -89.334 -30.5 -128.001s-49.333 -69.334 -87 -92.001s-81.5 -34 -131.5 -34c-49.333 0 -92.833 11.333 -130.5 34zM388.5 127.499c25 31 37.5 69.167 37.5 114.5c0 44.667 -12.5 82.5 -37.5 113.5s-59.167 46.5 -102.5 46.5c-42.667 0 -76.5 -15.5 -101.5 -46.5
s-37.5 -68.833 -37.5 -113.5c0 -45.333 12.5 -83.5 37.5 -114.5s58.833 -46.5 101.5 -46.5c43.333 0 77.5 15.5 102.5 46.5zM140 580.999c-11.333 11.333 -17 25.333 -17 42c0 16 5.66699 29.667 17 41s25.333 17 42 17c16 0 29.667 -5.66699 41 -17s17 -25 17 -41
c0 -16.667 -5.66699 -30.667 -17 -42s-25 -17 -41 -17c-16.667 0 -30.667 5.66699 -42 17zM349.5 580.999c-11.667 11.333 -17.5 25.333 -17.5 42c0 16 5.83301 29.667 17.5 41s25.5 17 41.5 17s29.833 -5.66699 41.5 -17s17.5 -25 17.5 -41
c0 -16.667 -5.83301 -30.667 -17.5 -42s-25.5 -17 -41.5 -17s-29.833 5.66699 -41.5 17z" />
    <glyph glyph-name="divide" unicode="&#xf7;" horiz-adv-x="511" 
d="M217 481c-10.667 10.667 -16 23.6689 -16 39.002s5.33301 28.166 16 38.499s23.334 15.5 38.001 15.5c15.333 0 28.333 -5.33301 39 -16s16 -23.334 16 -38.001s-5.33301 -27.5 -16 -38.5s-23.667 -16.5 -39 -16.5c-14.667 0 -27.334 5.33301 -38.001 16zM29 371.002h453
v-68h-453v68zM217 113.002c-10.667 10.667 -16 23.334 -16 38.001c0 15.333 5.33301 28.333 16 39s23.334 16 38.001 16c15.333 0 28.333 -5.33301 39 -16s16 -23.667 16 -39c0 -14.667 -5.33301 -27.334 -16 -38.001s-23.667 -16 -39 -16
c-14.667 0 -27.334 5.33301 -38.001 16z" />
    <glyph glyph-name="oslash" unicode="&#xf8;" horiz-adv-x="573" 
d="M517.5 341.5c11.667 -31 17.5 -64.168 17.5 -99.501c0 -46.667 -10.167 -89.334 -30.5 -128.001s-49.333 -69.334 -87 -92.001s-81.5 -34 -131.5 -34c-56 0 -103.667 14 -143 42l-25 -30h-68l53 64c-20.667 22.667 -36.667 49.334 -48 80.001s-17 63.334 -17 98.001
c0 46 10.167 88.333 30.5 127s49.333 69.334 87 92.001s81.167 34 130.5 34c54 0 100.667 -13 140 -39l22 27h69l-50 -61c22 -22.667 38.833 -49.5 50.5 -80.5zM171 146.999l192 232c-21.333 15.333 -47 23 -77 23c-42.667 0 -76.5 -15.5 -101.5 -46.5
s-37.5 -68.833 -37.5 -113.5c0 -36 8 -67.667 24 -95zM388.5 127.499c25 31 37.499 69.167 37.499 114.5c0 38 -9 71 -27 99l-193 -234c22.667 -17.333 49.334 -26 80.001 -26c43.333 0 77.5 15.5 102.5 46.5z" />
    <glyph glyph-name="ugrave" unicode="&#xf9;" 
d="M394 64c-19.333 -22 -43.833 -40.167 -73.5 -54.5s-62.167 -21.5 -97.5 -21.5c-51.333 0 -90 13 -116 39s-39 64 -39 114v342h105v-304c0 -35.333 8.33301 -60.5 25 -75.5s40.667 -22.5 72 -22.5c25.333 0 49 6 71 18s39.667 27 53 45v339h105v-483h-105v64zM80 700h100
l140 -144h-75z" />
    <glyph glyph-name="uacute" unicode="&#xfa;" 
d="M394 64c-19.333 -22 -43.833 -40.167 -73.5 -54.5s-62.167 -21.5 -97.5 -21.5c-51.333 0 -90 13 -116 39s-39 64 -39 114v342h105v-304c0 -35.333 8.33301 -60.5 25 -75.5s40.667 -22.5 72 -22.5c25.333 0 49 6 71 18s39.667 27 53 45v339h105v-483h-105v64zM242 556
l140 144h100l-165 -144h-75z" />
    <glyph glyph-name="ucircumflex" unicode="&#xfb;" 
d="M394 64c-19.333 -22 -43.833 -40.167 -73.5 -54.5s-62.167 -21.5 -97.5 -21.5c-51.333 0 -90 13 -116 39s-39 64 -39 114v342h105v-304c0 -35.333 8.33301 -60.5 25 -75.5s40.667 -22.5 72 -22.5c25.333 0 49 6 71 18s39.667 27 53 45v339h105v-483h-105v64zM283 652
l-75 -96h-66l93 144h96l96 -144h-67z" />
    <glyph glyph-name="udieresis" unicode="&#xfc;" 
d="M394 64c-19.333 -22 -43.833 -40.167 -73.5 -54.5s-62.167 -21.5 -97.5 -21.5c-51.333 0 -90 13 -116 39s-39 64 -39 114v342h105v-304c0 -35.333 8.33301 -60.5 25 -75.5s40.667 -22.5 72 -22.5c25.333 0 49 6 71 18s39.667 27 53 45v339h105v-483h-105v64zM137 581
c-11.333 11.333 -17 25.333 -17 42c0 16 5.66699 29.667 17 41s25.333 17 42 17c16 0 29.667 -5.66699 41 -17s17 -25 17 -41c0 -16.667 -5.66699 -30.667 -17 -42s-25 -17 -41 -17c-16.667 0 -30.667 5.66699 -42 17zM346.5 581c-11.667 11.333 -17.5 25.333 -17.5 42
c0 16 5.83301 29.667 17.5 41s25.5 17 41.5 17s29.833 -5.66699 41.5 -17s17.5 -25 17.5 -41c0 -16.667 -5.83301 -30.667 -17.5 -42s-25.5 -17 -41.5 -17s-29.833 5.66699 -41.5 17z" />
    <glyph glyph-name="yacute" unicode="&#xfd;" 
d="M111 -48c17.333 -20.667 38.832 -36.168 64.499 -46.501s52.834 -15.5 81.501 -15.5c43.333 0 77 11.667 101 35s36 56.333 36 99v56c-19.333 -22 -43.833 -40.167 -73.5 -54.5s-62.167 -21.5 -97.5 -21.5c-51.333 0 -90 13 -116 39s-39 64 -39 114v326h105v-288
c0 -35.333 8.33301 -60.5 25 -75.5s40.667 -22.5 72 -22.5c25.333 0 49 6 71 18s39.667 27 53 45v323h105v-459c0 -70 -22.333 -124.167 -67 -162.5s-103 -57.5 -175 -57.5c-40.667 0 -76.667 5.83301 -108 17.5s-60.333 29.834 -87 54.501zM242.999 555.999l140 144h100
l-165 -144h-75z" />
    <glyph glyph-name="thorn" unicode="&#xfe;" horiz-adv-x="580" 
d="M173 -184l-104.999 -0.00195312v851h105v-250c18 24.667 40.5 43.834 67.5 57.501s56.167 20.5 87.5 20.5c42 0 79.167 -10.167 111.5 -30.5s57.5 -49.5 75.5 -87.5s27 -83 27 -135s-9 -97.167 -27 -135.5s-43.167 -67.666 -75.5 -87.999s-69.5 -30.5 -111.5 -30.5
c-30.667 0 -59.334 6.66699 -86.001 20s-49.667 33 -69 59v-251zM396.001 357.498c-24.667 29.667 -57.667 44.5 -99 44.5c-24 0 -47.667 -6.33301 -71 -19s-41 -28 -53 -46v-191c12 -18 29.667 -33.333 53 -46s47 -19 71 -19c41.333 0 74.333 15 99 45s37 68.667 37 116
s-12.333 85.833 -37 115.5z" />
    <glyph glyph-name="ydieresis" unicode="&#xff;" 
d="M111 -48c17.333 -20.667 38.832 -36.168 64.499 -46.501s52.834 -15.5 81.501 -15.5c43.333 0 77 11.667 101 35s36 56.333 36 99v56c-19.333 -22 -43.833 -40.167 -73.5 -54.5s-62.167 -21.5 -97.5 -21.5c-51.333 0 -90 13 -116 39s-39 64 -39 114v326h105v-288
c0 -35.333 8.33301 -60.5 25 -75.5s40.667 -22.5 72 -22.5c25.333 0 49 6 71 18s39.667 27 53 45v323h105v-459c0 -70 -22.333 -124.167 -67 -162.5s-103 -57.5 -175 -57.5c-40.667 0 -76.667 5.83301 -108 17.5s-60.333 29.834 -87 54.501zM137.999 580.999
c-11.333 11.333 -17 25.333 -17 42c0 16 5.66699 29.667 17 41s25.333 17 42 17c16 0 29.667 -5.66699 41 -17s17 -25 17 -41c0 -16.667 -5.66699 -30.667 -17 -42s-25 -17 -41 -17c-16.667 0 -30.667 5.66699 -42 17zM347.499 580.999
c-11.667 11.333 -17.5 25.333 -17.5 42c0 16 5.83301 29.667 17.5 41s25.5 17 41.5 17s29.833 -5.66699 41.5 -17s17.5 -25 17.5 -41c0 -16.667 -5.83301 -30.667 -17.5 -42s-25.5 -17 -41.5 -17s-29.833 5.66699 -41.5 17z" />
    <glyph glyph-name="Amacron" unicode="&#x100;" horiz-adv-x="673" 
d="M494 128h-316l-49 -128h-128l262 667h146l262 -667h-128zM211 231h250l-125 337zM174 795h323v-62h-323v62z" />
    <glyph glyph-name="amacron" unicode="&#x101;" horiz-adv-x="581" 
d="M408 66c-18.667 -24.667 -41.5 -43.832 -68.5 -57.499s-55.833 -20.5 -86.5 -20.5c-41.333 0 -78.333 10.167 -111 30.5s-58.167 49.5 -76.5 87.5s-27.5 83 -27.5 135c0 51.333 9.16699 96.166 27.5 134.499s43.833 67.833 76.5 88.5s69.667 31 111 31
c30 0 58.667 -6.83301 86 -20.5s50.333 -33.167 69 -58.5v67h105v-483h-105v66zM408 336.002c-12 18.667 -29.667 34.167 -53 46.5s-47.333 18.5 -72 18.5c-41.333 0 -74.333 -14.833 -99 -44.5s-37 -68.167 -37 -115.5s12.333 -85.833 37 -115.5s57.667 -44.5 99 -44.5
c24.667 0 48.667 6 72 18s41 27.333 53 46v191zM131 628.002h323v-62h-323v62z" />
    <glyph glyph-name="Abreve" unicode="&#x102;" horiz-adv-x="673" 
d="M494 128h-316l-49 -128h-128l262 667h146l262 -667h-128zM211 231h250l-125 337zM237 744.5c-30.667 15.667 -56.334 37.167 -77.001 64.5l48 40c14.667 -20.667 33 -36.834 55 -48.501s46.333 -17.5 73 -17.5c26 0 50 5.83301 72 17.5s40.333 27.834 55 48.501l48 -40
c-20.667 -27.333 -46.167 -48.833 -76.5 -64.5s-63.166 -23.5 -98.499 -23.5s-68.333 7.83301 -99 23.5z" />
    <glyph glyph-name="abreve" unicode="&#x103;" horiz-adv-x="581" 
d="M408 66c-18.667 -24.667 -41.5 -43.832 -68.5 -57.499s-55.833 -20.5 -86.5 -20.5c-41.333 0 -78.333 10.167 -111 30.5s-58.167 49.5 -76.5 87.5s-27.5 83 -27.5 135c0 51.333 9.16699 96.166 27.5 134.499s43.833 67.833 76.5 88.5s69.667 31 111 31
c30 0 58.667 -6.83301 86 -20.5s50.333 -33.167 69 -58.5v67h105v-483h-105v66zM408 336.002c-12 18.667 -29.667 34.167 -53 46.5s-47.333 18.5 -72 18.5c-41.333 0 -74.333 -14.833 -99 -44.5s-37 -68.167 -37 -115.5s12.333 -85.833 37 -115.5s57.667 -44.5 99 -44.5
c24.667 0 48.667 6 72 18s41 27.333 53 46v191zM194 577.502c-30.667 15.667 -56.334 37.167 -77.001 64.5l48 40c14.667 -20.667 33 -36.834 55 -48.501s46.333 -17.5 73 -17.5c26 0 50 5.83301 72 17.5s40.333 27.834 55 48.501l48 -40
c-20.667 -27.333 -46.167 -48.833 -76.5 -64.5s-63.166 -23.5 -98.499 -23.5s-68.333 7.83301 -99 23.5z" />
    <glyph glyph-name="Aogonek" unicode="&#x104;" horiz-adv-x="673" 
d="M557 -84c0 -9.33301 3.50098 -16.833 10.501 -22.5s15.167 -8.5 24.5 -8.5c10.667 0 20.667 2.33301 30 7l24 -61c-18.667 -11.333 -45.334 -17 -80.001 -17c-29.333 0 -54.333 6.66699 -75 20s-31 32.333 -31 57c0 22 9.83301 42.333 29.5 61s45.5 34.667 77.5 48h-24
l-49 128h-316l-49 -128h-128l262 667h146l262 -667h-25c-59.333 -22.667 -89 -50.667 -89 -84zM461.001 231l-125 337l-125 -337h250z" />
    <glyph glyph-name="aogonek" unicode="&#x105;" horiz-adv-x="581" 
d="M424 -84c0 -9.33301 3.50098 -16.8311 10.501 -22.498s15.167 -8.5 24.5 -8.5c10.667 0 20.667 2.33301 30 7l24 -61c-18.667 -11.333 -45.334 -17 -80.001 -17c-29.333 0 -54.333 6.66699 -75 20s-31 32.333 -31 57c0 22 9.83301 42.333 29.5 61s45.5 34.667 77.5 48
h-26v66c-18.667 -24.667 -41.5 -43.834 -68.5 -57.501s-55.833 -20.5 -86.5 -20.5c-41.333 0 -78.333 10.167 -111 30.5s-58.167 49.5 -76.5 87.5s-27.5 83 -27.5 135c0 51.333 9.16699 96.166 27.5 134.499s43.833 67.833 76.5 88.5s69.667 31 111 31
c30 0 58.667 -6.83301 86 -20.5s50.333 -33.167 69 -58.5v67h105v-483c-59.333 -22.667 -89 -50.667 -89 -84zM408.001 336.002c-12 18.667 -29.667 34.167 -53 46.5s-47.333 18.5 -72 18.5c-41.333 0 -74.333 -14.833 -99 -44.5s-37 -68.167 -37 -115.5
s12.333 -85.833 37 -115.5s57.667 -44.5 99 -44.5c24.667 0 48.667 6 72 18s41 27.333 53 46v191z" />
    <glyph glyph-name="Cacute" unicode="&#x106;" horiz-adv-x="682" 
d="M211.5 31.5c-52.333 29 -93.833 69.833 -124.5 122.5s-46 112.334 -46 179.001s15.333 126.334 46 179.001s72.167 93.5 124.5 122.5s110.5 43.5 174.5 43.5c119.333 0 210.333 -50 273 -150l-100 -51c-16.667 28.667 -40.334 52 -71.001 70s-64.667 27 -102 27
c-42 0 -80.167 -10.333 -114.5 -31s-61.333 -49.334 -81 -86.001s-29.5 -78 -29.5 -124s9.83301 -87.333 29.5 -124s46.667 -65.334 81 -86.001s72.5 -31 114.5 -31c37.333 0 71.333 9 102 27s54.334 41.333 71.001 70l100 -51c-64 -100 -155 -150 -273 -150
c-64 0 -122.167 14.5 -174.5 43.5zM345 723l140 144h100l-165 -144h-75z" />
    <glyph glyph-name="cacute" unicode="&#x107;" horiz-adv-x="497" 
d="M70 372c21.333 38.667 51 68.8311 89 90.498s81 32.5 129 32.5c80.667 0 142.334 -28.667 185.001 -86l-69 -64c-26.667 38 -63.667 57 -111 57c-44 0 -79.333 -14.833 -106 -44.5s-40 -68.167 -40 -115.5s13.333 -86 40 -116s62 -45 106 -45c46 0 83 19 111 57l69 -64
c-42.667 -57.333 -104.334 -86 -185.001 -86c-48 0 -91 10.833 -129 32.5s-67.667 51.834 -89 90.501s-32 82.334 -32 131.001c0 48 10.667 91.333 32 130zM245 555.997l140 144h100l-165 -144h-75z" />
    <glyph glyph-name="Ccircumflex" unicode="&#x108;" horiz-adv-x="682" 
d="M211.5 31.5c-52.333 29 -93.833 69.833 -124.5 122.5s-46 112.334 -46 179.001s15.333 126.334 46 179.001s72.167 93.5 124.5 122.5s110.5 43.5 174.5 43.5c119.333 0 210.333 -50 273 -150l-100 -51c-16.667 28.667 -40.334 52 -71.001 70s-64.667 27 -102 27
c-42 0 -80.167 -10.333 -114.5 -31s-61.333 -49.334 -81 -86.001s-29.5 -78 -29.5 -124s9.83301 -87.333 29.5 -124s46.667 -65.334 81 -86.001s72.5 -31 114.5 -31c37.333 0 71.333 9 102 27s54.334 41.333 71.001 70l100 -51c-64 -100 -155 -150 -273 -150
c-64 0 -122.167 14.5 -174.5 43.5zM386 819l-75 -96h-66l93 144h96l96 -144h-67z" />
    <glyph glyph-name="ccircumflex" unicode="&#x109;" horiz-adv-x="497" 
d="M70 372c21.333 38.667 51 68.8311 89 90.498s81 32.5 129 32.5c80.667 0 142.334 -28.667 185.001 -86l-69 -64c-26.667 38 -63.667 57 -111 57c-44 0 -79.333 -14.833 -106 -44.5s-40 -68.167 -40 -115.5s13.333 -86 40 -116s62 -45 106 -45c46 0 83 19 111 57l69 -64
c-42.667 -57.333 -104.334 -86 -185.001 -86c-48 0 -91 10.833 -129 32.5s-67.667 51.834 -89 90.501s-32 82.334 -32 131.001c0 48 10.667 91.333 32 130zM286 651.997l-75 -96h-66l93 144h96l96 -144h-67z" />
    <glyph glyph-name="Cdotaccent" unicode="&#x10a;" horiz-adv-x="682" 
d="M211.5 31.5c-52.333 29 -93.833 69.833 -124.5 122.5s-46 112.334 -46 179.001s15.333 126.334 46 179.001s72.167 93.5 124.5 122.5s110.5 43.5 174.5 43.5c119.333 0 210.333 -50 273 -150l-100 -51c-16.667 28.667 -40.334 52 -71.001 70s-64.667 27 -102 27
c-42 0 -80.167 -10.333 -114.5 -31s-61.333 -49.334 -81 -86.001s-29.5 -78 -29.5 -124s9.83301 -87.333 29.5 -124s46.667 -65.334 81 -86.001s72.5 -31 114.5 -31c37.333 0 71.333 9 102 27s54.334 41.333 71.001 70l100 -51c-64 -100 -155 -150 -273 -150
c-64 0 -122.167 14.5 -174.5 43.5zM344.5 830.5c11.667 11.667 25.5 17.5 41.5 17.5s29.667 -5.83301 41 -17.5s17 -25.5 17 -41.5c0 -16.667 -5.66699 -30.667 -17 -42s-25 -17 -41 -17s-29.833 5.66699 -41.5 17s-17.5 25.333 -17.5 42c0 16 5.83301 29.833 17.5 41.5z
" />
    <glyph glyph-name="cdotaccent" unicode="&#x10b;" horiz-adv-x="497" 
d="M70 372c21.333 38.667 51 68.8311 89 90.498s81 32.5 129 32.5c80.667 0 142.334 -28.667 185.001 -86l-69 -64c-26.667 38 -63.667 57 -111 57c-44 0 -79.333 -14.833 -106 -44.5s-40 -68.167 -40 -115.5s13.333 -86 40 -116s62 -45 106 -45c46 0 83 19 111 57l69 -64
c-42.667 -57.333 -104.334 -86 -185.001 -86c-48 0 -91 10.833 -129 32.5s-67.667 51.834 -89 90.501s-32 82.334 -32 131.001c0 48 10.667 91.333 32 130zM244.5 663.497c11.667 11.667 25.5 17.5 41.5 17.5s29.667 -5.83301 41 -17.5s17 -25.5 17 -41.5
c0 -16.667 -5.66699 -30.667 -17 -42s-25 -17 -41 -17s-29.833 5.66699 -41.5 17s-17.5 25.333 -17.5 42c0 16 5.83301 29.833 17.5 41.5z" />
    <glyph glyph-name="Ccaron" unicode="&#x10c;" horiz-adv-x="682" 
d="M211.5 31.5c-52.333 29 -93.833 69.833 -124.5 122.5s-46 112.334 -46 179.001s15.333 126.334 46 179.001s72.167 93.5 124.5 122.5s110.5 43.5 174.5 43.5c119.333 0 210.333 -50 273 -150l-100 -51c-16.667 28.667 -40.334 52 -71.001 70s-64.667 27 -102 27
c-42 0 -80.167 -10.333 -114.5 -31s-61.333 -49.334 -81 -86.001s-29.5 -78 -29.5 -124s9.83301 -87.333 29.5 -124s46.667 -65.334 81 -86.001s72.5 -31 114.5 -31c37.333 0 71.333 9 102 27s54.334 41.333 71.001 70l100 -51c-64 -100 -155 -150 -273 -150
c-64 0 -122.167 14.5 -174.5 43.5zM242 867h66l78 -97l74 97h67l-93 -144h-96z" />
    <glyph glyph-name="ccaron" unicode="&#x10d;" horiz-adv-x="497" 
d="M70 372c21.333 38.667 51 68.8311 89 90.498s81 32.5 129 32.5c80.667 0 142.334 -28.667 185.001 -86l-69 -64c-26.667 38 -63.667 57 -111 57c-44 0 -79.333 -14.833 -106 -44.5s-40 -68.167 -40 -115.5s13.333 -86 40 -116s62 -45 106 -45c46 0 83 19 111 57l69 -64
c-42.667 -57.333 -104.334 -86 -185.001 -86c-48 0 -91 10.833 -129 32.5s-67.667 51.834 -89 90.501s-32 82.334 -32 131.001c0 48 10.667 91.333 32 130zM142 699.997h66l78 -97l74 97h67l-93 -144h-96z" />
    <glyph glyph-name="Dcaron" unicode="&#x10e;" horiz-adv-x="710" 
d="M71 667h248c68.667 0 129.334 -14.167 182.001 -42.5s93.667 -67.833 123 -118.5s44 -108.334 44 -173.001s-14.667 -122.167 -44 -172.5s-70.333 -89.666 -123 -117.999s-113.334 -42.5 -182.001 -42.5h-248v667zM319 103c46.667 0 87.334 10.167 122.001 30.5
s61.167 48 79.5 83s27.5 73.833 27.5 116.5c0 43.333 -8.83301 82.5 -26.5 117.5s-43.834 62.667 -78.501 83s-76 30.5 -124 30.5h-131v-461h131zM212 867h66l78 -97l74 97h67l-93 -144h-96z" />
    <glyph glyph-name="dcaron" unicode="&#x10f;" horiz-adv-x="670" 
d="M408 66c-18.667 -24.667 -41.5 -43.832 -68.5 -57.499s-55.833 -20.5 -86.5 -20.5c-41.333 0 -78.333 10.167 -111 30.5s-58.167 49.5 -76.5 87.5s-27.5 83 -27.5 135c0 51.333 9.16699 96.166 27.5 134.499s43.833 67.833 76.5 88.5s69.667 31 111 31
c30 0 58.5 -6.83301 85.5 -20.5s50.167 -33.167 69.5 -58.5v251h105v-667h-105v66zM408 337.002c-12 18.667 -29.667 34.167 -53 46.5s-47.333 18.5 -72 18.5c-41.333 0 -74.333 -15 -99 -45s-37 -68.667 -37 -116s12.333 -85.833 37 -115.5s57.667 -44.5 99 -44.5
c24.667 0 48.667 6 72 18s41 27.333 53 46v192zM558 492.002c14 8.66699 27 20.998 39 36.998s19.333 31 22 45c-2.66699 -1.33301 -7.33398 -2 -14.001 -2c-13.333 0 -24.666 4.83301 -33.999 14.5s-14 21.834 -14 36.501c0 15.333 5.33301 28.5 16 39.5
s23.667 16.5 39 16.5c17.333 0 32.166 -6.66699 44.499 -20s18.5 -31.666 18.5 -54.999c0 -28 -7.16699 -54.667 -21.5 -80s-33.166 -46.333 -56.499 -63z" />
    <glyph glyph-name="Dcroat" unicode="&#x110;" horiz-adv-x="736" 
d="M527 624.5c52.667 -28.333 93.667 -67.833 123 -118.5s44 -108.334 44 -173.001s-14.667 -122.167 -44 -172.5s-70.333 -89.666 -123 -117.999s-113.334 -42.5 -182.001 -42.5h-248v285h-88v86h88v296h248c68.667 0 129.334 -14.167 182.001 -42.5zM467 133.5
c34.667 20.333 61.167 48 79.5 83s27.5 73.833 27.5 116.5c0 43.333 -8.83301 82.5 -26.5 117.5s-43.834 62.667 -78.501 83s-76 30.5 -124 30.5h-131v-193h158v-86h-158v-182h131c46.667 0 87.334 10.167 122.001 30.5z" />
    <glyph glyph-name="dcroat" unicode="&#x111;" horiz-adv-x="585" 
d="M576 531l-63 0.00195312v-531h-105v66c-18.667 -24.667 -41.5 -43.834 -68.5 -57.501s-55.833 -20.5 -86.5 -20.5c-41.333 0 -78.333 10.167 -111 30.5s-58.167 49.5 -76.5 87.5s-27.5 83 -27.5 135c0 51.333 9.16699 96.166 27.5 134.499s43.833 67.833 76.5 88.5
s69.667 31 111 31c30 0 58.5 -6.83301 85.5 -20.5s50.167 -33.167 69.5 -58.5v115h-150v62h150v74h105v-74h63v-62zM408 337.002c-12 18.667 -29.667 34.167 -53 46.5s-47.333 18.5 -72 18.5c-41.333 0 -74.333 -15 -99 -45s-37 -68.667 -37 -116s12.333 -85.833 37 -115.5
s57.667 -44.5 99 -44.5c24.667 0 48.667 6 72 18s41 27.333 53 46v192z" />
    <glyph glyph-name="Emacron" unicode="&#x112;" horiz-adv-x="577" 
d="M71 667h457v-103h-340v-173h333v-103h-333v-185h340v-103h-457v667zM144 795h323v-62h-323v62z" />
    <glyph glyph-name="emacron" unicode="&#x113;" horiz-adv-x="557" 
d="M69.5 369.5c21 38.333 50.167 68.835 87.5 91.502s79.333 34 126 34c47.333 0 89 -11.333 125 -34s63.833 -53.834 83.5 -93.501s29.5 -84.834 29.5 -135.501v-25h-373c4 -38 19.667 -69.667 47 -95s63 -38 107 -38c24.667 0 49.5 4.66699 74.5 14s45.833 22.333 62.5 39
l48 -69c-24 -22.667 -53 -40 -87 -52s-70.333 -18 -109 -18c-48 0 -91.167 10.5 -129.5 31.5s-68.5 50.833 -90.5 89.5s-33 83 -33 133c0 46.667 10.5 89.167 31.5 127.5zM186 370.502c-23.333 -25.667 -36.334 -55.502 -39.001 -89.502h272
c-0.666992 20.667 -6 40.834 -16 60.501s-25 35.834 -45 48.501s-45 19 -75 19c-41.333 0 -73.666 -12.833 -96.999 -38.5zM120.999 628h323v-62h-323v62z" />
    <glyph glyph-name="Ebreve" unicode="&#x114;" horiz-adv-x="577" 
d="M71 667h457v-103h-340v-173h333v-103h-333v-185h340v-103h-457v667zM207 744.5c-30.667 15.667 -56.334 37.167 -77.001 64.5l48 40c14.667 -20.667 33 -36.834 55 -48.501s46.333 -17.5 73 -17.5c26 0 50 5.83301 72 17.5s40.333 27.834 55 48.501l48 -40
c-20.667 -27.333 -46.167 -48.833 -76.5 -64.5s-63.166 -23.5 -98.499 -23.5s-68.333 7.83301 -99 23.5z" />
    <glyph glyph-name="ebreve" unicode="&#x115;" horiz-adv-x="557" 
d="M69.5 369.5c21 38.333 50.167 68.835 87.5 91.502s79.333 34 126 34c47.333 0 89 -11.333 125 -34s63.833 -53.834 83.5 -93.501s29.5 -84.834 29.5 -135.501v-25h-373c4 -38 19.667 -69.667 47 -95s63 -38 107 -38c24.667 0 49.5 4.66699 74.5 14s45.833 22.333 62.5 39
l48 -69c-24 -22.667 -53 -40 -87 -52s-70.333 -18 -109 -18c-48 0 -91.167 10.5 -129.5 31.5s-68.5 50.833 -90.5 89.5s-33 83 -33 133c0 46.667 10.5 89.167 31.5 127.5zM186 370.502c-23.333 -25.667 -36.334 -55.502 -39.001 -89.502h272
c-0.666992 20.667 -6 40.834 -16 60.501s-25 35.834 -45 48.501s-45 19 -75 19c-41.333 0 -73.666 -12.833 -96.999 -38.5zM183.999 577.5c-30.667 15.667 -56.334 37.167 -77.001 64.5l48 40c14.667 -20.667 33 -36.834 55 -48.501s46.333 -17.5 73 -17.5
c26 0 50 5.83301 72 17.5s40.333 27.834 55 48.501l48 -40c-20.667 -27.333 -46.167 -48.833 -76.5 -64.5s-63.166 -23.5 -98.499 -23.5s-68.333 7.83301 -99 23.5z" />
    <glyph glyph-name="Edotaccent" unicode="&#x116;" horiz-adv-x="577" 
d="M71 667h457v-103h-340v-173h333v-103h-333v-185h340v-103h-457v667zM264.5 830.5c11.667 11.667 25.5 17.5 41.5 17.5s29.667 -5.83301 41 -17.5s17 -25.5 17 -41.5c0 -16.667 -5.66699 -30.667 -17 -42s-25 -17 -41 -17s-29.833 5.66699 -41.5 17s-17.5 25.333 -17.5 42
c0 16 5.83301 29.833 17.5 41.5z" />
    <glyph glyph-name="edotaccent" unicode="&#x117;" horiz-adv-x="557" 
d="M69.5 369.5c21 38.333 50.167 68.835 87.5 91.502s79.333 34 126 34c47.333 0 89 -11.333 125 -34s63.833 -53.834 83.5 -93.501s29.5 -84.834 29.5 -135.501v-25h-373c4 -38 19.667 -69.667 47 -95s63 -38 107 -38c24.667 0 49.5 4.66699 74.5 14s45.833 22.333 62.5 39
l48 -69c-24 -22.667 -53 -40 -87 -52s-70.333 -18 -109 -18c-48 0 -91.167 10.5 -129.5 31.5s-68.5 50.833 -90.5 89.5s-33 83 -33 133c0 46.667 10.5 89.167 31.5 127.5zM186 370.502c-23.333 -25.667 -36.334 -55.502 -39.001 -89.502h272
c-0.666992 20.667 -6 40.834 -16 60.501s-25 35.834 -45 48.501s-45 19 -75 19c-41.333 0 -73.666 -12.833 -96.999 -38.5zM241.499 663.5c11.667 11.667 25.5 17.5 41.5 17.5s29.667 -5.83301 41 -17.5s17 -25.5 17 -41.5c0 -16.667 -5.66699 -30.667 -17 -42
s-25 -17 -41 -17s-29.833 5.66699 -41.5 17s-17.5 25.333 -17.5 42c0 16 5.83301 29.833 17.5 41.5z" />
    <glyph glyph-name="Eogonek" unicode="&#x118;" horiz-adv-x="577" 
d="M188 564l0.000976562 -173h333v-103h-333v-185h340v-103c-59.333 -22.667 -89 -50.667 -89 -84c0 -9.33301 3.5 -16.833 10.5 -22.5s15.167 -8.5 24.5 -8.5c10.667 0 20.667 2.33301 30 7l24 -61c-18.667 -11.333 -45.334 -17 -80.001 -17
c-29.333 0 -54.333 6.66699 -75 20s-31 32.333 -31 57c0 22 9.83301 42.333 29.5 61s45.5 34.667 77.5 48h-378v667h457v-103h-340z" />
    <glyph glyph-name="eogonek" unicode="&#x119;" horiz-adv-x="557" 
d="M161.5 19.5c-38.333 21 -68.498 50.835 -90.498 89.502s-33 83 -33 133c0 46.667 10.5 89.167 31.5 127.5s50.167 68.833 87.5 91.5s79.333 34 126 34c47.333 0 89 -11.333 125 -34s63.833 -53.834 83.5 -93.501s29.5 -84.834 29.5 -135.501v-25h-373
c4 -38 19.667 -69.667 47 -95s63 -38 107 -38c24.667 0 49.5 4.66699 74.5 14s45.833 22.333 62.5 39l48 -69c-67.333 -52.667 -101 -97 -101 -133c0 -13.333 3.66699 -23.333 11 -30s16 -10 26 -10c10.667 0 20.667 2.33301 30 7l24 -61
c-18.667 -11.333 -45.334 -17 -80.001 -17c-29.333 0 -54.333 6.66699 -75 20s-31 32.333 -31 57c0 34.667 26.667 70 80 106c-26.667 -6 -53.334 -9 -80.001 -9c-48 0 -91.167 10.5 -129.5 31.5zM186.002 370.502c-23.333 -25.667 -36.334 -55.502 -39.001 -89.502h272
c-0.666992 20.667 -6 40.834 -16 60.501s-25 35.834 -45 48.501s-45 19 -75 19c-41.333 0 -73.666 -12.833 -96.999 -38.5z" />
    <glyph glyph-name="Ecaron" unicode="&#x11a;" horiz-adv-x="577" 
d="M71 667h457v-103h-340v-173h333v-103h-333v-185h340v-103h-457v667zM162 867h66l78 -97l74 97h67l-93 -144h-96z" />
    <glyph glyph-name="ecaron" unicode="&#x11b;" horiz-adv-x="557" 
d="M69.5 369.5c21 38.333 50.167 68.835 87.5 91.502s79.333 34 126 34c47.333 0 89 -11.333 125 -34s63.833 -53.834 83.5 -93.501s29.5 -84.834 29.5 -135.501v-25h-373c4 -38 19.667 -69.667 47 -95s63 -38 107 -38c24.667 0 49.5 4.66699 74.5 14s45.833 22.333 62.5 39
l48 -69c-24 -22.667 -53 -40 -87 -52s-70.333 -18 -109 -18c-48 0 -91.167 10.5 -129.5 31.5s-68.5 50.833 -90.5 89.5s-33 83 -33 133c0 46.667 10.5 89.167 31.5 127.5zM186 370.502c-23.333 -25.667 -36.334 -55.502 -39.001 -89.502h272
c-0.666992 20.667 -6 40.834 -16 60.501s-25 35.834 -45 48.501s-45 19 -75 19c-41.333 0 -73.666 -12.833 -96.999 -38.5zM138.999 700h66l78 -97l74 97h67l-93 -144h-96z" />
    <glyph glyph-name="Gcircumflex" unicode="&#x11c;" horiz-adv-x="745" 
d="M87.5 513.5c31 52.333 73.168 92.834 126.501 121.501s112.333 43 177 43c60.667 0 113.167 -12.667 157.5 -38s81.5 -59 111.5 -101l-96 -54c-18.667 26 -43.167 47.333 -73.5 64s-63.5 25 -99.5 25c-43.333 0 -82.5 -10.333 -117.5 -31s-62.5 -49.334 -82.5 -86.001
s-30 -78 -30 -124s10 -87.333 30 -124s47.5 -65.5 82.5 -86.5s74.167 -31.5 117.5 -31.5c53.333 0 96.666 15.5 129.999 46.5s55 70.167 65 117.5h-236v103h364c0 -74.667 -13.167 -140 -39.5 -196s-64.5 -99.167 -114.5 -129.5s-109.667 -45.5 -179 -45.5
c-61.333 0 -118 14.5 -170 43.5s-93.333 69.667 -124 122s-46 112.5 -46 180.5s15.5 128.167 46.5 180.5zM391.001 819.001l-75 -96h-66l93 144h96l96 -144h-67z" />
    <glyph glyph-name="gcircumflex" unicode="&#x11d;" horiz-adv-x="580" 
d="M111 -48c18.667 -22 40.502 -37.834 65.502 -47.501s54.167 -14.5 87.5 -14.5c40 0 73.833 10.5 101.5 31.5s41.5 54.167 41.5 99.5v58c-19.333 -24.667 -42.333 -44.167 -69 -58.5s-55.334 -21.5 -86.001 -21.5c-41.333 0 -78.166 9.66699 -110.499 29
s-57.666 47.666 -75.999 84.999s-27.5 82 -27.5 134c0 50.667 9.16699 94.834 27.5 132.501s43.666 66.334 75.999 86.001s69.166 29.5 110.499 29.5c30.667 0 59.334 -6.83301 86.001 -20.5s49.667 -33.167 69 -58.5v67h105v-458c0 -79.333 -23.833 -136 -71.5 -170
s-106.5 -51 -176.5 -51c-42.667 0 -79.834 5.5 -111.501 16.5s-61.834 29.5 -90.501 55.5zM407.002 336.999c-12 18 -29.667 33.333 -53 46s-47 19 -71 19c-41.333 0 -74.333 -14.167 -99 -42.5s-37 -65.833 -37 -112.5s12.333 -84.167 37 -112.5s57.667 -42.5 99 -42.5
c24 0 47.667 6.33301 71 19s41 28 53 46v180zM293.002 651.999l-75 -96h-66l93 144h96l96 -144h-67z" />
    <glyph glyph-name="Gbreve" unicode="&#x11e;" horiz-adv-x="745" 
d="M87.5 513.5c31 52.333 73.168 92.834 126.501 121.501s112.333 43 177 43c60.667 0 113.167 -12.667 157.5 -38s81.5 -59 111.5 -101l-96 -54c-18.667 26 -43.167 47.333 -73.5 64s-63.5 25 -99.5 25c-43.333 0 -82.5 -10.333 -117.5 -31s-62.5 -49.334 -82.5 -86.001
s-30 -78 -30 -124s10 -87.333 30 -124s47.5 -65.5 82.5 -86.5s74.167 -31.5 117.5 -31.5c53.333 0 96.666 15.5 129.999 46.5s55 70.167 65 117.5h-236v103h364c0 -74.667 -13.167 -140 -39.5 -196s-64.5 -99.167 -114.5 -129.5s-109.667 -45.5 -179 -45.5
c-61.333 0 -118 14.5 -170 43.5s-93.333 69.667 -124 122s-46 112.5 -46 180.5s15.5 128.167 46.5 180.5zM292.001 744.501c-30.667 15.667 -56.334 37.167 -77.001 64.5l48 40c14.667 -20.667 33 -36.834 55 -48.501s46.333 -17.5 73 -17.5c26 0 50 5.83301 72 17.5
s40.333 27.834 55 48.501l48 -40c-20.667 -27.333 -46.167 -48.833 -76.5 -64.5s-63.166 -23.5 -98.499 -23.5s-68.333 7.83301 -99 23.5z" />
    <glyph glyph-name="gbreve" unicode="&#x11f;" horiz-adv-x="580" 
d="M111 -48c18.667 -22 40.502 -37.834 65.502 -47.501s54.167 -14.5 87.5 -14.5c40 0 73.833 10.5 101.5 31.5s41.5 54.167 41.5 99.5v58c-19.333 -24.667 -42.333 -44.167 -69 -58.5s-55.334 -21.5 -86.001 -21.5c-41.333 0 -78.166 9.66699 -110.499 29
s-57.666 47.666 -75.999 84.999s-27.5 82 -27.5 134c0 50.667 9.16699 94.834 27.5 132.501s43.666 66.334 75.999 86.001s69.166 29.5 110.499 29.5c30.667 0 59.334 -6.83301 86.001 -20.5s49.667 -33.167 69 -58.5v67h105v-458c0 -79.333 -23.833 -136 -71.5 -170
s-106.5 -51 -176.5 -51c-42.667 0 -79.834 5.5 -111.501 16.5s-61.834 29.5 -90.501 55.5zM407.002 336.999c-12 18 -29.667 33.333 -53 46s-47 19 -71 19c-41.333 0 -74.333 -14.167 -99 -42.5s-37 -65.833 -37 -112.5s12.333 -84.167 37 -112.5s57.667 -42.5 99 -42.5
c24 0 47.667 6.33301 71 19s41 28 53 46v180zM194.002 577.499c-30.667 15.667 -56.334 37.167 -77.001 64.5l48 40c14.667 -20.667 33 -36.834 55 -48.501s46.333 -17.5 73 -17.5c26 0 50 5.83301 72 17.5s40.333 27.834 55 48.501l48 -40
c-20.667 -27.333 -46.167 -48.833 -76.5 -64.5s-63.166 -23.5 -98.499 -23.5s-68.333 7.83301 -99 23.5z" />
    <glyph glyph-name="Gdotaccent" unicode="&#x120;" horiz-adv-x="745" 
d="M87.5 513.5c31 52.333 73.168 92.834 126.501 121.501s112.333 43 177 43c60.667 0 113.167 -12.667 157.5 -38s81.5 -59 111.5 -101l-96 -54c-18.667 26 -43.167 47.333 -73.5 64s-63.5 25 -99.5 25c-43.333 0 -82.5 -10.333 -117.5 -31s-62.5 -49.334 -82.5 -86.001
s-30 -78 -30 -124s10 -87.333 30 -124s47.5 -65.5 82.5 -86.5s74.167 -31.5 117.5 -31.5c53.333 0 96.666 15.5 129.999 46.5s55 70.167 65 117.5h-236v103h364c0 -74.667 -13.167 -140 -39.5 -196s-64.5 -99.167 -114.5 -129.5s-109.667 -45.5 -179 -45.5
c-61.333 0 -118 14.5 -170 43.5s-93.333 69.667 -124 122s-46 112.5 -46 180.5s15.5 128.167 46.5 180.5zM349.501 830.501c11.667 11.667 25.5 17.5 41.5 17.5s29.667 -5.83301 41 -17.5s17 -25.5 17 -41.5c0 -16.667 -5.66699 -30.667 -17 -42s-25 -17 -41 -17
s-29.833 5.66699 -41.5 17s-17.5 25.333 -17.5 42c0 16 5.83301 29.833 17.5 41.5z" />
    <glyph glyph-name="gdotaccent" unicode="&#x121;" horiz-adv-x="580" 
d="M111 -48c18.667 -22 40.502 -37.834 65.502 -47.501s54.167 -14.5 87.5 -14.5c40 0 73.833 10.5 101.5 31.5s41.5 54.167 41.5 99.5v58c-19.333 -24.667 -42.333 -44.167 -69 -58.5s-55.334 -21.5 -86.001 -21.5c-41.333 0 -78.166 9.66699 -110.499 29
s-57.666 47.666 -75.999 84.999s-27.5 82 -27.5 134c0 50.667 9.16699 94.834 27.5 132.501s43.666 66.334 75.999 86.001s69.166 29.5 110.499 29.5c30.667 0 59.334 -6.83301 86.001 -20.5s49.667 -33.167 69 -58.5v67h105v-458c0 -79.333 -23.833 -136 -71.5 -170
s-106.5 -51 -176.5 -51c-42.667 0 -79.834 5.5 -111.501 16.5s-61.834 29.5 -90.501 55.5zM407.002 336.999c-12 18 -29.667 33.333 -53 46s-47 19 -71 19c-41.333 0 -74.333 -14.167 -99 -42.5s-37 -65.833 -37 -112.5s12.333 -84.167 37 -112.5s57.667 -42.5 99 -42.5
c24 0 47.667 6.33301 71 19s41 28 53 46v180zM251.502 663.499c11.667 11.667 25.5 17.5 41.5 17.5s29.667 -5.83301 41 -17.5s17 -25.5 17 -41.5c0 -16.667 -5.66699 -30.667 -17 -42s-25 -17 -41 -17s-29.833 5.66699 -41.5 17s-17.5 25.333 -17.5 42
c0 16 5.83301 29.833 17.5 41.5z" />
    <glyph glyph-name="uni0122" unicode="&#x122;" horiz-adv-x="745" 
d="M87.5 513.5c31 52.333 73.168 92.834 126.501 121.501s112.333 43 177 43c60.667 0 113.167 -12.667 157.5 -38s81.5 -59 111.5 -101l-96 -54c-18.667 26 -43.167 47.333 -73.5 64s-63.5 25 -99.5 25c-43.333 0 -82.5 -10.333 -117.5 -31s-62.5 -49.334 -82.5 -86.001
s-30 -78 -30 -124s10 -87.333 30 -124s47.5 -65.5 82.5 -86.5s74.167 -31.5 117.5 -31.5c53.333 0 96.666 15.5 129.999 46.5s55 70.167 65 117.5h-236v103h364c0 -74.667 -13.167 -140 -39.5 -196s-64.5 -99.167 -114.5 -129.5s-109.667 -45.5 -179 -45.5
c-61.333 0 -118 14.5 -170 43.5s-93.333 69.667 -124 122s-46 112.5 -46 180.5s15.5 128.167 46.5 180.5zM337.001 -249.999c14 8.66699 27 20.998 39 36.998s19.333 31 22 45c-2.66699 -1.33301 -7.33398 -2 -14.001 -2c-13.333 0 -24.666 4.83301 -33.999 14.5
s-14 21.834 -14 36.501c0 15.333 5.33301 28.5 16 39.5s23.667 16.5 39 16.5c17.333 0 32.166 -6.66699 44.499 -20s18.5 -31.666 18.5 -54.999c0 -28 -7.16699 -54.667 -21.5 -80s-33.166 -46.333 -56.499 -63z" />
    <glyph glyph-name="uni0123" unicode="&#x123;" horiz-adv-x="580" 
d="M350 744c-14 -8.66699 -27.167 -20.667 -39.5 -36s-19.166 -29.666 -20.499 -42.999l6 1c13.333 0 25.666 -5.16699 36.999 -15.5s17 -22.833 17 -37.5c0 -15.333 -5.5 -28.5 -16.5 -39.5s-24.5 -16.5 -40.5 -16.5c-14.667 0 -27.834 5.66699 -39.501 17
s-17.5 28.666 -17.5 51.999c0 30.667 6.83301 59.167 20.5 85.5s31.834 47.5 54.501 63.5zM111 -48c18.667 -22 40.502 -37.834 65.502 -47.501s54.167 -14.5 87.5 -14.5c40 0 73.833 10.5 101.5 31.5s41.5 54.167 41.5 99.5v58c-19.333 -24.667 -42.333 -44.167 -69 -58.5
s-55.334 -21.5 -86.001 -21.5c-41.333 0 -78.166 9.66699 -110.499 29s-57.666 47.666 -75.999 84.999s-27.5 82 -27.5 134c0 50.667 9.16699 94.834 27.5 132.501s43.666 66.334 75.999 86.001s69.166 29.5 110.499 29.5c30.667 0 59.334 -6.83301 86.001 -20.5
s49.667 -33.167 69 -58.5v67h105v-458c0 -79.333 -23.833 -136 -71.5 -170s-106.5 -51 -176.5 -51c-42.667 0 -79.834 5.5 -111.501 16.5s-61.834 29.5 -90.501 55.5zM407.002 336.999c-12 18 -29.667 33.333 -53 46s-47 19 -71 19c-41.333 0 -74.333 -14.167 -99 -42.5
s-37 -65.833 -37 -112.5s12.333 -84.167 37 -112.5s57.667 -42.5 99 -42.5c24 0 47.667 6.33301 71 19s41 28 53 46v180z" />
    <glyph glyph-name="Hcircumflex" unicode="&#x124;" horiz-adv-x="723" 
d="M535 291h-347v-291h-117v667h117v-273h347v273h117v-667h-117v291zM362 819l-75 -96h-66l93 144h96l96 -144h-67z" />
    <glyph glyph-name="hcircumflex" unicode="&#x125;" horiz-adv-x="568" 
d="M395 304c0 35.333 -8.49805 60.501 -25.498 75.501s-41.167 22.5 -72.5 22.5c-24.667 0 -48 -6.33301 -70 -19s-40 -28 -54 -46v-337h-105v667h105v-250c18 21.333 42.167 39.666 72.5 54.999s63.166 23 98.499 23c51.333 0 90.166 -13 116.499 -39s39.5 -64 39.5 -114
v-342h-105v304zM284.002 819.001l-75 -96h-66l93 144h96l96 -144h-67z" />
    <glyph glyph-name="Hbar" unicode="&#x126;" horiz-adv-x="741" 
d="M735 496h-74v-496h-117v291h-347v-291h-117v496h-71v62h71v109h117v-109h347v109h117v-109h74v-62zM544 496h-347v-102h347v102z" />
    <glyph glyph-name="hbar" unicode="&#x127;" horiz-adv-x="571" 
d="M463.5 456c26.333 -26 39.502 -63.999 39.502 -113.999v-342h-105v304c0 35.333 -8.5 60.5 -25.5 75.5s-41.167 22.5 -72.5 22.5c-24.667 0 -48 -6.33301 -70 -19s-40 -28 -54 -46v-337h-105v531h-62v62h62v74h105v-74h151v-62h-151v-114
c18 21.333 42.167 39.666 72.5 54.999s63.166 23 98.499 23c51.333 0 90.166 -13 116.499 -39z" />
    <glyph glyph-name="Itilde" unicode="&#x128;" horiz-adv-x="259" 
d="M71 667h117v-667h-117v667zM90.5 791c-6.33301 5.33301 -13.5 8 -21.5 8c-12 0 -22 -6 -30 -18s-12 -30 -12 -54h-57c0 41.333 8.83301 74 26.5 98s43.167 36 76.5 36c17.333 0 31.333 -4 42 -12s21.667 -19.333 33 -34c9.33301 -11.333 17 -19.5 23 -24.5
s13 -7.5 21 -7.5c12 0 21.833 6 29.5 18s11.5 30 11.5 54h58c0 -41.333 -8.83301 -74 -26.5 -98s-43.167 -36 -76.5 -36c-17.333 0 -31.5 4 -42.5 12s-22.167 19.333 -33.5 34c-8 10.667 -15.167 18.667 -21.5 24z" />
    <glyph glyph-name="itilde" unicode="&#x129;" horiz-adv-x="241" 
d="M68 483h105v-483h-105v483zM80.5 624c-6.33301 5.33301 -13.5 8 -21.5 8c-12 0 -22 -6 -30 -18s-12 -30 -12 -54h-57c0 41.333 8.83301 74 26.5 98s43.167 36 76.5 36c17.333 0 31.333 -4 42 -12s21.667 -19.333 33 -34c9.33301 -11.333 17 -19.5 23 -24.5
s13 -7.5 21 -7.5c12 0 21.833 6 29.5 18s11.5 30 11.5 54h58c0 -41.333 -8.83301 -74 -26.5 -98s-43.167 -36 -76.5 -36c-17.333 0 -31.5 4 -42.5 12s-22.167 19.333 -33.5 34c-8 10.667 -15.167 18.667 -21.5 24z" />
    <glyph glyph-name="Imacron" unicode="&#x12a;" horiz-adv-x="259" 
d="M71 667h117v-667h-117v667zM-32 795h323v-62h-323v62z" />
    <glyph glyph-name="imacron" unicode="&#x12b;" horiz-adv-x="241" 
d="M68 483h105v-483h-105v483zM-42 628h323v-62h-323v62z" />
    <glyph glyph-name="Ibreve" unicode="&#x12c;" horiz-adv-x="259" 
d="M71 667h117v-667h-117v667zM31 744.5c-30.667 15.667 -56.334 37.167 -77.001 64.5l48 40c14.667 -20.667 33 -36.834 55 -48.501s46.333 -17.5 73 -17.5c26 0 50 5.83301 72 17.5s40.333 27.834 55 48.501l48 -40c-20.667 -27.333 -46.167 -48.833 -76.5 -64.5
s-63.166 -23.5 -98.499 -23.5s-68.333 7.83301 -99 23.5z" />
    <glyph glyph-name="ibreve" unicode="&#x12d;" horiz-adv-x="241" 
d="M68 483h105v-483h-105v483zM21 577.5c-30.667 15.667 -56.334 37.167 -77.001 64.5l48 40c14.667 -20.667 33 -36.834 55 -48.501s46.333 -17.5 73 -17.5c26 0 50 5.83301 72 17.5s40.333 27.834 55 48.501l48 -40c-20.667 -27.333 -46.167 -48.833 -76.5 -64.5
s-63.166 -23.5 -98.499 -23.5s-68.333 7.83301 -99 23.5z" />
    <glyph glyph-name="Iogonek" unicode="&#x12e;" horiz-adv-x="259" 
d="M99 -84c0 -9.33301 3.50098 -16.833 10.501 -22.5s15.167 -8.5 24.5 -8.5c10.667 0 20.667 2.33301 30 7l24 -61c-18.667 -11.333 -45.334 -17 -80.001 -17c-29.333 0 -54.333 6.66699 -75 20s-31 32.333 -31 57c0 22 9.83301 42.333 29.5 61s45.5 34.667 77.5 48h-38
v667h117v-667c-59.333 -22.667 -89 -50.667 -89 -84z" />
    <glyph glyph-name="iogonek" unicode="&#x12f;" horiz-adv-x="241" 
d="M74.5 576c-13 12.667 -19.5 28 -19.5 46s6.5 33.333 19.5 46s28.167 19 45.5 19c18 0 33.333 -6.33301 46 -19s19 -28 19 -46s-6.33301 -33.333 -19 -46s-28 -19 -46 -19c-17.333 0 -32.5 6.33301 -45.5 19zM68 483h105.001v-483c-59.333 -22.667 -89 -50.667 -89 -84
c0 -9.33301 3.5 -16.833 10.5 -22.5s15.167 -8.5 24.5 -8.5c10.667 0 20.667 2.33301 30 7l24 -61c-18.667 -11.333 -45.334 -17 -80.001 -17c-29.333 0 -54.333 6.66699 -75 20s-31 32.333 -31 57c0 22 9.83301 42.333 29.5 61s45.5 34.667 77.5 48h-26v483z" />
    <glyph glyph-name="Idotaccent" unicode="&#x130;" horiz-adv-x="259" 
d="M71 667h117v-667h-117v667zM88.5 830.5c11.667 11.667 25.5 17.5 41.5 17.5s29.667 -5.83301 41 -17.5s17 -25.5 17 -41.5c0 -16.667 -5.66699 -30.667 -17 -42s-25 -17 -41 -17s-29.833 5.66699 -41.5 17s-17.5 25.333 -17.5 42c0 16 5.83301 29.833 17.5 41.5z" />
    <glyph glyph-name="dotlessi" unicode="&#x131;" horiz-adv-x="241" 
d="M68 483h105v-483h-105v483z" />
    <glyph glyph-name="IJ" unicode="&#x132;" horiz-adv-x="740" 
d="M71 667h117v-667h-117v667zM321 147c34 -36.667 71.999 -55 113.999 -55c36 0 64.5 11 85.5 33s31.5 51.333 31.5 88v454h117v-456c0 -73.333 -20.667 -128.833 -62 -166.5s-95.666 -56.5 -162.999 -56.5c-74 0 -133 23.333 -177 70z" />
    <glyph glyph-name="ij" unicode="&#x133;" horiz-adv-x="482" 
d="M74.5 576c-13 12.667 -19.5 28 -19.5 46s6.5 33.333 19.5 46s28.167 19 45.5 19c18 0 33.333 -6.33301 46 -19s19 -28 19 -46s-6.33301 -33.333 -19 -46s-28 -19 -46 -19c-17.333 0 -32.5 6.33301 -45.5 19zM68 483h105v-483h-105v483zM315.5 576
c-13 12.667 -19.5 28 -19.5 46s6.5 33.333 19.5 46s28.167 19 45.5 19c18 0 33.333 -6.33301 46 -19s19 -28 19 -46s-6.33301 -33.333 -19 -46s-28 -19 -46 -19c-17.333 0 -32.5 6.33301 -45.5 19zM414 -28c0 -52.667 -13.667 -93.833 -41 -123.5s-67 -44.5 -119 -44.5
c-19.333 0 -37.333 1.66699 -54 5l11 87c8 -2 18 -3 30 -3c20.667 0 37.167 6.33301 49.5 19s18.5 32.667 18.5 60v511h105v-511z" />
    <glyph glyph-name="Jcircumflex" unicode="&#x134;" horiz-adv-x="481" 
d="M62 147c34 -36.667 71.999 -55 113.999 -55c36 0 64.5 11 85.5 33s31.5 51.333 31.5 88v454h117v-456c0 -73.333 -20.667 -128.833 -62 -166.5s-95.666 -56.5 -162.999 -56.5c-74 0 -133 23.333 -177 70zM353.999 819l-75 -96h-66l93 144h96l96 -144h-67z" />
    <glyph glyph-name="jcircumflex" unicode="&#x135;" horiz-adv-x="241" 
d="M-30 -104c8 -2 18 -2.99902 30 -2.99902c20.667 0 37.167 6.33301 49.5 19s18.5 32.667 18.5 60v511h105v-511c0 -52.667 -13.667 -93.834 -41 -123.501s-67 -44.5 -119 -44.5c-19.333 0 -37.333 1.66699 -54 5zM120 652.001l-75 -96h-66l93 144h96l96 -144h-67z" />
    <glyph glyph-name="uni0136" unicode="&#x136;" horiz-adv-x="621" 
d="M246 281l-58 -68v-213h-117v667h117v-318l261 318h145l-271 -315l291 -352h-144zM260 -250c14 8.66699 27 20.998 39 36.998s19.333 31 22 45c-2.66699 -1.33301 -7.33398 -2 -14.001 -2c-13.333 0 -24.666 4.83301 -33.999 14.5s-14 21.834 -14 36.501
c0 15.333 5.33301 28.5 16 39.5s23.667 16.5 39 16.5c17.333 0 32.166 -6.66699 44.499 -20s18.5 -31.666 18.5 -54.999c0 -28 -7.16699 -54.667 -21.5 -80s-33.166 -46.333 -56.499 -63z" />
    <glyph glyph-name="uni0137" unicode="&#x137;" horiz-adv-x="526" 
d="M240 199l-67 -69v-130h-105v667h105v-417l213 233h130l-201 -219l205 -264h-132zM211 -250c14 8.66699 27 20.998 39 36.998s19.333 31 22 45c-2.66699 -1.33301 -7.33398 -2 -14.001 -2c-13.333 0 -24.666 4.83301 -33.999 14.5s-14 21.834 -14 36.501
c0 15.333 5.33301 28.5 16 39.5s23.667 16.5 39 16.5c17.333 0 32.166 -6.66699 44.499 -20s18.5 -31.666 18.5 -54.999c0 -28 -7.16699 -54.667 -21.5 -80s-33.166 -46.333 -56.499 -63z" />
    <glyph glyph-name="kgreenlandic" unicode="&#x138;" horiz-adv-x="526" 
d="M240 199l-67 -69v-130h-105v483h105v-233l213 233h130l-201 -219l205 -264h-132z" />
    <glyph glyph-name="Lacute" unicode="&#x139;" horiz-adv-x="517" 
d="M71 667h117v-564h294v-103h-411v667zM236 723l140 144h100l-165 -144h-75z" />
    <glyph glyph-name="lacute" unicode="&#x13a;" horiz-adv-x="285" 
d="M99.5 20c-21 21.333 -31.5 51.999 -31.5 91.999v555h105v-529c0 -17.333 4 -31.166 12 -41.499s19.333 -15.5 34 -15.5c9.33301 0 18.333 1.66699 27 5s15 7.33301 19 12l25 -79c-22 -20.667 -54.667 -31 -98 -31c-40.667 0 -71.5 10.667 -92.5 32zM82 722.999l140 144
h100l-165 -144h-75z" />
    <glyph glyph-name="uni013B" unicode="&#x13b;" horiz-adv-x="517" 
d="M71 667h117v-564h294v-103h-411v667zM223 -250c14 8.66699 27 20.998 39 36.998s19.333 31 22 45c-2.66699 -1.33301 -7.33398 -2 -14.001 -2c-13.333 0 -24.666 4.83301 -33.999 14.5s-14 21.834 -14 36.501c0 15.333 5.33301 28.5 16 39.5s23.667 16.5 39 16.5
c17.333 0 32.166 -6.66699 44.499 -20s18.5 -31.666 18.5 -54.999c0 -28 -7.16699 -54.667 -21.5 -80s-33.166 -46.333 -56.499 -63z" />
    <glyph glyph-name="uni013C" unicode="&#x13c;" horiz-adv-x="285" 
d="M99.5 20c-21 21.333 -31.5 51.999 -31.5 91.999v555h105v-529c0 -17.333 4 -31.166 12 -41.499s19.333 -15.5 34 -15.5c9.33301 0 18.333 1.66699 27 5s15 7.33301 19 12l25 -79c-22 -20.667 -54.667 -31 -98 -31c-40.667 0 -71.5 10.667 -92.5 32zM106 -250.001
c14 8.66699 27 20.998 39 36.998s19.333 31 22 45c-2.66699 -1.33301 -7.33398 -2 -14.001 -2c-13.333 0 -24.666 4.83301 -33.999 14.5s-14 21.834 -14 36.501c0 15.333 5.33301 28.5 16 39.5s23.667 16.5 39 16.5c17.333 0 32.166 -6.66699 44.499 -20
s18.5 -31.666 18.5 -54.999c0 -28 -7.16699 -54.667 -21.5 -80s-33.166 -46.333 -56.499 -63z" />
    <glyph glyph-name="Lcaron" unicode="&#x13d;" horiz-adv-x="517" 
d="M71 667h117v-564h294v-103h-411v667zM275 493c14 8.66699 27 20.998 39 36.998s19.333 31 22 45c-2.66699 -1.33301 -7.33398 -2 -14.001 -2c-13.333 0 -24.666 4.83301 -33.999 14.5s-14 21.834 -14 36.501c0 15.333 5.33301 28.5 16 39.5s23.667 16.5 39 16.5
c17.333 0 32.166 -6.66699 44.499 -20s18.5 -31.666 18.5 -54.999c0 -28 -7.16699 -54.667 -21.5 -80s-33.166 -46.333 -56.499 -63z" />
    <glyph glyph-name="lcaron" unicode="&#x13e;" horiz-adv-x="327" 
d="M99.5 20c-21 21.333 -31.5 51.999 -31.5 91.999v555h105v-529c0 -17.333 4 -31.166 12 -41.499s19.333 -15.5 34 -15.5c9.33301 0 18.333 1.66699 27 5s15 7.33301 19 12l25 -79c-22 -20.667 -54.667 -31 -98 -31c-40.667 0 -71.5 10.667 -92.5 32zM229 492.999
c14 8.66699 27 20.998 39 36.998s19.333 31 22 45c-2.66699 -1.33301 -7.33398 -2 -14.001 -2c-13.333 0 -24.666 4.83301 -33.999 14.5s-14 21.834 -14 36.501c0 15.333 5.33301 28.5 16 39.5s23.667 16.5 39 16.5c17.333 0 32.166 -6.66699 44.499 -20
s18.5 -31.666 18.5 -54.999c0 -28 -7.16699 -54.667 -21.5 -80s-33.166 -46.333 -56.499 -63z" />
    <glyph glyph-name="Ldot" unicode="&#x13f;" horiz-adv-x="517" 
d="M71 667h117v-564h294v-103h-411v667zM336 292.5c-14 13.667 -21 29.834 -21 48.501c0 19.333 7 35.833 21 49.5s30.333 20.5 49 20.5c19.333 0 35.833 -6.83301 49.5 -20.5s20.5 -30.167 20.5 -49.5c0 -18.667 -7 -34.834 -21 -48.501s-30.333 -20.5 -49 -20.5
s-35 6.83301 -49 20.5z" />
    <glyph glyph-name="ldot" unicode="&#x140;" horiz-adv-x="351" 
d="M99.5 20c-21 21.333 -31.5 51.999 -31.5 91.999v555h105v-529c0 -17.333 4 -31.166 12 -41.499s19.333 -15.5 34 -15.5c9.33301 0 18.333 1.66699 27 5s15 7.33301 19 12l25 -79c-22 -20.667 -54.667 -31 -98 -31c-40.667 0 -71.5 10.667 -92.5 32zM246 195.499
c-14 13.667 -21 29.834 -21 48.501c0 19.333 7 35.833 21 49.5s30.333 20.5 49 20.5c19.333 0 35.833 -6.83301 49.5 -20.5s20.5 -30.167 20.5 -49.5c0 -18.667 -7 -34.834 -21 -48.501s-30.333 -20.5 -49 -20.5s-35 6.83301 -49 20.5z" />
    <glyph glyph-name="Lslash" unicode="&#x141;" horiz-adv-x="533" 
d="M498 103v-103h-411v249l-78 -45v97l78 45v321h117v-253l85 49v-97l-85 -49v-214h294z" />
    <glyph glyph-name="lslash" unicode="&#x142;" horiz-adv-x="314" 
d="M318 19c-22 -20.667 -54.667 -31.001 -98 -31.001c-40.667 0 -71.5 10.667 -92.5 32s-31.5 52 -31.5 92v152l-87 -50v79l87 50v324h105v-264l88 51v-79l-88 -51v-186c0 -17.333 4 -31.166 12 -41.499s19.333 -15.5 34 -15.5c9.33301 0 18.333 1.66699 27 5
s15 7.33301 19 12z" />
    <glyph glyph-name="Nacute" unicode="&#x143;" horiz-adv-x="720" 
d="M188 486v-486h-117v667h120l341 -473v473h117v-667h-113zM319 723l140 144h100l-165 -144h-75z" />
    <glyph glyph-name="nacute" unicode="&#x144;" 
d="M394 302c0 36 -8.33203 61.668 -24.999 77.001s-40.667 23 -72 23c-25.333 0 -49 -6.33301 -71 -19s-39.667 -28 -53 -46v-337h-105v483h105v-66c18 21.333 42 39.666 72 54.999s62.667 23 98 23c51.333 0 90.166 -13.333 116.499 -40s39.5 -65 39.5 -115v-340h-105v302z
M243.001 556.001l140 144h100l-165 -144h-75z" />
    <glyph glyph-name="uni0145" unicode="&#x145;" horiz-adv-x="720" 
d="M188 486v-486h-117v667h120l341 -473v473h117v-667h-113zM306 -250c14 8.66699 27 20.998 39 36.998s19.333 31 22 45c-2.66699 -1.33301 -7.33398 -2 -14.001 -2c-13.333 0 -24.666 4.83301 -33.999 14.5s-14 21.834 -14 36.501c0 15.333 5.33301 28.5 16 39.5
s23.667 16.5 39 16.5c17.333 0 32.166 -6.66699 44.499 -20s18.5 -31.666 18.5 -54.999c0 -28 -7.16699 -54.667 -21.5 -80s-33.166 -46.333 -56.499 -63z" />
    <glyph glyph-name="uni0146" unicode="&#x146;" 
d="M394 302c0 36 -8.33203 61.668 -24.999 77.001s-40.667 23 -72 23c-25.333 0 -49 -6.33301 -71 -19s-39.667 -28 -53 -46v-337h-105v483h105v-66c18 21.333 42 39.666 72 54.999s62.667 23 98 23c51.333 0 90.166 -13.333 116.499 -40s39.5 -65 39.5 -115v-340h-105v302z
M230.001 -249.999c14 8.66699 27 20.998 39 36.998s19.333 31 22 45c-2.66699 -1.33301 -7.33398 -2 -14.001 -2c-13.333 0 -24.666 4.83301 -33.999 14.5s-14 21.834 -14 36.501c0 15.333 5.33301 28.5 16 39.5s23.667 16.5 39 16.5c17.333 0 32.166 -6.66699 44.499 -20
s18.5 -31.666 18.5 -54.999c0 -28 -7.16699 -54.667 -21.5 -80s-33.166 -46.333 -56.499 -63z" />
    <glyph glyph-name="Ncaron" unicode="&#x147;" horiz-adv-x="720" 
d="M188 486v-486h-117v667h120l341 -473v473h117v-667h-113zM216 867h66l78 -97l74 97h67l-93 -144h-96z" />
    <glyph glyph-name="ncaron" unicode="&#x148;" 
d="M394 302c0 36 -8.33203 61.668 -24.999 77.001s-40.667 23 -72 23c-25.333 0 -49 -6.33301 -71 -19s-39.667 -28 -53 -46v-337h-105v483h105v-66c18 21.333 42 39.666 72 54.999s62.667 23 98 23c51.333 0 90.166 -13.333 116.499 -40s39.5 -65 39.5 -115v-340h-105v302z
M140.001 700.001h66l78 -97l74 97h67l-93 -144h-96z" />
    <glyph glyph-name="napostrophe" unicode="&#x149;" 
d="M394 302c0 36 -8.33203 61.668 -24.999 77.001s-40.667 23 -72 23c-25.333 0 -49 -6.33301 -71 -19s-39.667 -28 -53 -46v-337h-105v483h105v-66c18 21.333 42 39.666 72 54.999s62.667 23 98 23c51.333 0 90.166 -13.333 116.499 -40s39.5 -65 39.5 -115v-340h-105v302z
M52.001 568.001c14 8.66699 27 20.998 39 36.998s19.333 31 22 45c-2.66699 -1.33301 -7.33398 -2 -14.001 -2c-13.333 0 -24.666 4.83301 -33.999 14.5s-14 21.834 -14 36.501c0 15.333 5.33301 28.5 16 39.5s23.667 16.5 39 16.5c17.333 0 32.166 -6.66699 44.499 -20
s18.5 -31.666 18.5 -54.999c0 -28 -7.16699 -54.667 -21.5 -80s-33.166 -46.333 -56.499 -63z" />
    <glyph glyph-name="Eng" unicode="&#x14a;" horiz-adv-x="720" 
d="M649 667v-641.001c0 -73.333 -20.5 -128.666 -61.5 -165.999s-95.5 -56 -163.5 -56c-74 0 -133.333 23.333 -178 70l55 89c32.667 -36.667 70.667 -55 114 -55c32 0 58.333 9 79 27s33 42.333 37 73l-343 478v-486h-117v667h120l341 -473v473h117z" />
    <glyph glyph-name="eng" unicode="&#x14b;" 
d="M458 -151.5c-27.333 -29.667 -66.999 -44.498 -118.999 -44.498c-19.333 0 -37.333 1.66699 -54 5l11 87c8 -2 18 -3 30 -3c20.667 0 37.167 6.33301 49.5 19s18.5 32.667 18.5 60v330c0 36 -8.33301 61.667 -25 77s-40.667 23 -72 23c-25.333 0 -49 -6.33301 -71 -19
s-39.667 -28 -53 -46v-337h-105v483h105v-66c18 21.333 42 39.666 72 54.999s62.667 23 98 23c51.333 0 90.166 -13.333 116.499 -40s39.5 -65 39.5 -115v-368c0 -52.667 -13.667 -93.834 -41 -123.501z" />
    <glyph glyph-name="Omacron" unicode="&#x14c;" horiz-adv-x="765" 
d="M84.5 510c29 52.667 69.333 93.834 121 123.501s110.5 44.5 176.5 44.5s124.833 -14.833 176.5 -44.5s92 -70.834 121 -123.501s43.5 -111.667 43.5 -177s-14.5 -124.333 -43.5 -177s-69.333 -93.834 -121 -123.501s-110.5 -44.5 -176.5 -44.5
s-124.833 14.833 -176.5 44.5s-92 70.834 -121 123.501s-43.5 111.667 -43.5 177s14.5 124.333 43.5 177zM575.5 457c-18.333 36.667 -44.166 65.334 -77.499 86.001s-72 31 -116 31s-82.667 -10.333 -116 -31s-59.166 -49.334 -77.499 -86.001s-27.5 -78 -27.5 -124
c0 -45.333 9.16699 -86.333 27.5 -123s44.166 -65.5 77.499 -86.5s72 -31.5 116 -31.5s82.667 10.5 116 31.5s59.166 49.833 77.499 86.5s27.5 77.667 27.5 123c0 46 -9.16699 87.333 -27.5 124zM219 795h323v-62h-323v62z" />
    <glyph glyph-name="omacron" unicode="&#x14d;" horiz-adv-x="573" 
d="M155.5 22c-37.667 22.667 -66.667 53.333 -87 92s-30.5 81.334 -30.5 128.001c0 46 10.167 88.333 30.5 127s49.333 69.334 87 92.001s81.167 34 130.5 34c50 0 93.833 -11.333 131.5 -34s66.667 -53.167 87 -91.5s30.5 -80.833 30.5 -127.5
s-10.167 -89.334 -30.5 -128.001s-49.333 -69.334 -87 -92.001s-81.5 -34 -131.5 -34c-49.333 0 -92.833 11.333 -130.5 34zM388.5 127.499c25 31 37.5 69.167 37.5 114.5c0 44.667 -12.5 82.5 -37.5 113.5s-59.167 46.5 -102.5 46.5c-42.667 0 -76.5 -15.5 -101.5 -46.5
s-37.5 -68.833 -37.5 -113.5c0 -45.333 12.5 -83.5 37.5 -114.5s58.833 -46.5 101.5 -46.5c43.333 0 77.5 15.5 102.5 46.5zM124 627.999h323v-62h-323v62z" />
    <glyph glyph-name="Obreve" unicode="&#x14e;" horiz-adv-x="765" 
d="M84.5 510c29 52.667 69.333 93.834 121 123.501s110.5 44.5 176.5 44.5s124.833 -14.833 176.5 -44.5s92 -70.834 121 -123.501s43.5 -111.667 43.5 -177s-14.5 -124.333 -43.5 -177s-69.333 -93.834 -121 -123.501s-110.5 -44.5 -176.5 -44.5
s-124.833 14.833 -176.5 44.5s-92 70.834 -121 123.501s-43.5 111.667 -43.5 177s14.5 124.333 43.5 177zM575.5 457c-18.333 36.667 -44.166 65.334 -77.499 86.001s-72 31 -116 31s-82.667 -10.333 -116 -31s-59.166 -49.334 -77.499 -86.001s-27.5 -78 -27.5 -124
c0 -45.333 9.16699 -86.333 27.5 -123s44.166 -65.5 77.499 -86.5s72 -31.5 116 -31.5s82.667 10.5 116 31.5s59.166 49.833 77.499 86.5s27.5 77.667 27.5 123c0 46 -9.16699 87.333 -27.5 124zM282 744.5c-30.667 15.667 -56.334 37.167 -77.001 64.5l48 40
c14.667 -20.667 33 -36.834 55 -48.501s46.333 -17.5 73 -17.5c26 0 50 5.83301 72 17.5s40.333 27.834 55 48.501l48 -40c-20.667 -27.333 -46.167 -48.833 -76.5 -64.5s-63.166 -23.5 -98.499 -23.5s-68.333 7.83301 -99 23.5z" />
    <glyph glyph-name="obreve" unicode="&#x14f;" horiz-adv-x="573" 
d="M155.5 22c-37.667 22.667 -66.667 53.333 -87 92s-30.5 81.334 -30.5 128.001c0 46 10.167 88.333 30.5 127s49.333 69.334 87 92.001s81.167 34 130.5 34c50 0 93.833 -11.333 131.5 -34s66.667 -53.167 87 -91.5s30.5 -80.833 30.5 -127.5
s-10.167 -89.334 -30.5 -128.001s-49.333 -69.334 -87 -92.001s-81.5 -34 -131.5 -34c-49.333 0 -92.833 11.333 -130.5 34zM388.5 127.499c25 31 37.5 69.167 37.5 114.5c0 44.667 -12.5 82.5 -37.5 113.5s-59.167 46.5 -102.5 46.5c-42.667 0 -76.5 -15.5 -101.5 -46.5
s-37.5 -68.833 -37.5 -113.5c0 -45.333 12.5 -83.5 37.5 -114.5s58.833 -46.5 101.5 -46.5c43.333 0 77.5 15.5 102.5 46.5zM187 577.499c-30.667 15.667 -56.334 37.167 -77.001 64.5l48 40c14.667 -20.667 33 -36.834 55 -48.501s46.333 -17.5 73 -17.5
c26 0 50 5.83301 72 17.5s40.333 27.834 55 48.501l48 -40c-20.667 -27.333 -46.167 -48.833 -76.5 -64.5s-63.166 -23.5 -98.499 -23.5s-68.333 7.83301 -99 23.5z" />
    <glyph glyph-name="Ohungarumlaut" unicode="&#x150;" horiz-adv-x="765" 
d="M84.5 510c29 52.667 69.333 93.834 121 123.501s110.5 44.5 176.5 44.5s124.833 -14.833 176.5 -44.5s92 -70.834 121 -123.501s43.5 -111.667 43.5 -177s-14.5 -124.333 -43.5 -177s-69.333 -93.834 -121 -123.501s-110.5 -44.5 -176.5 -44.5
s-124.833 14.833 -176.5 44.5s-92 70.834 -121 123.501s-43.5 111.667 -43.5 177s14.5 124.333 43.5 177zM575.5 457c-18.333 36.667 -44.166 65.334 -77.499 86.001s-72 31 -116 31s-82.667 -10.333 -116 -31s-59.166 -49.334 -77.499 -86.001s-27.5 -78 -27.5 -124
c0 -45.333 9.16699 -86.333 27.5 -123s44.166 -65.5 77.499 -86.5s72 -31.5 116 -31.5s82.667 10.5 116 31.5s59.166 49.833 77.499 86.5s27.5 77.667 27.5 123c0 46 -9.16699 87.333 -27.5 124zM273 723l90 144h88l-115 -144h-63zM419 723l90 144h88l-115 -144h-63z" />
    <glyph glyph-name="ohungarumlaut" unicode="&#x151;" horiz-adv-x="573" 
d="M155.5 22c-37.667 22.667 -66.667 53.333 -87 92s-30.5 81.334 -30.5 128.001c0 46 10.167 88.333 30.5 127s49.333 69.334 87 92.001s81.167 34 130.5 34c50 0 93.833 -11.333 131.5 -34s66.667 -53.167 87 -91.5s30.5 -80.833 30.5 -127.5
s-10.167 -89.334 -30.5 -128.001s-49.333 -69.334 -87 -92.001s-81.5 -34 -131.5 -34c-49.333 0 -92.833 11.333 -130.5 34zM388.5 127.499c25 31 37.5 69.167 37.5 114.5c0 44.667 -12.5 82.5 -37.5 113.5s-59.167 46.5 -102.5 46.5c-42.667 0 -76.5 -15.5 -101.5 -46.5
s-37.5 -68.833 -37.5 -113.5c0 -45.333 12.5 -83.5 37.5 -114.5s58.833 -46.5 101.5 -46.5c43.333 0 77.5 15.5 102.5 46.5zM178 555.999l90 144h88l-115 -144h-63zM324 555.999l90 144h88l-115 -144h-63z" />
    <glyph glyph-name="OE" unicode="&#x152;" horiz-adv-x="1093" 
d="M588 96c-22.667 -34.667 -53.834 -61.332 -93.501 -79.999s-80.834 -28 -123.501 -28c-64 0 -121 14.833 -171 44.5s-89 70.667 -117 123s-42 111.5 -42 177.5s14 125.167 42 177.5s67 93.166 117 122.499s107 44 171 44c42.667 0 83.834 -9.33301 123.501 -28
s70.834 -45 93.501 -79v97h457v-103h-340v-173h333v-103h-333v-185h340v-103h-457v96zM509 538.502c-35.333 23 -76.334 34.502 -123.001 34.502c-45.333 0 -85 -10.333 -119 -31s-60.167 -49.167 -78.5 -85.5s-27.5 -77.5 -27.5 -123.5s9.16699 -87.333 27.5 -124
s44.5 -65.334 78.5 -86.001s73.667 -31 119 -31c46 0 86.833 11.667 122.5 35s62.167 56.666 79.5 99.999v212c-17.333 43.333 -43.666 76.5 -78.999 99.5z" />
    <glyph glyph-name="oe" unicode="&#x153;" horiz-adv-x="944" 
d="M582.5 112c27 -25.333 62.5 -38.001 106.5 -38.001c24.667 0 49.5 4.66699 74.5 14s46.167 22.333 63.5 39l48 -69c-24 -22.667 -53 -40 -87 -52s-70.333 -18 -109 -18c-86 0 -152.667 40 -200 120c-46 -80 -110.333 -120 -193 -120c-49.333 0 -92.833 11.333 -130.5 34
s-66.667 53.334 -87 92.001s-30.5 81.334 -30.5 128.001c0 46 10.167 88.333 30.5 127s49.333 69.334 87 92.001s81.167 34 130.5 34c82 0 146.667 -40.333 194 -121c18 32.667 42.5 61 73.5 85s70.167 36 117.5 36s89 -11.333 125 -34s63.667 -53.834 83 -93.501
s29 -84.834 29 -135.501v-25h-372c4 -38 19.5 -69.667 46.5 -95zM769.5 369.999c-23 26 -56.168 39 -99.501 39c-41.333 0 -73.666 -13 -96.999 -39s-36 -55.667 -38 -89h272c-2 33.333 -14.5 63 -37.5 89zM184.999 356.499c-25.333 -30.333 -38 -68.5 -38 -114.5
c0 -46.667 12.667 -85.334 38 -116.001s59 -46 101 -46c42.667 0 76.667 15.333 102 46s38 69.334 38 116.001c0 46 -12.667 84.167 -38 114.5s-59.333 45.5 -102 45.5c-42 0 -75.667 -15.167 -101 -45.5z" />
    <glyph glyph-name="Racute" unicode="&#x154;" horiz-adv-x="628" 
d="M304 249l-116 0.00195312v-249h-117v667h293c43.333 0 81.5 -8.83301 114.5 -26.5s58.5 -42.334 76.5 -74.001s27 -67.834 27 -108.501c0 -56 -15.333 -100.833 -46 -134.5s-68 -54.167 -112 -61.5l163 -262h-135zM430 535.002c-21.333 19.333 -48.666 29 -81.999 29
h-160v-212h160c33.333 0 60.666 9.66699 81.999 29s32 45 32 77s-10.667 57.667 -32 77zM273 723.002l140 144h100l-165 -144h-75z" />
    <glyph glyph-name="racute" unicode="&#x155;" horiz-adv-x="347" 
d="M68 483h105v-71c18.667 24 42 43.667 70 59s57 23 87 23v-104c-9.33301 2 -20.333 3 -33 3c-22 0 -45.5 -6.5 -70.5 -19.5s-42.833 -27.833 -53.5 -44.5v-329h-105v483zM154 556l140 144h100l-165 -144h-75z" />
    <glyph glyph-name="uni0156" unicode="&#x156;" horiz-adv-x="628" 
d="M304 249l-116 0.00195312v-249h-117v667h293c43.333 0 81.5 -8.83301 114.5 -26.5s58.5 -42.334 76.5 -74.001s27 -67.834 27 -108.501c0 -56 -15.333 -100.833 -46 -134.5s-68 -54.167 -112 -61.5l163 -262h-135zM430 535.002c-21.333 19.333 -48.666 29 -81.999 29
h-160v-212h160c33.333 0 60.666 9.66699 81.999 29s32 45 32 77s-10.667 57.667 -32 77zM260 -249.998c14 8.66699 27 20.998 39 36.998s19.333 31 22 45c-2.66699 -1.33301 -7.33398 -2 -14.001 -2c-13.333 0 -24.666 4.83301 -33.999 14.5s-14 21.834 -14 36.501
c0 15.333 5.33301 28.5 16 39.5s23.667 16.5 39 16.5c17.333 0 32.166 -6.66699 44.499 -20s18.5 -31.666 18.5 -54.999c0 -28 -7.16699 -54.667 -21.5 -80s-33.166 -46.333 -56.499 -63z" />
    <glyph glyph-name="uni0157" unicode="&#x157;" horiz-adv-x="347" 
d="M68 483h105v-71c18.667 24 42 43.667 70 59s57 23 87 23v-104c-9.33301 2 -20.333 3 -33 3c-22 0 -45.5 -6.5 -70.5 -19.5s-42.833 -27.833 -53.5 -44.5v-329h-105v483zM69 -250c14 8.66699 27 20.998 39 36.998s19.333 31 22 45
c-2.66699 -1.33301 -7.33398 -2 -14.001 -2c-13.333 0 -24.666 4.83301 -33.999 14.5s-14 21.834 -14 36.501c0 15.333 5.33301 28.5 16 39.5s23.667 16.5 39 16.5c17.333 0 32.166 -6.66699 44.499 -20s18.5 -31.666 18.5 -54.999c0 -28 -7.16699 -54.667 -21.5 -80
s-33.166 -46.333 -56.499 -63z" />
    <glyph glyph-name="Rcaron" unicode="&#x158;" horiz-adv-x="628" 
d="M304 249l-116 0.00195312v-249h-117v667h293c43.333 0 81.5 -8.83301 114.5 -26.5s58.5 -42.334 76.5 -74.001s27 -67.834 27 -108.501c0 -56 -15.333 -100.833 -46 -134.5s-68 -54.167 -112 -61.5l163 -262h-135zM430 535.002c-21.333 19.333 -48.666 29 -81.999 29
h-160v-212h160c33.333 0 60.666 9.66699 81.999 29s32 45 32 77s-10.667 57.667 -32 77zM170 867.002h66l78 -97l74 97h67l-93 -144h-96z" />
    <glyph glyph-name="rcaron" unicode="&#x159;" horiz-adv-x="347" 
d="M68 483h105v-71c18.667 24 42 43.667 70 59s57 23 87 23v-104c-9.33301 2 -20.333 3 -33 3c-22 0 -45.5 -6.5 -70.5 -19.5s-42.833 -27.833 -53.5 -44.5v-329h-105v483zM51 700h66l78 -97l74 97h67l-93 -144h-96z" />
    <glyph glyph-name="Sacute" unicode="&#x15a;" horiz-adv-x="594" 
d="M93 184c25.333 -27.333 56.001 -49.498 92.001 -66.498s75.667 -25.5 119 -25.5c44.667 0 78.167 9 100.5 27s33.5 39.333 33.5 64c0 18.667 -6.5 34 -19.5 46s-29.5 21.5 -49.5 28.5s-47.667 15.167 -83 24.5c-50 12 -90.667 24.333 -122 37s-58.333 32.167 -81 58.5
s-34 61.166 -34 104.499c0 36.667 10.167 69.834 30.5 99.501s49 53 86 70s79.167 25.5 126.5 25.5c102.667 0 186 -31 250 -93l-67 -87c-25.333 25.333 -54.833 44.333 -88.5 57s-68.5 19 -104.5 19c-34.667 0 -62.167 -7.5 -82.5 -22.5s-30.5 -35.167 -30.5 -60.5
c0 -16 6.33301 -29.333 19 -40s28.5 -19.334 47.5 -26.001s45.833 -14.334 80.5 -23.001c50 -12.667 91.167 -25.667 123.5 -39s60 -33.5 83 -60.5s34.5 -62.833 34.5 -107.5c0 -38.667 -9.33301 -73.5 -28 -104.5s-47.334 -55.667 -86.001 -74s-86.667 -27.5 -144 -27.5
c-59.333 0 -111.5 9.33301 -156.5 28s-83.167 44.667 -114.5 78zM251.001 723.002l140 144h100l-165 -144h-75z" />
    <glyph glyph-name="sacute" unicode="&#x15b;" horiz-adv-x="472" 
d="M74 139c18 -18.667 42.3301 -34.6631 72.9971 -47.9961s61 -20 91 -20c30.667 0 54.167 5.16699 70.5 15.5s24.5 24.833 24.5 43.5c0 19.333 -9.33301 33.833 -28 43.5s-46 18.5 -82 26.5c-38 8 -69.167 16.5 -93.5 25.5s-45.166 23.333 -62.499 43s-26 46.167 -26 79.5
c0 26.667 7.5 51.167 22.5 73.5s36.833 40.166 65.5 53.499s62.667 20 102 20c74 0 136.667 -22.667 188 -68l-44 -74c-15.333 17.333 -35.666 31.333 -60.999 42s-52.666 16 -81.999 16c-28 0 -50 -4.83301 -66 -14.5s-24 -22.834 -24 -39.501s8.66699 -29.334 26 -38.001
s43.666 -17 78.999 -25c38 -8 69.667 -16.833 95 -26.5s47 -24.834 65 -45.501s27 -48.667 27 -84c0 -44 -17.667 -80 -53 -108s-84.666 -42 -147.999 -42c-41.333 0 -80 6.5 -116 19.5s-66.333 31.5 -91 55.5zM189.997 556.004l140 144h100l-165 -144h-75z" />
    <glyph glyph-name="Scircumflex" unicode="&#x15c;" horiz-adv-x="594" 
d="M93 184c25.333 -27.333 56.001 -49.498 92.001 -66.498s75.667 -25.5 119 -25.5c44.667 0 78.167 9 100.5 27s33.5 39.333 33.5 64c0 18.667 -6.5 34 -19.5 46s-29.5 21.5 -49.5 28.5s-47.667 15.167 -83 24.5c-50 12 -90.667 24.333 -122 37s-58.333 32.167 -81 58.5
s-34 61.166 -34 104.499c0 36.667 10.167 69.834 30.5 99.501s49 53 86 70s79.167 25.5 126.5 25.5c102.667 0 186 -31 250 -93l-67 -87c-25.333 25.333 -54.833 44.333 -88.5 57s-68.5 19 -104.5 19c-34.667 0 -62.167 -7.5 -82.5 -22.5s-30.5 -35.167 -30.5 -60.5
c0 -16 6.33301 -29.333 19 -40s28.5 -19.334 47.5 -26.001s45.833 -14.334 80.5 -23.001c50 -12.667 91.167 -25.667 123.5 -39s60 -33.5 83 -60.5s34.5 -62.833 34.5 -107.5c0 -38.667 -9.33301 -73.5 -28 -104.5s-47.334 -55.667 -86.001 -74s-86.667 -27.5 -144 -27.5
c-59.333 0 -111.5 9.33301 -156.5 28s-83.167 44.667 -114.5 78zM292.001 819.002l-75 -96h-66l93 144h96l96 -144h-67z" />
    <glyph glyph-name="scircumflex" unicode="&#x15d;" horiz-adv-x="472" 
d="M74 139c18 -18.667 42.3301 -34.6631 72.9971 -47.9961s61 -20 91 -20c30.667 0 54.167 5.16699 70.5 15.5s24.5 24.833 24.5 43.5c0 19.333 -9.33301 33.833 -28 43.5s-46 18.5 -82 26.5c-38 8 -69.167 16.5 -93.5 25.5s-45.166 23.333 -62.499 43s-26 46.167 -26 79.5
c0 26.667 7.5 51.167 22.5 73.5s36.833 40.166 65.5 53.499s62.667 20 102 20c74 0 136.667 -22.667 188 -68l-44 -74c-15.333 17.333 -35.666 31.333 -60.999 42s-52.666 16 -81.999 16c-28 0 -50 -4.83301 -66 -14.5s-24 -22.834 -24 -39.501s8.66699 -29.334 26 -38.001
s43.666 -17 78.999 -25c38 -8 69.667 -16.833 95 -26.5s47 -24.834 65 -45.501s27 -48.667 27 -84c0 -44 -17.667 -80 -53 -108s-84.666 -42 -147.999 -42c-41.333 0 -80 6.5 -116 19.5s-66.333 31.5 -91 55.5zM230.997 652.004l-75 -96h-66l93 144h96l96 -144h-67z" />
    <glyph glyph-name="uni015E" unicode="&#x15e;" horiz-adv-x="594" 
d="M496.5 50.5c-40.333 -38.333 -99.8311 -59.166 -178.498 -62.499l-17 -41c10.667 7.33301 22.667 11 36 11c19.333 0 35.333 -6.33301 48 -19s19 -28.667 19 -48c0 -26 -10.333 -46.667 -31 -62s-46.334 -23 -77.001 -23c-22 0 -42.5 3 -61.5 9s-33.833 13.333 -44.5 22
l22 46c24 -19.333 51 -29 81 -29c16 0 29.333 3.33301 40 10s16 16 16 28c0 8.66699 -2.83301 15.5 -8.5 20.5s-13.834 7.5 -24.501 7.5c-14 0 -25.333 -5 -34 -15l-41 23l23 61c-99.333 7.33301 -178 42.333 -236 105l65 90c25.333 -27.333 56 -49.5 92 -66.5
s75.667 -25.5 119 -25.5c44.667 0 78.167 9 100.5 27s33.5 39.333 33.5 64c0 18.667 -6.5 34 -19.5 46s-29.5 21.5 -49.5 28.5s-47.667 15.167 -83 24.5c-50 12 -90.667 24.333 -122 37s-58.333 32.167 -81 58.5s-34 61.166 -34 104.499c0 36.667 10.167 69.834 30.5 99.501
s49 53 86 70s79.167 25.5 126.5 25.5c102.667 0 186 -31 250 -93l-67 -87c-25.333 25.333 -54.833 44.333 -88.5 57s-68.5 19 -104.5 19c-34.667 0 -62.167 -7.5 -82.5 -22.5s-30.5 -35.167 -30.5 -60.5c0 -16 6.33301 -29.333 19 -40s28.5 -19.334 47.5 -26.001
s45.833 -14.334 80.5 -23.001c50 -12.667 91.167 -25.667 123.5 -39s60 -33.5 83 -60.5s34.5 -62.833 34.5 -107.5c0 -57.333 -20.167 -105.166 -60.5 -143.499z" />
    <glyph glyph-name="uni015F" unicode="&#x15f;" horiz-adv-x="472" 
d="M387.5 35c-31 -27.333 -74.501 -42.6621 -130.501 -45.9951l-17 -42c10.667 7.33301 22.667 11 36 11c19.333 0 35.333 -6.33301 48 -19s19 -28.667 19 -48c0 -26 -10.333 -46.667 -31 -62s-46.334 -23 -77.001 -23c-22 0 -42.5 3 -61.5 9s-33.833 13.333 -44.5 22l22 46
c24 -19.333 51 -29 81 -29c16 0 29.333 3.33301 40 10s16 16 16 28c0 8.66699 -2.83301 15.5 -8.5 20.5s-13.834 7.5 -24.501 7.5c-14 0 -25.333 -5 -34 -15l-41 23l23 61c-35.333 3.33301 -68.166 11.166 -98.499 23.499s-56.5 29.166 -78.5 50.499l48 76
c18 -18.667 42.333 -34.667 73 -48s61 -20 91 -20c30.667 0 54.167 5.16699 70.5 15.5s24.5 24.833 24.5 43.5c0 19.333 -9.33301 33.833 -28 43.5s-46 18.5 -82 26.5c-38 8 -69.167 16.5 -93.5 25.5s-45.166 23.333 -62.499 43s-26 46.167 -26 79.5
c0 26.667 7.5 51.167 22.5 73.5s36.833 40.166 65.5 53.499s62.667 20 102 20c74 0 136.667 -22.667 188 -68l-44 -74c-15.333 17.333 -35.666 31.333 -60.999 42s-52.666 16 -81.999 16c-28 0 -50 -4.83301 -66 -14.5s-24 -22.834 -24 -39.501s8.66699 -29.334 26 -38.001
s43.666 -17 78.999 -25c38 -8 69.667 -16.833 95 -26.5s47 -24.834 65 -45.501s27 -48.667 27 -84c0 -41.333 -15.5 -75.666 -46.5 -102.999z" />
    <glyph glyph-name="Scaron" unicode="&#x160;" horiz-adv-x="594" 
d="M93 184c25.333 -27.333 56.001 -49.498 92.001 -66.498s75.667 -25.5 119 -25.5c44.667 0 78.167 9 100.5 27s33.5 39.333 33.5 64c0 18.667 -6.5 34 -19.5 46s-29.5 21.5 -49.5 28.5s-47.667 15.167 -83 24.5c-50 12 -90.667 24.333 -122 37s-58.333 32.167 -81 58.5
s-34 61.166 -34 104.499c0 36.667 10.167 69.834 30.5 99.501s49 53 86 70s79.167 25.5 126.5 25.5c102.667 0 186 -31 250 -93l-67 -87c-25.333 25.333 -54.833 44.333 -88.5 57s-68.5 19 -104.5 19c-34.667 0 -62.167 -7.5 -82.5 -22.5s-30.5 -35.167 -30.5 -60.5
c0 -16 6.33301 -29.333 19 -40s28.5 -19.334 47.5 -26.001s45.833 -14.334 80.5 -23.001c50 -12.667 91.167 -25.667 123.5 -39s60 -33.5 83 -60.5s34.5 -62.833 34.5 -107.5c0 -38.667 -9.33301 -73.5 -28 -104.5s-47.334 -55.667 -86.001 -74s-86.667 -27.5 -144 -27.5
c-59.333 0 -111.5 9.33301 -156.5 28s-83.167 44.667 -114.5 78zM148.001 867.002h66l78 -97l74 97h67l-93 -144h-96z" />
    <glyph glyph-name="scaron" unicode="&#x161;" horiz-adv-x="472" 
d="M74 139c18 -18.667 42.3301 -34.6631 72.9971 -47.9961s61 -20 91 -20c30.667 0 54.167 5.16699 70.5 15.5s24.5 24.833 24.5 43.5c0 19.333 -9.33301 33.833 -28 43.5s-46 18.5 -82 26.5c-38 8 -69.167 16.5 -93.5 25.5s-45.166 23.333 -62.499 43s-26 46.167 -26 79.5
c0 26.667 7.5 51.167 22.5 73.5s36.833 40.166 65.5 53.499s62.667 20 102 20c74 0 136.667 -22.667 188 -68l-44 -74c-15.333 17.333 -35.666 31.333 -60.999 42s-52.666 16 -81.999 16c-28 0 -50 -4.83301 -66 -14.5s-24 -22.834 -24 -39.501s8.66699 -29.334 26 -38.001
s43.666 -17 78.999 -25c38 -8 69.667 -16.833 95 -26.5s47 -24.834 65 -45.501s27 -48.667 27 -84c0 -44 -17.667 -80 -53 -108s-84.666 -42 -147.999 -42c-41.333 0 -80 6.5 -116 19.5s-66.333 31.5 -91 55.5zM86.9971 700.004h66l78 -97l74 97h67l-93 -144h-96z" />
    <glyph glyph-name="uni0162" unicode="&#x162;" horiz-adv-x="577" 
d="M230 564h-202v103h521v-103h-202v-564h-117v564zM235 -250c14 8.66699 27 20.998 39 36.998s19.333 31 22 45c-2.66699 -1.33301 -7.33398 -2 -14.001 -2c-13.333 0 -24.666 4.83301 -33.999 14.5s-14 21.834 -14 36.501c0 15.333 5.33301 28.5 16 39.5
s23.667 16.5 39 16.5c17.333 0 32.166 -6.66699 44.499 -20s18.5 -31.666 18.5 -54.999c0 -28 -7.16699 -54.667 -21.5 -80s-33.166 -46.333 -56.499 -63z" />
    <glyph glyph-name="uni0163" unicode="&#x163;" horiz-adv-x="319" 
d="M120.5 20c-21 21.333 -31.5 51.999 -31.5 91.999v279h-80v92h80v132h105v-132h98v-92h-98v-253c0 -17.333 4 -31.166 12 -41.499s19.333 -15.5 34 -15.5c9.33301 0 18.5 1.66699 27.5 5s15.5 7.33301 19.5 12l25 -79c-22 -20.667 -55 -31 -99 -31
c-40.667 0 -71.5 10.667 -92.5 32zM107 -250.001c14 8.66699 27 20.998 39 36.998s19.333 31 22 45c-2.66699 -1.33301 -7.33398 -2 -14.001 -2c-13.333 0 -24.666 4.83301 -33.999 14.5s-14 21.834 -14 36.501c0 15.333 5.33301 28.5 16 39.5s23.667 16.5 39 16.5
c17.333 0 32.166 -6.66699 44.499 -20s18.5 -31.666 18.5 -54.999c0 -28 -7.16699 -54.667 -21.5 -80s-33.166 -46.333 -56.499 -63z" />
    <glyph glyph-name="Tcaron" unicode="&#x164;" horiz-adv-x="577" 
d="M230 564h-202v103h521v-103h-202v-564h-117v564zM145 867h66l78 -97l74 97h67l-93 -144h-96z" />
    <glyph glyph-name="tcaron" unicode="&#x165;" horiz-adv-x="351" 
d="M120.5 20c-21 21.333 -31.5 51.999 -31.5 91.999v279h-80v92h80v132h105v-132h98v-92h-98v-253c0 -17.333 4 -31.166 12 -41.499s19.333 -15.5 34 -15.5c9.33301 0 18.5 1.66699 27.5 5s15.5 7.33301 19.5 12l25 -79c-22 -20.667 -55 -31 -99 -31
c-40.667 0 -71.5 10.667 -92.5 32zM252 567.999c14 8.66699 27 20.998 39 36.998s19.333 31 22 45c-2.66699 -1.33301 -7.33398 -2 -14.001 -2c-13.333 0 -24.666 4.83301 -33.999 14.5s-14 21.834 -14 36.501c0 15.333 5.33301 28.5 16 39.5s23.667 16.5 39 16.5
c17.333 0 32.166 -6.66699 44.499 -20s18.5 -31.666 18.5 -54.999c0 -28 -7.16699 -54.667 -21.5 -80s-33.166 -46.333 -56.499 -63z" />
    <glyph glyph-name="Tbar" unicode="&#x166;" horiz-adv-x="577" 
d="M347 564v-226h141v-62h-141v-276h-117v276h-141v62h141v226h-202v103h521v-103h-202z" />
    <glyph glyph-name="tbar" unicode="&#x167;" horiz-adv-x="319" 
d="M312 19c-22 -20.667 -55 -31.001 -99 -31.001c-40.667 0 -71.5 10.667 -92.5 32s-31.5 52 -31.5 92v104h-80v62h80v113h-80v92h80v132h105v-132h98v-92h-98v-113h69v-62h-69v-78c0 -17.333 4 -31.166 12 -41.499s19.333 -15.5 34 -15.5c9.33301 0 18.5 1.66699 27.5 5
s15.5 7.33301 19.5 12z" />
    <glyph glyph-name="Utilde" unicode="&#x168;" horiz-adv-x="719" 
d="M71 667l117.999 -0.000976562v-400c0 -54 14.833 -96.667 44.5 -128s71.834 -47 126.501 -47s96.667 15.667 126 47s44 74 44 128v400h118v-403c0 -85.333 -24.5 -152.666 -73.5 -201.999s-120.5 -74 -214.5 -74c-94.667 0 -166.5 24.667 -215.5 74
s-73.5 116.333 -73.5 201v404zM320.499 790.999c-6.33301 5.33301 -13.5 8 -21.5 8c-12 0 -22 -6 -30 -18s-12 -30 -12 -54h-57c0 41.333 8.83301 74 26.5 98s43.167 36 76.5 36c17.333 0 31.333 -4 42 -12s21.667 -19.333 33 -34c9.33301 -11.333 17 -19.5 23 -24.5
s13 -7.5 21 -7.5c12 0 21.833 6 29.5 18s11.5 30 11.5 54h58c0 -41.333 -8.83301 -74 -26.5 -98s-43.167 -36 -76.5 -36c-17.333 0 -31.5 4 -42.5 12s-22.167 19.333 -33.5 34c-8 10.667 -15.167 18.667 -21.5 24z" />
    <glyph glyph-name="utilde" unicode="&#x169;" 
d="M394 64c-19.333 -22 -43.833 -40.167 -73.5 -54.5s-62.167 -21.5 -97.5 -21.5c-51.333 0 -90 13 -116 39s-39 64 -39 114v342h105v-304c0 -35.333 8.33301 -60.5 25 -75.5s40.667 -22.5 72 -22.5c25.333 0 49 6 71 18s39.667 27 53 45v339h105v-483h-105v64zM243.5 624
c-6.33301 5.33301 -13.5 8 -21.5 8c-12 0 -22 -6 -30 -18s-12 -30 -12 -54h-57c0 41.333 8.83301 74 26.5 98s43.167 36 76.5 36c17.333 0 31.333 -4 42 -12s21.667 -19.333 33 -34c9.33301 -11.333 17 -19.5 23 -24.5s13 -7.5 21 -7.5c12 0 21.833 6 29.5 18
s11.5 30 11.5 54h58c0 -41.333 -8.83301 -74 -26.5 -98s-43.167 -36 -76.5 -36c-17.333 0 -31.5 4 -42.5 12s-22.167 19.333 -33.5 34c-8 10.667 -15.167 18.667 -21.5 24z" />
    <glyph glyph-name="Umacron" unicode="&#x16a;" horiz-adv-x="719" 
d="M71 667l117.999 -0.000976562v-400c0 -54 14.833 -96.667 44.5 -128s71.834 -47 126.501 -47s96.667 15.667 126 47s44 74 44 128v400h118v-403c0 -85.333 -24.5 -152.666 -73.5 -201.999s-120.5 -74 -214.5 -74c-94.667 0 -166.5 24.667 -215.5 74
s-73.5 116.333 -73.5 201v404zM197.999 794.999h323v-62h-323v62z" />
    <glyph glyph-name="umacron" unicode="&#x16b;" 
d="M394 64c-19.333 -22 -43.833 -40.167 -73.5 -54.5s-62.167 -21.5 -97.5 -21.5c-51.333 0 -90 13 -116 39s-39 64 -39 114v342h105v-304c0 -35.333 8.33301 -60.5 25 -75.5s40.667 -22.5 72 -22.5c25.333 0 49 6 71 18s39.667 27 53 45v339h105v-483h-105v64zM121 628h323
v-62h-323v62z" />
    <glyph glyph-name="Ubreve" unicode="&#x16c;" horiz-adv-x="719" 
d="M71 667l117.999 -0.000976562v-400c0 -54 14.833 -96.667 44.5 -128s71.834 -47 126.501 -47s96.667 15.667 126 47s44 74 44 128v400h118v-403c0 -85.333 -24.5 -152.666 -73.5 -201.999s-120.5 -74 -214.5 -74c-94.667 0 -166.5 24.667 -215.5 74
s-73.5 116.333 -73.5 201v404zM260.999 744.499c-30.667 15.667 -56.334 37.167 -77.001 64.5l48 40c14.667 -20.667 33 -36.834 55 -48.501s46.333 -17.5 73 -17.5c26 0 50 5.83301 72 17.5s40.333 27.834 55 48.501l48 -40c-20.667 -27.333 -46.167 -48.833 -76.5 -64.5
s-63.166 -23.5 -98.499 -23.5s-68.333 7.83301 -99 23.5z" />
    <glyph glyph-name="ubreve" unicode="&#x16d;" 
d="M394 64c-19.333 -22 -43.833 -40.167 -73.5 -54.5s-62.167 -21.5 -97.5 -21.5c-51.333 0 -90 13 -116 39s-39 64 -39 114v342h105v-304c0 -35.333 8.33301 -60.5 25 -75.5s40.667 -22.5 72 -22.5c25.333 0 49 6 71 18s39.667 27 53 45v339h105v-483h-105v64zM184 577.5
c-30.667 15.667 -56.334 37.167 -77.001 64.5l48 40c14.667 -20.667 33 -36.834 55 -48.501s46.333 -17.5 73 -17.5c26 0 50 5.83301 72 17.5s40.333 27.834 55 48.501l48 -40c-20.667 -27.333 -46.167 -48.833 -76.5 -64.5s-63.166 -23.5 -98.499 -23.5
s-68.333 7.83301 -99 23.5z" />
    <glyph glyph-name="Uring" unicode="&#x16e;" horiz-adv-x="719" 
d="M71 667l117.999 -0.000976562v-400c0 -54 14.833 -96.667 44.5 -128s71.834 -47 126.501 -47s96.667 15.667 126 47s44 74 44 128v400h118v-403c0 -85.333 -24.5 -152.666 -73.5 -201.999s-120.5 -74 -214.5 -74c-94.667 0 -166.5 24.667 -215.5 74
s-73.5 116.333 -73.5 201v404zM288.999 877.499c20 20.333 44 30.5 72 30.5s51.833 -10.167 71.5 -30.5s29.5 -44.5 29.5 -72.5s-9.83301 -52 -29.5 -72s-43.5 -30 -71.5 -30s-52 10 -72 30s-30 44 -30 72s10 52.167 30 72.5zM397.499 841.999
c-9.66699 10 -21.833 15 -36.5 15c-14 0 -26.167 -5 -36.5 -15s-15.5 -22.333 -15.5 -37c0 -14 5.16699 -26.167 15.5 -36.5s22.5 -15.5 36.5 -15.5s26 5.16699 36 15.5s15 22.5 15 36.5c0 14.667 -4.83301 27 -14.5 37z" />
    <glyph glyph-name="uring" unicode="&#x16f;" 
d="M394 64c-19.333 -22 -43.833 -40.167 -73.5 -54.5s-62.167 -21.5 -97.5 -21.5c-51.333 0 -90 13 -116 39s-39 64 -39 114v342h105v-304c0 -35.333 8.33301 -60.5 25 -75.5s40.667 -22.5 72 -22.5c25.333 0 49 6 71 18s39.667 27 53 45v339h105v-483h-105v64zM212 710.5
c20 20.333 44 30.5 72 30.5s51.833 -10.167 71.5 -30.5s29.5 -44.5 29.5 -72.5s-9.83301 -52 -29.5 -72s-43.5 -30 -71.5 -30s-52 10 -72 30s-30 44 -30 72s10 52.167 30 72.5zM320.5 675c-9.66699 10 -21.833 15 -36.5 15c-14 0 -26.167 -5 -36.5 -15
s-15.5 -22.333 -15.5 -37c0 -14 5.16699 -26.167 15.5 -36.5s22.5 -15.5 36.5 -15.5s26 5.16699 36 15.5s15 22.5 15 36.5c0 14.667 -4.83301 27 -14.5 37z" />
    <glyph glyph-name="Uhungarumlaut" unicode="&#x170;" horiz-adv-x="719" 
d="M71 667l117.999 -0.000976562v-400c0 -54 14.833 -96.667 44.5 -128s71.834 -47 126.501 -47s96.667 15.667 126 47s44 74 44 128v400h118v-403c0 -85.333 -24.5 -152.666 -73.5 -201.999s-120.5 -74 -214.5 -74c-94.667 0 -166.5 24.667 -215.5 74
s-73.5 116.333 -73.5 201v404zM251.999 722.999l90 144h88l-115 -144h-63zM397.999 722.999l90 144h88l-115 -144h-63z" />
    <glyph glyph-name="uhungarumlaut" unicode="&#x171;" 
d="M394 64c-19.333 -22 -43.833 -40.167 -73.5 -54.5s-62.167 -21.5 -97.5 -21.5c-51.333 0 -90 13 -116 39s-39 64 -39 114v342h105v-304c0 -35.333 8.33301 -60.5 25 -75.5s40.667 -22.5 72 -22.5c25.333 0 49 6 71 18s39.667 27 53 45v339h105v-483h-105v64zM175 556
l90 144h88l-115 -144h-63zM321 556l90 144h88l-115 -144h-63z" />
    <glyph glyph-name="Uogonek" unicode="&#x172;" horiz-adv-x="719" 
d="M71 667h117.999v-400c0 -54 14.833 -96.667 44.5 -128s71.834 -47 126.501 -47s96.667 15.667 126 47s44 74 44 128v400h118v-403c0 -66.667 -14.5 -122.167 -43.5 -166.5s-71.167 -75.166 -126.5 -92.499c-34 -10.667 -60 -23.834 -78 -39.501s-27 -32.167 -27 -49.5
c0 -9.33301 3.5 -16.833 10.5 -22.5s15.167 -8.5 24.5 -8.5c10.667 0 20.667 2.33301 30 7l24 -61c-18.667 -11.333 -45.334 -17 -80.001 -17c-29.333 0 -54.333 6.66699 -75 20s-31 32.333 -31 57c0 19.333 7.83301 37.5 23.5 54.5s36.834 31.167 63.501 42.5h-3
c-94.667 0 -166.5 24.667 -215.5 74s-73.5 116.333 -73.5 201v404z" />
    <glyph glyph-name="uogonek" unicode="&#x173;" 
d="M410 -84c0 -9.33301 3.50098 -16.833 10.501 -22.5s15.167 -8.5 24.5 -8.5c10.667 0 20.667 2.33301 30 7l24 -61c-18.667 -11.333 -45.334 -17 -80.001 -17c-29.333 0 -54.333 6.66699 -75 20s-31 32.333 -31 57c0 22 9.83301 42.333 29.5 61s45.5 34.667 77.5 48h-26
v64c-19.333 -22 -43.833 -40.167 -73.5 -54.5s-62.167 -21.5 -97.5 -21.5c-51.333 0 -90 13 -116 39s-39 64 -39 114v342h105v-304c0 -35.333 8.33301 -60.5 25 -75.5s40.667 -22.5 72 -22.5c25.333 0 49 6 71 18s39.667 27 53 45v339h105v-483
c-59.333 -22.667 -89 -50.667 -89 -84z" />
    <glyph glyph-name="Wcircumflex" unicode="&#x174;" horiz-adv-x="903" 
d="M451 492l-129 -492h-125l-191 667h131l130 -514l138 514h93l138 -514l129 514h131l-190 -667h-125zM451 819l-75 -96h-66l93 144h96l96 -144h-67z" />
    <glyph glyph-name="wcircumflex" unicode="&#x175;" horiz-adv-x="754" 
d="M377 354l-112 -354h-110l-150 483h109l102 -351l115 351h92l115 -351l102 351h109l-150 -483h-110zM377 652l-75 -96h-66l93 144h96l96 -144h-67z" />
    <glyph glyph-name="Ycircumflex" unicode="&#x176;" horiz-adv-x="637" 
d="M260 277l-259 390h134l184 -286l182 286h134l-258 -390v-277h-117v277zM318 819l-75 -96h-66l93 144h96l96 -144h-67z" />
    <glyph glyph-name="ycircumflex" unicode="&#x177;" 
d="M111 -48c17.333 -20.667 38.832 -36.168 64.499 -46.501s52.834 -15.5 81.501 -15.5c43.333 0 77 11.667 101 35s36 56.333 36 99v56c-19.333 -22 -43.833 -40.167 -73.5 -54.5s-62.167 -21.5 -97.5 -21.5c-51.333 0 -90 13 -116 39s-39 64 -39 114v326h105v-288
c0 -35.333 8.33301 -60.5 25 -75.5s40.667 -22.5 72 -22.5c25.333 0 49 6 71 18s39.667 27 53 45v323h105v-459c0 -70 -22.333 -124.167 -67 -162.5s-103 -57.5 -175 -57.5c-40.667 0 -76.667 5.83301 -108 17.5s-60.333 29.834 -87 54.501zM283.999 651.999l-75 -96h-66
l93 144h96l96 -144h-67z" />
    <glyph glyph-name="Ydieresis" unicode="&#x178;" horiz-adv-x="637" 
d="M260 277l-259 390h134l184 -286l182 286h134l-258 -390v-277h-117v277zM172 748c-11.333 11.333 -17 25.333 -17 42c0 16 5.66699 29.667 17 41s25.333 17 42 17c16 0 29.667 -5.66699 41 -17s17 -25 17 -41c0 -16.667 -5.66699 -30.667 -17 -42s-25 -17 -41 -17
c-16.667 0 -30.667 5.66699 -42 17zM381.5 748c-11.667 11.333 -17.5 25.333 -17.5 42c0 16 5.83301 29.667 17.5 41s25.5 17 41.5 17s29.833 -5.66699 41.5 -17s17.5 -25 17.5 -41c0 -16.667 -5.83301 -30.667 -17.5 -42s-25.5 -17 -41.5 -17s-29.833 5.66699 -41.5 17z
" />
    <glyph glyph-name="Zacute" unicode="&#x179;" horiz-adv-x="589" 
d="M44 95l341 469h-341v103h493v-95l-341 -469h348v-103h-500v95zM254 723l140 144h100l-165 -144h-75z" />
    <glyph glyph-name="zacute" unicode="&#x17a;" horiz-adv-x="476" 
d="M46 79l239 312h-239v92h379v-77l-241 -315h245v-91h-383v79zM197 556l140 144h100l-165 -144h-75z" />
    <glyph glyph-name="Zdotaccent" unicode="&#x17b;" horiz-adv-x="589" 
d="M44 95l341 469h-341v103h493v-95l-341 -469h348v-103h-500v95zM253.5 830.5c11.667 11.667 25.5 17.5 41.5 17.5s29.667 -5.83301 41 -17.5s17 -25.5 17 -41.5c0 -16.667 -5.66699 -30.667 -17 -42s-25 -17 -41 -17s-29.833 5.66699 -41.5 17s-17.5 25.333 -17.5 42
c0 16 5.83301 29.833 17.5 41.5z" />
    <glyph glyph-name="zdotaccent" unicode="&#x17c;" horiz-adv-x="476" 
d="M46 79l239 312h-239v92h379v-77l-241 -315h245v-91h-383v79zM196.5 663.5c11.667 11.667 25.5 17.5 41.5 17.5s29.667 -5.83301 41 -17.5s17 -25.5 17 -41.5c0 -16.667 -5.66699 -30.667 -17 -42s-25 -17 -41 -17s-29.833 5.66699 -41.5 17s-17.5 25.333 -17.5 42
c0 16 5.83301 29.833 17.5 41.5z" />
    <glyph glyph-name="Zcaron" unicode="&#x17d;" horiz-adv-x="589" 
d="M44 95l341 469h-341v103h493v-95l-341 -469h348v-103h-500v95zM151 867h66l78 -97l74 97h67l-93 -144h-96z" />
    <glyph glyph-name="zcaron" unicode="&#x17e;" horiz-adv-x="476" 
d="M46 79l239 312h-239v92h379v-77l-241 -315h245v-91h-383v79zM94 700h66l78 -97l74 97h67l-93 -144h-96z" />
    <glyph glyph-name="longs" unicode="&#x17f;" horiz-adv-x="308" 
d="M93 391l-80 0.000976562v92h80v27c0 52.667 14 93.667 42 123s65 44 111 44c34 0 62 -6.33301 84 -19l-23 -77c-11.333 6.66699 -25.333 10 -42 10c-20.667 0 -37 -6.83301 -49 -20.5s-18 -33.834 -18 -60.501v-510h-105v391z" />
    <glyph glyph-name="uni018F" unicode="&#x18f;" horiz-adv-x="745" 
d="M531 635c53.333 -28.667 95.5 -69.166 126.5 -121.499s46.5 -112.5 46.5 -180.5s-15 -128.167 -45 -180.5s-70.5 -93 -121.5 -122s-107.167 -43.5 -168.5 -43.5c-69.333 0 -129.5 15.333 -180.5 46s-90 74.667 -117 132s-40.5 125 -40.5 203h551
c-4.66699 40 -17.5 75.667 -38.5 107s-47.833 55.666 -80.5 72.999s-69 26 -109 26c-36 0 -69.167 -8.33301 -99.5 -25s-54.833 -38 -73.5 -64l-96 54c30 42 67.167 75.667 111.5 101s96.833 38 157.5 38c64.667 0 123.667 -14.333 177 -43zM498.5 138.501
c39 31.667 64.833 73.834 77.5 126.501h-417c8.66699 -50.667 30.5 -92.334 65.5 -125.001s79.833 -49 134.5 -49c54 0 100.5 15.833 139.5 47.5z" />
    <glyph glyph-name="uni0192" unicode="&#x192;" horiz-adv-x="444" 
d="M105 245h-59.999v93h80l40 182c10.667 47.333 33.167 85.333 67.5 114s74.5 43 120.5 43s82 -13.333 108 -40l-47 -85c-12.667 14.667 -28.667 22 -48 22c-20.667 0 -38.834 -7 -54.501 -21s-26.167 -33 -31.5 -57l-36 -158h125v-93h-145l-90 -406h-119z" />
    <glyph glyph-name="uni019D" unicode="&#x19d;" horiz-adv-x="720" 
d="M649 667l-0.000976562 -667h-113l-348 486v-459c0 -73.333 -20.667 -128.833 -62 -166.5s-95.666 -56.5 -162.999 -56.5c-19.333 0 -36 1.33301 -50 4l7 104c10.667 -2.66699 22 -4 34 -4c36 0 64.5 11 85.5 33s31.5 51.333 31.5 88v638h120l341 -473v473h117z" />
    <glyph glyph-name="Ohorn" unicode="&#x1a0;" horiz-adv-x="765" 
d="M713.5 592.5c-12.333 -23 -28.833 -42.1699 -49.5 -57.5029c39.333 -58 59 -125.333 59 -202c0 -65.333 -14.5 -124.333 -43.5 -177s-69.333 -93.834 -121 -123.501s-110.5 -44.5 -176.5 -44.5s-124.833 14.833 -176.5 44.5s-92 70.834 -121 123.501
s-43.5 111.667 -43.5 177s14.5 124.333 43.5 177s69.333 93.834 121 123.501s110.5 44.5 176.5 44.5c52 0 99.833 -9.5 143.5 -28.5s80.834 -45.5 111.501 -79.5c11.333 8.66699 21.166 19.334 29.499 32.001s13.5 24.667 15.5 36c-2.66699 -1.33301 -7 -2 -13 -2
c-12.667 0 -23.167 4.5 -31.5 13.5s-12.5 20.167 -12.5 33.5c0 14 4.83301 26 14.5 36s21.5 15 35.5 15c16 0 29.5 -6.16699 40.5 -18.5s16.5 -29.166 16.5 -50.499c0 -25.333 -6.16699 -49.5 -18.5 -72.5zM498 123.497c33.333 21 59.166 49.833 77.499 86.5
s27.5 77.667 27.5 123c0 46 -9.16699 87.333 -27.5 124s-44.166 65.334 -77.499 86.001s-72 31 -116 31s-82.667 -10.333 -116 -31s-59.166 -49.334 -77.499 -86.001s-27.5 -78 -27.5 -124c0 -45.333 9.16699 -86.333 27.5 -123s44.166 -65.5 77.499 -86.5
s72 -31.5 116 -31.5s82.667 10.5 116 31.5z" />
    <glyph glyph-name="ohorn" unicode="&#x1a1;" horiz-adv-x="573" 
d="M524.5 463c-11 -22 -25.835 -40.6699 -44.502 -56.0029c18 -22 31.667 -47.167 41 -75.5s14 -58.166 14 -89.499c0 -46.667 -10.167 -89.334 -30.5 -128.001s-49.333 -69.334 -87 -92.001s-81.5 -34 -131.5 -34c-49.333 0 -92.833 11.333 -130.5 34
s-66.667 53.334 -87 92.001s-30.5 81.334 -30.5 128.001c0 46 10.167 88.333 30.5 127s49.333 69.334 87 92.001s81.167 34 130.5 34c64.667 0 119 -18.667 163 -56c10.667 9.33301 19.834 19.833 27.501 31.5s12.5 23.167 14.5 34.5
c-3.33301 -1.33301 -7.66602 -2 -12.999 -2c-12.667 0 -23.167 4.33301 -31.5 13s-12.5 20 -12.5 34c0 13.333 4.83301 25 14.5 35s21.5 15 35.5 15c16 0 29.5 -6.16699 40.5 -18.5s16.5 -29.166 16.5 -50.499c0 -23.333 -5.5 -46 -16.5 -68zM388.498 127.497
c25 31 37.5 69.167 37.5 114.5c0 44.667 -12.5 82.5 -37.5 113.5s-59.167 46.5 -102.5 46.5c-42.667 0 -76.5 -15.5 -101.5 -46.5s-37.5 -68.833 -37.5 -113.5c0 -45.333 12.5 -83.5 37.5 -114.5s58.833 -46.5 101.5 -46.5c43.333 0 77.5 15.5 102.5 46.5z" />
    <glyph glyph-name="Uhorn" unicode="&#x1af;" horiz-adv-x="719" 
d="M730.5 637.5c-19.667 -28.333 -47.168 -50.1699 -82.501 -65.5029v-308c0 -85.333 -24.5 -152.666 -73.5 -201.999s-120.5 -74 -214.5 -74c-94.667 0 -166.5 24.667 -215.5 74s-73.5 116.333 -73.5 201v404h118v-400c0 -54 14.833 -96.667 44.5 -128
s71.834 -47 126.501 -47s96.667 15.667 126 47s44 74 44 128v400h118v-48c16 9.33301 29.833 21.5 41.5 36.5s18.5 30.167 20.5 45.5c-2.66699 -1.33301 -7 -2 -13 -2c-12.667 0 -23.167 4.33301 -31.5 13s-12.5 20 -12.5 34c0 13.333 4.83301 25 14.5 35s21.5 15 35.5 15
c16 0 29.5 -6.16699 40.5 -18.5s16.5 -29.166 16.5 -50.499c0 -31.333 -9.83301 -61.166 -29.5 -89.499z" />
    <glyph glyph-name="uhorn" unicode="&#x1b0;" 
d="M563 463c-15.333 -25.333 -36.668 -46.334 -64.001 -63.001v-400h-105v64c-19.333 -22 -43.833 -40.167 -73.5 -54.5s-62.167 -21.5 -97.5 -21.5c-51.333 0 -90 13 -116 39s-39 64 -39 114v342h105v-304c0 -35.333 8.33301 -60.5 25 -75.5s40.667 -22.5 72 -22.5
c25.333 0 49 6 71 18s39.667 27 53 45v339h105v-31c22 20.667 34 41.667 36 63c-1.33301 -1.33301 -5.33301 -2 -12 -2c-13.333 0 -24.166 4.33301 -32.499 13s-12.5 20 -12.5 34c0 13.333 4.83301 25 14.5 35s21.5 15 35.5 15c16 0 29.667 -6.16699 41 -18.5
s17 -29.166 17 -50.499c0 -26.667 -7.66699 -52.667 -23 -78z" />
    <glyph glyph-name="Gcaron" unicode="&#x1e6;" horiz-adv-x="745" 
d="M87.5 513.5c31 52.333 73.168 92.834 126.501 121.501s112.333 43 177 43c60.667 0 113.167 -12.667 157.5 -38s81.5 -59 111.5 -101l-96 -54c-18.667 26 -43.167 47.333 -73.5 64s-63.5 25 -99.5 25c-43.333 0 -82.5 -10.333 -117.5 -31s-62.5 -49.334 -82.5 -86.001
s-30 -78 -30 -124s10 -87.333 30 -124s47.5 -65.5 82.5 -86.5s74.167 -31.5 117.5 -31.5c53.333 0 96.666 15.5 129.999 46.5s55 70.167 65 117.5h-236v103h364c0 -74.667 -13.167 -140 -39.5 -196s-64.5 -99.167 -114.5 -129.5s-109.667 -45.5 -179 -45.5
c-61.333 0 -118 14.5 -170 43.5s-93.333 69.667 -124 122s-46 112.5 -46 180.5s15.5 128.167 46.5 180.5zM247.001 867.001h66l78 -97l74 97h67l-93 -144h-96z" />
    <glyph glyph-name="gcaron" unicode="&#x1e7;" horiz-adv-x="580" 
d="M111 -48c18.667 -22 40.502 -37.834 65.502 -47.501s54.167 -14.5 87.5 -14.5c40 0 73.833 10.5 101.5 31.5s41.5 54.167 41.5 99.5v58c-19.333 -24.667 -42.333 -44.167 -69 -58.5s-55.334 -21.5 -86.001 -21.5c-41.333 0 -78.166 9.66699 -110.499 29
s-57.666 47.666 -75.999 84.999s-27.5 82 -27.5 134c0 50.667 9.16699 94.834 27.5 132.501s43.666 66.334 75.999 86.001s69.166 29.5 110.499 29.5c30.667 0 59.334 -6.83301 86.001 -20.5s49.667 -33.167 69 -58.5v67h105v-458c0 -79.333 -23.833 -136 -71.5 -170
s-106.5 -51 -176.5 -51c-42.667 0 -79.834 5.5 -111.501 16.5s-61.834 29.5 -90.501 55.5zM407.002 336.999c-12 18 -29.667 33.333 -53 46s-47 19 -71 19c-41.333 0 -74.333 -14.167 -99 -42.5s-37 -65.833 -37 -112.5s12.333 -84.167 37 -112.5s57.667 -42.5 99 -42.5
c24 0 47.667 6.33301 71 19s41 28 53 46v180zM149.002 699.999h66l78 -97l74 97h67l-93 -144h-96z" />
    <glyph glyph-name="uni01EA" unicode="&#x1ea;" horiz-adv-x="765" 
d="M384 -84c0 -9.33301 3.50098 -16.8311 10.501 -22.498s15.167 -8.5 24.5 -8.5c10.667 0 20.667 2.33301 30 7l24 -61c-18.667 -11.333 -45.334 -17 -80.001 -17c-29.333 0 -54.333 6.66699 -75 20s-31 32.333 -31 57c0 19.333 7.33301 37.166 22 53.499
s34.667 30.833 60 43.5c-63.333 2 -120 18 -170 48s-88.833 71 -116.5 123s-41.5 110 -41.5 174c0 65.333 14.5 124.333 43.5 177s69.333 93.834 121 123.501s110.5 44.5 176.5 44.5s124.833 -14.833 176.5 -44.5s92 -70.834 121 -123.501s43.5 -111.667 43.5 -177
c0 -56 -10.667 -107.333 -32 -154s-51.5 -85.834 -90.5 -117.501s-84.167 -53.167 -135.5 -64.5c-54 -21.333 -81 -48.333 -81 -81zM188.501 210.002c18.333 -36.667 44.166 -65.5 77.499 -86.5s72 -31.5 116 -31.5s82.667 10.5 116 31.5s59.166 49.833 77.499 86.5
s27.5 77.667 27.5 123c0 46 -9.16699 87.333 -27.5 124s-44.166 65.334 -77.499 86.001s-72 31 -116 31s-82.667 -10.333 -116 -31s-59.166 -49.334 -77.499 -86.001s-27.5 -78 -27.5 -124c0 -45.333 9.16699 -86.333 27.5 -123z" />
    <glyph glyph-name="uni01EB" unicode="&#x1eb;" horiz-adv-x="573" 
d="M276 -84c0 -9.33301 3.50098 -16.832 10.501 -22.499s15.167 -8.5 24.5 -8.5c10.667 0 20.667 2.33301 30 7l24 -61c-18.667 -11.333 -45.334 -17 -80.001 -17c-29.333 0 -54.333 6.66699 -75 20s-31 32.333 -31 57c0 36 28 68.667 84 98
c-45.333 3.33301 -85 16.666 -119 39.999s-60.167 53.666 -78.5 90.999s-27.5 78 -27.5 122c0 46 10.167 88.333 30.5 127s49.333 69.334 87 92.001s81.167 34 130.5 34c50 0 93.833 -11.333 131.5 -34s66.667 -53.167 87 -91.5s30.5 -80.833 30.5 -127.5
c0 -59.333 -15.833 -111.5 -47.5 -156.5s-75.167 -74.5 -130.5 -88.5c-54 -22 -81 -49 -81 -81zM184.501 127.501c25 -31 58.833 -46.5 101.5 -46.5c43.333 0 77.5 15.5 102.5 46.5s37.5 69.167 37.5 114.5c0 44.667 -12.5 82.5 -37.5 113.5s-59.167 46.5 -102.5 46.5
c-42.667 0 -76.5 -15.5 -101.5 -46.5s-37.5 -68.833 -37.5 -113.5c0 -45.333 12.5 -83.5 37.5 -114.5z" />
    <glyph glyph-name="Aringacute" unicode="&#x1fa;" horiz-adv-x="673" 
d="M494 128h-316l-49 -128h-128l262 667h146l262 -667h-128zM211 231h250l-125 337zM265 877.5c20 20.333 44 30.5 72 30.5s51.833 -10.167 71.5 -30.5s29.5 -44.5 29.5 -72.5s-9.83301 -52 -29.5 -72s-43.5 -30 -71.5 -30s-52 10 -72 30s-30 44 -30 72s10 52.167 30 72.5z
M373.5 842c-9.66699 10 -21.833 15 -36.5 15c-14 0 -26.167 -5 -36.5 -15s-15.5 -22.333 -15.5 -37c0 -14 5.16699 -26.167 15.5 -36.5s22.5 -15.5 36.5 -15.5s26 5.16699 36 15.5s15 22.5 15 36.5c0 14.667 -4.83301 27 -14.5 37zM295.001 935l140 144h100l-165 -144h-75z
" />
    <glyph glyph-name="aringacute" unicode="&#x1fb;" horiz-adv-x="581" 
d="M408 66c-18.667 -24.667 -41.5 -43.832 -68.5 -57.499s-55.833 -20.5 -86.5 -20.5c-41.333 0 -78.333 10.167 -111 30.5s-58.167 49.5 -76.5 87.5s-27.5 83 -27.5 135c0 51.333 9.16699 96.166 27.5 134.499s43.833 67.833 76.5 88.5s69.667 31 111 31
c30 0 58.667 -6.83301 86 -20.5s50.333 -33.167 69 -58.5v67h105v-483h-105v66zM408 336.002c-12 18.667 -29.667 34.167 -53 46.5s-47.333 18.5 -72 18.5c-41.333 0 -74.333 -14.833 -99 -44.5s-37 -68.167 -37 -115.5s12.333 -85.833 37 -115.5s57.667 -44.5 99 -44.5
c24.667 0 48.667 6 72 18s41 27.333 53 46v191zM222 710.502c20 20.333 44 30.5 72 30.5s51.833 -10.167 71.5 -30.5s29.5 -44.5 29.5 -72.5s-9.83301 -52 -29.5 -72s-43.5 -30 -71.5 -30s-52 10 -72 30s-30 44 -30 72s10 52.167 30 72.5zM330.5 675.002
c-9.66699 10 -21.833 15 -36.5 15c-14 0 -26.167 -5 -36.5 -15s-15.5 -22.333 -15.5 -37c0 -14 5.16699 -26.167 15.5 -36.5s22.5 -15.5 36.5 -15.5s26 5.16699 36 15.5s15 22.5 15 36.5c0 14.667 -4.83301 27 -14.5 37zM252.001 768.002l140 144h100l-165 -144h-75z" />
    <glyph glyph-name="AEacute" unicode="&#x1fc;" horiz-adv-x="959" 
d="M455 128h-252l-77 -128h-128l410 667h504v-103h-340v-173h333v-103h-333v-185h340v-103h-457v128zM259 231h196v338zM471 723l140 144h100l-165 -144h-75z" />
    <glyph glyph-name="aeacute" unicode="&#x1fd;" horiz-adv-x="922" 
d="M408 0l-0.00195312 66.0039c-18.667 -24.667 -41.5 -43.834 -68.5 -57.501s-55.833 -20.5 -86.5 -20.5c-41.333 0 -78.333 10.167 -111 30.5s-58.167 49.5 -76.5 87.5s-27.5 83 -27.5 135c0 51.333 9.16699 96.166 27.5 134.499s43.833 67.833 76.5 88.5
s69.667 31 111 31c30 0 58.5 -6.83301 85.5 -20.5s49.833 -33.167 68.5 -58.5v67h106v-83c17.333 29.333 39.833 52.5 67.5 69.5s59.834 25.5 96.501 25.5c42 0 78.833 -11.333 110.5 -34s56 -53.834 73 -93.501s25.5 -84.834 25.5 -135.501v-25h-373
c4 -38 19.5 -69.333 46.5 -94s62.5 -37 106.5 -37c24.667 0 49.5 4.66699 74.5 14s46.167 22.333 63.5 39l47 -71c-20 -20.667 -44.5 -37.5 -73.5 -50.5s-59.833 -19.5 -92.5 -19.5c-41.333 0 -76.166 8.66699 -104.499 26s-50.833 40 -67.5 68v-82h-105zM550.998 370.004
c-23.333 -26 -36.001 -55.667 -38.001 -89h272c-2 33.333 -14.5 63 -37.5 89s-56.167 39 -99.5 39c-41.333 0 -73.666 -13 -96.999 -39zM407.997 336.004c-12 18.667 -29.667 34.167 -53 46.5s-47.333 18.5 -72 18.5c-41.333 0 -74.333 -14.833 -99 -44.5
s-37 -68.167 -37 -115.5s12.333 -85.833 37 -115.5s57.667 -44.5 99 -44.5c24.667 0 48.667 6 72 18s41 27.333 53 46v191zM420.997 556.004l140 144h100l-165 -144h-75z" />
    <glyph glyph-name="Oslashacute" unicode="&#x1fe;" horiz-adv-x="765" 
d="M397 723h-75l140 144h100zM693.5 482c19.667 -45.333 29.499 -95.001 29.499 -149.001c0 -65.333 -14.5 -124.333 -43.5 -177s-69.333 -93.834 -121 -123.501s-110.5 -44.5 -176.5 -44.5c-65.333 0 -125 15.333 -179 46l-25 -34h-87l55 76
c-33.333 31.333 -59.166 69 -77.499 113s-27.5 92 -27.5 144c0 65.333 14.5 124.333 43.5 177s69.333 93.834 121 123.501s110.5 44.5 176.5 44.5c62 0 118.667 -13.667 170 -41l22 30h87l-51 -70c36 -31.333 63.833 -69.666 83.5 -114.999zM174.499 243.499
c9 -27.667 22.166 -52.166 39.499 -73.499l274 378c-30.667 17.333 -66 26 -106 26c-44 0 -82.667 -10.333 -116 -31s-59.166 -49.334 -77.499 -86.001s-27.5 -78 -27.5 -124c0 -32 4.5 -61.833 13.5 -89.5zM497.998 123.5c33.333 21 59.167 49.833 77.5 86.5
s27.5 77.667 27.5 123c0 34 -5.16699 65.667 -15.5 95s-25.166 55 -44.499 77l-276 -382c33.333 -20.667 71.666 -31 114.999 -31c44 0 82.667 10.5 116 31.5z" />
    <glyph glyph-name="oslashacute" unicode="&#x1ff;" horiz-adv-x="573" 
d="M517.5 341.5c11.667 -31 17.5 -64.168 17.5 -99.501c0 -46.667 -10.167 -89.334 -30.5 -128.001s-49.333 -69.334 -87 -92.001s-81.5 -34 -131.5 -34c-56 0 -103.667 14 -143 42l-25 -30h-68l53 64c-20.667 22.667 -36.667 49.334 -48 80.001s-17 63.334 -17 98.001
c0 46 10.167 88.333 30.5 127s49.333 69.334 87 92.001s81.167 34 130.5 34c54 0 100.667 -13 140 -39l22 27h69l-50 -61c22 -22.667 38.833 -49.5 50.5 -80.5zM171 146.999l192 232c-21.333 15.333 -47 23 -77 23c-42.667 0 -76.5 -15.5 -101.5 -46.5
s-37.5 -68.833 -37.5 -113.5c0 -36 8 -67.667 24 -95zM388.5 127.499c25 31 37.499 69.167 37.499 114.5c0 38 -9 71 -27 99l-193 -234c22.667 -17.333 49.334 -26 80.001 -26c43.333 0 77.5 15.5 102.5 46.5zM244.999 555.999l140 144h100l-165 -144h-75z" />
    <glyph glyph-name="uni0218" unicode="&#x218;" horiz-adv-x="594" 
d="M93 184c25.333 -27.333 56.001 -49.498 92.001 -66.498s75.667 -25.5 119 -25.5c44.667 0 78.167 9 100.5 27s33.5 39.333 33.5 64c0 18.667 -6.5 34 -19.5 46s-29.5 21.5 -49.5 28.5s-47.667 15.167 -83 24.5c-50 12 -90.667 24.333 -122 37s-58.333 32.167 -81 58.5
s-34 61.166 -34 104.499c0 36.667 10.167 69.834 30.5 99.501s49 53 86 70s79.167 25.5 126.5 25.5c102.667 0 186 -31 250 -93l-67 -87c-25.333 25.333 -54.833 44.333 -88.5 57s-68.5 19 -104.5 19c-34.667 0 -62.167 -7.5 -82.5 -22.5s-30.5 -35.167 -30.5 -60.5
c0 -16 6.33301 -29.333 19 -40s28.5 -19.334 47.5 -26.001s45.833 -14.334 80.5 -23.001c50 -12.667 91.167 -25.667 123.5 -39s60 -33.5 83 -60.5s34.5 -62.833 34.5 -107.5c0 -38.667 -9.33301 -73.5 -28 -104.5s-47.334 -55.667 -86.001 -74s-86.667 -27.5 -144 -27.5
c-59.333 0 -111.5 9.33301 -156.5 28s-83.167 44.667 -114.5 78zM238.001 -249.998c14 8.66699 27 20.998 39 36.998s19.333 31 22 45c-2.66699 -1.33301 -7.33398 -2 -14.001 -2c-13.333 0 -24.666 4.83301 -33.999 14.5s-14 21.834 -14 36.501
c0 15.333 5.33301 28.5 16 39.5s23.667 16.5 39 16.5c17.333 0 32.166 -6.66699 44.499 -20s18.5 -31.666 18.5 -54.999c0 -28 -7.16699 -54.667 -21.5 -80s-33.166 -46.333 -56.499 -63z" />
    <glyph glyph-name="uni0219" unicode="&#x219;" horiz-adv-x="472" 
d="M74 139c18 -18.667 42.3301 -34.6631 72.9971 -47.9961s61 -20 91 -20c30.667 0 54.167 5.16699 70.5 15.5s24.5 24.833 24.5 43.5c0 19.333 -9.33301 33.833 -28 43.5s-46 18.5 -82 26.5c-38 8 -69.167 16.5 -93.5 25.5s-45.166 23.333 -62.499 43s-26 46.167 -26 79.5
c0 26.667 7.5 51.167 22.5 73.5s36.833 40.166 65.5 53.499s62.667 20 102 20c74 0 136.667 -22.667 188 -68l-44 -74c-15.333 17.333 -35.666 31.333 -60.999 42s-52.666 16 -81.999 16c-28 0 -50 -4.83301 -66 -14.5s-24 -22.834 -24 -39.501s8.66699 -29.334 26 -38.001
s43.666 -17 78.999 -25c38 -8 69.667 -16.833 95 -26.5s47 -24.834 65 -45.501s27 -48.667 27 -84c0 -44 -17.667 -80 -53 -108s-84.666 -42 -147.999 -42c-41.333 0 -80 6.5 -116 19.5s-66.333 31.5 -91 55.5zM176.997 -249.996c14 8.66699 27 20.998 39 36.998
s19.333 31 22 45c-2.66699 -1.33301 -7.33398 -2 -14.001 -2c-13.333 0 -24.666 4.83301 -33.999 14.5s-14 21.834 -14 36.501c0 15.333 5.33301 28.5 16 39.5s23.667 16.5 39 16.5c17.333 0 32.166 -6.66699 44.499 -20s18.5 -31.666 18.5 -54.999
c0 -28 -7.16699 -54.667 -21.5 -80s-33.166 -46.333 -56.499 -63z" />
    <glyph glyph-name="uni021A" unicode="&#x21a;" horiz-adv-x="577" 
d="M230 564h-202v103h521v-103h-202v-564h-117v564zM235 -250c14 8.66699 27 20.998 39 36.998s19.333 31 22 45c-2.66699 -1.33301 -7.33398 -2 -14.001 -2c-13.333 0 -24.666 4.83301 -33.999 14.5s-14 21.834 -14 36.501c0 15.333 5.33301 28.5 16 39.5
s23.667 16.5 39 16.5c17.333 0 32.166 -6.66699 44.499 -20s18.5 -31.666 18.5 -54.999c0 -28 -7.16699 -54.667 -21.5 -80s-33.166 -46.333 -56.499 -63z" />
    <glyph glyph-name="uni021B" unicode="&#x21b;" horiz-adv-x="319" 
d="M120.5 20c-21 21.333 -31.5 51.999 -31.5 91.999v279h-80v92h80v132h105v-132h98v-92h-98v-253c0 -17.333 4 -31.166 12 -41.499s19.333 -15.5 34 -15.5c9.33301 0 18.5 1.66699 27.5 5s15.5 7.33301 19.5 12l25 -79c-22 -20.667 -55 -31 -99 -31
c-40.667 0 -71.5 10.667 -92.5 32zM107 -250.001c14 8.66699 27 20.998 39 36.998s19.333 31 22 45c-2.66699 -1.33301 -7.33398 -2 -14.001 -2c-13.333 0 -24.666 4.83301 -33.999 14.5s-14 21.834 -14 36.501c0 15.333 5.33301 28.5 16 39.5s23.667 16.5 39 16.5
c17.333 0 32.166 -6.66699 44.499 -20s18.5 -31.666 18.5 -54.999c0 -28 -7.16699 -54.667 -21.5 -80s-33.166 -46.333 -56.499 -63z" />
    <glyph glyph-name="uni0232" unicode="&#x232;" horiz-adv-x="637" 
d="M260 277l-259 390h134l184 -286l182 286h134l-258 -390v-277h-117v277zM156 795h323v-62h-323v62z" />
    <glyph glyph-name="uni0233" unicode="&#x233;" 
d="M111 -48c17.333 -20.667 38.832 -36.168 64.499 -46.501s52.834 -15.5 81.501 -15.5c43.333 0 77 11.667 101 35s36 56.333 36 99v56c-19.333 -22 -43.833 -40.167 -73.5 -54.5s-62.167 -21.5 -97.5 -21.5c-51.333 0 -90 13 -116 39s-39 64 -39 114v326h105v-288
c0 -35.333 8.33301 -60.5 25 -75.5s40.667 -22.5 72 -22.5c25.333 0 49 6 71 18s39.667 27 53 45v323h105v-459c0 -70 -22.333 -124.167 -67 -162.5s-103 -57.5 -175 -57.5c-40.667 0 -76.667 5.83301 -108 17.5s-60.333 29.834 -87 54.501zM121.999 627.999h323v-62h-323
v62z" />
    <glyph glyph-name="uni0237" unicode="&#x237;" horiz-adv-x="241" 
d="M-30 -104c8 -2 18 -2.99902 30 -2.99902c20.667 0 37.167 6.33301 49.5 19s18.5 32.667 18.5 60v511h105v-511c0 -52.667 -13.667 -93.834 -41 -123.501s-67 -44.5 -119 -44.5c-19.333 0 -37.333 1.66699 -54 5z" />
    <glyph glyph-name="uni0259" unicode="&#x259;" horiz-adv-x="557" 
d="M487.5 113.5c-21 -38.333 -50.167 -68.835 -87.5 -91.502s-79.333 -34 -126 -34c-47.333 0 -89 11.333 -125 34s-63.833 53.834 -83.5 93.501s-29.5 84.834 -29.5 135.501v25h373c-4 38 -19.667 69.667 -47 95s-63 38 -107 38c-24.667 0 -49.5 -4.66699 -74.5 -14
s-45.833 -22.333 -62.5 -39l-48 69c24 22.667 53 40 87 52s70.333 18 109 18c48 0 91.167 -10.5 129.5 -31.5s68.5 -50.833 90.5 -89.5s33 -83 33 -133c0 -46.667 -10.5 -89.167 -31.5 -127.5zM371 112.498c23.333 25.667 36.334 55.502 39.001 89.502h-272
c0.666992 -20.667 6 -40.834 16 -60.501s25 -35.834 45 -48.501s45 -19 75 -19c41.333 0 73.666 12.833 96.999 38.5z" />
    <glyph glyph-name="uni0272" unicode="&#x272;" 
d="M459.5 455c26.333 -26.667 39.501 -64.998 39.501 -114.998v-340h-105v302c0 36 -8.33301 61.667 -25 77s-40.667 23 -72 23c-25.333 0 -49 -6.33301 -71 -19s-39.667 -28 -53 -46v-365c0 -52.667 -13.667 -93.834 -41 -123.501s-67 -44.5 -119 -44.5
c-19.333 0 -37.333 1.66699 -54 5l11 87c8 -2 18 -3 30 -3c20.667 0 37.167 6.33301 49.5 19s18.5 32.667 18.5 60v511h105v-66c18 21.333 42 39.666 72 54.999s62.667 23 98 23c51.333 0 90.166 -13.333 116.499 -40z" />
    <glyph glyph-name="uni02B0" unicode="&#x2b0;" horiz-adv-x="405" 
d="M273 520c0 22.667 -5.33203 38.834 -15.999 48.501s-26.334 14.5 -47.001 14.5c-16 0 -30.833 -3.83301 -44.5 -11.5s-25.167 -16.834 -34.5 -27.501v-218h-77v434h77v-162c12 14 28 25.833 48 35.5s42 14.5 66 14.5c35.333 0 61.833 -9 79.5 -27s26.5 -44 26.5 -78v-217
h-78v194z" />
    <glyph glyph-name="uni02BC" unicode="&#x2bc;" horiz-adv-x="244" 
d="M57 454c16.667 10 32 23.9971 46 41.9971s22.667 35.333 26 52c-6 -2 -11.667 -3 -17 -3c-17.333 0 -31.666 5.83301 -42.999 17.5s-17 26.834 -17 45.501s6.66699 34.834 20 48.501s29.333 20.5 48 20.5c21.333 0 39.666 -8.16699 54.999 -24.5s23 -38.5 23 -66.5
c0 -33.333 -8.5 -65.166 -25.5 -95.499s-39.833 -55.5 -68.5 -75.5z" />
    <glyph glyph-name="circumflex" unicode="&#x2c6;" horiz-adv-x="285" 
d="M141 652l-75 -96h-66l93 144h96l96 -144h-67z" />
    <glyph glyph-name="caron" unicode="&#x2c7;" horiz-adv-x="285" 
d="M0 700h66l78 -97l74 97h67l-93 -144h-96z" />
    <glyph glyph-name="uni02C9" unicode="&#x2c9;" horiz-adv-x="363" 
d="M20 653h323v-62h-323v62z" />
    <glyph glyph-name="uni02CB" unicode="&#x2cb;" horiz-adv-x="240" 
d="M0 700h100l140 -144h-75z" />
    <glyph glyph-name="breve" unicode="&#x2d8;" horiz-adv-x="351" 
d="M77 577.5c-30.667 15.667 -56.334 37.167 -77.001 64.5l48 40c14.667 -20.667 33 -36.834 55 -48.501s46.333 -17.5 73 -17.5c26 0 50 5.83301 72 17.5s40.333 27.834 55 48.501l48 -40c-20.667 -27.333 -46.167 -48.833 -76.5 -64.5s-63.166 -23.5 -98.499 -23.5
s-68.333 7.83301 -99 23.5z" />
    <glyph glyph-name="dotaccent" unicode="&#x2d9;" horiz-adv-x="147" 
d="M32.5 663.5c11.667 11.667 25.5 17.5 41.5 17.5s29.667 -5.83301 41 -17.5s17 -25.5 17 -41.5c0 -16.667 -5.66699 -30.667 -17 -42s-25 -17 -41 -17s-29.833 5.66699 -41.5 17s-17.5 25.333 -17.5 42c0 16 5.83301 29.833 17.5 41.5z" />
    <glyph glyph-name="ring" unicode="&#x2da;" horiz-adv-x="243" 
d="M50 710.5c20 20.333 44 30.5 72 30.5s51.833 -10.167 71.5 -30.5s29.5 -44.5 29.5 -72.5s-9.83301 -52 -29.5 -72s-43.5 -30 -71.5 -30s-52 10 -72 30s-30 44 -30 72s10 52.167 30 72.5zM158.5 675c-9.66699 10 -21.833 15 -36.5 15c-14 0 -26.167 -5 -36.5 -15
s-15.5 -22.333 -15.5 -37c0 -14 5.16699 -26.167 15.5 -36.5s22.5 -15.5 36.5 -15.5s26 5.16699 36 15.5s15 22.5 15 36.5c0 14.667 -4.83301 27 -14.5 37z" />
    <glyph glyph-name="ogonek" unicode="&#x2db;" horiz-adv-x="206" 
d="M116 -186c-29.333 0 -54.332 6.66699 -74.999 20s-31 32.333 -31 57c0 24 11.667 45.833 35 65.5s53.333 36.5 90 50.5l61 -7c-59.333 -22.667 -89 -50.667 -89 -84c0 -9.33301 3.5 -16.833 10.5 -22.5s15.167 -8.5 24.5 -8.5c10.667 0 20.667 2.33301 30 7l24 -61
c-18.667 -11.333 -45.334 -17 -80.001 -17z" />
    <glyph glyph-name="tilde" unicode="&#x2dc;" horiz-adv-x="321" 
d="M120.5 624c-6.33301 5.33301 -13.5 8 -21.5 8c-12 0 -22 -6 -30 -18s-12 -30 -12 -54h-57c-0 41.333 8.83301 74 26.5 98s43.167 36 76.5 36c17.333 0 31.333 -4 42 -12s21.667 -19.333 33 -34c9.33301 -11.333 17 -19.5 23 -24.5s13 -7.5 21 -7.5c12 0 21.833 6 29.5 18
s11.5 30 11.5 54h58c0 -41.333 -8.83301 -74 -26.5 -98s-43.167 -36 -76.5 -36c-17.333 0 -31.5 4 -42.5 12s-22.167 19.333 -33.5 34c-8 10.667 -15.167 18.667 -21.5 24z" />
    <glyph glyph-name="hungarumlaut" unicode="&#x2dd;" horiz-adv-x="324" 
d="M0 556l90 144h88l-115 -144h-63zM146 556l90 144h88l-115 -144h-63z" />
    <glyph glyph-name="gravecomb" unicode="&#x300;" horiz-adv-x="0" 
d="M-240 700h100l140 -144h-75z" />
    <glyph glyph-name="acutecomb" unicode="&#x301;" horiz-adv-x="0" 
d="M-240 556l140 144h100l-165 -144h-75z" />
    <glyph glyph-name="uni0302" unicode="&#x302;" horiz-adv-x="0" 
d="M-144 652l-75 -96h-66l93 144h96l96 -144h-67z" />
    <glyph glyph-name="tildecomb" unicode="&#x303;" horiz-adv-x="0" 
d="M-200.5 624c-6.33301 5.33301 -13.5 8 -21.5 8c-12 0 -22 -6 -30 -18s-12 -30 -12 -54h-57c0 41.333 8.83301 74 26.5 98s43.167 36 76.5 36c17.333 0 31.333 -4 42 -12s21.667 -19.333 33 -34c9.33301 -11.333 17 -19.5 23 -24.5s13 -7.5 21 -7.5c12 0 21.833 6 29.5 18
s11.5 30 11.5 54h58c0 -41.333 -8.83301 -74 -26.5 -98s-43.167 -36 -76.5 -36c-17.333 0 -31.5 4 -42.5 12s-22.167 19.333 -33.5 34c-8 10.667 -15.167 18.667 -21.5 24z" />
    <glyph glyph-name="uni0304" unicode="&#x304;" horiz-adv-x="0" 
d="M-343 628h323v-62h-323v62z" />
    <glyph glyph-name="uni0306" unicode="&#x306;" horiz-adv-x="0" 
d="M-274 577.5c-30.667 15.667 -56.334 37.167 -77.001 64.5l48 40c14.667 -20.667 33 -36.834 55 -48.501s46.333 -17.5 73 -17.5c26 0 50 5.83301 72 17.5s40.333 27.834 55 48.501l48 -40c-20.667 -27.333 -46.167 -48.833 -76.5 -64.5s-63.166 -23.5 -98.499 -23.5
s-68.333 7.83301 -99 23.5z" />
    <glyph glyph-name="uni0307" unicode="&#x307;" horiz-adv-x="0" 
d="M-114.5 663.5c11.667 11.667 25.5 17.5 41.5 17.5s29.667 -5.83301 41 -17.5s17 -25.5 17 -41.5c0 -16.667 -5.66699 -30.667 -17 -42s-25 -17 -41 -17s-29.833 5.66699 -41.5 17s-17.5 25.333 -17.5 42c0 16 5.83301 29.833 17.5 41.5z" />
    <glyph glyph-name="uni0308" unicode="&#x308;" horiz-adv-x="0" 
d="M-356 581c-11.333 11.333 -17 25.333 -17 42c0 16 5.66699 29.667 17 41s25.333 17 42 17c16 0 29.667 -5.66699 41 -17s17 -25 17 -41c0 -16.667 -5.66699 -30.667 -17 -42s-25 -17 -41 -17c-16.667 0 -30.667 5.66699 -42 17zM-146.5 581
c-11.667 11.333 -17.5 25.333 -17.5 42c0 16 5.83301 29.667 17.5 41s25.5 17 41.5 17s29.833 -5.66699 41.5 -17s17.5 -25 17.5 -41c0 -16.667 -5.83301 -30.667 -17.5 -42s-25.5 -17 -41.5 -17s-29.833 5.66699 -41.5 17z" />
    <glyph glyph-name="uni0309" unicode="&#x309;" horiz-adv-x="0" 
d="M-158.5 697c17.667 12.667 38.5 18.998 62.5 18.998c28 0 51.333 -7.66699 70 -23s28 -38.333 28 -69c0 -12.667 -1.83301 -24 -5.5 -34s-9.16699 -21 -16.5 -33h-62c18 20 27 41.667 27 65c0 14.667 -3.83301 25.834 -11.5 33.501s-17.5 11.5 -29.5 11.5
c-22.667 0 -38.667 -13 -48 -39l-52 16c7.33301 22.667 19.833 40.334 37.5 53.001z" />
    <glyph glyph-name="uni030A" unicode="&#x30a;" horiz-adv-x="0" 
d="M-193 710.5c20 20.333 44 30.5 72 30.5s51.833 -10.167 71.5 -30.5s29.5 -44.5 29.5 -72.5s-9.83301 -52 -29.5 -72s-43.5 -30 -71.5 -30s-52 10 -72 30s-30 44 -30 72s10 52.167 30 72.5zM-84.5 675c-9.66699 10 -21.833 15 -36.5 15c-14 0 -26.167 -5 -36.5 -15
s-15.5 -22.333 -15.5 -37c0 -14 5.16699 -26.167 15.5 -36.5s22.5 -15.5 36.5 -15.5s26 5.16699 36 15.5s15 22.5 15 36.5c0 14.667 -4.83301 27 -14.5 37z" />
    <glyph glyph-name="uni030B" unicode="&#x30b;" horiz-adv-x="0" 
d="M-324 556l90 144h88l-115 -144h-63zM-178 556l90 144h88l-115 -144h-63z" />
    <glyph glyph-name="uni030C" unicode="&#x30c;" horiz-adv-x="0" 
d="M-285 700h66l78 -97l74 97h67l-93 -144h-96z" />
    <glyph glyph-name="dotbelowcomb" unicode="&#x323;" horiz-adv-x="0" 
d="M-114.5 -76.5c11.667 11.667 25.5 17.5 41.5 17.5s29.667 -5.83301 41 -17.5s17 -25.5 17 -41.5c0 -16.667 -5.66699 -30.667 -17 -42s-25 -17 -41 -17s-29.833 5.66699 -41.5 17s-17.5 25.333 -17.5 42c0 16 5.83301 29.833 17.5 41.5z" />
    <glyph glyph-name="uni0326" unicode="&#x326;" horiz-adv-x="0" 
d="M-177 -250c14 8.66699 27 20.998 39 36.998s19.333 31 22 45c-2.66699 -1.33301 -7.33398 -2 -14.001 -2c-13.333 0 -24.666 4.83301 -33.999 14.5s-14 21.834 -14 36.501c0 15.333 5.33301 28.5 16 39.5s23.667 16.5 39 16.5c17.333 0 32.166 -6.66699 44.499 -20
s18.5 -31.666 18.5 -54.999c0 -28 -7.16699 -54.667 -21.5 -80s-33.166 -46.333 -56.499 -63z" />
    <glyph glyph-name="uni0327" unicode="&#x327;" horiz-adv-x="0" 
d="M-192 -117c24 -19.333 51.002 -29 81.002 -29c16 0 29.333 3.33301 40 10s16 16 16 28c0 8.66699 -2.83301 15.5 -8.5 20.5s-13.834 7.5 -24.501 7.5c-14 0 -25.333 -5 -34 -15l-41 23l31 83h55l-26 -64c10.667 7.33301 22.667 11 36 11c19.333 0 35.333 -6.33301 48 -19
s19 -28.667 19 -48c0 -26 -10.333 -46.667 -31 -62s-46.334 -23 -77.001 -23c-22 0 -42.5 3 -61.5 9s-33.833 13.333 -44.5 22z" />
    <glyph glyph-name="uni0328" unicode="&#x328;" horiz-adv-x="0" 
d="M-90 -186c-29.333 0 -54.332 6.66699 -74.999 20s-31 32.333 -31 57c0 24 11.667 45.833 35 65.5s53.333 36.5 90 50.5l61 -7c-59.333 -22.667 -89 -50.667 -89 -84c0 -9.33301 3.5 -16.833 10.5 -22.5s15.167 -8.5 24.5 -8.5c10.667 0 20.667 2.33301 30 7l24 -61
c-18.667 -11.333 -45.334 -17 -80.001 -17z" />
    <glyph glyph-name="uni037E" unicode="&#x37e;" horiz-adv-x="245" 
d="M73 371c-14 14 -21 30.333 -21 49c0 19.333 7 35.833 21 49.5s30.333 20.5 49 20.5c19.333 0 35.833 -6.83301 49.5 -20.5s20.5 -30.167 20.5 -49.5c0 -18.667 -7 -35 -21 -49s-30.333 -21 -49 -21s-35 7 -49 21zM57 -94c16.667 10 32 23.9971 46 41.9971
s22.667 35.333 26 52c-6 -2 -11.667 -3 -17 -3c-17.333 0 -31.666 5.83301 -42.999 17.5s-17 26.834 -17 45.501s6.66699 34.834 20 48.501s29.333 20.5 48 20.5c21.333 0 39.666 -8.16699 54.999 -24.5s23 -38.5 23 -66.5c0 -33.333 -8.5 -65.166 -25.5 -95.499
s-39.833 -55.5 -68.5 -75.5z" />
    <glyph glyph-name="tonos" unicode="&#x384;" horiz-adv-x="133" 
d="M30 780h93l-65 -207h-48z" />
    <glyph glyph-name="dieresistonos" unicode="&#x385;" horiz-adv-x="424" 
d="M192 780h93l-64 -207h-49zM27 581c-11.333 11.333 -17 25.333 -17 42c0 16 5.66699 29.667 17 41s25.333 17 42 17c16 0 29.667 -5.66699 41 -17s17 -25 17 -41c0 -16.667 -5.66699 -30.667 -17 -42s-25 -17 -41 -17c-16.667 0 -30.667 5.66699 -42 17zM314 581
c-11.333 11.333 -17 25.333 -17 42c0 16 5.66699 29.667 17 41s25 17 41 17c16.667 0 30.667 -5.66699 42 -17s17 -25 17 -41c0 -16.667 -5.66699 -30.667 -17 -42s-25.333 -17 -42 -17c-16 0 -29.667 5.66699 -41 17z" />
    <glyph glyph-name="Alphatonos" unicode="&#x386;" horiz-adv-x="673" 
d="M494 128h-316l-49 -128h-128l262 667h146l262 -667h-128zM211 231h250l-125 337zM102 667h93l-65 -207h-48z" />
    <glyph glyph-name="Epsilontonos" unicode="&#x388;" horiz-adv-x="639" 
d="M133 667h457v-103h-340v-173h333v-103h-333v-185h340v-103h-457v667zM2 667h93l-65 -207h-48z" />
    <glyph glyph-name="Etatonos" unicode="&#x389;" horiz-adv-x="785" 
d="M597 291h-347v-291h-117v667h117v-273h347v273h117v-667h-117v291zM2 667h93l-65 -207h-48z" />
    <glyph glyph-name="Iotatonos" unicode="&#x38a;" horiz-adv-x="321" 
d="M133 667h117v-667h-117v667zM2 667h93l-65 -207h-48z" />
    <glyph glyph-name="Omicrontonos" unicode="&#x38c;" horiz-adv-x="797" 
d="M116.5 510c29 52.667 69.333 93.834 121 123.501s110.5 44.5 176.5 44.5s124.833 -14.833 176.5 -44.5s92 -70.834 121 -123.501s43.5 -111.667 43.5 -177s-14.5 -124.333 -43.5 -177s-69.333 -93.834 -121 -123.501s-110.5 -44.5 -176.5 -44.5
s-124.833 14.833 -176.5 44.5s-92 70.834 -121 123.501s-43.5 111.667 -43.5 177s14.5 124.333 43.5 177zM607.5 457c-18.333 36.667 -44.166 65.334 -77.499 86.001s-72 31 -116 31s-82.667 -10.333 -116 -31s-59.166 -49.334 -77.499 -86.001s-27.5 -78 -27.5 -124
c0 -45.333 9.16699 -86.333 27.5 -123s44.166 -65.5 77.499 -86.5s72 -31.5 116 -31.5s82.667 10.5 116 31.5s59.166 49.833 77.499 86.5s27.5 77.667 27.5 123c0 46 -9.16699 87.333 -27.5 124zM22 667h93l-65 -207h-48z" />
    <glyph glyph-name="Upsilontonos" unicode="&#x38e;" horiz-adv-x="749" 
d="M372 277l-259 390h134l184 -286l182 286h134l-258 -390v-277h-117v277zM2 667h93l-65 -207h-48z" />
    <glyph glyph-name="Omegatonos" unicode="&#x38f;" horiz-adv-x="787" 
d="M103 208.5c-26.667 43 -40.001 92.833 -40.001 149.5c0 62.667 14.5 118.334 43.5 167.001s69.333 86.334 121 113.001s110.5 40 176.5 40s124.833 -13.333 176.5 -40s92 -64.334 121 -113.001s43.5 -104.334 43.5 -167.001c0 -56.667 -13 -106.5 -39 -149.5
s-60.333 -78.167 -103 -105.5h125v-103h-257v103c44 12 80.667 38.833 110 80.5s44 91.834 44 150.501c0 42.667 -8.33301 82.167 -25 118.5s-41.667 65.5 -75 87.5s-73.666 33 -120.999 33s-87.666 -11 -120.999 -33s-58.333 -51.167 -75 -87.5s-25 -75.833 -25 -118.5
c0 -58.667 14.667 -108.834 44 -150.501s66.333 -68.5 111 -80.5v-103h-257v103h126c-42.667 27.333 -77.334 62.5 -104.001 105.5zM1.99902 667h93l-65 -207h-48z" />
    <glyph glyph-name="iotadieresistonos" unicode="&#x390;" horiz-adv-x="255" 
d="M68 483h105.001v-352c0 -15.333 3.83301 -27.5 11.5 -36.5s18.167 -13.5 31.5 -13.5c6 0 12.333 0.666992 19 2l7 -89c-12.667 -4 -29.334 -6 -50.001 -6c-40.667 0 -71.5 10.667 -92.5 32s-31.5 52 -31.5 92v371zM117.001 780h93l-64 -207h-49zM-47.999 581
c-11.333 11.333 -17 25.333 -17 42c0 16 5.66699 29.667 17 41s25.333 17 42 17c16 0 29.667 -5.66699 41 -17s17 -25 17 -41c0 -16.667 -5.66699 -30.667 -17 -42s-25 -17 -41 -17c-16.667 0 -30.667 5.66699 -42 17zM239.001 581c-11.333 11.333 -17 25.333 -17 42
c0 16 5.66699 29.667 17 41s25 17 41 17c16.667 0 30.667 -5.66699 42 -17s17 -25 17 -41c0 -16.667 -5.66699 -30.667 -17 -42s-25.333 -17 -42 -17c-16 0 -29.667 5.66699 -41 17z" />
    <glyph glyph-name="Alpha" unicode="&#x391;" horiz-adv-x="673" 
d="M494 128h-316l-49 -128h-128l262 667h146l262 -667h-128zM211 231h250l-125 337z" />
    <glyph glyph-name="Beta" unicode="&#x392;" horiz-adv-x="648" 
d="M71 667h327.999c39.333 0 73.333 -7.5 102 -22.5s50.5 -35.333 65.5 -61s22.5 -54.5 22.5 -86.5c0 -40 -11.167 -73.833 -33.5 -101.5s-49.833 -44.834 -82.5 -51.501c23.333 -3.33301 44.833 -12.833 64.5 -28.5s35.334 -35.5 47.001 -59.5s17.5 -49.333 17.5 -76
c0 -53.333 -17.167 -96.666 -51.5 -129.999s-81.833 -50 -142.5 -50h-337v667zM374.999 391c29.333 0 52.333 8 69 24s25 36.667 25 62c0 26 -8.33301 47 -25 63s-39.667 24 -69 24h-187v-173h187zM379.999 103c32 0 57 8.16797 75 24.501s27 39.166 27 68.499
c0 26 -9 47.833 -27 65.5s-43 26.5 -75 26.5h-192v-185h192z" />
    <glyph glyph-name="Gamma" unicode="&#x393;" horiz-adv-x="562" 
d="M71 667h457v-103h-340v-564h-117v667z" />
    <glyph glyph-name="uni0394" unicode="&#x394;" horiz-adv-x="673" 
d="M263 667h146l262 -667h-670zM167 103h339l-170 446z" />
    <glyph glyph-name="Epsilon" unicode="&#x395;" horiz-adv-x="577" 
d="M71 667h457v-103h-340v-173h333v-103h-333v-185h340v-103h-457v667z" />
    <glyph glyph-name="Zeta" unicode="&#x396;" horiz-adv-x="589" 
d="M44 95l341 469h-341v103h493v-95l-341 -469h348v-103h-500v95z" />
    <glyph glyph-name="Eta" unicode="&#x397;" horiz-adv-x="723" 
d="M535 291h-347v-291h-117v667h117v-273h347v273h117v-667h-117v291z" />
    </font>
</defs>
</svg>
