<?xml version="1.0" standalone="no"?>
<!DOCTYPE svg PUBLIC "-//W3C//DTD SVG 1.1//EN" "http://www.w3.org/Graphics/SVG/1.1/DTD/svg11.dtd" >
<svg>
<metadata>
Created by FontForge 20090914 at Sat Mar  4 06:09:56 2017
 By www-data
Copyright (c) Mark Simonson, 2005. All rights reserved.
</metadata>
<defs>
<font id="ProximaNovaA-Black" horiz-adv-x="596" >
  <font-face 
    font-family="Proxima Nova A Black"
    font-weight="900"
    font-stretch="normal"
    units-per-em="1000"
    panose-1="2 0 5 6 3 0 0 2 0 4"
    ascent="790"
    descent="-210"
    x-height="482.999"
    cap-height="667"
    bbox="-414 -398 1256 1079"
    underline-thickness="20"
    underline-position="-113"
    unicode-range="U+000D-U+FB03"
  />
<missing-glyph horiz-adv-x="459" 
d="M54 752h351v-842h-351v842zM85 722v-782h288v782h-288z" />
    <glyph glyph-name="f_f_j" unicode="ffj" horiz-adv-x="1022" 
d="M87 327h-80v156h80v22c0 32.667 7.83301 62.167 23.5 88.5s37.5 46.833 65.5 61.5s59.667 22 95 22c44.667 0 82 -8 112 -24l-32 -120c-11.333 7.33301 -24 11 -38 11s-25.167 -4 -33.5 -12s-12.5 -19 -12.5 -33v-16h98v-156h-98v-327h-180v327zM458 327
l-80.001 0.000976562v156h80v22c0 32.667 7.83301 62.167 23.5 88.5s37.5 46.833 65.5 61.5s59.667 22 95 22c44.667 0 82 -8 112 -24l-33 -122c-11.333 8.66699 -24.666 13 -39.999 13c-12 0 -22.167 -3.83301 -30.5 -11.5s-12.5 -16.834 -12.5 -27.501v-22h98v-156h-98
v-327h-180v327zM810.499 547.501c-19.667 19.667 -29.5 43.5 -29.5 71.5s9.83301 51.833 29.5 71.5s43.5 29.5 71.5 29.5s51.833 -9.83301 71.5 -29.5s29.5 -43.5 29.5 -71.5s-9.83301 -51.833 -29.5 -71.5s-43.5 -29.5 -71.5 -29.5s-51.833 9.83301 -71.5 29.5z
M971.999 21.001c0 -65.333 -16.668 -117.833 -50.001 -157.5s-83.666 -59.5 -150.999 -59.5c-24 0 -42.667 1.33301 -56 4v145c6.66699 -1.33301 14.667 -2 24 -2c16.667 0 29.667 6 39 18s14 29.333 14 52v462h180v-462z" />
    <glyph glyph-name="f_j" unicode="fj" horiz-adv-x="651" 
d="M87 327l-80.001 0.000976562v156h80v22c0 32.667 7.83301 62.167 23.5 88.5s37.5 46.833 65.5 61.5s59.667 22 95 22c44.667 0 82 -8 112 -24l-33 -122c-11.333 8.66699 -24.666 13 -39.999 13c-12 0 -22.167 -3.83301 -30.5 -11.5s-12.5 -16.834 -12.5 -27.501v-22h98
v-156h-98v-327h-180v327zM439.499 547.501c-19.667 19.667 -29.5 43.5 -29.5 71.5s9.83301 51.833 29.5 71.5s43.5 29.5 71.5 29.5s51.833 -9.83301 71.5 -29.5s29.5 -43.5 29.5 -71.5s-9.83301 -51.833 -29.5 -71.5s-43.5 -29.5 -71.5 -29.5s-51.833 9.83301 -71.5 29.5z
M600.999 21.001c0 -65.333 -16.668 -117.833 -50.001 -157.5s-83.666 -59.5 -150.999 -59.5c-24 0 -42.667 1.33301 -56 4v145c6.66699 -1.33301 14.667 -2 24 -2c16.667 0 29.667 6 39 18s14 29.333 14 52v462h180v-462z" />
    <glyph glyph-name="f_f" unicode="ff" horiz-adv-x="742" 
d="M87 327h-80v156h80v22c0 32.667 7.83301 62.167 23.5 88.5s37.5 46.833 65.5 61.5s59.667 22 95 22c44.667 0 82 -8 112 -24l-32 -120c-11.333 7.33301 -24 11 -38 11s-25.167 -4 -33.5 -12s-12.5 -19 -12.5 -33v-16h98v-156h-98v-327h-180v327zM458 327h-80v156h80v22
c0 32.667 7.83301 62.167 23.5 88.5s37.5 46.833 65.5 61.5s59.667 22 95 22c44.667 0 82 -8 112 -24l-32 -120c-11.333 7.33301 -24 11 -38 11s-25.167 -4 -33.5 -12s-12.5 -19 -12.5 -33v-16h98v-156h-98v-327h-180v327z" />
    <glyph glyph-name="fi" unicode="fi" horiz-adv-x="651" 
d="M87 327l-80.001 0.000976562v156h80v22c0 32.667 7.83301 62.167 23.5 88.5s37.5 46.833 65.5 61.5s59.667 22 95 22c44.667 0 82 -8 112 -24l-33 -122c-11.333 8.66699 -24.666 13 -39.999 13c-12 0 -22.167 -3.83301 -30.5 -11.5s-12.5 -16.834 -12.5 -27.501v-22h98
v-156h-98v-327h-180v327zM439.499 547.501c-19.667 19.667 -29.5 43.5 -29.5 71.5s9.83301 51.833 29.5 71.5s43.5 29.5 71.5 29.5s51.833 -9.83301 71.5 -29.5s29.5 -43.5 29.5 -71.5s-9.83301 -51.833 -29.5 -71.5s-43.5 -29.5 -71.5 -29.5s-51.833 9.83301 -71.5 29.5z
M420.999 483.001h180v-483h-180v483z" />
    <glyph glyph-name="fl" unicode="fl" horiz-adv-x="699" 
d="M87 327l-80.001 0.000976562v156h80v22c0 32.667 7.83301 62.167 23.5 88.5s37.5 46.833 65.5 61.5s59.667 22 95 22c44.667 0 82 -8 112 -24l-33 -122c-11.333 8.66699 -24.666 13 -39.999 13c-12 0 -22.167 -3.83301 -30.5 -11.5s-12.5 -16.834 -12.5 -27.501v-22h98
v-156h-98v-327h-180v327zM463.499 26.501c-28.333 25.667 -42.499 63.501 -42.499 113.501v527h180v-475c0 -12.667 3.66699 -23.334 11 -32.001s17 -13 29 -13c7.33301 0 14.666 1 21.999 3s12 4 14 6l32 -136c-10 -9.33301 -25.667 -17 -47 -23s-46.333 -9 -75 -9
c-54 0 -95.167 12.833 -123.5 38.5z" />
    <glyph glyph-name="f_f_i" unicode="ffi" horiz-adv-x="1022" 
d="M87 327h-80v156h80v22c0 32.667 7.83301 62.167 23.5 88.5s37.5 46.833 65.5 61.5s59.667 22 95 22c44.667 0 82 -8 112 -24l-32 -120c-11.333 7.33301 -24 11 -38 11s-25.167 -4 -33.5 -12s-12.5 -19 -12.5 -33v-16h98v-156h-98v-327h-180v327zM458 327
l-80.001 0.000976562v156h80v22c0 32.667 7.83301 62.167 23.5 88.5s37.5 46.833 65.5 61.5s59.667 22 95 22c44.667 0 82 -8 112 -24l-33 -122c-11.333 8.66699 -24.666 13 -39.999 13c-12 0 -22.167 -3.83301 -30.5 -11.5s-12.5 -16.834 -12.5 -27.501v-22h98v-156h-98
v-327h-180v327zM810.499 547.501c-19.667 19.667 -29.5 43.5 -29.5 71.5s9.83301 51.833 29.5 71.5s43.5 29.5 71.5 29.5s51.833 -9.83301 71.5 -29.5s29.5 -43.5 29.5 -71.5s-9.83301 -51.833 -29.5 -71.5s-43.5 -29.5 -71.5 -29.5s-51.833 9.83301 -71.5 29.5z
M791.999 483.001h180v-483h-180v483z" />
    <glyph glyph-name="f_b" unicode="fb" horiz-adv-x="967" 
d="M87 327l-80.001 0.000976562v156h80v22c0 32.667 7.83301 62.167 23.5 88.5s37.5 46.833 65.5 61.5s59.667 22 95 22c44.667 0 82 -8 112 -24l-33 -122c-11.333 8.66699 -24.666 13 -39.999 13c-12 0 -22.167 -3.83301 -30.5 -11.5s-12.5 -16.834 -12.5 -27.501v-22h98
v-156h-98v-327h-180v327zM420.999 667.001l179.999 -0.000976562v-235c34.667 42 80 63 136 63c40 0 76.167 -10.167 108.5 -30.5s57.833 -49.5 76.5 -87.5s28 -83 28 -135c0 -53.333 -9.5 -99.166 -28.5 -137.499s-44.5 -67.333 -76.5 -87s-68 -29.5 -108 -29.5
c-53.333 0 -98.666 21 -135.999 63v-51h-180v667zM634.498 155.5c14.333 -5.66699 28.168 -8.5 41.501 -8.5c25.333 0 46.666 8.5 63.999 25.5s26 40.167 26 69.5c0 28.667 -8.66699 51.5 -26 68.5s-38.666 25.5 -63.999 25.5c-12.667 0 -26.334 -3 -41.001 -9
s-26 -14 -34 -24v-124c8 -10 19.167 -17.833 33.5 -23.5z" />
    <glyph glyph-name="f_h" unicode="fh" horiz-adv-x="979" 
d="M87 327l-80.001 0.000976562v156h80v22c0 32.667 7.83301 62.167 23.5 88.5s37.5 46.833 65.5 61.5s59.667 22 95 22c44.667 0 82 -8 112 -24l-33 -122c-11.333 8.66699 -24.666 13 -39.999 13c-12 0 -22.167 -3.83301 -30.5 -11.5s-12.5 -16.834 -12.5 -27.501v-22h98
v-156h-98v-327h-180v327zM748.999 269.001c0 24 -6.00195 41.168 -18.002 51.501s-29.333 15.5 -52 15.5c-18 0 -32.833 -3.5 -44.5 -10.5s-22.5 -16.167 -32.5 -27.5v-298h-180v667h180v-239c16.667 18.667 38.834 34.5 66.501 47.5s60.834 19.5 99.501 19.5
c53.333 0 93.5 -13.833 120.5 -41.5s40.5 -63.834 40.5 -108.501v-345h-180v269z" />
    <glyph glyph-name="f_k" unicode="fk" horiz-adv-x="928" 
d="M87 327l-80.001 0.000976562v156h80v22c0 32.667 7.83301 62.167 23.5 88.5s37.5 46.833 65.5 61.5s59.667 22 95 22c44.667 0 82 -8 112 -24l-33 -122c-11.333 8.66699 -24.666 13 -39.999 13c-12 0 -22.167 -3.83301 -30.5 -11.5s-12.5 -16.834 -12.5 -27.501v-22h98
v-156h-98v-327h-180v327zM635.999 156.001l-35 -47v-109h-180v667h180v-356l111 172h217l-166 -220l177 -263h-221z" />
    <glyph glyph-name="f_f_l" unicode="ffl" horiz-adv-x="1070" 
d="M87 327h-80v156h80v22c0 32.667 7.83301 62.167 23.5 88.5s37.5 46.833 65.5 61.5s59.667 22 95 22c44.667 0 82 -8 112 -24l-32 -120c-11.333 7.33301 -24 11 -38 11s-25.167 -4 -33.5 -12s-12.5 -19 -12.5 -33v-16h98v-156h-98v-327h-180v327zM458 327
l-80.001 0.000976562v156h80v22c0 32.667 7.83301 62.167 23.5 88.5s37.5 46.833 65.5 61.5s59.667 22 95 22c44.667 0 82 -8 112 -24l-33 -122c-11.333 8.66699 -24.666 13 -39.999 13c-12 0 -22.167 -3.83301 -30.5 -11.5s-12.5 -16.834 -12.5 -27.501v-22h98v-156h-98
v-327h-180v327zM834.499 26.501c-28.333 25.667 -42.499 63.501 -42.499 113.501v527h180v-475c0 -12.667 3.66699 -23.334 11 -32.001s17 -13 29 -13c7.33301 0 14.666 1 21.999 3s12 4 14 6l32 -136c-10 -9.33301 -25.667 -17 -47 -23s-46.333 -9 -75 -9
c-54 0 -95.167 12.833 -123.5 38.5z" />
    <glyph glyph-name=".notdef" horiz-adv-x="459" 
d="M54 752h351v-842h-351v842zM85 722v-782h288v782h-288z" />
    <glyph glyph-name="NULL" horiz-adv-x="0" 
 />
    <glyph glyph-name="NULL" horiz-adv-x="0" 
 />
    <glyph glyph-name="nonmarkingreturn" unicode="&#xd;" horiz-adv-x="0" 
 />
    <glyph glyph-name="space" unicode=" " horiz-adv-x="255" 
 />
    <glyph glyph-name="exclam" unicode="!" horiz-adv-x="280" 
d="M33 667h214l-25 -419h-162zM66.5 170.5c21 21 45.833 31.5 74.5 31.5s53.5 -10.5 74.5 -31.5s31.5 -46.167 31.5 -75.5c0 -28.667 -10.5 -53.5 -31.5 -74.5s-45.833 -31.5 -74.5 -31.5s-53.5 10.5 -74.5 31.5s-31.5 45.833 -31.5 74.5c0 29.333 10.5 54.5 31.5 75.5z" />
    <glyph glyph-name="quotedbl" unicode="&#x22;" horiz-adv-x="469" 
d="M57 472.5c-15.333 65.667 -23 103.167 -23 112.5c0 25.333 9 47 27 65s39.667 27 65 27s47 -9 65 -27s27 -39.667 27 -65c0 -9.33301 -7.66699 -46.833 -23 -112.5s-26 -110.167 -32 -133.5h-74c-6 23.333 -16.667 67.833 -32 133.5zM275 472.5
c-15.333 65.667 -23 103.167 -23 112.5c0 25.333 9 47 27 65s39.667 27 65 27s46.833 -9 64.5 -27s26.5 -39.667 26.5 -65c0 -9.33301 -7.66699 -46.833 -23 -112.5s-26 -110.167 -32 -133.5h-73c-6 23.333 -16.667 67.833 -32 133.5z" />
    <glyph glyph-name="numbersign" unicode="#" horiz-adv-x="646" 
d="M303 158h-79l-52 -158h-127l53 158h-86l35 109h88l43 132h-87l34 108h90l53 160h127l-53 -160h78l53 160h127l-54 -160h88l-33 -108h-91l-44 -132h91l-34 -109h-94l-52 -158h-127zM305 399l-43 -132h77l44 132h-78z" />
    <glyph glyph-name="dollar" unicode="$" horiz-adv-x="635" 
d="M556.5 65c-39.667 -39.333 -95.167 -63.6689 -166.5 -73.002v-92h-128v91c-98.667 10 -180 44.333 -244 103l105 150c26.667 -26 58.5 -46.833 95.5 -62.5s76.833 -23.5 119.5 -23.5c20.667 0 38.167 3.5 52.5 10.5s21.5 16.5 21.5 28.5
c0 12.667 -7.16699 22.834 -21.5 30.501s-38.5 14.5 -72.5 20.5c-56 10 -102 20.833 -138 32.5s-68.333 31.834 -97 60.501s-43 68.667 -43 120c0 34.667 8.5 67 25.5 97s42.167 55.333 75.5 76s73.666 34 120.999 40v94h128v-96c82 -11.333 152 -40.666 210 -87.999
l-108 -143c-28 21.333 -59 37.666 -93 48.999s-65 17 -93 17c-40.667 0 -61 -11.667 -61 -35c0 -12.667 7 -22.167 21 -28.5s39.667 -12.5 77 -18.5c50.667 -8.66699 94.834 -19.167 132.501 -31.5s70.5 -32.5 98.5 -60.5s42 -65.667 42 -113
c0 -64 -19.833 -115.667 -59.5 -155z" />
    <glyph glyph-name="percent" unicode="%" horiz-adv-x="784" 
d="M42 593.5c14.667 25.667 35.5 46 62.5 61s58.167 22.5 93.5 22.5c36 0 67.5 -7.5 94.5 -22.5s48 -35.333 63 -61s22.5 -54.167 22.5 -85.5s-7.5 -59.666 -22.5 -84.999s-36 -45.333 -63 -60s-58.5 -22 -94.5 -22c-35.333 0 -66.5 7.33301 -93.5 22
s-47.833 34.667 -62.5 60s-22 53.666 -22 84.999s7.33301 59.833 22 85.5zM557 667h98l-427 -667h-97zM240 555.5c-10.667 10.333 -24.667 15.5 -42 15.5c-16.667 0 -30.167 -5.16699 -40.5 -15.5s-15.5 -26.166 -15.5 -47.499c0 -20.667 5.16699 -36 15.5 -46
s23.833 -15 40.5 -15c17.333 0 31.333 5 42 15s16 25.333 16 46c0 21.333 -5.33301 37.166 -16 47.499zM429 240.5c14.667 25.667 35.5 46 62.5 61s58.167 22.5 93.5 22.5s66.666 -7.5 93.999 -22.5s48.333 -35.333 63 -61s22 -54.167 22 -85.5
s-7.33301 -59.666 -22 -84.999s-35.667 -45.333 -63 -60s-58.666 -22 -93.999 -22s-66.5 7.33301 -93.5 22s-47.833 34.667 -62.5 60s-22 53.666 -22 84.999s7.33301 59.833 22 85.5zM627 202.5c-10.667 10.333 -24.667 15.5 -42 15.5s-31.166 -5.16699 -41.499 -15.5
s-15.5 -26.166 -15.5 -47.499c0 -20.667 5.16699 -36 15.5 -46s24.166 -15 41.499 -15s31.333 5 42 15s16 25.333 16 46c0 21.333 -5.33301 37.166 -16 47.499z" />
    <glyph glyph-name="ampersand" unicode="&#x26;" horiz-adv-x="652" 
d="M442 0l-12.4971 13.0029c-5 5.33301 -10.833 12 -17.5 20c-52.667 -30 -108.334 -45 -167.001 -45c-68 0 -123.833 17.333 -167.5 52s-65.5 84.334 -65.5 149.001c0 45.333 12.5 82.666 37.5 111.999s59.167 54.333 102.5 75c-24.667 51.333 -37 96.666 -37 135.999
c0 30 9 57.667 27 83s43.167 45.333 75.5 60s69.166 22 110.499 22c34.667 0 67.167 -6.16699 97.5 -18.5s54.833 -29.833 73.5 -52.5s28 -49.334 28 -80.001c0 -46 -13.667 -82 -41 -108s-66 -49.667 -116 -71l37 -49l36 -46c21.333 33.333 37.666 68.666 48.999 105.999
l139 -66c-28.667 -58.667 -60 -108.667 -94 -150c28.667 -34 71 -81.333 127 -142h-222zM310.003 441.003c21.333 10.667 37.666 21.832 48.999 33.499s17 25.167 17 40.5c0 10.667 -3.66699 19.5 -11 26.5s-16.666 10.5 -27.999 10.5c-13.333 0 -24.333 -4.16699 -33 -12.5
s-13 -19.166 -13 -32.499c0 -18.667 6.33301 -40.667 19 -66zM320.003 136.001c-24.667 28 -41.667 48.332 -51 60.999l-49 66c-13.333 -15.333 -20 -34 -20 -56c0 -23.333 7 -42.666 21 -57.999s31 -23 51 -23c14 0 30 3.33301 48 10z" />
    <glyph glyph-name="quotesingle" unicode="'" horiz-adv-x="252" 
d="M57 472.5c-15.333 65.667 -23 103.167 -23 112.5c0 25.333 9 47 27 65s39.667 27 65 27s47 -9 65 -27s27 -39.667 27 -65c0 -9.33301 -7.66699 -46.833 -23 -112.5s-26 -110.167 -32 -133.5h-74c-6 23.333 -16.667 67.833 -32 133.5z" />
    <glyph glyph-name="parenleft" unicode="(" horiz-adv-x="346" 
d="M86 -4c-32.667 83.333 -49 165.669 -49 247.002s16.333 163.666 49 246.999s75.334 148.333 128.001 195l114 -87c-35.333 -58 -60.5 -114.667 -75.5 -170s-22.5 -117 -22.5 -185c0 -67.333 7.5 -128.833 22.5 -184.5s40.167 -111.834 75.5 -168.501l-114 -89
c-52.667 46.667 -95.334 111.667 -128.001 195z" />
    <glyph glyph-name="parenright" unicode=")" horiz-adv-x="347" 
d="M93.5 428c-15 55.333 -40.167 111.997 -75.5 169.997l114 87c52.667 -46.667 95.334 -111.667 128.001 -195s49 -165.666 49 -246.999s-16.333 -163.666 -49 -246.999s-75.334 -148.333 -128.001 -195l-114 89c35.333 56.667 60.5 112.834 75.5 168.501
s22.5 117.167 22.5 184.5c0 68 -7.5 129.667 -22.5 185z" />
    <glyph glyph-name="asterisk" unicode="*" horiz-adv-x="363" 
d="M145 448l-88 -56l-40 70l92 48l-92 48l40 70l88 -56l-4 105h81l-5 -105l88 56l41 -70l-93 -48l93 -48l-41 -70l-88 56l5 -105h-81z" />
    <glyph glyph-name="plus" unicode="+" horiz-adv-x="510" 
d="M313 92h-116v193h-168v105h168v185h116v-185h168v-105h-168v-193z" />
    <glyph glyph-name="comma" unicode="," horiz-adv-x="281" 
d="M56 -88c17.333 7.33301 35.334 19.998 54.001 37.998s31 36 37 54c-6.66699 -2.66699 -15.334 -4 -26.001 -4c-24 0 -44.5 9.16699 -61.5 27.5s-25.5 41.5 -25.5 69.5c0 28.667 10.333 53.334 31 74.001s45 31 73 31c32 0 59.333 -11.667 82 -35s34 -54.666 34 -93.999
c0 -43.333 -10.833 -83.833 -32.5 -121.5s-52.5 -70.5 -92.5 -98.5z" />
    <glyph glyph-name="hyphen" unicode="-" horiz-adv-x="300" 
d="M30 317h240v-150h-240v150z" />
    <glyph glyph-name="period" unicode="." horiz-adv-x="283" 
d="M66 170.5c21.333 21 46.333 31.5 75 31.5c29.333 0 54.5 -10.5 75.5 -31.5s31.5 -46.167 31.5 -75.5c0 -28.667 -10.5 -53.667 -31.5 -75s-46.167 -32 -75.5 -32c-28.667 0 -53.667 10.667 -75 32s-32 46.333 -32 75c0 29.333 10.667 54.5 32 75.5z" />
    <glyph glyph-name="slash" unicode="/" horiz-adv-x="362" 
d="M237 687h125l-237 -707h-125z" />
    <glyph glyph-name="zero" unicode="0" horiz-adv-x="628" 
d="M51.5 504.5c22.333 52.333 55.666 94.166 99.999 125.499s98.5 47 162.5 47s118.167 -15.667 162.5 -47s77.666 -73.166 99.999 -125.499s33.5 -109.5 33.5 -171.5s-11.167 -119.333 -33.5 -172s-55.666 -94.667 -99.999 -126s-98.5 -47 -162.5 -47
s-118.167 15.667 -162.5 47s-77.666 73.333 -99.999 126s-33.5 110 -33.5 172s11.167 119.167 33.5 171.5zM384.5 458.5c-15 27 -38.5 40.5 -70.5 40.5s-55.5 -13.5 -70.5 -40.5s-22.5 -68.833 -22.5 -125.5s7.5 -98.667 22.5 -126s38.5 -41 70.5 -41s55.5 13.667 70.5 41
s22.5 69.333 22.5 126s-7.5 98.5 -22.5 125.5z" />
    <glyph glyph-name="one" unicode="1" horiz-adv-x="483" 
d="M227 410l-113 -112l-114 119l255 250h174v-667h-202v410z" />
    <glyph glyph-name="two" unicode="2" horiz-adv-x="613" 
d="M41 157l228.002 164.001c43.333 32.667 71.833 57.334 85.5 74.001s20.5 34 20.5 52c0 16 -7.5 28.667 -22.5 38s-34.5 14 -58.5 14c-32 0 -62 -5.83301 -90 -17.5s-55.333 -28.834 -82 -51.501l-110 134c36 38.667 79.167 67.167 129.5 85.5s101.166 27.5 152.499 27.5
c56.667 0 106.667 -9.83301 150 -29.5s76.833 -46.834 100.5 -81.501s35.5 -74.334 35.5 -119.001c0 -47.333 -16.833 -91.666 -50.5 -132.999s-93.834 -87.333 -180.501 -138h237v-176h-545v157z" />
    <glyph glyph-name="three" unicode="3" horiz-adv-x="617" 
d="M111 223c24.667 -21.333 54 -37.6689 88 -49.002s65 -17 93 -17c31.333 0 55.333 4.83301 72 14.5s25 21.834 25 36.501c0 14 -7 24.667 -21 32s-41.333 11 -82 11c-51.333 0 -83.666 -0.666992 -96.999 -2v171c8.66699 -0.666992 41 -1 97 -1
c30.667 0 53.667 3.5 69 10.5s23 16.833 23 29.5c0 15.333 -9 27.166 -27 35.499s-42 12.5 -72 12.5c-28.667 0 -57.667 -5.5 -87 -16.5s-55.666 -26.167 -78.999 -45.5l-92 122c31.333 34.667 70.333 61.667 117 81s101 29 163 29c90 0 158.833 -16.667 206.5 -50
s71.5 -78.333 71.5 -135c0 -35.333 -13.833 -67.166 -41.5 -95.499s-62.834 -45.833 -105.501 -52.5c26 -2.66699 51.167 -10.667 75.5 -24s44.166 -31.333 59.499 -54s23 -48.667 23 -78c0 -39.333 -12.167 -74.166 -36.5 -104.499s-58.333 -53.833 -102 -70.5
s-94.167 -25 -151.5 -25c-63.333 0 -119.833 9.5 -169.5 28.5s-89.167 44.167 -118.5 75.5z" />
    <glyph glyph-name="four" unicode="4" horiz-adv-x="636" 
d="M339 107h-321v155l243 405h280v-384h77v-176h-77v-107h-202v107zM213 283h126v210z" />
    <glyph glyph-name="five" unicode="5" horiz-adv-x="626" 
d="M137 215c22 -18.667 48.667 -33.001 80 -43.001s62 -15 92 -15c31.333 0 54.833 6 70.5 18s23.5 27 23.5 45s-7.33301 32.5 -22 43.5s-36.667 16.5 -66 16.5c-25.333 0 -48.166 -3.66699 -68.499 -11s-38.833 -19 -55.5 -35l-139 32v401h510v-168h-318v-106
c46 34 95.667 51 149 51c38 0 73.5 -8.83301 106.5 -26.5s59.333 -43 79 -76s29.5 -70.833 29.5 -113.5c0 -48.667 -11.833 -91.167 -35.5 -127.5s-57.834 -64.166 -102.501 -83.499s-97.667 -29 -159 -29c-58.667 0 -111.5 8.16699 -158.5 24.5s-87.167 39.5 -120.5 69.5z
" />
    <glyph glyph-name="six" unicode="6" horiz-adv-x="625" 
d="M62 519c29.333 52 70.333 91.3301 123 117.997s113.667 40 183 40c38 0 75.5 -5.16699 112.5 -15.5s68.833 -24.5 95.5 -42.5l-85 -147c-18.667 12.667 -37.667 21.834 -57 27.501s-41.333 8.5 -66 8.5c-40 0 -74.333 -11.833 -103 -35.5s-43 -54.834 -43 -93.501v-2
c16.667 21.333 38.834 38 66.501 50s57.167 18 88.5 18c41.333 0 80 -8.5 116 -25.5s65 -41.833 87 -74.5s33 -71.667 33 -117c0 -47.333 -12 -89.166 -36 -125.499s-57 -64.5 -99 -84.5s-89.333 -30 -142 -30c-70.667 0 -129.834 14.833 -177.501 44.5
s-83 70.334 -106 122.001s-34.5 110.834 -34.5 177.501c0 72.667 14.667 135 44 187zM380.5 266.497c-18.333 10.333 -40.168 15.5 -65.501 15.5c-36 0 -67.333 -9 -94 -27c2.66699 -26.667 12.5 -49.667 29.5 -69s42.5 -29 76.5 -29c24.667 0 44.334 6 59.001 18
s22 26.333 22 43c0 22 -9.16699 38.167 -27.5 48.5z" />
    <glyph glyph-name="seven" unicode="7" horiz-adv-x="575" 
d="M331 491h-313v176h545v-140l-222 -527h-221z" />
    <glyph glyph-name="eight" unicode="8" horiz-adv-x="630" 
d="M52.5 275.5c23 29.667 53.8389 52.5 92.5059 68.5c-77.333 32 -116 83.333 -116 154c0 41.333 13.667 75.333 41 102s62.666 46.167 105.999 58.5s89.666 18.5 138.999 18.5s95.666 -6.16699 138.999 -18.5s78.666 -31.833 105.999 -58.5s41 -60.667 41 -102
c0 -70.667 -39 -122 -117 -154c38.667 -16 69.667 -38.833 93 -68.5s35 -62.167 35 -97.5c0 -43.333 -14 -79.166 -42 -107.499s-64.333 -49.166 -109 -62.499s-93.334 -20 -146.001 -20s-101.334 6.66699 -146.001 20s-81 34.166 -109 62.499s-42 64.166 -42 107.499
c0 35.333 11.5 67.833 34.5 97.5zM373.506 500.5c-14.333 8.33301 -33.834 12.5 -58.501 12.5c-25.333 0 -45.166 -4.16699 -59.499 -12.5s-21.5 -19.166 -21.5 -32.499c0 -12.667 8 -23.834 24 -33.501s35 -16.167 57 -19.5c21.333 3.33301 40 9.83301 56 19.5
s24 20.834 24 33.501c0 13.333 -7.16699 24.166 -21.5 32.499zM379.005 237.5c-18.667 10.333 -40 17.166 -64 20.499c-24 -3.33301 -45.333 -10.166 -64 -20.499s-28 -22.833 -28 -37.5s8.33301 -26.334 25 -35.001s39 -13 67 -13c27.333 0 49.5 4.33301 66.5 13
s25.5 20.334 25.5 35.001s-9.33301 27.167 -28 37.5z" />
    <glyph glyph-name="nine" unicode="9" horiz-adv-x="625" 
d="M134 194c18.667 -13.333 37.5 -22.665 56.5 -27.998s41.167 -8 66.5 -8c40 0 74.333 11.833 103 35.5s43 54.834 43 93.501v2c-16.667 -21.333 -38.834 -38 -66.501 -50s-57.167 -18 -88.5 -18c-41.333 0 -80 8.5 -116 25.5s-65 41.833 -87 74.5s-33 71.667 -33 117
c0 47.333 12 89.166 36 125.499s57 64.5 99 84.5s89.333 30 142 30c70.667 0 129.834 -14.833 177.501 -44.5s83 -70.334 106 -122.001s34.5 -110.834 34.5 -177.501c0 -72.667 -14.667 -135 -44 -187s-70.333 -91.333 -123 -118s-113.667 -40 -183 -40
c-38 0 -75.5 5.16699 -112.5 15.5s-68.833 24.5 -95.5 42.5zM374.5 480.001c-17 19.333 -42.498 29 -76.498 29c-24.667 0 -44.334 -6 -59.001 -18s-22 -26.333 -22 -43c0 -22 9.16699 -38.167 27.5 -48.5s40.166 -15.5 65.499 -15.5c36 0 67.333 9 94 27
c-2.66699 26.667 -12.5 49.667 -29.5 69z" />
    <glyph glyph-name="colon" unicode=":" horiz-adv-x="266" 
d="M66 458.5c21.333 21 46.333 31.5 75 31.5c29.333 0 54.5 -10.5 75.5 -31.5s31.5 -46.167 31.5 -75.5c0 -28.667 -10.5 -53.667 -31.5 -75s-46.167 -32 -75.5 -32c-28.667 0 -53.667 10.667 -75 32s-32 46.333 -32 75c0 29.333 10.667 54.5 32 75.5zM66 170.5
c21.333 21 46.333 31.5 75 31.5c29.333 0 54.5 -10.5 75.5 -31.5s31.5 -46.167 31.5 -75.5c0 -28.667 -10.5 -53.667 -31.5 -75s-46.167 -32 -75.5 -32c-28.667 0 -53.667 10.667 -75 32s-32 46.333 -32 75c0 29.333 10.667 54.5 32 75.5z" />
    <glyph glyph-name="semicolon" unicode=";" horiz-adv-x="281" 
d="M66 308c-21.333 21.333 -32 46.666 -32 75.999c0 28.667 10.5 53.5 31.5 74.5s46.167 31.5 75.5 31.5s54.5 -10.5 75.5 -31.5s31.5 -45.833 31.5 -74.5c0 -29.333 -10.667 -54.666 -32 -75.999s-46.333 -32 -75 -32s-53.667 10.667 -75 32zM56 -87
c16.667 7.33301 34.502 20.666 53.502 39.999s31.5 38 37.5 56c-6.66699 -2.66699 -15.334 -4 -26.001 -4c-24.667 0 -45.334 8.66699 -62.001 26s-25 39.666 -25 66.999c0 28.667 10.333 53.334 31 74.001s45 31 73 31c32 0 59.333 -11.667 82 -35s34 -54.666 34 -93.999
c0 -43.333 -10.833 -83.833 -32.5 -121.5s-52.5 -70.5 -92.5 -98.5z" />
    <glyph glyph-name="less" unicode="&#x3c;" horiz-adv-x="510" 
d="M29 400l452 180v-125l-334 -121l334 -119v-125l-452 180v130z" />
    <glyph glyph-name="equal" unicode="=" horiz-adv-x="510" 
d="M29 478h452v-105h-452v105zM29 295h452v-105h-452v105z" />
    <glyph glyph-name="greater" unicode="&#x3e;" horiz-adv-x="510" 
d="M29 215l334 119l-334 121v125l452 -180v-130l-452 -180v125z" />
    <glyph glyph-name="question" unicode="?" horiz-adv-x="450" 
d="M148 393c14.667 18 34.332 35.666 58.999 52.999c10.667 7.33301 18.5 13.333 23.5 18s7.5 9.33398 7.5 14.001c0 14 -13 21 -39 21c-13.333 0 -28.166 -3.83301 -44.499 -11.5s-30.5 -17.834 -42.5 -30.501l-112 129c28 30 61.833 52.667 101.5 68s79.834 23 120.501 23
c67.333 0 120.833 -14.5 160.5 -43.5s59.5 -68.167 59.5 -117.5c0 -36.667 -7.83301 -65.834 -23.5 -87.501s-37.834 -43.167 -66.501 -64.5c-18 -13.333 -31.167 -24.666 -39.5 -33.999s-12.5 -20.333 -12.5 -33c0 -8 1.16699 -15.333 3.5 -22s4.83301 -11.667 7.5 -15
l-158 -36c-18 24.667 -27 56.334 -27 95.001c0 31.333 7.33301 56 22 74zM152.998 170.499c21.333 21 46.333 31.5 75 31.5c29.333 0 54.5 -10.5 75.5 -31.5s31.5 -46.167 31.5 -75.5c0 -28.667 -10.5 -53.667 -31.5 -75s-46.167 -32 -75.5 -32
c-28.667 0 -53.667 10.667 -75 32s-32 46.333 -32 75c0 29.333 10.667 54.5 32 75.5z" />
    <glyph glyph-name="at" unicode="@" horiz-adv-x="783" 
d="M90.5 438c37 60.667 86.167 109.164 147.5 145.497s126 54.5 194 54.5c62.667 0 117.834 -13.333 165.501 -40s84.5 -62.5 110.5 -107.5s39 -94.167 39 -147.5c0 -56 -11.667 -103.333 -35 -142s-52.333 -67.667 -87 -87s-68.334 -29 -101.001 -29
c-29.333 0 -52.5 6.16699 -69.5 18.5s-28.167 28.166 -33.5 47.499l-2 7c-16.667 -24 -36.5 -42.167 -59.5 -54.5s-46.167 -18.5 -69.5 -18.5c-48.667 0 -87 16.333 -115 49s-42 74.334 -42 125.001c0 41.333 10.167 80.333 30.5 117s47.166 66 80.499 88
s68.666 33 105.999 33c27.333 0 51.5 -5 72.5 -15s37.5 -23.667 49.5 -41l9 44h158l-46 -217c-2 -10 -3 -19 -3 -27c0 -25.333 9.33301 -38 28 -38c13.333 0 26 5.5 38 16.5s21.833 27.167 29.5 48.5s11.5 46.333 11.5 75c0 50.667 -10.833 94.834 -32.5 132.501
s-52.667 66.834 -93 87.501s-88.166 31 -143.499 31c-60.667 0 -117.834 -16 -171.501 -48s-96.5 -74.667 -128.5 -128s-48 -110.333 -48 -171c0 -51.333 12 -97.833 36 -139.5s57 -74.5 99 -98.5s89.333 -36 142 -36c62 0 121.667 18 179 54l24 -34
c-65.333 -42 -134.666 -63 -207.999 -63c-59.333 0 -113.166 13.833 -161.499 41.5s-86.333 65.5 -114 113.5s-41.5 101 -41.5 159c0 68.667 18.5 133.334 55.5 194.001zM451 344.997c-5.33301 8 -12.833 14.667 -22.5 20s-21.5 8 -35.5 8c-29.333 0 -53 -10 -71 -30
s-27 -43.333 -27 -70c0 -19.333 5.66699 -34.833 17 -46.5s26.666 -17.5 45.999 -17.5c16.667 0 30.834 3.83301 42.501 11.5s22.167 17.5 31.5 29.5z" />
    <glyph glyph-name="A" unicode="A" horiz-adv-x="710" 
d="M483 86h-256l-26 -86h-219l246 667h254l246 -667h-219zM279 254h152l-76 235z" />
    <glyph glyph-name="B" unicode="B" horiz-adv-x="697" 
d="M54 667h405.001c43.333 0 80 -8.33301 110 -25s52.167 -38 66.5 -64s21.5 -53 21.5 -81c0 -40.667 -10.667 -74.5 -32 -101.5s-48.666 -44.167 -81.999 -51.5c36.667 -5.33301 67 -23.166 91 -53.499s36 -66.833 36 -109.5c0 -32 -7.33301 -61.833 -22 -89.5
s-36.834 -49.834 -66.501 -66.501s-65.834 -25 -108.501 -25h-419v667zM412.001 419c10.667 0 20 4.16699 28 12.5s12 18.5 12 30.5c0 11.333 -4 21 -12 29s-17.333 12 -28 12h-156v-84h156zM418.001 164c14 0 25.333 4.33203 34 12.999s13 19.334 13 32.001
s-4.33301 23.5 -13 32.5s-20 13.5 -34 13.5h-162v-91h162z" />
    <glyph glyph-name="C" unicode="C" horiz-adv-x="697" 
d="M196 31.5c-55.333 29 -98.834 69.8369 -130.501 122.504s-47.5 112.334 -47.5 179.001c0 67.333 15.833 127.166 47.5 179.499s75 93 130 122s116.5 43.5 184.5 43.5c82 0 147.833 -18.667 197.5 -56s86.5 -83.333 110.5 -138l-174 -81
c-8.66699 27.333 -25.334 50.333 -50.001 69s-52.667 28 -84 28c-30 0 -57 -7.33301 -81 -22s-42.667 -34.834 -56 -60.501s-20 -53.834 -20 -84.501s6.66699 -58.834 20 -84.501s32 -45.834 56 -60.501s51 -22 81 -22c31.333 0 59.333 9.33301 84 28
s41.334 41.667 50.001 69l174 -80c-24 -54 -61 -100 -111 -138s-115.667 -57 -197 -57c-67.333 0 -128.666 14.5 -183.999 43.5z" />
    <glyph glyph-name="D" unicode="D" horiz-adv-x="736" 
d="M54 667l298 -0.00195312c70.667 0 133.667 -13.167 189 -39.5s98.666 -64.5 129.999 -114.5s47 -109.667 47 -179s-15.667 -129.166 -47 -179.499s-74.666 -88.666 -129.999 -114.999s-118 -39.5 -188 -39.5h-299v667zM352 175.998c32.667 0 61.167 7.16699 85.5 21.5
s43 33.5 56 57.5s19.5 50.333 19.5 79c0 47.333 -13.667 85.333 -41 114s-67 43 -119 43h-97v-315h96z" />
    <glyph glyph-name="E" unicode="E" 
d="M54 667h506v-168h-304v-78h297v-168h-297v-85h304v-168h-506v667z" />
    <glyph glyph-name="F" unicode="F" horiz-adv-x="592" 
d="M54 667h506v-168h-304v-78h297v-168h-297v-253h-202v667z" />
    <glyph glyph-name="G" unicode="G" horiz-adv-x="741" 
d="M67 515.5c32.667 52.333 76.834 92.5039 132.501 120.504s117.5 42 185.5 42c72 0 132.333 -15.333 181 -46s86 -70 112 -118l-170 -87c-11.333 21.333 -27.833 38.833 -49.5 52.5s-46.167 20.5 -73.5 20.5c-31.333 0 -59.333 -7.33301 -84 -22
s-43.834 -34.834 -57.501 -60.501s-20.5 -53.834 -20.5 -84.501s6.83301 -58.834 20.5 -84.501s32.834 -45.834 57.501 -60.501s52.667 -22 84 -22c30 0 56.5 5.83301 79.5 17.5s38.5 25.834 46.5 42.501h-146v166h364c0 -87.333 -14.833 -161.166 -44.5 -221.499
s-71.834 -105.833 -126.501 -136.5s-119 -46 -193 -46c-61.333 0 -118.5 14.167 -171.5 42.5s-95.5 68.666 -127.5 120.999s-48 112.833 -48 181.5c0 69.333 16.333 130.166 49 182.499z" />
    <glyph glyph-name="H" unicode="H" horiz-adv-x="751" 
d="M495 255h-239v-255h-202v667h202v-236h239v236h202v-667h-202v255z" />
    <glyph glyph-name="I" unicode="I" horiz-adv-x="310" 
d="M54 667h202v-667h-202v667z" />
    <glyph glyph-name="J" unicode="J" horiz-adv-x="498" 
d="M82 196c29.333 -20 58 -29.999 86 -29.999c22 0 39.833 6.66699 53.5 20s20.5 31.666 20.5 54.999v426h202v-429c0 -83.333 -23 -145.833 -69 -187.5s-109 -62.5 -189 -62.5c-77.333 0 -139.333 18 -186 54z" />
    <glyph glyph-name="K" unicode="K" horiz-adv-x="671" 
d="M293 235l-37 -50v-185h-202v667h202v-250l175 250h247l-252 -310l263 -357h-246z" />
    <glyph glyph-name="L" unicode="L" horiz-adv-x="536" 
d="M54 667h202v-491h253v-176h-455v667z" />
    <glyph glyph-name="M" unicode="M" horiz-adv-x="900" 
d="M644 421l-149 -421h-90l-149 421v-421h-202v667h279l117 -340l117 340h279v-667h-202v421z" />
    <glyph glyph-name="N" unicode="N" horiz-adv-x="750" 
d="M256 358v-358h-202v667h208l232 -336v336h202v-667h-194z" />
    <glyph glyph-name="O" unicode="O" horiz-adv-x="766" 
d="M66 512c32 52.667 75.833 93.5 131.5 122.5s117.5 43.5 185.5 43.5s129.833 -14.5 185.5 -43.5s99.5 -69.833 131.5 -122.5s48 -112.334 48 -179.001s-16 -126.334 -48 -179.001s-75.833 -93.5 -131.5 -122.5s-117.5 -43.5 -185.5 -43.5s-129.833 14.5 -185.5 43.5
s-99.5 69.833 -131.5 122.5s-48 112.334 -48 179.001s16 126.334 48 179.001zM523 417.5c-13.333 25.667 -32.166 45.834 -56.499 60.501s-52.166 22 -83.499 22s-59.166 -7.33301 -83.499 -22s-43.166 -34.834 -56.499 -60.501s-20 -53.834 -20 -84.501
s6.66699 -58.834 20 -84.501s32.166 -45.834 56.499 -60.501s52.166 -22 83.499 -22s59.166 7.33301 83.499 22s43.166 34.834 56.499 60.501s20 53.834 20 84.501s-6.66699 58.834 -20 84.501z" />
    <glyph glyph-name="P" unicode="P" horiz-adv-x="662" 
d="M54 667l356 0.000976562c50 0 93.167 -10.167 129.5 -30.5s63.833 -47.833 82.5 -82.5s28 -73.334 28 -116.001c0 -42 -9.33301 -80 -28 -114s-46 -60.833 -82 -80.5s-79.333 -29.5 -130 -29.5h-154v-214h-202v667zM427.5 482.501c-11.667 11 -26.167 16.5 -43.5 16.5
h-128v-117h128c17.333 0 31.833 5.33301 43.5 16s17.5 24.667 17.5 42s-5.83301 31.5 -17.5 42.5z" />
    <glyph glyph-name="Q" unicode="Q" horiz-adv-x="766" 
d="M726.5 209c-14.333 -38.667 -34.833 -72.668 -61.5 -102.001l36 -45l-140 -112l-47 59c-40 -14 -83.667 -21 -131 -21c-68 0 -129.833 14.5 -185.5 43.5s-99.5 69.833 -131.5 122.5s-48 112.334 -48 179.001s16 126.334 48 179.001s75.833 93.5 131.5 122.5
s117.5 43.5 185.5 43.5s129.833 -14.5 185.5 -43.5s99.5 -69.833 131.5 -122.5s48 -112.334 48 -179.001c0 -44 -7.16699 -85.333 -21.5 -124zM389 165.999l-55.002 69.002l140 112l59 -75c6.66699 18 10 38.333 10 61c0 30.667 -6.66699 58.834 -20 84.501
s-32.166 45.834 -56.499 60.501s-52.166 22 -83.499 22s-59.166 -7.33301 -83.499 -22s-43.166 -34.834 -56.499 -60.501s-20 -53.834 -20 -84.501s6.66699 -58.834 20 -84.501s32.166 -45.834 56.499 -60.501s52.166 -22 83.499 -22h6z" />
    <glyph glyph-name="R" unicode="R" horiz-adv-x="678" 
d="M329 214l-72.999 0.000976562v-214h-202v667h356c50 0 93.167 -10.167 129.5 -30.5s63.833 -47.833 82.5 -82.5s28 -73.334 28 -116.001c0 -52 -11.833 -94.667 -35.5 -128s-51.834 -58 -84.501 -74l121 -236h-230zM425.501 483.001c-13 10.667 -28.5 16 -46.5 16h-123
v-117h123c18 0 33.5 5.33301 46.5 16s19.5 25 19.5 43c0 17.333 -6.5 31.333 -19.5 42z" />
    <glyph glyph-name="S" unicode="S" horiz-adv-x="613" 
d="M108 244c26.667 -26 58.498 -46.833 95.498 -62.5s76.833 -23.5 119.5 -23.5c20.667 0 38.167 3.5 52.5 10.5s21.5 16.5 21.5 28.5c0 12.667 -7.16699 22.834 -21.5 30.501s-38.5 14.5 -72.5 20.5c-56 10 -102 20.833 -138 32.5s-68.333 31.834 -97 60.501
s-43 68.667 -43 120c0 38.667 10.667 74.5 32 107.5s52.833 59.333 94.5 79s91.834 29.5 150.501 29.5c54.667 0 106 -7.83301 154 -23.5s91 -38.834 129 -69.501l-108 -143c-28 21.333 -59 37.666 -93 48.999s-65 17 -93 17c-40.667 0 -61 -11.667 -61 -35
c0 -12.667 7 -22.167 21 -28.5s39.667 -12.5 77 -18.5c50.667 -8.66699 94.834 -19.167 132.501 -31.5s70.5 -32.5 98.5 -60.5s42 -65.667 42 -113c0 -73.333 -25.5 -130.333 -76.5 -171s-121.5 -61 -211.5 -61c-128 0 -231.333 35.333 -310 106z" />
    <glyph glyph-name="T" unicode="T" horiz-adv-x="595" 
d="M197 491h-179v176h559v-176h-178v-491h-202v491z" />
    <glyph glyph-name="U" unicode="U" horiz-adv-x="749" 
d="M54 667h205v-386c0 -34.667 9.5 -62.5 28.5 -83.5s48.167 -31.5 87.5 -31.5c38.667 0 67.5 10.667 86.5 32s28.5 49 28.5 83v386h205v-392c0 -87.333 -26.333 -157 -79 -209s-133 -78 -241 -78s-188.5 25.833 -241.5 77.5s-79.5 121.167 -79.5 208.5v393z" />
    <glyph glyph-name="V" unicode="V" horiz-adv-x="710" 
d="M-18 667h229l144 -449l144 449h229l-246 -667h-254z" />
    <glyph glyph-name="W" unicode="W" horiz-adv-x="954" 
d="M477 378l-86 -378h-212l-191 667h226l86 -408l101 408h152l101 -408l85 408h227l-191 -667h-212z" />
    <glyph glyph-name="X" unicode="X" horiz-adv-x="684" 
d="M342 204l-122 -204h-238l223 342l-208 325h237l108 -190l106 190h239l-208 -324l223 -343h-238z" />
    <glyph glyph-name="Y" unicode="Y" horiz-adv-x="664" 
d="M232 265l-250 402h227l124 -225l122 225h227l-248 -402v-265h-202v265z" />
    <glyph glyph-name="Z" unicode="Z" horiz-adv-x="600" 
d="M36 160l254 331h-254v176h521v-159l-255 -332h262v-176h-528v160z" />
    <glyph glyph-name="bracketleft" unicode="[" horiz-adv-x="317" 
d="M54 678h245v-114h-120v-640h120v-114h-245v868z" />
    <glyph glyph-name="backslash" unicode="\" horiz-adv-x="362" 
d="M125 687l237 -707h-125l-237 707h125z" />
    <glyph glyph-name="bracketright" unicode="]" horiz-adv-x="317" 
d="M18 -76h120v640h-120v114h245v-868h-245v114z" />
    <glyph glyph-name="asciicircum" unicode="^" horiz-adv-x="450" 
d="M225 548l-79 -215h-127l143 334h129l140 -334h-126z" />
    <glyph glyph-name="underscore" unicode="_" horiz-adv-x="564" 
d="M-3 -40h570v-114h-570v114z" />
    <glyph glyph-name="grave" unicode="`" horiz-adv-x="275" 
d="M0 700h155l120 -144h-120z" />
    <glyph glyph-name="a" unicode="a" 
d="M366 51c-37.333 -42 -82.667 -62.999 -136 -62.999c-40 0 -76 9.83301 -108 29.5s-57.5 48.667 -76.5 87s-28.5 84.166 -28.5 137.499c0 52 9.33301 97 28 135s44.167 67.167 76.5 87.5s68.5 30.5 108.5 30.5c56 0 101.333 -21 136 -63v51h180v-483h-180v51z
M365.999 303.001c-8 10 -19.1689 17.834 -33.502 23.501s-28.166 8.5 -41.499 8.5c-25.333 0 -46.666 -8.33301 -63.999 -25s-26 -39.334 -26 -68.001c0 -29.333 8.66699 -52.5 26 -69.5s38.666 -25.5 63.999 -25.5c12.667 0 26.334 3 41.001 9s26 14 34 24v123z" />
    <glyph glyph-name="b" unicode="b" 
d="M50 667l179.999 -0.000976562v-235c34.667 42 80 63 136 63c40 0 76.167 -10.167 108.5 -30.5s57.833 -49.5 76.5 -87.5s28 -83 28 -135c0 -53.333 -9.5 -99.166 -28.5 -137.499s-44.5 -67.333 -76.5 -87s-68 -29.5 -108 -29.5c-53.333 0 -98.666 21 -135.999 63v-51
h-180v667zM263.499 155.499c14.333 -5.66699 28.168 -8.5 41.501 -8.5c25.333 0 46.666 8.5 63.999 25.5s26 40.167 26 69.5c0 28.667 -8.66699 51.5 -26 68.5s-38.666 25.5 -63.999 25.5c-12.667 0 -26.334 -3 -41.001 -9s-26 -14 -34 -24v-124
c8 -10 19.167 -17.833 33.5 -23.5z" />
    <glyph glyph-name="c" unicode="c" horiz-adv-x="502" 
d="M52.5 374.5c23.667 38.333 56.167 68 97.5 89s87.333 31.5 138 31.5c50 0 92.667 -9.16699 128 -27.5s61 -39.5 77 -63.5l-116 -109c-8 12 -19 21.833 -33 29.5s-30 11.5 -48 11.5c-26.667 0 -49.167 -8.16699 -67.5 -24.5s-27.5 -39.5 -27.5 -69.5
s9.16699 -53.333 27.5 -70s40.833 -25 67.5 -25c18 0 34 4 48 12s25 18 33 30l116 -110c-16 -24 -41.667 -45.167 -77 -63.5s-78 -27.5 -128 -27.5c-50.667 0 -96.667 10.5 -138 31.5s-73.833 50.833 -97.5 89.5s-35.5 83 -35.5 133s11.833 94.167 35.5 132.5z" />
    <glyph glyph-name="d" unicode="d" 
d="M366 51c-37.333 -42 -82.667 -62.999 -136 -62.999c-40 0 -76 9.83301 -108 29.5s-57.5 48.667 -76.5 87s-28.5 84.166 -28.5 137.499c0 52 9.33301 97 28 135s44.167 67.167 76.5 87.5s68.5 30.5 108.5 30.5c56 0 101.333 -21 136 -63v235h180v-667h-180v51z
M365.999 304.001c-8 10 -19.1689 17.833 -33.502 23.5s-28.166 8.5 -41.499 8.5c-25.333 0 -46.666 -8.5 -63.999 -25.5s-26 -39.833 -26 -68.5c0 -29.333 8.66699 -52.5 26 -69.5s38.666 -25.5 63.999 -25.5c12.667 0 26.334 3 41.001 9s26 14 34 24v124z" />
    <glyph glyph-name="e" unicode="e" horiz-adv-x="543" 
d="M50.5 370c22.333 38.667 53.5039 69.166 93.5039 91.499s85.333 33.5 136 33.5c47.333 0 90.166 -11 128.499 -33s68.333 -53.5 90 -94.5s32.5 -89.167 32.5 -144.5v-37h-328c5.33301 -17.333 17.166 -31.833 35.499 -43.5s41.833 -17.5 70.5 -17.5
c20 0 40.167 3.16699 60.5 9.5s36.5 14.5 48.5 24.5l74 -111c-22.667 -19.333 -53 -34.166 -91 -44.499s-76.333 -15.5 -115 -15.5c-50.667 0 -96.334 10.167 -137.001 30.5s-72.834 49.666 -96.501 87.999s-35.5 83.5 -35.5 135.5c0 46.667 11.167 89.334 33.5 128.001z
M225.504 340.499c-12.333 -11.667 -20.502 -25.167 -24.502 -40.5h159c-3.33301 14.667 -11.166 28 -23.499 40s-31.166 18 -56.499 18c-24 0 -42.167 -5.83301 -54.5 -17.5z" />
    <glyph glyph-name="f" unicode="f" horiz-adv-x="371" 
d="M87 327h-80v156h80v22c0 32.667 7.83301 62.167 23.5 88.5s37.5 46.833 65.5 61.5s59.667 22 95 22c44.667 0 82 -8 112 -24l-32 -120c-11.333 7.33301 -24 11 -38 11s-25.167 -4 -33.5 -12s-12.5 -19 -12.5 -33v-16h98v-156h-98v-327h-180v327z" />
    <glyph glyph-name="g" unicode="g" horiz-adv-x="595" 
d="M109 4c18 -18 39.6689 -31.333 65.002 -40s51.666 -13 78.999 -13c28.667 0 54.5 7.33301 77.5 22s34.5 41 34.5 79v26c-38 -43.333 -83.333 -65 -136 -65c-40 0 -76 8.83301 -108 26.5s-57.333 44.5 -76 80.5s-28 80.667 -28 134c0 52 9.16699 96.167 27.5 132.5
s43.5 63.5 75.5 81.5s68.333 27 109 27c55.333 0 100.666 -21 135.999 -63v51h180v-431c0 -93.333 -29.167 -158 -87.5 -194s-126.5 -54 -204.5 -54c-86 0 -159.333 24 -220 72zM365.002 305c-8 9.33301 -19.167 16.833 -33.5 22.5s-27.833 8.5 -40.5 8.5
c-26.667 0 -48.334 -6.66699 -65.001 -20s-25 -34 -25 -62s8.33301 -48.667 25 -62s38.334 -20 65.001 -20c12.667 0 26.167 2.83301 40.5 8.5s25.5 13.167 33.5 22.5v102z" />
    <glyph glyph-name="h" unicode="h" horiz-adv-x="608" 
d="M378 269c0 24 -6.00195 41.168 -18.002 51.501s-29.333 15.5 -52 15.5c-18 0 -32.833 -3.5 -44.5 -10.5s-22.5 -16.167 -32.5 -27.5v-298h-180v667h180v-239c16.667 18.667 38.834 34.5 66.501 47.5s60.834 19.5 99.501 19.5c53.333 0 93.5 -13.833 120.5 -41.5
s40.5 -63.834 40.5 -108.501v-345h-180v269z" />
    <glyph glyph-name="i" unicode="i" horiz-adv-x="280" 
d="M68.5 547.5c-19.667 19.667 -29.5 43.5 -29.5 71.5s9.83301 51.833 29.5 71.5s43.5 29.5 71.5 29.5s51.833 -9.83301 71.5 -29.5s29.5 -43.5 29.5 -71.5s-9.83301 -51.833 -29.5 -71.5s-43.5 -29.5 -71.5 -29.5s-51.833 9.83301 -71.5 29.5zM50 483h180v-483h-180v483z
" />
    <glyph glyph-name="j" unicode="j" horiz-adv-x="280" 
d="M68.5 547.5c-19.667 19.667 -29.5 43.5 -29.5 71.5s9.83301 51.833 29.5 71.5s43.5 29.5 71.5 29.5s51.833 -9.83301 71.5 -29.5s29.5 -43.5 29.5 -71.5s-9.83301 -51.833 -29.5 -71.5s-43.5 -29.5 -71.5 -29.5s-51.833 9.83301 -71.5 29.5zM230 21
c0 -65.333 -16.668 -117.833 -50.001 -157.5s-83.666 -59.5 -150.999 -59.5c-24 0 -42.667 1.33301 -56 4v145c6.66699 -1.33301 14.667 -2 24 -2c16.667 0 29.667 6 39 18s14 29.333 14 52v462h180v-462z" />
    <glyph glyph-name="k" unicode="k" horiz-adv-x="557" 
d="M265 156l-35 -47v-109h-180v667h180v-356l111 172h217l-166 -220l177 -263h-221z" />
    <glyph glyph-name="l" unicode="l" horiz-adv-x="328" 
d="M92.5 26.5c-28.333 25.667 -42.499 63.501 -42.499 113.501v527h180v-475c0 -12.667 3.66699 -23.334 11 -32.001s17 -13 29 -13c7.33301 0 14.666 1 21.999 3s12 4 14 6l32 -136c-10 -9.33301 -25.667 -17 -47 -23s-46.333 -9 -75 -9c-54 0 -95.167 12.833 -123.5 38.5z
" />
    <glyph glyph-name="m" unicode="m" horiz-adv-x="897" 
d="M667 282c0 16 -4.5 29 -13.5 39s-22.833 15 -41.5 15c-17.333 0 -31.666 -3.66699 -42.999 -11s-21.666 -16.333 -30.999 -27v-298h-180v282c0 16 -4.33301 29 -13 39s-22.667 15 -42 15c-17.333 0 -31.5 -3.66699 -42.5 -11s-21.167 -16.333 -30.5 -27v-298h-180v483
h180v-55c12.667 16 33.667 31.167 63 45.5s61.666 21.5 96.999 21.5c72 0 118.333 -28.333 139 -85c15.333 23.333 38.166 43.333 68.499 60s63.833 25 100.5 25c46 0 82.333 -12 109 -36s40 -60.333 40 -109v-350h-180v282z" />
    <glyph glyph-name="n" unicode="n" horiz-adv-x="607" 
d="M377 267c0 46 -23.335 69 -70.002 69c-18 0 -32.833 -3.5 -44.5 -10.5s-22.5 -16.167 -32.5 -27.5v-298h-180v483h180v-55c16.667 18.667 38.834 34.5 66.501 47.5s60.834 19.5 99.501 19.5c53.333 0 93.5 -14.167 120.5 -42.5s40.5 -64.833 40.5 -109.5v-343h-180v267z
" />
    <glyph glyph-name="o" unicode="o" horiz-adv-x="577" 
d="M143.5 22.5c-41 23 -72.333 54 -94 93s-32.5 81.167 -32.5 126.5s10.833 87.333 32.5 126s53 69.5 94 92.5s89.167 34.5 144.5 34.5s103.666 -11.5 144.999 -34.5s72.833 -53.833 94.5 -92.5s32.5 -80.667 32.5 -126s-10.833 -87.5 -32.5 -126.5s-53.167 -70 -94.5 -93
s-89.666 -34.5 -144.999 -34.5s-103.5 11.5 -144.5 34.5zM352 173.5c15.333 17.667 23 40.5 23 68.5c0 27.333 -7.66699 49.833 -23 67.5s-36.666 26.5 -63.999 26.5c-26.667 0 -47.667 -8.83301 -63 -26.5s-23 -40.167 -23 -67.5c0 -28 7.66699 -50.833 23 -68.5
s36.333 -26.5 63 -26.5c27.333 0 48.666 8.83301 63.999 26.5z" />
    <glyph glyph-name="p" unicode="p" horiz-adv-x="595" 
d="M50 -184l0.000976562 667h180v-51c35.333 42 80.666 63 135.999 63c40.667 0 77 -9.83301 109 -29.5s57.167 -48.5 75.5 -86.5s27.5 -83.667 27.5 -137c0 -54 -9.16699 -100 -27.5 -138s-43.5 -66.833 -75.5 -86.5s-68.333 -29.5 -109 -29.5c-54 0 -99.333 21 -136 63
v-235h-180zM368.001 310.5c-17.333 17 -38.666 25.499 -63.999 25.499c-12.667 0 -26.167 -3 -40.5 -9s-25.5 -14 -33.5 -24v-123c7.33301 -9.33301 18.5 -17.166 33.5 -23.499s28.5 -9.5 40.5 -9.5c25.333 0 46.666 8.5 63.999 25.5s26 40.167 26 69.5
c0 28.667 -8.66699 51.5 -26 68.5z" />
    <glyph glyph-name="q" unicode="q" horiz-adv-x="595" 
d="M365 -184l0.000976562 235c-36.667 -42 -82 -63 -136 -63c-40.667 0 -77 9.83301 -109 29.5s-57.167 48.5 -75.5 86.5s-27.5 84 -27.5 138c0 53.333 9.16699 99 27.5 137s43.5 66.833 75.5 86.5s68.333 29.5 109 29.5c55.333 0 100.666 -21 135.999 -63v51h180v-667h-180
zM365.001 303c-8 10 -19.167 18.001 -33.5 24.001s-27.833 9 -40.5 9c-25.333 0 -46.666 -8.5 -63.999 -25.5s-26 -39.833 -26 -68.5c0 -29.333 8.66699 -52.5 26 -69.5s38.666 -25.5 63.999 -25.5c12 0 25.5 3.16699 40.5 9.5s26.167 14.166 33.5 23.499v123z" />
    <glyph glyph-name="r" unicode="r" horiz-adv-x="390" 
d="M50 483h179.999v-55c15.333 18 37.166 33.667 65.499 47s55.833 20 82.5 20v-172c-10 3.33301 -23.667 5 -41 5c-21.333 0 -42.166 -2.83301 -62.499 -8.5s-35.166 -14.167 -44.499 -25.5v-294h-180v483z" />
    <glyph glyph-name="s" unicode="s" horiz-adv-x="490" 
d="M81 183c19.333 -15.333 46.667 -29.3311 82 -41.998s66 -19 92 -19c32 0 48 7.66699 48 23c0 7.33301 -5.16699 13 -15.5 17s-27.833 7.66699 -52.5 11c-40 5.33301 -73.667 12 -101 20s-51.666 22.833 -72.999 44.5s-32 52.5 -32 92.5c0 29.333 8.5 56.666 25.5 81.999
s41.833 45.5 74.5 60.5s71.334 22.5 116.001 22.5c39.333 0 76.666 -5.5 111.999 -16.5s67.666 -26.167 96.999 -45.5l-66 -117c-16.667 13.333 -38 25 -64 35s-52 15 -78 15c-13.333 0 -24.166 -1.83301 -32.499 -5.5s-12.5 -8.83398 -12.5 -15.501s4.33301 -12 13 -16
s25 -7.66699 49 -11c40.667 -6 75.167 -13.167 103.5 -21.5s53.5 -23.833 75.5 -46.5s33 -54.667 33 -96c0 -32 -9.16699 -60.5 -27.5 -85.5s-44.833 -44.667 -79.5 -59s-75.334 -21.5 -122.001 -21.5c-44 0 -88 6.83301 -132 20.5s-79 31.5 -105 53.5z" />
    <glyph glyph-name="t" unicode="t" horiz-adv-x="382" 
d="M129.5 26.5c-28.333 25.667 -42.499 63.501 -42.499 113.501v187h-80v156h80v132h180v-132h98v-156h-98v-135c0 -12.667 3.66699 -23.334 11 -32.001s17 -13 29 -13c7.33301 0 14.666 1 21.999 3s12 4 14 6l32 -136c-10 -9.33301 -25.667 -17 -47 -23s-46.333 -9 -75 -9
c-54 0 -95.167 12.833 -123.5 38.5z" />
    <glyph glyph-name="u" unicode="u" horiz-adv-x="606" 
d="M376 54c-16.667 -18.667 -38.832 -34.333 -66.499 -47s-60.834 -19 -99.501 -19c-53.333 0 -93.333 14 -120 42s-40 64 -40 108v345h180v-268c0 -45.333 23.333 -68 70 -68c18 0 32.667 3.5 44 10.5s22 16.167 32 27.5v298h180v-483h-180v54z" />
    <glyph glyph-name="v" unicode="v" horiz-adv-x="535" 
d="M-15 483h190l92 -276l93 276h190l-187 -483h-191z" />
    <glyph glyph-name="w" unicode="w" horiz-adv-x="805" 
d="M402 270l-78 -270h-196l-140 483h185l64 -266l85 266h161l84 -266l64 266h186l-140 -483h-196z" />
    <glyph glyph-name="x" unicode="x" horiz-adv-x="521" 
d="M261 128l-77 -128h-196l158 248l-148 235h197l65 -113l65 113h197l-148 -235l159 -248h-197z" />
    <glyph glyph-name="y" unicode="y" horiz-adv-x="606" 
d="M120 4c15.333 -18 36.502 -31.333 63.502 -40s53.833 -13 80.5 -13c36 0 63.667 8.66699 83 26s29 42.333 29 75v34c-16.667 -18.667 -38.834 -34.334 -66.501 -47.001s-60.834 -19 -99.501 -19c-53.333 0 -93.333 14 -120 42s-40 64 -40 108v313h180v-236
c0 -45.333 23.333 -68 70 -68c18 0 32.667 3.5 44 10.5s22 16.167 32 27.5v266h180v-412c0 -83.333 -25.333 -148.666 -76 -195.999s-122.667 -71 -216 -71c-86 0 -159.333 24 -220 72z" />
    <glyph glyph-name="z" unicode="z" horiz-adv-x="486" 
d="M33 132l170 195h-170v156h416v-126l-174 -201h178v-156h-420v132z" />
    <glyph glyph-name="braceleft" unicode="{" horiz-adv-x="316" 
d="M147.5 -168c-28.333 14.667 -51.002 35.998 -68.002 63.998s-25.5 60.667 -25.5 98v139c0 19.333 -4.5 34.833 -13.5 46.5s-21.833 17.5 -38.5 17.5v94c16.667 0 29.5 5.83301 38.5 17.5s13.5 27.167 13.5 46.5v138c0 37.333 8.5 70 25.5 98s39.667 49.5 68 64.5
s58.833 22.5 91.5 22.5h60v-114h-60c-17.333 0 -31.666 -6.33301 -42.999 -19s-17 -29.667 -17 -51v-159c0 -47.333 -15.333 -77.666 -46 -90.999c30.667 -13.333 46 -43.666 46 -90.999v-158c0 -21.333 5.83301 -38.5 17.5 -51.5s25.834 -19.5 42.501 -19.5h60v-114h-60
c-32.667 0 -63.167 7.33301 -91.5 22z" />
    <glyph glyph-name="bar" unicode="|" horiz-adv-x="222" 
d="M54 687h114v-707h-114v707z" />
    <glyph glyph-name="braceright" unicode="}" horiz-adv-x="316" 
d="M77 -76c16.667 0 30.832 6.50195 42.499 19.502s17.5 30.167 17.5 51.5v158c0 47.333 15.333 77.666 46 90.999c-30.667 13.333 -46 43.666 -46 90.999v159c0 21.333 -5.66699 38.333 -17 51s-25.666 19 -42.999 19h-60v114h60c32.667 0 63.167 -7.5 91.5 -22.5
s51 -36.5 68 -64.5s25.5 -60.667 25.5 -98v-138c0 -19.333 4.5 -34.833 13.5 -46.5s21.833 -17.5 38.5 -17.5v-94c-16.667 0 -29.5 -5.83301 -38.5 -17.5s-13.5 -27.167 -13.5 -46.5v-139c0 -37.333 -8.5 -70 -25.5 -98s-39.667 -49.333 -68 -64s-58.833 -22 -91.5 -22h-60
v114h60z" />
    <glyph glyph-name="asciitilde" unicode="~" horiz-adv-x="518" 
d="M451 470.5c-22 -46.333 -60.998 -69.501 -116.998 -69.501c-26.667 0 -47.834 5.66699 -63.501 17s-27.167 24.5 -34.5 39.5s-14.333 33.833 -21 56.5c-4.66699 17.333 -9 29.833 -13 37.5s-9.66699 11.5 -17 11.5c-13.333 0 -22.833 -15.333 -28.5 -46
s-10.167 -69.334 -13.5 -116.001l-118 13c6 74.667 20.333 135.5 43 182.5s61.667 70.5 117 70.5c26.667 0 48 -5.83301 64 -17.5s27.667 -25.167 35 -40.5s14.333 -34.666 21 -57.999c4.66699 -16.667 9 -28.667 13 -36s9.33301 -11 16 -11
c13.333 0 23.166 15.667 29.499 47s10.833 70 13.5 116l116 -14c-6 -75.333 -20 -136.166 -42 -182.499z" />
    <glyph glyph-name="uni00A0" unicode="&#xa0;" horiz-adv-x="255" 
 />
    <glyph glyph-name="exclamdown" unicode="&#xa1;" horiz-adv-x="280" 
d="M213.5 463.5c21 -21 31.5 -45.833 31.5 -74.5c0 -29.333 -10.5 -54.5 -31.5 -75.5s-45.833 -31.5 -74.5 -31.5s-53.5 10.5 -74.5 31.5s-31.5 46.167 -31.5 75.5c0 28.667 10.5 53.5 31.5 74.5s45.833 31.5 74.5 31.5s53.5 -10.5 74.5 -31.5zM220 235l27 -419h-214l25 419
h162z" />
    <glyph glyph-name="cent" unicode="&#xa2;" horiz-adv-x="502" 
d="M344 159c14 8 25 18.0029 33 30.0029l116 -110c-12 -18 -29.833 -34.833 -53.5 -50.5s-51.834 -26.834 -84.501 -33.501v-95h-126v93c-63.333 12 -114.5 40.167 -153.5 84.5s-58.5 99.166 -58.5 164.499s19.5 120 58.5 164s90.167 72 153.5 84v75h126v-77
c32.667 -6.66699 60.834 -17.834 84.501 -33.501s41.5 -32.5 53.5 -50.5l-116 -109c-8 12 -19 21.833 -33 29.5s-30 11.5 -48 11.5c-26.667 0 -49.167 -8.16699 -67.5 -24.5s-27.5 -39.5 -27.5 -69.5s9.16699 -53.333 27.5 -70s40.833 -25 67.5 -25c18 0 34 4 48 12z" />
    <glyph glyph-name="sterling" unicode="&#xa3;" horiz-adv-x="581" 
d="M569 40c-32 -34.667 -85.3359 -52 -160.003 -52c-21.333 0 -40.833 2.16699 -58.5 6.5s-38.167 10.833 -61.5 19.5c-27.333 10.667 -48.333 16 -63 16c-33.333 0 -71.333 -12.333 -114 -37l-66 132c56.667 31.333 85 63.333 85 96c0 13.333 -3 29.666 -9 48.999h-96v109
h39c-15.333 30.667 -23 57.667 -23 81c0 45.333 13.333 84.333 40 117s60.167 57.5 100.5 74.5s80.5 25.5 120.5 25.5c66.667 0 121.167 -10.333 163.5 -31s75.5 -53.667 99.5 -99l-160 -92c-7.33301 20 -17.833 35 -31.5 45s-28.834 15 -45.501 15
c-19.333 0 -35.166 -5.66699 -47.499 -17s-18.5 -25.333 -18.5 -42c0 -12 1.5 -22.833 4.5 -32.5s8.16699 -23.167 15.5 -40.5l2 -4h134v-109h-109c-1.33301 -16 -7.16602 -32.5 -17.499 -49.5s-22.5 -29.167 -36.5 -36.5c12.667 4.66699 28 7 46 7c12 0 22.333 -1 31 -3
s19.334 -5.33301 32.001 -10c8 -3.33301 16.333 -6.16602 25 -8.49902s17.334 -3.5 26.001 -3.5c34.667 0 60 11 76 33z" />
    <glyph glyph-name="currency" unicode="&#xa4;" horiz-adv-x="648" 
d="M560 200l68 -66l-104 -104l-76 73c-38.667 -16 -80 -24 -124 -24c-46 0 -87.667 8.33301 -125 25l-74 -74l-105 104l68 68c-23.333 39.333 -35 83 -35 131c0 49.333 12 93.333 36 132l-69 69l105 104l76 -76c37.333 16 78.333 24 123 24c44 0 85.333 -8 124 -24l76 76
l104 -104l-68 -69c24 -38.667 36 -82.667 36 -132c0 -48 -12 -92.333 -36 -133zM392.5 264.5c16.333 17.667 24.5 40.5 24.5 68.5c0 27.333 -8.16699 49.833 -24.5 67.5s-39.166 26.5 -68.499 26.5c-28.667 0 -51.167 -8.83301 -67.5 -26.5s-24.5 -40.167 -24.5 -67.5
c0 -28 8.16699 -50.833 24.5 -68.5s38.833 -26.5 67.5 -26.5c29.333 0 52.166 8.83301 68.499 26.5z" />
    <glyph glyph-name="yen" unicode="&#xa5;" horiz-adv-x="664" 
d="M499 370h142v-105h-207v-53h207v-105h-207v-107h-202v107h-207v105h207v53h-207v105h142l-185 297h227l124 -225l122 225h227z" />
    <glyph glyph-name="brokenbar" unicode="&#xa6;" horiz-adv-x="222" 
d="M54 687h114v-316h-114v316zM54 296h114v-316h-114v316z" />
    <glyph glyph-name="section" unicode="&#xa7;" horiz-adv-x="500" 
d="M475 85c0 -51.333 -21.502 -91.835 -64.502 -121.502s-97.833 -44.5 -164.5 -44.5c-48 0 -91.833 7.5 -131.5 22.5s-73.834 34.167 -102.501 57.5l69 112c20.667 -18 46.334 -34.167 77.001 -48.5s60 -21.5 88 -21.5c38 0 57 9 57 27
c0 11.333 -6.66699 19.666 -20 24.999s-35 11.333 -65 18c-37.333 7.33301 -68.666 15.666 -93.999 24.999s-47.5 25 -66.5 47s-28.5 52 -28.5 90c0 28.667 8.5 53.5 25.5 74.5s35.167 36.5 54.5 46.5c-26.667 12.667 -46.667 30.334 -60 53.001s-20 48.334 -20 77.001
c0 29.333 9.5 55.666 28.5 78.999s44.833 41.5 77.5 54.5s69 19.5 109 19.5c89.333 0 159 -21.667 209 -65l-65 -105c-17.333 14 -38.333 25.5 -63 34.5s-48.667 13.5 -72 13.5c-34.667 0 -52 -9 -52 -27c0 -9.33301 6.16699 -16.166 18.5 -20.499
s32.833 -9.16602 61.5 -14.499c38.667 -7.33301 71 -15.333 97 -24s48.667 -23.667 68 -45s29 -50.666 29 -87.999c0 -26 -6.66699 -50.5 -20 -73.5s-31.666 -41.167 -54.999 -54.5c50 -24.667 75 -65.667 75 -123zM200.998 302.998c0 -28.667 21 -46.667 63 -54
c12.667 5.33301 21.5 12 26.5 20s7.5 17.667 7.5 29c0 28 -18 45.667 -54 53c-28.667 -5.33301 -43 -21.333 -43 -48z" />
    <glyph glyph-name="dieresis" unicode="&#xa8;" horiz-adv-x="433" 
d="M45 555c-17.333 17.333 -26 38.333 -26 63c0 25.333 8.66699 46.5 26 63.5s38.333 25.5 63 25.5c25.333 0 46.5 -8.5 63.5 -25.5s25.5 -38.167 25.5 -63.5c0 -24.667 -8.5 -45.667 -25.5 -63s-38.167 -26 -63.5 -26c-24.667 0 -45.667 8.66699 -63 26zM261 555
c-17.333 17.333 -26 38.333 -26 63s8.66699 45.667 26 63s38.333 26 63 26c25.333 0 46.666 -8.66699 63.999 -26s26 -38.333 26 -63s-8.66699 -45.667 -26 -63s-38.666 -26 -63.999 -26c-24.667 0 -45.667 8.66699 -63 26z" />
    <glyph glyph-name="copyright" unicode="&#xa9;" horiz-adv-x="778" 
d="M216.5 34.5c-53 31 -95.001 73.001 -126.001 126.001s-46.5 110.5 -46.5 172.5c0 62.667 15.5 120.334 46.5 173.001s72.833 94.5 125.5 125.5s110.334 46.5 173.001 46.5s120.334 -15.5 173.001 -46.5s94.5 -72.833 125.5 -125.5s46.5 -110.334 46.5 -173.001
s-15.5 -120.334 -46.5 -173.001s-72.833 -94.5 -125.5 -125.5s-110.334 -46.5 -173.001 -46.5c-62 0 -119.5 15.5 -172.5 46.5zM237.499 595.001c-46.333 -27.333 -83.166 -64.166 -110.499 -110.499s-41 -96.833 -41 -151.5s13.667 -105.167 41 -151.5
s64.166 -83.166 110.499 -110.499s96.833 -41 151.5 -41s105.167 13.667 151.5 41s83.166 64.166 110.499 110.499s41 96.833 41 151.5s-13.667 105.167 -41 151.5s-64.166 83.166 -110.499 110.499s-96.833 41 -151.5 41s-105.167 -13.667 -151.5 -41zM481.499 143.001
c-26.333 -12.667 -54.499 -18.998 -84.499 -18.998c-38 0 -72.833 9 -104.5 27s-56.834 43 -75.501 75s-28 68 -28 108s9.33301 75.833 28 107.5s43.834 56.334 75.501 74.001s66.5 26.5 104.5 26.5c30 0 58 -6 84 -18s48 -28.667 66 -50l-37 -37
c-13.333 18 -29.833 32.167 -49.5 42.5s-40.834 15.5 -63.501 15.5c-28 0 -53.667 -6.83301 -77 -20.5s-41.833 -32.834 -55.5 -57.501s-20.5 -52.334 -20.5 -83.001s6.83301 -58.334 20.5 -83.001s32.167 -44.167 55.5 -58.5s49 -21.5 77 -21.5
c23.333 0 44.833 5.33301 64.5 16s36.167 25 49.5 43l38 -36c-18.667 -21.333 -41.167 -38.333 -67.5 -51z" />
    <glyph glyph-name="ordfeminine" unicode="&#xaa;" horiz-adv-x="392" 
d="M225 355c-7.33301 -9.33301 -19.165 -17.834 -35.498 -25.501s-36.5 -11.5 -60.5 -11.5c-28 0 -53.167 9 -75.5 27s-33.5 43.333 -33.5 76s11 57.5 33 74.5s47.333 25.5 76 25.5c24 0 44.167 -3.5 60.5 -10.5s28.166 -14.5 35.499 -22.5v24
c0 12.667 -4.83301 23 -14.5 31s-23.834 12 -42.501 12c-14.667 0 -29.5 -3.16699 -44.5 -9.5s-28.833 -15.166 -41.5 -26.499l-44 82c20.667 15.333 45 27 73 35s54.667 12 80 12c46.667 0 85.167 -10.333 115.5 -31s45.5 -56.667 45.5 -108v-183h-127v29zM225.001 428.999
c-3.33301 5.33301 -9.16699 9.66699 -17.5 13s-16.5 5 -24.5 5c-10.667 0 -19.667 -2 -27 -6s-11 -10.667 -11 -20c0 -17.333 12.667 -26 38 -26c8.66699 0 17 1.66699 25 5s13.667 8 17 14v15z" />
    <glyph glyph-name="guillemotleft" unicode="&#xab;" horiz-adv-x="615" 
d="M30 243l160 177h160l-160 -177l160 -180h-160zM265 243l160 177h160l-160 -177l160 -180h-160z" />
    <glyph glyph-name="logicalnot" unicode="&#xac;" horiz-adv-x="527" 
d="M373 190v183h-344v105h452v-288h-108z" />
    <glyph glyph-name="uni00AD" unicode="&#xad;" horiz-adv-x="300" 
d="M30 317h240v-150h-240v150z" />
    <glyph glyph-name="registered" unicode="&#xae;" horiz-adv-x="494" 
d="M140.5 281.5c-32.333 19 -58 44.667 -77 77s-28.5 67.833 -28.5 106.5s9.5 74.167 28.5 106.5s44.667 58 77 77s67.833 28.5 106.5 28.5s74.167 -9.5 106.5 -28.5s58 -44.667 77 -77s28.5 -67.833 28.5 -106.5s-9.5 -74.167 -28.5 -106.5s-44.667 -58 -77 -77
s-67.833 -28.5 -106.5 -28.5s-74.167 9.5 -106.5 28.5zM158 618.5c-27.333 -15.667 -48.833 -37 -64.5 -64s-23.5 -56.833 -23.5 -89.5c0 -32 8 -61.5 24 -88.5s37.5 -48.5 64.5 -64.5s56.5 -24 88.5 -24s61.5 8 88.5 24s48.5 37.5 64.5 64.5s24 56.5 24 88.5
c0 32.667 -7.83301 62.5 -23.5 89.5s-37.167 48.333 -64.5 64s-57 23.5 -89 23.5s-61.667 -7.83301 -89 -23.5zM241 439l-39 0.000976562v-96h-37v243h99c24 0 43.667 -6.83301 59 -20.5s23 -31.5 23 -53.5c0 -16.667 -3.83301 -30.334 -11.5 -41.001
s-16.5 -18.5 -26.5 -23.5s-18 -7.5 -24 -7.5l65 -97h-45zM202 555.001v-84h62c13.333 0 24 3.66699 32 11s12 17.333 12 30c0 13.333 -4 23.833 -12 31.5s-18.667 11.5 -32 11.5h-62z" />
    <glyph glyph-name="macron" unicode="&#xaf;" horiz-adv-x="363" 
d="M0 648h363v-97h-363v97z" />
    <glyph glyph-name="degree" unicode="&#xb0;" horiz-adv-x="331" 
d="M91 400c-22.667 13.333 -40.667 31.333 -54 54s-20 47.334 -20 74.001s6.66699 51.5 20 74.5s31.333 41.167 54 54.5s47.334 20 74.001 20s51.5 -6.66699 74.5 -20s41.167 -31.5 54.5 -54.5s20 -47.833 20 -74.5s-6.66699 -51.334 -20 -74.001s-31.5 -40.667 -54.5 -54
s-47.833 -20 -74.5 -20s-51.334 6.66699 -74.001 20zM124.5 569.5c-11 -11.667 -16.5 -25.5 -16.5 -41.5s5.5 -29.5 16.5 -40.5s24.5 -16.5 40.5 -16.5s29.833 5.5 41.5 16.5s17.5 24.5 17.5 40.5s-5.83301 29.833 -17.5 41.5s-25.5 17.5 -41.5 17.5
s-29.5 -5.83301 -40.5 -17.5z" />
    <glyph glyph-name="plusminus" unicode="&#xb1;" horiz-adv-x="510" 
d="M313 135h-116v193h-168v105h168v185h116v-185h168v-105h-168v-193zM29 105h452v-105h-452v105z" />
    <glyph glyph-name="uni00B2" unicode="&#xb2;" horiz-adv-x="407" 
d="M42 516l137.496 98.001c27.667 20.667 45.334 35.5 53.001 44.5s11.5 17.833 11.5 26.5c0 12 -4.33301 21.333 -13 28s-21 10 -37 10c-20 0 -40 -5 -60 -15s-35.333 -21 -46 -33l-66 84c22.667 23.333 49.834 40.5 81.501 51.5s62.834 16.5 93.501 16.5
c55.333 0 99 -11.833 131 -35.5s48 -55.5 48 -95.5c0 -26 -10.167 -51.333 -30.5 -76s-58.166 -56.334 -113.499 -95.001h148v-104h-338v95z" />
    <glyph glyph-name="uni00B3" unicode="&#xb3;" horiz-adv-x="407" 
d="M97 431c-30.667 11.333 -55.333 26.3311 -74 44.998l62 87c15.333 -15.333 33.666 -26.666 54.999 -33.999s40.333 -11 57 -11c18 0 31.667 2.5 41 7.5s14 11.167 14 18.5c0 12 -5.66699 19.667 -17 23s-30 5 -56 5c-28.667 0 -45 -0.333008 -49 -1v102
c6 -0.666992 22 -1 48 -1c25.333 0 42.833 1.83301 52.5 5.5s14.5 10.5 14.5 20.5c0 16.667 -19 25 -57 25c-18 0 -36 -3.33301 -54 -10s-34 -16.334 -48 -29.001l-58 77c42 44 100.333 66 175 66c56.667 0 99.667 -10.167 129 -30.5s44 -47.166 44 -80.499
c0 -20.667 -8.16699 -39.5 -24.5 -56.5s-37.833 -27.833 -64.5 -32.5c24.667 -2 46.834 -11.5 66.501 -28.5s29.5 -38.5 29.5 -64.5c0 -35.333 -16.667 -64.166 -50 -86.499s-77 -33.5 -131 -33.5c-39.333 0 -74.333 5.66699 -105 17z" />
    <glyph glyph-name="acute" unicode="&#xb4;" horiz-adv-x="275" 
d="M0 556l120 144h155l-155 -144h-120z" />
    <glyph glyph-name="uni00B5" unicode="&#xb5;" horiz-adv-x="620" 
d="M50 -184l0.000976562 667.001h180v-268c0 -45.333 23.333 -68 70 -68c18 0 32.667 3.5 44 10.5s22 16.167 32 27.5v298h180v-305c0 -10 3.33301 -17.667 10 -23s14.667 -8 24 -8c6.66699 0 13 1 19 3l11 -152c-10 -2.66699 -22.333 -5 -37 -7s-28.334 -3 -41.001 -3
c-80.667 0 -132.667 29 -156 87c-10.667 -26.667 -26.167 -47.834 -46.5 -63.501s-43.833 -23.5 -70.5 -23.5c-15.333 0 -28.333 2.66699 -39 8v-180h-180z" />
    <glyph glyph-name="paragraph" unicode="&#xb6;" horiz-adv-x="449" 
d="M347 587l-68 0.00390625v-687h-80v423c-31.333 0 -60.166 7.66699 -86.499 23s-47.166 36.166 -62.499 62.499s-23 55.166 -23 86.499s7.66699 60.166 23 86.499s36.166 47.166 62.499 62.499s55.166 23 86.499 23h228v-767h-80v687z" />
    <glyph glyph-name="periodcentered" unicode="&#xb7;" horiz-adv-x="283" 
d="M66.5 169.5c-21 21 -31.5 45.833 -31.5 74.5c0 29.333 10.5 54.5 31.5 75.5s45.833 31.5 74.5 31.5s53.5 -10.5 74.5 -31.5s31.5 -46.167 31.5 -75.5c0 -28.667 -10.5 -53.5 -31.5 -74.5s-45.833 -31.5 -74.5 -31.5s-53.5 10.5 -74.5 31.5z" />
    <glyph glyph-name="cedilla" unicode="&#xb8;" horiz-adv-x="237" 
d="M31 -102c28.667 -20 56.335 -30 83.002 -30c11.333 0 21.166 2 29.499 6s12.5 10 12.5 18c0 11.333 -7 17 -21 17c-10.667 0 -19.334 -4 -26.001 -12l-59 34l30 80h80l-25 -58c10 6 21.333 9 34 9c18.667 0 34.667 -6.83301 48 -20.5s20 -31.167 20 -52.5
c0 -27.333 -11.333 -49 -34 -65s-50.667 -24 -84 -24c-25.333 0 -48.5 3.16699 -69.5 9.5s-37.5 14.5 -49.5 24.5z" />
    <glyph glyph-name="uni00B9" unicode="&#xb9;" horiz-adv-x="336" 
d="M144 654l-70 -69l-74 78l163 158h113v-400h-132v233z" />
    <glyph glyph-name="ordmasculine" unicode="&#xba;" horiz-adv-x="405" 
d="M42 565c14.667 25.333 35.834 45.5 63.501 60.5s59.834 22.5 96.501 22.5c37.333 0 69.833 -7.5 97.5 -22.5s48.834 -35.167 63.501 -60.5s22 -52.666 22 -81.999s-7.33301 -56.666 -22 -81.999s-35.834 -45.5 -63.501 -60.5s-60.167 -22.5 -97.5 -22.5
c-36.667 0 -68.834 7.5 -96.501 22.5s-48.834 35.167 -63.501 60.5s-22 52.666 -22 81.999s7.33301 56.666 22 81.999zM202 546c-34 0 -51 -21 -51 -63c0 -43.333 17 -65 51 -65c35.333 0 53 21.667 53 65c0 42 -17.667 63 -53 63z" />
    <glyph glyph-name="guillemotright" unicode="&#xbb;" horiz-adv-x="615" 
d="M30 63l160 180l-160 177h160l160 -177l-160 -180h-160zM265 63l160 180l-160 177h160l160 -177l-160 -180h-160z" />
    <glyph glyph-name="onequarter" unicode="&#xbc;" horiz-adv-x="873" 
d="M144 500l-70 -69l-74 78l163 158h113v-400h-132v233zM164 0l426 667h98l-427 -667h-97zM813 0h-131v71h-197v87l143 242h185v-227h47v-102h-47v-71zM614 173h68v118z" />
    <glyph glyph-name="onehalf" unicode="&#xbd;" horiz-adv-x="923" 
d="M144 500l-70 -69l-74 78l163 158h113v-400h-132v233zM164 0l426 667h98l-427 -667h-97zM558 95l137.496 98.001c27.667 20.667 45.334 35.5 53.001 44.5s11.5 17.833 11.5 26.5c0 12 -4.33301 21.333 -13 28s-21 10 -37 10c-20 0 -40 -5 -60 -15s-35.333 -21 -46 -33
l-66 84c22.667 23.333 49.834 40.5 81.501 51.5s62.834 16.5 93.501 16.5c55.333 0 99 -11.833 131 -35.5s48 -55.5 48 -95.5c0 -26 -10.167 -51.333 -30.5 -76s-58.166 -56.334 -113.499 -95.001h148v-104h-338v95z" />
    <glyph glyph-name="threequarters" unicode="&#xbe;" horiz-adv-x="944" 
d="M97 277c-30.667 11.333 -55.333 26.3311 -74 44.998l62 87c15.333 -15.333 33.666 -26.666 54.999 -33.999s40.333 -11 57 -11c18 0 31.667 2.5 41 7.5s14 11.167 14 18.5c0 12 -5.66699 19.667 -17 23s-30 5 -56 5c-28.667 0 -45 -0.333008 -49 -1v102
c6 -0.666992 22 -1 48 -1c25.333 0 42.833 1.83301 52.5 5.5s14.5 10.5 14.5 20.5c0 16.667 -19 25 -57 25c-18 0 -36 -3.33301 -54 -10s-34 -16.334 -48 -29.001l-58 77c42 44 100.333 66 175 66c56.667 0 99.667 -10.167 129 -30.5s44 -47.166 44 -80.499
c0 -20.667 -8.16699 -39.5 -24.5 -56.5s-37.833 -27.833 -64.5 -32.5c24.667 -2 46.834 -11.5 66.501 -28.5s29.5 -38.5 29.5 -64.5c0 -35.333 -16.667 -64.166 -50 -86.499s-77 -33.5 -131 -33.5c-39.333 0 -74.333 5.66699 -105 17zM235.001 -0.00195312l426 667h98
l-427 -667h-97zM884.001 -0.00195312h-131v71h-197v87l143 242h185v-227h47v-102h-47v-71zM685.001 172.998h68v118z" />
    <glyph glyph-name="questiondown" unicode="&#xbf;" horiz-adv-x="401" 
d="M297.5 313c-21 -21.333 -46.167 -32 -75.5 -32c-28.667 0 -53.667 10.667 -75 32s-32 46.333 -32 75c0 29.333 10.667 54.5 32 75.5s46.333 31.5 75 31.5c29.333 0 54.5 -10.5 75.5 -31.5s31.5 -46.167 31.5 -75.5c0 -28.667 -10.5 -53.667 -31.5 -75zM302 90
c-14.667 -18 -34.3311 -35.666 -58.998 -52.999c-10.667 -7.33301 -18.5 -13.333 -23.5 -18s-7.5 -9.33398 -7.5 -14.001c0 -14 13 -21 39 -21c13.333 0 28.166 3.83301 44.499 11.5s30.5 17.834 42.5 30.501l112 -129c-28 -30 -61.833 -52.667 -101.5 -68
s-79.834 -23 -120.501 -23c-67.333 0 -120.833 14.5 -160.5 43.5s-59.5 68.167 -59.5 117.5c0 25.333 4.33301 47.5 13 66.5s19 34.333 31 46s27.333 24.834 46 39.501c18 13.333 31.167 24.666 39.5 33.999s12.5 20.333 12.5 33c0 8 -1.16699 15.333 -3.5 22
s-4.83301 11.667 -7.5 15l158 36c18 -24.667 27 -56.334 27 -95.001c0 -31.333 -7.33301 -56 -22 -74z" />
    <glyph glyph-name="Agrave" unicode="&#xc0;" horiz-adv-x="710" 
d="M483 86h-256l-26 -86h-219l246 667h254l246 -667h-219zM279 254h152l-76 235zM142 867h155l120 -144h-120z" />
    <glyph glyph-name="Aacute" unicode="&#xc1;" horiz-adv-x="710" 
d="M483 86h-256l-26 -86h-219l246 667h254l246 -667h-219zM279 254h152l-76 235zM291 723l120 144h155l-155 -144h-120z" />
    <glyph glyph-name="Acircumflex" unicode="&#xc2;" horiz-adv-x="710" 
d="M483 86h-256l-26 -86h-219l246 667h254l246 -667h-219zM279 254h152l-76 235zM355 796l-61 -73h-105l88 144h156l91 -144h-105z" />
    <glyph glyph-name="Atilde" unicode="&#xc3;" horiz-adv-x="710" 
d="M483 86h-256l-26 -86h-219l246 667h254l246 -667h-219zM279 254h152l-76 235zM321 755c-4.66699 3.33301 -8.83398 5.66602 -12.501 6.99902s-7.16699 2 -10.5 2c-6.66699 0 -12.334 -3.16699 -17.001 -9.5s-7 -15.5 -7 -27.5h-89c0 89.333 39.333 134 118 134
c16.667 0 30.5 -2.33301 41.5 -7s23.167 -11.667 36.5 -21c1.33301 -0.666992 4.33301 -2.66699 9 -6s8.83398 -5.66602 12.501 -6.99902s7.16699 -2 10.5 -2c6.66699 0 12.334 3.16699 17.001 9.5s7 15.5 7 27.5h89c0 -89.333 -39.333 -134 -118 -134
c-16.667 0 -30.5 2.33301 -41.5 7s-23.167 11.667 -36.5 21c-1.33301 0.666992 -4.33301 2.66699 -9 6z" />
    <glyph glyph-name="Adieresis" unicode="&#xc4;" horiz-adv-x="710" 
d="M483 86h-256l-26 -86h-219l246 667h254l246 -667h-219zM279 254h152l-76 235zM183.5 722c-17 17.333 -25.5 38.333 -25.5 63c0 25.333 8.5 46.5 25.5 63.5s38.167 25.5 63.5 25.5c24.667 0 45.667 -8.5 63 -25.5s26 -38.167 26 -63.5c0 -24.667 -8.66699 -45.667 -26 -63
s-38.333 -26 -63 -26c-25.333 0 -46.5 8.66699 -63.5 26zM400 722c-17.333 17.333 -26 38.333 -26 63s8.66699 45.667 26 63s38.333 26 63 26c25.333 0 46.666 -8.66699 63.999 -26s26 -38.333 26 -63s-8.66699 -45.667 -26 -63s-38.666 -26 -63.999 -26
c-24.667 0 -45.667 8.66699 -63 26z" />
    <glyph glyph-name="Aring" unicode="&#xc5;" horiz-adv-x="710" 
d="M483 86h-256l-26 -86h-219l246 667h254l246 -667h-219zM279 254h152l-76 235zM277 877c22 22 48.333 33 79 33s56.667 -11 78 -33s32 -48.333 32 -79s-10.667 -57 -32 -79s-47.333 -33 -78 -33s-57 11 -79 33s-33 48.333 -33 79s11 57 33 79zM380 822.5
c-6.66699 7 -14.667 10.5 -24 10.5s-17.5 -3.5 -24.5 -10.5s-10.5 -15.167 -10.5 -24.5s3.5 -17.5 10.5 -24.5s15.167 -10.5 24.5 -10.5s17.333 3.5 24 10.5s10 15.167 10 24.5s-3.33301 17.5 -10 24.5z" />
    <glyph glyph-name="AE" unicode="&#xc6;" horiz-adv-x="989" 
d="M453 86h-213l-45 -86h-220l395 667h589v-168h-304v-78h297v-168h-297v-85h304v-168h-506v86zM330 254h123v235z" />
    <glyph glyph-name="Ccedilla" unicode="&#xc7;" horiz-adv-x="697" 
d="M464 194c24.667 18.667 41.335 41.6729 50.002 69.0059l174 -80c-22 -50.667 -55.667 -94.5 -101 -131.5s-104 -57.833 -176 -62.5l-16 -36c10 6 21.333 9 34 9c18.667 0 34.667 -6.83301 48 -20.5s20 -31.167 20 -52.5c0 -27.333 -11.333 -49 -34 -65
s-50.667 -24 -84 -24c-25.333 0 -48.5 3.16699 -69.5 9.5s-37.5 14.5 -49.5 24.5l31 64c28.667 -20 56.334 -30 83.001 -30c11.333 0 21.166 2 29.499 6s12.5 10 12.5 18c0 11.333 -7 17 -21 17c-10.667 0 -19.334 -4 -26.001 -12l-59 34l22 60
c-60 6.66699 -113.833 25.167 -161.5 55.5s-85 70.166 -112 119.499s-40.5 105 -40.5 167c0 67.333 15.833 127.166 47.5 179.499s75 93 130 122s116.5 43.5 184.5 43.5c82 0 147.833 -18.667 197.5 -56s86.5 -83.333 110.5 -138l-174 -81
c-8.66699 27.333 -25.334 50.333 -50.001 69s-52.667 28 -84 28c-30 0 -57 -7.33301 -81 -22s-42.667 -34.834 -56 -60.501s-20 -53.834 -20 -84.501s6.66699 -58.834 20 -84.501s32 -45.834 56 -60.501s51 -22 81 -22c31.333 0 59.333 9.33301 84 28z" />
    <glyph glyph-name="Egrave" unicode="&#xc8;" 
d="M54 667h506v-168h-304v-78h297v-168h-297v-85h304v-168h-506v667zM101 867h155l120 -144h-120z" />
    <glyph glyph-name="Eacute" unicode="&#xc9;" 
d="M54 667h506v-168h-304v-78h297v-168h-297v-85h304v-168h-506v667zM250 723l120 144h155l-155 -144h-120z" />
    <glyph glyph-name="Ecircumflex" unicode="&#xca;" 
d="M54 667h506v-168h-304v-78h297v-168h-297v-85h304v-168h-506v667zM314 796l-61 -73h-105l88 144h156l91 -144h-105z" />
    <glyph glyph-name="Edieresis" unicode="&#xcb;" 
d="M54 667h506v-168h-304v-78h297v-168h-297v-85h304v-168h-506v667zM142.5 722c-17 17.333 -25.5 38.333 -25.5 63c0 25.333 8.5 46.5 25.5 63.5s38.167 25.5 63.5 25.5c24.667 0 45.667 -8.5 63 -25.5s26 -38.167 26 -63.5c0 -24.667 -8.66699 -45.667 -26 -63
s-38.333 -26 -63 -26c-25.333 0 -46.5 8.66699 -63.5 26zM359 722c-17.333 17.333 -26 38.333 -26 63s8.66699 45.667 26 63s38.333 26 63 26c25.333 0 46.666 -8.66699 63.999 -26s26 -38.333 26 -63s-8.66699 -45.667 -26 -63s-38.666 -26 -63.999 -26
c-24.667 0 -45.667 8.66699 -63 26z" />
    <glyph glyph-name="Igrave" unicode="&#xcc;" horiz-adv-x="310" 
d="M54 667h202v-667h-202v667zM-58 867h155l120 -144h-120z" />
    <glyph glyph-name="Iacute" unicode="&#xcd;" horiz-adv-x="310" 
d="M54 667h202v-667h-202v667zM91 723l120 144h155l-155 -144h-120z" />
    <glyph glyph-name="Icircumflex" unicode="&#xce;" horiz-adv-x="310" 
d="M54 667h202v-667h-202v667zM155 796l-61 -73h-105l88 144h156l91 -144h-105z" />
    <glyph glyph-name="Idieresis" unicode="&#xcf;" horiz-adv-x="310" 
d="M54 667h202v-667h-202v667zM-16.5 722c-17 17.333 -25.5 38.333 -25.5 63c0 25.333 8.5 46.5 25.5 63.5s38.167 25.5 63.5 25.5c24.667 0 45.667 -8.5 63 -25.5s26 -38.167 26 -63.5c0 -24.667 -8.66699 -45.667 -26 -63s-38.333 -26 -63 -26
c-25.333 0 -46.5 8.66699 -63.5 26zM200 722c-17.333 17.333 -26 38.333 -26 63s8.66699 45.667 26 63s38.333 26 63 26c25.333 0 46.666 -8.66699 63.999 -26s26 -38.333 26 -63s-8.66699 -45.667 -26 -63s-38.666 -26 -63.999 -26c-24.667 0 -45.667 8.66699 -63 26z" />
    <glyph glyph-name="Eth" unicode="&#xd0;" horiz-adv-x="757" 
d="M562 627.5c55.333 -26.333 98.666 -64.502 129.999 -114.502s47 -109.667 47 -179s-15.667 -129.166 -47 -179.499s-74.666 -88.666 -129.999 -114.999s-118 -39.5 -188 -39.5h-299v254h-68v159h68v254h298c70.667 0 133.667 -13.167 189 -39.5zM458.5 197.498
c24.333 14.333 43 33.5 56 57.5s19.5 50.333 19.5 79c0 47.333 -13.667 85.333 -41 114s-67 43 -119 43h-97v-78h129v-159h-129v-78h96c32.667 0 61.167 7.16699 85.5 21.5z" />
    <glyph glyph-name="Ntilde" unicode="&#xd1;" horiz-adv-x="750" 
d="M256 358v-358h-202v667h208l232 -336v336h202v-667h-194zM341 755c-4.66699 3.33301 -8.83398 5.66602 -12.501 6.99902s-7.16699 2 -10.5 2c-6.66699 0 -12.334 -3.16699 -17.001 -9.5s-7 -15.5 -7 -27.5h-89c0 89.333 39.333 134 118 134
c16.667 0 30.5 -2.33301 41.5 -7s23.167 -11.667 36.5 -21c1.33301 -0.666992 4.33301 -2.66699 9 -6s8.83398 -5.66602 12.501 -6.99902s7.16699 -2 10.5 -2c6.66699 0 12.334 3.16699 17.001 9.5s7 15.5 7 27.5h89c0 -89.333 -39.333 -134 -118 -134
c-16.667 0 -30.5 2.33301 -41.5 7s-23.167 11.667 -36.5 21c-1.33301 0.666992 -4.33301 2.66699 -9 6z" />
    <glyph glyph-name="Ograve" unicode="&#xd2;" horiz-adv-x="766" 
d="M66 512c32 52.667 75.833 93.5 131.5 122.5s117.5 43.5 185.5 43.5s129.833 -14.5 185.5 -43.5s99.5 -69.833 131.5 -122.5s48 -112.334 48 -179.001s-16 -126.334 -48 -179.001s-75.833 -93.5 -131.5 -122.5s-117.5 -43.5 -185.5 -43.5s-129.833 14.5 -185.5 43.5
s-99.5 69.833 -131.5 122.5s-48 112.334 -48 179.001s16 126.334 48 179.001zM523 417.5c-13.333 25.667 -32.166 45.834 -56.499 60.501s-52.166 22 -83.499 22s-59.166 -7.33301 -83.499 -22s-43.166 -34.834 -56.499 -60.501s-20 -53.834 -20 -84.501
s6.66699 -58.834 20 -84.501s32.166 -45.834 56.499 -60.501s52.166 -22 83.499 -22s59.166 7.33301 83.499 22s43.166 34.834 56.499 60.501s20 53.834 20 84.501s-6.66699 58.834 -20 84.501zM170 867h155l120 -144h-120z" />
    <glyph glyph-name="Oacute" unicode="&#xd3;" horiz-adv-x="766" 
d="M66 512c32 52.667 75.833 93.5 131.5 122.5s117.5 43.5 185.5 43.5s129.833 -14.5 185.5 -43.5s99.5 -69.833 131.5 -122.5s48 -112.334 48 -179.001s-16 -126.334 -48 -179.001s-75.833 -93.5 -131.5 -122.5s-117.5 -43.5 -185.5 -43.5s-129.833 14.5 -185.5 43.5
s-99.5 69.833 -131.5 122.5s-48 112.334 -48 179.001s16 126.334 48 179.001zM523 417.5c-13.333 25.667 -32.166 45.834 -56.499 60.501s-52.166 22 -83.499 22s-59.166 -7.33301 -83.499 -22s-43.166 -34.834 -56.499 -60.501s-20 -53.834 -20 -84.501
s6.66699 -58.834 20 -84.501s32.166 -45.834 56.499 -60.501s52.166 -22 83.499 -22s59.166 7.33301 83.499 22s43.166 34.834 56.499 60.501s20 53.834 20 84.501s-6.66699 58.834 -20 84.501zM319 723l120 144h155l-155 -144h-120z" />
    <glyph glyph-name="Ocircumflex" unicode="&#xd4;" horiz-adv-x="766" 
d="M66 512c32 52.667 75.833 93.5 131.5 122.5s117.5 43.5 185.5 43.5s129.833 -14.5 185.5 -43.5s99.5 -69.833 131.5 -122.5s48 -112.334 48 -179.001s-16 -126.334 -48 -179.001s-75.833 -93.5 -131.5 -122.5s-117.5 -43.5 -185.5 -43.5s-129.833 14.5 -185.5 43.5
s-99.5 69.833 -131.5 122.5s-48 112.334 -48 179.001s16 126.334 48 179.001zM523 417.5c-13.333 25.667 -32.166 45.834 -56.499 60.501s-52.166 22 -83.499 22s-59.166 -7.33301 -83.499 -22s-43.166 -34.834 -56.499 -60.501s-20 -53.834 -20 -84.501
s6.66699 -58.834 20 -84.501s32.166 -45.834 56.499 -60.501s52.166 -22 83.499 -22s59.166 7.33301 83.499 22s43.166 34.834 56.499 60.501s20 53.834 20 84.501s-6.66699 58.834 -20 84.501zM383 796l-61 -73h-105l88 144h156l91 -144h-105z" />
    <glyph glyph-name="Otilde" unicode="&#xd5;" horiz-adv-x="766" 
d="M66 512c32 52.667 75.833 93.5 131.5 122.5s117.5 43.5 185.5 43.5s129.833 -14.5 185.5 -43.5s99.5 -69.833 131.5 -122.5s48 -112.334 48 -179.001s-16 -126.334 -48 -179.001s-75.833 -93.5 -131.5 -122.5s-117.5 -43.5 -185.5 -43.5s-129.833 14.5 -185.5 43.5
s-99.5 69.833 -131.5 122.5s-48 112.334 -48 179.001s16 126.334 48 179.001zM523 417.5c-13.333 25.667 -32.166 45.834 -56.499 60.501s-52.166 22 -83.499 22s-59.166 -7.33301 -83.499 -22s-43.166 -34.834 -56.499 -60.501s-20 -53.834 -20 -84.501
s6.66699 -58.834 20 -84.501s32.166 -45.834 56.499 -60.501s52.166 -22 83.499 -22s59.166 7.33301 83.499 22s43.166 34.834 56.499 60.501s20 53.834 20 84.501s-6.66699 58.834 -20 84.501zM349 755c-4.66699 3.33301 -8.83398 5.66602 -12.501 6.99902
s-7.16699 2 -10.5 2c-6.66699 0 -12.334 -3.16699 -17.001 -9.5s-7 -15.5 -7 -27.5h-89c0 89.333 39.333 134 118 134c16.667 0 30.5 -2.33301 41.5 -7s23.167 -11.667 36.5 -21c1.33301 -0.666992 4.33301 -2.66699 9 -6s8.83398 -5.66602 12.501 -6.99902
s7.16699 -2 10.5 -2c6.66699 0 12.334 3.16699 17.001 9.5s7 15.5 7 27.5h89c0 -89.333 -39.333 -134 -118 -134c-16.667 0 -30.5 2.33301 -41.5 7s-23.167 11.667 -36.5 21c-1.33301 0.666992 -4.33301 2.66699 -9 6z" />
    <glyph glyph-name="Odieresis" unicode="&#xd6;" horiz-adv-x="766" 
d="M66 512c32 52.667 75.833 93.5 131.5 122.5s117.5 43.5 185.5 43.5s129.833 -14.5 185.5 -43.5s99.5 -69.833 131.5 -122.5s48 -112.334 48 -179.001s-16 -126.334 -48 -179.001s-75.833 -93.5 -131.5 -122.5s-117.5 -43.5 -185.5 -43.5s-129.833 14.5 -185.5 43.5
s-99.5 69.833 -131.5 122.5s-48 112.334 -48 179.001s16 126.334 48 179.001zM523 417.5c-13.333 25.667 -32.166 45.834 -56.499 60.501s-52.166 22 -83.499 22s-59.166 -7.33301 -83.499 -22s-43.166 -34.834 -56.499 -60.501s-20 -53.834 -20 -84.501
s6.66699 -58.834 20 -84.501s32.166 -45.834 56.499 -60.501s52.166 -22 83.499 -22s59.166 7.33301 83.499 22s43.166 34.834 56.499 60.501s20 53.834 20 84.501s-6.66699 58.834 -20 84.501zM211.5 722c-17 17.333 -25.5 38.333 -25.5 63c0 25.333 8.5 46.5 25.5 63.5
s38.167 25.5 63.5 25.5c24.667 0 45.667 -8.5 63 -25.5s26 -38.167 26 -63.5c0 -24.667 -8.66699 -45.667 -26 -63s-38.333 -26 -63 -26c-25.333 0 -46.5 8.66699 -63.5 26zM428 722c-17.333 17.333 -26 38.333 -26 63s8.66699 45.667 26 63s38.333 26 63 26
c25.333 0 46.666 -8.66699 63.999 -26s26 -38.333 26 -63s-8.66699 -45.667 -26 -63s-38.666 -26 -63.999 -26c-24.667 0 -45.667 8.66699 -63 26z" />
    <glyph glyph-name="multiply" unicode="&#xd7;" horiz-adv-x="510" 
d="M122 126l-75 74l134 134l-134 134l75 74l133 -134l134 134l74 -74l-133 -134l133 -134l-74 -74l-134 134z" />
    <glyph glyph-name="Oslash" unicode="&#xd8;" horiz-adv-x="766" 
d="M722 468.5c17.333 -41.667 26.001 -86.833 26.001 -135.5c0 -66.667 -16 -126.334 -48 -179.001s-75.833 -93.5 -131.5 -122.5s-117.5 -43.5 -185.5 -43.5c-72.667 0 -138 16.333 -196 49l-31 -37h-138l87 102c-28 30 -49.5 64.5 -64.5 103.5s-22.5 81.5 -22.5 127.5
c0 66.667 16 126.334 48 179.001s75.833 93.5 131.5 122.5s117.5 43.5 185.5 43.5c65.333 0 124.666 -13.333 177.999 -40l25 29h138l-76 -89c32 -31.333 56.667 -67.833 74 -109.5zM238.001 258.001l198.998 234.002c-18 5.33301 -36 8 -54 8
c-31.333 0 -59.166 -7.33301 -83.499 -22s-43.166 -34.834 -56.499 -60.501s-20 -53.834 -20 -84.501c0 -26.667 5 -51.667 15 -75zM466.499 188.003c24.333 14.667 43.168 34.832 56.501 60.499s20 53.834 20 84.501c0 33.333 -8 64.333 -24 93l-208 -244
c22.667 -10.667 46.667 -16 72 -16c31.333 0 59.166 7.33301 83.499 22z" />
    <glyph glyph-name="Ugrave" unicode="&#xd9;" horiz-adv-x="749" 
d="M54 667h205v-386c0 -34.667 9.5 -62.5 28.5 -83.5s48.167 -31.5 87.5 -31.5c38.667 0 67.5 10.667 86.5 32s28.5 49 28.5 83v386h205v-392c0 -87.333 -26.333 -157 -79 -209s-133 -78 -241 -78s-188.5 25.833 -241.5 77.5s-79.5 121.167 -79.5 208.5v393zM162 867h155
l120 -144h-120z" />
    <glyph glyph-name="Uacute" unicode="&#xda;" horiz-adv-x="749" 
d="M54 667h205v-386c0 -34.667 9.5 -62.5 28.5 -83.5s48.167 -31.5 87.5 -31.5c38.667 0 67.5 10.667 86.5 32s28.5 49 28.5 83v386h205v-392c0 -87.333 -26.333 -157 -79 -209s-133 -78 -241 -78s-188.5 25.833 -241.5 77.5s-79.5 121.167 -79.5 208.5v393zM311 723
l120 144h155l-155 -144h-120z" />
    <glyph glyph-name="Ucircumflex" unicode="&#xdb;" horiz-adv-x="749" 
d="M54 667h205v-386c0 -34.667 9.5 -62.5 28.5 -83.5s48.167 -31.5 87.5 -31.5c38.667 0 67.5 10.667 86.5 32s28.5 49 28.5 83v386h205v-392c0 -87.333 -26.333 -157 -79 -209s-133 -78 -241 -78s-188.5 25.833 -241.5 77.5s-79.5 121.167 -79.5 208.5v393zM375 796
l-61 -73h-105l88 144h156l91 -144h-105z" />
    <glyph glyph-name="Udieresis" unicode="&#xdc;" horiz-adv-x="749" 
d="M54 667h205v-386c0 -34.667 9.5 -62.5 28.5 -83.5s48.167 -31.5 87.5 -31.5c38.667 0 67.5 10.667 86.5 32s28.5 49 28.5 83v386h205v-392c0 -87.333 -26.333 -157 -79 -209s-133 -78 -241 -78s-188.5 25.833 -241.5 77.5s-79.5 121.167 -79.5 208.5v393zM203.5 722
c-17 17.333 -25.5 38.333 -25.5 63c0 25.333 8.5 46.5 25.5 63.5s38.167 25.5 63.5 25.5c24.667 0 45.667 -8.5 63 -25.5s26 -38.167 26 -63.5c0 -24.667 -8.66699 -45.667 -26 -63s-38.333 -26 -63 -26c-25.333 0 -46.5 8.66699 -63.5 26zM420 722
c-17.333 17.333 -26 38.333 -26 63s8.66699 45.667 26 63s38.333 26 63 26c25.333 0 46.666 -8.66699 63.999 -26s26 -38.333 26 -63s-8.66699 -45.667 -26 -63s-38.666 -26 -63.999 -26c-24.667 0 -45.667 8.66699 -63 26z" />
    <glyph glyph-name="Yacute" unicode="&#xdd;" horiz-adv-x="664" 
d="M232 265l-250 402h227l124 -225l122 225h227l-248 -402v-265h-202v265zM268 723l120 144h155l-155 -144h-120z" />
    <glyph glyph-name="Thorn" unicode="&#xde;" horiz-adv-x="662" 
d="M54 667l202 0.00195312v-96h154c50 0 93.167 -10.333 129.5 -31s63.833 -48.334 82.5 -83.001s28 -73.334 28 -116.001s-9.33301 -81.167 -28 -115.5s-46 -61.5 -82 -81.5s-79.333 -30 -130 -30h-154v-114h-202v667zM426.5 386.002c-12.333 11.333 -29.5 17 -51.5 17
h-119v-121h119c22.667 0 40 5.5 52 16.5s18 25.5 18 43.5s-6.16699 32.667 -18.5 44z" />
    <glyph glyph-name="germandbls" unicode="&#xdf;" horiz-adv-x="688" 
d="M345 6.5c-33.333 12.333 -63.999 30.1719 -91.999 53.5049l69 123c13.333 -16.667 33.5 -31 60.5 -43s52.833 -18 77.5 -18c14 0 24.833 2 32.5 6s11.5 9 11.5 15s-4.5 10.667 -13.5 14s-23.833 7.33301 -44.5 12c-34 6.66699 -62.667 14.5 -86 23.5
s-44.166 24.667 -62.499 47s-27.5 53.166 -27.5 92.499c0 28.667 6.83301 52.5 20.5 71.5s31.5 36.833 53.5 53.5c7.33301 5.33301 13.5 10.666 18.5 15.999s7.5 9.66602 7.5 12.999c0 10.667 -5.16699 18.667 -15.5 24s-23.833 8 -40.5 8
c-25.333 0 -45.5 -5.83301 -60.5 -17.5s-22.5 -28.167 -22.5 -49.5v-451h-180v451c0 41.333 10.5 79.166 31.5 113.499s51.667 61.666 92 81.999s88.166 30.5 143.499 30.5c40.667 0 79.167 -6.66699 115.5 -20s65.666 -32.333 87.999 -57s33.5 -53.334 33.5 -86.001
c0 -32 -7 -57.5 -21 -76.5s-33.333 -38.167 -58 -57.5c-12.667 -10 -21.5 -17.5 -26.5 -22.5s-7.5 -9.83301 -7.5 -14.5c0 -6 3.33301 -10.167 10 -12.5s19.667 -5.16602 39 -8.49902c34 -4.66699 63.5 -11.334 88.5 -20.001s47.333 -24.667 67 -48
s29.5 -56.666 29.5 -99.999c0 -33.333 -9.33301 -62.5 -28 -87.5s-44.334 -44.333 -77.001 -58s-69.667 -20.5 -111 -20.5c-43.333 0 -81.666 6.16699 -114.999 18.5z" />
    <glyph glyph-name="agrave" unicode="&#xe0;" 
d="M366 51c-37.333 -42 -82.667 -62.999 -136 -62.999c-40 0 -76 9.83301 -108 29.5s-57.5 48.667 -76.5 87s-28.5 84.166 -28.5 137.499c0 52 9.33301 97 28 135s44.167 67.167 76.5 87.5s68.5 30.5 108.5 30.5c56 0 101.333 -21 136 -63v51h180v-483h-180v51z
M365.999 303.001c-8 10 -19.1689 17.834 -33.502 23.501s-28.166 8.5 -41.499 8.5c-25.333 0 -46.666 -8.33301 -63.999 -25s-26 -39.334 -26 -68.001c0 -29.333 8.66699 -52.5 26 -69.5s38.666 -25.5 63.999 -25.5c12.667 0 26.334 3 41.001 9s26 14 34 24v123z
M87.9971 700.002h155l120 -144h-120z" />
    <glyph glyph-name="aacute" unicode="&#xe1;" 
d="M366 51c-37.333 -42 -82.667 -62.999 -136 -62.999c-40 0 -76 9.83301 -108 29.5s-57.5 48.667 -76.5 87s-28.5 84.166 -28.5 137.499c0 52 9.33301 97 28 135s44.167 67.167 76.5 87.5s68.5 30.5 108.5 30.5c56 0 101.333 -21 136 -63v51h180v-483h-180v51z
M365.999 303.001c-8 10 -19.1689 17.834 -33.502 23.501s-28.166 8.5 -41.499 8.5c-25.333 0 -46.666 -8.33301 -63.999 -25s-26 -39.334 -26 -68.001c0 -29.333 8.66699 -52.5 26 -69.5s38.666 -25.5 63.999 -25.5c12.667 0 26.334 3 41.001 9s26 14 34 24v123z
M236.997 556.002l120 144h155l-155 -144h-120z" />
    <glyph glyph-name="acircumflex" unicode="&#xe2;" 
d="M366 51c-37.333 -42 -82.667 -62.999 -136 -62.999c-40 0 -76 9.83301 -108 29.5s-57.5 48.667 -76.5 87s-28.5 84.166 -28.5 137.499c0 52 9.33301 97 28 135s44.167 67.167 76.5 87.5s68.5 30.5 108.5 30.5c56 0 101.333 -21 136 -63v51h180v-483h-180v51z
M365.999 303.001c-8 10 -19.1689 17.834 -33.502 23.501s-28.166 8.5 -41.499 8.5c-25.333 0 -46.666 -8.33301 -63.999 -25s-26 -39.334 -26 -68.001c0 -29.333 8.66699 -52.5 26 -69.5s38.666 -25.5 63.999 -25.5c12.667 0 26.334 3 41.001 9s26 14 34 24v123z
M300.997 629.002l-61 -73h-105l88 144h156l91 -144h-105z" />
    <glyph glyph-name="atilde" unicode="&#xe3;" 
d="M366 51c-37.333 -42 -82.667 -62.999 -136 -62.999c-40 0 -76 9.83301 -108 29.5s-57.5 48.667 -76.5 87s-28.5 84.166 -28.5 137.499c0 52 9.33301 97 28 135s44.167 67.167 76.5 87.5s68.5 30.5 108.5 30.5c56 0 101.333 -21 136 -63v51h180v-483h-180v51z
M365.999 303.001c-8 10 -19.1689 17.834 -33.502 23.501s-28.166 8.5 -41.499 8.5c-25.333 0 -46.666 -8.33301 -63.999 -25s-26 -39.334 -26 -68.001c0 -29.333 8.66699 -52.5 26 -69.5s38.666 -25.5 63.999 -25.5c12.667 0 26.334 3 41.001 9s26 14 34 24v123z
M266.997 588.002c-4.66699 3.33301 -8.83398 5.66602 -12.501 6.99902s-7.16699 2 -10.5 2c-6.66699 0 -12.334 -3.16699 -17.001 -9.5s-7 -15.5 -7 -27.5h-89c0 89.333 39.333 134 118 134c16.667 0 30.5 -2.33301 41.5 -7s23.167 -11.667 36.5 -21
c1.33301 -0.666992 4.33301 -2.66699 9 -6s8.83398 -5.66602 12.501 -6.99902s7.16699 -2 10.5 -2c6.66699 0 12.334 3.16699 17.001 9.5s7 15.5 7 27.5h89c0 -89.333 -39.333 -134 -118 -134c-16.667 0 -30.5 2.33301 -41.5 7s-23.167 11.667 -36.5 21
c-1.33301 0.666992 -4.33301 2.66699 -9 6z" />
    <glyph glyph-name="adieresis" unicode="&#xe4;" 
d="M366 51c-37.333 -42 -82.667 -62.999 -136 -62.999c-40 0 -76 9.83301 -108 29.5s-57.5 48.667 -76.5 87s-28.5 84.166 -28.5 137.499c0 52 9.33301 97 28 135s44.167 67.167 76.5 87.5s68.5 30.5 108.5 30.5c56 0 101.333 -21 136 -63v51h180v-483h-180v51z
M365.999 303.001c-8 10 -19.1689 17.834 -33.502 23.501s-28.166 8.5 -41.499 8.5c-25.333 0 -46.666 -8.33301 -63.999 -25s-26 -39.334 -26 -68.001c0 -29.333 8.66699 -52.5 26 -69.5s38.666 -25.5 63.999 -25.5c12.667 0 26.334 3 41.001 9s26 14 34 24v123z
M129.497 555.002c-17 17.333 -25.5 38.333 -25.5 63c0 25.333 8.5 46.5 25.5 63.5s38.167 25.5 63.5 25.5c24.667 0 45.667 -8.5 63 -25.5s26 -38.167 26 -63.5c0 -24.667 -8.66699 -45.667 -26 -63s-38.333 -26 -63 -26c-25.333 0 -46.5 8.66699 -63.5 26zM345.997 555.002
c-17.333 17.333 -26 38.333 -26 63s8.66699 45.667 26 63s38.333 26 63 26c25.333 0 46.666 -8.66699 63.999 -26s26 -38.333 26 -63s-8.66699 -45.667 -26 -63s-38.666 -26 -63.999 -26c-24.667 0 -45.667 8.66699 -63 26z" />
    <glyph glyph-name="aring" unicode="&#xe5;" 
d="M366 51c-37.333 -42 -82.667 -62.999 -136 -62.999c-40 0 -76 9.83301 -108 29.5s-57.5 48.667 -76.5 87s-28.5 84.166 -28.5 137.499c0 52 9.33301 97 28 135s44.167 67.167 76.5 87.5s68.5 30.5 108.5 30.5c56 0 101.333 -21 136 -63v51h180v-483h-180v51z
M365.999 303.001c-8 10 -19.1689 17.834 -33.502 23.501s-28.166 8.5 -41.499 8.5c-25.333 0 -46.666 -8.33301 -63.999 -25s-26 -39.334 -26 -68.001c0 -29.333 8.66699 -52.5 26 -69.5s38.666 -25.5 63.999 -25.5c12.667 0 26.334 3 41.001 9s26 14 34 24v123z
M222.997 710.002c22 22 48.333 33 79 33s56.667 -11 78 -33s32 -48.333 32 -79s-10.667 -57 -32 -79s-47.333 -33 -78 -33s-57 11 -79 33s-33 48.333 -33 79s11 57 33 79zM325.997 655.502c-6.66699 7 -14.667 10.5 -24 10.5s-17.5 -3.5 -24.5 -10.5
s-10.5 -15.167 -10.5 -24.5s3.5 -17.5 10.5 -24.5s15.167 -10.5 24.5 -10.5s17.333 3.5 24 10.5s10 15.167 10 24.5s-3.33301 17.5 -10 24.5z" />
    <glyph glyph-name="ae" unicode="&#xe6;" horiz-adv-x="888" 
d="M366 0l-0.000976562 51c-37.333 -42 -82.666 -63 -135.999 -63c-40 0 -76 9.83301 -108 29.5s-57.5 48.667 -76.5 87s-28.5 84.166 -28.5 137.499c0 52 9.33301 97 28 135s44.167 67.167 76.5 87.5s68.5 30.5 108.5 30.5c55.333 0 100.333 -21 135 -63v51h181v-45
c32.667 38 78 57 136 57c36 0 68.833 -11 98.5 -33s53 -53.5 70 -94.5s25.5 -89.167 25.5 -144.5v-37h-330c8 -16.667 21 -31.167 39 -43.5s41.333 -18.5 70 -18.5c18.667 0 37.334 3 56.001 9s34 14.333 46 25l77 -110c-14.667 -15.333 -36.334 -29.166 -65.001 -41.499
s-56 -18.5 -82 -18.5c-60 0 -107 19.667 -141 59v-47h-180zM570.499 341c-12.333 -12 -20.502 -25.667 -24.502 -41h159c-3.33301 15.333 -11.166 29 -23.499 41s-31.166 18 -56.499 18c-24 0 -42.167 -6 -54.5 -18zM365.997 303c-8 10 -19.1689 17.834 -33.502 23.501
s-28.166 8.5 -41.499 8.5c-25.333 0 -46.666 -8.33301 -63.999 -25s-26 -39.334 -26 -68.001c0 -29.333 8.66699 -52.5 26 -69.5s38.666 -25.5 63.999 -25.5c12.667 0 26.334 3 41.001 9s26 14 34 24v123z" />
    <glyph glyph-name="ccedilla" unicode="&#xe7;" horiz-adv-x="502" 
d="M344 159c14 8 25.0029 17.999 33.0029 29.999l116 -110c-14.667 -22 -37.334 -41.667 -68.001 -59s-68 -27.666 -112 -30.999l-15 -36c10 6 21.333 9 34 9c18.667 0 34.667 -6.83301 48 -20.5s20 -31.167 20 -52.5c0 -27.333 -11.333 -49 -34 -65s-50.667 -24 -84 -24
c-25.333 0 -48.5 3.16699 -69.5 9.5s-37.5 14.5 -49.5 24.5l31 64c28.667 -20 56.334 -30 83.001 -30c11.333 0 21.166 2 29.499 6s12.5 10 12.5 18c0 11.333 -7 17 -21 17c-10.667 0 -19.334 -4 -26.001 -12l-59 34l23 61c-64.667 10 -117.334 37.5 -158.001 82.5
s-61 100.833 -61 167.5c0 50 11.833 94.167 35.5 132.5s56.167 68 97.5 89s87.333 31.5 138 31.5c50 0 92.667 -9.16699 128 -27.5s61 -39.5 77 -63.5l-116 -109c-8 12 -19 21.833 -33 29.5s-30 11.5 -48 11.5c-26.667 0 -49.167 -8.16699 -67.5 -24.5
s-27.5 -39.5 -27.5 -69.5s9.16699 -53.333 27.5 -70s40.833 -25 67.5 -25c18 0 34 4 48 12z" />
    <glyph glyph-name="egrave" unicode="&#xe8;" horiz-adv-x="543" 
d="M50.5 370c22.333 38.667 53.5039 69.166 93.5039 91.499s85.333 33.5 136 33.5c47.333 0 90.166 -11 128.499 -33s68.333 -53.5 90 -94.5s32.5 -89.167 32.5 -144.5v-37h-328c5.33301 -17.333 17.166 -31.833 35.499 -43.5s41.833 -17.5 70.5 -17.5
c20 0 40.167 3.16699 60.5 9.5s36.5 14.5 48.5 24.5l74 -111c-22.667 -19.333 -53 -34.166 -91 -44.499s-76.333 -15.5 -115 -15.5c-50.667 0 -96.334 10.167 -137.001 30.5s-72.834 49.666 -96.501 87.999s-35.5 83.5 -35.5 135.5c0 46.667 11.167 89.334 33.5 128.001z
M225.504 340.499c-12.333 -11.667 -20.502 -25.167 -24.502 -40.5h159c-3.33301 14.667 -11.166 28 -23.499 40s-31.166 18 -56.499 18c-24 0 -42.167 -5.83301 -54.5 -17.5zM67.002 699.999h155l120 -144h-120z" />
    <glyph glyph-name="eacute" unicode="&#xe9;" horiz-adv-x="543" 
d="M50.5 370c22.333 38.667 53.5039 69.166 93.5039 91.499s85.333 33.5 136 33.5c47.333 0 90.166 -11 128.499 -33s68.333 -53.5 90 -94.5s32.5 -89.167 32.5 -144.5v-37h-328c5.33301 -17.333 17.166 -31.833 35.499 -43.5s41.833 -17.5 70.5 -17.5
c20 0 40.167 3.16699 60.5 9.5s36.5 14.5 48.5 24.5l74 -111c-22.667 -19.333 -53 -34.166 -91 -44.499s-76.333 -15.5 -115 -15.5c-50.667 0 -96.334 10.167 -137.001 30.5s-72.834 49.666 -96.501 87.999s-35.5 83.5 -35.5 135.5c0 46.667 11.167 89.334 33.5 128.001z
M225.504 340.499c-12.333 -11.667 -20.502 -25.167 -24.502 -40.5h159c-3.33301 14.667 -11.166 28 -23.499 40s-31.166 18 -56.499 18c-24 0 -42.167 -5.83301 -54.5 -17.5zM216.002 555.999l120 144h155l-155 -144h-120z" />
    <glyph glyph-name="ecircumflex" unicode="&#xea;" horiz-adv-x="543" 
d="M50.5 370c22.333 38.667 53.5039 69.166 93.5039 91.499s85.333 33.5 136 33.5c47.333 0 90.166 -11 128.499 -33s68.333 -53.5 90 -94.5s32.5 -89.167 32.5 -144.5v-37h-328c5.33301 -17.333 17.166 -31.833 35.499 -43.5s41.833 -17.5 70.5 -17.5
c20 0 40.167 3.16699 60.5 9.5s36.5 14.5 48.5 24.5l74 -111c-22.667 -19.333 -53 -34.166 -91 -44.499s-76.333 -15.5 -115 -15.5c-50.667 0 -96.334 10.167 -137.001 30.5s-72.834 49.666 -96.501 87.999s-35.5 83.5 -35.5 135.5c0 46.667 11.167 89.334 33.5 128.001z
M225.504 340.499c-12.333 -11.667 -20.502 -25.167 -24.502 -40.5h159c-3.33301 14.667 -11.166 28 -23.499 40s-31.166 18 -56.499 18c-24 0 -42.167 -5.83301 -54.5 -17.5zM280.002 628.999l-61 -73h-105l88 144h156l91 -144h-105z" />
    <glyph glyph-name="edieresis" unicode="&#xeb;" horiz-adv-x="543" 
d="M50.5 370c22.333 38.667 53.5039 69.166 93.5039 91.499s85.333 33.5 136 33.5c47.333 0 90.166 -11 128.499 -33s68.333 -53.5 90 -94.5s32.5 -89.167 32.5 -144.5v-37h-328c5.33301 -17.333 17.166 -31.833 35.499 -43.5s41.833 -17.5 70.5 -17.5
c20 0 40.167 3.16699 60.5 9.5s36.5 14.5 48.5 24.5l74 -111c-22.667 -19.333 -53 -34.166 -91 -44.499s-76.333 -15.5 -115 -15.5c-50.667 0 -96.334 10.167 -137.001 30.5s-72.834 49.666 -96.501 87.999s-35.5 83.5 -35.5 135.5c0 46.667 11.167 89.334 33.5 128.001z
M225.504 340.499c-12.333 -11.667 -20.502 -25.167 -24.502 -40.5h159c-3.33301 14.667 -11.166 28 -23.499 40s-31.166 18 -56.499 18c-24 0 -42.167 -5.83301 -54.5 -17.5zM108.502 554.999c-17 17.333 -25.5 38.333 -25.5 63c0 25.333 8.5 46.5 25.5 63.5
s38.167 25.5 63.5 25.5c24.667 0 45.667 -8.5 63 -25.5s26 -38.167 26 -63.5c0 -24.667 -8.66699 -45.667 -26 -63s-38.333 -26 -63 -26c-25.333 0 -46.5 8.66699 -63.5 26zM325.002 554.999c-17.333 17.333 -26 38.333 -26 63s8.66699 45.667 26 63s38.333 26 63 26
c25.333 0 46.666 -8.66699 63.999 -26s26 -38.333 26 -63s-8.66699 -45.667 -26 -63s-38.666 -26 -63.999 -26c-24.667 0 -45.667 8.66699 -63 26z" />
    <glyph glyph-name="igrave" unicode="&#xec;" horiz-adv-x="280" 
d="M50 483h180v-483h-180v483zM-73 700h155l120 -144h-120z" />
    <glyph glyph-name="iacute" unicode="&#xed;" horiz-adv-x="280" 
d="M50 483h180v-483h-180v483zM76 556l120 144h155l-155 -144h-120z" />
    <glyph glyph-name="icircumflex" unicode="&#xee;" horiz-adv-x="280" 
d="M50 483h180v-483h-180v483zM140 629l-61 -73h-105l88 144h156l91 -144h-105z" />
    <glyph glyph-name="idieresis" unicode="&#xef;" horiz-adv-x="280" 
d="M50 483h180v-483h-180v483zM-31.5 555c-17 17.333 -25.5 38.333 -25.5 63c0 25.333 8.5 46.5 25.5 63.5s38.167 25.5 63.5 25.5c24.667 0 45.667 -8.5 63 -25.5s26 -38.167 26 -63.5c0 -24.667 -8.66699 -45.667 -26 -63s-38.333 -26 -63 -26
c-25.333 0 -46.5 8.66699 -63.5 26zM185 555c-17.333 17.333 -26 38.333 -26 63s8.66699 45.667 26 63s38.333 26 63 26c25.333 0 46.666 -8.66699 63.999 -26s26 -38.333 26 -63s-8.66699 -45.667 -26 -63s-38.666 -26 -63.999 -26c-24.667 0 -45.667 8.66699 -63 26z" />
    <glyph glyph-name="eth" unicode="&#xf0;" horiz-adv-x="577" 
d="M521 429c26 -52.667 39.002 -109.666 39.002 -170.999c0 -54.667 -10.833 -102.334 -32.5 -143.001s-52.834 -72 -93.501 -94s-89.334 -33 -146.001 -33c-54 0 -101.333 9.5 -142 28.5s-72.334 45.667 -95.001 80s-34 73.833 -34 118.5c0 44 9.33301 83.167 28 117.5
s43.834 61 75.501 80s66.5 28.5 104.5 28.5c71.333 0 125.333 -32 162 -96c-14.667 47.333 -66 101 -154 161l-149 -66l-32 78l97 42l-47 28l96 143c51.333 -30.667 96 -60.667 134 -90l99 43l33 -75l-61 -27c52.667 -49.333 92 -100.333 118 -153zM352.002 165.501
c15.333 12.333 23 28.833 23 49.5s-7.66699 37.167 -23 49.5s-36.666 18.5 -63.999 18.5c-26.667 0 -47.667 -6.16699 -63 -18.5s-23 -28.833 -23 -49.5s7.66699 -37.167 23 -49.5s36.333 -18.5 63 -18.5c27.333 0 48.666 6.16699 63.999 18.5z" />
    <glyph glyph-name="ntilde" unicode="&#xf1;" horiz-adv-x="607" 
d="M377 267c0 46 -23.335 69 -70.002 69c-18 0 -32.833 -3.5 -44.5 -10.5s-22.5 -16.167 -32.5 -27.5v-298h-180v483h180v-55c16.667 18.667 38.834 34.5 66.501 47.5s60.834 19.5 99.501 19.5c53.333 0 93.5 -14.167 120.5 -42.5s40.5 -64.833 40.5 -109.5v-343h-180v267z
M268.998 588c-4.66699 3.33301 -8.83398 5.66602 -12.501 6.99902s-7.16699 2 -10.5 2c-6.66699 0 -12.334 -3.16699 -17.001 -9.5s-7 -15.5 -7 -27.5h-89c0 89.333 39.333 134 118 134c16.667 0 30.5 -2.33301 41.5 -7s23.167 -11.667 36.5 -21
c1.33301 -0.666992 4.33301 -2.66699 9 -6s8.83398 -5.66602 12.501 -6.99902s7.16699 -2 10.5 -2c6.66699 0 12.334 3.16699 17.001 9.5s7 15.5 7 27.5h89c0 -89.333 -39.333 -134 -118 -134c-16.667 0 -30.5 2.33301 -41.5 7s-23.167 11.667 -36.5 21
c-1.33301 0.666992 -4.33301 2.66699 -9 6z" />
    <glyph glyph-name="ograve" unicode="&#xf2;" horiz-adv-x="577" 
d="M143.5 22.5c-41 23 -72.333 54 -94 93s-32.5 81.167 -32.5 126.5s10.833 87.333 32.5 126s53 69.5 94 92.5s89.167 34.5 144.5 34.5s103.666 -11.5 144.999 -34.5s72.833 -53.833 94.5 -92.5s32.5 -80.667 32.5 -126s-10.833 -87.5 -32.5 -126.5s-53.167 -70 -94.5 -93
s-89.666 -34.5 -144.999 -34.5s-103.5 11.5 -144.5 34.5zM352 173.5c15.333 17.667 23 40.5 23 68.5c0 27.333 -7.66699 49.833 -23 67.5s-36.666 26.5 -63.999 26.5c-26.667 0 -47.667 -8.83301 -63 -26.5s-23 -40.167 -23 -67.5c0 -28 7.66699 -50.833 23 -68.5
s36.333 -26.5 63 -26.5c27.333 0 48.666 8.83301 63.999 26.5zM75 700h155l120 -144h-120z" />
    <glyph glyph-name="oacute" unicode="&#xf3;" horiz-adv-x="577" 
d="M143.5 22.5c-41 23 -72.333 54 -94 93s-32.5 81.167 -32.5 126.5s10.833 87.333 32.5 126s53 69.5 94 92.5s89.167 34.5 144.5 34.5s103.666 -11.5 144.999 -34.5s72.833 -53.833 94.5 -92.5s32.5 -80.667 32.5 -126s-10.833 -87.5 -32.5 -126.5s-53.167 -70 -94.5 -93
s-89.666 -34.5 -144.999 -34.5s-103.5 11.5 -144.5 34.5zM352 173.5c15.333 17.667 23 40.5 23 68.5c0 27.333 -7.66699 49.833 -23 67.5s-36.666 26.5 -63.999 26.5c-26.667 0 -47.667 -8.83301 -63 -26.5s-23 -40.167 -23 -67.5c0 -28 7.66699 -50.833 23 -68.5
s36.333 -26.5 63 -26.5c27.333 0 48.666 8.83301 63.999 26.5zM224 556l120 144h155l-155 -144h-120z" />
    <glyph glyph-name="ocircumflex" unicode="&#xf4;" horiz-adv-x="577" 
d="M143.5 22.5c-41 23 -72.333 54 -94 93s-32.5 81.167 -32.5 126.5s10.833 87.333 32.5 126s53 69.5 94 92.5s89.167 34.5 144.5 34.5s103.666 -11.5 144.999 -34.5s72.833 -53.833 94.5 -92.5s32.5 -80.667 32.5 -126s-10.833 -87.5 -32.5 -126.5s-53.167 -70 -94.5 -93
s-89.666 -34.5 -144.999 -34.5s-103.5 11.5 -144.5 34.5zM352 173.5c15.333 17.667 23 40.5 23 68.5c0 27.333 -7.66699 49.833 -23 67.5s-36.666 26.5 -63.999 26.5c-26.667 0 -47.667 -8.83301 -63 -26.5s-23 -40.167 -23 -67.5c0 -28 7.66699 -50.833 23 -68.5
s36.333 -26.5 63 -26.5c27.333 0 48.666 8.83301 63.999 26.5zM288 629l-61 -73h-105l88 144h156l91 -144h-105z" />
    <glyph glyph-name="otilde" unicode="&#xf5;" horiz-adv-x="577" 
d="M143.5 22.5c-41 23 -72.333 54 -94 93s-32.5 81.167 -32.5 126.5s10.833 87.333 32.5 126s53 69.5 94 92.5s89.167 34.5 144.5 34.5s103.666 -11.5 144.999 -34.5s72.833 -53.833 94.5 -92.5s32.5 -80.667 32.5 -126s-10.833 -87.5 -32.5 -126.5s-53.167 -70 -94.5 -93
s-89.666 -34.5 -144.999 -34.5s-103.5 11.5 -144.5 34.5zM352 173.5c15.333 17.667 23 40.5 23 68.5c0 27.333 -7.66699 49.833 -23 67.5s-36.666 26.5 -63.999 26.5c-26.667 0 -47.667 -8.83301 -63 -26.5s-23 -40.167 -23 -67.5c0 -28 7.66699 -50.833 23 -68.5
s36.333 -26.5 63 -26.5c27.333 0 48.666 8.83301 63.999 26.5zM254 588c-4.66699 3.33301 -8.83398 5.66602 -12.501 6.99902s-7.16699 2 -10.5 2c-6.66699 0 -12.334 -3.16699 -17.001 -9.5s-7 -15.5 -7 -27.5h-89c0 89.333 39.333 134 118 134
c16.667 0 30.5 -2.33301 41.5 -7s23.167 -11.667 36.5 -21c1.33301 -0.666992 4.33301 -2.66699 9 -6s8.83398 -5.66602 12.501 -6.99902s7.16699 -2 10.5 -2c6.66699 0 12.334 3.16699 17.001 9.5s7 15.5 7 27.5h89c0 -89.333 -39.333 -134 -118 -134
c-16.667 0 -30.5 2.33301 -41.5 7s-23.167 11.667 -36.5 21c-1.33301 0.666992 -4.33301 2.66699 -9 6z" />
    <glyph glyph-name="odieresis" unicode="&#xf6;" horiz-adv-x="577" 
d="M143.5 22.5c-41 23 -72.333 54 -94 93s-32.5 81.167 -32.5 126.5s10.833 87.333 32.5 126s53 69.5 94 92.5s89.167 34.5 144.5 34.5s103.666 -11.5 144.999 -34.5s72.833 -53.833 94.5 -92.5s32.5 -80.667 32.5 -126s-10.833 -87.5 -32.5 -126.5s-53.167 -70 -94.5 -93
s-89.666 -34.5 -144.999 -34.5s-103.5 11.5 -144.5 34.5zM352 173.5c15.333 17.667 23 40.5 23 68.5c0 27.333 -7.66699 49.833 -23 67.5s-36.666 26.5 -63.999 26.5c-26.667 0 -47.667 -8.83301 -63 -26.5s-23 -40.167 -23 -67.5c0 -28 7.66699 -50.833 23 -68.5
s36.333 -26.5 63 -26.5c27.333 0 48.666 8.83301 63.999 26.5zM116.5 555c-17 17.333 -25.5 38.333 -25.5 63c0 25.333 8.5 46.5 25.5 63.5s38.167 25.5 63.5 25.5c24.667 0 45.667 -8.5 63 -25.5s26 -38.167 26 -63.5c0 -24.667 -8.66699 -45.667 -26 -63
s-38.333 -26 -63 -26c-25.333 0 -46.5 8.66699 -63.5 26zM333 555c-17.333 17.333 -26 38.333 -26 63s8.66699 45.667 26 63s38.333 26 63 26c25.333 0 46.666 -8.66699 63.999 -26s26 -38.333 26 -63s-8.66699 -45.667 -26 -63s-38.666 -26 -63.999 -26
c-24.667 0 -45.667 8.66699 -63 26z" />
    <glyph glyph-name="divide" unicode="&#xf7;" horiz-adv-x="511" 
d="M201.5 450.5c-15 15 -22.5 33.167 -22.5 54.5c0 20.667 7.33301 38.334 22 53.001s32.667 22 54 22s39.333 -7.33301 54 -22s22 -32.334 22 -53.001c0 -21.333 -7.5 -39.5 -22.5 -54.5s-32.833 -22.5 -53.5 -22.5s-38.5 7.5 -53.5 22.5zM29 390h453v-105h-453v105z
M201.5 116.5c-15 15 -22.5 32.833 -22.5 53.5c0 21.333 7.5 39.333 22.5 54s32.833 22 53.5 22c21.333 0 39.333 -7.33301 54 -22s22 -32.667 22 -54c0 -20.667 -7.33301 -38.5 -22 -53.5s-32.667 -22.5 -54 -22.5c-20.667 0 -38.5 7.5 -53.5 22.5z" />
    <glyph glyph-name="oslash" unicode="&#xf8;" horiz-adv-x="577" 
d="M495 412c21.333 -23.333 37.498 -49.501 48.498 -78.501s16.5 -59.5 16.5 -91.5c0 -45.333 -10.833 -87.5 -32.5 -126.5s-53.167 -70 -94.5 -93s-89.666 -34.5 -144.999 -34.5c-56 0 -105 12 -147 36l-22 -24h-102l65 71c-20.667 22.667 -36.667 48.834 -48 78.501
s-17 60.5 -17 92.5c0 45.333 10.833 87.333 32.5 126s53 69.5 94 92.5s89.167 34.5 144.5 34.5c54.667 0 103.334 -11.667 146.001 -35l21 23h105zM205.998 208.999l112 123c-12 2.66699 -22 4 -30 4c-26.667 0 -47.667 -8.83301 -63 -26.5s-23 -40.167 -23 -67.5
c0 -13.333 1.33301 -24.333 4 -33zM369.998 274.999l-111.999 -123c10 -3.33301 20 -5 30 -5c27.333 0 48.666 8.83301 63.999 26.5s23 40.5 23 68.5c0 10.667 -1.66699 21.667 -5 33z" />
    <glyph glyph-name="ugrave" unicode="&#xf9;" horiz-adv-x="606" 
d="M376 54c-16.667 -18.667 -38.832 -34.333 -66.499 -47s-60.834 -19 -99.501 -19c-53.333 0 -93.333 14 -120 42s-40 64 -40 108v345h180v-268c0 -45.333 23.333 -68 70 -68c18 0 32.667 3.5 44 10.5s22 16.167 32 27.5v298h180v-483h-180v54zM90.002 700.001h155
l120 -144h-120z" />
    <glyph glyph-name="uacute" unicode="&#xfa;" horiz-adv-x="606" 
d="M376 54c-16.667 -18.667 -38.832 -34.333 -66.499 -47s-60.834 -19 -99.501 -19c-53.333 0 -93.333 14 -120 42s-40 64 -40 108v345h180v-268c0 -45.333 23.333 -68 70 -68c18 0 32.667 3.5 44 10.5s22 16.167 32 27.5v298h180v-483h-180v54zM239.002 556.001l120 144
h155l-155 -144h-120z" />
    <glyph glyph-name="ucircumflex" unicode="&#xfb;" horiz-adv-x="606" 
d="M376 54c-16.667 -18.667 -38.832 -34.333 -66.499 -47s-60.834 -19 -99.501 -19c-53.333 0 -93.333 14 -120 42s-40 64 -40 108v345h180v-268c0 -45.333 23.333 -68 70 -68c18 0 32.667 3.5 44 10.5s22 16.167 32 27.5v298h180v-483h-180v54zM303.002 629.001l-61 -73
h-105l88 144h156l91 -144h-105z" />
    <glyph glyph-name="udieresis" unicode="&#xfc;" horiz-adv-x="606" 
d="M376 54c-16.667 -18.667 -38.832 -34.333 -66.499 -47s-60.834 -19 -99.501 -19c-53.333 0 -93.333 14 -120 42s-40 64 -40 108v345h180v-268c0 -45.333 23.333 -68 70 -68c18 0 32.667 3.5 44 10.5s22 16.167 32 27.5v298h180v-483h-180v54zM131.502 555.001
c-17 17.333 -25.5 38.333 -25.5 63c0 25.333 8.5 46.5 25.5 63.5s38.167 25.5 63.5 25.5c24.667 0 45.667 -8.5 63 -25.5s26 -38.167 26 -63.5c0 -24.667 -8.66699 -45.667 -26 -63s-38.333 -26 -63 -26c-25.333 0 -46.5 8.66699 -63.5 26zM348.002 555.001
c-17.333 17.333 -26 38.333 -26 63s8.66699 45.667 26 63s38.333 26 63 26c25.333 0 46.666 -8.66699 63.999 -26s26 -38.333 26 -63s-8.66699 -45.667 -26 -63s-38.666 -26 -63.999 -26c-24.667 0 -45.667 8.66699 -63 26z" />
    <glyph glyph-name="yacute" unicode="&#xfd;" horiz-adv-x="606" 
d="M120 4c15.333 -18 36.502 -31.333 63.502 -40s53.833 -13 80.5 -13c36 0 63.667 8.66699 83 26s29 42.333 29 75v34c-16.667 -18.667 -38.834 -34.334 -66.501 -47.001s-60.834 -19 -99.501 -19c-53.333 0 -93.333 14 -120 42s-40 64 -40 108v313h180v-236
c0 -45.333 23.333 -68 70 -68c18 0 32.667 3.5 44 10.5s22 16.167 32 27.5v266h180v-412c0 -83.333 -25.333 -148.666 -76 -195.999s-122.667 -71 -216 -71c-86 0 -159.333 24 -220 72zM239.002 556l120 144h155l-155 -144h-120z" />
    <glyph glyph-name="thorn" unicode="&#xfe;" horiz-adv-x="595" 
d="M230 -184h-179.999v851h180v-235c35.333 42 80.666 63 135.999 63c40.667 0 77 -9.83301 109 -29.5s57.167 -48.5 75.5 -86.5s27.5 -83.667 27.5 -137c0 -54 -9.16699 -100 -27.5 -138s-43.5 -66.833 -75.5 -86.5s-68.333 -29.5 -109 -29.5c-54 0 -99.333 21 -136 63
v-235zM368.001 310.5c-17.333 17 -38.666 25.499 -63.999 25.499c-12.667 0 -26.167 -3 -40.5 -9s-25.5 -14 -33.5 -24v-123c7.33301 -9.33301 18.5 -17.166 33.5 -23.499s28.5 -9.5 40.5 -9.5c25.333 0 46.666 8.5 63.999 25.5s26 40.167 26 69.5
c0 28.667 -8.66699 51.5 -26 68.5z" />
    <glyph glyph-name="ydieresis" unicode="&#xff;" horiz-adv-x="606" 
d="M120 4c15.333 -18 36.502 -31.333 63.502 -40s53.833 -13 80.5 -13c36 0 63.667 8.66699 83 26s29 42.333 29 75v34c-16.667 -18.667 -38.834 -34.334 -66.501 -47.001s-60.834 -19 -99.501 -19c-53.333 0 -93.333 14 -120 42s-40 64 -40 108v313h180v-236
c0 -45.333 23.333 -68 70 -68c18 0 32.667 3.5 44 10.5s22 16.167 32 27.5v266h180v-412c0 -83.333 -25.333 -148.666 -76 -195.999s-122.667 -71 -216 -71c-86 0 -159.333 24 -220 72zM131.502 555c-17 17.333 -25.5 38.333 -25.5 63c0 25.333 8.5 46.5 25.5 63.5
s38.167 25.5 63.5 25.5c24.667 0 45.667 -8.5 63 -25.5s26 -38.167 26 -63.5c0 -24.667 -8.66699 -45.667 -26 -63s-38.333 -26 -63 -26c-25.333 0 -46.5 8.66699 -63.5 26zM348.002 555c-17.333 17.333 -26 38.333 -26 63s8.66699 45.667 26 63s38.333 26 63 26
c25.333 0 46.666 -8.66699 63.999 -26s26 -38.333 26 -63s-8.66699 -45.667 -26 -63s-38.666 -26 -63.999 -26c-24.667 0 -45.667 8.66699 -63 26z" />
    <glyph glyph-name="Amacron" unicode="&#x100;" horiz-adv-x="710" 
d="M483 86h-256l-26 -86h-219l246 667h254l246 -667h-219zM279 254h152l-76 235zM173 815h363v-97h-363v97z" />
    <glyph glyph-name="amacron" unicode="&#x101;" 
d="M366 51c-37.333 -42 -82.667 -62.999 -136 -62.999c-40 0 -76 9.83301 -108 29.5s-57.5 48.667 -76.5 87s-28.5 84.166 -28.5 137.499c0 52 9.33301 97 28 135s44.167 67.167 76.5 87.5s68.5 30.5 108.5 30.5c56 0 101.333 -21 136 -63v51h180v-483h-180v51z
M365.999 303.001c-8 10 -19.1689 17.834 -33.502 23.501s-28.166 8.5 -41.499 8.5c-25.333 0 -46.666 -8.33301 -63.999 -25s-26 -39.334 -26 -68.001c0 -29.333 8.66699 -52.5 26 -69.5s38.666 -25.5 63.999 -25.5c12.667 0 26.334 3 41.001 9s26 14 34 24v123z
M118.997 648.002h363v-97h-363v97z" />
    <glyph glyph-name="Abreve" unicode="&#x102;" horiz-adv-x="710" 
d="M483 86h-256l-26 -86h-219l246 667h254l246 -667h-219zM279 254h152l-76 235zM256 740.5c-30.667 15.667 -56.334 37.167 -77.001 64.5l76 62c11.333 -16 25.5 -28.833 42.5 -38.5s36.167 -14.5 57.5 -14.5c42 0 75.333 17.667 100 53l75 -62
c-20.667 -27.333 -46.167 -48.833 -76.5 -64.5s-63.166 -23.5 -98.499 -23.5s-68.333 7.83301 -99 23.5z" />
    <glyph glyph-name="abreve" unicode="&#x103;" 
d="M366 51c-37.333 -42 -82.667 -62.999 -136 -62.999c-40 0 -76 9.83301 -108 29.5s-57.5 48.667 -76.5 87s-28.5 84.166 -28.5 137.499c0 52 9.33301 97 28 135s44.167 67.167 76.5 87.5s68.5 30.5 108.5 30.5c56 0 101.333 -21 136 -63v51h180v-483h-180v51z
M365.999 303.001c-8 10 -19.1689 17.834 -33.502 23.501s-28.166 8.5 -41.499 8.5c-25.333 0 -46.666 -8.33301 -63.999 -25s-26 -39.334 -26 -68.001c0 -29.333 8.66699 -52.5 26 -69.5s38.666 -25.5 63.999 -25.5c12.667 0 26.334 3 41.001 9s26 14 34 24v123z
M201.997 573.502c-30.667 15.667 -56.334 37.167 -77.001 64.5l76 62c11.333 -16 25.5 -28.833 42.5 -38.5s36.167 -14.5 57.5 -14.5c42 0 75.333 17.667 100 53l75 -62c-20.667 -27.333 -46.167 -48.833 -76.5 -64.5s-63.166 -23.5 -98.499 -23.5s-68.333 7.83301 -99 23.5
z" />
    <glyph glyph-name="Aogonek" unicode="&#x104;" horiz-adv-x="710" 
d="M621 -20c-14.667 -10.667 -21.9971 -23.332 -21.9971 -37.999c0 -8.66699 3.16699 -15.667 9.5 -21s14.166 -8 23.499 -8c8 0 16 1.66699 24 5l27 -84c-16 -8 -31.833 -13.333 -47.5 -16s-35.5 -4 -59.5 -4c-34.667 0 -65.334 6.83301 -92.001 20.5s-40 36.167 -40 67.5
c0 21.333 9 40 27 56s46.333 30 85 42h-47l-26 86h-256l-26 -86h-219l246 667h254l246 -667h-42c-28.667 -2.66699 -50.334 -9.33398 -65.001 -20.001zM431.003 254.002l-76 235l-76 -235h152z" />
    <glyph glyph-name="aogonek" unicode="&#x105;" 
d="M481 -20c-14.667 -10.667 -21.998 -23.3311 -21.998 -37.998c0 -8.66699 3.16699 -15.667 9.5 -21s14.166 -8 23.499 -8c8 0 16 1.66699 24 5l27 -84c-16 -8 -31.833 -13.333 -47.5 -16s-35.5 -4 -59.5 -4c-34.667 0 -65.334 6.83301 -92.001 20.5s-40 36.167 -40 67.5
c0 21.333 9 40 27 56s46.333 30 85 42h-50v51c-37.333 -42 -82.666 -63 -135.999 -63c-40 0 -76 9.83301 -108 29.5s-57.5 48.667 -76.5 87s-28.5 84.166 -28.5 137.499c0 52 9.33301 97 28 135s44.167 67.167 76.5 87.5s68.5 30.5 108.5 30.5c56 0 101.333 -21 136 -63v51
h180v-483c-28.667 -2.66699 -50.334 -9.33398 -65.001 -20.001zM366.002 303.003c-8 10 -19.1689 17.834 -33.502 23.501s-28.166 8.5 -41.499 8.5c-25.333 0 -46.666 -8.33301 -63.999 -25s-26 -39.334 -26 -68.001c0 -29.333 8.66699 -52.5 26 -69.5
s38.666 -25.5 63.999 -25.5c12.667 0 26.334 3 41.001 9s26 14 34 24v123z" />
    <glyph glyph-name="Cacute" unicode="&#x106;" horiz-adv-x="697" 
d="M196 31.5c-55.333 29 -98.834 69.8369 -130.501 122.504s-47.5 112.334 -47.5 179.001c0 67.333 15.833 127.166 47.5 179.499s75 93 130 122s116.5 43.5 184.5 43.5c82 0 147.833 -18.667 197.5 -56s86.5 -83.333 110.5 -138l-174 -81
c-8.66699 27.333 -25.334 50.333 -50.001 69s-52.667 28 -84 28c-30 0 -57 -7.33301 -81 -22s-42.667 -34.834 -56 -60.501s-20 -53.834 -20 -84.501s6.66699 -58.834 20 -84.501s32 -45.834 56 -60.501s51 -22 81 -22c31.333 0 59.333 9.33301 84 28
s41.334 41.667 50.001 69l174 -80c-24 -54 -61 -100 -111 -138s-115.667 -57 -197 -57c-67.333 0 -128.666 14.5 -183.999 43.5zM315.999 723.004l120 144h155l-155 -144h-120z" />
    <glyph glyph-name="cacute" unicode="&#x107;" horiz-adv-x="502" 
d="M52.5 374.5c23.667 38.333 56.167 68 97.5 89s87.333 31.5 138 31.5c50 0 92.667 -9.16699 128 -27.5s61 -39.5 77 -63.5l-116 -109c-8 12 -19 21.833 -33 29.5s-30 11.5 -48 11.5c-26.667 0 -49.167 -8.16699 -67.5 -24.5s-27.5 -39.5 -27.5 -69.5
s9.16699 -53.333 27.5 -70s40.833 -25 67.5 -25c18 0 34 4 48 12s25 18 33 30l116 -110c-16 -24 -41.667 -45.167 -77 -63.5s-78 -27.5 -128 -27.5c-50.667 0 -96.667 10.5 -138 31.5s-73.833 50.833 -97.5 89.5s-35.5 83 -35.5 133s11.833 94.167 35.5 132.5zM219 556
l120 144h155l-155 -144h-120z" />
    <glyph glyph-name="Ccircumflex" unicode="&#x108;" horiz-adv-x="697" 
d="M196 31.5c-55.333 29 -98.834 69.8369 -130.501 122.504s-47.5 112.334 -47.5 179.001c0 67.333 15.833 127.166 47.5 179.499s75 93 130 122s116.5 43.5 184.5 43.5c82 0 147.833 -18.667 197.5 -56s86.5 -83.333 110.5 -138l-174 -81
c-8.66699 27.333 -25.334 50.333 -50.001 69s-52.667 28 -84 28c-30 0 -57 -7.33301 -81 -22s-42.667 -34.834 -56 -60.501s-20 -53.834 -20 -84.501s6.66699 -58.834 20 -84.501s32 -45.834 56 -60.501s51 -22 81 -22c31.333 0 59.333 9.33301 84 28
s41.334 41.667 50.001 69l174 -80c-24 -54 -61 -100 -111 -138s-115.667 -57 -197 -57c-67.333 0 -128.666 14.5 -183.999 43.5zM379.999 796.004l-61 -73h-105l88 144h156l91 -144h-105z" />
    <glyph glyph-name="ccircumflex" unicode="&#x109;" horiz-adv-x="502" 
d="M52.5 374.5c23.667 38.333 56.167 68 97.5 89s87.333 31.5 138 31.5c50 0 92.667 -9.16699 128 -27.5s61 -39.5 77 -63.5l-116 -109c-8 12 -19 21.833 -33 29.5s-30 11.5 -48 11.5c-26.667 0 -49.167 -8.16699 -67.5 -24.5s-27.5 -39.5 -27.5 -69.5
s9.16699 -53.333 27.5 -70s40.833 -25 67.5 -25c18 0 34 4 48 12s25 18 33 30l116 -110c-16 -24 -41.667 -45.167 -77 -63.5s-78 -27.5 -128 -27.5c-50.667 0 -96.667 10.5 -138 31.5s-73.833 50.833 -97.5 89.5s-35.5 83 -35.5 133s11.833 94.167 35.5 132.5zM283 629
l-61 -73h-105l88 144h156l91 -144h-105z" />
    <glyph glyph-name="Cdotaccent" unicode="&#x10a;" horiz-adv-x="697" 
d="M196 31.5c-55.333 29 -98.834 69.8369 -130.501 122.504s-47.5 112.334 -47.5 179.001c0 67.333 15.833 127.166 47.5 179.499s75 93 130 122s116.5 43.5 184.5 43.5c82 0 147.833 -18.667 197.5 -56s86.5 -83.333 110.5 -138l-174 -81
c-8.66699 27.333 -25.334 50.333 -50.001 69s-52.667 28 -84 28c-30 0 -57 -7.33301 -81 -22s-42.667 -34.834 -56 -60.501s-20 -53.834 -20 -84.501s6.66699 -58.834 20 -84.501s32 -45.834 56 -60.501s51 -22 81 -22c31.333 0 59.333 9.33301 84 28
s41.334 41.667 50.001 69l174 -80c-24 -54 -61 -100 -111 -138s-115.667 -57 -197 -57c-67.333 0 -128.666 14.5 -183.999 43.5zM316.999 849.004c17.333 17.333 38.333 26 63 26c24 0 44.667 -8.66699 62 -26s26 -38.333 26 -63s-8.66699 -45.667 -26 -63s-38 -26 -62 -26
c-24.667 0 -45.667 8.66699 -63 26s-26 38.333 -26 63s8.66699 45.667 26 63z" />
    <glyph glyph-name="cdotaccent" unicode="&#x10b;" horiz-adv-x="502" 
d="M52.5 374.5c23.667 38.333 56.167 68 97.5 89s87.333 31.5 138 31.5c50 0 92.667 -9.16699 128 -27.5s61 -39.5 77 -63.5l-116 -109c-8 12 -19 21.833 -33 29.5s-30 11.5 -48 11.5c-26.667 0 -49.167 -8.16699 -67.5 -24.5s-27.5 -39.5 -27.5 -69.5
s9.16699 -53.333 27.5 -70s40.833 -25 67.5 -25c18 0 34 4 48 12s25 18 33 30l116 -110c-16 -24 -41.667 -45.167 -77 -63.5s-78 -27.5 -128 -27.5c-50.667 0 -96.667 10.5 -138 31.5s-73.833 50.833 -97.5 89.5s-35.5 83 -35.5 133s11.833 94.167 35.5 132.5zM220 682
c17.333 17.333 38.333 26 63 26c24 0 44.667 -8.66699 62 -26s26 -38.333 26 -63s-8.66699 -45.667 -26 -63s-38 -26 -62 -26c-24.667 0 -45.667 8.66699 -63 26s-26 38.333 -26 63s8.66699 45.667 26 63z" />
    <glyph glyph-name="Ccaron" unicode="&#x10c;" horiz-adv-x="697" 
d="M196 31.5c-55.333 29 -98.834 69.8369 -130.501 122.504s-47.5 112.334 -47.5 179.001c0 67.333 15.833 127.166 47.5 179.499s75 93 130 122s116.5 43.5 184.5 43.5c82 0 147.833 -18.667 197.5 -56s86.5 -83.333 110.5 -138l-174 -81
c-8.66699 27.333 -25.334 50.333 -50.001 69s-52.667 28 -84 28c-30 0 -57 -7.33301 -81 -22s-42.667 -34.834 -56 -60.501s-20 -53.834 -20 -84.501s6.66699 -58.834 20 -84.501s32 -45.834 56 -60.501s51 -22 81 -22c31.333 0 59.333 9.33301 84 28
s41.334 41.667 50.001 69l174 -80c-24 -54 -61 -100 -111 -138s-115.667 -57 -197 -57c-67.333 0 -128.666 14.5 -183.999 43.5zM210.999 867.004h105l64 -73l61 73h105l-88 -144h-156z" />
    <glyph glyph-name="ccaron" unicode="&#x10d;" horiz-adv-x="502" 
d="M52.5 374.5c23.667 38.333 56.167 68 97.5 89s87.333 31.5 138 31.5c50 0 92.667 -9.16699 128 -27.5s61 -39.5 77 -63.5l-116 -109c-8 12 -19 21.833 -33 29.5s-30 11.5 -48 11.5c-26.667 0 -49.167 -8.16699 -67.5 -24.5s-27.5 -39.5 -27.5 -69.5
s9.16699 -53.333 27.5 -70s40.833 -25 67.5 -25c18 0 34 4 48 12s25 18 33 30l116 -110c-16 -24 -41.667 -45.167 -77 -63.5s-78 -27.5 -128 -27.5c-50.667 0 -96.667 10.5 -138 31.5s-73.833 50.833 -97.5 89.5s-35.5 83 -35.5 133s11.833 94.167 35.5 132.5zM114 700h105
l64 -73l61 73h105l-88 -144h-156z" />
    <glyph glyph-name="Dcaron" unicode="&#x10e;" horiz-adv-x="736" 
d="M54 667l298 -0.00195312c70.667 0 133.667 -13.167 189 -39.5s98.666 -64.5 129.999 -114.5s47 -109.667 47 -179s-15.667 -129.166 -47 -179.499s-74.666 -88.666 -129.999 -114.999s-118 -39.5 -188 -39.5h-299v667zM352 175.998c32.667 0 61.167 7.16699 85.5 21.5
s43 33.5 56 57.5s19.5 50.333 19.5 79c0 47.333 -13.667 85.333 -41 114s-67 43 -119 43h-97v-315h96zM197 866.998h105l64 -73l61 73h105l-88 -144h-156z" />
    <glyph glyph-name="dcaron" unicode="&#x10f;" horiz-adv-x="736" 
d="M366 51c-37.333 -42 -82.667 -62.999 -136 -62.999c-40 0 -76 9.83301 -108 29.5s-57.5 48.667 -76.5 87s-28.5 84.166 -28.5 137.499c0 52 9.33301 97 28 135s44.167 67.167 76.5 87.5s68.5 30.5 108.5 30.5c56 0 101.333 -21 136 -63v235h180v-667h-180v51z
M365.999 304.001c-8 10 -19.1689 17.833 -33.502 23.5s-28.166 8.5 -41.499 8.5c-25.333 0 -46.666 -8.5 -63.999 -25.5s-26 -39.833 -26 -68.5c0 -29.333 8.66699 -52.5 26 -69.5s38.666 -25.5 63.999 -25.5c12.667 0 26.334 3 41.001 9s26 14 34 24v124zM592.997 461.001
c12.667 6 26.167 16.166 40.5 30.499s23.5 28.5 27.5 42.5c-3.33301 -2 -9.66602 -3 -18.999 -3c-18.667 0 -34.167 6.33301 -46.5 19s-18.5 29.334 -18.5 50.001c0 22 7.66699 40.667 23 56s33.666 23 54.999 23c24 0 44.5 -8.66699 61.5 -26s25.5 -41 25.5 -71
c0 -32.667 -8.33301 -63.167 -25 -91.5s-39.667 -52.833 -69 -73.5z" />
    <glyph glyph-name="Dcroat" unicode="&#x110;" horiz-adv-x="757" 
d="M562 627.5c55.333 -26.333 98.666 -64.502 129.999 -114.502s47 -109.667 47 -179s-15.667 -129.166 -47 -179.499s-74.666 -88.666 -129.999 -114.999s-118 -39.5 -188 -39.5h-299v254h-68v159h68v254h298c70.667 0 133.667 -13.167 189 -39.5zM458.5 197.498
c24.333 14.333 43 33.5 56 57.5s19.5 50.333 19.5 79c0 47.333 -13.667 85.333 -41 114s-67 43 -119 43h-97v-78h129v-159h-129v-78h96c32.667 0 61.167 7.16699 85.5 21.5z" />
    <glyph glyph-name="dcroat" unicode="&#x111;" horiz-adv-x="602" 
d="M595 521l-49.001 0.000976562v-521h-180v51c-37.333 -42 -82.666 -63 -135.999 -63c-40 0 -76 9.83301 -108 29.5s-57.5 48.667 -76.5 87s-28.5 84.166 -28.5 137.499c0 52 9.33301 97 28 135s44.167 67.167 76.5 87.5s68.5 30.5 108.5 30.5c56 0 101.333 -21 136 -63v89
h-134v97h134v49h180v-49h49v-97zM365.999 304.001c-8 10 -19.1689 17.833 -33.502 23.5s-28.166 8.5 -41.499 8.5c-25.333 0 -46.666 -8.5 -63.999 -25.5s-26 -39.833 -26 -68.5c0 -29.333 8.66699 -52.5 26 -69.5s38.666 -25.5 63.999 -25.5c12.667 0 26.334 3 41.001 9
s26 14 34 24v124z" />
    <glyph glyph-name="Emacron" unicode="&#x112;" 
d="M54 667h506v-168h-304v-78h297v-168h-297v-85h304v-168h-506v667zM132 815h363v-97h-363v97z" />
    <glyph glyph-name="emacron" unicode="&#x113;" horiz-adv-x="543" 
d="M50.5 370c22.333 38.667 53.5039 69.166 93.5039 91.499s85.333 33.5 136 33.5c47.333 0 90.166 -11 128.499 -33s68.333 -53.5 90 -94.5s32.5 -89.167 32.5 -144.5v-37h-328c5.33301 -17.333 17.166 -31.833 35.499 -43.5s41.833 -17.5 70.5 -17.5
c20 0 40.167 3.16699 60.5 9.5s36.5 14.5 48.5 24.5l74 -111c-22.667 -19.333 -53 -34.166 -91 -44.499s-76.333 -15.5 -115 -15.5c-50.667 0 -96.334 10.167 -137.001 30.5s-72.834 49.666 -96.501 87.999s-35.5 83.5 -35.5 135.5c0 46.667 11.167 89.334 33.5 128.001z
M225.504 340.499c-12.333 -11.667 -20.502 -25.167 -24.502 -40.5h159c-3.33301 14.667 -11.166 28 -23.499 40s-31.166 18 -56.499 18c-24 0 -42.167 -5.83301 -54.5 -17.5zM98.002 647.999h363v-97h-363v97z" />
    <glyph glyph-name="Ebreve" unicode="&#x114;" 
d="M54 667h506v-168h-304v-78h297v-168h-297v-85h304v-168h-506v667zM215 740.5c-30.667 15.667 -56.334 37.167 -77.001 64.5l76 62c11.333 -16 25.5 -28.833 42.5 -38.5s36.167 -14.5 57.5 -14.5c42 0 75.333 17.667 100 53l75 -62
c-20.667 -27.333 -46.167 -48.833 -76.5 -64.5s-63.166 -23.5 -98.499 -23.5s-68.333 7.83301 -99 23.5z" />
    <glyph glyph-name="ebreve" unicode="&#x115;" horiz-adv-x="543" 
d="M50.5 370c22.333 38.667 53.5039 69.166 93.5039 91.499s85.333 33.5 136 33.5c47.333 0 90.166 -11 128.499 -33s68.333 -53.5 90 -94.5s32.5 -89.167 32.5 -144.5v-37h-328c5.33301 -17.333 17.166 -31.833 35.499 -43.5s41.833 -17.5 70.5 -17.5
c20 0 40.167 3.16699 60.5 9.5s36.5 14.5 48.5 24.5l74 -111c-22.667 -19.333 -53 -34.166 -91 -44.499s-76.333 -15.5 -115 -15.5c-50.667 0 -96.334 10.167 -137.001 30.5s-72.834 49.666 -96.501 87.999s-35.5 83.5 -35.5 135.5c0 46.667 11.167 89.334 33.5 128.001z
M225.504 340.499c-12.333 -11.667 -20.502 -25.167 -24.502 -40.5h159c-3.33301 14.667 -11.166 28 -23.499 40s-31.166 18 -56.499 18c-24 0 -42.167 -5.83301 -54.5 -17.5zM181.002 573.499c-30.667 15.667 -56.334 37.167 -77.001 64.5l76 62
c11.333 -16 25.5 -28.833 42.5 -38.5s36.167 -14.5 57.5 -14.5c42 0 75.333 17.667 100 53l75 -62c-20.667 -27.333 -46.167 -48.833 -76.5 -64.5s-63.166 -23.5 -98.499 -23.5s-68.333 7.83301 -99 23.5z" />
    <glyph glyph-name="Edotaccent" unicode="&#x116;" 
d="M54 667h506v-168h-304v-78h297v-168h-297v-85h304v-168h-506v667zM251 849c17.333 17.333 38.333 26 63 26c24 0 44.667 -8.66699 62 -26s26 -38.333 26 -63s-8.66699 -45.667 -26 -63s-38 -26 -62 -26c-24.667 0 -45.667 8.66699 -63 26s-26 38.333 -26 63
s8.66699 45.667 26 63z" />
    <glyph glyph-name="edotaccent" unicode="&#x117;" horiz-adv-x="543" 
d="M50.5 370c22.333 38.667 53.5039 69.166 93.5039 91.499s85.333 33.5 136 33.5c47.333 0 90.166 -11 128.499 -33s68.333 -53.5 90 -94.5s32.5 -89.167 32.5 -144.5v-37h-328c5.33301 -17.333 17.166 -31.833 35.499 -43.5s41.833 -17.5 70.5 -17.5
c20 0 40.167 3.16699 60.5 9.5s36.5 14.5 48.5 24.5l74 -111c-22.667 -19.333 -53 -34.166 -91 -44.499s-76.333 -15.5 -115 -15.5c-50.667 0 -96.334 10.167 -137.001 30.5s-72.834 49.666 -96.501 87.999s-35.5 83.5 -35.5 135.5c0 46.667 11.167 89.334 33.5 128.001z
M225.504 340.499c-12.333 -11.667 -20.502 -25.167 -24.502 -40.5h159c-3.33301 14.667 -11.166 28 -23.499 40s-31.166 18 -56.499 18c-24 0 -42.167 -5.83301 -54.5 -17.5zM217.002 681.999c17.333 17.333 38.333 26 63 26c24 0 44.667 -8.66699 62 -26s26 -38.333 26 -63
s-8.66699 -45.667 -26 -63s-38 -26 -62 -26c-24.667 0 -45.667 8.66699 -63 26s-26 38.333 -26 63s8.66699 45.667 26 63z" />
    <glyph glyph-name="Eogonek" unicode="&#x118;" 
d="M256 499l0.00292969 -77.998h297v-168h-297v-85h304v-168c-28.667 -2.66699 -50.334 -9.33398 -65.001 -20.001s-22 -23.334 -22 -38.001c0 -8.66699 3.16699 -15.667 9.5 -21s14.166 -8 23.499 -8c8 0 16 1.66699 24 5l27 -84c-16 -8 -31.833 -13.333 -47.5 -16
s-35.5 -4 -59.5 -4c-34.667 0 -65.334 6.83301 -92.001 20.5s-40 36.167 -40 67.5c0 21.333 9 40 27 56s46.333 30 85 42h-376v667h506v-168h-304z" />
    <glyph glyph-name="eogonek" unicode="&#x119;" horiz-adv-x="543" 
d="M149 18.5c-40.667 20.333 -72.8271 49.667 -96.4941 88s-35.5 83.5 -35.5 135.5c0 46.667 11.167 89.334 33.5 128.001s53.5 69.167 93.5 91.5s85.333 33.5 136 33.5c47.333 0 90.166 -11 128.499 -33s68.333 -53.5 90 -94.5s32.5 -89.167 32.5 -144.5v-37h-328
c5.33301 -16.667 17 -31 35 -43s41 -18 69 -18c15.333 0 34.833 3.33301 58.5 10s41.167 14.667 52.5 24l74 -111c-26.667 -18 -47.334 -36.667 -62.001 -56s-22 -36 -22 -50c0 -8.66699 3.16699 -15.667 9.5 -21s14.166 -8 23.499 -8c8 0 16 1.66699 24 5l27 -84
c-16 -8 -31.833 -13.333 -47.5 -16s-35.5 -4 -59.5 -4c-34.667 0 -65.334 6.83301 -92.001 20.5s-40 36.167 -40 67.5c0 18.667 6.16699 35.667 18.5 51s31.166 27.666 56.499 36.999c-18.667 -1.33301 -32.667 -2 -42 -2c-50.667 0 -96.334 10.167 -137.001 30.5z
M225.507 340.501c-12.333 -11.667 -20.502 -25.167 -24.502 -40.5h159c-3.33301 14.667 -11.166 28 -23.499 40s-31.166 18 -56.499 18c-24 0 -42.167 -5.83301 -54.5 -17.5z" />
    <glyph glyph-name="Ecaron" unicode="&#x11a;" 
d="M54 667h506v-168h-304v-78h297v-168h-297v-85h304v-168h-506v667zM145 867h105l64 -73l61 73h105l-88 -144h-156z" />
    <glyph glyph-name="ecaron" unicode="&#x11b;" horiz-adv-x="543" 
d="M50.5 370c22.333 38.667 53.5039 69.166 93.5039 91.499s85.333 33.5 136 33.5c47.333 0 90.166 -11 128.499 -33s68.333 -53.5 90 -94.5s32.5 -89.167 32.5 -144.5v-37h-328c5.33301 -17.333 17.166 -31.833 35.499 -43.5s41.833 -17.5 70.5 -17.5
c20 0 40.167 3.16699 60.5 9.5s36.5 14.5 48.5 24.5l74 -111c-22.667 -19.333 -53 -34.166 -91 -44.499s-76.333 -15.5 -115 -15.5c-50.667 0 -96.334 10.167 -137.001 30.5s-72.834 49.666 -96.501 87.999s-35.5 83.5 -35.5 135.5c0 46.667 11.167 89.334 33.5 128.001z
M225.504 340.499c-12.333 -11.667 -20.502 -25.167 -24.502 -40.5h159c-3.33301 14.667 -11.166 28 -23.499 40s-31.166 18 -56.499 18c-24 0 -42.167 -5.83301 -54.5 -17.5zM111.002 699.999h105l64 -73l61 73h105l-88 -144h-156z" />
    <glyph glyph-name="Gcircumflex" unicode="&#x11c;" horiz-adv-x="741" 
d="M67 515.5c32.667 52.333 76.834 92.5039 132.501 120.504s117.5 42 185.5 42c72 0 132.333 -15.333 181 -46s86 -70 112 -118l-170 -87c-11.333 21.333 -27.833 38.833 -49.5 52.5s-46.167 20.5 -73.5 20.5c-31.333 0 -59.333 -7.33301 -84 -22
s-43.834 -34.834 -57.501 -60.501s-20.5 -53.834 -20.5 -84.501s6.83301 -58.834 20.5 -84.501s32.834 -45.834 57.501 -60.501s52.667 -22 84 -22c30 0 56.5 5.83301 79.5 17.5s38.5 25.834 46.5 42.501h-146v166h364c0 -87.333 -14.833 -161.166 -44.5 -221.499
s-71.834 -105.833 -126.501 -136.5s-119 -46 -193 -46c-61.333 0 -118.5 14.167 -171.5 42.5s-95.5 68.666 -127.5 120.999s-48 112.833 -48 181.5c0 69.333 16.333 130.166 49 182.499zM385 796.004l-61 -73h-105l88 144h156l91 -144h-105z" />
    <glyph glyph-name="gcircumflex" unicode="&#x11d;" horiz-adv-x="595" 
d="M109 4c18 -18 39.6689 -31.333 65.002 -40s51.666 -13 78.999 -13c28.667 0 54.5 7.33301 77.5 22s34.5 41 34.5 79v26c-38 -43.333 -83.333 -65 -136 -65c-40 0 -76 8.83301 -108 26.5s-57.333 44.5 -76 80.5s-28 80.667 -28 134c0 52 9.16699 96.167 27.5 132.5
s43.5 63.5 75.5 81.5s68.333 27 109 27c55.333 0 100.666 -21 135.999 -63v51h180v-431c0 -93.333 -29.167 -158 -87.5 -194s-126.5 -54 -204.5 -54c-86 0 -159.333 24 -220 72zM365.002 305c-8 9.33301 -19.167 16.833 -33.5 22.5s-27.833 8.5 -40.5 8.5
c-26.667 0 -48.334 -6.66699 -65.001 -20s-25 -34 -25 -62s8.33301 -48.667 25 -62s38.334 -20 65.001 -20c12.667 0 26.167 2.83301 40.5 8.5s25.5 13.167 33.5 22.5v102zM301.002 629l-61 -73h-105l88 144h156l91 -144h-105z" />
    <glyph glyph-name="Gbreve" unicode="&#x11e;" horiz-adv-x="741" 
d="M67 515.5c32.667 52.333 76.834 92.5039 132.501 120.504s117.5 42 185.5 42c72 0 132.333 -15.333 181 -46s86 -70 112 -118l-170 -87c-11.333 21.333 -27.833 38.833 -49.5 52.5s-46.167 20.5 -73.5 20.5c-31.333 0 -59.333 -7.33301 -84 -22
s-43.834 -34.834 -57.501 -60.501s-20.5 -53.834 -20.5 -84.501s6.83301 -58.834 20.5 -84.501s32.834 -45.834 57.501 -60.501s52.667 -22 84 -22c30 0 56.5 5.83301 79.5 17.5s38.5 25.834 46.5 42.501h-146v166h364c0 -87.333 -14.833 -161.166 -44.5 -221.499
s-71.834 -105.833 -126.501 -136.5s-119 -46 -193 -46c-61.333 0 -118.5 14.167 -171.5 42.5s-95.5 68.666 -127.5 120.999s-48 112.833 -48 181.5c0 69.333 16.333 130.166 49 182.499zM286 740.504c-30.667 15.667 -56.334 37.167 -77.001 64.5l76 62
c11.333 -16 25.5 -28.833 42.5 -38.5s36.167 -14.5 57.5 -14.5c42 0 75.333 17.667 100 53l75 -62c-20.667 -27.333 -46.167 -48.833 -76.5 -64.5s-63.166 -23.5 -98.499 -23.5s-68.333 7.83301 -99 23.5z" />
    <glyph glyph-name="gbreve" unicode="&#x11f;" horiz-adv-x="595" 
d="M109 4c18 -18 39.6689 -31.333 65.002 -40s51.666 -13 78.999 -13c28.667 0 54.5 7.33301 77.5 22s34.5 41 34.5 79v26c-38 -43.333 -83.333 -65 -136 -65c-40 0 -76 8.83301 -108 26.5s-57.333 44.5 -76 80.5s-28 80.667 -28 134c0 52 9.16699 96.167 27.5 132.5
s43.5 63.5 75.5 81.5s68.333 27 109 27c55.333 0 100.666 -21 135.999 -63v51h180v-431c0 -93.333 -29.167 -158 -87.5 -194s-126.5 -54 -204.5 -54c-86 0 -159.333 24 -220 72zM365.002 305c-8 9.33301 -19.167 16.833 -33.5 22.5s-27.833 8.5 -40.5 8.5
c-26.667 0 -48.334 -6.66699 -65.001 -20s-25 -34 -25 -62s8.33301 -48.667 25 -62s38.334 -20 65.001 -20c12.667 0 26.167 2.83301 40.5 8.5s25.5 13.167 33.5 22.5v102zM202.002 573.5c-30.667 15.667 -56.334 37.167 -77.001 64.5l76 62
c11.333 -16 25.5 -28.833 42.5 -38.5s36.167 -14.5 57.5 -14.5c42 0 75.333 17.667 100 53l75 -62c-20.667 -27.333 -46.167 -48.833 -76.5 -64.5s-63.166 -23.5 -98.499 -23.5s-68.333 7.83301 -99 23.5z" />
    <glyph glyph-name="Gdotaccent" unicode="&#x120;" horiz-adv-x="741" 
d="M67 515.5c32.667 52.333 76.834 92.5039 132.501 120.504s117.5 42 185.5 42c72 0 132.333 -15.333 181 -46s86 -70 112 -118l-170 -87c-11.333 21.333 -27.833 38.833 -49.5 52.5s-46.167 20.5 -73.5 20.5c-31.333 0 -59.333 -7.33301 -84 -22
s-43.834 -34.834 -57.501 -60.501s-20.5 -53.834 -20.5 -84.501s6.83301 -58.834 20.5 -84.501s32.834 -45.834 57.501 -60.501s52.667 -22 84 -22c30 0 56.5 5.83301 79.5 17.5s38.5 25.834 46.5 42.501h-146v166h364c0 -87.333 -14.833 -161.166 -44.5 -221.499
s-71.834 -105.833 -126.501 -136.5s-119 -46 -193 -46c-61.333 0 -118.5 14.167 -171.5 42.5s-95.5 68.666 -127.5 120.999s-48 112.833 -48 181.5c0 69.333 16.333 130.166 49 182.499zM322 849.004c17.333 17.333 38.333 26 63 26c24 0 44.667 -8.66699 62 -26
s26 -38.333 26 -63s-8.66699 -45.667 -26 -63s-38 -26 -62 -26c-24.667 0 -45.667 8.66699 -63 26s-26 38.333 -26 63s8.66699 45.667 26 63z" />
    <glyph glyph-name="gdotaccent" unicode="&#x121;" horiz-adv-x="595" 
d="M109 4c18 -18 39.6689 -31.333 65.002 -40s51.666 -13 78.999 -13c28.667 0 54.5 7.33301 77.5 22s34.5 41 34.5 79v26c-38 -43.333 -83.333 -65 -136 -65c-40 0 -76 8.83301 -108 26.5s-57.333 44.5 -76 80.5s-28 80.667 -28 134c0 52 9.16699 96.167 27.5 132.5
s43.5 63.5 75.5 81.5s68.333 27 109 27c55.333 0 100.666 -21 135.999 -63v51h180v-431c0 -93.333 -29.167 -158 -87.5 -194s-126.5 -54 -204.5 -54c-86 0 -159.333 24 -220 72zM365.002 305c-8 9.33301 -19.167 16.833 -33.5 22.5s-27.833 8.5 -40.5 8.5
c-26.667 0 -48.334 -6.66699 -65.001 -20s-25 -34 -25 -62s8.33301 -48.667 25 -62s38.334 -20 65.001 -20c12.667 0 26.167 2.83301 40.5 8.5s25.5 13.167 33.5 22.5v102zM238.002 682c17.333 17.333 38.333 26 63 26c24 0 44.667 -8.66699 62 -26s26 -38.333 26 -63
s-8.66699 -45.667 -26 -63s-38 -26 -62 -26c-24.667 0 -45.667 8.66699 -63 26s-26 38.333 -26 63s8.66699 45.667 26 63z" />
    <glyph glyph-name="uni0122" unicode="&#x122;" horiz-adv-x="741" 
d="M67 515.5c32.667 52.333 76.834 92.5039 132.501 120.504s117.5 42 185.5 42c72 0 132.333 -15.333 181 -46s86 -70 112 -118l-170 -87c-11.333 21.333 -27.833 38.833 -49.5 52.5s-46.167 20.5 -73.5 20.5c-31.333 0 -59.333 -7.33301 -84 -22
s-43.834 -34.834 -57.501 -60.501s-20.5 -53.834 -20.5 -84.501s6.83301 -58.834 20.5 -84.501s32.834 -45.834 57.501 -60.501s52.667 -22 84 -22c30 0 56.5 5.83301 79.5 17.5s38.5 25.834 46.5 42.501h-146v166h364c0 -87.333 -14.833 -161.166 -44.5 -221.499
s-71.834 -105.833 -126.501 -136.5s-119 -46 -193 -46c-61.333 0 -118.5 14.167 -171.5 42.5s-95.5 68.666 -127.5 120.999s-48 112.833 -48 181.5c0 69.333 16.333 130.166 49 182.499zM323 -259.996c12.667 6 26.167 16.166 40.5 30.499s23.5 28.5 27.5 42.5
c-3.33301 -2 -9.66602 -3 -18.999 -3c-18.667 0 -34.167 6.33301 -46.5 19s-18.5 29.334 -18.5 50.001c0 22 7.66699 40.667 23 56s33.666 23 54.999 23c24 0 44.5 -8.66699 61.5 -26s25.5 -41 25.5 -71c0 -32.667 -8.33301 -63.167 -25 -91.5s-39.667 -52.833 -69 -73.5z
" />
    <glyph glyph-name="uni0123" unicode="&#x123;" horiz-adv-x="595" 
d="M358 738c-12 -4 -25.499 -12.667 -40.499 -26s-23.833 -26.333 -26.5 -39l7 1c19.333 0 36.666 -7.16699 51.999 -21.5s23 -31.833 23 -52.5c0 -22 -7.83301 -40.833 -23.5 -56.5s-34.5 -23.5 -56.5 -23.5c-19.333 0 -37.5 7 -54.5 21s-25.5 37.667 -25.5 71
c0 71.333 30 128 90 170zM109.001 4c18 -18 39.6689 -31.333 65.002 -40s51.666 -13 78.999 -13c28.667 0 54.5 7.33301 77.5 22s34.5 41 34.5 79v26c-38 -43.333 -83.333 -65 -136 -65c-40 0 -76 8.83301 -108 26.5s-57.333 44.5 -76 80.5s-28 80.667 -28 134
c0 52 9.16699 96.167 27.5 132.5s43.5 63.5 75.5 81.5s68.333 27 109 27c55.333 0 100.666 -21 135.999 -63v51h180v-431c0 -93.333 -29.167 -158 -87.5 -194s-126.5 -54 -204.5 -54c-86 0 -159.333 24 -220 72zM365.003 305c-8 9.33301 -19.167 16.833 -33.5 22.5
s-27.833 8.5 -40.5 8.5c-26.667 0 -48.334 -6.66699 -65.001 -20s-25 -34 -25 -62s8.33301 -48.667 25 -62s38.334 -20 65.001 -20c12.667 0 26.167 2.83301 40.5 8.5s25.5 13.167 33.5 22.5v102z" />
    <glyph glyph-name="Hcircumflex" unicode="&#x124;" horiz-adv-x="751" 
d="M495 255h-239v-255h-202v667h202v-236h239v236h202v-667h-202v255zM376 796l-61 -73h-105l88 144h156l91 -144h-105z" />
    <glyph glyph-name="hcircumflex" unicode="&#x125;" horiz-adv-x="608" 
d="M378 269c0 24 -6.00195 41.168 -18.002 51.501s-29.333 15.5 -52 15.5c-18 0 -32.833 -3.5 -44.5 -10.5s-22.5 -16.167 -32.5 -27.5v-298h-180v667h180v-239c16.667 18.667 38.834 34.5 66.501 47.5s60.834 19.5 99.501 19.5c53.333 0 93.5 -13.833 120.5 -41.5
s40.5 -63.834 40.5 -108.501v-345h-180v269zM303.998 796.001l-61 -73h-105l88 144h156l91 -144h-105z" />
    <glyph glyph-name="Hbar" unicode="&#x126;" horiz-adv-x="765" 
d="M758 501h-54v-501h-202v255h-239v-255h-202v501h-54v97h54v69h202v-69h239v69h202v-69h54v-97zM502 501h-239v-70h239v70z" />
    <glyph glyph-name="hbar" unicode="&#x127;" horiz-adv-x="613" 
d="M522.5 453.5c27 -27.667 40.498 -63.833 40.498 -108.5v-345h-180v269c0 24 -6 41.167 -18 51.5s-29.333 15.5 -52 15.5c-18 0 -32.833 -3.5 -44.5 -10.5s-22.5 -16.167 -32.5 -27.5v-298h-180v521h-49v97h49v49h180v-49h134v-97h-134v-93
c16.667 18.667 38.834 34.5 66.501 47.5s60.834 19.5 99.501 19.5c53.333 0 93.5 -13.833 120.5 -41.5z" />
    <glyph glyph-name="Itilde" unicode="&#x128;" horiz-adv-x="310" 
d="M54 667h202v-667h-202v667zM121 755c-4.66699 3.33301 -8.83398 5.66602 -12.501 6.99902s-7.16699 2 -10.5 2c-6.66699 0 -12.334 -3.16699 -17.001 -9.5s-7 -15.5 -7 -27.5h-89c0 89.333 39.333 134 118 134c16.667 0 30.5 -2.33301 41.5 -7s23.167 -11.667 36.5 -21
c1.33301 -0.666992 4.33301 -2.66699 9 -6s8.83398 -5.66602 12.501 -6.99902s7.16699 -2 10.5 -2c6.66699 0 12.334 3.16699 17.001 9.5s7 15.5 7 27.5h89c0 -89.333 -39.333 -134 -118 -134c-16.667 0 -30.5 2.33301 -41.5 7s-23.167 11.667 -36.5 21
c-1.33301 0.666992 -4.33301 2.66699 -9 6z" />
    <glyph glyph-name="itilde" unicode="&#x129;" horiz-adv-x="280" 
d="M50 483h180v-483h-180v483zM106 588c-4.66699 3.33301 -8.83398 5.66602 -12.501 6.99902s-7.16699 2 -10.5 2c-6.66699 0 -12.334 -3.16699 -17.001 -9.5s-7 -15.5 -7 -27.5h-89c0 89.333 39.333 134 118 134c16.667 0 30.5 -2.33301 41.5 -7s23.167 -11.667 36.5 -21
c1.33301 -0.666992 4.33301 -2.66699 9 -6s8.83398 -5.66602 12.501 -6.99902s7.16699 -2 10.5 -2c6.66699 0 12.334 3.16699 17.001 9.5s7 15.5 7 27.5h89c0 -89.333 -39.333 -134 -118 -134c-16.667 0 -30.5 2.33301 -41.5 7s-23.167 11.667 -36.5 21
c-1.33301 0.666992 -4.33301 2.66699 -9 6z" />
    <glyph glyph-name="Imacron" unicode="&#x12a;" horiz-adv-x="310" 
d="M54 667h202v-667h-202v667zM-27 815h363v-97h-363v97z" />
    <glyph glyph-name="imacron" unicode="&#x12b;" horiz-adv-x="280" 
d="M50 483h180v-483h-180v483zM-42 648h363v-97h-363v97z" />
    <glyph glyph-name="Ibreve" unicode="&#x12c;" horiz-adv-x="310" 
d="M54 667h202v-667h-202v667zM56 740.5c-30.667 15.667 -56.334 37.167 -77.001 64.5l76 62c11.333 -16 25.5 -28.833 42.5 -38.5s36.167 -14.5 57.5 -14.5c42 0 75.333 17.667 100 53l75 -62c-20.667 -27.333 -46.167 -48.833 -76.5 -64.5s-63.166 -23.5 -98.499 -23.5
s-68.333 7.83301 -99 23.5z" />
    <glyph glyph-name="ibreve" unicode="&#x12d;" horiz-adv-x="280" 
d="M50 483h180v-483h-180v483zM41 573.5c-30.667 15.667 -56.334 37.167 -77.001 64.5l76 62c11.333 -16 25.5 -28.833 42.5 -38.5s36.167 -14.5 57.5 -14.5c42 0 75.333 17.667 100 53l75 -62c-20.667 -27.333 -46.167 -48.833 -76.5 -64.5s-63.166 -23.5 -98.499 -23.5
s-68.333 7.83301 -99 23.5z" />
    <glyph glyph-name="Iogonek" unicode="&#x12e;" horiz-adv-x="310" 
d="M191 -20c-14.667 -10.667 -21.9971 -23.332 -21.9971 -37.999c0 -8.66699 3.16699 -15.667 9.5 -21s14.166 -8 23.499 -8c8 0 16 1.66699 24 5l27 -84c-16 -8 -31.833 -13.333 -47.5 -16s-35.5 -4 -59.5 -4c-34.667 0 -65.334 6.83301 -92.001 20.5s-40 36.167 -40 67.5
c0 21.333 9 40 27 56s46.333 30 85 42h-72v667h202v-667c-28.667 -2.66699 -50.334 -9.33398 -65.001 -20.001z" />
    <glyph glyph-name="iogonek" unicode="&#x12f;" horiz-adv-x="280" 
d="M68.5 547.5c-19.667 19.667 -29.5 43.5 -29.5 71.5s9.83301 51.833 29.5 71.5s43.5 29.5 71.5 29.5s51.833 -9.83301 71.5 -29.5s29.5 -43.5 29.5 -71.5s-9.83301 -51.833 -29.5 -71.5s-43.5 -29.5 -71.5 -29.5s-51.833 9.83301 -71.5 29.5zM50 483l180.003 0.00195312
v-483c-28.667 -2.66699 -50.334 -9.33398 -65.001 -20.001s-22 -23.334 -22 -38.001c0 -8.66699 3.16699 -15.667 9.5 -21s14.166 -8 23.499 -8c8 0 16 1.66699 24 5l27 -84c-16 -8 -31.833 -13.333 -47.5 -16s-35.5 -4 -59.5 -4c-34.667 0 -65.334 6.83301 -92.001 20.5
s-40 36.167 -40 67.5c0 21.333 9 40 27 56s46.333 30 85 42h-50v483z" />
    <glyph glyph-name="Idotaccent" unicode="&#x130;" horiz-adv-x="310" 
d="M54 667h202v-667h-202v667zM92 849c17.333 17.333 38.333 26 63 26c24 0 44.667 -8.66699 62 -26s26 -38.333 26 -63s-8.66699 -45.667 -26 -63s-38 -26 -62 -26c-24.667 0 -45.667 8.66699 -63 26s-26 38.333 -26 63s8.66699 45.667 26 63z" />
    <glyph glyph-name="dotlessi" unicode="&#x131;" horiz-adv-x="280" 
d="M50 483h180v-483h-180v483z" />
    <glyph glyph-name="IJ" unicode="&#x132;" horiz-adv-x="808" 
d="M54 667h202v-667h-202v667zM392 196c29.333 -20 58 -29.999 86 -29.999c22 0 39.833 6.66699 53.5 20s20.5 31.666 20.5 54.999v426h202v-429c0 -83.333 -23 -145.833 -69 -187.5s-109 -62.5 -189 -62.5c-77.333 0 -139.333 18 -186 54z" />
    <glyph glyph-name="ij" unicode="&#x133;" horiz-adv-x="560" 
d="M68.5 547.5c-19.667 19.667 -29.5 43.5 -29.5 71.5s9.83301 51.833 29.5 71.5s43.5 29.5 71.5 29.5s51.833 -9.83301 71.5 -29.5s29.5 -43.5 29.5 -71.5s-9.83301 -51.833 -29.5 -71.5s-43.5 -29.5 -71.5 -29.5s-51.833 9.83301 -71.5 29.5zM50 483h180v-483h-180v483z
M348.5 547.5c-19.667 19.667 -29.5 43.5 -29.5 71.5s9.83301 51.833 29.5 71.5s43.5 29.5 71.5 29.5s51.833 -9.83301 71.5 -29.5s29.5 -43.5 29.5 -71.5s-9.83301 -51.833 -29.5 -71.5s-43.5 -29.5 -71.5 -29.5s-51.833 9.83301 -71.5 29.5zM510 21
c0 -65.333 -16.668 -117.833 -50.001 -157.5s-83.666 -59.5 -150.999 -59.5c-24 0 -42.667 1.33301 -56 4v145c6.66699 -1.33301 14.667 -2 24 -2c16.667 0 29.667 6 39 18s14 29.333 14 52v462h180v-462z" />
    <glyph glyph-name="Jcircumflex" unicode="&#x134;" horiz-adv-x="498" 
d="M82 196c29.333 -20 58 -29.999 86 -29.999c22 0 39.833 6.66699 53.5 20s20.5 31.666 20.5 54.999v426h202v-429c0 -83.333 -23 -145.833 -69 -187.5s-109 -62.5 -189 -62.5c-77.333 0 -139.333 18 -186 54zM345 796.001l-61 -73h-105l88 144h156l91 -144h-105z" />
    <glyph glyph-name="jcircumflex" unicode="&#x135;" horiz-adv-x="280" 
d="M-27 -47c6.66699 -1.33301 14.666 -2 23.999 -2c16.667 0 29.667 6 39 18s14 29.333 14 52v462h180v-462c0 -65.333 -16.667 -117.833 -50 -157.5s-83.666 -59.5 -150.999 -59.5c-24 0 -42.667 1.33301 -56 4v145zM139.999 629l-61 -73h-105l88 144h156l91 -144h-105z
" />
    <glyph glyph-name="uni0136" unicode="&#x136;" horiz-adv-x="671" 
d="M293 235l-37 -50v-185h-202v667h202v-250l175 250h247l-252 -310l263 -357h-246zM282 -260c12.667 6 26.167 16.166 40.5 30.499s23.5 28.5 27.5 42.5c-3.33301 -2 -9.66602 -3 -18.999 -3c-18.667 0 -34.167 6.33301 -46.5 19s-18.5 29.334 -18.5 50.001
c0 22 7.66699 40.667 23 56s33.666 23 54.999 23c24 0 44.5 -8.66699 61.5 -26s25.5 -41 25.5 -71c0 -32.667 -8.33301 -63.167 -25 -91.5s-39.667 -52.833 -69 -73.5z" />
    <glyph glyph-name="uni0137" unicode="&#x137;" horiz-adv-x="557" 
d="M265 156l-35 -47v-109h-180v667h180v-356l111 172h217l-166 -220l177 -263h-221zM215 -260c12.667 6 26.167 16.166 40.5 30.499s23.5 28.5 27.5 42.5c-3.33301 -2 -9.66602 -3 -18.999 -3c-18.667 0 -34.167 6.33301 -46.5 19s-18.5 29.334 -18.5 50.001
c0 22 7.66699 40.667 23 56s33.666 23 54.999 23c24 0 44.5 -8.66699 61.5 -26s25.5 -41 25.5 -71c0 -32.667 -8.33301 -63.167 -25 -91.5s-39.667 -52.833 -69 -73.5z" />
    <glyph glyph-name="kgreenlandic" unicode="&#x138;" horiz-adv-x="557" 
d="M265 156l-35 -47v-109h-180v483h180v-172l111 172h217l-166 -220l177 -263h-221z" />
    <glyph glyph-name="Lacute" unicode="&#x139;" horiz-adv-x="536" 
d="M54 667h202v-491h253v-176h-455v667zM218 723l120 144h155l-155 -144h-120z" />
    <glyph glyph-name="lacute" unicode="&#x13a;" horiz-adv-x="328" 
d="M92.5 26.5c-28.333 25.667 -42.499 63.501 -42.499 113.501v527h180v-475c0 -12.667 3.66699 -23.334 11 -32.001s17 -13 29 -13c7.33301 0 14.666 1 21.999 3s12 4 14 6l32 -136c-10 -9.33301 -25.667 -17 -47 -23s-46.333 -9 -75 -9c-54 0 -95.167 12.833 -123.5 38.5z
M79.001 723.001l120 144h155l-155 -144h-120z" />
    <glyph glyph-name="uni013B" unicode="&#x13b;" horiz-adv-x="536" 
d="M54 667h202v-491h253v-176h-455v667zM220 -260c12.667 6 26.167 16.166 40.5 30.499s23.5 28.5 27.5 42.5c-3.33301 -2 -9.66602 -3 -18.999 -3c-18.667 0 -34.167 6.33301 -46.5 19s-18.5 29.334 -18.5 50.001c0 22 7.66699 40.667 23 56s33.666 23 54.999 23
c24 0 44.5 -8.66699 61.5 -26s25.5 -41 25.5 -71c0 -32.667 -8.33301 -63.167 -25 -91.5s-39.667 -52.833 -69 -73.5z" />
    <glyph glyph-name="uni013C" unicode="&#x13c;" horiz-adv-x="328" 
d="M92.5 26.5c-28.333 25.667 -42.499 63.501 -42.499 113.501v527h180v-475c0 -12.667 3.66699 -23.334 11 -32.001s17 -13 29 -13c7.33301 0 14.666 1 21.999 3s12 4 14 6l32 -136c-10 -9.33301 -25.667 -17 -47 -23s-46.333 -9 -75 -9c-54 0 -95.167 12.833 -123.5 38.5z
M111.001 -259.999c12.667 6 26.167 16.166 40.5 30.499s23.5 28.5 27.5 42.5c-3.33301 -2 -9.66602 -3 -18.999 -3c-18.667 0 -34.167 6.33301 -46.5 19s-18.5 29.334 -18.5 50.001c0 22 7.66699 40.667 23 56s33.666 23 54.999 23c24 0 44.5 -8.66699 61.5 -26
s25.5 -41 25.5 -71c0 -32.667 -8.33301 -63.167 -25 -91.5s-39.667 -52.833 -69 -73.5z" />
    <glyph glyph-name="Lcaron" unicode="&#x13d;" horiz-adv-x="536" 
d="M54 667h202v-491h253v-176h-455v667zM337 463c12.667 6 26.167 16.166 40.5 30.499s23.5 28.5 27.5 42.5c-3.33301 -2 -9.66602 -3 -18.999 -3c-18.667 0 -34.167 6.33301 -46.5 19s-18.5 29.334 -18.5 50.001c0 22 7.66699 40.667 23 56s33.666 23 54.999 23
c24 0 44.5 -8.66699 61.5 -26s25.5 -41 25.5 -71c0 -32.667 -8.33301 -63.167 -25 -91.5s-39.667 -52.833 -69 -73.5z" />
    <glyph glyph-name="lcaron" unicode="&#x13e;" horiz-adv-x="418" 
d="M92.5 26.5c-28.333 25.667 -42.499 63.501 -42.499 113.501v527h180v-475c0 -12.667 3.66699 -23.334 11 -32.001s17 -13 29 -13c7.33301 0 14.666 1 21.999 3s12 4 14 6l32 -136c-10 -9.33301 -25.667 -17 -47 -23s-46.333 -9 -75 -9c-54 0 -95.167 12.833 -123.5 38.5z
M285.001 463.001c12.667 6 26.167 16.166 40.5 30.499s23.5 28.5 27.5 42.5c-3.33301 -2 -9.66602 -3 -18.999 -3c-18.667 0 -34.167 6.33301 -46.5 19s-18.5 29.334 -18.5 50.001c0 22 7.66699 40.667 23 56s33.666 23 54.999 23c24 0 44.5 -8.66699 61.5 -26
s25.5 -41 25.5 -71c0 -32.667 -8.33301 -63.167 -25 -91.5s-39.667 -52.833 -69 -73.5z" />
    <glyph glyph-name="Ldot" unicode="&#x13f;" horiz-adv-x="599" 
d="M54 667h202v-491h253v-176h-455v667zM382.5 267.5c-21 21 -31.5 45.833 -31.5 74.5c0 29.333 10.5 54.5 31.5 75.5s45.833 31.5 74.5 31.5s53.5 -10.5 74.5 -31.5s31.5 -46.167 31.5 -75.5c0 -28.667 -10.5 -53.5 -31.5 -74.5s-45.833 -31.5 -74.5 -31.5
s-53.5 10.5 -74.5 31.5z" />
    <glyph glyph-name="ldot" unicode="&#x140;" horiz-adv-x="462" 
d="M92.5 26.5c-28.333 25.667 -42.499 63.501 -42.499 113.501v527h180v-475c0 -12.667 3.66699 -23.334 11 -32.001s17 -13 29 -13c7.33301 0 14.666 1 21.999 3s12 4 14 6l32 -136c-10 -9.33301 -25.667 -17 -47 -23s-46.333 -9 -75 -9c-54 0 -95.167 12.833 -123.5 38.5z
M296.501 169.501c-21 21 -31.5 45.833 -31.5 74.5c0 29.333 10.5 54.5 31.5 75.5s45.833 31.5 74.5 31.5s53.5 -10.5 74.5 -31.5s31.5 -46.167 31.5 -75.5c0 -28.667 -10.5 -53.5 -31.5 -74.5s-45.833 -31.5 -74.5 -31.5s-53.5 10.5 -74.5 31.5z" />
    <glyph glyph-name="Lslash" unicode="&#x141;" horiz-adv-x="545" 
d="M518 176v-176h-455v195l-56 -32v160l56 32v312h202v-195l56 32v-161l-56 -32v-135h253z" />
    <glyph glyph-name="lslash" unicode="&#x142;" horiz-adv-x="352" 
d="M362 20c-10 -9.33301 -25.666 -16.999 -46.999 -22.999s-46.333 -9 -75 -9c-54 0 -95.167 12.833 -123.5 38.5s-42.5 63.5 -42.5 113.5v79l-67 -39v126l67 39v322h180v-219l69 40v-125l-69 -40v-131c0 -12.667 3.66699 -23.334 11 -32.001s17 -13 29 -13
c7.33301 0 14.666 1 21.999 3s12 4 14 6z" />
    <glyph glyph-name="Nacute" unicode="&#x143;" horiz-adv-x="750" 
d="M256 358v-358h-202v667h208l232 -336v336h202v-667h-194zM311 723l120 144h155l-155 -144h-120z" />
    <glyph glyph-name="nacute" unicode="&#x144;" horiz-adv-x="607" 
d="M377 267c0 46 -23.335 69 -70.002 69c-18 0 -32.833 -3.5 -44.5 -10.5s-22.5 -16.167 -32.5 -27.5v-298h-180v483h180v-55c16.667 18.667 38.834 34.5 66.501 47.5s60.834 19.5 99.501 19.5c53.333 0 93.5 -14.167 120.5 -42.5s40.5 -64.833 40.5 -109.5v-343h-180v267z
M238.998 556l120 144h155l-155 -144h-120z" />
    <glyph glyph-name="uni0145" unicode="&#x145;" horiz-adv-x="750" 
d="M256 358v-358h-202v667h208l232 -336v336h202v-667h-194zM313 -260c12.667 6 26.167 16.166 40.5 30.499s23.5 28.5 27.5 42.5c-3.33301 -2 -9.66602 -3 -18.999 -3c-18.667 0 -34.167 6.33301 -46.5 19s-18.5 29.334 -18.5 50.001c0 22 7.66699 40.667 23 56
s33.666 23 54.999 23c24 0 44.5 -8.66699 61.5 -26s25.5 -41 25.5 -71c0 -32.667 -8.33301 -63.167 -25 -91.5s-39.667 -52.833 -69 -73.5z" />
    <glyph glyph-name="uni0146" unicode="&#x146;" horiz-adv-x="607" 
d="M377 267c0 46 -23.335 69 -70.002 69c-18 0 -32.833 -3.5 -44.5 -10.5s-22.5 -16.167 -32.5 -27.5v-298h-180v483h180v-55c16.667 18.667 38.834 34.5 66.501 47.5s60.834 19.5 99.501 19.5c53.333 0 93.5 -14.167 120.5 -42.5s40.5 -64.833 40.5 -109.5v-343h-180v267z
M240.998 -260c12.667 6 26.167 16.166 40.5 30.499s23.5 28.5 27.5 42.5c-3.33301 -2 -9.66602 -3 -18.999 -3c-18.667 0 -34.167 6.33301 -46.5 19s-18.5 29.334 -18.5 50.001c0 22 7.66699 40.667 23 56s33.666 23 54.999 23c24 0 44.5 -8.66699 61.5 -26
s25.5 -41 25.5 -71c0 -32.667 -8.33301 -63.167 -25 -91.5s-39.667 -52.833 -69 -73.5z" />
    <glyph glyph-name="Ncaron" unicode="&#x147;" horiz-adv-x="750" 
d="M256 358v-358h-202v667h208l232 -336v336h202v-667h-194zM206 867h105l64 -73l61 73h105l-88 -144h-156z" />
    <glyph glyph-name="ncaron" unicode="&#x148;" horiz-adv-x="607" 
d="M377 267c0 46 -23.335 69 -70.002 69c-18 0 -32.833 -3.5 -44.5 -10.5s-22.5 -16.167 -32.5 -27.5v-298h-180v483h180v-55c16.667 18.667 38.834 34.5 66.501 47.5s60.834 19.5 99.501 19.5c53.333 0 93.5 -14.167 120.5 -42.5s40.5 -64.833 40.5 -109.5v-343h-180v267z
M133.998 700h105l64 -73l61 73h105l-88 -144h-156z" />
    <glyph glyph-name="napostrophe" unicode="&#x149;" horiz-adv-x="607" 
d="M377 267c0 46 -23.335 69 -70.002 69c-18 0 -32.833 -3.5 -44.5 -10.5s-22.5 -16.167 -32.5 -27.5v-298h-180v483h180v-55c16.667 18.667 38.834 34.5 66.501 47.5s60.834 19.5 99.501 19.5c53.333 0 93.5 -14.167 120.5 -42.5s40.5 -64.833 40.5 -109.5v-343h-180v267z
M40.998 567c12.667 6 26.167 16.166 40.5 30.499s23.5 28.5 27.5 42.5c-3.33301 -2 -9.66602 -3 -18.999 -3c-18.667 0 -34.167 6.33301 -46.5 19s-18.5 29.334 -18.5 50.001c0 22 7.66699 40.667 23 56s33.666 23 54.999 23c24 0 44.5 -8.66699 61.5 -26s25.5 -41 25.5 -71
c0 -32.667 -8.33301 -63.167 -25 -91.5s-39.667 -52.833 -69 -73.5z" />
    <glyph glyph-name="Eng" unicode="&#x14a;" horiz-adv-x="750" 
d="M696 667v-613.001c0 -83.333 -23 -145.833 -69 -187.5s-109 -62.5 -189 -62.5c-77.333 0 -139.333 18 -186 54l82 154c29.333 -20 58 -30 86 -30c15.333 0 28.833 3.33301 40.5 10s20.5 16.334 26.5 29.001l-231 317v-338h-202v667h208l232 -316v316h202z" />
    <glyph glyph-name="eng" unicode="&#x14b;" horiz-adv-x="607" 
d="M507 -136.5c-33.333 -39.667 -83.6689 -59.5 -151.002 -59.5c-24 0 -42.667 1.33301 -56 4v145c6.66699 -1.33301 14.667 -2 24 -2c16.667 0 29.667 6 39 18s14 29.333 14 52v246c0 46 -23.333 69 -70 69c-18 0 -32.833 -3.5 -44.5 -10.5s-22.5 -16.167 -32.5 -27.5v-298
h-180v483h180v-55c16.667 18.667 38.834 34.5 66.501 47.5s60.834 19.5 99.501 19.5c53.333 0 93.5 -14.167 120.5 -42.5s40.5 -64.833 40.5 -109.5v-322c0 -65.333 -16.667 -117.833 -50 -157.5z" />
    <glyph glyph-name="Omacron" unicode="&#x14c;" horiz-adv-x="766" 
d="M66 512c32 52.667 75.833 93.5 131.5 122.5s117.5 43.5 185.5 43.5s129.833 -14.5 185.5 -43.5s99.5 -69.833 131.5 -122.5s48 -112.334 48 -179.001s-16 -126.334 -48 -179.001s-75.833 -93.5 -131.5 -122.5s-117.5 -43.5 -185.5 -43.5s-129.833 14.5 -185.5 43.5
s-99.5 69.833 -131.5 122.5s-48 112.334 -48 179.001s16 126.334 48 179.001zM523 417.5c-13.333 25.667 -32.166 45.834 -56.499 60.501s-52.166 22 -83.499 22s-59.166 -7.33301 -83.499 -22s-43.166 -34.834 -56.499 -60.501s-20 -53.834 -20 -84.501
s6.66699 -58.834 20 -84.501s32.166 -45.834 56.499 -60.501s52.166 -22 83.499 -22s59.166 7.33301 83.499 22s43.166 34.834 56.499 60.501s20 53.834 20 84.501s-6.66699 58.834 -20 84.501zM201 815h363v-97h-363v97z" />
    <glyph glyph-name="omacron" unicode="&#x14d;" horiz-adv-x="577" 
d="M143.5 22.5c-41 23 -72.333 54 -94 93s-32.5 81.167 -32.5 126.5s10.833 87.333 32.5 126s53 69.5 94 92.5s89.167 34.5 144.5 34.5s103.666 -11.5 144.999 -34.5s72.833 -53.833 94.5 -92.5s32.5 -80.667 32.5 -126s-10.833 -87.5 -32.5 -126.5s-53.167 -70 -94.5 -93
s-89.666 -34.5 -144.999 -34.5s-103.5 11.5 -144.5 34.5zM352 173.5c15.333 17.667 23 40.5 23 68.5c0 27.333 -7.66699 49.833 -23 67.5s-36.666 26.5 -63.999 26.5c-26.667 0 -47.667 -8.83301 -63 -26.5s-23 -40.167 -23 -67.5c0 -28 7.66699 -50.833 23 -68.5
s36.333 -26.5 63 -26.5c27.333 0 48.666 8.83301 63.999 26.5zM106 648h363v-97h-363v97z" />
    <glyph glyph-name="Obreve" unicode="&#x14e;" horiz-adv-x="766" 
d="M66 512c32 52.667 75.833 93.5 131.5 122.5s117.5 43.5 185.5 43.5s129.833 -14.5 185.5 -43.5s99.5 -69.833 131.5 -122.5s48 -112.334 48 -179.001s-16 -126.334 -48 -179.001s-75.833 -93.5 -131.5 -122.5s-117.5 -43.5 -185.5 -43.5s-129.833 14.5 -185.5 43.5
s-99.5 69.833 -131.5 122.5s-48 112.334 -48 179.001s16 126.334 48 179.001zM523 417.5c-13.333 25.667 -32.166 45.834 -56.499 60.501s-52.166 22 -83.499 22s-59.166 -7.33301 -83.499 -22s-43.166 -34.834 -56.499 -60.501s-20 -53.834 -20 -84.501
s6.66699 -58.834 20 -84.501s32.166 -45.834 56.499 -60.501s52.166 -22 83.499 -22s59.166 7.33301 83.499 22s43.166 34.834 56.499 60.501s20 53.834 20 84.501s-6.66699 58.834 -20 84.501zM284 740.5c-30.667 15.667 -56.334 37.167 -77.001 64.5l76 62
c11.333 -16 25.5 -28.833 42.5 -38.5s36.167 -14.5 57.5 -14.5c42 0 75.333 17.667 100 53l75 -62c-20.667 -27.333 -46.167 -48.833 -76.5 -64.5s-63.166 -23.5 -98.499 -23.5s-68.333 7.83301 -99 23.5z" />
    <glyph glyph-name="obreve" unicode="&#x14f;" horiz-adv-x="577" 
d="M143.5 22.5c-41 23 -72.333 54 -94 93s-32.5 81.167 -32.5 126.5s10.833 87.333 32.5 126s53 69.5 94 92.5s89.167 34.5 144.5 34.5s103.666 -11.5 144.999 -34.5s72.833 -53.833 94.5 -92.5s32.5 -80.667 32.5 -126s-10.833 -87.5 -32.5 -126.5s-53.167 -70 -94.5 -93
s-89.666 -34.5 -144.999 -34.5s-103.5 11.5 -144.5 34.5zM352 173.5c15.333 17.667 23 40.5 23 68.5c0 27.333 -7.66699 49.833 -23 67.5s-36.666 26.5 -63.999 26.5c-26.667 0 -47.667 -8.83301 -63 -26.5s-23 -40.167 -23 -67.5c0 -28 7.66699 -50.833 23 -68.5
s36.333 -26.5 63 -26.5c27.333 0 48.666 8.83301 63.999 26.5zM189 573.5c-30.667 15.667 -56.334 37.167 -77.001 64.5l76 62c11.333 -16 25.5 -28.833 42.5 -38.5s36.167 -14.5 57.5 -14.5c42 0 75.333 17.667 100 53l75 -62c-20.667 -27.333 -46.167 -48.833 -76.5 -64.5
s-63.166 -23.5 -98.499 -23.5s-68.333 7.83301 -99 23.5z" />
    <glyph glyph-name="Ohungarumlaut" unicode="&#x150;" horiz-adv-x="766" 
d="M66 512c32 52.667 75.833 93.5 131.5 122.5s117.5 43.5 185.5 43.5s129.833 -14.5 185.5 -43.5s99.5 -69.833 131.5 -122.5s48 -112.334 48 -179.001s-16 -126.334 -48 -179.001s-75.833 -93.5 -131.5 -122.5s-117.5 -43.5 -185.5 -43.5s-129.833 14.5 -185.5 43.5
s-99.5 69.833 -131.5 122.5s-48 112.334 -48 179.001s16 126.334 48 179.001zM523 417.5c-13.333 25.667 -32.166 45.834 -56.499 60.501s-52.166 22 -83.499 22s-59.166 -7.33301 -83.499 -22s-43.166 -34.834 -56.499 -60.501s-20 -53.834 -20 -84.501
s6.66699 -58.834 20 -84.501s32.166 -45.834 56.499 -60.501s52.166 -22 83.499 -22s59.166 7.33301 83.499 22s43.166 34.834 56.499 60.501s20 53.834 20 84.501s-6.66699 58.834 -20 84.501zM254 723l80 144h135l-115 -144h-100zM410 723l80 144h135l-115 -144h-100z" />
    <glyph glyph-name="ohungarumlaut" unicode="&#x151;" horiz-adv-x="577" 
d="M143.5 22.5c-41 23 -72.333 54 -94 93s-32.5 81.167 -32.5 126.5s10.833 87.333 32.5 126s53 69.5 94 92.5s89.167 34.5 144.5 34.5s103.666 -11.5 144.999 -34.5s72.833 -53.833 94.5 -92.5s32.5 -80.667 32.5 -126s-10.833 -87.5 -32.5 -126.5s-53.167 -70 -94.5 -93
s-89.666 -34.5 -144.999 -34.5s-103.5 11.5 -144.5 34.5zM352 173.5c15.333 17.667 23 40.5 23 68.5c0 27.333 -7.66699 49.833 -23 67.5s-36.666 26.5 -63.999 26.5c-26.667 0 -47.667 -8.83301 -63 -26.5s-23 -40.167 -23 -67.5c0 -28 7.66699 -50.833 23 -68.5
s36.333 -26.5 63 -26.5c27.333 0 48.666 8.83301 63.999 26.5zM159 556l80 144h135l-115 -144h-100zM315 556l80 144h135l-115 -144h-100z" />
    <glyph glyph-name="OE" unicode="&#x152;" horiz-adv-x="1062" 
d="M526 36c-20 -15.333 -45.333 -27.165 -76 -35.498s-60.667 -12.5 -90 -12.5c-64.667 0 -123 14.5 -175 43.5s-92.833 69.667 -122.5 122s-44.5 112.166 -44.5 179.499s14.833 127.166 44.5 179.499s70.5 92.833 122.5 121.5s110.333 43 175 43
c29.333 0 59.333 -3.83301 90 -11.5s56 -19.167 76 -34.5v36h506v-168h-304v-78h297v-168h-297v-85h304v-168h-506v36zM471.5 480.501c-23.667 12.333 -50.5 18.5 -80.5 18.5c-51.333 0 -92.166 -15.667 -122.499 -47s-45.5 -71 -45.5 -119
c0 -31.333 6.83301 -59.666 20.5 -84.999s33.167 -45.333 58.5 -60s55 -22 89 -22c29.333 0 56 6.33301 80 19s42.333 30 55 52v193c-12.667 21.333 -30.834 38.166 -54.501 50.499z" />
    <glyph glyph-name="oe" unicode="&#x153;" horiz-adv-x="901" 
d="M600 142.5c18 -12.333 41.333 -18.501 70 -18.501c18.667 0 37.334 3.16699 56.001 9.5s34 14.5 46 24.5l78 -110c-22.667 -19.333 -53 -34.166 -91 -44.499s-76.333 -15.5 -115 -15.5c-40 0 -73.333 6.66699 -100 20s-53 32 -79 56
c-50.667 -50.667 -109.667 -76 -177 -76c-55.333 0 -103.5 11.5 -144.5 34.5s-72.333 54 -94 93s-32.5 81.167 -32.5 126.5s10.833 87.333 32.5 126s53 69.5 94 92.5s89.167 34.5 144.5 34.5c37.333 0 70 -6.83301 98 -20.5s54.667 -32.5 80 -56.5
c22 23.333 46.833 42 74.5 56s60.167 21 97.5 21c47.333 0 90.166 -11 128.499 -33s68.333 -53.5 90 -94.5s32.5 -89.167 32.5 -144.5v-37h-328c8 -16.667 21 -31.167 39 -43.5zM694.5 340.999c-12.333 12 -31.168 18 -56.501 18c-24.667 0 -43 -6 -55 -18
s-20 -25.667 -24 -41h159c-3.33301 15.333 -11.166 29 -23.499 41zM225.998 311.499c-16 -16.333 -23.999 -39.5 -23.999 -69.5c0 -30.667 8 -54.334 24 -71.001s36.667 -25 62 -25s46.166 8.33301 62.499 25s24.5 40.334 24.5 71.001s-8 54 -24 70s-37 24 -63 24
c-25.333 0 -46 -8.16699 -62 -24.5z" />
    <glyph glyph-name="Racute" unicode="&#x154;" horiz-adv-x="678" 
d="M329 214l-72.999 0.000976562v-214h-202v667h356c50 0 93.167 -10.167 129.5 -30.5s63.833 -47.833 82.5 -82.5s28 -73.334 28 -116.001c0 -52 -11.833 -94.667 -35.5 -128s-51.834 -58 -84.501 -74l121 -236h-230zM425.501 483.001c-13 10.667 -28.5 16 -46.5 16h-123
v-117h123c18 0 33.5 5.33301 46.5 16s19.5 25 19.5 43c0 17.333 -6.5 31.333 -19.5 42zM280.001 723.001l120 144h155l-155 -144h-120z" />
    <glyph glyph-name="racute" unicode="&#x155;" horiz-adv-x="390" 
d="M50 483h179.999v-55c15.333 18 37.166 33.667 65.499 47s55.833 20 82.5 20v-172c-10 3.33301 -23.667 5 -41 5c-21.333 0 -42.166 -2.83301 -62.499 -8.5s-35.166 -14.167 -44.499 -25.5v-294h-180v483zM150.999 556l120 144h155l-155 -144h-120z" />
    <glyph glyph-name="uni0156" unicode="&#x156;" horiz-adv-x="678" 
d="M329 214l-72.999 0.000976562v-214h-202v667h356c50 0 93.167 -10.167 129.5 -30.5s63.833 -47.833 82.5 -82.5s28 -73.334 28 -116.001c0 -52 -11.833 -94.667 -35.5 -128s-51.834 -58 -84.501 -74l121 -236h-230zM425.501 483.001c-13 10.667 -28.5 16 -46.5 16h-123
v-117h123c18 0 33.5 5.33301 46.5 16s19.5 25 19.5 43c0 17.333 -6.5 31.333 -19.5 42zM282.001 -259.999c12.667 6 26.167 16.166 40.5 30.499s23.5 28.5 27.5 42.5c-3.33301 -2 -9.66602 -3 -18.999 -3c-18.667 0 -34.167 6.33301 -46.5 19s-18.5 29.334 -18.5 50.001
c0 22 7.66699 40.667 23 56s33.666 23 54.999 23c24 0 44.5 -8.66699 61.5 -26s25.5 -41 25.5 -71c0 -32.667 -8.33301 -63.167 -25 -91.5s-39.667 -52.833 -69 -73.5z" />
    <glyph glyph-name="uni0157" unicode="&#x157;" horiz-adv-x="390" 
d="M50 483h179.999v-55c15.333 18 37.166 33.667 65.499 47s55.833 20 82.5 20v-172c-10 3.33301 -23.667 5 -41 5c-21.333 0 -42.166 -2.83301 -62.499 -8.5s-35.166 -14.167 -44.499 -25.5v-294h-180v483zM80.999 -260c12.667 6 26.167 16.166 40.5 30.499
s23.5 28.5 27.5 42.5c-3.33301 -2 -9.66602 -3 -18.999 -3c-18.667 0 -34.167 6.33301 -46.5 19s-18.5 29.334 -18.5 50.001c0 22 7.66699 40.667 23 56s33.666 23 54.999 23c24 0 44.5 -8.66699 61.5 -26s25.5 -41 25.5 -71c0 -32.667 -8.33301 -63.167 -25 -91.5
s-39.667 -52.833 -69 -73.5z" />
    <glyph glyph-name="Rcaron" unicode="&#x158;" horiz-adv-x="678" 
d="M329 214l-72.999 0.000976562v-214h-202v667h356c50 0 93.167 -10.167 129.5 -30.5s63.833 -47.833 82.5 -82.5s28 -73.334 28 -116.001c0 -52 -11.833 -94.667 -35.5 -128s-51.834 -58 -84.501 -74l121 -236h-230zM425.501 483.001c-13 10.667 -28.5 16 -46.5 16h-123
v-117h123c18 0 33.5 5.33301 46.5 16s19.5 25 19.5 43c0 17.333 -6.5 31.333 -19.5 42zM175.001 867.001h105l64 -73l61 73h105l-88 -144h-156z" />
    <glyph glyph-name="rcaron" unicode="&#x159;" horiz-adv-x="390" 
d="M50 483h179.999v-55c15.333 18 37.166 33.667 65.499 47s55.833 20 82.5 20v-172c-10 3.33301 -23.667 5 -41 5c-21.333 0 -42.166 -2.83301 -62.499 -8.5s-35.166 -14.167 -44.499 -25.5v-294h-180v483zM45.999 700h105l64 -73l61 73h105l-88 -144h-156z" />
    <glyph glyph-name="Sacute" unicode="&#x15a;" horiz-adv-x="613" 
d="M108 244c26.667 -26 58.498 -46.833 95.498 -62.5s76.833 -23.5 119.5 -23.5c20.667 0 38.167 3.5 52.5 10.5s21.5 16.5 21.5 28.5c0 12.667 -7.16699 22.834 -21.5 30.501s-38.5 14.5 -72.5 20.5c-56 10 -102 20.833 -138 32.5s-68.333 31.834 -97 60.501
s-43 68.667 -43 120c0 38.667 10.667 74.5 32 107.5s52.833 59.333 94.5 79s91.834 29.5 150.501 29.5c54.667 0 106 -7.83301 154 -23.5s91 -38.834 129 -69.501l-108 -143c-28 21.333 -59 37.666 -93 48.999s-65 17 -93 17c-40.667 0 -61 -11.667 -61 -35
c0 -12.667 7 -22.167 21 -28.5s39.667 -12.5 77 -18.5c50.667 -8.66699 94.834 -19.167 132.501 -31.5s70.5 -32.5 98.5 -60.5s42 -65.667 42 -113c0 -73.333 -25.5 -130.333 -76.5 -171s-121.5 -61 -211.5 -61c-128 0 -231.333 35.333 -310 106zM237.998 723l120 144h155
l-155 -144h-120z" />
    <glyph glyph-name="sacute" unicode="&#x15b;" horiz-adv-x="490" 
d="M81 183c19.333 -15.333 46.667 -29.3311 82 -41.998s66 -19 92 -19c32 0 48 7.66699 48 23c0 7.33301 -5.16699 13 -15.5 17s-27.833 7.66699 -52.5 11c-40 5.33301 -73.667 12 -101 20s-51.666 22.833 -72.999 44.5s-32 52.5 -32 92.5c0 29.333 8.5 56.666 25.5 81.999
s41.833 45.5 74.5 60.5s71.334 22.5 116.001 22.5c39.333 0 76.666 -5.5 111.999 -16.5s67.666 -26.167 96.999 -45.5l-66 -117c-16.667 13.333 -38 25 -64 35s-52 15 -78 15c-13.333 0 -24.166 -1.83301 -32.499 -5.5s-12.5 -8.83398 -12.5 -15.501s4.33301 -12 13 -16
s25 -7.66699 49 -11c40.667 -6 75.167 -13.167 103.5 -21.5s53.5 -23.833 75.5 -46.5s33 -54.667 33 -96c0 -32 -9.16699 -60.5 -27.5 -85.5s-44.833 -44.667 -79.5 -59s-75.334 -21.5 -122.001 -21.5c-44 0 -88 6.83301 -132 20.5s-79 31.5 -105 53.5zM181.001 556.002
l120 144h155l-155 -144h-120z" />
    <glyph glyph-name="Scircumflex" unicode="&#x15c;" horiz-adv-x="613" 
d="M108 244c26.667 -26 58.498 -46.833 95.498 -62.5s76.833 -23.5 119.5 -23.5c20.667 0 38.167 3.5 52.5 10.5s21.5 16.5 21.5 28.5c0 12.667 -7.16699 22.834 -21.5 30.501s-38.5 14.5 -72.5 20.5c-56 10 -102 20.833 -138 32.5s-68.333 31.834 -97 60.501
s-43 68.667 -43 120c0 38.667 10.667 74.5 32 107.5s52.833 59.333 94.5 79s91.834 29.5 150.501 29.5c54.667 0 106 -7.83301 154 -23.5s91 -38.834 129 -69.501l-108 -143c-28 21.333 -59 37.666 -93 48.999s-65 17 -93 17c-40.667 0 -61 -11.667 -61 -35
c0 -12.667 7 -22.167 21 -28.5s39.667 -12.5 77 -18.5c50.667 -8.66699 94.834 -19.167 132.501 -31.5s70.5 -32.5 98.5 -60.5s42 -65.667 42 -113c0 -73.333 -25.5 -130.333 -76.5 -171s-121.5 -61 -211.5 -61c-128 0 -231.333 35.333 -310 106zM301.998 796l-61 -73h-105
l88 144h156l91 -144h-105z" />
    <glyph glyph-name="scircumflex" unicode="&#x15d;" horiz-adv-x="490" 
d="M81 183c19.333 -15.333 46.667 -29.3311 82 -41.998s66 -19 92 -19c32 0 48 7.66699 48 23c0 7.33301 -5.16699 13 -15.5 17s-27.833 7.66699 -52.5 11c-40 5.33301 -73.667 12 -101 20s-51.666 22.833 -72.999 44.5s-32 52.5 -32 92.5c0 29.333 8.5 56.666 25.5 81.999
s41.833 45.5 74.5 60.5s71.334 22.5 116.001 22.5c39.333 0 76.666 -5.5 111.999 -16.5s67.666 -26.167 96.999 -45.5l-66 -117c-16.667 13.333 -38 25 -64 35s-52 15 -78 15c-13.333 0 -24.166 -1.83301 -32.499 -5.5s-12.5 -8.83398 -12.5 -15.501s4.33301 -12 13 -16
s25 -7.66699 49 -11c40.667 -6 75.167 -13.167 103.5 -21.5s53.5 -23.833 75.5 -46.5s33 -54.667 33 -96c0 -32 -9.16699 -60.5 -27.5 -85.5s-44.833 -44.667 -79.5 -59s-75.334 -21.5 -122.001 -21.5c-44 0 -88 6.83301 -132 20.5s-79 31.5 -105 53.5zM245.001 629.002
l-61 -73h-105l88 144h156l91 -144h-105z" />
    <glyph glyph-name="uni015E" unicode="&#x15e;" horiz-adv-x="613" 
d="M530 53.5c-47.333 -40.333 -113.334 -62.166 -198.001 -65.499l-15 -35c10 6 21.333 9 34 9c18.667 0 34.667 -6.83301 48 -20.5s20 -31.167 20 -52.5c0 -27.333 -11.333 -49 -34 -65s-50.667 -24 -84 -24c-25.333 0 -48.5 3.16699 -69.5 9.5s-37.5 14.5 -49.5 24.5
l31 64c28.667 -20 56.334 -30 83.001 -30c11.333 0 21.166 2 29.499 6s12.5 10 12.5 18c0 11.333 -7 17 -21 17c-10.667 0 -19.334 -4 -26.001 -12l-59 34l22 60c-101.333 9.33301 -185 43.666 -251 102.999l105 150c26.667 -26 58.5 -46.833 95.5 -62.5
s76.833 -23.5 119.5 -23.5c20.667 0 38.167 3.5 52.5 10.5s21.5 16.5 21.5 28.5c0 12.667 -7.16699 22.834 -21.5 30.501s-38.5 14.5 -72.5 20.5c-56 10 -102 20.833 -138 32.5s-68.333 31.834 -97 60.501s-43 68.667 -43 120c0 38.667 10.667 74.5 32 107.5
s52.833 59.333 94.5 79s91.834 29.5 150.501 29.5c54.667 0 106 -7.83301 154 -23.5s91 -38.834 129 -69.501l-108 -143c-28 21.333 -59 37.666 -93 48.999s-65 17 -93 17c-40.667 0 -61 -11.667 -61 -35c0 -12.667 7 -22.167 21 -28.5s39.667 -12.5 77 -18.5
c50.667 -8.66699 94.834 -19.167 132.501 -31.5s70.5 -32.5 98.5 -60.5s42 -65.667 42 -113c0 -70.667 -23.667 -126.167 -71 -166.5z" />
    <glyph glyph-name="uni015F" unicode="&#x15f;" horiz-adv-x="490" 
d="M421.5 41c-35.667 -30 -84.165 -47.332 -145.498 -51.999l-16 -36c10 6 21.333 9 34 9c18.667 0 34.667 -6.83301 48 -20.5s20 -31.167 20 -52.5c0 -27.333 -11.333 -49 -34 -65s-50.667 -24 -84 -24c-25.333 0 -48.5 3.16699 -69.5 9.5s-37.5 14.5 -49.5 24.5l31 64
c28.667 -20 56.334 -30 83.001 -30c11.333 0 21.166 2 29.499 6s12.5 10 12.5 18c0 11.333 -7 17 -21 17c-10.667 0 -19.334 -4 -26.001 -12l-59 34l22 60c-36.667 4.66699 -71.834 13.334 -105.501 26.001s-61.167 27.667 -82.5 45l72 121
c19.333 -15.333 46.666 -29.333 81.999 -42s66 -19 92 -19c32 0 48 7.66699 48 23c0 7.33301 -5.16699 13 -15.5 17s-27.833 7.66699 -52.5 11c-40 5.33301 -73.667 12 -101 20s-51.666 22.833 -72.999 44.5s-32 52.5 -32 92.5c0 29.333 8.5 56.666 25.5 81.999
s41.833 45.5 74.5 60.5s71.334 22.5 116.001 22.5c39.333 0 76.666 -5.5 111.999 -16.5s67.666 -26.167 96.999 -45.5l-66 -117c-16.667 13.333 -38 25 -64 35s-52 15 -78 15c-13.333 0 -24.166 -1.83301 -32.499 -5.5s-12.5 -8.83398 -12.5 -15.501s4.33301 -12 13 -16
s25 -7.66699 49 -11c40.667 -6 75.167 -13.167 103.5 -21.5s53.5 -23.833 75.5 -46.5s33 -54.667 33 -96c0 -45.333 -17.833 -83 -53.5 -113z" />
    <glyph glyph-name="Scaron" unicode="&#x160;" horiz-adv-x="613" 
d="M108 244c26.667 -26 58.498 -46.833 95.498 -62.5s76.833 -23.5 119.5 -23.5c20.667 0 38.167 3.5 52.5 10.5s21.5 16.5 21.5 28.5c0 12.667 -7.16699 22.834 -21.5 30.501s-38.5 14.5 -72.5 20.5c-56 10 -102 20.833 -138 32.5s-68.333 31.834 -97 60.501
s-43 68.667 -43 120c0 38.667 10.667 74.5 32 107.5s52.833 59.333 94.5 79s91.834 29.5 150.501 29.5c54.667 0 106 -7.83301 154 -23.5s91 -38.834 129 -69.501l-108 -143c-28 21.333 -59 37.666 -93 48.999s-65 17 -93 17c-40.667 0 -61 -11.667 -61 -35
c0 -12.667 7 -22.167 21 -28.5s39.667 -12.5 77 -18.5c50.667 -8.66699 94.834 -19.167 132.501 -31.5s70.5 -32.5 98.5 -60.5s42 -65.667 42 -113c0 -73.333 -25.5 -130.333 -76.5 -171s-121.5 -61 -211.5 -61c-128 0 -231.333 35.333 -310 106zM132.998 867h105l64 -73
l61 73h105l-88 -144h-156z" />
    <glyph glyph-name="scaron" unicode="&#x161;" horiz-adv-x="490" 
d="M81 183c19.333 -15.333 46.667 -29.3311 82 -41.998s66 -19 92 -19c32 0 48 7.66699 48 23c0 7.33301 -5.16699 13 -15.5 17s-27.833 7.66699 -52.5 11c-40 5.33301 -73.667 12 -101 20s-51.666 22.833 -72.999 44.5s-32 52.5 -32 92.5c0 29.333 8.5 56.666 25.5 81.999
s41.833 45.5 74.5 60.5s71.334 22.5 116.001 22.5c39.333 0 76.666 -5.5 111.999 -16.5s67.666 -26.167 96.999 -45.5l-66 -117c-16.667 13.333 -38 25 -64 35s-52 15 -78 15c-13.333 0 -24.166 -1.83301 -32.499 -5.5s-12.5 -8.83398 -12.5 -15.501s4.33301 -12 13 -16
s25 -7.66699 49 -11c40.667 -6 75.167 -13.167 103.5 -21.5s53.5 -23.833 75.5 -46.5s33 -54.667 33 -96c0 -32 -9.16699 -60.5 -27.5 -85.5s-44.833 -44.667 -79.5 -59s-75.334 -21.5 -122.001 -21.5c-44 0 -88 6.83301 -132 20.5s-79 31.5 -105 53.5zM76.001 700.002h105
l64 -73l61 73h105l-88 -144h-156z" />
    <glyph glyph-name="uni0162" unicode="&#x162;" horiz-adv-x="595" 
d="M197 491h-179v176h559v-176h-178v-491h-202v491zM236 -260c12.667 6 26.167 16.166 40.5 30.499s23.5 28.5 27.5 42.5c-3.33301 -2 -9.66602 -3 -18.999 -3c-18.667 0 -34.167 6.33301 -46.5 19s-18.5 29.334 -18.5 50.001c0 22 7.66699 40.667 23 56
s33.666 23 54.999 23c24 0 44.5 -8.66699 61.5 -26s25.5 -41 25.5 -71c0 -32.667 -8.33301 -63.167 -25 -91.5s-39.667 -52.833 -69 -73.5z" />
    <glyph glyph-name="uni0163" unicode="&#x163;" horiz-adv-x="382" 
d="M129.5 26.5c-28.333 25.667 -42.499 63.501 -42.499 113.501v187h-80v156h80v132h180v-132h98v-156h-98v-135c0 -12.667 3.66699 -23.334 11 -32.001s17 -13 29 -13c7.33301 0 14.666 1 21.999 3s12 4 14 6l32 -136c-10 -9.33301 -25.667 -17 -47 -23s-46.333 -9 -75 -9
c-54 0 -95.167 12.833 -123.5 38.5zM127.001 -259.999c12.667 6 26.167 16.166 40.5 30.499s23.5 28.5 27.5 42.5c-3.33301 -2 -9.66602 -3 -18.999 -3c-18.667 0 -34.167 6.33301 -46.5 19s-18.5 29.334 -18.5 50.001c0 22 7.66699 40.667 23 56s33.666 23 54.999 23
c24 0 44.5 -8.66699 61.5 -26s25.5 -41 25.5 -71c0 -32.667 -8.33301 -63.167 -25 -91.5s-39.667 -52.833 -69 -73.5z" />
    <glyph glyph-name="Tcaron" unicode="&#x164;" horiz-adv-x="595" 
d="M197 491h-179v176h559v-176h-178v-491h-202v491zM129 867h105l64 -73l61 73h105l-88 -144h-156z" />
    <glyph glyph-name="tcaron" unicode="&#x165;" horiz-adv-x="447" 
d="M129.5 26.5c-28.333 25.667 -42.499 63.501 -42.499 113.501v187h-80v156h80v132h180v-132h98v-156h-98v-135c0 -12.667 3.66699 -23.334 11 -32.001s17 -13 29 -13c7.33301 0 14.666 1 21.999 3s12 4 14 6l32 -136c-10 -9.33301 -25.667 -17 -47 -23s-46.333 -9 -75 -9
c-54 0 -95.167 12.833 -123.5 38.5zM329.001 567.001c12.667 6 26.167 16.166 40.5 30.499s23.5 28.5 27.5 42.5c-3.33301 -2 -9.66602 -3 -18.999 -3c-18.667 0 -34.167 6.33301 -46.5 19s-18.5 29.334 -18.5 50.001c0 22 7.66699 40.667 23 56s33.666 23 54.999 23
c24 0 44.5 -8.66699 61.5 -26s25.5 -41 25.5 -71c0 -32.667 -8.33301 -63.167 -25 -91.5s-39.667 -52.833 -69 -73.5z" />
    <glyph glyph-name="Tbar" unicode="&#x166;" horiz-adv-x="595" 
d="M399 491v-163h118v-97h-118v-231h-202v231h-116v97h116v163h-179v176h559v-176h-178z" />
    <glyph glyph-name="tbar" unicode="&#x167;" horiz-adv-x="382" 
d="M375 20c-10 -9.33301 -25.666 -17 -46.999 -23s-46.333 -9 -75 -9c-54 0 -95.167 12.833 -123.5 38.5s-42.5 63.5 -42.5 113.5v51h-80v97h80v39h-80v156h80v132h180v-132h98v-156h-98v-39h67v-97h-67c0 -12.667 3.66699 -23.167 11 -31.5s17 -12.5 29 -12.5
c7.33301 0 14.666 1 21.999 3s12 4 14 6z" />
    <glyph glyph-name="Utilde" unicode="&#x168;" horiz-adv-x="749" 
d="M54 667h205v-386c0 -34.667 9.5 -62.5 28.5 -83.5s48.167 -31.5 87.5 -31.5c38.667 0 67.5 10.667 86.5 32s28.5 49 28.5 83v386h205v-392c0 -87.333 -26.333 -157 -79 -209s-133 -78 -241 -78s-188.5 25.833 -241.5 77.5s-79.5 121.167 -79.5 208.5v393zM341 755
c-4.66699 3.33301 -8.83398 5.66602 -12.501 6.99902s-7.16699 2 -10.5 2c-6.66699 0 -12.334 -3.16699 -17.001 -9.5s-7 -15.5 -7 -27.5h-89c0 89.333 39.333 134 118 134c16.667 0 30.5 -2.33301 41.5 -7s23.167 -11.667 36.5 -21
c1.33301 -0.666992 4.33301 -2.66699 9 -6s8.83398 -5.66602 12.501 -6.99902s7.16699 -2 10.5 -2c6.66699 0 12.334 3.16699 17.001 9.5s7 15.5 7 27.5h89c0 -89.333 -39.333 -134 -118 -134c-16.667 0 -30.5 2.33301 -41.5 7s-23.167 11.667 -36.5 21
c-1.33301 0.666992 -4.33301 2.66699 -9 6z" />
    <glyph glyph-name="utilde" unicode="&#x169;" horiz-adv-x="606" 
d="M376 54c-16.667 -18.667 -38.832 -34.333 -66.499 -47s-60.834 -19 -99.501 -19c-53.333 0 -93.333 14 -120 42s-40 64 -40 108v345h180v-268c0 -45.333 23.333 -68 70 -68c18 0 32.667 3.5 44 10.5s22 16.167 32 27.5v298h180v-483h-180v54zM269.002 588.001
c-4.66699 3.33301 -8.83398 5.66602 -12.501 6.99902s-7.16699 2 -10.5 2c-6.66699 0 -12.334 -3.16699 -17.001 -9.5s-7 -15.5 -7 -27.5h-89c0 89.333 39.333 134 118 134c16.667 0 30.5 -2.33301 41.5 -7s23.167 -11.667 36.5 -21
c1.33301 -0.666992 4.33301 -2.66699 9 -6s8.83398 -5.66602 12.501 -6.99902s7.16699 -2 10.5 -2c6.66699 0 12.334 3.16699 17.001 9.5s7 15.5 7 27.5h89c0 -89.333 -39.333 -134 -118 -134c-16.667 0 -30.5 2.33301 -41.5 7s-23.167 11.667 -36.5 21
c-1.33301 0.666992 -4.33301 2.66699 -9 6z" />
    <glyph glyph-name="Umacron" unicode="&#x16a;" horiz-adv-x="749" 
d="M54 667h205v-386c0 -34.667 9.5 -62.5 28.5 -83.5s48.167 -31.5 87.5 -31.5c38.667 0 67.5 10.667 86.5 32s28.5 49 28.5 83v386h205v-392c0 -87.333 -26.333 -157 -79 -209s-133 -78 -241 -78s-188.5 25.833 -241.5 77.5s-79.5 121.167 -79.5 208.5v393zM193 815h363
v-97h-363v97z" />
    <glyph glyph-name="umacron" unicode="&#x16b;" horiz-adv-x="606" 
d="M376 54c-16.667 -18.667 -38.832 -34.333 -66.499 -47s-60.834 -19 -99.501 -19c-53.333 0 -93.333 14 -120 42s-40 64 -40 108v345h180v-268c0 -45.333 23.333 -68 70 -68c18 0 32.667 3.5 44 10.5s22 16.167 32 27.5v298h180v-483h-180v54zM121.002 648.001h363v-97
h-363v97z" />
    <glyph glyph-name="Ubreve" unicode="&#x16c;" horiz-adv-x="749" 
d="M54 667h205v-386c0 -34.667 9.5 -62.5 28.5 -83.5s48.167 -31.5 87.5 -31.5c38.667 0 67.5 10.667 86.5 32s28.5 49 28.5 83v386h205v-392c0 -87.333 -26.333 -157 -79 -209s-133 -78 -241 -78s-188.5 25.833 -241.5 77.5s-79.5 121.167 -79.5 208.5v393zM276 740.5
c-30.667 15.667 -56.334 37.167 -77.001 64.5l76 62c11.333 -16 25.5 -28.833 42.5 -38.5s36.167 -14.5 57.5 -14.5c42 0 75.333 17.667 100 53l75 -62c-20.667 -27.333 -46.167 -48.833 -76.5 -64.5s-63.166 -23.5 -98.499 -23.5s-68.333 7.83301 -99 23.5z" />
    <glyph glyph-name="ubreve" unicode="&#x16d;" horiz-adv-x="606" 
d="M376 54c-16.667 -18.667 -38.832 -34.333 -66.499 -47s-60.834 -19 -99.501 -19c-53.333 0 -93.333 14 -120 42s-40 64 -40 108v345h180v-268c0 -45.333 23.333 -68 70 -68c18 0 32.667 3.5 44 10.5s22 16.167 32 27.5v298h180v-483h-180v54zM204.002 573.501
c-30.667 15.667 -56.334 37.167 -77.001 64.5l76 62c11.333 -16 25.5 -28.833 42.5 -38.5s36.167 -14.5 57.5 -14.5c42 0 75.333 17.667 100 53l75 -62c-20.667 -27.333 -46.167 -48.833 -76.5 -64.5s-63.166 -23.5 -98.499 -23.5s-68.333 7.83301 -99 23.5z" />
    <glyph glyph-name="Uring" unicode="&#x16e;" horiz-adv-x="749" 
d="M54 667h205v-386c0 -34.667 9.5 -62.5 28.5 -83.5s48.167 -31.5 87.5 -31.5c38.667 0 67.5 10.667 86.5 32s28.5 49 28.5 83v386h205v-392c0 -87.333 -26.333 -157 -79 -209s-133 -78 -241 -78s-188.5 25.833 -241.5 77.5s-79.5 121.167 -79.5 208.5v393zM297 877
c22 22 48.333 33 79 33s56.667 -11 78 -33s32 -48.333 32 -79s-10.667 -57 -32 -79s-47.333 -33 -78 -33s-57 11 -79 33s-33 48.333 -33 79s11 57 33 79zM400 822.5c-6.66699 7 -14.667 10.5 -24 10.5s-17.5 -3.5 -24.5 -10.5s-10.5 -15.167 -10.5 -24.5
s3.5 -17.5 10.5 -24.5s15.167 -10.5 24.5 -10.5s17.333 3.5 24 10.5s10 15.167 10 24.5s-3.33301 17.5 -10 24.5z" />
    <glyph glyph-name="uring" unicode="&#x16f;" horiz-adv-x="606" 
d="M376 54c-16.667 -18.667 -38.832 -34.333 -66.499 -47s-60.834 -19 -99.501 -19c-53.333 0 -93.333 14 -120 42s-40 64 -40 108v345h180v-268c0 -45.333 23.333 -68 70 -68c18 0 32.667 3.5 44 10.5s22 16.167 32 27.5v298h180v-483h-180v54zM225.002 710.001
c22 22 48.333 33 79 33s56.667 -11 78 -33s32 -48.333 32 -79s-10.667 -57 -32 -79s-47.333 -33 -78 -33s-57 11 -79 33s-33 48.333 -33 79s11 57 33 79zM328.002 655.501c-6.66699 7 -14.667 10.5 -24 10.5s-17.5 -3.5 -24.5 -10.5s-10.5 -15.167 -10.5 -24.5
s3.5 -17.5 10.5 -24.5s15.167 -10.5 24.5 -10.5s17.333 3.5 24 10.5s10 15.167 10 24.5s-3.33301 17.5 -10 24.5z" />
    <glyph glyph-name="Uhungarumlaut" unicode="&#x170;" horiz-adv-x="749" 
d="M54 667h205v-386c0 -34.667 9.5 -62.5 28.5 -83.5s48.167 -31.5 87.5 -31.5c38.667 0 67.5 10.667 86.5 32s28.5 49 28.5 83v386h205v-392c0 -87.333 -26.333 -157 -79 -209s-133 -78 -241 -78s-188.5 25.833 -241.5 77.5s-79.5 121.167 -79.5 208.5v393zM246 723l80 144
h135l-115 -144h-100zM402 723l80 144h135l-115 -144h-100z" />
    <glyph glyph-name="uhungarumlaut" unicode="&#x171;" horiz-adv-x="606" 
d="M376 54c-16.667 -18.667 -38.832 -34.333 -66.499 -47s-60.834 -19 -99.501 -19c-53.333 0 -93.333 14 -120 42s-40 64 -40 108v345h180v-268c0 -45.333 23.333 -68 70 -68c18 0 32.667 3.5 44 10.5s22 16.167 32 27.5v298h180v-483h-180v54zM174.002 556.001l80 144h135
l-115 -144h-100zM330.002 556.001l80 144h135l-115 -144h-100z" />
    <glyph glyph-name="Uogonek" unicode="&#x172;" horiz-adv-x="749" 
d="M54 667h205.002v-386c0 -34.667 9.5 -62.5 28.5 -83.5s48.167 -31.5 87.5 -31.5c38.667 0 67.5 10.667 86.5 32s28.5 49 28.5 83v386h205v-392c0 -62.667 -12.5 -115.834 -37.5 -159.501s-62.833 -76.167 -113.5 -97.5c-34.667 -14.667 -58.167 -27.667 -70.5 -39
s-18.5 -23.666 -18.5 -36.999c0 -8.66699 3.16699 -15.667 9.5 -21s14.166 -8 23.499 -8c8 0 16 1.66699 24 5l27 -84c-16 -8 -31.833 -13.333 -47.5 -16s-35.5 -4 -59.5 -4c-34.667 0 -65.334 6.83301 -92.001 20.5s-40 36.167 -40 67.5c0 37.333 26 66 78 86h-3
c-108 0 -188.5 25.833 -241.5 77.5s-79.5 121.167 -79.5 208.5v393z" />
    <glyph glyph-name="uogonek" unicode="&#x173;" horiz-adv-x="606" 
d="M491 -20c-14.667 -10.667 -21.9951 -23.3311 -21.9951 -37.998c0 -8.66699 3.16699 -15.667 9.5 -21s14.166 -8 23.499 -8c8 0 16 1.66699 24 5l27 -84c-16 -8 -31.833 -13.333 -47.5 -16s-35.5 -4 -59.5 -4c-34.667 0 -65.334 6.83301 -92.001 20.5s-40 36.167 -40 67.5
c0 21.333 9 40 27 56s46.333 30 85 42h-50v54c-16.667 -18.667 -38.834 -34.334 -66.501 -47.001s-60.834 -19 -99.501 -19c-53.333 0 -93.333 14 -120 42s-40 64 -40 108v345h180v-268c0 -45.333 23.333 -68 70 -68c18 0 32.667 3.5 44 10.5s22 16.167 32 27.5v298h180
v-483c-28.667 -2.66699 -50.334 -9.33398 -65.001 -20.001z" />
    <glyph glyph-name="Wcircumflex" unicode="&#x174;" horiz-adv-x="954" 
d="M477 378l-86 -378h-212l-191 667h226l86 -408l101 408h152l101 -408l85 408h227l-191 -667h-212zM477 796l-61 -73h-105l88 144h156l91 -144h-105z" />
    <glyph glyph-name="wcircumflex" unicode="&#x175;" horiz-adv-x="805" 
d="M402 270l-78 -270h-196l-140 483h185l64 -266l85 266h161l84 -266l64 266h186l-140 -483h-196zM402 629l-61 -73h-105l88 144h156l91 -144h-105z" />
    <glyph glyph-name="Ycircumflex" unicode="&#x176;" horiz-adv-x="664" 
d="M232 265l-250 402h227l124 -225l122 225h227l-248 -402v-265h-202v265zM332 796l-61 -73h-105l88 144h156l91 -144h-105z" />
    <glyph glyph-name="ycircumflex" unicode="&#x177;" horiz-adv-x="606" 
d="M120 4c15.333 -18 36.502 -31.333 63.502 -40s53.833 -13 80.5 -13c36 0 63.667 8.66699 83 26s29 42.333 29 75v34c-16.667 -18.667 -38.834 -34.334 -66.501 -47.001s-60.834 -19 -99.501 -19c-53.333 0 -93.333 14 -120 42s-40 64 -40 108v313h180v-236
c0 -45.333 23.333 -68 70 -68c18 0 32.667 3.5 44 10.5s22 16.167 32 27.5v266h180v-412c0 -83.333 -25.333 -148.666 -76 -195.999s-122.667 -71 -216 -71c-86 0 -159.333 24 -220 72zM303.002 629l-61 -73h-105l88 144h156l91 -144h-105z" />
    <glyph glyph-name="Ydieresis" unicode="&#x178;" horiz-adv-x="664" 
d="M232 265l-250 402h227l124 -225l122 225h227l-248 -402v-265h-202v265zM160.5 722c-17 17.333 -25.5 38.333 -25.5 63c0 25.333 8.5 46.5 25.5 63.5s38.167 25.5 63.5 25.5c24.667 0 45.667 -8.5 63 -25.5s26 -38.167 26 -63.5c0 -24.667 -8.66699 -45.667 -26 -63
s-38.333 -26 -63 -26c-25.333 0 -46.5 8.66699 -63.5 26zM377 722c-17.333 17.333 -26 38.333 -26 63s8.66699 45.667 26 63s38.333 26 63 26c25.333 0 46.666 -8.66699 63.999 -26s26 -38.333 26 -63s-8.66699 -45.667 -26 -63s-38.666 -26 -63.999 -26
c-24.667 0 -45.667 8.66699 -63 26z" />
    <glyph glyph-name="Zacute" unicode="&#x179;" horiz-adv-x="600" 
d="M36 160l254 331h-254v176h521v-159l-255 -332h262v-176h-528v160zM236 723l120 144h155l-155 -144h-120z" />
    <glyph glyph-name="zacute" unicode="&#x17a;" horiz-adv-x="486" 
d="M33 132l170 195h-170v156h416v-126l-174 -201h178v-156h-420v132zM179 556l120 144h155l-155 -144h-120z" />
    <glyph glyph-name="Zdotaccent" unicode="&#x17b;" horiz-adv-x="600" 
d="M36 160l254 331h-254v176h521v-159l-255 -332h262v-176h-528v160zM237 849c17.333 17.333 38.333 26 63 26c24 0 44.667 -8.66699 62 -26s26 -38.333 26 -63s-8.66699 -45.667 -26 -63s-38 -26 -62 -26c-24.667 0 -45.667 8.66699 -63 26s-26 38.333 -26 63
s8.66699 45.667 26 63z" />
    <glyph glyph-name="zdotaccent" unicode="&#x17c;" horiz-adv-x="486" 
d="M33 132l170 195h-170v156h416v-126l-174 -201h178v-156h-420v132zM180 682c17.333 17.333 38.333 26 63 26c24 0 44.667 -8.66699 62 -26s26 -38.333 26 -63s-8.66699 -45.667 -26 -63s-38 -26 -62 -26c-24.667 0 -45.667 8.66699 -63 26s-26 38.333 -26 63
s8.66699 45.667 26 63z" />
    <glyph glyph-name="Zcaron" unicode="&#x17d;" horiz-adv-x="600" 
d="M36 160l254 331h-254v176h521v-159l-255 -332h262v-176h-528v160zM131 867h105l64 -73l61 73h105l-88 -144h-156z" />
    <glyph glyph-name="zcaron" unicode="&#x17e;" horiz-adv-x="486" 
d="M33 132l170 195h-170v156h416v-126l-174 -201h178v-156h-420v132zM74 700h105l64 -73l61 73h105l-88 -144h-156z" />
    <glyph glyph-name="longs" unicode="&#x17f;" horiz-adv-x="371" 
d="M87 327h-80v156h80v22c0 32.667 7.83301 62.167 23.5 88.5s37.5 46.833 65.5 61.5s59.667 22 95 22c44.667 0 82 -8 112 -24l-32 -120c-11.333 7.33301 -24 11 -38 11s-25.167 -4 -33.5 -12s-12.5 -19 -12.5 -33v-499h-180v327z" />
    <glyph glyph-name="uni018F" unicode="&#x18f;" horiz-adv-x="741" 
d="M541.5 636c55.667 -28 99.835 -68.166 132.502 -120.499s49 -113.166 49 -182.499c0 -68.667 -16 -129.167 -48 -181.5s-74.5 -92.666 -127.5 -120.999s-110.167 -42.5 -171.5 -42.5c-74 0 -138.333 15.667 -193 47s-96.834 77.666 -126.501 138.999
s-44.5 135.666 -44.5 222.999h495c-12 31.333 -31.167 56.333 -57.5 75s-57.5 28 -93.5 28c-28 0 -52.833 -8.16699 -74.5 -24.5s-37.834 -35.833 -48.501 -58.5l-170 87c24 49.333 60.5 90.666 109.5 123.999s110.167 50 183.5 50c68 0 129.833 -14 185.5 -42z
M443.001 184.501c23.333 13.667 41.334 32.5 54.001 56.5h-263c7.33301 -23.333 22.5 -42 45.5 -56s50.167 -21 81.5 -21s58.666 6.83301 81.999 20.5z" />
    <glyph glyph-name="uni0192" unicode="&#x192;" horiz-adv-x="477" 
d="M75 223l-39.9971 -0.000976562v156h74l28 127c7.33301 32.667 21.666 62 42.999 88s47.666 46.333 78.999 61s64.666 22 99.999 22c63.333 0 110.333 -16.333 141 -49l-71 -147c-10 13.333 -24.333 20 -43 20c-12 0 -22.833 -3.66699 -32.5 -11
s-16.167 -17.666 -19.5 -30.999l-18 -80h87v-156h-121l-86 -384h-206z" />
    <glyph glyph-name="uni019D" unicode="&#x19d;" horiz-adv-x="750" 
d="M696 667l0.000976562 -666.999h-194l-246 358v-304c0 -83.333 -23 -145.833 -69 -187.5s-109 -62.5 -189 -62.5c-35.333 0 -66.333 3.66699 -93 11l32 165c13.333 -5.33301 27.666 -8 42.999 -8c22 0 39.833 6.66699 53.5 20s20.5 31.666 20.5 54.999v620h208l232 -336
v336h202z" />
    <glyph glyph-name="Ohorn" unicode="&#x1a0;" horiz-adv-x="766" 
d="M745.5 591c-13 -24 -31.499 -45.0049 -55.499 -63.0049c38.667 -56.667 58 -121.667 58 -195c0 -66.667 -16 -126.334 -48 -179.001s-75.833 -93.5 -131.5 -122.5s-117.5 -43.5 -185.5 -43.5s-129.833 14.5 -185.5 43.5s-99.5 69.833 -131.5 122.5
s-48 112.334 -48 179.001s16 126.334 48 179.001s75.833 93.5 131.5 122.5s117.5 43.5 185.5 43.5c53.333 0 103.333 -9.16699 150 -27.5s86.667 -44.166 120 -77.499c8.66699 6.66699 17 14.834 25 24.501s13.667 18.834 17 27.501c-2.66699 -2 -8.33398 -3 -17.001 -3
c-16 0 -29.5 5.66699 -40.5 17s-16.5 26 -16.5 44c0 18.667 6.66699 34.834 20 48.501s29.333 20.5 48 20.5c21.333 0 39.333 -7.66699 54 -23s22 -36 22 -62c0 -26.667 -6.5 -52 -19.5 -76zM466.501 187.995c24.333 14.667 43.166 34.834 56.499 60.501
s20 53.834 20 84.501s-6.66699 58.834 -20 84.501s-32.166 45.834 -56.499 60.501s-52.166 22 -83.499 22s-59.166 -7.33301 -83.499 -22s-43.166 -34.834 -56.499 -60.501s-20 -53.834 -20 -84.501s6.66699 -58.834 20 -84.501s32.166 -45.834 56.499 -60.501
s52.166 -22 83.499 -22s59.166 7.33301 83.499 22z" />
    <glyph glyph-name="ohorn" unicode="&#x1a1;" horiz-adv-x="577" 
d="M559 460.5c-12 -23 -29.333 -43.5029 -52 -61.5029c17.333 -22 30.5 -46.5 39.5 -73.5s13.5 -54.833 13.5 -83.5c0 -45.333 -10.833 -87.5 -32.5 -126.5s-53.167 -70 -94.5 -93s-89.666 -34.5 -144.999 -34.5s-103.5 11.5 -144.5 34.5s-72.333 54 -94 93
s-32.5 81.167 -32.5 126.5s10.833 87.333 32.5 126s53 69.5 94 92.5s89.167 34.5 144.5 34.5c69.333 0 128.333 -18.333 177 -55c8.66699 6.66699 17 14.834 25 24.501s13.667 18.834 17 27.501c-2.66699 -2 -8.33398 -3 -17.001 -3c-16 0 -29.5 5.66699 -40.5 17
s-16.5 26 -16.5 44c0 18.667 6.66699 34.834 20 48.501s29.333 20.5 48 20.5c21.333 0 39.333 -7.66699 54 -23s22 -36 22 -62s-6 -50.5 -18 -73.5zM352 173.497c15.333 17.667 23 40.5 23 68.5c0 27.333 -7.66699 49.833 -23 67.5s-36.666 26.5 -63.999 26.5
c-26.667 0 -47.667 -8.83301 -63 -26.5s-23 -40.167 -23 -67.5c0 -28 7.66699 -50.833 23 -68.5s36.333 -26.5 63 -26.5c27.333 0 48.666 8.83301 63.999 26.5z" />
    <glyph glyph-name="Uhorn" unicode="&#x1af;" horiz-adv-x="749" 
d="M772.5 637.5c-17.667 -29 -43.499 -52.501 -77.499 -70.501v-292c0 -87.333 -26.333 -157 -79 -209s-133 -78 -241 -78s-188.5 25.833 -241.5 77.5s-79.5 121.167 -79.5 208.5v393h205v-386c0 -34.667 9.5 -62.5 28.5 -83.5s48.167 -31.5 87.5 -31.5
c38.667 0 67.5 10.667 86.5 32s28.5 49 28.5 83v386h205v-30c16.667 14.667 28 30 34 46c-2.66699 -2 -8.33398 -3 -17.001 -3c-16 0 -29.5 5.66699 -40.5 17s-16.5 26 -16.5 44c0 18.667 6.66699 34.834 20 48.501s29.333 20.5 48 20.5c21.333 0 39.333 -7.66699 54 -23
s22 -36 22 -62c0 -29.333 -8.83301 -58.5 -26.5 -87.5z" />
    <glyph glyph-name="uhorn" unicode="&#x1b0;" horiz-adv-x="606" 
d="M609 481.5c-12 -24.333 -29.6641 -45.501 -52.9971 -63.501v-418h-180v54c-16.667 -18.667 -38.834 -34.334 -66.501 -47.001s-60.834 -19 -99.501 -19c-53.333 0 -93.333 14 -120 42s-40 64 -40 108v345h180v-268c0 -45.333 23.333 -68 70 -68c18 0 32.667 3.5 44 10.5
s22 16.167 32 27.5v298h163c9.33301 10.667 15.333 20.334 18 29.001c-2.66699 -2 -8.33398 -3 -17.001 -3c-16 0 -29.5 5.66699 -40.5 17s-16.5 26 -16.5 44c0 18.667 6.66699 34.834 20 48.501s29.333 20.5 48 20.5c21.333 0 39.333 -7.66699 54 -23s22 -36 22 -62
c0 -24 -6 -48.167 -18 -72.5z" />
    <glyph glyph-name="Gcaron" unicode="&#x1e6;" horiz-adv-x="741" 
d="M67 515.5c32.667 52.333 76.834 92.5039 132.501 120.504s117.5 42 185.5 42c72 0 132.333 -15.333 181 -46s86 -70 112 -118l-170 -87c-11.333 21.333 -27.833 38.833 -49.5 52.5s-46.167 20.5 -73.5 20.5c-31.333 0 -59.333 -7.33301 -84 -22
s-43.834 -34.834 -57.501 -60.501s-20.5 -53.834 -20.5 -84.501s6.83301 -58.834 20.5 -84.501s32.834 -45.834 57.501 -60.501s52.667 -22 84 -22c30 0 56.5 5.83301 79.5 17.5s38.5 25.834 46.5 42.501h-146v166h364c0 -87.333 -14.833 -161.166 -44.5 -221.499
s-71.834 -105.833 -126.501 -136.5s-119 -46 -193 -46c-61.333 0 -118.5 14.167 -171.5 42.5s-95.5 68.666 -127.5 120.999s-48 112.833 -48 181.5c0 69.333 16.333 130.166 49 182.499zM216 867.004h105l64 -73l61 73h105l-88 -144h-156z" />
    <glyph glyph-name="gcaron" unicode="&#x1e7;" horiz-adv-x="595" 
d="M109 4c18 -18 39.6689 -31.333 65.002 -40s51.666 -13 78.999 -13c28.667 0 54.5 7.33301 77.5 22s34.5 41 34.5 79v26c-38 -43.333 -83.333 -65 -136 -65c-40 0 -76 8.83301 -108 26.5s-57.333 44.5 -76 80.5s-28 80.667 -28 134c0 52 9.16699 96.167 27.5 132.5
s43.5 63.5 75.5 81.5s68.333 27 109 27c55.333 0 100.666 -21 135.999 -63v51h180v-431c0 -93.333 -29.167 -158 -87.5 -194s-126.5 -54 -204.5 -54c-86 0 -159.333 24 -220 72zM365.002 305c-8 9.33301 -19.167 16.833 -33.5 22.5s-27.833 8.5 -40.5 8.5
c-26.667 0 -48.334 -6.66699 -65.001 -20s-25 -34 -25 -62s8.33301 -48.667 25 -62s38.334 -20 65.001 -20c12.667 0 26.167 2.83301 40.5 8.5s25.5 13.167 33.5 22.5v102zM132.002 700h105l64 -73l61 73h105l-88 -144h-156z" />
    <glyph glyph-name="uni01EA" unicode="&#x1ea;" horiz-adv-x="766" 
d="M406.5 -29c-7.66699 -8.66699 -11.4971 -18.333 -11.4971 -29c0 -8.66699 3.16699 -15.667 9.5 -21s14.166 -8 23.499 -8c8 0 16 1.66699 24 5l27 -84c-16 -8 -31.833 -13.333 -47.5 -16s-35.5 -4 -59.5 -4c-34.667 0 -65.334 6.83301 -92.001 20.5s-40 36.167 -40 67.5
c0 38 29.333 67.667 88 89c-59.333 7.33301 -112.5 26.5 -159.5 57.5s-83.833 71 -110.5 120s-40 103.833 -40 164.5c0 66.667 16 126.334 48 179.001s75.833 93.5 131.5 122.5s117.5 43.5 185.5 43.5s129.833 -14.5 185.5 -43.5s99.5 -69.833 131.5 -122.5
s48 -112.334 48 -179.001c0 -60.667 -13.167 -115.5 -39.5 -164.5s-62.833 -88.833 -109.5 -119.5s-99.667 -49.667 -159 -57c-14.667 -5.33301 -25.834 -12.333 -33.501 -21zM243.003 248.501c13.333 -25.667 32.166 -45.834 56.499 -60.501s52.166 -22 83.499 -22
s59.166 7.33301 83.499 22s43.166 34.834 56.499 60.501s20 53.834 20 84.501s-6.66699 58.834 -20 84.501s-32.166 45.834 -56.499 60.501s-52.166 22 -83.499 22s-59.166 -7.33301 -83.499 -22s-43.166 -34.834 -56.499 -60.501s-20 -53.834 -20 -84.501
s6.66699 -58.834 20 -84.501z" />
    <glyph glyph-name="uni01EB" unicode="&#x1eb;" horiz-adv-x="577" 
d="M299.5 -30c-7 -8.66699 -10.4951 -18 -10.4951 -28c0 -8.66699 3.16699 -15.667 9.5 -21s14.166 -8 23.499 -8c8 0 16 1.66699 24 5l27 -84c-16 -8 -31.833 -13.333 -47.5 -16s-35.5 -4 -59.5 -4c-34.667 0 -65.334 6.83301 -92.001 20.5s-40 36.167 -40 67.5
c0 19.333 7.5 36.5 22.5 51.5s38.5 28.167 70.5 39.5c-43.333 8 -80.833 24.167 -112.5 48.5s-55.834 53.833 -72.501 88.5s-25 72 -25 112c0 45.333 10.833 87.333 32.5 126s53 69.5 94 92.5s89.167 34.5 144.5 34.5s103.666 -11.5 144.999 -34.5
s72.833 -53.833 94.5 -92.5s32.5 -80.667 32.5 -126c0 -41.333 -9 -80 -27 -116s-44.333 -66 -79 -90s-75.334 -39 -122.001 -45c-14.667 -5.33301 -25.5 -12.333 -32.5 -21zM225.005 309.5c-15.333 -17.667 -23 -40.167 -23 -67.5c0 -28 7.66699 -50.833 23 -68.5
s36.333 -26.5 63 -26.5c27.333 0 48.666 8.83301 63.999 26.5s23 40.5 23 68.5c0 27.333 -7.66699 49.833 -23 67.5s-36.666 26.5 -63.999 26.5c-26.667 0 -47.667 -8.83301 -63 -26.5z" />
    <glyph glyph-name="Aringacute" unicode="&#x1fa;" horiz-adv-x="710" 
d="M483 86h-256l-26 -86h-219l246 667h254l246 -667h-219zM279 254h152l-76 235zM277 877c22 22 48.333 33 79 33s56.667 -11 78 -33s32 -48.333 32 -79s-10.667 -57 -32 -79s-47.333 -33 -78 -33s-57 11 -79 33s-33 48.333 -33 79s11 57 33 79zM380 822.5
c-6.66699 7 -14.667 10.5 -24 10.5s-17.5 -3.5 -24.5 -10.5s-10.5 -15.167 -10.5 -24.5s3.5 -17.5 10.5 -24.5s15.167 -10.5 24.5 -10.5s17.333 3.5 24 10.5s10 15.167 10 24.5s-3.33301 17.5 -10 24.5zM291 935l120 144h155l-155 -144h-120z" />
    <glyph glyph-name="aringacute" unicode="&#x1fb;" 
d="M366 51c-37.333 -42 -82.667 -62.999 -136 -62.999c-40 0 -76 9.83301 -108 29.5s-57.5 48.667 -76.5 87s-28.5 84.166 -28.5 137.499c0 52 9.33301 97 28 135s44.167 67.167 76.5 87.5s68.5 30.5 108.5 30.5c56 0 101.333 -21 136 -63v51h180v-483h-180v51z
M365.999 303.001c-8 10 -19.1689 17.834 -33.502 23.501s-28.166 8.5 -41.499 8.5c-25.333 0 -46.666 -8.33301 -63.999 -25s-26 -39.334 -26 -68.001c0 -29.333 8.66699 -52.5 26 -69.5s38.666 -25.5 63.999 -25.5c12.667 0 26.334 3 41.001 9s26 14 34 24v123z
M222.997 710.002c22 22 48.333 33 79 33s56.667 -11 78 -33s32 -48.333 32 -79s-10.667 -57 -32 -79s-47.333 -33 -78 -33s-57 11 -79 33s-33 48.333 -33 79s11 57 33 79zM325.997 655.502c-6.66699 7 -14.667 10.5 -24 10.5s-17.5 -3.5 -24.5 -10.5
s-10.5 -15.167 -10.5 -24.5s3.5 -17.5 10.5 -24.5s15.167 -10.5 24.5 -10.5s17.333 3.5 24 10.5s10 15.167 10 24.5s-3.33301 17.5 -10 24.5zM236.997 768.002l120 144h155l-155 -144h-120z" />
    <glyph glyph-name="AEacute" unicode="&#x1fc;" horiz-adv-x="989" 
d="M453 86h-213l-45 -86h-220l395 667h589v-168h-304v-78h297v-168h-297v-85h304v-168h-506v86zM330 254h123v235zM488 723l120 144h155l-155 -144h-120z" />
    <glyph glyph-name="aeacute" unicode="&#x1fd;" horiz-adv-x="888" 
d="M366 0l-0.000976562 51c-37.333 -42 -82.666 -63 -135.999 -63c-40 0 -76 9.83301 -108 29.5s-57.5 48.667 -76.5 87s-28.5 84.166 -28.5 137.499c0 52 9.33301 97 28 135s44.167 67.167 76.5 87.5s68.5 30.5 108.5 30.5c55.333 0 100.333 -21 135 -63v51h181v-45
c32.667 38 78 57 136 57c36 0 68.833 -11 98.5 -33s53 -53.5 70 -94.5s25.5 -89.167 25.5 -144.5v-37h-330c8 -16.667 21 -31.167 39 -43.5s41.333 -18.5 70 -18.5c18.667 0 37.334 3 56.001 9s34 14.333 46 25l77 -110c-14.667 -15.333 -36.334 -29.166 -65.001 -41.499
s-56 -18.5 -82 -18.5c-60 0 -107 19.667 -141 59v-47h-180zM570.499 341c-12.333 -12 -20.502 -25.667 -24.502 -41h159c-3.33301 15.333 -11.166 29 -23.499 41s-31.166 18 -56.499 18c-24 0 -42.167 -6 -54.5 -18zM365.997 303c-8 10 -19.1689 17.834 -33.502 23.501
s-28.166 8.5 -41.499 8.5c-25.333 0 -46.666 -8.33301 -63.999 -25s-26 -39.334 -26 -68.001c0 -29.333 8.66699 -52.5 26 -69.5s38.666 -25.5 63.999 -25.5c12.667 0 26.334 3 41.001 9s26 14 34 24v123zM391.995 556.001l120 144h155l-155 -144h-120z" />
    <glyph glyph-name="Oslashacute" unicode="&#x1fe;" horiz-adv-x="766" 
d="M432 723h-120l120 144h155zM722 468.5c17.333 -41.667 26.001 -86.833 26.001 -135.5c0 -66.667 -16 -126.334 -48 -179.001s-75.833 -93.5 -131.5 -122.5s-117.5 -43.5 -185.5 -43.5c-72.667 0 -138 16.333 -196 49l-31 -37h-138l87 102c-28 30 -49.5 64.5 -64.5 103.5
s-22.5 81.5 -22.5 127.5c0 66.667 16 126.334 48 179.001s75.833 93.5 131.5 122.5s117.5 43.5 185.5 43.5c65.333 0 124.666 -13.333 177.999 -40l25 29h138l-76 -89c32 -31.333 56.667 -67.833 74 -109.5zM238.001 258.001l198.998 234.002c-18 5.33301 -36 8 -54 8
c-31.333 0 -59.166 -7.33301 -83.499 -22s-43.166 -34.834 -56.499 -60.501s-20 -53.834 -20 -84.501c0 -26.667 5 -51.667 15 -75zM466.499 188.003c24.333 14.667 43.168 34.832 56.501 60.499s20 53.834 20 84.501c0 33.333 -8 64.333 -24 93l-208 -244
c22.667 -10.667 46.667 -16 72 -16c31.333 0 59.166 7.33301 83.499 22z" />
    <glyph glyph-name="oslashacute" unicode="&#x1ff;" horiz-adv-x="577" 
d="M495 412c21.333 -23.333 37.498 -49.501 48.498 -78.501s16.5 -59.5 16.5 -91.5c0 -45.333 -10.833 -87.5 -32.5 -126.5s-53.167 -70 -94.5 -93s-89.666 -34.5 -144.999 -34.5c-56 0 -105 12 -147 36l-22 -24h-102l65 71c-20.667 22.667 -36.667 48.834 -48 78.501
s-17 60.5 -17 92.5c0 45.333 10.833 87.333 32.5 126s53 69.5 94 92.5s89.167 34.5 144.5 34.5c54.667 0 103.334 -11.667 146.001 -35l21 23h105zM205.998 208.999l112 123c-12 2.66699 -22 4 -30 4c-26.667 0 -47.667 -8.83301 -63 -26.5s-23 -40.167 -23 -67.5
c0 -13.333 1.33301 -24.333 4 -33zM369.998 274.999l-111.999 -123c10 -3.33301 20 -5 30 -5c27.333 0 48.666 8.83301 63.999 26.5s23 40.5 23 68.5c0 10.667 -1.66699 21.667 -5 33zM223.999 555.999l120 144h155l-155 -144h-120z" />
    <glyph glyph-name="uni0218" unicode="&#x218;" horiz-adv-x="613" 
d="M108 244c26.667 -26 58.498 -46.833 95.498 -62.5s76.833 -23.5 119.5 -23.5c20.667 0 38.167 3.5 52.5 10.5s21.5 16.5 21.5 28.5c0 12.667 -7.16699 22.834 -21.5 30.501s-38.5 14.5 -72.5 20.5c-56 10 -102 20.833 -138 32.5s-68.333 31.834 -97 60.501
s-43 68.667 -43 120c0 38.667 10.667 74.5 32 107.5s52.833 59.333 94.5 79s91.834 29.5 150.501 29.5c54.667 0 106 -7.83301 154 -23.5s91 -38.834 129 -69.501l-108 -143c-28 21.333 -59 37.666 -93 48.999s-65 17 -93 17c-40.667 0 -61 -11.667 -61 -35
c0 -12.667 7 -22.167 21 -28.5s39.667 -12.5 77 -18.5c50.667 -8.66699 94.834 -19.167 132.501 -31.5s70.5 -32.5 98.5 -60.5s42 -65.667 42 -113c0 -73.333 -25.5 -130.333 -76.5 -171s-121.5 -61 -211.5 -61c-128 0 -231.333 35.333 -310 106zM239.998 -260
c12.667 6 26.167 16.166 40.5 30.499s23.5 28.5 27.5 42.5c-3.33301 -2 -9.66602 -3 -18.999 -3c-18.667 0 -34.167 6.33301 -46.5 19s-18.5 29.334 -18.5 50.001c0 22 7.66699 40.667 23 56s33.666 23 54.999 23c24 0 44.5 -8.66699 61.5 -26s25.5 -41 25.5 -71
c0 -32.667 -8.33301 -63.167 -25 -91.5s-39.667 -52.833 -69 -73.5z" />
    <glyph glyph-name="uni0219" unicode="&#x219;" horiz-adv-x="490" 
d="M81 183c19.333 -15.333 46.667 -29.3311 82 -41.998s66 -19 92 -19c32 0 48 7.66699 48 23c0 7.33301 -5.16699 13 -15.5 17s-27.833 7.66699 -52.5 11c-40 5.33301 -73.667 12 -101 20s-51.666 22.833 -72.999 44.5s-32 52.5 -32 92.5c0 29.333 8.5 56.666 25.5 81.999
s41.833 45.5 74.5 60.5s71.334 22.5 116.001 22.5c39.333 0 76.666 -5.5 111.999 -16.5s67.666 -26.167 96.999 -45.5l-66 -117c-16.667 13.333 -38 25 -64 35s-52 15 -78 15c-13.333 0 -24.166 -1.83301 -32.499 -5.5s-12.5 -8.83398 -12.5 -15.501s4.33301 -12 13 -16
s25 -7.66699 49 -11c40.667 -6 75.167 -13.167 103.5 -21.5s53.5 -23.833 75.5 -46.5s33 -54.667 33 -96c0 -32 -9.16699 -60.5 -27.5 -85.5s-44.833 -44.667 -79.5 -59s-75.334 -21.5 -122.001 -21.5c-44 0 -88 6.83301 -132 20.5s-79 31.5 -105 53.5zM183.001 -259.998
c12.667 6 26.167 16.166 40.5 30.499s23.5 28.5 27.5 42.5c-3.33301 -2 -9.66602 -3 -18.999 -3c-18.667 0 -34.167 6.33301 -46.5 19s-18.5 29.334 -18.5 50.001c0 22 7.66699 40.667 23 56s33.666 23 54.999 23c24 0 44.5 -8.66699 61.5 -26s25.5 -41 25.5 -71
c0 -32.667 -8.33301 -63.167 -25 -91.5s-39.667 -52.833 -69 -73.5z" />
    <glyph glyph-name="uni021A" unicode="&#x21a;" horiz-adv-x="595" 
d="M197 491h-179v176h559v-176h-178v-491h-202v491zM236 -260c12.667 6 26.167 16.166 40.5 30.499s23.5 28.5 27.5 42.5c-3.33301 -2 -9.66602 -3 -18.999 -3c-18.667 0 -34.167 6.33301 -46.5 19s-18.5 29.334 -18.5 50.001c0 22 7.66699 40.667 23 56
s33.666 23 54.999 23c24 0 44.5 -8.66699 61.5 -26s25.5 -41 25.5 -71c0 -32.667 -8.33301 -63.167 -25 -91.5s-39.667 -52.833 -69 -73.5z" />
    <glyph glyph-name="uni021B" unicode="&#x21b;" horiz-adv-x="382" 
d="M129.5 26.5c-28.333 25.667 -42.499 63.501 -42.499 113.501v187h-80v156h80v132h180v-132h98v-156h-98v-135c0 -12.667 3.66699 -23.334 11 -32.001s17 -13 29 -13c7.33301 0 14.666 1 21.999 3s12 4 14 6l32 -136c-10 -9.33301 -25.667 -17 -47 -23s-46.333 -9 -75 -9
c-54 0 -95.167 12.833 -123.5 38.5zM127.001 -259.999c12.667 6 26.167 16.166 40.5 30.499s23.5 28.5 27.5 42.5c-3.33301 -2 -9.66602 -3 -18.999 -3c-18.667 0 -34.167 6.33301 -46.5 19s-18.5 29.334 -18.5 50.001c0 22 7.66699 40.667 23 56s33.666 23 54.999 23
c24 0 44.5 -8.66699 61.5 -26s25.5 -41 25.5 -71c0 -32.667 -8.33301 -63.167 -25 -91.5s-39.667 -52.833 -69 -73.5z" />
    <glyph glyph-name="uni0232" unicode="&#x232;" horiz-adv-x="664" 
d="M232 265l-250 402h227l124 -225l122 225h227l-248 -402v-265h-202v265zM150 815h363v-97h-363v97z" />
    <glyph glyph-name="uni0233" unicode="&#x233;" horiz-adv-x="606" 
d="M120 4c15.333 -18 36.502 -31.333 63.502 -40s53.833 -13 80.5 -13c36 0 63.667 8.66699 83 26s29 42.333 29 75v34c-16.667 -18.667 -38.834 -34.334 -66.501 -47.001s-60.834 -19 -99.501 -19c-53.333 0 -93.333 14 -120 42s-40 64 -40 108v313h180v-236
c0 -45.333 23.333 -68 70 -68c18 0 32.667 3.5 44 10.5s22 16.167 32 27.5v266h180v-412c0 -83.333 -25.333 -148.666 -76 -195.999s-122.667 -71 -216 -71c-86 0 -159.333 24 -220 72zM121.002 648h363v-97h-363v97z" />
    <glyph glyph-name="uni0237" unicode="&#x237;" horiz-adv-x="280" 
d="M-27 -47c6.66699 -1.33301 14.666 -2 23.999 -2c16.667 0 29.667 6 39 18s14 29.333 14 52v462h180v-462c0 -65.333 -16.667 -117.833 -50 -157.5s-83.666 -59.5 -150.999 -59.5c-24 0 -42.667 1.33301 -56 4v145z" />
    <glyph glyph-name="uni0259" unicode="&#x259;" horiz-adv-x="543" 
d="M492.5 113c-22.333 -38.667 -53.5029 -69.166 -93.5029 -91.499s-85.333 -33.5 -136 -33.5c-47.333 0 -90.166 11 -128.499 33s-68.333 53.5 -90 94.5s-32.5 89.167 -32.5 144.5v37h328c-5.33301 16.667 -17 31 -35 43s-41 18 -69 18
c-15.333 0 -34.833 -3.33301 -58.5 -10s-41.167 -14.667 -52.5 -24l-74 111c22.667 19.333 53 34.166 91 44.499s76.333 15.5 115 15.5c50.667 0 96.334 -10.167 137.001 -30.5s72.834 -49.666 96.501 -87.999s35.5 -83.5 35.5 -135.5
c0 -46.667 -11.167 -89.334 -33.5 -128.001zM317.497 142.501c12.333 11.667 20.502 25.167 24.502 40.5h-159c3.33301 -14.667 11.166 -28 23.499 -40s31.166 -18 56.499 -18c24 0 42.167 5.83301 54.5 17.5z" />
    <glyph glyph-name="uni0272" unicode="&#x272;" horiz-adv-x="607" 
d="M516.5 452.5c27 -28.333 40.4971 -64.833 40.4971 -109.5v-343h-180v267c0 46 -23.333 69 -70 69c-18 0 -32.833 -3.5 -44.5 -10.5s-22.5 -16.167 -32.5 -27.5v-277c0 -65.333 -16.667 -117.833 -50 -157.5s-83.666 -59.5 -150.999 -59.5c-24 0 -42.667 1.33301 -56 4
v145c6.66699 -1.33301 14.667 -2 24 -2c16.667 0 29.667 6 39 18s14 29.333 14 52v462h180v-55c16.667 18.667 38.834 34.5 66.501 47.5s60.834 19.5 99.501 19.5c53.333 0 93.5 -14.167 120.5 -42.5z" />
    <glyph glyph-name="uni02B0" unicode="&#x2b0;" horiz-adv-x="424" 
d="M257 500c0 14.667 -3.83203 25.167 -11.499 31.5s-18.834 9.5 -33.501 9.5c-10.667 0 -19.5 -2 -26.5 -6s-13.5 -9 -19.5 -15v-194h-126v434h126v-154c25.333 28 62 42 110 42c36 0 63 -9.33301 81 -28s27 -42.667 27 -72v-222h-127v174z" />
    <glyph glyph-name="uni02BC" unicode="&#x2bc;" horiz-adv-x="281" 
d="M56 387c16.667 7.33301 34.502 20.666 53.502 39.999s31.5 38 37.5 56c-6.66699 -2.66699 -15.334 -4 -26.001 -4c-24.667 0 -45.334 8.66699 -62.001 26s-25 39.666 -25 66.999c0 28.667 10.333 53.334 31 74.001s45 31 73 31c32 0 59.333 -11.667 82 -35
s34 -54.666 34 -93.999c0 -43.333 -10.833 -83.833 -32.5 -121.5s-52.5 -70.5 -92.5 -98.5z" />
    <glyph glyph-name="circumflex" unicode="&#x2c6;" horiz-adv-x="335" 
d="M166 629l-61 -73h-105l88 144h156l91 -144h-105z" />
    <glyph glyph-name="caron" unicode="&#x2c7;" horiz-adv-x="335" 
d="M0 700h105l64 -73l61 73h105l-88 -144h-156z" />
    <glyph glyph-name="uni02C9" unicode="&#x2c9;" horiz-adv-x="363" 
d="M0 688h363v-97h-363v97z" />
    <glyph glyph-name="uni02CB" unicode="&#x2cb;" horiz-adv-x="275" 
d="M0 700h155l120 -144h-120z" />
    <glyph glyph-name="breve" unicode="&#x2d8;" horiz-adv-x="351" 
d="M77 573.5c-30.667 15.667 -56.334 37.167 -77.001 64.5l76 62c11.333 -16 25.5 -28.833 42.5 -38.5s36.167 -14.5 57.5 -14.5c42 0 75.333 17.667 100 53l75 -62c-20.667 -27.333 -46.167 -48.833 -76.5 -64.5s-63.166 -23.5 -98.499 -23.5s-68.333 7.83301 -99 23.5z
" />
    <glyph glyph-name="dotaccent" unicode="&#x2d9;" horiz-adv-x="187" 
d="M31 682c17.333 17.333 38.333 26 63 26c24 0 44.667 -8.66699 62 -26s26 -38.333 26 -63s-8.66699 -45.667 -26 -63s-38 -26 -62 -26c-24.667 0 -45.667 8.66699 -63 26s-26 38.333 -26 63s8.66699 45.667 26 63z" />
    <glyph glyph-name="ring" unicode="&#x2da;" horiz-adv-x="262" 
d="M53 710c22 22 48.333 33 79 33s56.667 -11 78 -33s32 -48.333 32 -79s-10.667 -57 -32 -79s-47.333 -33 -78 -33s-57 11 -79 33s-33 48.333 -33 79s11 57 33 79zM156 655.5c-6.66699 7 -14.667 10.5 -24 10.5s-17.5 -3.5 -24.5 -10.5s-10.5 -15.167 -10.5 -24.5
s3.5 -17.5 10.5 -24.5s15.167 -10.5 24.5 -10.5s17.333 3.5 24 10.5s10 15.167 10 24.5s-3.33301 17.5 -10 24.5z" />
    <glyph glyph-name="ogonek" unicode="&#x2db;" horiz-adv-x="252" 
d="M196.5 -182c-15.667 -2.66699 -35.4971 -3.99805 -59.4971 -3.99805c-34.667 0 -65.334 6.83301 -92.001 20.5s-40 36.167 -40 67.5c0 23.333 11 43.5 33 60.5s56.667 31.833 104 44.5l105 -7c-28.667 -2.66699 -50.334 -9.33398 -65.001 -20.001
s-22 -23.334 -22 -38.001c0 -8.66699 3.16699 -15.667 9.5 -21s14.166 -8 23.499 -8c8 0 16 1.66699 24 5l27 -84c-16 -8 -31.833 -13.333 -47.5 -16z" />
    <glyph glyph-name="tilde" unicode="&#x2dc;" horiz-adv-x="341" 
d="M136 588c-4.66699 3.33301 -8.83398 5.66602 -12.501 6.99902s-7.16699 2 -10.5 2c-6.66699 0 -12.334 -3.16699 -17.001 -9.5s-7 -15.5 -7 -27.5h-89c0 89.333 39.333 134 118 134c16.667 0 30.5 -2.33301 41.5 -7s23.167 -11.667 36.5 -21
c1.33301 -0.666992 4.33301 -2.66699 9 -6s8.83398 -5.66602 12.501 -6.99902s7.16699 -2 10.5 -2c6.66699 0 12.334 3.16699 17.001 9.5s7 15.5 7 27.5h89c0 -89.333 -39.333 -134 -118 -134c-16.667 0 -30.5 2.33301 -41.5 7s-23.167 11.667 -36.5 21
c-1.33301 0.666992 -4.33301 2.66699 -9 6z" />
    <glyph glyph-name="hungarumlaut" unicode="&#x2dd;" horiz-adv-x="371" 
d="M0 556l80 144h135l-115 -144h-100zM156 556l80 144h135l-115 -144h-100z" />
    <glyph glyph-name="gravecomb" unicode="&#x300;" horiz-adv-x="0" 
d="M-275 700h155l120 -144h-120z" />
    <glyph glyph-name="acutecomb" unicode="&#x301;" horiz-adv-x="0" 
d="M-275 556l120 144h155l-155 -144h-120z" />
    <glyph glyph-name="uni0302" unicode="&#x302;" horiz-adv-x="0" 
d="M-169 629l-61 -73h-105l88 144h156l91 -144h-105z" />
    <glyph glyph-name="tildecomb" unicode="&#x303;" horiz-adv-x="0" 
d="M-205 588c-4.66699 3.33301 -8.83398 5.66602 -12.501 6.99902s-7.16699 2 -10.5 2c-6.66699 0 -12.334 -3.16699 -17.001 -9.5s-7 -15.5 -7 -27.5h-89c0 89.333 39.333 134 118 134c16.667 0 30.5 -2.33301 41.5 -7s23.167 -11.667 36.5 -21
c1.33301 -0.666992 4.33301 -2.66699 9 -6s8.83398 -5.66602 12.501 -6.99902s7.16699 -2 10.5 -2c6.66699 0 12.334 3.16699 17.001 9.5s7 15.5 7 27.5h89c0 -89.333 -39.333 -134 -118 -134c-16.667 0 -30.5 2.33301 -41.5 7s-23.167 11.667 -36.5 21
c-1.33301 0.666992 -4.33301 2.66699 -9 6z" />
    <glyph glyph-name="uni0304" unicode="&#x304;" horiz-adv-x="0" 
d="M-363 648h363v-97h-363v97z" />
    <glyph glyph-name="uni0306" unicode="&#x306;" horiz-adv-x="0" 
d="M-274 573.5c-30.667 15.667 -56.334 37.167 -77.001 64.5l76 62c11.333 -16 25.5 -28.833 42.5 -38.5s36.167 -14.5 57.5 -14.5c42 0 75.333 17.667 100 53l75 -62c-20.667 -27.333 -46.167 -48.833 -76.5 -64.5s-63.166 -23.5 -98.499 -23.5s-68.333 7.83301 -99 23.5z
" />
    <glyph glyph-name="uni0307" unicode="&#x307;" horiz-adv-x="0" 
d="M-156 682c17.333 17.333 38.333 26 63 26c24 0 44.667 -8.66699 62 -26s26 -38.333 26 -63s-8.66699 -45.667 -26 -63s-38 -26 -62 -26c-24.667 0 -45.667 8.66699 -63 26s-26 38.333 -26 63s8.66699 45.667 26 63z" />
    <glyph glyph-name="uni0308" unicode="&#x308;" horiz-adv-x="0" 
d="M-388.5 555c-17 17.333 -25.5 38.333 -25.5 63c0 25.333 8.5 46.5 25.5 63.5s38.167 25.5 63.5 25.5c24.667 0 45.667 -8.5 63 -25.5s26 -38.167 26 -63.5c0 -24.667 -8.66699 -45.667 -26 -63s-38.333 -26 -63 -26c-25.333 0 -46.5 8.66699 -63.5 26zM-172 555
c-17.333 17.333 -26 38.333 -26 63s8.66699 45.667 26 63s38.333 26 63 26c25.333 0 46.666 -8.66699 63.999 -26s26 -38.333 26 -63s-8.66699 -45.667 -26 -63s-38.666 -26 -63.999 -26c-24.667 0 -45.667 8.66699 -63 26z" />
    <glyph glyph-name="uni0309" unicode="&#x309;" horiz-adv-x="0" 
d="M-180 697.5c20 12.333 42.667 18.5 68 18.5c32.667 0 60 -8 82 -24s33 -40.333 33 -73c0 -11.333 -1.33301 -21.666 -4 -30.999s-6.66699 -20 -12 -32h-91c14.667 16.667 22 36 22 58c0 10.667 -3 18.5 -9 23.5s-13 7.5 -21 7.5c-15.333 0 -27.333 -9.66699 -36 -29
l-75 25c8.66699 25.333 23 44.166 43 56.499z" />
    <glyph glyph-name="uni030A" unicode="&#x30a;" horiz-adv-x="0" 
d="M-209 710c22 22 48.333 33 79 33s56.667 -11 78 -33s32 -48.333 32 -79s-10.667 -57 -32 -79s-47.333 -33 -78 -33s-57 11 -79 33s-33 48.333 -33 79s11 57 33 79zM-106 655.5c-6.66699 7 -14.667 10.5 -24 10.5s-17.5 -3.5 -24.5 -10.5s-10.5 -15.167 -10.5 -24.5
s3.5 -17.5 10.5 -24.5s15.167 -10.5 24.5 -10.5s17.333 3.5 24 10.5s10 15.167 10 24.5s-3.33301 17.5 -10 24.5z" />
    <glyph glyph-name="uni030B" unicode="&#x30b;" horiz-adv-x="0" 
d="M-371 556l80 144h135l-115 -144h-100zM-215 556l80 144h135l-115 -144h-100z" />
    <glyph glyph-name="uni030C" unicode="&#x30c;" horiz-adv-x="0" 
d="M-335 700h105l64 -73l61 73h105l-88 -144h-156z" />
    <glyph glyph-name="dotbelowcomb" unicode="&#x323;" horiz-adv-x="0" 
d="M-156 -58c17.333 17.333 38.333 26 63 26c24 0 44.667 -8.66699 62 -26s26 -38.333 26 -63s-8.66699 -45.667 -26 -63s-38 -26 -62 -26c-24.667 0 -45.667 8.66699 -63 26s-26 38.333 -26 63s8.66699 45.667 26 63z" />
    <glyph glyph-name="uni0326" unicode="&#x326;" horiz-adv-x="0" 
d="M-204 -260c12.667 6 26.167 16.166 40.5 30.499s23.5 28.5 27.5 42.5c-3.33301 -2 -9.66602 -3 -18.999 -3c-18.667 0 -34.167 6.33301 -46.5 19s-18.5 29.334 -18.5 50.001c0 22 7.66699 40.667 23 56s33.666 23 54.999 23c24 0 44.5 -8.66699 61.5 -26
s25.5 -41 25.5 -71c0 -32.667 -8.33301 -63.167 -25 -91.5s-39.667 -52.833 -69 -73.5z" />
    <glyph glyph-name="uni0327" unicode="&#x327;" horiz-adv-x="0" 
d="M-206 -102c28.667 -20 56.335 -30 83.002 -30c11.333 0 21.166 2 29.499 6s12.5 10 12.5 18c0 11.333 -7 17 -21 17c-10.667 0 -19.334 -4 -26.001 -12l-59 34l30 80h80l-25 -58c10 6 21.333 9 34 9c18.667 0 34.667 -6.83301 48 -20.5s20 -31.167 20 -52.5
c0 -27.333 -11.333 -49 -34 -65s-50.667 -24 -84 -24c-25.333 0 -48.5 3.16699 -69.5 9.5s-37.5 14.5 -49.5 24.5z" />
    <glyph glyph-name="uni0328" unicode="&#x328;" horiz-adv-x="0" 
d="M-55.5 -182c-15.667 -2.66699 -35.4971 -3.99805 -59.4971 -3.99805c-34.667 0 -65.334 6.83301 -92.001 20.5s-40 36.167 -40 67.5c0 23.333 11 43.5 33 60.5s56.667 31.833 104 44.5l105 -7c-28.667 -2.66699 -50.334 -9.33398 -65.001 -20.001
s-22 -23.334 -22 -38.001c0 -8.66699 3.16699 -15.667 9.5 -21s14.166 -8 23.499 -8c8 0 16 1.66699 24 5l27 -84c-16 -8 -31.833 -13.333 -47.5 -16z" />
    <glyph glyph-name="uni037E" unicode="&#x37e;" horiz-adv-x="281" 
d="M66 308c-21.333 21.333 -32 46.666 -32 75.999c0 28.667 10.5 53.5 31.5 74.5s46.167 31.5 75.5 31.5s54.5 -10.5 75.5 -31.5s31.5 -45.833 31.5 -74.5c0 -29.333 -10.667 -54.666 -32 -75.999s-46.333 -32 -75 -32s-53.667 10.667 -75 32zM56 -87
c16.667 7.33301 34.502 20.666 53.502 39.999s31.5 38 37.5 56c-6.66699 -2.66699 -15.334 -4 -26.001 -4c-24.667 0 -45.334 8.66699 -62.001 26s-25 39.666 -25 66.999c0 28.667 10.333 53.334 31 74.001s45 31 73 31c32 0 59.333 -11.667 82 -35s34 -54.666 34 -93.999
c0 -43.333 -10.833 -83.833 -32.5 -121.5s-52.5 -70.5 -92.5 -98.5z" />
    <glyph glyph-name="tonos" unicode="&#x384;" horiz-adv-x="166" 
d="M27 765h134l-82 -224h-74z" />
    <glyph glyph-name="dieresistonos" unicode="&#x385;" horiz-adv-x="520" 
d="M223 765h135l-82 -224h-75zM31 555c-17.333 17.333 -26 38.333 -26 63c0 25.333 8.66699 46.5 26 63.5s38.333 25.5 63 25.5c25.333 0 46.5 -8.5 63.5 -25.5s25.5 -38.167 25.5 -63.5c0 -24.667 -8.5 -45.667 -25.5 -63s-38.167 -26 -63.5 -26
c-24.667 0 -45.667 8.66699 -63 26zM362 555c-17.333 17.333 -26 38.333 -26 63s8.66699 45.667 26 63s38.333 26 63 26c25.333 0 46.666 -8.66699 63.999 -26s26 -38.333 26 -63s-8.66699 -45.667 -26 -63s-38.666 -26 -63.999 -26c-24.667 0 -45.667 8.66699 -63 26z" />
    <glyph glyph-name="Alphatonos" unicode="&#x386;" horiz-adv-x="710" 
d="M483 86h-256l-26 -86h-219l246 667h254l246 -667h-219zM279 254h152l-76 235zM34 667h134l-82 -224h-74z" />
    <glyph glyph-name="Epsilontonos" unicode="&#x388;" horiz-adv-x="730" 
d="M188 667h506v-168h-304v-78h297v-168h-297v-85h304v-168h-506v667zM24 667h134l-82 -224h-74z" />
    <glyph glyph-name="Etatonos" unicode="&#x389;" horiz-adv-x="885" 
d="M629 255h-239v-255h-202v667h202v-236h239v236h202v-667h-202v255zM24 667h134l-82 -224h-74z" />
    <glyph glyph-name="Iotatonos" unicode="&#x38a;" horiz-adv-x="444" 
d="M188 667h202v-667h-202v667zM24 667h134l-82 -224h-74z" />
    <glyph glyph-name="Omicrontonos" unicode="&#x38c;" horiz-adv-x="852" 
d="M152 512c32 52.667 75.833 93.5 131.5 122.5s117.5 43.5 185.5 43.5s129.833 -14.5 185.5 -43.5s99.5 -69.833 131.5 -122.5s48 -112.334 48 -179.001s-16 -126.334 -48 -179.001s-75.833 -93.5 -131.5 -122.5s-117.5 -43.5 -185.5 -43.5s-129.833 14.5 -185.5 43.5
s-99.5 69.833 -131.5 122.5s-48 112.334 -48 179.001s16 126.334 48 179.001zM609 417.5c-13.333 25.667 -32.166 45.834 -56.499 60.501s-52.166 22 -83.499 22s-59.166 -7.33301 -83.499 -22s-43.166 -34.834 -56.499 -60.501s-20 -53.834 -20 -84.501
s6.66699 -58.834 20 -84.501s32.166 -45.834 56.499 -60.501s52.166 -22 83.499 -22s59.166 7.33301 83.499 22s43.166 34.834 56.499 60.501s20 53.834 20 84.501s-6.66699 58.834 -20 84.501zM24 667h134l-82 -224h-74z" />
    <glyph glyph-name="Upsilontonos" unicode="&#x38e;" horiz-adv-x="848" 
d="M416 265l-250 402h227l124 -225l122 225h227l-248 -402v-265h-202v265zM24 667h134l-82 -224h-74z" />
    <glyph glyph-name="Omegatonos" unicode="&#x38f;" horiz-adv-x="872" 
d="M124 383c0 61.333 16.001 114.166 48.001 158.499s75.5 78.166 130.5 101.499s117.167 35 186.5 35s131.666 -11.667 186.999 -35s98.833 -57.166 130.5 -101.499s47.5 -97.166 47.5 -158.499c0 -76 -39.667 -145 -119 -207h102v-176h-298v176
c36.667 11.333 64.167 32.166 82.5 62.499s27.5 62.5 27.5 96.5c0 24.667 -5 49.5 -15 74.5s-27 46.167 -51 63.5s-55.333 26 -94 26s-70 -8.66699 -94 -26s-41 -38.5 -51 -63.5s-15 -49.833 -15 -74.5c0 -34 9.16699 -66.167 27.5 -96.5s45.833 -51.166 82.5 -62.499v-176
h-298v176h103c-80 62 -120 131 -120 207zM24.001 667h134l-82 -224h-74z" />
    <glyph glyph-name="iotadieresistonos" unicode="&#x390;" horiz-adv-x="294" 
d="M50 483h180.001v-305c0 -10 3.33301 -17.667 10 -23s14.667 -8 24 -8c6.66699 0 13 1 19 3l11 -152c-10 -2.66699 -22.333 -5 -37 -7s-28.334 -3 -41.001 -3c-54 0 -95.167 12.833 -123.5 38.5s-42.5 63.5 -42.5 113.5v343zM123.001 765h135l-82 -224h-75zM-68.999 555
c-17.333 17.333 -26 38.333 -26 63c0 25.333 8.66699 46.5 26 63.5s38.333 25.5 63 25.5c25.333 0 46.5 -8.5 63.5 -25.5s25.5 -38.167 25.5 -63.5c0 -24.667 -8.5 -45.667 -25.5 -63s-38.167 -26 -63.5 -26c-24.667 0 -45.667 8.66699 -63 26zM262.001 555
c-17.333 17.333 -26 38.333 -26 63s8.66699 45.667 26 63s38.333 26 63 26c25.333 0 46.666 -8.66699 63.999 -26s26 -38.333 26 -63s-8.66699 -45.667 -26 -63s-38.666 -26 -63.999 -26c-24.667 0 -45.667 8.66699 -63 26z" />
    <glyph glyph-name="Alpha" unicode="&#x391;" horiz-adv-x="710" 
d="M483 86h-256l-26 -86h-219l246 667h254l246 -667h-219zM279 254h152l-76 235z" />
    <glyph glyph-name="Beta" unicode="&#x392;" horiz-adv-x="697" 
d="M54 667h405.001c43.333 0 80 -8.33301 110 -25s52.167 -38 66.5 -64s21.5 -53 21.5 -81c0 -40.667 -10.667 -74.5 -32 -101.5s-48.666 -44.167 -81.999 -51.5c36.667 -5.33301 67 -23.166 91 -53.499s36 -66.833 36 -109.5c0 -32 -7.33301 -61.833 -22 -89.5
s-36.834 -49.834 -66.501 -66.501s-65.834 -25 -108.501 -25h-419v667zM412.001 419c10.667 0 20 4.16699 28 12.5s12 18.5 12 30.5c0 11.333 -4 21 -12 29s-17.333 12 -28 12h-156v-84h156zM418.001 164c14 0 25.333 4.33203 34 12.999s13 19.334 13 32.001
s-4.33301 23.5 -13 32.5s-20 13.5 -34 13.5h-162v-91h162z" />
    <glyph glyph-name="Gamma" unicode="&#x393;" horiz-adv-x="592" 
d="M54 667h506v-176h-304v-491h-202v667z" />
    <glyph glyph-name="uni0394" unicode="&#x394;" horiz-adv-x="710" 
d="M228 667h254l246 -667h-746zM265 176h180l-90 293z" />
    <glyph glyph-name="Epsilon" unicode="&#x395;" 
d="M54 667h506v-168h-304v-78h297v-168h-297v-85h304v-168h-506v667z" />
    <glyph glyph-name="Zeta" unicode="&#x396;" horiz-adv-x="600" 
d="M36 160l254 331h-254v176h521v-159l-255 -332h262v-176h-528v160z" />
    <glyph glyph-name="Eta" unicode="&#x397;" horiz-adv-x="751" 
d="M495 255h-239v-255h-202v667h202v-236h239v236h202v-667h-202v255z" />
    </font>
</defs>
</svg>
